<?xml version="1.0" encoding="utf-8"?>
<!-- Generator: Adobe Illustrator 18.0.0, SVG Export Plug-In . SVG Version: 6.00 Build 0)  -->
<!DOCTYPE svg PUBLIC "-//W3C//DTD SVG 1.1//EN" "http://www.w3.org/Graphics/SVG/1.1/DTD/svg11.dtd">
<svg version="1.1" id="Capa_1" xmlns="http://www.w3.org/2000/svg" xmlns:xlink="http://www.w3.org/1999/xlink" x="0px" y="0px"
	 viewBox="0 0 595.3 841.9" enable-background="new 0 0 595.3 841.9" xml:space="preserve">
<g id="guia" display="none">
</g>
<g id="guia2">
</g>
<g id="Capa_3">
	<g id="Capa_3_1_">
		<g>
			<path fill="#FFFFFF" d="M272.8,490.4c153.8,0,176.1,0,176.1-44.6c0-57-71.9-116.6-176.1-116.6c-106.7,0-176.1,59.5-176.1,116.6
				C96.7,490.4,121.5,490.4,272.8,490.4z M272.8,361.4c94.3,0,143.9,49.6,143.9,84.3c0,5,0,5,0,5l0,0c-7.4,7.4-62,7.4-143.9,7.4
				s-136.4,0-143.9-7.4c0,0,0-2.5,0-5C129,411,181.1,361.4,272.8,361.4z"/>
			<path fill="#FFFFFF" d="M426.6,495.4h-24.8c-14.9,0-74.4,39.7-74.4,39.7c-2.5,0-2.5,2.5-5,2.5c-2.5,0-5-2.5-9.9-5
				c0,0-54.6-37.2-69.4-37.2H121.5c-22.3,0-39.7,17.4-39.7,39.7c0,12.4,7.4,24.8,17.4,32.2c5,62,32.2,86.8,176.1,86.8
				s171.1-24.8,176.1-86.8c9.9-7.4,17.4-19.8,17.4-32.2C466.3,512.7,448.9,495.4,426.6,495.4z M272.8,624.3
				c-114.1,0-138.9-14.9-143.9-47.1h285.2C411.7,609.5,386.9,624.3,272.8,624.3z"/>
		</g>
		<path fill="#FFFFFF" d="M436.5,197.7c-42.2,0-76.9,34.7-76.9,74.4c0,42.2,34.7,74.4,76.9,74.4s76.9-34.7,76.9-74.4
			S478.7,197.7,436.5,197.7z M424.1,227.5c2.5-5,7.4-9.9,12.4-9.9c5,0,7.4,2.5,9.9,5h2.5c7.4,0,12.4,5,12.4,12.4l0,0
			c-5-2.5-9.9-5-17.4-5c-7.4,0-17.4,2.5-29.8,12.4c0-2.5-2.5-2.5-2.5-5C414.2,232.4,419.2,227.5,424.1,227.5z M453.9,306.8
			c-2.5,0-5,0-7.4-2.5c5-12.4,14.9-19.8,22.3-24.8c2.5,2.5,2.5,5,2.5,9.9C473.7,299.4,463.8,306.8,453.9,306.8z M488.6,269.6
			c-2.5,0-44.6,5-49.6,52.1v2.5l0,0c0,0,0,0-2.5,0l-52.1-34.7c0,0-2.5-2.5,0-2.5c27.3-42.2,49.6-49.6,62-49.6
			c12.4,0,22.3,7.4,27.3,19.8l14.9,7.4C491.1,264.7,491.1,267.2,488.6,269.6C491.1,269.6,488.6,269.6,488.6,269.6z"/>
		<circle fill="#FFFFFF" cx="451.4" cy="262.2" r="5"/>
	</g>
</g>
</svg>
