<?xml version="1.0" encoding="utf-8"?>
<!-- Generator: Adobe Illustrator 18.0.0, SVG Export Plug-In . SVG Version: 6.00 Build 0)  -->
<!DOCTYPE svg PUBLIC "-//W3C//DTD SVG 1.1//EN" "http://www.w3.org/Graphics/SVG/1.1/DTD/svg11.dtd">
<svg version="1.1" id="Capa_1" xmlns="http://www.w3.org/2000/svg" xmlns:xlink="http://www.w3.org/1999/xlink" x="0px" y="0px"
	 viewBox="0 0 595.3 841.9" enable-background="new 0 0 595.3 841.9" xml:space="preserve">
<g id="guia" display="none">
</g>
<g id="guia2">
</g>
<g>
	<path fill="#FFFFFF" d="M448.9,450.7c0-5-5-7.4-7.4-7.4H153.8c-5,0-7.4,2.5-7.4,7.4l-5,49.6c0,2.5,0,5,2.5,7.4c2.5,2.5,5,2.5,5,2.5
		c5,0,96.7,2.5,116.6,109.1v9.9c0,5,2.5,7.4,7.4,7.4h49.6c5,0,7.4-2.5,7.4-7.4v-9.9c19.8-106.7,111.6-109.1,116.6-109.1
		c2.5,0,5,0,5-2.5c2.5-2.5,2.5-5,2.5-7.4L448.9,450.7z"/>
	<path fill="#FFFFFF" d="M203.4,393.7h188.5c32.2,0,57-27.3,57-59.5v-34.7c0,0,0,0,0-2.5v-84.3c0-5-2.5-7.4-7.4-7.4h-19.8
		c-5,0-7.4,2.5-7.4,7.4v67c-7.4-2.5-14.9-2.5-22.3-2.5c-44.6,0-79.4,22.3-91.8,52.1c-12.4-29.8-49.6-52.1-91.8-52.1
		c-7.4,0-14.9,0-22.3,2.5v-67c0-5-2.5-7.4-7.4-7.4h-24.8c-5,0-7.4,2.5-7.4,7.4v84.3c0,0,0,0,0,2.5v37.2
		C146.3,368.9,171.1,393.7,203.4,393.7z"/>
</g>
</svg>
