<?xml version="1.0" encoding="utf-8"?>
<!-- Generator: Adobe Illustrator 18.0.0, SVG Export Plug-In . SVG Version: 6.00 Build 0)  -->
<!DOCTYPE svg PUBLIC "-//W3C//DTD SVG 1.1//EN" "http://www.w3.org/Graphics/SVG/1.1/DTD/svg11.dtd">
<svg version="1.1" id="Capa_1" xmlns="http://www.w3.org/2000/svg" xmlns:xlink="http://www.w3.org/1999/xlink" x="0px" y="0px"
	 viewBox="0 0 595.3 841.9" enable-background="new 0 0 595.3 841.9" xml:space="preserve">
<g id="guia" display="none">
</g>
<g id="guia2">
</g>
<g id="Capa_3">
	<g>
		<polygon fill="#FFFFFF" points="111.6,490.4 163.7,522.6 168.7,515.2 119.1,483 		"/>
		<polygon fill="#FFFFFF" points="471.3,483 421.7,515.2 426.6,522.6 476.2,490.4 		"/>
		<path fill="#FFFFFF" d="M315,430.9c7.4,5,9.9,7.4,9.9,7.4s0,2.5-5,7.4c-7.4-5-14.9-7.4-19.8-9.9v230.7h5c9.9,2.5,24.8,5,34.7,7.4
			c14.9,5,44.6,0,44.6,0s0-99.2,0-126.5c0-22.3-22.3-86.8-24.8-114.1H315V430.9z M359.6,473l-37.2-7.4v-2.5l34.7,7.4L359.6,473z"/>
		<path fill="#FFFFFF" d="M270.4,438.3c0,0,2.5-2.5,9.9-7.4h-49.6c-2.5,27.3-24.8,91.8-24.8,114.1c0,24.8,0,126.5,0,126.5
			s29.8,5,44.6,0c9.9-2.5,24.8-5,34.7-7.4h7.4V433.3c-5,2.5-9.9,5-17.4,9.9C270.4,440.8,270.4,438.3,270.4,438.3z M233.2,473v-2.5
			l34.7-7.4v2.5L233.2,473z"/>
		<path fill="#FFFFFF" d="M374.5,272.1C374.5,272.1,372.1,272.1,374.5,272.1C372.1,272.1,372.1,272.1,374.5,272.1
			c-5-5-12.4-12.4-24.8-19.8c-2.5-5-2.5-12.4-5-19.8l0,0c0-5-2.5-9.9-2.5-14.9l0,0l0,0c-7.4-22.3-22.3-52.1-44.6-52.1
			c-29.8,0-44.6,44.6-49.6,64.5c-2.5,7.4-2.5,14.9-2.5,24.8c-14.9,5-24.8,12.4-29.8,17.4c0,0,0,0,0,2.5L119.1,478l49.6,32.2
			l54.6-146.3c2.5,22.3,7.4,44.6,7.4,57h54.6c2.5,0,5,0,7.4,0V279.6c-22.3-2.5-39.7-14.9-39.7-32.2s19.8-32.2,44.6-32.2
			c24.8,0,44.6,14.9,44.6,32.2s-17.4,29.8-39.7,32.2v141.4c2.5,0,5,0,5,0h54.6c2.5-12.4,5-34.7,7.4-54.6l54.6,146.3l49.6-32.2
			L374.5,272.1z"/>
	</g>
</g>
</svg>
