<?xml version="1.0" encoding="utf-8"?>
<!-- Generator: Adobe Illustrator 18.0.0, SVG Export Plug-In . SVG Version: 6.00 Build 0)  -->
<!DOCTYPE svg PUBLIC "-//W3C//DTD SVG 1.1//EN" "http://www.w3.org/Graphics/SVG/1.1/DTD/svg11.dtd">
<svg version="1.1" id="Capa_1" xmlns="http://www.w3.org/2000/svg" xmlns:xlink="http://www.w3.org/1999/xlink" x="0px" y="0px"
	 viewBox="0 0 595.3 841.9" enable-background="new 0 0 595.3 841.9" xml:space="preserve">
<g id="guia" display="none">
</g>
<g id="guia2">
</g>
<g id="Capa_3">
	<path fill="#FFFFFF" d="M481.2,520.2c-9.9-116.6-76.9-208.3-158.7-223.2c12.4-7.4,19.8-22.3,19.8-37.2c0-24.8-19.8-44.6-44.6-44.6
		c-24.8,0-44.6,19.8-44.6,44.6c0,17.4,9.9,29.8,22.3,39.7C191,314.3,124,403.6,114.1,520.2c-19.8,9.9-32.2,29.8-32.2,52.1
		c0,32.2,24.8,57,57,57h317.5c32.2,0,57-24.8,57-57C513.4,547.4,501,527.6,481.2,520.2z M295.2,237.4c12.4,0,19.8,9.9,19.8,19.8
		c0,12.4-9.9,19.8-19.8,19.8c-12.4,0-19.8-9.9-19.8-19.8C275.3,247.3,285.2,237.4,295.2,237.4z M456.4,614.4H138.9
		c-22.3,0-42.2-19.8-42.2-42.2c0-19.8,12.4-34.7,29.8-39.7c2.5,0,2.5,0,5,0s5,0,7.4,0h317.5c2.5,0,5,0,7.4,0c2.5,0,2.5,0,5,0
		c17.4,5,29.8,22.3,29.8,39.7C498.5,594.6,478.7,614.4,456.4,614.4z"/>
</g>
</svg>
