<?xml version="1.0" encoding="utf-8"?>
<!-- Generator: Adobe Illustrator 18.0.0, SVG Export Plug-In . SVG Version: 6.00 Build 0)  -->
<!DOCTYPE svg PUBLIC "-//W3C//DTD SVG 1.1//EN" "http://www.w3.org/Graphics/SVG/1.1/DTD/svg11.dtd">
<svg version="1.1" id="Capa_1" xmlns="http://www.w3.org/2000/svg" xmlns:xlink="http://www.w3.org/1999/xlink" x="0px" y="0px"
	 viewBox="0 0 595.3 841.9" enable-background="new 0 0 595.3 841.9" xml:space="preserve">
<g id="guia" display="none">
</g>
<g id="guia2">
</g>
<g id="Capa_3">
	<path fill="#FFFFFF" d="M528.3,356.5c-7.4-7.4-17.4-9.9-19.8-9.9c-24.8-5-54.6-7.4-76.9-7.4c-7.4,0-14.9,0-17.4,0
		c-24.8,0-52.1,2.5-69.4,7.4c-17.4,2.5-32.2,5-49.6,5c-17.4,0-34.7-2.5-47.1-5c-17.4-2.5-44.6-7.4-69.4-7.4c-2.5,0-7.4,0-17.4,0
		c-22.3,0-52.1,2.5-74.4,7.4c-2.5,0-12.4,2.5-19.8,9.9c-5,5-7.4,12.4-5,19.8c0,12.4,7.4,19.8,14.9,22.3c2.5,9.9,7.4,29.8,17.4,49.6
		l-9.9,9.9c-9.9,12.4-9.9,27.3,0,37.2s24.8,9.9,34.7,0l7.4-7.4c14.9,9.9,29.8,14.9,49.6,14.9h7.4h2.5c24.8,0,49.6-5,71.9-27.3
		c2.5-2.5,7.4-7.4,9.9-12.4c7.4-12.4,12.4-24.8,14.9-32.2s2.5-14.9,5-19.8c2.5-5,5-5,7.4-5l0,0c2.5,0,5,0,7.4,5
		c0,7.4,2.5,14.9,5,19.8c2.5,7.4,7.4,19.8,14.9,32.2c2.5,5,7.4,9.9,9.9,12.4c19.8,19.8,42.2,24.8,59.5,27.3c5,0,7.4,0,12.4,0h2.5
		c0,0,2.5,0,5,0h5c17.4,0,34.7-5,49.6-14.9l7.4,7.4c5,5,9.9,7.4,17.4,7.4s12.4-2.5,17.4-7.4c9.9-9.9,9.9-24.8,0-34.7l-9.9-9.9
		c9.9-19.8,14.9-39.7,17.4-49.6c9.9-2.5,14.9-12.4,14.9-22.3C533.3,368.9,530.8,361.4,528.3,356.5z M357.2,368.9
		c19.8-2.5,37.2-7.4,59.5-7.4h2.5h2.5c42.2,0,64.5,9.9,71.9,17.4c2.5,2.5,2.5,5,2.5,9.9l0,0v2.5c-2.5,22.3-9.9,42.2-22.3,57
		c0,2.5-2.5,2.5-2.5,5c0,2.5-2.5,2.5-2.5,5l-2.5,2.5l0,0c-12.4,12.4-29.8,19.8-52.1,19.8h-5c-24.8,0-44.6-9.9-59.5-24.8
		c-7.4-9.9-14.9-22.3-17.4-34.7c-2.5-5-2.5-9.9-2.5-9.9v-2.5c0,0,0,0,0-2.5v-2.5l0,0c0-12.4,2.5-22.3,7.4-27.3c0,0,2.5-2.5,14.9-7.4
		L357.2,368.9z M188.5,480.5h-5c-19.8,0-37.2-7.4-52.1-19.8l-2.5-2.5l0,0c0,0-2.5-2.5-2.5-5c0-2.5-2.5-2.5-2.5-5
		c-9.9-14.9-17.4-37.2-22.3-59.5v-2.5v-2.5c0-2.5,0-5,2.5-7.4c5-5,27.3-14.9,67-14.9h2.5h5c19.8,0,37.2,2.5,57,7.4h7.4
		c12.4,2.5,14.9,5,14.9,7.4c5,7.4,9.9,14.9,7.4,27.3l0,0v2.5c0,2.5,0,2.5,0,2.5v2.5c0,0,0,5-2.5,9.9c-2.5,12.4-9.9,24.8-17.4,34.7
		C233.2,470.6,213.3,480.5,188.5,480.5z"/>
</g>
</svg>
