<?xml version="1.0" encoding="utf-8"?>
<!-- Generator: Adobe Illustrator 18.0.0, SVG Export Plug-In . SVG Version: 6.00 Build 0)  -->
<!DOCTYPE svg PUBLIC "-//W3C//DTD SVG 1.1//EN" "http://www.w3.org/Graphics/SVG/1.1/DTD/svg11.dtd">
<svg version="1.1" id="Capa_1" xmlns="http://www.w3.org/2000/svg" xmlns:xlink="http://www.w3.org/1999/xlink" x="0px" y="0px"
	 viewBox="0 0 595.3 841.9" enable-background="new 0 0 595.3 841.9" xml:space="preserve">
<g id="guia" display="none">
</g>
<g id="guia2">
</g>
<g id="Capa_3">
	<g id="guia_1_">
	</g>
	<g>
		<path fill="#FFFFFF" d="M506,272.1c-5-2.5-9.9-5-14.9-2.5l-9.9,5l5-22.3c0-2.5,0-2.5-2.5-2.5c0,0-2.5,0-5,0l-7.4,5v-2.5
			c0-5,0-7.4-5-9.9c-2.5-2.5-7.4-2.5-12.4,0L86.8,450.7c-5,2.5-5,7.4-5,9.9c0,2.5,2.5,7.4,5,7.4l-5,2.5c-2.5,0-2.5,2.5-2.5,2.5
			c0,2.5,2.5,2.5,2.5,2.5l9.9,2.5c-2.5,2.5-2.5,5-2.5,7.4c0,5,5,9.9,9.9,12.4l320,99.2c2.5,0,2.5,0,5,0c2.5,0,5,0,7.4-2.5
			c2.5-2.5,5-5,7.4-9.9l71.9-305.1C513.4,282,510.9,274.6,506,272.1z M444,277.1C446.5,277.1,446.5,277.1,444,277.1
			C446.5,277.1,446.5,277.1,444,277.1l32.2-17.4l-5,19.8L99.2,475.5l-7.4-2.5L444,277.1z M416.7,569.8l-272.8-84.3l334.8-176.1
			L416.7,569.8z"/>
		<circle fill="#FFFFFF" cx="431.6" cy="396.1" r="9.9"/>
		<circle fill="#FFFFFF" cx="436.5" cy="363.9" r="7.4"/>
		<circle fill="#FFFFFF" cx="406.8" cy="373.8" r="12.4"/>
	</g>
</g>
</svg>
