<?xml version="1.0" encoding="utf-8"?>
<!-- Generator: Adobe Illustrator 18.0.0, SVG Export Plug-In . SVG Version: 6.00 Build 0)  -->
<!DOCTYPE svg PUBLIC "-//W3C//DTD SVG 1.1//EN" "http://www.w3.org/Graphics/SVG/1.1/DTD/svg11.dtd">
<svg version="1.1" id="Capa_1" xmlns="http://www.w3.org/2000/svg" xmlns:xlink="http://www.w3.org/1999/xlink" x="0px" y="0px"
	 viewBox="0 0 595.3 841.9" enable-background="new 0 0 595.3 841.9" xml:space="preserve">
<g id="guia" display="none">
</g>
<g id="guia2">
</g>
<g id="Capa_3">
	<g>
		<path fill="#FFFFFF" d="M463.8,361.4c0-9.9-7.4-19.8-19.8-19.8h-5v86.8c0,12.4-9.9,22.3-22.3,22.3h-86.8v42.2c0,5-5,7.4-9.9,7.4
			h-44.6c-5,0-9.9-2.5-9.9-7.4v-42.2h-89.3c-12.4,0-22.3-9.9-22.3-22.3v-86.8h-5c-9.9,0-19.8,7.4-19.8,19.8L62,599.5
			c0,9.9,7.4,19.8,19.8,19.8h429.1c9.9,0,19.8-7.4,19.8-19.8L463.8,361.4z"/>
		<path fill="#FFFFFF" d="M188.5,438.3h74.4v-39.7c0-5,5-7.4,9.9-7.4h44.6c5,0,9.9,2.5,9.9,7.4v39.7h74.4c9.9,0,19.8-9.9,19.8-19.8
			v-81.9c0-9.9-9.9-19.8-19.8-19.8c0-52.1-49.6-91.8-109.1-91.8S186,264.7,186,316.8l0,0c-9.9,2.5-17.4,9.9-17.4,19.8v81.9
			C168.7,430.9,178.6,438.3,188.5,438.3z M295.2,249.8c47.1,0,84.3,29.8,84.3,67H210.8C210.8,279.6,248,249.8,295.2,249.8z"/>
		<path fill="#FFFFFF" d="M280.3,403.6c-5,0-7.4,2.5-7.4,7.4V483c0,2.5,2.5,7.4,7.4,7.4h32.2c5,0,7.4-2.5,7.4-7.4V411
			c0-2.5-2.5-7.4-7.4-7.4H280.3z"/>
	</g>
</g>
</svg>
