<?xml version="1.0" encoding="utf-8"?>
<!-- Generator: Adobe Illustrator 18.0.0, SVG Export Plug-In . SVG Version: 6.00 Build 0)  -->
<!DOCTYPE svg PUBLIC "-//W3C//DTD SVG 1.1//EN" "http://www.w3.org/Graphics/SVG/1.1/DTD/svg11.dtd">
<svg version="1.1" id="Capa_1" xmlns="http://www.w3.org/2000/svg" xmlns:xlink="http://www.w3.org/1999/xlink" x="0px" y="0px"
	 viewBox="0 0 595.3 841.9" enable-background="new 0 0 595.3 841.9" xml:space="preserve">
<g id="guia" display="none">
</g>
<g id="guia2">
</g>
<g id="Capa_3">
	<g>
		<path fill="#FFFFFF" d="M396.9,448.2c-17.4-17.4-32.2-32.2-39.7-47.1c-2.5-2.5-2.5-7.4-5-9.9c-2.5-7.4,0-71.9,0-114.1
			c0-37.2,0-52.1,0-62l0,0l0,0c0-2.5,0-5,0-5l0,0l0,0l0,0l0,0l0,0l0,0c-2.5-2.5-2.5-2.5-5-2.5h-124c-5,0-7.4,2.5-7.4,7.4v19.8h14.9
			v-12.4h111.6c0,2.5,0,5,0,7.4c0,5,0,9.9,0,17.4H310l0,0l0,0c0,9.9,0,27.3,0,64.5c0,44.6-2.5,109.1,0,116.6c0,2.5,2.5,7.4,5,9.9
			c7.4,14.9,22.3,29.8,39.7,47.1c17.4,17.4,34.7,37.2,47.1,57l29.8-37.2c9.9,12.4,14.9,24.8,14.9,37.2s-5,22.3-17.4,32.2
			c-5,5-9.9,7.4-17.4,9.9c0,5-2.5,9.9-5,14.9c12.4-2.5,22.3-5,32.2-14.9c12.4-12.4,19.8-27.3,19.8-42.2
			C456.4,507.8,426.6,478,396.9,448.2z"/>
		<path fill="#FFFFFF" d="M297.6,440.8c-2.5-2.5-2.5-7.4-5-9.9c-2.5-7.4,0-71.9,0-114.1c0-37.2,0-52.1,0-62l0,0l0,0c0-2.5,0-5,0-5
			l0,0l0,0l0,0l0,0l0,0l0,0c-2.5-2.5-2.5-2.5-5-2.5h-124c-5-5-9.9,0-9.9,2.5V287l0,0c0,17.4,0,37.2,0,54.6c0,7.4,0,14.9,0,19.8
			c0,14.9,0,27.3,0,42.2c0,9.9-5,19.8-7.4,27.3c-5,12.4-7.4,22.3-7.4,34.7c0,29.8,19.8,57,49.6,64.5
			c42.2,47.1,101.7,104.2,148.8,104.2c14.9,0,27.3-5,37.2-14.9c14.9-12.4,19.8-27.3,19.8-42.2c0-32.2-29.8-62-59.5-91.8
			C322.4,470.6,305.1,455.7,297.6,440.8z M191,520.2c-22.3-7.4-37.2-27.3-37.2-49.6c0-9.9,2.5-19.8,7.4-29.8c2.5-5,2.5-9.9,5-14.9
			c27.3-2.5,42.2,12.4,49.6,29.8C223.2,475.5,215.8,505.3,191,520.2z M280.3,279.6H168.7c0,0,0,0,0-2.5v-22.3h111.6c0,2.5,0,5,0,7.4
			C280.3,269.6,280.3,274.6,280.3,279.6z M382,579.7c0,12.4-5,22.3-17.4,32.2c-7.4,7.4-17.4,9.9-27.3,9.9c-9.9,0-19.8-2.5-29.8-7.4
			l59.5-74.4C377,554.9,382,567.3,382,579.7z"/>
	</g>
</g>
</svg>
