<?xml version="1.0" encoding="utf-8"?>
<!-- Generator: Adobe Illustrator 18.0.0, SVG Export Plug-In . SVG Version: 6.00 Build 0)  -->
<!DOCTYPE svg PUBLIC "-//W3C//DTD SVG 1.1//EN" "http://www.w3.org/Graphics/SVG/1.1/DTD/svg11.dtd">
<svg version="1.1" id="Capa_1" xmlns="http://www.w3.org/2000/svg" xmlns:xlink="http://www.w3.org/1999/xlink" x="0px" y="0px"
	 viewBox="0 0 595.3 841.9" enable-background="new 0 0 595.3 841.9" xml:space="preserve">
<g id="guia" display="none">
</g>
<g id="guia2">
</g>
<g id="Capa_3">
	<path fill="#FFFFFF" d="M414.2,425.9c0,5-5,9.9-12.4,9.9H183.5c-7.4,0-12.4-5-12.4-9.9v-7.4c0-5,5-9.9,12.4-9.9h218.3
		c7.4,0,12.4,5,12.4,9.9V425.9z"/>
	<path fill="#FFFFFF" d="M101.7,587.1L129,326.7c0-2.5,2.5-5,7.4-5h2.5c2.5,0,7.4,2.5,5,5l-24.8,258h166.2l12.4-64.5l12.4,64.5
		h158.7l-24.8-258c0-2.5,2.5-5,5-5h2.5c2.5,0,7.4,2.5,7.4,5l27.3,258h27.3c-7.4-86.8-14.9-161.2-19.8-191
		c-12.4-91.8-27.3-131.5-29.8-133.9c-2.5-2.5-7.4-5-9.9-5H141.4c-5,0-7.4,2.5-9.9,5c-2.5,2.5-17.4,42.2-29.8,133.9
		c-5,29.8-9.9,104.2-19.8,191C81.9,587.1,101.7,587.1,101.7,587.1z M148.8,279.6h297.6c2.5,5,5,12.4,7.4,22.3h-2.5h-310
		C141.4,289.5,143.9,282,148.8,279.6z"/>
</g>
</svg>
