<?xml version="1.0" encoding="utf-8"?>
<!-- Generator: Adobe Illustrator 18.0.0, SVG Export Plug-In . SVG Version: 6.00 Build 0)  -->
<!DOCTYPE svg PUBLIC "-//W3C//DTD SVG 1.1//EN" "http://www.w3.org/Graphics/SVG/1.1/DTD/svg11.dtd">
<svg version="1.1" id="Capa_1" xmlns="http://www.w3.org/2000/svg" xmlns:xlink="http://www.w3.org/1999/xlink" x="0px" y="0px"
	 viewBox="0 0 595.3 841.9" enable-background="new 0 0 595.3 841.9" xml:space="preserve">
<g id="guia" display="none">
</g>
<g id="guia2">
</g>
<g id="Capa_3">
	<g id="Capa_3_1_">
		<g>
			<path fill="#FFFFFF" d="M528.3,381.3c-5-7.4-9.9-14.9-14.9-19.8c0-2.5,0-5,0-7.4c0-19.8-7.4-42.2-19.8-57
				c-7.4-9.9-17.4-19.8-29.8-24.8c-2.5-2.5-7.4,0-9.9,0L434.1,292v-24.8c0-2.5-2.5-7.4-7.4-7.4c-2.5,0-2.5,0-5,0
				c-7.4,0-12.4,0-19.8,0c-5,0-7.4,2.5-7.4,7.4v27.3l-22.3-22.3c-2.5-2.5-5-2.5-7.4-2.5c-9.9,5-17.4,9.9-24.8,14.9
				c-2.5,2.5-7.4,7.4-12.4,9.9c-2.5,2.5-2.5,5-2.5,5c0,2.5,2.5,5,2.5,5l29.8,19.8H310c-2.5,0-5,2.5-7.4,5c-5,12.4-7.4,24.8-9.9,34.7
				c0,2.5,0,5,2.5,5c2.5,2.5,2.5,2.5,5,2.5h84.3c2.5,0,5,0,5-2.5c7.4,0,7.4-2.5,7.4-5c-2.5-7.4-2.5-14.9,2.5-22.3
				c5-9.9,14.9-14.9,24.8-17.4c12.4-2.5,24.8,0,34.7,7.4c12.4,7.4,19.8,19.8,22.3,34.7c-5,7.4-7.4,19.8-7.4,34.7
				c0,24.8,9.9,44.6,22.3,44.6c5,0,12.4-5,14.9-12.4c-5-2.5-7.4-5-9.9-7.4c-5-7.4-9.9-14.9-12.4-22.3c-2.5-5-2.5-7.4-2.5-12.4
				c0,5,2.5,7.4,5,12.4c2.5,2.5,2.5,5,5,7.4c0,0,0,0,0,2.5c2.5,2.5,2.5,5,5,5l0,0c7.4,7.4,17.4,9.9,24.8,7.4
				C535.8,418.5,535.8,398.6,528.3,381.3z"/>
			<path fill="#FFFFFF" d="M421.7,346.5c-2.5,2.5-5,2.5-5,5c-2.5,2.5-2.5,5,0,7.4c2.5,7.4,2.5,22.3,0,29.8
				c-2.5,5-12.4,9.9-29.8,17.4c-22.3-9.9-69.4-14.9-124-14.9c-59.5,0-109.1,7.4-129,17.4c-19.8-7.4-32.2-12.4-32.2-17.4l0,0
				c5-9.9,57-34.7,156.3-34.7c7.4,0,14.9,0,22.3,0c2.5-12.4,5-22.3,9.9-32.2c0-2.5,2.5-5,2.5-5c-12.4,0-22.3,0-32.2,0
				c-71.9,0-195.9,14.9-195.9,71.9c0,67,32.2,124,84.3,161.2c-7.4,2.5-12.4,9.9-12.4,17.4c0,9.9,7.4,17.4,17.4,17.4h81.9h52.1h79.4
				c9.9,0,17.4-7.4,17.4-17.4c0-7.4-5-14.9-9.9-17.4c49.6-34.7,84.3-94.3,84.3-161.2C453.9,368.9,441.5,356.5,421.7,346.5z M258,545
				c-69.4,0-129-44.6-148.8-106.7c42.2,17.4,104.2,22.3,148.8,22.3s109.1-5,151.3-22.3C389.4,500.3,327.4,545,258,545z"/>
		</g>
	</g>
</g>
</svg>
