<?xml version="1.0" encoding="utf-8"?>
<!-- Generator: Adobe Illustrator 18.0.0, SVG Export Plug-In . SVG Version: 6.00 Build 0)  -->
<!DOCTYPE svg PUBLIC "-//W3C//DTD SVG 1.1//EN" "http://www.w3.org/Graphics/SVG/1.1/DTD/svg11.dtd">
<svg version="1.1" id="Capa_1" xmlns="http://www.w3.org/2000/svg" xmlns:xlink="http://www.w3.org/1999/xlink" x="0px" y="0px"
	 viewBox="0 0 595.3 841.9" enable-background="new 0 0 595.3 841.9" xml:space="preserve">
<g id="guia" display="none">
</g>
<g id="guia2">
</g>
<g id="Capa_3">
	<g>
		<circle fill="#FFFFFF" cx="188.5" cy="309.3" r="12.4"/>
		<circle fill="#FFFFFF" cx="161.2" cy="393.7" r="12.4"/>
		<circle fill="#FFFFFF" cx="275.3" cy="284.5" r="12.4"/>
		<circle fill="#FFFFFF" cx="228.2" cy="349" r="12.4"/>
		<circle fill="#FFFFFF" cx="200.9" cy="430.9" r="12.4"/>
		<circle fill="#FFFFFF" cx="315" cy="324.2" r="12.4"/>
		<circle fill="#FFFFFF" cx="267.9" cy="386.2" r="12.4"/>
		<circle fill="#FFFFFF" cx="315" cy="433.3" r="12.4"/>
		<circle fill="#FFFFFF" cx="240.6" cy="470.6" r="12.4"/>
		<circle fill="#FFFFFF" cx="354.7" cy="361.4" r="12.4"/>
		<path fill="#FFFFFF" d="M508.5,589.6l-54.6-52.1c-7.4-7.4-17.4-7.4-24.8-2.5c-5,2.5-39.7-47.1-42.2-52.1l0,0
			c42.2-62,27.3-178.6-32.2-238.1c-24.8-24.8-57-39.7-89.3-39.7c-42.2,0-84.3,22.3-124,59.5C69.4,336.6,62,418.5,121.5,478
			c34.7,34.7,91.8,54.6,148.8,54.6c32.2,0,62-7.4,81.9-19.8c22.3,12.4,42.2,27.3,57,39.7c-5,7.4-2.5,17.4,2.5,24.8l54.6,52.1
			c7.4,7.4,19.8,7.4,29.8,0l12.4-12.4C515.9,611.9,515.9,597,508.5,589.6z M143.9,458.2c-24.8-24.8-34.7-52.1-29.8-84.3
			c5-29.8,22.3-59.5,49.6-86.8c32.2-32.2,69.4-52.1,101.7-52.1c24.8,0,49.6,9.9,69.4,29.8c52.1,52.1,64.5,168.7,19.8,210.8
			c-17.4,17.4-47.1,27.3-84.3,27.3C220.7,502.8,171.1,485.4,143.9,458.2z M369.6,505.3c2.5-2.5,5-2.5,7.4-5c0,0,0,0,2.5-2.5
			c5,7.4,9.9,14.9,14.9,22.3C384.5,512.7,377,507.8,369.6,505.3z"/>
	</g>
</g>
</svg>
