<?xml version="1.0" encoding="utf-8"?>
<!-- Generator: Adobe Illustrator 18.0.0, SVG Export Plug-In . SVG Version: 6.00 Build 0)  -->
<!DOCTYPE svg PUBLIC "-//W3C//DTD SVG 1.1//EN" "http://www.w3.org/Graphics/SVG/1.1/DTD/svg11.dtd">
<svg version="1.1" id="Capa_1" xmlns="http://www.w3.org/2000/svg" xmlns:xlink="http://www.w3.org/1999/xlink" x="0px" y="0px"
	 viewBox="0 0 595.3 841.9" enable-background="new 0 0 595.3 841.9" xml:space="preserve">
<g id="guia" display="none">
</g>
<g id="guia2">
</g>
<g id="Capa_3">
	<g id="guia_1_">
	</g>
	<path fill="#FFFFFF" d="M466.3,401.1c-7.4-2.5-14.9-2.5-24.8-2.5l0,0c-7.4,0-12.4,0-19.8,2.5L401.8,349c-5-7.4-5-19.8,0-27.3
		c0-2.5,2.5-5,9.9-5c5,0,19.8,0,32.2-9.9c5-5,9.9-12.4,9.9-19.8c0-12.4-2.5-22.3-9.9-27.3c-7.4-7.4-19.8-9.9-29.8-9.9h-7.4h-49.6
		v27.3h49.6h9.9c7.4,0,9.9,0,9.9,0s0,2.5,0,7.4c-2.5,0-5,2.5-9.9,2.5h-2.5c0,0,0,0-2.5,0h-2.5c-12.4,2.5-24.8,7.4-29.8,17.4
		c-7.4,9.9-7.4,22.3-7.4,32.2l-158.7,0l-5-7.4h22.3c7.4,0,14.9-7.4,14.9-14.9c0-5-2.5-7.4-5-9.9c-2.5-2.5-7.4-2.5-9.9-2.5h-54.6
		c-5-2.5-9.9-2.5-9.9-5c0-5-2.5-7.4-5-9.9c0-2.5-5-5-7.4-5c-9.9,0-14.9,7.4-14.9,14.9c0,12.4,7.4,24.8,22.3,29.8c2.5,0,2.5,0,5,2.5
		c2.5,0,7.4,2.5,9.9,2.5c0,0,0,0,0,2.5l14.9,22.3l-17.4,39.7c-7.4,0-12.4,0-17.4,0l0,0c-24.8,0-49.6,9.9-67,27.3s-29.8,42.2-29.8,67
		c0,44.6,29.8,81.9,71.9,94.3c7.4,2.5,14.9,2.5,24.8,2.5l0,0c44.6,0,84.3-32.2,94.3-76.9h12.4c5,12.4,14.9,22.3,29.8,24.8
		c2.5,0,7.4,2.5,12.4,2.5c19.8,0,37.2-12.4,42.2-32.2c5,39.7,32.2,71.9,71.9,81.9c7.4,2.5,14.9,2.5,24.8,2.5l0,0
		c52.1,0,96.7-42.2,96.7-94.3C538.2,453.2,508.5,413.5,466.3,401.1z M302.6,478v-5l0,0V478c2.5,0,2.5,0,5,0
		c7.4,2.5,12.4,7.4,12.4,14.9c0,9.9-7.4,14.9-17.4,14.9l0,0c-9.9,0-14.9-7.4-14.9-17.4C285.2,485.4,292.7,478,302.6,478z
		 M312.5,450.7c-2.5,0-5,0-9.9,0l0,0c-2.5,0-5,0-7.4,0l-62-86.8l124,2.5L312.5,450.7z M302.6,455.7L302.6,455.7L302.6,455.7
		L302.6,455.7z M223.2,483h-52.1l17.4-49.6C208.3,443.3,218.3,463.1,223.2,483z M270.4,463.1c-5,5-9.9,12.4-9.9,19.8H253
		c-5-32.2-24.8-62-54.6-76.9l9.9-27.3L270.4,463.1z M153.8,423.4v-5l0,0V423.4c2.5,0,5,0,7.4,0l-24.8,67c-2.5,5,0,9.9,2.5,12.4
		s5,5,7.4,5h2.5h69.4c-7.4,29.8-34.7,49.6-67,49.6l0,0c-5,0-12.4,0-17.4-2.5c-29.8-7.4-49.6-34.7-49.6-67c0-17.4,7.4-34.7,19.8-47.1
		C119.1,430.9,136.4,423.4,153.8,423.4z M372.1,495.4c0-22.3,12.4-44.6,32.2-57l27.3,67c2.5,5,5,7.4,9.9,7.4c2.5,0,5,0,9.9,0
		c2.5-2.5,7.4-5,7.4-7.4c2.5-2.5,2.5-7.4,0-9.9l-27.3-67c2.5,0,7.4,0,9.9,0l0,0c5,0,12.4,0,17.4,2.5c29.8,7.4,49.6,34.7,49.6,67
		c0,37.2-29.8,67-69.4,67c-5,0-12.4,0-17.4-2.5C391.9,552.4,372.1,525.1,372.1,495.4z M334.8,465.6l44.6-84.3l12.4,29.8
		c-27.3,14.9-44.6,42.2-49.6,71.9C342.3,475.5,339.8,470.6,334.8,465.6z M441.5,587.1L441.5,587.1L441.5,587.1L441.5,587.1z"/>
</g>
</svg>
