<?xml version="1.0" encoding="utf-8"?>
<!-- Generator: Adobe Illustrator 18.0.0, SVG Export Plug-In . SVG Version: 6.00 Build 0)  -->
<!DOCTYPE svg PUBLIC "-//W3C//DTD SVG 1.1//EN" "http://www.w3.org/Graphics/SVG/1.1/DTD/svg11.dtd">
<svg version="1.1" id="Capa_1" xmlns="http://www.w3.org/2000/svg" xmlns:xlink="http://www.w3.org/1999/xlink" x="0px" y="0px"
	 viewBox="0 0 595.3 841.9" enable-background="new 0 0 595.3 841.9" xml:space="preserve">
<g id="guia" display="none">
</g>
<g id="guia2">
</g>
<g id="Capa_3">
	<path fill="#FFFFFF" d="M483.7,187.8c-7.4-5-14.9-2.5-19.8,5l-57,91.8c-2.5,2.5-2.5,7.4-2.5,9.9L218.3,607
		c-12.4-9.9-49.6-24.8-49.6-24.8c-2.5,0-2.5,0-2.5-2.5c-76.9-27.3-71.9,32.2-42.2,62c27.3,27.3,89.3,7.4,89.3,7.4l22.3-34.7
		l183.5-310c2.5,0,7.4-2.5,7.4-7.4l57-91.8C493.6,200.2,491.1,192.8,483.7,187.8z M248,592.1l-9.9-5l168.7-285.2l9.9,5L248,592.1z"
		/>
</g>
</svg>
