<?xml version="1.0" encoding="utf-8"?>
<!-- Generator: Adobe Illustrator 18.0.0, SVG Export Plug-In . SVG Version: 6.00 Build 0)  -->
<!DOCTYPE svg PUBLIC "-//W3C//DTD SVG 1.1//EN" "http://www.w3.org/Graphics/SVG/1.1/DTD/svg11.dtd">
<svg version="1.1" id="Capa_1" xmlns="http://www.w3.org/2000/svg" xmlns:xlink="http://www.w3.org/1999/xlink" x="0px" y="0px"
	 viewBox="0 0 595.3 841.9" enable-background="new 0 0 595.3 841.9" xml:space="preserve">
<g id="guia" display="none">
</g>
<g id="guia2">
</g>
<g id="Capa_3">
	<g>
		<path fill="#FFFFFF" d="M310,416l-5,5c-2.5,2.5-52.1,47.1-69.4,59.5c-12.4,9.9-27.3,14.9-42.2,14.9c-19.8,0-37.2-7.4-49.6-22.3
			c-7.4-7.4-22.3-24.8-34.7-39.7l-2.5,39.7c0,29.8,24.8,54.6,54.6,54.6h310l2.5-22.3c2.5-52.1-29.8-64.5-54.6-74.4l-106.7-39.7
			L310,416z"/>
		<path fill="#FFFFFF" d="M220.7,465.6c17.4-14.9,69.4-59.5,69.4-59.5L320,197.7l-42.2-2.5c-22.3-2.5-42.2,9.9-52.1,29.8l-119.1-9.9
			l-5,173.6c0,0,42.2,54.6,57,71.9C176.1,475.5,203.4,478,220.7,465.6z M200.9,274.6c0,0,54.6,5,84.3,7.4l-7.4,47.1l-79.4-7.4l0,0
			c-12.4,0-22.3-12.4-22.3-24.8C176.1,282,188.5,272.1,200.9,274.6z M195.9,411c12.4,0,19.8,12.4,19.8,22.3
			c0,12.4-12.4,19.8-22.3,19.8c-12.4,0-19.8-12.4-19.8-22.3C173.6,420.9,183.5,411,195.9,411z"/>
		<path fill="#FFFFFF" d="M124,540c-29.8,0-54.6,24.8-54.6,54.6s24.8,54.6,54.6,54.6s54.6-24.8,54.6-54.6S153.8,540,124,540z
			 M124,624.3c-14.9,0-29.8-12.4-29.8-29.8s12.4-29.8,29.8-29.8s29.8,12.4,29.8,29.8S141.4,624.3,124,624.3z"/>
		<path fill="#FFFFFF" d="M240.6,540c-29.8,0-54.6,24.8-54.6,54.6s24.8,54.6,54.6,54.6s54.6-24.8,54.6-54.6S270.4,540,240.6,540z
			 M240.6,624.3c-17.4,0-29.8-12.4-29.8-29.8s12.4-29.8,29.8-29.8s29.8,12.4,29.8,29.8S255.5,624.3,240.6,624.3z"/>
		<path fill="#FFFFFF" d="M354.7,540c-29.8,0-54.6,24.8-54.6,54.6s24.8,54.6,54.6,54.6c29.8,0,54.6-24.8,54.6-54.6
			S384.5,540,354.7,540z M354.7,624.3c-17.4,0-29.8-12.4-29.8-29.8s12.4-29.8,29.8-29.8c17.4,0,29.8,12.4,29.8,29.8
			S372.1,624.3,354.7,624.3z"/>
		<path fill="#FFFFFF" d="M471.3,540c-29.8,0-54.6,24.8-54.6,54.6s24.8,54.6,54.6,54.6c29.8,0,54.6-24.8,54.6-54.6
			S501,540,471.3,540z M471.3,624.3c-17.4,0-29.8-12.4-29.8-29.8s12.4-29.8,29.8-29.8c14.9,0,29.8,12.4,29.8,29.8
			S486.1,624.3,471.3,624.3z"/>
	</g>
</g>
</svg>
