<?xml version="1.0" encoding="utf-8"?>
<!-- Generator: Adobe Illustrator 18.0.0, SVG Export Plug-In . SVG Version: 6.00 Build 0)  -->
<!DOCTYPE svg PUBLIC "-//W3C//DTD SVG 1.1//EN" "http://www.w3.org/Graphics/SVG/1.1/DTD/svg11.dtd">
<svg version="1.1" id="Capa_1" xmlns="http://www.w3.org/2000/svg" xmlns:xlink="http://www.w3.org/1999/xlink" x="0px" y="0px"
	 viewBox="0 0 595.3 841.9" enable-background="new 0 0 595.3 841.9" xml:space="preserve">
<g id="guia" display="none">
</g>
<g id="guia2">
</g>
<g id="Capa_3">
	<g>
		<path fill="#FFFFFF" d="M411.7,651.6c0,2.5,2.5,5,5,5h2.5c2.5,0,5-2.5,5-5v-32.2h-9.9v32.2H411.7z"/>
		<rect x="168.7" y="582.2" fill="#FFFFFF" width="250.5" height="29.8"/>
		<rect x="168.7" y="542.5" fill="#FFFFFF" width="250.5" height="24.8"/>
		<path fill="#FFFFFF" d="M168.7,651.6c0,2.5,2.5,5,5,5l0,0c2.5,0,5-2.5,5-5v-32.2h-9.9V651.6z"/>
		<path fill="#FFFFFF" d="M195.9,651.6c0,2.5,2.5,5,5,5h2.5c2.5,0,5-2.5,5-5v-32.2h-12.4V651.6z"/>
		<path fill="#FFFFFF" d="M223.2,651.6c0,2.5,2.5,5,5,5h2.5c2.5,0,5-2.5,5-5v-32.2h-12.4V651.6z"/>
		<path fill="#FFFFFF" d="M250.5,651.6c0,2.5,2.5,5,5,5h2.5c2.5,0,5-2.5,5-5v-32.2H253C250.5,619.4,250.5,651.6,250.5,651.6z"/>
		<path fill="#FFFFFF" d="M275.3,651.6c0,2.5,2.5,5,5,5h2.5c2.5,0,5-2.5,5-5v-32.2h-9.9v32.2H275.3z"/>
		<path fill="#FFFFFF" d="M302.6,651.6c0,2.5,2.5,5,5,5h2.5c2.5,0,5-2.5,5-5v-32.2h-9.9v32.2H302.6z"/>
		<path fill="#FFFFFF" d="M329.9,651.6c0,2.5,2.5,5,5,5h2.5c2.5,0,5-2.5,5-5v-32.2h-9.9v32.2H329.9z"/>
		<path fill="#FFFFFF" d="M357.2,651.6c0,2.5,2.5,5,5,5h2.5c2.5,0,5-2.5,5-5v-32.2h-9.9v32.2H357.2z"/>
		<path fill="#FFFFFF" d="M384.5,651.6c0,2.5,2.5,5,5,5h2.5c2.5,0,5-2.5,5-5v-32.2h-9.9v32.2H384.5z"/>
		<path fill="#FFFFFF" d="M448.9,428.4l-22.3-148.8h7.4c7.4,0,14.9-5,14.9-12.4v-59.5c0-7.4-5-12.4-14.9-12.4H310
			c-2.5-7.4-9.9-12.4-14.9-12.4c-5,0-14.9,5-17.4,12.4h-124c-7.4,0-14.9,5-14.9,12.4v59.5c0,7.4,5,12.4,14.9,12.4h14.9v2.5v245.6
			h253V282v-2.5h7.4v151.3L448.9,428.4z M369.6,230H220.7c-24.8,0-44.6,17.4-49.6,39.7h-17.4c-2.5,0-2.5,0-2.5-2.5v-59.5l2.5-2.5
			h133.9v-5c0-5,2.5-7.4,7.4-7.4s7.4,2.5,7.4,7.4v5h133.9c2.5,0,2.5,0,2.5,2.5v59.5l-2.5,2.5h-17.4C411.7,247.3,391.9,230,369.6,230
			z"/>
	</g>
</g>
</svg>
