<?xml version="1.0" encoding="utf-8"?>
<!-- Generator: Adobe Illustrator 18.0.0, SVG Export Plug-In . SVG Version: 6.00 Build 0)  -->
<!DOCTYPE svg PUBLIC "-//W3C//DTD SVG 1.1//EN" "http://www.w3.org/Graphics/SVG/1.1/DTD/svg11.dtd">
<svg version="1.1" id="Capa_1" xmlns="http://www.w3.org/2000/svg" xmlns:xlink="http://www.w3.org/1999/xlink" x="0px" y="0px"
	 viewBox="0 0 595.3 841.9" enable-background="new 0 0 595.3 841.9" xml:space="preserve">
<g id="guia" display="none">
</g>
<g id="guia2">
</g>
<g id="Capa_3">
	<path fill="#FFFFFF" d="M493.6,314.3v-69.4H379.5v69.4h-19.8v138.9c0,32.2,24.8,57,57,57h2.5c-5,17.4-19.8,29.8-39.7,29.8h-24.8
		c-22.3,0-39.7-17.4-39.7-39.7V306.8c0-39.7-32.2-74.4-74.4-74.4h-24.8c-39.7,0-74.4,32.2-74.4,74.4v32.2h-2.5
		c-32.2,0-57,24.8-57,57V535h19.8v69.4h114.1V535h19.8V396.1c0-32.2-24.8-57-57-57h-2.5v-32.2c0-22.3,17.4-39.7,39.7-39.7h24.8
		c22.3,0,39.7,17.4,39.7,39.7v193.5c0,39.7,32.2,74.4,74.4,74.4h24.8c37.2,0,67-27.3,71.9-64.5h5c32.2,0,57-24.8,57-57V314.3H493.6z
		 M151.3,574.7h-14.9V540h17.4v34.7H151.3z M183.5,540v34.7h-14.9V540H183.5z M458.9,314.3h-17.4v-17.4c0-5-2.5-7.4-7.4-7.4
		c-5,0-7.4,5-7.4,7.4v17.4h-14.9v-34.7h49.6L458.9,314.3L458.9,314.3z"/>
</g>
</svg>
