<?xml version="1.0" encoding="utf-8"?>
<!-- Generator: Adobe Illustrator 18.0.0, SVG Export Plug-In . SVG Version: 6.00 Build 0)  -->
<!DOCTYPE svg PUBLIC "-//W3C//DTD SVG 1.1//EN" "http://www.w3.org/Graphics/SVG/1.1/DTD/svg11.dtd">
<svg version="1.1" id="Capa_1" xmlns="http://www.w3.org/2000/svg" xmlns:xlink="http://www.w3.org/1999/xlink" x="0px" y="0px"
	 viewBox="0 0 595.3 841.9" enable-background="new 0 0 595.3 841.9" xml:space="preserve">
<g id="guia" display="none">
</g>
<g id="guia2">
</g>
<g id="Capa_3">
	<g>
		<path fill="#FFFFFF" d="M369.6,473h-81.9c-2.5-7.4-9.9-12.4-19.8-12.4c-7.4,0-14.9,5-19.8,12.4h-24.8c-5,0-9.9,5-9.9,9.9
			s5,9.9,9.9,9.9H248c2.5,7.4,9.9,12.4,19.8,12.4c7.4,0,14.9-5,19.8-12.4h81.9c5,0,9.9-5,9.9-9.9C379.5,478,374.5,473,369.6,473z"/>
		<path fill="#FFFFFF" d="M369.6,294.4H225.7c-5,0-9.9,5-9.9,9.9v129c0,5,5,9.9,9.9,9.9h146.3c5,0,9.9-5,9.9-9.9v-129
			C379.5,299.4,374.5,294.4,369.6,294.4z M359.6,423.4h-124V314.3h126.5v109.1H359.6z"/>
		<path fill="#FFFFFF" d="M265.4,416c2.5,0,5,2.5,5,2.5c2.5,0,5,0,5-2.5l59.5-34.7c2.5-2.5,5-5,5-9.9s-2.5-7.4-5-9.9l-59.5-34.7
			c-2.5-2.5-9.9-2.5-12.4,0c-2.5,2.5-5,5-5,9.9v67C258,411,260.4,413.5,265.4,416z M277.8,351.5l37.2,22.3l-37.2,22.3V351.5z"/>
		<path fill="#FFFFFF" d="M379.5,227.5H215.8c-19.8,0-37.2,17.4-37.2,37.2v315c0,19.8,17.4,37.2,37.2,37.2h163.7
			c19.8,0,37.2-17.4,37.2-37.2V262.2C416.7,242.4,399.3,227.5,379.5,227.5z M389.4,579.7c0,5-5,9.9-9.9,9.9H215.8
			c-5,0-9.9-5-9.9-9.9V262.2c0-5,5-9.9,9.9-9.9h163.7c5,0,9.9,5,9.9,9.9L389.4,579.7L389.4,579.7z"/>
	</g>
</g>
</svg>
