<?xml version="1.0" encoding="utf-8"?>
<!-- Generator: Adobe Illustrator 18.0.0, SVG Export Plug-In . SVG Version: 6.00 Build 0)  -->
<!DOCTYPE svg PUBLIC "-//W3C//DTD SVG 1.1//EN" "http://www.w3.org/Graphics/SVG/1.1/DTD/svg11.dtd">
<svg version="1.1" id="Capa_1" xmlns="http://www.w3.org/2000/svg" xmlns:xlink="http://www.w3.org/1999/xlink" x="0px" y="0px"
	 viewBox="0 0 595.3 841.9" enable-background="new 0 0 595.3 841.9" xml:space="preserve">
<g id="guia" display="none">
</g>
<g id="guia2">
</g>
<g id="Capa_3">
	<g>
		<path fill="#FFFFFF" d="M129,326.7h12.4c5-17.4,19.8-29.8,37.2-29.8v-12.4C153.8,284.5,133.9,304.4,129,326.7z"/>
		<path fill="#FFFFFF" d="M181.1,237.4c-54.6,0-101.7,44.6-101.7,101.7c0,24.8,9.9,47.1,22.3,64.5v188.5c0,7.4,5,12.4,12.4,12.4h129
			c7.4,0,12.4-5,12.4-12.4v-186c14.9-17.4,24.8-39.7,24.8-64.5C282.8,282,238.1,237.4,181.1,237.4z M230.7,587.1
			c-7.4,0-12.4-5-12.4-12.4s5-12.4,12.4-12.4s12.4,5,12.4,12.4C240.6,582.2,235.6,587.1,230.7,587.1z M181.1,406.1
			c-37.2,0-67-29.8-67-67s29.8-67,67-67s67,29.8,67,67C250.5,373.8,218.3,406.1,181.1,406.1z"/>
		<path fill="#FFFFFF" d="M496.1,299.4H282.8c5,12.4,7.4,24.8,7.4,39.7c0,24.8-9.9,47.1-24.8,64.5v47.1c2.5,2.5,5,2.5,7.4,2.5h223.2
			c7.4,0,14.9-5,14.9-14.9V311.8C510.9,304.4,503.5,299.4,496.1,299.4z M424.1,339.1H317.5c-5,0-9.9-5-9.9-9.9s5-9.9,9.9-9.9h106.7
			V339.1z M481.2,339.1H439v-19.8h42.2c5,0,9.9,5,9.9,9.9S488.6,339.1,481.2,339.1z"/>
	</g>
</g>
</svg>
