<?xml version="1.0" encoding="utf-8"?>
<!-- Generator: Adobe Illustrator 18.0.0, SVG Export Plug-In . SVG Version: 6.00 Build 0)  -->
<!DOCTYPE svg PUBLIC "-//W3C//DTD SVG 1.1//EN" "http://www.w3.org/Graphics/SVG/1.1/DTD/svg11.dtd">
<svg version="1.1" id="Capa_1" xmlns="http://www.w3.org/2000/svg" xmlns:xlink="http://www.w3.org/1999/xlink" x="0px" y="0px"
	 viewBox="0 0 595.3 841.9" enable-background="new 0 0 595.3 841.9" xml:space="preserve">
<g id="guia" display="none">
</g>
<g id="guia2">
</g>
<g id="Capa_3">
	<g>
		<path fill="#FFFFFF" d="M416.7,366.4c-7.4-5-14.9-7.4-22.3-7.4c-19.8,0-39.7,0-59.5,0c0,0-2.5,0-2.5,2.5
			c-7.4,7.4-12.4,17.4-19.8,24.8c-5,5-9.9,12.4-12.4,17.4v-2.5c-5-12.4-7.4-24.8-12.4-37.2c0-2.5-2.5-2.5-5-2.5c-29.8,0-62,0-91.8,0
			c-2.5,0-5,0-5,2.5c0,5-2.5,7.4-2.5,12.4c2.5,0,2.5,0,2.5,0c9.9,0,22.3,0,32.2,0c5,0,9.9,0,14.9,5c5,2.5,5,5,5,9.9
			c0,9.9-5,14.9-12.4,17.4c-7.4,5-17.4,5-27.3,5c2.5-9.9,5-22.3,7.4-32.2c-9.9,0-17.4,0-24.8,0c-2.5,14.9-7.4,29.8-9.9,47.1
			c12.4,0,24.8,0,37.2,0c5,0,9.9,0,17.4-2.5c12.4-2.5,24.8-7.4,34.7-17.4c7.4-7.4,9.9-14.9,7.4-24.8c0-2.5,0-5-2.5-7.4l0,0
			c7.4,22.3,14.9,44.6,24.8,69.4c5-7.4,12.4-12.4,17.4-19.8c12.4-14.9,27.3-32.2,39.7-47.1l2.5-2.5c9.9,0,22.3,0,32.2,0
			c5,0,9.9,2.5,14.9,2.5c5,2.5,7.4,7.4,7.4,12.4c0,7.4-5,12.4-9.9,14.9c-9.9,5-17.4,5-27.3,5c2.5-9.9,5-22.3,7.4-32.2
			c-9.9,0-17.4,0-24.8,0c-2.5,14.9-7.4,32.2-9.9,47.1c12.4,0,24.8,0,34.7,0c5,0,9.9,0,14.9,0c9.9-2.5,19.8-5,27.3-9.9
			s14.9-12.4,17.4-22.3c0-2.5,0-5,0-7.4C429.1,376.3,424.1,371.3,416.7,366.4z"/>
		<path fill="#FFFFFF" d="M414.2,458.2c-2.5-2.5-7.4-2.5-12.4-5c-14.9-5-29.8-7.4-47.1-7.4c-22.3,0-44.6-2.5-64.5-2.5
			c-32.2,0-62,0-91.8,5c-9.9,2.5-17.4,5-27.3,7.4c-2.5,0-5,2.5-7.4,5v2.5c2.5,2.5,5,5,9.9,5c2.5,2.5,7.4,2.5,9.9,5
			c22.3,5,47.1,7.4,69.4,7.4c27.3,0,52.1,0,79.4,0c19.8,0,42.2-2.5,62-7.4c7.4-2.5,14.9-2.5,19.8-7.4
			C419.2,463.1,419.2,460.6,414.2,458.2z M312.5,463.1c-2.5,2.5-7.4,2.5-9.9,2.5c-5,0-12.4,0-19.8,2.5c-5,0-12.4-2.5-22.3-2.5
			c-2.5,0-2.5,0-5-2.5c-2.5-2.5-2.5-2.5,0-5c2.5-2.5,7.4-2.5,9.9-2.5c12.4-2.5,24.8-2.5,39.7,0c2.5,0,2.5,0,5,2.5
			C315,460.6,315,463.1,312.5,463.1z"/>
		<path fill="#FFFFFF" d="M409.3,485.4c0-2.5-2.5-5-2.5-7.4l0,0c0,5-2.5,7.4-2.5,12.4l0,0c0-2.5,2.5-5,2.5-7.4c0,2.5,0,5,2.5,7.4
			c2.5-2.5,2.5-5,5-7.4l0,0c0,2.5,0,2.5,0,5v2.5l0,0c0-5,0-7.4,0-12.4l0,0C411.7,480.5,409.3,483,409.3,485.4z"/>
		<path fill="#FFFFFF" d="M394.4,480.5h2.5c0,2.5,0,7.4,0,9.9l0,0c2.5-2.5,0-7.4,2.5-9.9h2.5C399.3,478,394.4,478,394.4,480.5z"/>
		<path fill="#FFFFFF" d="M481.2,282H114.1c-17.4,0-32.2,14.9-32.2,34.7v245.6c0,19.8,14.9,34.7,32.2,34.7h364.6
			c17.4,0,32.2-14.9,32.2-34.7V316.8C513.4,296.9,498.5,282,481.2,282z M431.6,572.2H163.7c-5,0-9.9-5-9.9-9.9c0-5,5-9.9,9.9-9.9
			h270.4c5,0,9.9,5,9.9,9.9C441.5,567.3,436.5,572.2,431.6,572.2z M486.1,408.5v111.6c0,5-2.5,7.4-7.4,7.4H114.1c-5,0-7.4-5-7.4-7.4
			V316.8c0-5,2.5-7.4,7.4-7.4h364.6c5,0,7.4,5,7.4,7.4L486.1,408.5L486.1,408.5z"/>
	</g>
</g>
</svg>
