<?xml version="1.0" encoding="utf-8"?>
<!-- Generator: Adobe Illustrator 18.0.0, SVG Export Plug-In . SVG Version: 6.00 Build 0)  -->
<!DOCTYPE svg PUBLIC "-//W3C//DTD SVG 1.1//EN" "http://www.w3.org/Graphics/SVG/1.1/DTD/svg11.dtd">
<svg version="1.1" id="Capa_1" xmlns="http://www.w3.org/2000/svg" xmlns:xlink="http://www.w3.org/1999/xlink" x="0px" y="0px"
	 viewBox="0 0 595.3 841.9" enable-background="new 0 0 595.3 841.9" xml:space="preserve">
<g id="guia" display="none">
</g>
<g id="guia2">
</g>
<g id="Capa_3">
	<g>
		<path fill="#FFFFFF" d="M258,287c-96.7,0-173.6,79.4-173.6,173.6S163.7,634.3,258,634.3s173.6-79.4,173.6-173.6S354.7,287,258,287
			z M258,624.3c-89.3,0-161.2-71.9-161.2-161.2S168.7,301.9,258,301.9s161.2,71.9,161.2,161.2S347.2,624.3,258,624.3z"/>
		<path fill="#FFFFFF" d="M258,416c-24.8,0-47.1,22.3-47.1,47.1c0,24.8,22.3,47.1,47.1,47.1s47.1-22.3,47.1-47.1
			C305.1,438.3,282.8,416,258,416z M258,480.5c-9.9,0-17.4-7.4-17.4-17.4s7.4-17.4,17.4-17.4s17.4,7.4,17.4,17.4
			S267.9,480.5,258,480.5z"/>
		<path fill="#FFFFFF" d="M143.9,475.5h-29.8c2.5,69.4,57,126.5,124,131.5v-29.8C188.5,569.8,146.3,527.6,143.9,475.5z"/>
		<path fill="#FFFFFF" d="M270.4,324.2V354c34.7,2.5,67,19.8,84.3,47.1c7.4-7.4,14.9-14.9,22.3-22.3
			C352.2,346.5,315,324.2,270.4,324.2z"/>
		<path fill="#FFFFFF" d="M473.7,257.2C471.3,257.2,471.3,257.2,473.7,257.2v19.8l0,0c7.4,0,9.9-2.5,9.9-9.9c0-2.5,0-5-2.5-7.4
			C478.7,257.2,476.2,257.2,473.7,257.2z"/>
		<path fill="#FFFFFF" d="M396.9,257.2L396.9,257.2v19.8l0,0c7.4,0,9.9-2.5,9.9-9.9c0-2.5,0-5-2.5-7.4
			C404.3,257.2,401.8,257.2,396.9,257.2z"/>
		<path fill="#FFFFFF" d="M439,192.8c-42.2,0-74.4,34.7-74.4,74.4s34.7,74.4,74.4,74.4s74.4-34.7,74.4-74.4S478.7,192.8,439,192.8z
			 M414.2,284.5c-5,5-9.9,7.4-17.4,7.4c-2.5,0-5,0-7.4,0h-2.5v-44.6h2.5c2.5,0,7.4,0,9.9,0c7.4,0,12.4,2.5,14.9,5c5,5,5,9.9,5,14.9
			C419.2,274.6,416.7,279.6,414.2,284.5z M444,289.5h-9.9l-12.4-44.6h12.4l5,19.8l7.4-19.8h12.4L444,289.5z M488.6,284.5
			c-5,5-9.9,7.4-17.4,7.4c-2.5,0-5,0-7.4,0h-2.5v-44.6h2.5c2.5,0,7.4,0,9.9,0c7.4,0,12.4,2.5,14.9,5c5,5,5,9.9,5,14.9
			C493.6,274.6,493.6,279.6,488.6,284.5z"/>
	</g>
</g>
</svg>
