<?xml version="1.0" encoding="utf-8"?>
<!-- Generator: Adobe Illustrator 18.0.0, SVG Export Plug-In . SVG Version: 6.00 Build 0)  -->
<!DOCTYPE svg PUBLIC "-//W3C//DTD SVG 1.1//EN" "http://www.w3.org/Graphics/SVG/1.1/DTD/svg11.dtd">
<svg version="1.1" id="Capa_1" xmlns="http://www.w3.org/2000/svg" xmlns:xlink="http://www.w3.org/1999/xlink" x="0px" y="0px"
	 viewBox="0 0 595.3 841.9" enable-background="new 0 0 595.3 841.9" xml:space="preserve">
<g id="guia" display="none">
</g>
<g id="guia2">
</g>
<g id="Capa_3">
	<g id="GPS_WITH_ARROW_1_">
		<g id="GPS_WITH_ARROW">
			<path id="arrow_2_" fill="#FFFFFF" d="M386.9,483l-86.8-166.2c0,0,0,0-2.5-2.5l0,0l0,0l0,0l0,0l0,0l0,0c0,0-2.5,0-2.5,2.5
				L208.3,483v2.5h2.5c0,0,0,0,2.5,0l84.3-34.7l0,0l86.8,34.7l0,0l0,0l0,0l0,0l0,0h2.5V483z M297.6,430.9l-5,2.5l-2.5,2.5
				l-44.6,17.4l52.1-99.2l0,0V430.9L297.6,430.9z"/>
			<path id="gps_1_" fill="#FFFFFF" d="M481.2,269.6H114.1c-17.4,0-32.2,14.9-32.2,34.7V540c0,19.8,14.9,34.7,32.2,34.7h364.6
				c17.4,0,32.2-14.9,32.2-34.7V304.4C513.4,284.5,498.5,269.6,481.2,269.6z M337.3,547.4h-76.9c-5,0-7.4-5-7.4-7.4
				c0-5,5-7.4,7.4-7.4h76.9c5,0,7.4,5,7.4,7.4C344.8,545,342.3,547.4,337.3,547.4z M488.6,386.2L488.6,386.2v111.6
				c0,5-2.5,7.4-7.4,7.4H114.1c-5,0-7.4-5-7.4-7.4V304.4c0-5,2.5-7.4,7.4-7.4h364.6c5,0,7.4,5,7.4,7.4v81.9H488.6z"/>
		</g>
	</g>
</g>
</svg>
