<?xml version="1.0" encoding="utf-8"?>
<!-- Generator: Adobe Illustrator 18.0.0, SVG Export Plug-In . SVG Version: 6.00 Build 0)  -->
<!DOCTYPE svg PUBLIC "-//W3C//DTD SVG 1.1//EN" "http://www.w3.org/Graphics/SVG/1.1/DTD/svg11.dtd">
<svg version="1.1" id="Capa_1" xmlns="http://www.w3.org/2000/svg" xmlns:xlink="http://www.w3.org/1999/xlink" x="0px" y="0px"
	 viewBox="0 0 595.3 841.9" enable-background="new 0 0 595.3 841.9" xml:space="preserve">
<g id="guia" display="none">
</g>
<g id="guia2">
</g>
<g id="Capa_3">
	<g>
		<path fill="#FFFFFF" d="M523.4,381.3c-2.5-12.4-5-27.3-5-32.2c0-24.8,12.4-62,12.4-62c2.5-5,0-9.9-2.5-14.9s-7.4-7.4-12.4-7.4
			s-129-9.9-235.6,7.4C168.7,292,84.3,455.7,79.4,463.1l-19.8,39.7c-2.5,5-2.5,12.4,0,17.4c2.5,5,7.4,7.4,14.9,7.4h416.7
			c2.5,0,5,0,5,0c22.3-7.4,34.7-29.8,34.7-64.5C533.3,435.8,528.3,406.1,523.4,381.3z M491.1,495.4H104.2l7.4-14.9
			c0,0,14.9-27.3,37.2-59.5c37.2-2.5,71.9-17.4,71.9-44.6c0-5-2.5-14.9-12.4-24.8c24.8-22.3,49.6-39.7,79.4-44.6
			c76.9-12.4,163.7-9.9,203.4-7.4c-2.5,12.4-7.4,27.3-7.4,39.7c-2.5-9.9-5-17.4-5-17.4c-2.5-7.4-7.4-12.4-14.9-12.4
			c-7.4,0-67-5-131.5,5c-74.4,12.4-104.2,81.9-104.2,84.3c-2.5,5-2.5,12.4,2.5,17.4c2.5,5,9.9,7.4,14.9,7.4h5
			c29.8,0,158.7-2.5,193.5-5c9.9,0,39.7-5,42.2-47.1c0,5,2.5,9.9,2.5,14.9c5,22.3,9.9,49.6,9.9,74.4
			C498.5,480.5,496.1,490.4,491.1,495.4z M451.4,366.4c0,19.8-5,19.8-7.4,19.8c-29.8,0-121.5,2.5-168.7,2.5
			c12.4-14.9,32.2-34.7,62-39.7c44.6-7.4,89.3-7.4,111.6-5C448.9,349,451.4,358.9,451.4,366.4z"/>
		<path fill="#FFFFFF" d="M468.8,542.5H79.4c-9.9,0-17.4,7.4-17.4,17.4c0,9.9,7.4,17.4,17.4,17.4h391.9c9.9,0,17.4-7.4,17.4-17.4
			S478.7,542.5,468.8,542.5z"/>
	</g>
</g>
</svg>
