<?xml version="1.0" encoding="utf-8"?>
<!-- Generator: Adobe Illustrator 18.0.0, SVG Export Plug-In . SVG Version: 6.00 Build 0)  -->
<!DOCTYPE svg PUBLIC "-//W3C//DTD SVG 1.1//EN" "http://www.w3.org/Graphics/SVG/1.1/DTD/svg11.dtd">
<svg version="1.1" id="Capa_1" xmlns="http://www.w3.org/2000/svg" xmlns:xlink="http://www.w3.org/1999/xlink" x="0px" y="0px"
	 viewBox="0 0 595.3 841.9" enable-background="new 0 0 595.3 841.9" xml:space="preserve">
<g id="guia" display="none">
</g>
<g id="guia2">
</g>
<g id="Capa_3">
	<g>
		<path fill="#FFFFFF" d="M471.3,492.9v-12.4c0-49.6-29.8-94.3-76.9-109.1v-67c0-67-54.6-124-124-124c-67,0-124,54.6-124,124v267.9
			h-27.3c-27.3,0-49.6,19.8-49.6,47.1v24.8c0,9.9,7.4,17.4,17.4,17.4h203.4c9.9,0,17.4-7.4,17.4-17.4v-2.5h76.9
			c14.9,9.9,32.2,17.4,52.1,17.4c47.1,0,86.8-39.7,86.8-86.8C523.4,537.5,503.5,505.3,471.3,492.9z M436.5,626.8
			c-29.8,0-54.6-24.8-54.6-54.6c0-29.8,24.8-54.6,54.6-54.6c29.8,0,54.6,24.8,54.6,54.6C491.1,602,466.3,626.8,436.5,626.8z
			 M104.2,616.9c0-7.4,7.4-14.9,17.4-14.9h44.6c9.9,0,17.4-7.4,17.4-17.4V304.4c0-49.6,39.7-89.3,89.3-89.3s89.3,39.7,89.3,89.3
			v141.4c0,5-5,9.9-9.9,9.9s-9.9-5-9.9-9.9V304.4c0-39.7-32.2-71.9-71.9-71.9s-71.9,32.2-71.9,71.9v282.8c0,9.9,7.4,17.4,17.4,17.4
			H258c9.9,0,17.4,5,17.4,14.9v9.9H104.2V616.9z M235.6,480.5v91.8h-2.5V304.4c0-22.3,17.4-39.7,39.7-39.7
			c22.3,0,39.7,17.4,39.7,39.7v67C267.9,388.7,235.6,430.9,235.6,480.5z M267.9,572.2V478c0-29.8,17.4-59.5,42.2-74.4v42.2
			c0,22.3,19.8,42.2,42.2,42.2c22.3,0,42.2-19.8,42.2-42.2v-39.7c27.3,14.9,44.6,42.2,44.6,74.4v5h-2.5c-47.1,0-86.8,39.7-86.8,86.8
			c0,12.4,2.5,27.3,7.4,37.2h-52.1C302.6,592.1,287.7,577.2,267.9,572.2z"/>
		<circle fill="#FFFFFF" cx="436.5" cy="572.2" r="27.3"/>
	</g>
</g>
</svg>
