<?xml version="1.0" encoding="utf-8"?>
<!-- Generator: Adobe Illustrator 18.0.0, SVG Export Plug-In . SVG Version: 6.00 Build 0)  -->
<!DOCTYPE svg PUBLIC "-//W3C//DTD SVG 1.1//EN" "http://www.w3.org/Graphics/SVG/1.1/DTD/svg11.dtd">
<svg version="1.1" id="Capa_1" xmlns="http://www.w3.org/2000/svg" xmlns:xlink="http://www.w3.org/1999/xlink" x="0px" y="0px"
	 viewBox="0 0 595.3 841.9" enable-background="new 0 0 595.3 841.9" xml:space="preserve">
<g id="guia" display="none">
</g>
<g id="guia2">
</g>
<g id="Capa_3">
	<g>
		<path fill="#FFFFFF" d="M496.1,185.3H99.2c-24.8,0-44.6,19.8-44.6,44.6v379.5c0,24.8,19.8,44.6,44.6,44.6h396.9
			c24.8,0,44.6-19.8,44.6-44.6V230C543.2,205.2,520.9,185.3,496.1,185.3z M94.3,230c0-2.5,2.5-5,5-5h396.9c2.5,0,5,2.5,5,5v379.5
			c0,2.5-2.5,5-5,5H99.2c-2.5,0-5-2.5-5-5V230L94.3,230z"/>
		<path fill="#FFFFFF" d="M208.3,602c49.6,0,91.8-42.2,91.8-91.8s-42.2-91.8-91.8-91.8s-91.8,42.2-91.8,91.8
			C116.6,562.3,156.3,602,208.3,602z M208.3,448.2c34.7,0,64.5,27.3,64.5,64.5s-27.3,64.5-64.5,64.5s-64.5-27.3-64.5-64.5
			S171.1,448.2,208.3,448.2z"/>
		<path fill="#FFFFFF" d="M208.3,559.8c27.3,0,47.1-22.3,47.1-47.1c0-24.8-22.3-47.1-47.1-47.1c-27.3,0-47.1,22.3-47.1,47.1
			C158.7,537.5,181.1,559.8,208.3,559.8z M208.3,490.4c12.4,0,22.3,9.9,22.3,22.3s-9.9,22.3-22.3,22.3s-22.3-9.9-22.3-22.3
			C186,500.3,195.9,490.4,208.3,490.4z"/>
		<path fill="#FFFFFF" d="M208.3,391.2c37.2,0,69.4-29.8,69.4-69.4s-32.2-67-69.4-67s-69.4,29.8-69.4,69.4S168.7,391.2,208.3,391.2z
			 M208.3,279.6c24.8,0,42.2,19.8,42.2,42.2c0,24.8-19.8,42.2-42.2,42.2s-44.6-17.4-44.6-39.7C163.7,299.4,183.5,279.6,208.3,279.6z
			"/>
		<path fill="#FFFFFF" d="M414.2,458.2c-32.2,0-57,24.8-57,57s24.8,57,57,57c32.2,0,57-24.8,57-57S446.5,458.2,414.2,458.2z
			 M414.2,549.9c-19.8,0-34.7-14.9-34.7-34.7c0-17.4,14.9-34.7,34.7-34.7s34.7,14.9,34.7,34.7C446.5,535,431.6,549.9,414.2,549.9z"
			/>
		<path fill="#FFFFFF" d="M414.2,403.6c44.6,0,79.4-34.7,79.4-79.4s-34.7-79.4-79.4-79.4s-79.4,34.7-79.4,79.4
			C334.8,366.4,369.6,403.6,414.2,403.6z M414.2,269.6c29.8,0,52.1,24.8,52.1,52.1c0,29.8-24.8,52.1-52.1,52.1
			c-27.3,0-52.1-24.8-52.1-52.1C359.6,294.4,384.5,269.6,414.2,269.6z"/>
		<path fill="#FFFFFF" d="M414.2,366.4c22.3,0,42.2-19.8,42.2-42.2S436.5,282,414.2,282c-22.3,0-42.2,17.4-42.2,42.2
			C372.1,346.5,389.4,366.4,414.2,366.4z M414.2,294.4c17.4,0,29.8,12.4,29.8,29.8c0,17.4-12.4,29.8-29.8,29.8
			c-17.4,0-29.8-12.4-29.8-29.8C384.5,306.8,396.9,294.4,414.2,294.4z"/>
	</g>
</g>
</svg>
