<?xml version="1.0" encoding="utf-8"?>
<!-- Generator: Adobe Illustrator 18.0.0, SVG Export Plug-In . SVG Version: 6.00 Build 0)  -->
<!DOCTYPE svg PUBLIC "-//W3C//DTD SVG 1.1//EN" "http://www.w3.org/Graphics/SVG/1.1/DTD/svg11.dtd">
<svg version="1.1" id="Capa_1" xmlns="http://www.w3.org/2000/svg" xmlns:xlink="http://www.w3.org/1999/xlink" x="0px" y="0px"
	 viewBox="0 0 595.3 841.9" enable-background="new 0 0 595.3 841.9" xml:space="preserve">
<g id="guia" display="none">
</g>
<g id="guia2">
</g>
<g id="Capa_3">
	<g>
		<path fill="#FFFFFF" d="M317.5,319.3H168.7c-34.7,0-64.5,24.8-64.5,57v119.1c0,29.8,29.8,57,64.5,57h148.8
			c34.7,0,64.5-24.8,64.5-57V376.3C382,344.1,352.2,319.3,317.5,319.3z M349.7,492.9c0,12.4-14.9,24.8-32.2,24.8H168.7
			c-17.4,0-32.2-9.9-32.2-24.8V373.8c0-12.4,14.9-24.8,32.2-24.8h148.8c17.4,0,32.2,9.9,32.2,24.8
			C349.7,373.8,349.7,492.9,349.7,492.9z"/>
		<path fill="#FFFFFF" d="M448.9,319.3c-27.3,0-49.6,22.3-49.6,49.6s22.3,49.6,49.6,49.6c27.3,0,49.6-22.3,49.6-49.6
			S476.2,319.3,448.9,319.3z M448.9,391.2c-12.4,0-22.3-9.9-22.3-22.3s9.9-22.3,22.3-22.3s22.3,9.9,22.3,22.3
			C468.8,381.3,458.9,391.2,448.9,391.2z"/>
		<path fill="#FFFFFF" d="M473.7,264.7H121.5c-34.7,0-62,27.3-62,62V540c0,34.7,27.3,62,62,62h352.2c34.7,0,62-27.3,62-62V326.7
			C535.8,292,506,264.7,473.7,264.7z M506,540c0,17.4-14.9,32.2-32.2,32.2H121.5c-17.4,0-32.2-14.9-32.2-32.2V326.7
			c0-17.4,14.9-32.2,32.2-32.2h352.2c17.4,0,32.2,14.9,32.2,32.2V540z"/>
		<path fill="#FFFFFF" d="M411.7,440.8c-9.9,5-12.4,17.4-7.4,27.3c2.5,5,9.9,9.9,17.4,9.9c2.5,0,7.4,0,9.9-2.5
			c9.9-5,12.4-17.4,7.4-27.3C434.1,440.8,421.7,435.8,411.7,440.8z"/>
		<path fill="#FFFFFF" d="M473.7,478c2.5,0,7.4,0,9.9-2.5c9.9-5,12.4-17.4,7.4-27.3c-5-9.9-17.4-12.4-27.3-7.4
			c-5,2.5-7.4,7.4-9.9,12.4c-2.5,5,0,9.9,2.5,14.9C461.3,475.5,466.3,478,473.7,478z"/>
		<path fill="#FFFFFF" d="M411.7,500.3c-9.9,5-12.4,17.4-7.4,27.3c2.5,5,9.9,9.9,17.4,9.9c2.5,0,7.4,0,9.9-2.5
			c9.9-5,12.4-17.4,7.4-27.3C434.1,497.8,421.7,492.9,411.7,500.3z"/>
		<path fill="#FFFFFF" d="M463.8,500.3c-9.9,5-12.4,17.4-7.4,27.3c2.5,5,9.9,9.9,17.4,9.9c2.5,0,7.4,0,9.9-2.5
			c5-2.5,7.4-7.4,9.9-12.4c2.5-5,0-9.9-2.5-14.9C486.1,497.8,473.7,492.9,463.8,500.3z"/>
	</g>
</g>
</svg>
