<?xml version="1.0" encoding="utf-8"?>
<!-- Generator: Adobe Illustrator 18.0.0, SVG Export Plug-In . SVG Version: 6.00 Build 0)  -->
<!DOCTYPE svg PUBLIC "-//W3C//DTD SVG 1.1//EN" "http://www.w3.org/Graphics/SVG/1.1/DTD/svg11.dtd">
<svg version="1.1" id="Capa_1" xmlns="http://www.w3.org/2000/svg" xmlns:xlink="http://www.w3.org/1999/xlink" x="0px" y="0px"
	 viewBox="0 0 595.3 841.9" enable-background="new 0 0 595.3 841.9" xml:space="preserve">
<g id="guia" display="none">
</g>
<g id="guia2">
</g>
<g id="Capa_3">
	<g id="guia_1_">
	</g>
	<g>
		<path fill="#FFFFFF" d="M399.3,205.2H195.9c-22.3,0-39.7,17.4-39.7,39.7v34.7c0,22.3,17.4,39.7,39.7,39.7h5
			c9.9,24.8,29.8,39.7,42.2,49.6c14.9,9.9,14.9,12.4,14.9,17.4c0,9.9-5,29.8-12.4,47.1c-9.9,27.3-19.8,59.5-19.8,91.8
			c0,64.5,32.2,111.6,71.9,111.6c39.7,0,71.9-47.1,71.9-111.6c0-32.2-9.9-62-19.8-89.3c-7.4-19.8-12.4-37.2-12.4-49.6
			c0-5,2.5-5,14.9-14.9c12.4-9.9,32.2-22.3,42.2-49.6h5c22.3,0,39.7-17.4,39.7-39.7v-37.2C439,222.5,421.7,205.2,399.3,205.2z
			 M337.3,349c-12.4,9.9-24.8,17.4-24.8,34.7s7.4,37.2,12.4,57c7.4,24.8,17.4,52.1,17.4,81.9c0,47.1-19.8,86.8-47.1,86.8
			S248,572.2,248,522.6c0-29.8,9.9-57,17.4-84.3c7.4-19.8,12.4-39.7,12.4-54.6c0-19.8-12.4-27.3-24.8-37.2
			c-7.4-5-17.4-12.4-24.8-22.3h131.5C357.2,336.6,347.2,344.1,337.3,349z M426.6,279.6c0,14.9-12.4,27.3-27.3,27.3H195.9
			c-14.9,0-27.3-12.4-27.3-27.3v-34.7c0-14.9,12.4-27.3,27.3-27.3h203.4c14.9,0,27.3,12.4,27.3,27.3V279.6z"/>
		<path fill="#FFFFFF" d="M399.3,227.5H195.9c-9.9,0-17.4,7.4-17.4,17.4v34.7c0,9.9,7.4,17.4,17.4,17.4h203.4
			c9.9,0,17.4-7.4,17.4-17.4v-34.7C416.7,234.9,409.3,227.5,399.3,227.5z M404.3,279.6c0,2.5-2.5,5-5,5H195.9c-2.5,0-5-2.5-5-5
			v-34.7c0-2.5,2.5-5,5-5h203.4c2.5,0,5,2.5,5,5L404.3,279.6L404.3,279.6z"/>
		<path fill="#FFFFFF" d="M369.6,249.8H225.7c-9.9,0-17.4,5-17.4,12.4s7.4,12.4,17.4,12.4h143.9c9.9,0,17.4-5,17.4-12.4
			S379.5,249.8,369.6,249.8z"/>
	</g>
</g>
</svg>
