<?xml version="1.0" encoding="utf-8"?>
<!-- Generator: Adobe Illustrator 18.0.0, SVG Export Plug-In . SVG Version: 6.00 Build 0)  -->
<!DOCTYPE svg PUBLIC "-//W3C//DTD SVG 1.1//EN" "http://www.w3.org/Graphics/SVG/1.1/DTD/svg11.dtd">
<svg version="1.1" id="Capa_1" xmlns="http://www.w3.org/2000/svg" xmlns:xlink="http://www.w3.org/1999/xlink" x="0px" y="0px"
	 viewBox="0 0 595.3 841.9" enable-background="new 0 0 595.3 841.9" xml:space="preserve">
<g id="guia" display="none">
</g>
<g id="guia2">
</g>
<g id="Capa_3">
	<g id="guia_1_">
	</g>
	<g>
		<path fill="#FFFFFF" d="M205.9,443.3L176.1,473c-9.9,9.9-14.9,22.3-14.9,34.7c0,12.4,5,24.8,14.9,34.7
			c9.9,9.9,22.3,14.9,34.7,14.9c12.4,0,24.8-5,34.7-14.9l29.8-29.8c9.9-9.9,14.9-22.3,14.9-34.7c0-12.4-5-24.8-14.9-34.7
			C255.5,425.9,225.7,425.9,205.9,443.3z M255.5,460.6c5,5,7.4,9.9,7.4,14.9c0,5-2.5,12.4-7.4,14.9l-29.8,29.8
			c-7.4,7.4-22.3,7.4-32.2,0c-5-5-7.4-9.9-7.4-14.9s2.5-12.4,7.4-14.9l29.8-29.8c5-5,9.9-7.4,14.9-7.4
			C245.6,455.7,253,458.2,255.5,460.6z"/>
		<path fill="#FFFFFF" d="M503.5,361.4l-27.3-27.3l0,0L372.1,230l0,0l-12.4-12.4c-14.9-14.9-39.7-14.9-52.1,0l-44.6,44.6
			c-7.4,7.4-9.9,17.4-9.9,27.3c0,9.9,2.5,17.4,9.9,24.8c-14.9,24.8-49.6,52.1-74.4,67l0,0c-2.5,2.5-7.4,5-9.9,7.4
			c-22.3,14.9-39.7,27.3-57,64.5c-2.5,5-5,9.9-7.4,14.9c-19.8,39.7-49.6,99.2-5,146.3l0,0l0,0l9.9,9.9l0,0
			c14.9,9.9,29.8,14.9,49.6,14.9l0,0c32.2,0,62-14.9,89.3-29.8c5-2.5,9.9-5,14.9-7.4c37.2-17.4,49.6-34.7,64.5-57
			c2.5-2.5,5-5,7.4-9.9l0,0c17.4-22.3,42.2-59.5,67-74.4c7.4,5,14.9,9.9,24.8,9.9s19.8-5,27.3-9.9l44.6-44.6
			c7.4-7.4,9.9-17.4,9.9-27.3C518.4,378.8,510.9,368.9,503.5,361.4z M424.1,378.8l-84.3-84.3l29.8-29.8l84.3,84.3L424.1,378.8z
			 M320,520.2c-2.5,2.5-5,7.4-7.4,9.9c-14.9,19.8-22.3,32.2-54.6,47.1c-5,2.5-9.9,5-17.4,7.4c-22.3,12.4-52.1,24.8-76.9,24.8
			c-14.9,2.5-27.3-5-39.7-14.9l0,0l0,0c-29.8-29.8-14.9-69.4,9.9-116.6c2.5-5,5-12.4,7.4-17.4c14.9-29.8,27.3-39.7,47.1-54.6
			c2.5-2.5,5-5,9.9-7.4l0,0c22.3-17.4,57-39.7,74.4-67l111.6,111.6C359.6,463.1,337.3,495.4,320,520.2z M483.7,396.1L439,440.8
			c-5,5-12.4,5-14.9,0L277.8,294.4c-2.5-2.5-2.5-5-2.5-7.4c0-2.5,0-5,2.5-7.4l44.6-44.6c2.5-2.5,5-2.5,7.4-2.5s5,0,7.4,2.5l9.9,9.9
			l-49.6,49.6l126.5,126.5l49.6-49.6l9.9,9.9c2.5,2.5,2.5,5,2.5,7.4C488.6,391.2,486.1,393.7,483.7,396.1z"/>
	</g>
</g>
</svg>
