<?xml version="1.0" encoding="utf-8"?>
<!-- Generator: Adobe Illustrator 18.0.0, SVG Export Plug-In . SVG Version: 6.00 Build 0)  -->
<!DOCTYPE svg PUBLIC "-//W3C//DTD SVG 1.1//EN" "http://www.w3.org/Graphics/SVG/1.1/DTD/svg11.dtd">
<svg version="1.1" id="Capa_1" xmlns="http://www.w3.org/2000/svg" xmlns:xlink="http://www.w3.org/1999/xlink" x="0px" y="0px"
	 viewBox="0 0 595.3 841.9" enable-background="new 0 0 595.3 841.9" xml:space="preserve">
<g id="guia" display="none">
</g>
<g id="guia2">
</g>
<g id="Capa_3">
	<g id="guia_1_">
	</g>
	<g>
		<path fill="#FFFFFF" d="M471.3,381.3l-62-62c-5-5-12.4-7.4-19.8-7.4h-17.4v-12.4h27.3c14.9,0,27.3-12.4,27.3-27.3v-49.6
			c0-14.9-12.4-27.3-27.3-27.3H195.9c-14.9,0-27.3,12.4-27.3,27.3v49.6c0,14.9,12.4,27.3,27.3,27.3h27.3v12.4h-17.4
			c-7.4,0-14.9,2.5-19.8,7.4l-62,62c-5,5-7.4,12.4-7.4,19.8v156.3c0,7.4,2.5,14.9,7.4,19.8l62,62c5,5,12.4,7.4,19.8,7.4h183.5
			c7.4,0,14.9-2.5,19.8-7.4l62-62c5-5,7.4-12.4,7.4-19.8V401.1C478.7,393.7,476.2,386.2,471.3,381.3z M208.3,259.7v-24.8h178.6v24.8
			h-32.2h-22.3h-69.4h-24.8H208.3z M317.5,299.4v12.4h-37.2v-12.4H317.5z M441.5,552.4L386.9,607H213.3l-54.6-54.6V406.1l54.6-54.6
			h29.8h22.3h69.4h22.3h29.8l54.6,54.6V552.4L441.5,552.4z"/>
		<path fill="#FFFFFF" d="M352.2,403.6c-12.4-17.4-32.2-29.8-54.6-29.8s-42.2,9.9-54.6,29.8c-19.8,5-37.2,22.3-44.6,42.2
			s-2.5,44.6,9.9,62c0,22.3,9.9,42.2,27.3,54.6s42.2,14.9,62,7.4c7.4,2.5,14.9,5,22.3,5c14.9,0,27.3-5,37.2-12.4
			c17.4-12.4,27.3-34.7,27.3-54.6c12.4-17.4,17.4-39.7,9.9-62C389.4,425.9,372.1,408.5,352.2,403.6z M352.2,485.4l-7.4,7.4l2.5,9.9
			c2.5,9.9-2.5,19.8-9.9,27.3c-7.4,5-19.8,7.4-27.3,2.5l-12.4-5l-9.9,5c-9.9,5-19.8,5-27.3-2.5c-7.4-5-12.4-17.4-9.9-27.3l2.5-9.9
			l-7.4-7.4c-7.4-7.4-9.9-17.4-7.4-27.3c2.5-9.9,12.4-17.4,22.3-17.4h9.9l5-9.9c5-9.9,14.9-14.9,24.8-14.9s19.8,5,24.8,14.9l5,9.9
			h9.9c9.9,0,19.8,7.4,22.3,17.4C362.1,468.1,359.6,478,352.2,485.4z"/>
	</g>
</g>
</svg>
