<?xml version="1.0" encoding="utf-8"?>
<!-- Generator: Adobe Illustrator 18.0.0, SVG Export Plug-In . SVG Version: 6.00 Build 0)  -->
<!DOCTYPE svg PUBLIC "-//W3C//DTD SVG 1.1//EN" "http://www.w3.org/Graphics/SVG/1.1/DTD/svg11.dtd">
<svg version="1.1" id="Capa_1" xmlns="http://www.w3.org/2000/svg" xmlns:xlink="http://www.w3.org/1999/xlink" x="0px" y="0px"
	 viewBox="0 0 595.3 841.9" enable-background="new 0 0 595.3 841.9" xml:space="preserve">
<g id="guia" display="none">
</g>
<g id="guia2">
</g>
<g id="Capa_3">
	<g id="Capa_3_2_">
		<g>
			<path fill="#FFFFFF" d="M439,311.8c0,0-2.5,0-5,0C434.1,314.3,436.5,314.3,439,311.8L439,311.8C439,314.3,439,314.3,439,311.8
				L439,311.8C439,314.3,439,314.3,439,311.8c2.5,2.5,2.5,2.5,5,0C441.5,314.3,439,311.8,439,311.8z"/>
			<path fill="#FFFFFF" d="M453.9,292L453.9,292c-2.5-2.5-9.9-5-17.4-5c-7.4,0-12.4,2.5-14.9,5l0,0l0,0l0,0v9.9c0,0,0,0,0,2.5h2.5
				c2.5,0,9.9-2.5,12.4-2.5c0,0,0,0,2.5,0h2.5c0,0,7.4,2.5,12.4,2.5l0,0l0,0c0,0,2.5,0,2.5-2.5L453.9,292
				C453.9,294.4,453.9,294.4,453.9,292L453.9,292z M431.6,296.9C429.1,296.9,429.1,296.9,431.6,296.9c-2.5-2.5,0-5,0-5
				C431.6,294.4,434.1,294.4,431.6,296.9C434.1,296.9,431.6,296.9,431.6,296.9z M444,296.9C444,296.9,441.5,296.9,444,296.9
				c-2.5-2.5,0-5,0-5S446.5,294.4,444,296.9C446.5,296.9,446.5,296.9,444,296.9z"/>
			<circle fill="#FFFFFF" cx="426.6" cy="259.7" r="5"/>
			<path fill="#FFFFFF" d="M404.3,247.3c-2.5,0-5,0-7.4,7.4c2.5,0,2.5,0,2.5,0c5,0,7.4-5,7.4-7.4
				C406.8,247.3,404.3,247.3,404.3,247.3z"/>
			<path fill="#FFFFFF" d="M471.3,247.3h-2.5c0,2.5,2.5,7.4,7.4,7.4h2.5C476.2,247.3,473.7,247.3,471.3,247.3z"/>
			<path fill="#FFFFFF" d="M436.5,195.2c-42.2,0-76.9,34.7-76.9,76.9s34.7,76.9,76.9,76.9s76.9-34.7,76.9-76.9
				C513.4,230,478.7,195.2,436.5,195.2z M486.1,259.7c-2.5,2.5-7.4,2.5-9.9,2.5s-5,0-7.4-2.5c0,7.4-2.5,12.4-5,14.9
				c-2.5,2.5-2.5,7.4-5,9.9l2.5,2.5v2.5v9.9c0,5-5,9.9-9.9,9.9c0,2.5-2.5,2.5-2.5,5c-2.5,7.4-9.9,9.9-9.9,9.9l0,0
				c-2.5,0-9.9,0-14.9-5c0,0-2.5-2.5-2.5-5c-2.5,0-5,0-5-2.5c-2.5-2.5-2.5-5-2.5-7.4v-9.9V292c0,0,0-2.5,2.5-2.5c0-5-2.5-7.4-5-9.9
				c-2.5-5-5-9.9-5-14.9c-2.5,0-5,2.5-7.4,2.5c-2.5,0-7.4,0-9.9-2.5c-2.5,0-2.5-2.5-2.5-5c2.5-14.9,12.4-17.4,17.4-17.4
				c0,0,0,0,2.5,0c0-2.5-2.5-5-2.5-7.4c0-2.5,0-5,0-7.4c0-5,2.5-5,5-5s2.5,0,2.5,2.5v2.5l2.5,2.5l2.5,2.5c2.5,0,5,0,7.4,0
				c0,0,0,0,2.5,0c2.5,0,7.4-2.5,12.4-2.5c5,0,7.4,0,12.4,2.5h2.5c2.5,0,5,0,7.4,0l2.5-2.5l2.5-2.5V225c0-2.5,2.5-2.5,5-2.5
				c0,0,0,2.5,0,2.5c0,2.5,0,5,0,7.4c0,2.5,0,5-2.5,7.4c0,0,0,0,2.5,0c5,0,14.9,2.5,17.4,17.4C488.6,257.2,488.6,259.7,486.1,259.7z
				"/>
			<path fill="#FFFFFF" d="M456.4,252.3c0-2.5-5-5-7.4-5h-2.5c-5,0-7.4,5-7.4,7.4v7.4c0,7.4,2.5,9.9,7.4,9.9h5l0,0
				c5,0,7.4-5,7.4-7.4c0-2.5,0-2.5,0-5L456.4,252.3z M448.9,264.7c-2.5,0-5-2.5-5-5c0-2.5,2.5-5,5-5s5,2.5,5,5
				C453.9,262.2,451.4,264.7,448.9,264.7z"/>
		</g>
		<g>
			<path fill="#FFFFFF" d="M272.8,490.4c153.8,0,176.1,0,176.1-44.6c0-57-71.9-116.6-176.1-116.6c-106.7,0-176.1,59.5-176.1,116.6
				C96.7,490.4,121.5,490.4,272.8,490.4z M272.8,361.4c94.3,0,143.9,49.6,143.9,84.3c0,5,0,5,0,5l0,0c-7.4,7.4-62,7.4-143.9,7.4
				s-136.4,0-143.9-7.4c0,0,0-2.5,0-5C129,411,181.1,361.4,272.8,361.4z"/>
			<path fill="#FFFFFF" d="M426.6,495.4h-24.8c-14.9,0-74.4,39.7-74.4,39.7c-2.5,0-2.5,2.5-5,2.5c-2.5,0-5-2.5-9.9-5
				c0,0-54.6-37.2-69.4-37.2H121.5c-22.3,0-39.7,17.4-39.7,39.7c0,12.4,7.4,24.8,17.4,32.2c5,62,32.2,86.8,176.1,86.8
				s171.1-24.8,176.1-86.8c9.9-7.4,17.4-19.8,17.4-32.2C466.3,512.7,448.9,495.4,426.6,495.4z M272.8,624.3
				c-114.1,0-138.9-14.9-143.9-47.1h287.7C411.7,609.5,386.9,624.3,272.8,624.3z"/>
		</g>
	</g>
</g>
</svg>
