<?xml version="1.0" encoding="utf-8"?>
<!-- Generator: Adobe Illustrator 18.0.0, SVG Export Plug-In . SVG Version: 6.00 Build 0)  -->
<!DOCTYPE svg PUBLIC "-//W3C//DTD SVG 1.1//EN" "http://www.w3.org/Graphics/SVG/1.1/DTD/svg11.dtd">
<svg version="1.1" id="Capa_1" xmlns="http://www.w3.org/2000/svg" xmlns:xlink="http://www.w3.org/1999/xlink" x="0px" y="0px"
	 viewBox="0 0 595.3 841.9" enable-background="new 0 0 595.3 841.9" xml:space="preserve">
<g id="guia" display="none">
</g>
<g id="guia2">
</g>
<g id="Capa_3">
	<g id="guia_1_">
	</g>
	<g>
		<path fill="#FFFFFF" d="M300.1,363.9c-2.5,2.5-5,7.4-5,9.9c0,5,2.5,7.4,5,9.9l7.4,7.4l-5,5l-7.4-7.4c-5-5-14.9-5-19.8,0
			s-5,14.9,0,19.8l7.4,7.4l-9.9,9.9l-7.4-7.4c-5-5-14.9-5-19.8,0c-2.5,2.5-5,7.4-5,9.9c0,5,2.5,7.4,5,9.9l7.4,7.4l-5,5l-7.4-7.4
			c-5-5-14.9-5-19.8,0c-2.5,2.5-5,7.4-5,9.9c0,5,2.5,7.4,5,9.9l34.7,34.7c2.5,2.5,7.4,5,9.9,5s7.4-2.5,9.9-5s5-7.4,5-9.9
			c0-5-2.5-7.4-5-9.9l-7.4-7.4l5-5l7.4,7.4c5,5,14.9,5,19.8,0c2.5-2.5,5-7.4,5-9.9c0-5-2.5-7.4-5-9.9l-7.4-7.4l5-5l7.4,7.4
			c5,5,14.9,5,19.8,0c2.5-2.5,5-7.4,5-9.9c0-5-2.5-7.4-5-9.9l-7.4-7.4l5-5l7.4,7.4c5,5,14.9,5,19.8,0c5-5,5-14.9,0-19.8L315,368.9
			C312.5,358.9,305.1,358.9,300.1,363.9z"/>
		<path fill="#FFFFFF" d="M488.6,239.9l-9.9-7.4c-12.4-12.4-32.2-19.8-49.6-19.8c-19.8,0-37.2,7.4-49.6,19.8L205.9,406.1l-2.5,2.5
			l-64.5,116.6c-2.5,5-2.5,9.9,0,12.4l-39.7,39.7c-12.4,12.4-14.9,34.7-2.5,44.6c5,5,12.4,9.9,22.3,9.9s17.4-5,24.8-9.9l39.7-39.7
			c5,2.5,9.9,2.5,14.9,0L315,517.7l2.5-2.5l173.6-173.6C515.9,311.8,515.9,267.2,488.6,239.9z M161.2,559.8l-39.7,39.7
			c0,0-2.5,2.5-5,2.5c0,0,0-2.5,2.5-5l39.7-39.7L161.2,559.8z M446.5,309.3l-37.2-37.2c-5-5-12.4-7.4-19.8-7.4c-2.5,0-5,0-7.4,0
			l14.9-14.9c17.4-17.4,44.6-17.4,62,0l9.9,9.9c17.4,17.4,17.4,44.6,0,62l-14.9,14.9c0-2.5,0-5,0-7.4
			C453.9,321.7,451.4,314.3,446.5,309.3z M359.6,321.7l37.2,37.2c7.4,7.4,17.4,9.9,27.3,7.4L297.6,492.9l-104.2,57l-22.3-22.3
			l57-104.2l124-126.5c0,2.5,0,5,0,7.4C352.2,309.3,354.7,316.8,359.6,321.7z M424.1,329.2l-9.9,9.9l-34.7-34.7l9.9-9.9L424.1,329.2
			z"/>
	</g>
</g>
</svg>
