<?xml version="1.0" encoding="utf-8"?>
<!-- Generator: Adobe Illustrator 18.0.0, SVG Export Plug-In . SVG Version: 6.00 Build 0)  -->
<!DOCTYPE svg PUBLIC "-//W3C//DTD SVG 1.1//EN" "http://www.w3.org/Graphics/SVG/1.1/DTD/svg11.dtd">
<svg version="1.1" id="Capa_1" xmlns="http://www.w3.org/2000/svg" xmlns:xlink="http://www.w3.org/1999/xlink" x="0px" y="0px"
	 viewBox="0 0 595.3 841.9" enable-background="new 0 0 595.3 841.9" xml:space="preserve">
<g id="guia" display="none">
</g>
<g id="guia2">
</g>
<g id="Capa_3">
	<g id="guia_1_">
	</g>
	<g>
		<path fill="#FFFFFF" d="M220.7,388.7c-59.5,0-109.1,49.6-109.1,109.1S161.2,607,220.7,607s109.1-49.6,109.1-109.1
			S282.8,388.7,220.7,388.7z M295.2,483c-9.9-17.4-24.8-29.8-42.2-39.7c-17.4-7.4-39.7-9.9-59.5,0s-32.2,27.3-34.7,49.6
			c-2.5,19.8,7.4,42.2,24.8,54.6c9.9,5,17.4,9.9,29.8,9.9h2.5l0,0h2.5h2.5c2.5,0,5,0,9.9-2.5s12.4-5,17.4-9.9
			c9.9-7.4,14.9-19.8,14.9-32.2s-5-24.8-14.9-32.2c-5-5-9.9-7.4-17.4-7.4c-2.5,0-7.4-2.5-9.9-2.5l0,0h-2.5l0,0c-2.5,0-2.5,0-5,0
			s-5,2.5-7.4,2.5c-5,2.5-7.4,7.4-9.9,12.4c0,2.5,0,2.5-2.5,5l5,5c0,5,0,5,0,7.4c2.5,5,5,9.9,9.9,12.4c2.5,5,2.5,5,7.4,7.4
			c2.5,0,5,0,5,0h2.5l0,0c5,0,9.9-2.5,14.9-7.4c0,5,0,7.4-5,9.9c-2.5,2.5-2.5,2.5-5,2.5h-2.5l0,0l0,0l0,0h-2.5c-5,0-9.9-2.5-14.9-5
			c-9.9-7.4-14.9-17.4-14.9-29.8c0-9.9,7.4-22.3,17.4-27.3c9.9-5,24.8-5,37.2,0c24.8,9.9,39.7,37.2,34.7,64.5
			c-2.5,12.4-9.9,24.8-19.8,32.2c-12.4,7.4-24.8,9.9-37.2,9.9c-42.2,0-76.9-34.7-76.9-76.9s34.7-76.9,76.9-76.9
			c39.7,0,71.9,29.8,76.9,69.4C297.6,485.4,297.6,485.4,295.2,483z"/>
		<path fill="#FFFFFF" d="M481.2,304.4l-5-17.4c-2.5-12.4-14.9-19.8-27.3-19.8c-17.4-19.8-42.2-32.2-69.4-32.2
			c-7.4,0-14.9,0-22.3,2.5c-22.3,5-42.2,19.8-54.6,42.2c-5,7.4-7.4,17.4-9.9,27.3c-9.9,7.4-14.9,19.8-12.4,29.8l5,17.4
			c2.5,12.4,14.9,19.8,27.3,19.8c17.4,19.8,42.2,32.2,69.4,32.2c2.5,0,5,0,7.4,0L439,594.6c2.5,7.4,7.4,12.4,14.9,12.4
			c2.5,0,2.5,0,5,0c7.4-2.5,12.4-9.9,9.9-19.8l-49.6-188.5c27.3-12.4,47.1-37.2,49.6-67c5-2.5,7.4-5,9.9-9.9
			C483.7,319.3,483.7,311.8,481.2,304.4z M332.4,292c7.4-12.4,19.8-22.3,34.7-27.3c5-2.5,9.9-2.5,14.9-2.5c12.4,0,22.3,5,32.2,9.9
			l-84.3,24.8C329.9,294.4,329.9,294.4,332.4,292z M396.9,376.3c-5,2.5-9.9,2.5-14.9,2.5c-12.4,0-22.3-5-32.2-9.9l84.3-22.3
			C426.6,361.4,414.2,373.8,396.9,376.3z M315,346.5l-2.5-12.4l136.4-37.2l2.5,12.4L315,346.5z"/>
	</g>
</g>
</svg>
