<?xml version="1.0" encoding="utf-8"?>
<!-- Generator: Adobe Illustrator 18.0.0, SVG Export Plug-In . SVG Version: 6.00 Build 0)  -->
<!DOCTYPE svg PUBLIC "-//W3C//DTD SVG 1.1//EN" "http://www.w3.org/Graphics/SVG/1.1/DTD/svg11.dtd">
<svg version="1.1" id="Capa_1" xmlns="http://www.w3.org/2000/svg" xmlns:xlink="http://www.w3.org/1999/xlink" x="0px" y="0px"
	 viewBox="0 0 595.3 841.9" enable-background="new 0 0 595.3 841.9" xml:space="preserve">
<g id="guia" display="none">
</g>
<g id="guia2">
</g>
<g id="Capa_3">
	<g id="guia_1_">
	</g>
	<g>
		<path fill="#FFFFFF" d="M349.7,225c0-12.4-9.9-19.8-19.8-19.8h-64.5c-9.9,0-19.8,9.9-19.8,19.8l-14.9,265.4c0,5,2.5,9.9,5,14.9
			c5,5,9.9,7.4,17.4,7.4h86.8c7.4,0,12.4-2.5,17.4-7.4s5-9.9,5-14.9L349.7,225z M342.3,492.9h-86.8c-2.5,0-2.5,0-2.5,0l12.4-265.4
			V225h62c0,0,0,0,0,2.5L342.3,492.9C342.3,490.4,342.3,492.9,342.3,492.9z"/>
		<path fill="#FFFFFF" d="M277.8,619.4c0,9.9,7.4,19.8,19.8,19.8s19.8-7.4,19.8-19.8v-99.2h-37.2L277.8,619.4L277.8,619.4z"/>
	</g>
</g>
</svg>
