<?xml version="1.0" encoding="utf-8"?>
<!-- Generator: Adobe Illustrator 18.0.0, SVG Export Plug-In . SVG Version: 6.00 Build 0)  -->
<!DOCTYPE svg PUBLIC "-//W3C//DTD SVG 1.1//EN" "http://www.w3.org/Graphics/SVG/1.1/DTD/svg11.dtd">
<svg version="1.1" id="Capa_1" xmlns="http://www.w3.org/2000/svg" xmlns:xlink="http://www.w3.org/1999/xlink" x="0px" y="0px"
	 viewBox="0 0 595.3 841.9" enable-background="new 0 0 595.3 841.9" xml:space="preserve">
<g id="guia" display="none">
</g>
<g id="guia2">
</g>
<g id="Capa_3">
	<g id="guia_1_">
	</g>
	<path fill="#FFFFFF" d="M486.1,396.1l-32.2-24.8c-24.8-17.4-19.8-29.8-5-57c5-9.9,9.9-19.8,12.4-29.8c5-17.4-5-37.2-24.8-42.2
		c-9.9-2.5-19.8-2.5-27.3,2.5c-5-5-9.9-7.4-14.9-9.9c-7.4-2.5-17.4-2.5-24.8,2.5c-5-5-9.9-7.4-14.9-9.9c-7.4-2.5-17.4-2.5-24.8,2.5
		c-7.4-2.5-12.4-5-17.4-7.4c-17.4-5-37.2,5-42.2,22.3c-2.5,7.4,0,14.9,0,22.3c2.5,5,2.5,9.9,2.5,19.8l-5,76.9
		c-7.4-7.4-14.9-9.9-24.8-9.9s-17.4,5-24.8,9.9c-14.9-9.9-32.2-7.4-42.2,2.5c-12.4-7.4-32.2-5-42.2,5c-5-2.5-12.4-5-17.4-5
		c-19.8,0-34.7,14.9-34.7,34.7c0,9.9,5,14.9,7.4,19.8s5,9.9,7.4,17.4l14.9,109.1c5,42.2,29.8,67,64.5,67l136.4,2.5h2.5l0,0
		c29.8,0,54.6-24.8,62-59.5c2.5-19.8,0-44.6-17.4-59.5l74.4,22.3c5,2.5,9.9,2.5,14.9,2.5c27.3,0,52.1-22.3,62-52.1
		C518.4,440.8,510.9,411,486.1,396.1z M429.1,267.2c5,2.5,9.9,7.4,7.4,12.4c0,5-2.5,7.4-5,12.4l-2.5-2.5l-19.8-2.5l7.4-14.9
		C419.2,267.2,424.1,264.7,429.1,267.2z M292.7,252.3c0-5,5-7.4,9.9-7.4h2.5c2.5,0,7.4,5,7.4,7.4l5,19.8l-12.4-2.5h-2.5
		c-2.5,0-5,0-5,2.5c0-5-2.5-7.4-2.5-12.4C292.7,254.8,292.7,254.8,292.7,252.3z M240.6,376.3c5,0,9.9,5,9.9,9.9
		c0,7.4,0,12.4-2.5,19.8c-2.5,0-5,0-5,0l0,0l-17.4,2.5l5-22.3C230.7,378.8,235.6,376.3,240.6,376.3z M116.6,391.2c5,0,7.4,2.5,9.9,5
		l9.9,17.4h-14.9c-2.5,0-5,0-5,2.5c-2.5-5-5-7.4-7.4-9.9c-2.5-2.5-2.5-5-2.5-5C106.7,396.1,111.6,391.2,116.6,391.2z M349.7,554.9
		c-2.5,19.8-14.9,39.7-37.2,39.7l0,0l-136.4-2.5c-29.8,0-37.2-29.8-39.7-47.1L124,455.7l0,0l22.3-2.5c7.4,0,12.4-7.4,12.4-14.9
		v-12.4c0-7.4-7.4-12.4-14.9-12.4l5-19.8c2.5-5,5-7.4,9.9-7.4c5,0,7.4,2.5,9.9,5l9.9,19.8h-5c-2.5,0-7.4,2.5-9.9,5l-5,5l2.5,17.4
		c0,7.4,7.4,12.4,12.4,12.4l22.3-2.5c7.4,0,12.4-7.4,12.4-14.9v-12.4c0-7.4-7.4-12.4-14.9-12.4l0,0H186l5-22.3c0-5,5-7.4,9.9-7.4
		c2.5,0,7.4,2.5,7.4,5l9.9,22.3c-2.5,0-2.5,2.5-5,2.5l-2.5,5l2.5,17.4c0,7.4,7.4,12.4,12.4,12.4l19.8,2.5c0,19.8,9.9,39.7,39.7,49.6
		l39.7,12.4C347.2,515.2,352.2,537.5,349.7,554.9z M486.1,463.1c-5,17.4-19.8,34.7-39.7,34.7c-2.5,0-5,0-7.4-2.5l-126.5-37.2
		c-24.8-7.4-27.3-32.2-24.8-57l7.4-94.3h2.5l19.8,2.5h2.5c7.4,0,12.4-5,12.4-12.4l2.5-12.4c0-2.5,0-7.4-2.5-9.9l-5-5h-5l9.9-17.4
		c2.5-5,7.4-5,12.4-5s7.4,5,7.4,7.4l2.5,17.4h-2.5h-2.5c-7.4,0-12.4,5-12.4,12.4l-2.5,12.4c0,7.4,5,14.9,12.4,14.9l19.8,2.5h2.5
		c7.4,0,12.4-5,12.4-12.4l5-5c0-2.5,0-7.4-2.5-9.9l-5-5l-9.9-2.5l7.4-14.9c2.5-5,7.4-5,9.9-5c2.5,0,5,5,7.4,7.4l2.5,19.8
		c-5,2.5-7.4,5-7.4,9.9l-2.5,12.4c0,7.4,5,14.9,12.4,14.9l17.4,2.5c-7.4,19.8-7.4,44.6,22.3,64.5l34.7,22.3
		C493.6,430.9,488.6,455.7,486.1,463.1z"/>
</g>
</svg>
