<?xml version="1.0" encoding="utf-8"?>
<!-- Generator: Adobe Illustrator 18.0.0, SVG Export Plug-In . SVG Version: 6.00 Build 0)  -->
<!DOCTYPE svg PUBLIC "-//W3C//DTD SVG 1.1//EN" "http://www.w3.org/Graphics/SVG/1.1/DTD/svg11.dtd">
<svg version="1.1" id="Capa_1" xmlns="http://www.w3.org/2000/svg" xmlns:xlink="http://www.w3.org/1999/xlink" x="0px" y="0px"
	 viewBox="0 0 595.3 841.9" enable-background="new 0 0 595.3 841.9" xml:space="preserve">
<g id="guia" display="none">
</g>
<g id="guia2">
</g>
<g id="Capa_3">
	<g id="guia_1_">
	</g>
	<path fill="#FFFFFF" d="M528.3,331.7c-5-12.4-24.8-52.1-67-54.6c-5-7.4-12.4-12.4-19.8-17.4c-19.8-12.4-42.2-14.9-62-9.9
		s-37.2,17.4-49.6,37.2c-12.4,22.3-14.9,47.1-5,71.9l-47.1-42.2l-2.5-2.5c-2.5-2.5-7.4-2.5-9.9-2.5c-14.9,0-27.3,12.4-34.7,24.8
		c-9.9,14.9-7.4,29.8,2.5,37.2l32.2,34.7c-2.5,0-2.5,2.5-5,2.5L138.9,262.2c-5-7.4-14.9-12.4-24.8-12.4c-7.4,0-14.9,2.5-19.8,7.4
		c-14.9,12.4-17.4,32.2-7.4,44.6l79.4,96.7c-2.5,0-2.5,0-5,0c-19.8,0-39.7,5-62,14.9c-2.5,0-5,2.5-7.4,2.5c-5,5-12.4,7.4-17.4,17.4
		c-5,9.9,0,19.8,2.5,22.3c2.5,5,7.4,9.9,12.4,14.9c-14.9,17.4-24.8,37.2-24.8,37.2c-2.5,7.4-2.5,14.9,5,19.8l86.8,64.5
		c0,2.5,5,2.5,7.4,2.5c5,0,9.9-2.5,12.4-7.4c5-7.4,2.5-17.4-2.5-22.3l-74.4-57c7.4-12.4,19.8-29.8,32.2-39.7c0,0,5,0,12.4,0
		c19.8,0,52.1,5,81.9,14.9c2.5,27.3,24.8,49.6,52.1,49.6c27.3,0,52.1-22.3,52.1-52.1c0-12.4-5-24.8-12.4-34.7
		c27.3-57,67-141.4,143.9-141.4c27.3,0,42.2,27.3,44.6,37.2c5,9.9,5,17.4,5,19.8l0,0L394.4,562.3H200.9c-7.4,0-14.9,7.4-14.9,14.9
		c0,7.4,7.4,14.9,14.9,14.9h193.5c5,0,9.9-2.5,12.4-7.4l119.1-205.9C540.7,366.4,530.8,339.1,528.3,331.7z M255.5,351.5L255.5,351.5
		c2.5-5,5-7.4,5-7.4l47.1,42.2c-2.5,7.4-7.4,12.4-9.9,19.8c0-2.5-2.5-2.5-2.5-5L255.5,351.5z M282.8,433.3l2.5-2.5
		C285.2,430.9,285.2,430.9,282.8,433.3C285.2,433.3,282.8,433.3,282.8,433.3z M109.1,445.7C109.1,448.2,109.1,448.2,109.1,445.7
		c-2.5,0-2.5,0-2.5,0c2.5,0,5-2.5,7.4-2.5c17.4-7.4,32.2-12.4,49.6-12.4s29.8,5,37.2,7.4l7.4,9.9c-24.8-7.4-49.6-9.9-64.5-9.9
		C126.5,440.8,114.1,440.8,109.1,445.7z M270.4,512.7c-17.4,0-29.8-14.9-29.8-29.8c0-5,0-7.4,2.5-12.4l2.5-5L104.2,289.5
		c-5-5-5-9.9,0-14.9c2.5-2.5,5-2.5,7.4-2.5s7.4,2.5,7.4,5l143.9,176.1h7.4c17.4,0,29.8,14.9,29.8,29.8
		C302.6,500.3,287.7,512.7,270.4,512.7z M347.2,329.2c0-9.9,2.5-19.8,7.4-27.3c7.4-12.4,17.4-19.8,29.8-22.3
		c9.9-2.5,22.3-2.5,32.2,2.5C389.4,289.5,367.1,306.8,347.2,329.2z"/>
</g>
</svg>
