<?xml version="1.0" encoding="utf-8"?>
<!-- Generator: Adobe Illustrator 18.0.0, SVG Export Plug-In . SVG Version: 6.00 Build 0)  -->
<!DOCTYPE svg PUBLIC "-//W3C//DTD SVG 1.1//EN" "http://www.w3.org/Graphics/SVG/1.1/DTD/svg11.dtd">
<svg version="1.1" id="Capa_1" xmlns="http://www.w3.org/2000/svg" xmlns:xlink="http://www.w3.org/1999/xlink" x="0px" y="0px"
	 viewBox="0 0 595.3 841.9" enable-background="new 0 0 595.3 841.9" xml:space="preserve">
<g id="guia" display="none">
</g>
<g id="guia2">
</g>
<g id="Capa_3">
	<g id="guia_1_">
	</g>
	<path fill="#FFFFFF" d="M515.9,232.4c-24.8-5-44.6,5-59.5,32.2c-7.4,12.4-9.9,29.8-12.4,49.6H151.3c-2.5-19.8-5-37.2-12.4-49.6
		c-14.9-24.8-34.7-37.2-59.5-32.2c-22.3,5-39.7,27.3-34.7,52.1c2.5,9.9,7.4,19.8,17.4,24.8c7.4,5,19.8,7.4,29.8,5
		s19.8-9.9,24.8-19.8c2.5-9.9,2.5-19.8-5-27.3c-7.4-7.4-19.8-9.9-29.8-2.5c-5,5-5,9.9,0,14.9c2.5,5,7.4,5,12.4,2.5v2.5
		c0,2.5-5,5-7.4,7.4c-5,0-7.4,0-12.4-2.5c-5,0-7.4-5-7.4-9.9c-2.5-12.4,5-22.3,17.4-24.8c9.9-2.5,22.3,0,37.2,22.3
		c9.9,17.4,9.9,54.6,9.9,86.8c0,27.3,0,156.3-2.5,235.6c0,7.4,5,12.4,9.9,12.4l0,0c5,0,9.9-5,12.4-9.9c0-9.9,0-19.8,0-29.8H444
		c0,9.9,0,19.8,0,29.8c0,5,5,9.9,12.4,9.9l0,0c5,0,12.4-5,9.9-12.4c0-79.4-2.5-208.3-2.5-235.6c0-32.2,0-69.4,9.9-86.8
		c14.9-22.3,27.3-22.3,37.2-22.3c12.4,2.5,19.8,12.4,17.4,24.8c0,5-2.5,7.4-7.4,9.9c-2.5,2.5-7.4,2.5-12.4,2.5
		c-2.5,0-7.4-2.5-7.4-7.4V282c5,2.5,9.9,0,12.4-2.5c5-5,2.5-12.4-2.5-14.9c-7.4-7.4-19.8-5-27.3,2.5c-5,7.4-7.4,17.4-5,27.3
		c5,9.9,12.4,19.8,24.8,19.8c9.9,2.5,19.8,0,29.8-5s14.9-14.9,17.4-24.8C555.6,259.7,538.2,237.4,515.9,232.4z M191,371.3h52.1v129
		H191V371.3z M270.4,371.3h52.1v129h-52.1V371.3z M352.2,371.3h52.1v129h-52.1C352.2,500.3,352.2,371.3,352.2,371.3z M163.7,371.3
		v129h-12.4c0-54.6,0-106.7,0-129H163.7z M431.6,500.3v-129H444c0,22.3,0,74.4,0,129H431.6z M151.3,542.5c0-5,0-9.9,0-12.4h265.4
		l0,0l0,0H444c0,5,0,9.9,0,12.4H151.3z"/>
</g>
</svg>
