<?xml version="1.0" encoding="utf-8"?>
<!-- Generator: Adobe Illustrator 18.0.0, SVG Export Plug-In . SVG Version: 6.00 Build 0)  -->
<!DOCTYPE svg PUBLIC "-//W3C//DTD SVG 1.1//EN" "http://www.w3.org/Graphics/SVG/1.1/DTD/svg11.dtd">
<svg version="1.1" id="Capa_1" xmlns="http://www.w3.org/2000/svg" xmlns:xlink="http://www.w3.org/1999/xlink" x="0px" y="0px"
	 viewBox="0 0 595.3 841.9" enable-background="new 0 0 595.3 841.9" xml:space="preserve">
<g id="guia" display="none">
</g>
<g id="guia2">
</g>
<g id="Capa_3">
	<g id="guia_1_">
	</g>
	<path fill="#FFFFFF" d="M409.3,517.7c14.9-7.4,27.3-17.4,37.2-29.8c27.3-32.2,34.7-81.9,22.3-141.4
		c-2.5-14.9-17.4-136.4-81.9-156.3c-29.8-9.9-62,5-94.3,39.7l-54.6,34.7c-5,5-7.4,9.9-7.4,14.9s0,9.9,2.5,14.9c2.5,2.5,2.5,2.5,5,5
		c-2.5,2.5-5,7.4-5,9.9c0,9.9,7.4,17.4,17.4,17.4l0,0c5,0,9.9-2.5,12.4-5c2.5-2.5,5-7.4,5-12.4s-2.5-7.4-5-9.9l22.3-14.9v19.8
		c0,5,2.5,9.9,5,14.9c-2.5,2.5-2.5,7.4-2.5,9.9c0,9.9,9.9,17.4,19.8,17.4l0,0c5,0,9.9-2.5,12.4-5c2.5-2.5,5-7.4,5-14.9
		c0-5-2.5-7.4-2.5-9.9c2.5-5,5-7.4,5-14.9V282l22.3,14.9c-2.5,2.5-5,7.4-5,9.9c0,9.9,7.4,17.4,17.4,17.4l0,0
		c9.9,0,17.4-7.4,17.4-17.4c0-5-2.5-7.4-5-9.9c2.5-2.5,2.5-2.5,2.5-5c5-9.9,2.5-22.3-7.4-29.8l-34.7-22.3
		c12.4-9.9,24.8-14.9,34.7-12.4c22.3,7.4,42.2,59.5,52.1,109.1c-37.2,24.8-89.3,47.1-133.9,57c-49.6,12.4-99.2,12.4-146.3,5h-2.5
		c-5,0-9.9,2.5-14.9,5c-5,5-7.4,9.9-7.4,17.4c5,47.1,39.7,84.3,96.7,104.2l-34.7,99.2c-5,9.9,2.5,22.3,12.4,27.3c2.5,0,5,0,7.4,0
		l0,0c9.9,0,17.4-5,19.8-14.9l37.2-104.2c12.4,2.5,24.8,2.5,37.2,2.5h7.4c24.8,0,47.1-2.5,64.5-9.9l42.2,104.2
		c2.5,7.4,9.9,12.4,19.8,12.4l0,0c2.5,0,5,0,7.4-2.5c5-2.5,9.9-5,12.4-12.4c2.5-5,2.5-9.9,0-14.9L409.3,517.7z M431.6,383.7
		c2.5,34.7-5,59.5-19.8,76.9c-7.4,9.9-19.8,17.4-34.7,24.8c-2.5,0-2.5,0-5,0c0,0-2.5,0-2.5,2.5c-17.4,7.4-39.7,9.9-67,9.9h-7.4
		c-54.6,0-104.2-22.3-124-52.1c42.2,2.5,86.8,0,129-9.9C344.8,425.9,391.9,406.1,431.6,383.7z M307.6,329.2L307.6,329.2L307.6,329.2
		L307.6,329.2z M307.6,329.2L307.6,329.2L307.6,329.2L307.6,329.2z M307.6,326.7L307.6,326.7L307.6,326.7L307.6,326.7z M307.6,326.7
		L307.6,326.7L307.6,326.7L307.6,326.7z M364.6,306.8L364.6,306.8L364.6,306.8L364.6,306.8z M362.1,306.8L362.1,306.8L362.1,306.8
		L362.1,306.8z"/>
</g>
</svg>
