<?xml version="1.0" encoding="utf-8"?>
<!-- Generator: Adobe Illustrator 18.0.0, SVG Export Plug-In . SVG Version: 6.00 Build 0)  -->
<!DOCTYPE svg PUBLIC "-//W3C//DTD SVG 1.1//EN" "http://www.w3.org/Graphics/SVG/1.1/DTD/svg11.dtd">
<svg version="1.1" id="Capa_1" xmlns="http://www.w3.org/2000/svg" xmlns:xlink="http://www.w3.org/1999/xlink" x="0px" y="0px"
	 viewBox="0 0 595.3 841.9" enable-background="new 0 0 595.3 841.9" xml:space="preserve">
<g id="guia" display="none">
</g>
<g id="guia2">
</g>
<g id="Capa_3">
	<g id="guia_1_">
	</g>
	<g>
		<path fill="#FFFFFF" d="M491.1,354c0-2.5-2.5-5-2.5-7.4l-27.3-67c-14.9-34.7-49.6-44.6-79.4-44.6H225.7c-29.8,0-67,12.4-81.9,44.6
			l-27.3,62c0,2.5-2.5,5-2.5,7.4c-24.8,9.9-39.7,32.2-37.2,59.5l7.4,96.7c0,12.4,5,24.8,12.4,32.2v39.7c0,17.4,12.4,29.8,29.8,29.8
			h39.7c17.4,0,29.8-12.4,29.8-29.8v-27.3h198.4v27.3c0,17.4,12.4,29.8,29.8,29.8h39.7c17.4,0,29.8-12.4,29.8-29.8v-39.7
			c7.4-9.9,12.4-19.8,12.4-32.2l7.4-96.7C520.9,386.2,508.5,363.9,491.1,354z M473.7,527.6c-2.5,2.5-5,7.4-2.5,12.4v39.7
			c0,0,0,2.5-2.5,2.5h-39.7c0,0-2.5,0-2.5-2.5V540c0-7.4-7.4-14.9-14.9-14.9H183.5c-7.4,0-14.9,7.4-14.9,14.9v39.7
			c0,0,0,2.5-2.5,2.5h-39.7c0,0-2.5,0-2.5-2.5v-42.2c0-5,0-7.4-2.5-12.4c-5-7.4-7.4-14.9-9.9-22.3l-7.4-96.7
			c-2.5-17.4,9.9-29.8,24.8-32.2c5,0,9.9-5,12.4-9.9c14.9,9.9,32.2,9.9,34.7,9.9h253c5,0,19.8,0,34.7-7.4c0,5,5,7.4,9.9,9.9
			c12.4,5,19.8,17.4,19.8,32.2l-7.4,96.7C481.2,512.7,478.7,520.2,473.7,527.6z M225.7,259.7h153.8c19.8,0,47.1,7.4,54.6,27.3
			l19.8,49.6c-5,7.4-17.4,9.9-27.3,9.9H176.1c0,0-17.4,0-24.8-9.9l19.8-47.1C178.6,267.2,203.4,259.7,225.7,259.7z"/>
		<path fill="#FFFFFF" d="M439,393.7c-22.3,0-42.2,19.8-42.2,42.2S416.7,478,439,478c22.3,0,42.2-19.8,42.2-42.2
			C483.7,413.5,463.8,393.7,439,393.7z M439,450.7c-7.4,0-14.9-7.4-14.9-14.9s7.4-14.9,14.9-14.9c7.4,0,14.9,7.4,14.9,14.9
			C453.9,445.7,448.9,450.7,439,450.7z"/>
		<path fill="#FFFFFF" d="M156.3,393.7c-22.3,0-42.2,19.8-42.2,42.2s19.8,42.2,42.2,42.2s42.2-17.4,42.2-39.7
			C198.4,413.5,178.6,393.7,156.3,393.7z M156.3,450.7c-7.4,0-14.9-7.4-14.9-14.9s7.4-14.9,14.9-14.9s14.9,7.4,14.9,14.9
			C168.7,445.7,163.7,450.7,156.3,450.7z"/>
		<path fill="#FFFFFF" d="M354.7,408.5H240.6c-9.9,0-17.4,2.5-22.3,9.9c-5,7.4-5,14.9-2.5,24.8l9.9,27.3c5,14.9,22.3,29.8,39.7,29.8
			h64.5c17.4,0,34.7-12.4,39.7-29.8l9.9-27.3c2.5-7.4,2.5-17.4-2.5-24.8C372.1,413.5,364.6,408.5,354.7,408.5z M357.2,435.8
			l-9.9,27.3c-2.5,7.4-9.9,12.4-17.4,12.4h-64.5c-7.4,0-14.9-5-17.4-12.4l-9.9-27.3v-2.5c0,0,0,0,2.5,0L357.2,435.8
			C354.7,433.3,357.2,433.3,357.2,435.8C357.2,433.3,357.2,433.3,357.2,435.8C357.2,433.3,357.2,433.3,357.2,435.8z"/>
	</g>
</g>
</svg>
