<?xml version="1.0" encoding="utf-8"?>
<!-- Generator: Adobe Illustrator 18.0.0, SVG Export Plug-In . SVG Version: 6.00 Build 0)  -->
<!DOCTYPE svg PUBLIC "-//W3C//DTD SVG 1.1//EN" "http://www.w3.org/Graphics/SVG/1.1/DTD/svg11.dtd">
<svg version="1.1" id="Capa_1" xmlns="http://www.w3.org/2000/svg" xmlns:xlink="http://www.w3.org/1999/xlink" x="0px" y="0px"
	 viewBox="0 0 595.3 841.9" enable-background="new 0 0 595.3 841.9" xml:space="preserve">
<g id="guia" display="none">
</g>
<g id="guia2">
</g>
<g id="Capa_3">
	<g id="guia_1_">
	</g>
	<g>
		<path fill="#FFFFFF" d="M429.1,522.6c0-7.4,0-17.4-5-22.3s-12.4-5-19.8-2.5l-39.7,12.4c-14.9,5-22.3,17.4-22.3,32.2
			c0,9.9,9.9,17.4,24.8,17.4h37.2c14.9,0,22.3-7.4,22.3-22.3v-14.9H429.1z M411.7,537.5c0,2.5,0,5-5,5h-37.2c-5,0-7.4-2.5-7.4-2.5
			c0-9.9,2.5-14.9,9.9-17.4l39.7-12.4h2.5c0,2.5,0,7.4,0,9.9C411.7,522.6,411.7,537.5,411.7,537.5z"/>
		<path fill="#FFFFFF" d="M228.2,507.8L191,495.4c-7.4-2.5-14.9-2.5-19.8,2.5c-5,5-5,14.9-5,22.3v2.5v14.9c0,5,0,22.3,19.8,22.3
			h37.2c14.9,0,24.8-7.4,24.8-17.4C248,525.1,240.6,512.7,228.2,507.8z M223.2,542.5H186c-2.5,0-2.5,0-2.5,0l0,0c0,0,0-2.5,0-5
			v-14.9c0,0,0-2.5,0-5s0-7.4,0-9.9c0,0,0,0,2.5,0l37.2,17.4c5,2.5,9.9,5,9.9,17.4C230.7,542.5,228.2,542.5,223.2,542.5z"/>
		<path fill="#FFFFFF" d="M468.8,289.5L468.8,289.5v-17.4c0-24.8-17.4-52.1-42.2-59.5c-91.8-27.3-166.2-27.3-258,0
			c-24.8,7.4-42.2,34.7-42.2,59.5v17.4l0,0c-19.8,0-32.2,14.9-32.2,32.2v74.4c0,17.4,14.9,32.2,32.2,32.2l0,0v141.4
			c0,17.4,9.9,34.7,24.8,42.2v5c0,17.4,14.9,32.2,32.2,32.2h24.8c17.4,0,32.2-14.9,32.2-32.2l0,0h116.6l0,0
			c0,17.4,14.9,32.2,32.2,32.2h24.8c17.4,0,32.2-14.9,32.2-32.2v-7.4c14.9-7.4,24.8-24.8,24.8-42.2V425.9l0,0
			c17.4,0,32.2-14.9,32.2-32.2v-71.9C501,304.4,488.6,289.5,468.8,289.5z M453.9,358.9c-7.4,0-14.9,7.4-14.9,14.9V411
			c0,7.4-9.9,22.3-27.3,24.8c-39.7,5-76.9,7.4-114.1,7.4s-76.9-2.5-114.1-7.4c-14.9-2.5-24.8-14.9-24.8-24.8v-37.2
			c0-7.4-7.4-14.9-14.9-14.9s-14.9,7.4-14.9,14.9v22.3l0,0l0,0v-74.4l0,0h17.4c7.4,0,14.9-7.4,14.9-17.4c0-7.4,9.9-22.3,24.8-24.8
			c12.4-2.5,24.8-2.5,39.7-5l0,0c5,5,9.9,12.4,24.8,12.4h99.2c14.9,0,22.3-7.4,27.3-12.4c14.9,2.5,27.3,2.5,39.7,5
			c17.4,2.5,24.8,14.9,24.8,24.8c0,7.4,7.4,14.9,14.9,14.9l14.9,2.5v74.4l0,0v-22.3C468.8,366.4,461.3,358.9,453.9,358.9z
			 M414.2,599.5v17.4h-24.8v-17.4c0-7.4-7.4-14.9-14.9-14.9H223.2c-7.4,0-14.9,7.4-14.9,14.9v17.4h-24.8v-17.4
			c0-7.4-5-14.9-12.4-14.9c-7.4-2.5-12.4-7.4-12.4-14.9V460.6c7.4,2.5,12.4,5,19.8,7.4c81.9,12.4,158.7,12.4,238.1,0
			c7.4,0,14.9-2.5,22.3-7.4v109.1c0,7.4-5,14.9-12.4,14.9C419.2,587.1,414.2,592.1,414.2,599.5z M416.7,249.8
			c-14.9-2.5-32.2-5-49.6-5h-2.5c-2.5,0-7.4,0-9.9,2.5c-2.5,2.5-5,5-7.4,7.4c0,2.5,0,2.5-2.5,2.5h-99.2l-2.5-2.5
			c0-2.5-2.5-7.4-7.4-9.9c-2.5,0-5-2.5-9.9-2.5l0,0c-17.4,2.5-32.2,5-47.1,7.4c-5,0-9.9,0-14.9,2.5c5-5,9.9-7.4,12.4-9.9
			c84.3-24.8,156.3-24.8,240.6,0c5,2.5,9.9,5,14.9,9.9C426.6,249.8,421.7,249.8,416.7,249.8z"/>
	</g>
</g>
</svg>
