<?xml version="1.0" encoding="utf-8"?>
<!-- Generator: Adobe Illustrator 18.0.0, SVG Export Plug-In . SVG Version: 6.00 Build 0)  -->
<!DOCTYPE svg PUBLIC "-//W3C//DTD SVG 1.1//EN" "http://www.w3.org/Graphics/SVG/1.1/DTD/svg11.dtd">
<svg version="1.1" id="Capa_1" xmlns="http://www.w3.org/2000/svg" xmlns:xlink="http://www.w3.org/1999/xlink" x="0px" y="0px"
	 viewBox="0 0 595.3 841.9" enable-background="new 0 0 595.3 841.9" xml:space="preserve">
<g id="guia" display="none">
</g>
<g id="guia2">
</g>
<g id="Capa_3">
	<g id="guia_1_">
	</g>
	<g>
		<path fill="#FFFFFF" d="M493.6,520.2c-17.4,0-27.3,5-34.7,9.9c-5,2.5-7.4,5-14.9,5c-7.4,0-9.9-2.5-14.9-5c-2.5,0-5-2.5-7.4-5
			V252.3c0-5,5-9.9,9.9-9.9h7.4c5,0,9.9,5,9.9,9.9v37.2c0,12.4,9.9,19.8,19.8,19.8h22.3c9.9,0,19.8-9.9,19.8-19.8
			c0-9.9-9.9-19.8-19.8-19.8h-2.5v-14.9c0-27.3-22.3-49.6-49.6-49.6h-7.4c-27.3,0-49.6,22.3-49.6,49.6v91.8H233.2v-91.8
			c0-5,5-9.9,9.9-9.9h7.4c5,0,9.9,5,9.9,9.9V292c0,12.4,9.9,19.8,19.8,19.8h22.3c9.9,0,19.8-9.9,19.8-19.8c0-9.9-9.9-19.8-19.8-19.8
			h-2.5v-17.4c0-27.3-22.3-49.6-49.6-49.6h-5c-27.3,0-49.6,22.3-49.6,49.6v265.4c-14.9,0-22.3,7.4-29.8,9.9c-5,2.5-7.4,5-14.9,5
			s-7.4-2.5-14.9-5c-7.4-2.5-17.4-9.9-34.7-9.9c-12.4,0-19.8,9.9-19.8,19.8c0,12.4,9.9,19.8,19.8,19.8c7.4,0,7.4,2.5,14.9,5
			c7.4,5,17.4,12.4,34.7,12.4s27.3-5,34.7-9.9c5-2.5,7.4-5,14.9-5c7.4,0,7.4,2.5,14.9,5c7.4,5,17.4,9.9,34.7,9.9s27.3-5,34.7-9.9
			c5-2.5,7.4-5,14.9-5s9.9,2.5,14.9,5c7.4,5,17.4,9.9,34.7,9.9c17.4,0,27.3-5,34.7-9.9c5-2.5,7.4-5,14.9-5c7.4,0,9.9,2.5,14.9,5
			c7.4,5,17.4,9.9,34.7,9.9c17.4,0,27.3-5,34.7-9.9c5-2.5,7.4-5,14.9-5c9.9,0,19.8-9.9,19.8-19.8
			C513.4,530.1,503.5,520.2,493.6,520.2z M347.2,535c-7.4,0-7.4-2.5-14.9-5c-7.4-2.5-17.4-9.9-34.7-9.9s-27.3,5-34.7,9.9
			c-5,2.5-7.4,5-14.9,5c-7.4,0-7.4,0-12.4-5v-37.2H382v27.3c-9.9,2.5-17.4,5-22.3,9.9C354.7,535,352.2,535,347.2,535z M382,388.7
			v64.5H233.2v-64.5L382,388.7L382,388.7z"/>
		<path fill="#FFFFFF" d="M493.6,582.2c-17.4,0-27.3,5-34.7,9.9c-5,2.5-7.4,5-14.9,5c-7.4,0-9.9-2.5-14.9-5
			c-7.4-5-17.4-9.9-34.7-9.9c-17.4,0-27.3,5-34.7,9.9c-5,2.5-7.4,5-14.9,5s-7.4-2.5-14.9-5c-7.4-5-17.4-9.9-34.7-9.9
			c-17.4,0-27.3,5-34.7,9.9c-5,2.5-7.4,5-14.9,5s-9.9-2.5-14.9-5c-7.4-5-17.4-9.9-34.7-9.9c-17.4,0-27.3,5-34.7,9.9
			c-5,2.5-7.4,5-14.9,5c-7.4,0-7.4-2.5-14.9-5c-7.4-5-17.4-9.9-34.7-9.9c-12.4,0-19.8,9.9-19.8,19.8c0,12.4,9.9,19.8,19.8,19.8
			c7.4,0,7.4,2.5,14.9,5c7.4,5,17.4,9.9,34.7,9.9c17.4,0,27.3-5,34.7-9.9c5-2.5,7.4-5,14.9-5c7.4,0,7.4,2.5,14.9,5
			c7.4,5,17.4,9.9,34.7,9.9s27.3-5,34.7-9.9c5-2.5,7.4-5,14.9-5c7.4,0,7.4,2.5,14.9,5c7.4,5,17.4,9.9,34.7,9.9s27.3-5,34.7-9.9
			c5-2.5,7.4-5,14.9-5s7.4,2.5,14.9,5c7.4,5,17.4,9.9,34.7,9.9c17.4,0,27.3-5,34.7-9.9c5-2.5,7.4-5,14.9-5c9.9,0,19.8-9.9,19.8-19.8
			C513.4,589.6,503.5,582.2,493.6,582.2z"/>
	</g>
</g>
</svg>
