<?xml version="1.0" encoding="utf-8"?>
<!-- Generator: Adobe Illustrator 18.0.0, SVG Export Plug-In . SVG Version: 6.00 Build 0)  -->
<!DOCTYPE svg PUBLIC "-//W3C//DTD SVG 1.1//EN" "http://www.w3.org/Graphics/SVG/1.1/DTD/svg11.dtd">
<svg version="1.1" id="Capa_1" xmlns="http://www.w3.org/2000/svg" xmlns:xlink="http://www.w3.org/1999/xlink" x="0px" y="0px"
	 viewBox="0 0 595.3 841.9" enable-background="new 0 0 595.3 841.9" xml:space="preserve">
<g id="guia" display="none">
</g>
<g id="guia2">
</g>
<g id="Capa_3">
	<g id="guia_1_">
	</g>
	<g>
		<path fill="#FFFFFF" d="M466.3,304.4h-47.1v-47.1h42.2c-5,5-2.5,14.9,2.5,19.8s14.9,5,19.8,0l22.3-22.3c2.5-2.5,2.5-2.5,2.5-5
			c2.5-2.5,2.5-7.4,0-12.4c0-2.5-2.5-2.5-2.5-5l-22.3-22.3c-5-5-14.9-5-19.8,0c-5,5-5,12.4-2.5,19.8H111.6V220
			c0-7.4-7.4-14.9-14.9-14.9s-14.9,7.4-14.9,14.9v47.1c0,7.4,7.4,14.9,14.9,14.9s14.9-7.4,14.9-14.9v-9.9H191v86.8
			c0,7.4,7.4,14.9,14.9,14.9c7.4,0,14.9-7.4,14.9-14.9v-9.9H377c7.4,0,14.9-7.4,14.9-14.9c0-7.4-7.4-14.9-14.9-14.9H218.3v-47.1
			h171.1v86.8c0,7.4,7.4,14.9,14.9,14.9c7.4,0,14.9-7.4,14.9-14.9v-9.9h47.1c9.9,0,17.4,7.4,17.4,17.4v240.6
			c0,9.9-7.4,17.4-17.4,17.4H143.9c-9.9,0-17.4-7.4-17.4-17.4V351.5c0-9.9,7.4-17.4,17.4-17.4h29.8c7.4,0,14.9-7.4,14.9-14.9
			c0-7.4-7.4-14.9-14.9-14.9h-29.8c-24.8,0-44.6,19.8-44.6,44.6v240.6c0,24.8,19.8,44.6,44.6,44.6h324.9c24.8,0,44.6-19.8,44.6-44.6
			V351.5C513.4,326.7,491.1,304.4,466.3,304.4z"/>
		<path fill="#FFFFFF" d="M203.4,420.9c-5,0-7.4,2.5-7.4,7.4v22.3h-22.3v-22.3c0-5-2.5-7.4-7.4-7.4s-7.4,2.5-7.4,7.4v62
			c0,5,2.5,7.4,7.4,7.4s7.4-2.5,7.4-7.4v-22.3h22.3v22.3c0,5,2.5,7.4,7.4,7.4s7.4-2.5,7.4-7.4v-62
			C213.3,423.4,208.3,420.9,203.4,420.9z"/>
		<path fill="#FFFFFF" d="M389.4,435.8c5,0,7.4-2.5,7.4-7.4s-2.5-7.4-7.4-7.4h-22.3c-5,0-7.4,2.5-7.4,7.4v62c0,5,2.5,7.4,7.4,7.4
			h22.3c5,0,7.4-2.5,7.4-7.4s-2.5-7.4-7.4-7.4h-14.9v-14.9h14.9c5,0,7.4-2.5,7.4-7.4s-2.5-7.4-7.4-7.4h-14.9v-14.9L389.4,435.8
			L389.4,435.8z"/>
		<path fill="#FFFFFF" d="M429.1,420.9c-5,0-7.4,2.5-7.4,7.4v62c0,5,2.5,7.4,7.4,7.4h22.3c5,0,7.4-2.5,7.4-7.4s-2.5-7.4-7.4-7.4
			h-14.9v-54.6C436.5,423.4,434.1,420.9,429.1,420.9z"/>
		<path fill="#FFFFFF" d="M334.8,420.9h-29.8c-5,0-7.4,2.5-7.4,7.4s2.5,7.4,7.4,7.4h7.4v54.6c0,5,2.5,7.4,7.4,7.4s7.4-2.5,7.4-7.4
			v-54.6h7.4c5,0,7.4-2.5,7.4-7.4S339.8,420.9,334.8,420.9z"/>
		<path fill="#FFFFFF" d="M290.2,458.2c0-27.3-14.9-39.7-29.8-39.7s-29.8,12.4-29.8,39.7c0,24.8,14.9,39.7,29.8,39.7
			S290.2,485.4,290.2,458.2z M243.1,458.2c0-14.9,5-22.3,14.9-22.3c9.9,0,14.9,9.9,14.9,22.3c0,14.9-7.4,22.3-14.9,22.3
			C250.5,483,243.1,473,243.1,458.2z"/>
		<path fill="#FFFFFF" d="M151.3,545c0,7.4,7.4,14.9,14.9,14.9h106.7c7.4,0,14.9-7.4,14.9-14.9c0-7.4-7.4-14.9-14.9-14.9H166.2
			C158.7,530.1,151.3,535,151.3,545z"/>
		<path fill="#FFFFFF" d="M290.2,545c0,7.4,7.4,14.9,14.9,14.9h7.4c7.4,0,14.9-7.4,14.9-14.9c0-7.4-7.4-14.9-14.9-14.9h-7.4
			C297.6,530.1,290.2,535,290.2,545z"/>
		<path fill="#FFFFFF" d="M329.9,545c0,7.4,7.4,14.9,14.9,14.9h109.1c7.4,0,14.9-7.4,14.9-14.9c0-7.4-7.4-14.9-14.9-14.9H344.8
			C334.8,530.1,329.9,535,329.9,545z"/>
	</g>
</g>
</svg>
