<?xml version="1.0" encoding="utf-8"?>
<!-- Generator: Adobe Illustrator 18.0.0, SVG Export Plug-In . SVG Version: 6.00 Build 0)  -->
<!DOCTYPE svg PUBLIC "-//W3C//DTD SVG 1.1//EN" "http://www.w3.org/Graphics/SVG/1.1/DTD/svg11.dtd">
<svg version="1.1" id="Capa_1" xmlns="http://www.w3.org/2000/svg" xmlns:xlink="http://www.w3.org/1999/xlink" x="0px" y="0px"
	 viewBox="0 0 595.3 841.9" enable-background="new 0 0 595.3 841.9" xml:space="preserve">
<g id="guia" display="none">
</g>
<g id="guia2">
</g>
<g id="Capa_3">
	<g id="guia_1_">
	</g>
	<g>
		<path fill="#FFFFFF" d="M267.9,294.4c2.5,5,5,7.4,7.4,9.9c0,2.5,2.5,2.5,2.5,5c0,0,0,0,0,2.5v2.5c0,7.4-2.5,17.4-5,27.3v2.5
			c0,2.5,0,7.4,2.5,7.4s2.5,2.5,5,2.5c2.5,0,2.5,0,5-2.5c12.4-7.4,19.8-19.8,22.3-34.7v-5c0-2.5,0-5,0-7.4c0-5-2.5-7.4-5-12.4
			c-2.5-7.4-7.4-12.4-9.9-17.4l0-2.5c-2.5-2.5-5-7.4-7.4-9.9c-2.5-2.5-2.5-5-2.5-7.4c0-7.4,2.5-19.8,5-29.8c0-2.5,0-7.4-2.5-7.4
			c-2.5-2.5-7.4-2.5-9.9,0c-12.4,9.9-19.8,19.8-22.3,34.7c-2.5,9.9,0,19.8,2.5,24.8C260.4,284.5,265.4,289.5,267.9,294.4z"/>
		<path fill="#FFFFFF" d="M205.9,314.3c2.5,5,5,7.4,5,9.9l2.5,5v2.5c0,0,0,2.5,0,5v9.9c0,2.5,2.5,5,2.5,5c7.4,0,7.4,2.5,9.9,2.5h2.5
			c5-2.5,7.4-5,12.4-7.4c2.5-2.5,5-7.4,7.4-12.4c0,0,0,0,0-2.5c0-2.5,0-2.5,0-5c0-2.5,0-5-2.5-7.4c-2.5-7.4-5-9.9-7.4-12.4l-2.5-2.5
			c0,0,0-2.5-2.5-2.5l0,0l0,0c0-2.5,0-5,0-7.4v-5c0-2.5-2.5-5-2.5-5c-2.5,0-2.5-2.5-5-2.5l-2.5-5c-9.9,5-14.9,9.9-19.8,19.8v2.5
			c0,0,0,0,0,2.5c0,0,0,2.5,0,5S205.9,311.8,205.9,314.3z"/>
		<path fill="#FFFFFF" d="M200.9,483l14.9-9.9h-69.4c0,44.6,27.3,84.3,69.4,101.7h86.8c42.2-17.4,69.4-57,69.4-101.7H248l14.9,9.9
			c2.5,2.5,2.5,5,2.5,7.4v42.2c0,2.5,0,5-2.5,5c-2.5,2.5-5,2.5-5,2.5h-52.1c-5,0-7.4-5-7.4-7.4v-42.2
			C195.9,485.4,198.4,483,200.9,483z"/>
		<path fill="#FFFFFF" d="M409.3,535L409.3,535c29.8,0,94.3-37.2,94.3-86.8c0-29.8-24.8-54.6-54.6-54.6c-9.9,0-19.8,2.5-29.8,7.4
			c-2.5-5-7.4-7.4-14.9-7.4H255.5v34.7h131.5v42.2c0,54.6-32.2,101.7-81.9,121.5h-94.3c-49.6-19.8-81.9-67-81.9-121.5v-44.6h94.3
			v49.6c-2.5,2.5-5,5-5,9.9c0,7.4,5,12.4,12.4,12.4s12.4-5,12.4-12.4c0-5-2.5-7.4-5-9.9v-49.6l0,0v-34.7l0,0v-5c0-5-5-7.4-7.4-7.4
			s-7.4,2.5-7.4,7.4v5H111.6c-9.9,0-17.4,7.4-17.4,17.4v62c0,47.1,19.8,89.3,54.6,121.5h-37.2c-9.9,0-17.4,7.4-17.4,17.4
			c0,9.9,7.4,17.4,17.4,17.4h96.7h99.2h96.7c9.9,0,17.4-7.4,17.4-17.4c0-9.9-7.4-17.4-17.4-17.4h-37.2
			C384.5,574.7,399.3,557.4,409.3,535z M424.1,448.2c0-12.4,9.9-22.3,22.3-22.3c12.4,0,22.3,9.9,22.3,22.3
			c0,19.8-24.8,39.7-44.6,49.6V448.2L424.1,448.2z"/>
	</g>
</g>
</svg>
