<?xml version="1.0" encoding="utf-8"?>
<!-- Generator: Adobe Illustrator 18.0.0, SVG Export Plug-In . SVG Version: 6.00 Build 0)  -->
<!DOCTYPE svg PUBLIC "-//W3C//DTD SVG 1.1//EN" "http://www.w3.org/Graphics/SVG/1.1/DTD/svg11.dtd">
<svg version="1.1" id="Capa_1" xmlns="http://www.w3.org/2000/svg" xmlns:xlink="http://www.w3.org/1999/xlink" x="0px" y="0px"
	 viewBox="0 0 595.3 841.9" enable-background="new 0 0 595.3 841.9" xml:space="preserve">
<g id="guia" display="none">
</g>
<g id="guia2">
</g>
<g id="Capa_3">
	<g id="guia_1_">
	</g>
	<g>
		<path fill="#FFFFFF" d="M307.6,413.5H163.7c-5,0-9.9,5-9.9,9.9s5,9.9,9.9,9.9h141.4c5,0,9.9-5,9.9-9.9
			C317.5,418.5,312.5,413.5,307.6,413.5z"/>
		<path fill="#FFFFFF" d="M307.6,378.8H163.7c-5,0-9.9,5-9.9,9.9s5,9.9,9.9,9.9h141.4c5,0,9.9-5,9.9-9.9S312.5,378.8,307.6,378.8z"
			/>
		<path fill="#FFFFFF" d="M307.6,448.2H163.7c-5,0-9.9,5-9.9,9.9s5,9.9,9.9,9.9h141.4c5,0,9.9-5,9.9-9.9
			C317.5,453.2,312.5,448.2,307.6,448.2z"/>
		<path fill="#FFFFFF" d="M506,272.1H89.3c-5,0-9.9,2.5-12.4,5c-2.5,5-5,7.4-5,12.4v260.4c0,9.9,7.4,17.4,17.4,17.4H506
			c5,0,9.9-2.5,12.4-5s5-7.4,5-12.4V289.5C523.4,279.6,515.9,272.1,506,272.1z M478.7,515.2c-2.5-2.5-2.5-2.5-5-2.5h-42.2
			c-2.5,0-5,2.5-7.4,5l-7.4,17.4h-19.8l5-12.4c0-2.5,0-5,0-7.4c-2.5-2.5-2.5-2.5-5-2.5h-42.2c-2.5,0-5,2.5-7.4,5l-7.4,17.4h-17.4
			l5-12.4c0-2.5,0-5,0-7.4c-2.5-2.5-2.5-2.5-5-2.5h-42.2c-2.5,0-5,2.5-7.4,5l-7.4,17.4H248l5-12.4c0-2.5,0-5,0-7.4
			c-2.5-2.5-2.5-2.5-5-2.5h-44.6c-2.5,0-5,2.5-7.4,5l-7.4,17.4h-19.8l7.4-14.9c0-2.5,0-5,0-7.4c-2.5-2.5-2.5-2.5-5-2.5h-44.6
			c-2.5,0-5,2.5-7.4,5l-7.4,17.4h-5V309.3h12.4l-5,12.4c0,2.5,0,5,0,7.4c2.5,2.5,2.5,2.5,5,2.5h42.2c2.5,0,5-2.5,7.4-5l7.4-17.4
			h19.8l-5,12.4c0,2.5,0,5,0,7.4c2.5,0,5,2.5,7.4,2.5h42.2c2.5,0,5-2.5,7.4-5l7.4-17.4h17.4l-5,12.4c0,2.5,0,5,0,7.4
			c2.5,2.5,2.5,2.5,5,2.5H315c2.5,0,5-2.5,7.4-5l7.4-17.4h17.4l-2.5,12.4c0,2.5,0,5,0,7.4c2.5,0,2.5,2.5,5,2.5h42.2
			c2.5,0,5-2.5,7.4-5l7.4-17.4h19.8l-7.4,12.4c0,2.5,0,5,0,7.4c2.5,2.5,2.5,2.5,5,2.5h42.2c2.5,0,5-2.5,7.4-5l7.4-17.4h7.4V535
			h-12.4l5-12.4C481.2,517.7,481.2,515.2,478.7,515.2z"/>
		<path fill="#FFFFFF" d="M461.3,336.6h-76.9c-5,0-9.9,5-9.9,9.9v91.8c0,5,5,9.9,9.9,9.9h76.9c5,0,9.9-5,9.9-9.9V349
			C471.3,341.6,466.3,336.6,461.3,336.6z M451.4,358.9v71.9h-57v-71.9H451.4z"/>
	</g>
</g>
</svg>
