<?xml version="1.0" encoding="utf-8"?>
<!-- Generator: Adobe Illustrator 18.0.0, SVG Export Plug-In . SVG Version: 6.00 Build 0)  -->
<!DOCTYPE svg PUBLIC "-//W3C//DTD SVG 1.1//EN" "http://www.w3.org/Graphics/SVG/1.1/DTD/svg11.dtd">
<svg version="1.1" id="Capa_1" xmlns="http://www.w3.org/2000/svg" xmlns:xlink="http://www.w3.org/1999/xlink" x="0px" y="0px"
	 viewBox="123.3 -123.3 595.3 841.9" enable-background="new 123.3 -123.3 595.3 841.9" xml:space="preserve">
<g id="guia" display="none">
</g>
<g id="guia2">
</g>
<g>
	<path fill="#FFFFFF" d="M668.3,113.9H173.6c-8.6,0-15.7,7-15.7,15.7v304c0,8.6,7,15.7,15.7,15.7h494.7c8.6,0,15.7-7,15.7-15.7v-304
		C684,121,676.9,113.9,668.3,113.9z M656.9,435h-29.3c-1.7,0-3.2-2-3.2-4.5c0-2.5,1.4-4.5,3.2-4.5h29.3c1.7,0,3.2,2,3.2,4.5
		C660.1,433,658.7,435,656.9,435z M662.4,414.8H179.5V135.5h482.9L662.4,414.8L662.4,414.8z"/>
	<polygon fill="#FFFFFF" points="514.1,468.9 514.1,456.5 327.8,456.5 327.8,468.9 309.6,468.9 299.6,481.3 542.3,481.3 
		532.2,468.9 	"/>
</g>
</svg>
