<?xml version="1.0" encoding="utf-8"?>
<!-- Generator: Adobe Illustrator 18.0.0, SVG Export Plug-In . SVG Version: 6.00 Build 0)  -->
<!DOCTYPE svg PUBLIC "-//W3C//DTD SVG 1.1//EN" "http://www.w3.org/Graphics/SVG/1.1/DTD/svg11.dtd">
<svg version="1.1" id="Capa_1" xmlns="http://www.w3.org/2000/svg" xmlns:xlink="http://www.w3.org/1999/xlink" x="0px" y="0px"
	 viewBox="123.3 -123.3 595.3 841.9" enable-background="new 123.3 -123.3 595.3 841.9" xml:space="preserve">
<g id="guia" display="none">
</g>
<g id="guia2">
</g>
<g>
	<path fill="#FFFFFF" d="M457.7,184.6c0,3.9,1.9,21.3,3.9,44.4l-85,85.1c3.9-61.8,7.7-121.7,7.7-129.4L457.7,184.6L457.7,184.6z
		 M463.4,252.2l1.9,27L372.6,372l1.9-30.9L463.4,252.2L463.4,252.2z M465.4,304.4c3.9,59.9,7.7,123.6,11.6,150.7H364.9
		c1.9-11.6,1.9-30.9,3.9-56L465.4,304.4L465.4,304.4z M363,482.1l1.9-17.4H477l1.9,17.4H363L363,482.1z M438.4,153.7l19.3,21.3
		h-71.5l19.3-21.3H438.4L438.4,153.7z M405.5,120.9c0-3.9,3.9-7.7,7.7-7.7h17.4c3.9,0,7.7,3.9,7.7,7.7V146h-32.9L405.5,120.9
		C405.4,120.9,405.5,120.9,405.5,120.9z"/>
</g>
</svg>
