<?xml version="1.0" encoding="utf-8"?>
<!-- Generator: Adobe Illustrator 18.0.0, SVG Export Plug-In . SVG Version: 6.00 Build 0)  -->
<!DOCTYPE svg PUBLIC "-//W3C//DTD SVG 1.1//EN" "http://www.w3.org/Graphics/SVG/1.1/DTD/svg11.dtd">
<svg version="1.1" id="Capa_1" xmlns="http://www.w3.org/2000/svg" xmlns:xlink="http://www.w3.org/1999/xlink" x="0px" y="0px"
	 viewBox="0 0 595.3 841.9" enable-background="new 0 0 595.3 841.9" xml:space="preserve">
<g id="guia" display="none">
</g>
<g id="guia2">
</g>
<g id="Capa_3">
	<g id="guia_1_">
	</g>
	<g>
		<path fill="#FFFFFF" d="M243.1,222.5c0-9.9-7.4-17.4-17.4-17.4h-71.9c-9.9,0-17.4,7.4-17.4,17.4v17.4h106.7V222.5z"/>
		<path fill="#FFFFFF" d="M255.5,289.5c5-2.5,7.4-7.4,7.4-12.4c0-9.9-7.4-17.4-17.4-17.4H136.4c-9.9,0-17.4,7.4-17.4,17.4
			c0,5,2.5,9.9,7.4,12.4c-27.3,47.1-39.7,86.8-42.2,89.3v2.5v19.8c0,7.4,2.5,12.4,5,17.4c-2.5,5-5,12.4-5,17.4v17.4
			c0,7.4,2.5,12.4,5,17.4c-2.5,5-5,12.4-5,17.4v17.4c0,7.4,2.5,12.4,5,17.4c-2.5,5-5,12.4-5,17.4v17.4c0,29.8,19.8,71.9,71.9,71.9
			h32.2h5h32.2c52.1,0,71.9-42.2,71.9-71.9V540c0-7.4-2.5-12.4-5-17.4c2.5-5,5-12.4,5-17.4v-17.4c0-7.4-2.5-12.4-5-17.4
			c2.5-5,5-12.4,5-17.4v-17.4c0-7.4-2.5-12.4-5-17.4c2.5-5,5-12.4,5-17.4v-19.8v-2.5C295.2,376.3,282.8,336.6,255.5,289.5z
			 M260.4,564.8c0,5-2.5,34.7-37.2,34.7H191h-5h-32.2c-32.2,0-34.7-27.3-37.2-34.7v-17.4h143.9V564.8L260.4,564.8z M260.4,510.2
			H116.6v-17.4h143.9V510.2L260.4,510.2z M260.4,455.7H116.6v-17.4h143.9V455.7L260.4,455.7z M260.4,403.6H116.6v-14.9
			c5-9.9,19.8-52.1,44.6-91.8h52.1c27.3,42.2,42.2,81.9,47.1,91.8V403.6L260.4,403.6z"/>
		<path fill="#FFFFFF" d="M508.5,371.3c-2.5-2.5-7.4-5-12.4-5H352.2c-5,0-9.9,2.5-12.4,5c-2.5,2.5-5,7.4-5,14.9l17.4,213.3
			c0,7.4,5,34.7,71.9,34.7s71.9-27.3,71.9-34.7l17.4-215.8C513.4,381.3,510.9,376.3,508.5,371.3z M458.9,594.6
			c-2.5,2.5-12.4,5-37.2,5c-24.8,0-32.2-2.5-37.2-5L374.5,483h91.8L458.9,594.6z M468.8,465.6h-94.3l-5-62h104.2L468.8,465.6z"/>
	</g>
</g>
</svg>
