<?xml version="1.0" encoding="utf-8"?>
<!-- Generator: Adobe Illustrator 18.0.0, SVG Export Plug-In . SVG Version: 6.00 Build 0)  -->
<!DOCTYPE svg PUBLIC "-//W3C//DTD SVG 1.1//EN" "http://www.w3.org/Graphics/SVG/1.1/DTD/svg11.dtd">
<svg version="1.1" id="Capa_1" xmlns="http://www.w3.org/2000/svg" xmlns:xlink="http://www.w3.org/1999/xlink" x="0px" y="0px"
	 viewBox="0 0 595.3 841.9" enable-background="new 0 0 595.3 841.9" xml:space="preserve">
<g id="guia" display="none">
</g>
<g id="guia2">
</g>
<g id="Capa_3">
	<g id="guia_1_">
	</g>
	<path fill="#FFFFFF" d="M513.4,420.9c0,119.1-96.7,215.8-215.8,215.8S81.9,540,81.9,420.9s96.7-215.8,215.8-215.8
		S513.4,301.9,513.4,420.9z M297.6,284.5c-17.4,0-32.2,12.4-32.2,24.8c0,14.9,14.9,24.8,32.2,24.8s32.2-12.4,32.2-24.8
		C329.9,294.4,315,284.5,297.6,284.5z M473.7,383.7c-32.2-34.7-74.4-59.5-124-69.4c-2.5,14.9-9.9,24.8-22.3,32.2
		c37.2,57,59.5,138.9,59.5,228.2c54.6-32.2,89.3-89.3,89.3-156.3C478.7,408.5,476.2,396.1,473.7,383.7z M116.6,420.9
		c0,67,37.2,124,89.3,156.3c0-91.8,22.3-173.6,59.5-228.2c-12.4-7.4-19.8-17.4-22.3-32.2c-47.1,9.9-89.3,34.7-124,69.4
		C119.1,396.1,116.6,408.5,116.6,420.9z M297.6,239.9c-24.8,0-47.1,5-69.4,12.4c12.4,2.5,27.3,7.4,37.2,17.4
		c9.9-5,19.8-7.4,29.8-7.4s22.3,2.5,29.8,7.4c12.4-7.4,24.8-14.9,37.2-17.4C344.8,244.8,322.4,239.9,297.6,239.9z"/>
</g>
</svg>
