<?xml version="1.0" encoding="utf-8"?>
<!-- Generator: Adobe Illustrator 18.0.0, SVG Export Plug-In . SVG Version: 6.00 Build 0)  -->
<!DOCTYPE svg PUBLIC "-//W3C//DTD SVG 1.1//EN" "http://www.w3.org/Graphics/SVG/1.1/DTD/svg11.dtd">
<svg version="1.1" id="Capa_1" xmlns="http://www.w3.org/2000/svg" xmlns:xlink="http://www.w3.org/1999/xlink" x="0px" y="0px"
	 viewBox="0 0 595.3 841.9" enable-background="new 0 0 595.3 841.9" xml:space="preserve">
<g id="guia" display="none">
</g>
<g id="guia2">
</g>
<g id="Capa_3">
	<g>
		<path fill="#FFFFFF" d="M272.8,492.9c153.8,0,176.1,0,176.1-44.6c0-57-71.9-116.6-176.1-116.6S96.7,391.2,96.7,448.2
			C96.7,492.9,121.5,492.9,272.8,492.9z M272.8,363.9c94.3,0,143.9,49.6,143.9,84.3c0,5,0,5,0,5l0,0c-7.4,7.4-62,7.4-143.9,7.4
			s-136.4,0-143.9-7.4c0,0,0-2.5,0-5C129,413.5,181.1,363.9,272.8,363.9z"/>
		<path fill="#FFFFFF" d="M426.6,495.4h-24.8c-14.9,0-74.4,39.7-74.4,39.7c-2.5,0-2.5,2.5-5,2.5c-2.5,0-5-2.5-9.9-5
			c0,0-54.6-37.2-69.4-37.2H121.5c-22.3,0-39.7,17.4-39.7,39.7c0,12.4,7.4,24.8,17.4,32.2c5,62,32.2,86.8,176.1,86.8
			s171.1-24.8,176.1-86.8c9.9-7.4,17.4-19.8,17.4-32.2C466.3,512.7,448.9,495.4,426.6,495.4z M272.8,624.3
			c-114.1,0-138.9-14.9-143.9-47.1h285.2C411.7,609.5,386.9,624.3,272.8,624.3z"/>
	</g>
	<g>
		<path fill="#FFFFFF" d="M424.1,292c2.5,9.9,5,17.4,7.4,22.3c0-5,0-9.9,2.5-17.4c0-2.5-2.5-2.5-2.5-5
			C431.6,292,429.1,292,424.1,292z"/>
		<path fill="#FFFFFF" d="M436.5,195.2c-42.2,0-76.9,34.7-76.9,76.9s34.7,76.9,76.9,76.9s76.9-34.7,76.9-76.9
			S478.7,195.2,436.5,195.2z M468.8,289.5c-2.5,5-5,9.9-9.9,12.4c-2.5,2.5-9.9,5-19.8,0c-2.5,9.9-2.5,17.4-2.5,22.3l0,0
			c0,0,2.5,2.5,0,5l0,0l0,0l0,0l0,0l0,0l0,0l0,0h-2.5c0,0-14.9-14.9-17.4-39.7c-14.9-9.9-17.4-24.8-7.4-42.2
			c9.9-14.9,27.3-27.3,27.3-29.8h2.5c0,0,2.5,0,2.5,2.5c0,0,12.4,19.8,12.4,42.2l0,0c9.9-5,17.4-7.4,17.4-7.4h2.5c0,0,0,0,0,2.5
			C473.7,257.2,476.2,274.6,468.8,289.5z"/>
		<path fill="#FFFFFF" d="M444,267.2c0,0,2.5,0,2.5-2.5c0-2.5,0-2.5,0-5c0-12.4-5-22.3-7.4-29.8c-12.4,19.8-17.4,39.7-17.4,54.6
			c2.5,0,5,0,7.4,0C431.6,277.1,436.5,272.1,444,267.2z"/>
		<path fill="#FFFFFF" d="M416.7,249.8c-7.4,12.4-7.4,22.3,0,29.8c0-14.9,5-29.8,14.9-47.1C426.6,234.9,419.2,242.4,416.7,249.8z"/>
		<path fill="#FFFFFF" d="M441.5,296.9c5,2.5,9.9,5,14.9,0c2.5-2.5,5-5,7.4-9.9c2.5-7.4,5-14.9,5-22.3
			C453.9,274.6,446.5,287,441.5,296.9z"/>
		<path fill="#FFFFFF" d="M463.8,262.2c-5,2.5-12.4,5-17.4,7.4c-7.4,5-12.4,12.4-7.4,19.8C444,279.6,451.4,272.1,463.8,262.2z"/>
	</g>
</g>
</svg>
