<?xml version="1.0" encoding="utf-8"?>
<!-- Generator: Adobe Illustrator 18.0.0, SVG Export Plug-In . SVG Version: 6.00 Build 0)  -->
<!DOCTYPE svg PUBLIC "-//W3C//DTD SVG 1.1//EN" "http://www.w3.org/Graphics/SVG/1.1/DTD/svg11.dtd">
<svg version="1.1" id="Capa_1" xmlns="http://www.w3.org/2000/svg" xmlns:xlink="http://www.w3.org/1999/xlink" x="0px" y="0px"
	 viewBox="0 0 595.3 841.9" enable-background="new 0 0 595.3 841.9" xml:space="preserve">
<g id="guia" display="none">
</g>
<g id="guia2">
</g>
<g id="Capa_3">
	<g id="guia_1_">
	</g>
	<path fill="#FFFFFF" d="M491.1,205.2H297.6l0,0l0,0H104.2c-12.4,0-22.3,9.9-22.3,22.3v193.5l0,0v193.5c0,12.4,9.9,22.3,22.3,22.3
		h386.9c12.4,0,22.3-9.9,22.3-22.3V227.5C513.4,215.1,503.5,205.2,491.1,205.2z M481.2,604.5H300.1h-2.5v-47.1
		c12.4-9.9,27.3,2.5,27.3,2.5s22.3,17.4,47.1,9.9c19.8-5,24.8-24.8,24.8-37.2l0,0c0,0,0-2.5,0-5l0,0l0,0c0-2.5,0-5,0-5l0,0
		c0-12.4-5-32.2-24.8-37.2c-24.8-7.4-47.1,12.4-47.1,12.4s-14.9,14.9-27.3,2.5v-79.4h-81.9c-9.9,12.4,2.5,27.3,2.5,27.3
		s19.8,22.3,12.4,47.1c-5,19.8-24.8,24.8-37.2,24.8l0,0c0,0-2.5,0-5,0l0,0c-2.5,0-5,0-5,0l0,0c-9.9,0-29.8-5-34.7-24.8
		c-7.4-24.8,12.4-47.1,12.4-47.1s12.4-14.9,2.5-27.3h-49.6l-2.5-5V237.4h178.6l7.4,2.5V287c-12.4,9.9-27.3-2.5-27.3-2.5
		s-22.3-19.8-47.1-12.4c-19.8,5-24.8,24.8-24.8,37.2l0,0c0,0,0,2.5,0,5l0,0c0,2.5,0,5,0,5l0,0c0,12.4,5,32.2,24.8,37.2
		c24.8,7.4,47.1-12.4,47.1-12.4s14.9-14.9,27.3-2.5v79.4h81.9c9.9-12.4-2.5-27.3-2.5-27.3s-19.8-22.3-12.4-47.1
		c5-19.8,24.8-24.8,37.2-24.8l0,0c0,0,2.5,0,5,0l0,0c2.5,0,5,0,5,0l0,0c9.9,0,29.8,5,34.7,24.8c7.4,24.8-12.4,47.1-12.4,47.1
		s-12.4,14.9-2.5,27.3h47.1l2.5,5V604.5L481.2,604.5z"/>
</g>
</svg>
