<?xml version="1.0" encoding="utf-8"?>
<!-- Generator: Adobe Illustrator 18.0.0, SVG Export Plug-In . SVG Version: 6.00 Build 0)  -->
<!DOCTYPE svg PUBLIC "-//W3C//DTD SVG 1.1//EN" "http://www.w3.org/Graphics/SVG/1.1/DTD/svg11.dtd">
<svg version="1.1" id="Capa_1" xmlns="http://www.w3.org/2000/svg" xmlns:xlink="http://www.w3.org/1999/xlink" x="0px" y="0px"
	 viewBox="0 0 595.3 841.9" enable-background="new 0 0 595.3 841.9" xml:space="preserve">
<g id="guia" display="none">
</g>
<g id="guia2">
</g>
<g id="Capa_3">
	<g>
		<path fill="#FFFFFF" d="M503.5,440.8L394.4,257.2c-2.5-2.5-5-5-9.9-5l-37.2-7.4V220c0-2.5,0-7.4-5-9.9c-2.5-2.5-5-5-9.9-5h-7.4
			v2.5l39.7,426.6v2.5h34.7c7.4,0,14.9-5,14.9-14.9v-2.5l-9.9-220.7l57,71.9c2.5,2.5,5,5,9.9,5h2.5c2.5,0,7.4,0,9.9-2.5l17.4-12.4
			C506,455.7,508.5,448.2,503.5,440.8z"/>
		<path fill="#FFFFFF" d="M310,207.6v-2.5H258c-2.5,0-7.4,2.5-9.9,5c-2.5,2.5-2.5,5-2.5,9.9v24.8l-37.2,7.4c-2.5,0-7.4,2.5-9.9,5
			L89.3,440.8c-5,5-2.5,14.9,2.5,19.8l19.8,9.9c2.5,2.5,5,2.5,7.4,2.5h2.5c2.5,0,7.4-2.5,9.9-5l57-69.4l-12.4,223.2
			c0,5,0,7.4,2.5,9.9s7.4,5,9.9,5h158.7c0,0,0,0,0-2.5L310,207.6z M243.1,306.8c5,0,9.9,5,9.9,9.9c0,5-5,7.4-9.9,7.4
			s-9.9-2.5-9.9-7.4C233.2,311.8,238.1,306.8,243.1,306.8z M245.6,356.5c5,0,9.9,5,9.9,9.9s-5,9.9-9.9,9.9s-9.9-5-9.9-9.9
			S240.6,356.5,245.6,356.5z M248,425.9c-5,0-9.9-5-9.9-9.9s5-9.9,9.9-9.9s9.9,5,9.9,9.9C255.5,420.9,253,425.9,248,425.9z
			 M285.2,306.8c5,0,9.9,5,9.9,9.9c0,5-5,9.9-9.9,9.9s-9.9-5-9.9-9.9C277.8,311.8,280.3,306.8,285.2,306.8z M287.7,356.5
			c5,0,9.9,5,9.9,9.9s-5,9.9-9.9,9.9s-9.9-5-9.9-9.9S282.8,356.5,287.7,356.5z M290.2,425.9c-5,0-9.9-5-9.9-9.9s5-9.9,9.9-9.9
			s9.9,5,9.9,9.9C300.1,420.9,295.2,425.9,290.2,425.9z"/>
	</g>
</g>
</svg>
