<?xml version="1.0" encoding="utf-8"?>
<!-- Generator: Adobe Illustrator 18.0.0, SVG Export Plug-In . SVG Version: 6.00 Build 0)  -->
<!DOCTYPE svg PUBLIC "-//W3C//DTD SVG 1.1//EN" "http://www.w3.org/Graphics/SVG/1.1/DTD/svg11.dtd">
<svg version="1.1" id="Capa_1" xmlns="http://www.w3.org/2000/svg" xmlns:xlink="http://www.w3.org/1999/xlink" x="0px" y="0px"
	 viewBox="0 0 595.3 841.9" enable-background="new 0 0 595.3 841.9" xml:space="preserve">
<g id="guia" display="none">
</g>
<g id="guia2">
</g>
<g id="Capa_3">
	<path fill="#FFFFFF" d="M530.8,349L409.3,239.9c-2.5,0-2.5-2.5-5-2.5l-47.1-5c-2.5,0-5,0-5,2.5c-9.9,7.4-32.2,12.4-52.1,12.4
		c-19.8,0-39.7-5-49.6-12.4c-2.5,0-2.5-2.5-5-2.5l-54.6,5c-2.5,0-2.5,0-5,2.5L64.5,349c0,2.5-2.5,5-2.5,7.4c0,2.5,0,5,2.5,5l62,67
		c2.5,2.5,2.5,2.5,5,2.5s5,0,5-2.5l37.2-34.7V602c0,5,2.5,7.4,7.4,7.4h228.2c5,0,7.4-2.5,7.4-7.4V393.7l37.2,34.7
		c2.5,2.5,2.5,2.5,5,2.5s5,0,5-2.5l62-67c2.5-2.5,2.5-2.5,2.5-5C533.3,354,530.8,351.5,530.8,349z M300.1,264.7
		c17.4,0,39.7-5,54.6-9.9c-2.5,32.2-27.3,57-57,57c-29.8,0-54.6-27.3-57-59.5h2.5C258,259.7,282.8,264.7,300.1,264.7z"/>
</g>
</svg>
