<?xml version="1.0" encoding="utf-8"?>
<!-- Generator: Adobe Illustrator 18.0.0, SVG Export Plug-In . SVG Version: 6.00 Build 0)  -->
<!DOCTYPE svg PUBLIC "-//W3C//DTD SVG 1.1//EN" "http://www.w3.org/Graphics/SVG/1.1/DTD/svg11.dtd">
<svg version="1.1" id="Capa_1" xmlns="http://www.w3.org/2000/svg" xmlns:xlink="http://www.w3.org/1999/xlink" x="0px" y="0px"
	 viewBox="0 0 595.3 841.9" enable-background="new 0 0 595.3 841.9" xml:space="preserve">
<g id="guia" display="none">
</g>
<g id="guia2">
</g>
<g id="Capa_3">
	<g>
		<path fill="#FFFFFF" d="M168.7,537.5v57h191v-2.5h7.4v2.5h47.1v-5l0,0h5v-39.7L391.9,535L168.7,537.5L168.7,537.5z M396.9,562.3
			c-2.5,0-32.2-2.5-34.7-12.4h2.5c0,7.4,19.8,9.9,29.8,9.9L396.9,562.3z"/>
		<path fill="#FFFFFF" d="M359.6,602h-191v52.1h220.7l29.8-12.4V602H359.6L359.6,602z M396.9,629.3v2.5c-12.4,0-29.8,2.5-29.8,9.9
			h-2.5C362.1,631.8,391.9,629.3,396.9,629.3z"/>
		<path fill="#FFFFFF" d="M453.9,187.8c-42.2,0-76.9,34.7-76.9,76.9s34.7,76.9,76.9,76.9s76.9-34.7,76.9-76.9
			S496.1,187.8,453.9,187.8z M451.4,239.9l-29.8,24.8h29.8v9.9h-44.6v-7.4l29.8-24.8h-29.8V230h44.6V239.9z M488.6,262.2l-19.8,17.4
			h19.8v7.4h-29.8v-5l19.8-17.4h-19.8v-7.4h29.8V262.2z M513.4,294.4v5h-19.8v-5L506,282h-12.4v-5h19.8v5L501,294.4H513.4
			L513.4,294.4z"/>
		<path fill="#FFFFFF" d="M292.7,490.4C292.7,490.4,292.7,492.9,292.7,490.4c2.5,2.5,2.5,0,2.5,0
			C295.2,490.4,295.2,487.9,292.7,490.4C292.7,487.9,292.7,490.4,292.7,490.4z"/>
		<circle fill="#FFFFFF" cx="292.7" cy="468.1" r="2.5"/>
		<circle fill="#FFFFFF" cx="292.7" cy="443.3" r="2.5"/>
		<path fill="#FFFFFF" d="M292.7,420.9L292.7,420.9c2.5,2.5,2.5,0,2.5,0C295.2,418.5,295.2,418.5,292.7,420.9
			C292.7,418.5,292.7,418.5,292.7,420.9z"/>
		<polygon fill="#FFFFFF" points="386.9,527.6 439,527.6 444,502.8 391.9,502.8 		"/>
		<path fill="#FFFFFF" d="M404.3,490.4C404.3,490.4,401.8,492.9,404.3,490.4c-2.5,2.5,0,2.5,0,2.5
			C404.3,495.4,406.8,492.9,404.3,490.4C406.8,492.9,404.3,490.4,404.3,490.4z"/>
		<path fill="#FFFFFF" d="M183.5,492.9C183.5,492.9,183.5,490.4,183.5,492.9c-2.5-2.5-2.5,0-2.5,0S181.1,495.4,183.5,492.9
			C183.5,495.4,183.5,492.9,183.5,492.9z"/>
		<circle fill="#FFFFFF" cx="292.7" cy="396.1" r="2.5"/>
		<circle fill="#FFFFFF" cx="292.7" cy="373.8" r="2.5"/>
		<path fill="#FFFFFF" d="M292.7,351.5C295.2,351.5,295.2,351.5,292.7,351.5c2.5-2.5,0-2.5,0-2.5C292.7,349,292.7,349,292.7,351.5
			L292.7,351.5z"/>
		<path fill="#FFFFFF" d="M369.6,311.8h-34.7c-7.4,9.9-24.8,27.3-39.7,29.8l0,0h2.5l0,0L310,354c5-2.5,24.8-17.4,32.2-39.7h5
			c-9.9,29.8-37.2,44.6-37.2,44.6h-2.5l-9.9-9.9c0,2.5-2.5,2.5-2.5,2.5c-2.5,0-2.5-2.5-2.5-2.5l-12.4,12.4h-2.5
			c0,0-27.3-14.9-37.2-44.6l5-2.5c7.4,24.8,27.3,37.2,32.2,39.7l14.9-14.9c-19.8-2.5-34.7-17.4-42.2-27.3h-34.7l-2.5,2.5l-96.7,79.4
			l32.2,136.4l52.1-2.5l-27.3-114.1l42.2-32.2v148.8h81.9h74.4V381.3l44.6,32.2l-22.3,81.9h7.4l-2.5-2.5c0-2.5,2.5-2.5,2.5-2.5
			l2.5,2.5c0,2.5,0,2.5-2.5,2.5h44.6l24.8-104.2l0,0L369.6,311.8L369.6,311.8z M178.6,492.9c0-2.5,2.5-2.5,2.5-2.5
			c2.5,0,2.5,2.5,2.5,2.5c0,2.5,0,2.5-2.5,2.5h2.5v5h-39.7v-5h34.7C178.6,495.4,178.6,492.9,178.6,492.9z M292.7,495.4
			c-2.5,0-2.5-2.5-2.5-2.5c0-2.5,2.5-2.5,2.5-2.5c2.5,0,2.5,2.5,2.5,2.5C297.6,492.9,295.2,495.4,292.7,495.4z M292.7,470.6
			c-2.5,0-2.5-2.5-2.5-2.5c0-2.5,2.5-2.5,2.5-2.5c2.5,0,2.5,2.5,2.5,2.5S295.2,470.6,292.7,470.6z M292.7,448.2
			c-2.5,0-2.5-2.5-2.5-2.5l2.5-2.5c2.5,0,2.5,2.5,2.5,2.5C297.6,445.7,295.2,448.2,292.7,448.2z M292.7,423.4
			c-2.5,0-2.5-2.5-2.5-2.5c0-2.5,2.5-2.5,2.5-2.5c2.5,0,2.5,2.5,2.5,2.5C297.6,420.9,295.2,423.4,292.7,423.4z M292.7,401.1
			c-2.5,0-2.5-2.5-2.5-2.5c0-2.5,2.5-2.5,2.5-2.5c2.5,0,2.5,2.5,2.5,2.5C297.6,398.6,295.2,401.1,292.7,401.1z M292.7,376.3
			c-2.5,0-2.5-2.5-2.5-5c0-2.5,2.5-2.5,2.5-2.5c2.5,0,2.5,2.5,2.5,2.5S295.2,376.3,292.7,376.3z"/>
	</g>
</g>
</svg>
