<?xml version="1.0" encoding="utf-8"?>
<!-- Generator: Adobe Illustrator 18.0.0, SVG Export Plug-In . SVG Version: 6.00 Build 0)  -->
<!DOCTYPE svg PUBLIC "-//W3C//DTD SVG 1.1//EN" "http://www.w3.org/Graphics/SVG/1.1/DTD/svg11.dtd">
<svg version="1.1" id="Capa_1" xmlns="http://www.w3.org/2000/svg" xmlns:xlink="http://www.w3.org/1999/xlink" x="0px" y="0px"
	 viewBox="0 0 595.3 841.9" enable-background="new 0 0 595.3 841.9" xml:space="preserve">
<g id="guia" display="none">
</g>
<g id="guia2">
</g>
<g id="Capa_3">
	<g>
		<path fill="#FFFFFF" d="M453.9,187.8c-42.2,0-76.9,34.7-76.9,76.9s34.7,76.9,76.9,76.9s76.9-34.7,76.9-76.9
			S496.1,187.8,453.9,187.8z M451.4,239.9l-29.8,24.8h29.8v9.9h-44.6v-7.4l29.8-24.8h-29.8V230h44.6V239.9z M488.6,262.2l-19.8,17.4
			h19.8v7.4h-29.8v-7.4l19.8-17.4h-19.8v-7.4h29.8V262.2z M513.4,294.4v5h-19.8v-5L506,282h-12.4v-5h19.8v5L501,294.4H513.4
			L513.4,294.4z"/>
		<path fill="#FFFFFF" d="M287.7,473C287.7,475.5,290.2,475.5,287.7,473c2.5,2.5,2.5,0,2.5,0C292.7,473,290.2,473,287.7,473
			C290.2,473,287.7,473,287.7,473z"/>
		<path fill="#FFFFFF" d="M287.7,403.6C287.7,403.6,290.2,406.1,287.7,403.6c2.5,2.5,2.5,0,2.5,0
			C292.7,403.6,290.2,401.1,287.7,403.6C290.2,401.1,287.7,403.6,287.7,403.6z"/>
		<path fill="#FFFFFF" d="M287.7,450.7C287.7,450.7,290.2,453.2,287.7,450.7c2.5,2.5,2.5,0,2.5,0
			C292.7,450.7,290.2,448.2,287.7,450.7C290.2,448.2,287.7,450.7,287.7,450.7z"/>
		<path fill="#FFFFFF" d="M287.7,381.3C287.7,381.3,290.2,381.3,287.7,381.3c2.5,2.5,2.5,0,2.5,0
			C292.7,378.8,290.2,378.8,287.7,381.3C290.2,378.8,287.7,378.8,287.7,381.3z"/>
		<path fill="#FFFFFF" d="M287.7,497.8C287.7,497.8,290.2,497.8,287.7,497.8c2.5,2.5,2.5,0,2.5,0
			C292.7,495.4,290.2,495.4,287.7,497.8C290.2,495.4,287.7,495.4,287.7,497.8z"/>
		<path fill="#FFFFFF" d="M287.7,428.4C287.7,428.4,290.2,428.4,287.7,428.4c2.5,2.5,2.5,0,2.5,0S290.2,425.9,287.7,428.4
			C290.2,425.9,287.7,425.9,287.7,428.4z"/>
		<path fill="#FFFFFF" d="M367.1,311.8h-34.7c-7.4,27.3-22.3,32.2-42.2,34.7v-2.5c-19.8,0-34.7-5-42.2-32.2h-34.7l-2.5,5l-67,49.6
			l32.2,44.6l34.7-22.3v138.9h79.4l0,0h84.3V388.7l32.2,22.3l32.2-44.6l-69.4-49.6L367.1,311.8z M290.2,500.3c-2.5,0-5-2.5-5-2.5
			c0-2.5,2.5-2.5,5-2.5c2.5,0,2.5,2.5,2.5,2.5C295.2,500.3,292.7,500.3,290.2,500.3z M290.2,478c-2.5,0-5-2.5-5-2.5s2.5-2.5,5-2.5
			c2.5,0,2.5,2.5,2.5,2.5S292.7,478,290.2,478z M290.2,453.2c-2.5,0-5-2.5-5-2.5c0-2.5,2.5-2.5,5-2.5c2.5,0,2.5,2.5,2.5,2.5
			C295.2,453.2,292.7,453.2,290.2,453.2z M290.2,430.9c-2.5,0-5-2.5-5-2.5c0-2.5,2.5-2.5,5-2.5c2.5,0,2.5,2.5,2.5,2.5
			C295.2,428.4,292.7,430.9,290.2,430.9z M290.2,408.5c-2.5,0-5-2.5-5-2.5c0-2.5,2.5-2.5,5-2.5c2.5,0,2.5,2.5,2.5,2.5
			C295.2,406.1,292.7,408.5,290.2,408.5z M290.2,383.7c-2.5,0-5-2.5-5-2.5c0-2.5,2.5-2.5,5-2.5c2.5,0,2.5,2.5,2.5,2.5
			C295.2,383.7,292.7,383.7,290.2,383.7z M307.6,368.9L307.6,368.9l-12.4-12.4l0,0c0,2.5-2.5,2.5-2.5,2.5c-2.5,0-2.5-2.5-2.5-2.5
			l-12.4,12.4h-2.5c0,0-27.3-14.9-37.2-44.6l5-2.5c7.4,24.8,27.3,37.2,32.2,39.7l14.9-14.9l0,0l17.4,14.9c5-2.5,24.8-17.4,32.2-39.7
			l5,2.5C334.8,354,307.6,368.9,307.6,368.9z"/>
		<path fill="#FFFFFF" d="M287.7,356.5C287.7,358.9,290.2,358.9,287.7,356.5c2.5,2.5,2.5,0,2.5,0
			C292.7,356.5,290.2,356.5,287.7,356.5C290.2,356.5,287.7,356.5,287.7,356.5z"/>
		<path fill="#FFFFFF" d="M297.6,535h-7.4h-5v57h12.4v2.5h-14.9v-62h-54.6l-17.4,49.6v57l64.5,14.9l7.4-42.2h7.4h7.4l9.9,42.2
			l67-14.9v-57l-22.3-49.6h-54.6V535z M228.2,589.6L228.2,589.6c9.9-2.5,14.9-32.2,14.9-44.6h2.5
			C245.6,547.4,243.1,589.6,228.2,589.6z M357.2,589.6c-14.9,0-17.4-42.2-17.4-44.6h2.5C342.3,557.4,344.8,587.1,357.2,589.6
			L357.2,589.6z"/>
	</g>
</g>
</svg>
