<?xml version="1.0" encoding="utf-8"?>
<!-- Generator: Adobe Illustrator 18.0.0, SVG Export Plug-In . SVG Version: 6.00 Build 0)  -->
<!DOCTYPE svg PUBLIC "-//W3C//DTD SVG 1.1//EN" "http://www.w3.org/Graphics/SVG/1.1/DTD/svg11.dtd">
<svg version="1.1" id="Capa_1" xmlns="http://www.w3.org/2000/svg" xmlns:xlink="http://www.w3.org/1999/xlink" x="0px" y="0px"
	 viewBox="0 0 595.3 841.9" enable-background="new 0 0 595.3 841.9" xml:space="preserve">
<g id="guia" display="none">
</g>
<g id="guia2">
</g>
<g id="Capa_3">
	<path fill="#FFFFFF" d="M448.9,205.2c-67-14.9-94.3,42.2-104.2,96.7c-14.9,76.9-12.4,158.7-37.2,235.6
		c-9.9,29.8-24.8,76.9,2.5,104.2c17.4,17.4,52.1,24.8,71.9,12.4c34.7-19.8,57-69.4,69.4-106.7c22.3-67,47.1-138.9,59.5-210.8
		C518.4,282,510.9,220,448.9,205.2z M444,502.8c-12.4,39.7-42.2,133.9-96.7,131.5c-24.8-2.5-37.2-24.8-34.7-47.1
		c2.5-34.7,17.4-67,27.3-99.2c5-17.4,5-37.2,7.4-57c0-5,2.5-47.1,5-47.1c12.4-5,34.7,0,47.1,2.5c9.9,2.5,62,22.3,62,29.8
		C458.9,443.3,451.4,473,444,502.8z M409.3,304.4c7.4,0,12.4,7.4,9.9,14.9c2.5-7.4,9.9-14.9,19.8-9.9c5,5,9.9,19.8,2.5,22.3
		c7.4,0,14.9,7.4,12.4,14.9c-2.5,9.9-14.9,14.9-19.8,7.4c22.3,24.8-29.8,24.8-22.3,7.4c-9.9,9.9-34.7-12.4-14.9-22.3
		c-24.8,7.4-9.9-37.2,5-17.4C394.4,316.8,401.8,301.9,409.3,304.4z M486.1,309.3c-12.4-12.4-39.7-17.4-57-19.8l0,0
		c-19.8-5-39.7-7.4-57-2.5c-2.5-14.9,9.9-32.2,19.8-42.2c17.4-22.3,47.1-24.8,71.9-9.9C486.1,252.3,496.1,282,486.1,309.3z
		 M248,294.4c-2.5-57-22.3-116.6-91.8-111.6c-64.5,5-76.9,67-74.4,121.5c2.5,71.9,17.4,146.3,32.2,215.8
		c7.4,37.2,22.3,89.3,54.6,114.1c19.8,14.9,54.6,9.9,74.4-2.5c29.8-22.3,22.3-71.9,14.9-101.7C240.6,453.2,253,371.3,248,294.4z
		 M106.7,282c-5-29.8,9.9-57,34.7-69.4c24.8-12.4,54.6-7.4,69.4,17.4c7.4,9.9,17.4,29.8,12.4,44.6c-17.4-7.4-37.2-7.4-57-5l0,0
		C148.8,272.1,121.5,272.1,106.7,282z M176.1,339.1c5,19.8-47.1,12.4-22.3-9.9c-7.4,5-19.8,0-19.8-9.9c0-7.4,7.4-14.9,14.9-12.4
		c-9.9-2.5-2.5-17.4,5-19.8c12.4-5,17.4,5,17.4,14.9c-2.5-7.4,5-17.4,12.4-14.9c9.9,0,12.4,14.9,7.4,19.8
		c17.4-17.4,27.3,27.3,2.5,17.4C210.8,336.6,183.5,354,176.1,339.1z M203.4,621.9c-54.6-5-71.9-101.7-79.4-141.4
		c-5-32.2-7.4-62-7.4-91.8c0-7.4,54.6-19.8,64.5-22.3c14.9,0,37.2-2.5,49.6,5c2.5,0,0,42.2,0,47.1c0,19.8-2.5,39.7,0,57
		c5,34.7,17.4,67,14.9,101.7C243.1,602,228.2,624.3,203.4,621.9z"/>
</g>
</svg>
