<?xml version="1.0" encoding="utf-8"?>
<!-- Generator: Adobe Illustrator 18.0.0, SVG Export Plug-In . SVG Version: 6.00 Build 0)  -->
<!DOCTYPE svg PUBLIC "-//W3C//DTD SVG 1.1//EN" "http://www.w3.org/Graphics/SVG/1.1/DTD/svg11.dtd">
<svg version="1.1" id="Capa_1" xmlns="http://www.w3.org/2000/svg" xmlns:xlink="http://www.w3.org/1999/xlink" x="0px" y="0px"
	 viewBox="0 0 595.3 841.9" enable-background="new 0 0 595.3 841.9" xml:space="preserve">
<g id="guia" display="none">
</g>
<g id="guia2">
</g>
<g id="Capa_3">
	<path fill="#FFFFFF" d="M310,460.6c49.6,2.5,153.8-7.4,183.5-12.4c14.9-2.5,37.2-9.9,32.2-32.2c-5-24.8-44.6-34.7-64.5-37.2
		c-27.3-5-52.1-14.9-79.4-14.9c9.9,24.8-9.9,34.7-29.8,37.2c-37.2,5-79.4-7.4-114.1-17.4C89.3,339.1,71.9,329.2,71.9,329.2l-5,12.4
		c0,0-17.4,79.4,0,99.2C114.1,440.8,265.4,458.2,310,460.6z M530.8,458.2c0-2.5-2.5-5-2.5-7.4c-5,9.9-19.8,12.4-29.8,14.9
		c-29.8,7.4-136.4,14.9-186,12.4c-47.1-2.5-200.9-19.8-248-19.8v5v24.8l0,0v24.8h131.5v-17.4c47.1,2.5,94.3,7.4,116.6,7.4
		c49.6,2.5,156.3-7.4,186-12.4C513.4,485.4,535.8,478,530.8,458.2z"/>
</g>
</svg>
