<?xml version="1.0" encoding="utf-8"?>
<!-- Generator: Adobe Illustrator 18.0.0, SVG Export Plug-In . SVG Version: 6.00 Build 0)  -->
<!DOCTYPE svg PUBLIC "-//W3C//DTD SVG 1.1//EN" "http://www.w3.org/Graphics/SVG/1.1/DTD/svg11.dtd">
<svg version="1.1" id="Capa_1" xmlns="http://www.w3.org/2000/svg" xmlns:xlink="http://www.w3.org/1999/xlink" x="0px" y="0px"
	 viewBox="0 0 595.3 841.9" enable-background="new 0 0 595.3 841.9" xml:space="preserve">
<g id="guia" display="none">
</g>
<g id="guia2">
</g>
<g id="Capa_3">
	<path fill="#FFFFFF" d="M411.7,287C411.7,287,409.3,287,411.7,287l-52.1-14.9l-5-29.8c0-2.5-2.5-5-5-5h-71.9c0,0-2.5,0-5,0l0,0
		h-17.4c-2.5,0-5,2.5-5,5l-7.4,29.8l-57,12.4h-2.5c0,0-114.1,94.3-121.5,245.6c0,2.5,0,5,2.5,5l34.7,22.3c2.5,2.5,5,0,7.4,0
		c2.5-2.5,52.1-49.6,81.9-114.1C186,490.4,191,559.8,225.7,602c0,2.5,2.5,2.5,5,2.5h133.9c2.5,0,2.5,0,5-2.5
		c7.4-7.4,12.4-17.4,17.4-29.8c0,0,2.5-2.5,2.5-5c17.4-39.7,19.8-89.3,17.4-126.5c29.8,64.5,79.4,111.6,84.3,116.6
		c2.5,2.5,5,2.5,7.4,0l34.7-22.3c2.5,0,2.5-2.5,2.5-5C525.8,381.3,414.2,287,411.7,287z M362.1,592.1h-129c-5-5-7.4-9.9-9.9-17.4
		h71.9c0-27.3,0-54.6,0-81.9c0-106.7,0-200.9-24.8-243.1c0-2.5,0,0,0-2.5h12.4l0,0H320l0,0h12.4c0,2.5,0,0,0,2.5
		c-17.4,29.8-22.3,84.3-24.8,151.3c0,19.8,0,42.2,0,64.5c0,7.4,0,17.4,0,24.8c0,27.3,0,54.6,0,81.9l0,0h64.5
		C369.6,582.2,367.1,587.1,362.1,592.1z"/>
</g>
</svg>
