<?xml version="1.0" encoding="utf-8"?>
<!-- Generator: Adobe Illustrator 18.0.0, SVG Export Plug-In . SVG Version: 6.00 Build 0)  -->
<!DOCTYPE svg PUBLIC "-//W3C//DTD SVG 1.1//EN" "http://www.w3.org/Graphics/SVG/1.1/DTD/svg11.dtd">
<svg version="1.1" id="Capa_1" xmlns="http://www.w3.org/2000/svg" xmlns:xlink="http://www.w3.org/1999/xlink" x="0px" y="0px"
	 viewBox="0 0 595.3 841.9" enable-background="new 0 0 595.3 841.9" xml:space="preserve">
<g id="guia" display="none">
</g>
<g id="guia2">
</g>
<g id="Capa_3">
	<path fill="#FFFFFF" d="M429.1,289.5c0-2.5-2.5-2.5-5-5c0,0-57-19.8-79.4-24.8v-2.5l-7.4-19.8c0-2.5-2.5-5-5-5s-5,0-7.4,2.5
		l-29.8,24.8l-29.8-24.8c-2.5-2.5-5-2.5-7.4-2.5s-5,2.5-5,5l-7.4,19.8c0,2.5,0,2.5,0,5c-22.3,5-76.9,24.8-76.9,24.8
		c-2.5,0-5,2.5-5,5c-2.5,5-91.8,208.3-101.7,243.1c0,2.5,0,7.4,2.5,7.4l34.7,22.3c2.5,0,2.5,2.5,5,0c2.5,0,2.5-2.5,5-2.5L191,416
		l-17.4,171.1c0,2.5,0,5,2.5,7.4c0,0,49.6,14.9,69.4,14.9c7.4,0,17.4,0,24.8-5c7.4-2.5,12.4-7.4,17.4-12.4V289.5
		c0-5,2.5-7.4,7.4-7.4s7.4,2.5,7.4,7.4v302.6c5,7.4,12.4,12.4,22.3,14.9c7.4,2.5,14.9,2.5,22.3,2.5c22.3,0,71.9-14.9,71.9-17.4
		c2.5,0,5-2.5,5-7.4L406.8,411l81.9,143.9c0,2.5,2.5,2.5,5,2.5s5,0,5,0l34.7-22.3c2.5-2.5,5-5,2.5-7.4
		C520.9,497.8,431.6,296.9,429.1,289.5z M272.8,282l-12.4-24.8l2.5-7.4l22.3,17.4L272.8,282z M315,282l-12.4-14.9l22.3-17.4l2.5,7.4
		L315,282z"/>
</g>
</svg>
