<?xml version="1.0" encoding="utf-8"?>
<!-- Generator: Adobe Illustrator 18.0.0, SVG Export Plug-In . SVG Version: 6.00 Build 0)  -->
<!DOCTYPE svg PUBLIC "-//W3C//DTD SVG 1.1//EN" "http://www.w3.org/Graphics/SVG/1.1/DTD/svg11.dtd">
<svg version="1.1" id="Capa_1" xmlns="http://www.w3.org/2000/svg" xmlns:xlink="http://www.w3.org/1999/xlink" x="0px" y="0px"
	 viewBox="0 0 595.3 841.9" enable-background="new 0 0 595.3 841.9" xml:space="preserve">
<g id="guia" display="none">
</g>
<g id="guia2">
</g>
<path fill="#FFFFFF" d="M501,473c0-5,0-7.4-2.5-12.4c0-14.9-2.5-27.3-2.5-37.2c-14.9-119.1-14.9-124-17.4-133.9c0-2.5-2.5-5-2.5-7.4
	c0,0,0,0,0-2.5c0-2.5-2.5-2.5-2.5-5c0,0,0,0,0-2.5c0-2.5-2.5-2.5-2.5-2.5l0,0l0,0l0,0l-7.4-22.3c-2.5-7.4-7.4-12.4-14.9-12.4
	c0,0,0,0-2.5,0l0,0H444c-44.6,7.4-91.8,12.4-138.9,12.4s-94.3-5-138.9-12.4h-2.5l0,0h-2.5c-7.4,0-14.9,5-14.9,12.4L129,269.6l0,0
	l0,0l0,0c-2.5,2.5-2.5,2.5-5,5c0,0,0,0,0,2.5c0,2.5-2.5,2.5-2.5,5c0,0,0,0,0,2.5c0,2.5-2.5,5-2.5,7.4c-5,7.4-5,12.4-19.8,131.5
	c-2.5,12.4-2.5,24.8-5,37.2c0,5,0,7.4-2.5,12.4c-5,42.2-9.9,79.4-12.4,96.7c0,2.5,2.5,5,5,7.4L258,609.5l0,0l0,0h2.5l0,0l2.5-2.5
	l27.3-96.7c0-2.5,2.5-2.5,2.5-5c0,0,2.5,2.5,2.5,5l27.3,96.7c0,2.5,0,2.5,2.5,2.5l0,0h2.5l0,0l0,0L501,577.2c2.5,0,5-2.5,5-7.4
	C510.9,549.9,506,515.2,501,473z M131.5,284.5l2.5-2.5c0,0,0,0,2.5,0c0,0,0,0,2.5-2.5c0,0,0,0,2.5,0l0,0c12.4,2.5,27.3,5,39.7,7.4
	c0,2.5,0,5,0,5c0,19.8-12.4,34.7-27.3,34.7H129c0-2.5,0-2.5,0-5l0,0c2.5-14.9,5-24.8,5-29.8C129,289.5,131.5,287,131.5,284.5
	L131.5,284.5z M292.7,468.1V279.6c-5,0-9.9,0-17.4,0c-7.4,0-17.4,0-24.8,0c-2.5,0-7.4,0-9.9,0c-9.9,0-19.8-2.5-29.8-2.5
	c-2.5,0-5,0-7.4,0l-5-2.5l0,0c-2.5,0-2.5,0-2.5,0s-2.5,0,0,0c0,0-2.5,0-5,0l0,0c-17.4-5-32.2-7.4-47.1-9.9l7.4-17.4
	c0-2.5,2.5-2.5,2.5-2.5c47.1,7.4,94.3,12.4,141.4,12.4s96.7-5,141.4-12.4c2.5,0,2.5,2.5,2.5,2.5l7.4,17.4c-9.9,2.5-24.8,5-39.7,7.4
	l0,0c-2.5,0-5,0-5,0l0,0c-2.5,0,0,0-2.5,0l0,0h-5c-2.5,0-5,0-7.4,0c-9.9,0-19.8,2.5-29.8,2.5c-2.5,0-7.4,0-9.9,0
	c-7.4,0-17.4,0-24.8,0c-5,0-9.9,0-17.4,0v188.5c0,2.5-2.5,2.5-5,2.5C295.2,470.6,292.7,470.6,292.7,468.1z M463.8,284.5
	c0,2.5,2.5,2.5,2.5,5c0,5,2.5,14.9,5,29.8l0,0c0,2.5,0,2.5,0,5h-24.8c-14.9,0-27.3-14.9-27.3-34.7c0-2.5,0-5,0-5
	c12.4-2.5,27.3-5,39.7-7.4l0,0c0,0,0,0,2.5,0c0,0,0,0,2.5,2.5l0,0C461.3,282,461.3,282,463.8,284.5L463.8,284.5z"/>
</svg>
