<?xml version="1.0" encoding="utf-8"?>
<!-- Generator: Adobe Illustrator 18.0.0, SVG Export Plug-In . SVG Version: 6.00 Build 0)  -->
<!DOCTYPE svg PUBLIC "-//W3C//DTD SVG 1.1//EN" "http://www.w3.org/Graphics/SVG/1.1/DTD/svg11.dtd">
<svg version="1.1" id="Capa_1" xmlns="http://www.w3.org/2000/svg" xmlns:xlink="http://www.w3.org/1999/xlink" x="0px" y="0px"
	 viewBox="0 0 595.3 841.9" enable-background="new 0 0 595.3 841.9" xml:space="preserve">
<g id="guia" display="none">
</g>
<g id="guia2">
</g>
<g id="Capa_3">
	<g id="Capa_3_1_">
		<g id="hot_dog">
			<path fill="#FFFFFF" d="M121.5,396.1c5,0,9.9,2.5,12.4,2.5c2.5-2.5,2.5-7.4,5-12.4c0,0,0-2.5,2.5-2.5c-2.5-7.4-2.5-14.9,0-19.8
				c9.9-17.4,42.2-24.8,71.9-34.7c14.9-2.5,32.2-7.4,44.6-12.4s27.3-12.4,42.2-22.3c27.3-14.9,57-34.7,76.9-27.3
				c5,2.5,9.9,7.4,14.9,14.9c7.4,0,12.4,2.5,14.9,2.5c2.5-5,5-9.9,9.9-12.4c2.5-2.5,5-5,7.4-7.4c-7.4-14.9-19.8-24.8-32.2-29.8
				c-34.7-14.9-74.4,7.4-109.1,29.8c-12.4,7.4-24.8,14.9-37.2,19.8c-9.9,5-24.8,7.4-39.7,12.4c-39.7,7.4-81.9,19.8-96.7,52.1
				c-7.4,14.9-7.4,29.8-2.5,49.6C111.6,396.1,116.6,396.1,121.5,396.1z"/>
			<path fill="#FFFFFF" d="M369.6,587.1c-99.2,42.2-173.6,32.2-195.9-19.8c-7.4-19.8-14.9-57,34.7-76.9c17.4-7.4,37.2-12.4,57-14.9
				c17.4-5,37.2-7.4,49.6-12.4s29.8-17.4,44.6-27.3c17.4-12.4,34.7-22.3,52.1-29.8c49.6-19.8,71.9,9.9,79.4,29.8
				C515.9,485.4,468.8,545,369.6,587.1z M223.2,522.6c-19.8,7.4-19.8,14.9-14.9,27.3c12.4,32.2,71.9,32.2,146.3,0
				c74.4-29.8,114.1-71.9,101.7-104.2c-5-12.4-9.9-17.4-29.8-9.9c-12.4,5-29.8,17.4-44.6,27.3c-17.4,12.4-34.7,22.3-52.1,29.8
				s-37.2,12.4-57,14.9C255.5,512.7,238.1,517.7,223.2,522.6z"/>
			<path fill="#FFFFFF" d="M513.4,349c2.5-27.3-14.9-52.1-39.7-59.5c0-2.5,0-5,0-7.4c-5-9.9-14.9-14.9-24.8-12.4
				c-7.4,2.5-14.9,7.4-19.8,12.4c-7.4,9.9-9.9,14.9-12.4,19.8s-2.5,5-5,5l0,0h-2.5l0,0l0,0l0,0l0,0c-2.5,0,0,0-12.4-5
				c-5-2.5-14.9-5-24.8-2.5c-12.4,2.5-14.9,2.5-24.8,7.4c-7.4,5-14.9,12.4-19.8,19.8c-5,7.4-5,12.4-7.4,14.9c0,0,0,0,0,2.5l0,0l0,0
				l0,0l-9.9-2.5c-7.4-2.5-17.4-2.5-27.3-2.5c-2.5,0-5,0-7.4,2.5h-2.5c-5,2.5-9.9,2.5-12.4,7.4c-9.9,7.4-17.4,14.9-19.8,22.3
				s-5,9.9-5,12.4c-2.5,0-2.5-2.5-5-2.5c-5-2.5-12.4-7.4-22.3-7.4c-5,0-9.9,0-17.4,0c-2.5,0-5,0-5,0h-2.5h-2.5h-2.5l0,0h-2.5
				c-7.4,5-17.4,12.4-22.3,19.8c-2.5,12.4-5,17.4-5,22.3c-2.5,5-2.5,5-2.5,5l0,0c0,0,2.5,0,0,0l0,0c-2.5,0-5,0-7.4,0
				c-5-2.5-9.9-5-19.8-5c-5,0-7.4,0-12.4,0c-2.5,0-5,2.5-7.4,2.5l-5,2.5l0,0c-7.4,5-12.4,12.4-12.4,22.3c0,2.5,2.5,5,5,7.4
				c-12.4,22.3-7.4,52.1,12.4,71.9c9.9,9.9,24.8,17.4,49.6,19.8c0-32.2,17.4-57,54.6-71.9c17.4-7.4,39.7-12.4,62-17.4
				c17.4-2.5,34.7-7.4,47.1-12.4s27.3-14.9,42.2-24.8c17.4-12.4,37.2-24.8,54.6-32.2c34.7-14.9,67-9.9,86.8,12.4
				C508.5,378.8,513.4,363.9,513.4,349z M322.4,344.1L322.4,344.1C322.4,344.1,324.9,344.1,322.4,344.1z M322.4,346.5L322.4,346.5
				C320,346.5,320,346.5,322.4,346.5z M320,346.5L320,346.5L320,346.5L320,346.5L320,346.5z M456.4,296.9L456.4,296.9
				c-7.4,2.5-9.9,7.4-14.9,17.4c-2.5,5-5,9.9-9.9,14.9c-2.5,2.5-5,5-7.4,5c-2.5,0-2.5,0-2.5,2.5l0,0l0,0l0,0h-2.5
				c-5,2.5-12.4,2.5-17.4,2.5c-5,0-9.9-2.5-14.9-5c-7.4-2.5-12.4-2.5-19.8,2.5c-5,2.5-7.4,9.9-9.9,19.8c-2.5,5-5,9.9-9.9,14.9
				c-2.5,2.5-5,5-7.4,5s-2.5,0-5,2.5l-5,2.5c-5,2.5-12.4,2.5-17.4,0c-5,0-9.9-2.5-14.9-5c-5,0-7.4-2.5-9.9,0h-2.5h-2.5
				c0,0-2.5,2.5-5,2.5c-5,2.5-7.4,9.9-9.9,19.8c-2.5,5-5,9.9-9.9,14.9c-2.5,2.5-5,5-7.4,5c-2.5,2.5-5,2.5-9.9,2.5
				c-7.4,2.5-14.9,0-19.8-2.5s-9.9-5-12.4-7.4c-5-2.5-7.4-2.5-9.9-5c-2.5,0-2.5,0-2.5,0l-5,2.5c-5,2.5-7.4,7.4-12.4,17.4
				c-2.5,5-2.5,9.9-7.4,14.9c-5,5-9.9,9.9-14.9,9.9c-5,2.5-12.4,2.5-17.4,2.5s-9.9-5-14.9-5c-9.9-5-12.4-7.4-22.3-2.5
				c-2.5,0-5,0-7.4-5c0-2.5,0-7.4,2.5-7.4l0,0c2.5-2.5,12.4-2.5,17.4-2.5c5,0,9.9,2.5,14.9,5c9.9,5,14.9,5,19.8,2.5
				c5-2.5,5-2.5,7.4-5c2.5-2.5,2.5-5,5-9.9s2.5-9.9,7.4-14.9c5-7.4,9.9-12.4,17.4-14.9c5-2.5,5-2.5,7.4-2.5c5,0,7.4,0,9.9,0
				c7.4,0,12.4,5,14.9,5c9.9,5,14.9,7.4,19.8,7.4c2.5,0,2.5,0,5-2.5c2.5-2.5,2.5-2.5,5-2.5c2.5-2.5,2.5-5,5-7.4
				c2.5-7.4,5-19.8,17.4-27.3c2.5-2.5,5-2.5,7.4-5h2.5h5c7.4,0,12.4,0,17.4,2.5c9.9,2.5,14.9,5,22.3,2.5c2.5,0,7.4-2.5,7.4-5
				c2.5-2.5,2.5-5,5-9.9c2.5-5,2.5-9.9,5-14.9c5-2.5,9.9-7.4,14.9-12.4c5-2.5,9.9-5,17.4-5c5,0,12.4,0,17.4,2.5
				c9.9,2.5,14.9,5,22.3,2.5h2.5l0,0l0,0c0,0,2.5,0,2.5-2.5c0,0,2.5-2.5,5-2.5c2.5-2.5,5-5,7.4-9.9c2.5-5,5-9.9,7.4-12.4
				c5-5,9.9-7.4,14.9-9.9c2.5-2.5,7.4,0,9.9,5C461.3,292,461.3,296.9,456.4,296.9z"/>
		</g>
	</g>
</g>
</svg>
