<?xml version="1.0" encoding="utf-8"?>
<!-- Generator: Adobe Illustrator 18.0.0, SVG Export Plug-In . SVG Version: 6.00 Build 0)  -->
<!DOCTYPE svg PUBLIC "-//W3C//DTD SVG 1.1//EN" "http://www.w3.org/Graphics/SVG/1.1/DTD/svg11.dtd">
<svg version="1.1" id="Capa_1" xmlns="http://www.w3.org/2000/svg" xmlns:xlink="http://www.w3.org/1999/xlink" x="0px" y="0px"
	 viewBox="0 0 595.3 841.9" enable-background="new 0 0 595.3 841.9" xml:space="preserve">
<g id="guia" display="none">
</g>
<g id="guia2">
</g>
<g id="Capa_3">
	<path fill="#FFFFFF" d="M406.8,435.8c-17.4-24.8-29.8-44.6,0-99.2c47.1-84.3,29.8-119.1,27.3-124c0-2.5-2.5-2.5-5-5
		c-9.9-2.5-19.8-5-29.8-5c-44.6,0-76.9,22.3-89.3,34.7c-12.4-9.9-44.6-32.2-86.8-32.2c-9.9,0-19.8,2.5-29.8,5c-2.5,0-5,2.5-5,5
		c-2.5,5-19.8,39.7,27.3,124c29.8,54.6,14.9,71.9-2.5,99.2c-7.4,9.9-14.9,22.3-19.8,37.2c-14.9,47.1-14.9,64.5-14.9,67
		c0,5,5,7.4,7.4,7.4l0,0l0,0c9.9,0,86.8,2.5,91.8,84.3c0,5,5,7.4,7.4,7.4h44.6c2.5,0,5,0,5-2.5c2.5-2.5,2.5-2.5,2.5-5
		c0-22.3,5-39.7,17.4-52.1c27.3-29.8,76.9-29.8,76.9-29.8c5,0,7.4-2.5,7.4-7.4c0-2.5,0-19.8-14.9-67
		C421.7,455.7,414.2,445.7,406.8,435.8z M223.2,220c49.6,0,81.9,32.2,81.9,34.7l0,0c2.5,2.5,7.4,2.5,9.9,0l0,0
		c2.5-2.5,34.7-34.7,81.9-34.7c7.4,0,14.9,0,22.3,2.5c0,2.5,0,5,2.5,7.4c-67,5-99.2,34.7-114.1,49.6C272.8,230,213.3,230,193.5,230
		c5-2.5,5-5,7.4-7.4C208.3,222.5,215.8,220,223.2,220z"/>
</g>
</svg>
