<?xml version="1.0" encoding="utf-8"?>
<!-- Generator: Adobe Illustrator 18.0.0, SVG Export Plug-In . SVG Version: 6.00 Build 0)  -->
<!DOCTYPE svg PUBLIC "-//W3C//DTD SVG 1.1//EN" "http://www.w3.org/Graphics/SVG/1.1/DTD/svg11.dtd">
<svg version="1.1" id="Capa_1" xmlns="http://www.w3.org/2000/svg" xmlns:xlink="http://www.w3.org/1999/xlink" x="0px" y="0px"
	 viewBox="0 0 595.3 841.9" enable-background="new 0 0 595.3 841.9" xml:space="preserve">
<g id="guia" display="none">
</g>
<g id="guia2">
</g>
<g id="Capa_3">
	<path fill="#FFFFFF" d="M426.6,373.8H382v-17.4c0-2.5-2.5-7.4-7.4-7.4H220.7c-2.5,0-7.4,2.5-7.4,7.4v19.8H69.4
		c-2.5,0-7.4,2.5-7.4,7.4v76.9c0,2.5,2.5,7.4,7.4,7.4h146.3v19.8c0,2.5,2.5,7.4,7.4,7.4H377c2.5,0,7.4-2.5,7.4-7.4v-17.4h34.7h9.9
		h96.7h9.9v-94.3H426.6V373.8z M141.4,428.4h-9.9c-2.5,0-7.4-2.5-7.4-7.4s2.5-7.4,7.4-7.4h7.4c2.5,0,7.4,2.5,7.4,7.4
		S143.9,428.4,141.4,428.4z M186,428.4h-9.9c-2.5,0-7.4-2.5-7.4-7.4s2.5-7.4,7.4-7.4h7.4c2.5,0,7.4,2.5,7.4,7.4
		S188.5,428.4,186,428.4z M369.6,373.8H253v39.7h37.2c2.5,0,7.4,2.5,7.4,7.4s-2.5,7.4-7.4,7.4H253v39.7h116.6v9.9H228.2v-19.8v-32.2
		h-7.4c-2.5,0-7.4-2.5-7.4-7.4s2.5-7.4,7.4-7.4h7.4v-32.2v-14.9h141.4V373.8z M342.3,420.9c0,2.5-2.5,7.4-7.4,7.4h-7.4
		c-2.5,0-7.4-2.5-7.4-7.4s2.5-7.4,7.4-7.4h7.4C339.8,413.5,342.3,418.5,342.3,420.9z"/>
</g>
</svg>
