<?xml version="1.0" encoding="utf-8"?>
<!-- Generator: Adobe Illustrator 18.0.0, SVG Export Plug-In . SVG Version: 6.00 Build 0)  -->
<!DOCTYPE svg PUBLIC "-//W3C//DTD SVG 1.1//EN" "http://www.w3.org/Graphics/SVG/1.1/DTD/svg11.dtd">
<svg version="1.1" id="Capa_1" xmlns="http://www.w3.org/2000/svg" xmlns:xlink="http://www.w3.org/1999/xlink" x="0px" y="0px"
	 viewBox="0 0 595.3 841.9" enable-background="new 0 0 595.3 841.9" xml:space="preserve">
<g id="guia" display="none">
</g>
<g id="guia2">
</g>
<g id="Capa_3">
	<g>
		<path fill="#FFFFFF" d="M377,326.7V205.2H220.7v121.5c-29.8,22.3-47.1,54.6-47.1,94.3s17.4,71.9,44.6,96.7v121.5h156.3V517.7
			c27.3-22.3,44.6-57,44.6-94.3S404.3,349,377,326.7z M297.6,515.2c-52.1,0-94.3-42.2-94.3-94.3s42.2-94.3,94.3-94.3
			s94.3,42.2,94.3,94.3S349.7,515.2,297.6,515.2z"/>
		<path fill="#FFFFFF" d="M315,423.4c0-2.5-2.5-7.4-2.5-9.9l29.8-44.6l-7.4-5l-29.8,44.6c-2.5,0-2.5,0-5,0
			c-9.9,0-17.4,7.4-17.4,17.4s7.4,17.4,17.4,17.4c2.5,0,5,0,7.4-2.5l29.8,22.3l5-7.4l-29.8-19.8C312.5,425.9,315,423.4,315,423.4z"
			/>
	</g>
</g>
</svg>
