<?xml version="1.0" encoding="utf-8"?>
<!-- Generator: Adobe Illustrator 18.0.0, SVG Export Plug-In . SVG Version: 6.00 Build 0)  -->
<!DOCTYPE svg PUBLIC "-//W3C//DTD SVG 1.1//EN" "http://www.w3.org/Graphics/SVG/1.1/DTD/svg11.dtd">
<svg version="1.1" id="Capa_1" xmlns="http://www.w3.org/2000/svg" xmlns:xlink="http://www.w3.org/1999/xlink" x="0px" y="0px"
	 viewBox="0 0 595.3 841.9" enable-background="new 0 0 595.3 841.9" xml:space="preserve">
<g id="guia" display="none">
</g>
<g id="guia2">
</g>
<g id="Capa_3">
	<g>
		<path fill="#FFFFFF" d="M238.1,277.1H315l9.9-29.8c0-2.5,0-2.5,0-5L310,207.6c0-2.5-2.5-2.5-5-2.5h-57c-2.5,0-5,2.5-5,2.5
			l-14.9,34.7c0,2.5,0,2.5,0,5L238.1,277.1z"/>
		<path fill="#FFFFFF" d="M384.5,381.3l-71.9-91.8l0,0h-71.9l-29.8,285.2c0,2.5,0,5,2.5,5l59.5,57c0,0,2.5,2.5,5,2.5
			c2.5,0,2.5,0,5-2.5l59.5-57c2.5-2.5,2.5-2.5,2.5-5l-17.4-173.6l12.4,17.4c0,2.5,2.5,2.5,5,2.5l32.2,2.5l0,0c2.5,0,5-2.5,5-5
			l5-32.2C384.5,383.7,384.5,383.7,384.5,381.3z M369.6,411h-24.8l-22.3-27.3l-2.5-2.5l-7.4-71.9l59.5,76.9L369.6,411z"/>
	</g>
</g>
</svg>
