<?xml version="1.0" encoding="utf-8"?>
<!-- Generator: Adobe Illustrator 18.0.0, SVG Export Plug-In . SVG Version: 6.00 Build 0)  -->
<!DOCTYPE svg PUBLIC "-//W3C//DTD SVG 1.1//EN" "http://www.w3.org/Graphics/SVG/1.1/DTD/svg11.dtd">
<svg version="1.1" id="Capa_1" xmlns="http://www.w3.org/2000/svg" xmlns:xlink="http://www.w3.org/1999/xlink" x="0px" y="0px"
	 viewBox="0 0 595.3 841.9" enable-background="new 0 0 595.3 841.9" xml:space="preserve">
<g id="guia" display="none">
</g>
<g id="guia2">
</g>
<g id="Capa_3">
	<path fill="#FFFFFF" d="M414.2,425.9c0,5-5,9.9-12.4,9.9H183.5c-7.4,0-12.4-5-12.4-9.9v-7.4c0-5,5-9.9,12.4-9.9h218.3
		c7.4,0,12.4,5,12.4,9.9V425.9z"/>
	<path fill="#FFFFFF" d="M530.8,535c-7.4-12.4-27.3-39.7-44.6-67c-17.4-24.8-34.7-49.6-39.7-57c-19.8-32.2-39.7-39.7-69.4-47.1
		c-5-2.5-14.9-7.4-14.9-12.4c0,0,0-2.5,2.5-5c14.9-12.4,19.8-27.3,19.8-39.7c0-14.9-9.9-27.3-29.8-42.2
		c-19.8-17.4-37.2-29.8-47.1-39.7c-2.5-2.5-5-5-9.9-5s-7.4,2.5-9.9,5c-9.9,9.9-27.3,24.8-47.1,39.7c-19.8,14.9-29.8,29.8-29.8,42.2
		s5,24.8,19.8,39.7c2.5,2.5,2.5,5,2.5,5c0,5-9.9,9.9-14.9,12.4c-32.2,9.9-52.1,14.9-69.4,47.1c-5,7.4-22.3,32.2-39.7,57
		c-19.8,27.3-39.7,57-44.6,67c-2.5,5-2.5,12.4,5,17.4c9.9,5,14.9,9.9,19.8,12.4c5,2.5,9.9,7.4,19.8,12.4c2.5,0,5,2.5,5,2.5
		c5,0,7.4-2.5,9.9-5c5-7.4,19.8-27.3,34.7-49.6c12.4-14.9,22.3-29.8,29.8-39.7l14.9,133.9v2.5h2.5h183.5h2.5v-2.5L406.8,483
		c7.4,9.9,17.4,24.8,29.8,39.7c14.9,19.8,29.8,42.2,34.7,49.6c2.5,2.5,5,5,9.9,5c2.5,0,5,0,5-2.5c9.9-5,14.9-9.9,19.8-12.4
		c5-2.5,9.9-7.4,19.8-12.4C533.3,547.4,535.8,542.5,530.8,535z M193.5,478C191,478,191,478,193.5,478c-2.5,2.5-2.5,0-2.5,0
		c-2.5,0-2.5-2.5-2.5-2.5c32.2-62-7.4-94.3-7.4-94.3v-2.5h2.5C183.5,378.8,225.7,411,193.5,478z M386.9,616.9H208.3v-7.4h76.9h9.9
		h2.5V381.3l0,0c-2.5-2.5-7.4-5-12.4-7.4c-22.3-14.9-52.1-32.2-57-57c-2.5-7.4,0-14.9,5-19.8c9.9-17.4,39.7-32.2,64.5-32.2
		c24.8,0,54.6,12.4,64.5,29.8c5,5,7.4,12.4,5,22.3c-5,24.8-34.7,44.6-57,57c-2.5,2.5-5,5-7.4,5l-2.5,2.5v228.2h86.8L386.9,616.9z
		 M416.7,381.3c0,0-42.2,32.2-9.9,94.3c0,0,0,2.5-2.5,2.5l0,0c0,0-2.5,0-2.5-2.5c-34.7-64.5,9.9-99.2,9.9-99.2h2.5L416.7,381.3z"/>
</g>
</svg>
