<?xml version="1.0" encoding="utf-8"?>
<!-- Generator: Adobe Illustrator 18.0.0, SVG Export Plug-In . SVG Version: 6.00 Build 0)  -->
<!DOCTYPE svg PUBLIC "-//W3C//DTD SVG 1.1//EN" "http://www.w3.org/Graphics/SVG/1.1/DTD/svg11.dtd">
<svg version="1.1" id="Capa_1" xmlns="http://www.w3.org/2000/svg" xmlns:xlink="http://www.w3.org/1999/xlink" x="0px" y="0px"
	 viewBox="0 0 595.3 841.9" enable-background="new 0 0 595.3 841.9" xml:space="preserve">
<g id="guia" display="none">
</g>
<g id="guia2">
</g>
<g id="Capa_3">
	<polygon fill="#FFFFFF" points="513.4,388.7 513.4,388.7 513.4,391.2 	"/>
	<g>
		<path fill="#FFFFFF" d="M129,356.5c0,0,0,24.8,29.8,12.4c0,0,9.9-2.5,19.8-9.9v-5c-32.2,24.8-42.2,0-42.2,0
			c-5-24.8-14.9-24.8-14.9-24.8S126.5,329.2,129,356.5z"/>
		<path fill="#FFFFFF" d="M62,502.8c5,0,14.9,0,32.2,5c9.9,2.5,19.8,2.5,34.7,7.4l146.3,5l29.8-12.4l19.8,12.4l29.8-7.4l14.9,5
			l19.8-7.4l14.9,2.5l17.4-7.4h12.4l14.9-9.9l7.4,2.5l9.9-2.5c0,0,12.4-9.9,14.9-7.4c2.5,2.5,27.3-14.9,27.3-14.9l2.5-34.7v-2.5
			c0,0,0-9.9-14.9-17.4l-84.3-12.4c0-5-12.4-7.4-12.4-7.4c-2.5-14.9-12.4-12.4-12.4-12.4c-5-7.4-19.8-5-19.8-5c-5-2.5-5-5-5-5
			c-7.4-14.9-22.3-12.4-22.3-12.4c-9.9,0-14.9-7.4-14.9-7.4c-5-22.3-22.3-9.9-22.3-9.9c-7.4,0-14.9,0-14.9,0
			c0-12.4-24.8-17.4-24.8-17.4l-39.7-29.8c-32.2,14.9-27.3,52.1-27.3,52.1c-5,5-12.4,9.9-17.4,12.4c-12.4,9.9-24.8,12.4-24.8,12.4
			c-34.7,14.9-34.7-12.4-34.7-12.4c0-32.2-7.4-32.2-7.4-32.2l0,0c-24.8,5-29.8,52.1-29.8,52.1c-9.9,14.9-9.9,71.9-9.9,71.9
			s0,0,0,2.5l0,0C69.4,458.2,52.1,492.9,62,502.8L62,502.8z"/>
		<path fill="#FFFFFF" d="M530.8,463.1c0-14.9-12.4-14.9-12.4-14.9v2.5v2.5l-2.5,34.7c0,0-24.8,17.4-27.3,14.9
			c-2.5-2.5-14.9,7.4-14.9,7.4l-9.9,2.5l-7.4-2.5l-14.9,9.9h-12.4l-17.4,7.4l-14.9-7.4l-19.8,7.4l-14.9-5l-29.8,7.4l-22.3-9.9
			l-29.8,12.4l-146.3-5c-12.4-5-22.3-7.4-32.2-7.4l-2.5-2.5l0,0c-14.9-5-24.8-5-29.8-5c-9.9,0-9.9,7.4-9.9,7.4
			c2.5,17.4,19.8,19.8,32.2,22.3l0,0h5h322.4C419.2,542.5,540.7,547.4,530.8,463.1z"/>
	</g>
</g>
</svg>
