<?xml version="1.0" encoding="utf-8"?>
<!-- Generator: Adobe Illustrator 18.0.0, SVG Export Plug-In . SVG Version: 6.00 Build 0)  -->
<!DOCTYPE svg PUBLIC "-//W3C//DTD SVG 1.1//EN" "http://www.w3.org/Graphics/SVG/1.1/DTD/svg11.dtd">
<svg version="1.1" id="Capa_1" xmlns="http://www.w3.org/2000/svg" xmlns:xlink="http://www.w3.org/1999/xlink" x="0px" y="0px"
	 viewBox="0 0 595.3 841.9" enable-background="new 0 0 595.3 841.9" xml:space="preserve">
<g id="guia" display="none">
</g>
<g id="guia2">
</g>
<g id="Capa_3">
	<g>
		<path fill="#FFFFFF" d="M523.4,435.8c2.5,7.4,2.5,14.9,0,27.3c0,0-124,42.2-250.5,9.9c0,0-111.6-22.3-138.9-14.9
			c0,0-52.1,7.4-67-9.9c0,0-12.4,17.4-2.5,22.3c0,0-7.4,7.4-5,34.7l34.7,9.9h9.9l5,2.5h17.4h5h5h17.4h5v-5l5,5H186l5-5l2.5,5h17.4
			l5-5c0,0,5-12.4,12.4,0l7.4,7.4h19.8l2.5-7.4l9.9,2.5v5h24.8l5,5l22.3-5l2.5,5h32.2l7.4-5l5,2.5l34.7-2.5l5-9.9l7.4,7.4l27.3-7.4
			v-5l5,2.5l5-5l5,5l14.9-5l2.5-7.4l9.9-2.5l5,2.5c0,0,37.2-17.4,42.2-27.3C530.8,468.1,535.8,435.8,523.4,435.8z"/>
		<path fill="#FFFFFF" d="M129,450.7c27.3-7.4,138.9,14.9,138.9,14.9c126.5,32.2,248-9.9,248-9.9c2.5-12.4,2.5-19.8,0-27.3
			c-5-14.9-19.8-19.8-19.8-19.8c-74.4-2.5-124-24.8-124-24.8c-9.9-2.5-49.6-22.3-81.9-37.2l5-5l-29.8-19.8l-7.4,9.9
			c-5-2.5-7.4-5-7.4-5c-7.4-9.9-19.8-2.5-19.8-2.5l-9.9-2.5c-9.9-12.4-12.4,12.4-12.4,12.4c-2.5,12.4-24.8,24.8-24.8,24.8
			c-39.7,19.8-52.1-5-52.1-5c-12.4-27.3-24.8-24.8-24.8-24.8c-29.8-14.9-27.3,14.9-27.3,22.3c-2.5,5-7.4,17.4-7.4,17.4
			c-7.4,5-7.4,54.6-7.4,54.6c-2.5,7.4-2.5,12.4,0,17.4C76.9,458.2,129,450.7,129,450.7z M270.4,329.2l14.9,9.9l-44.6,62l-14.9-9.9
			L270.4,329.2z"/>
	</g>
	<path fill="#FFFFFF" d="M515.9,259.7L515.9,259.7L515.9,259.7z"/>
	<path fill="#FFFFFF" d="M515.9,259.7L515.9,259.7L515.9,259.7z"/>
	<path fill="#FFFFFF" d="M515.9,259.7L515.9,259.7L515.9,259.7z"/>
	<path fill="#FFFFFF" d="M515.9,259.7L515.9,259.7L515.9,259.7z"/>
	<path fill="#FFFFFF" d="M515.9,259.7L515.9,259.7L515.9,259.7z"/>
	<path fill="#FFFFFF" d="M515.9,259.7L515.9,259.7L515.9,259.7z"/>
	<path fill="#FFFFFF" d="M515.9,259.7L515.9,259.7C515.9,259.7,515.9,262.2,515.9,259.7C515.9,262.2,515.9,262.2,515.9,259.7
		C515.9,262.2,515.9,262.2,515.9,259.7z"/>
	<path fill="#FFFFFF" d="M515.9,259.7L515.9,259.7L515.9,259.7z"/>
	<path fill="#FFFFFF" d="M515.9,259.7L515.9,259.7L515.9,259.7z"/>
</g>
</svg>
