<?xml version="1.0" encoding="utf-8"?>
<!-- Generator: Adobe Illustrator 18.0.0, SVG Export Plug-In . SVG Version: 6.00 Build 0)  -->
<!DOCTYPE svg PUBLIC "-//W3C//DTD SVG 1.1//EN" "http://www.w3.org/Graphics/SVG/1.1/DTD/svg11.dtd">
<svg version="1.1" id="Capa_1" xmlns="http://www.w3.org/2000/svg" xmlns:xlink="http://www.w3.org/1999/xlink" x="0px" y="0px"
	 viewBox="0 0 595.3 841.9" enable-background="new 0 0 595.3 841.9" xml:space="preserve">
<g id="guia" display="none">
</g>
<g id="guia2">
</g>
<g id="Capa_3">
	<polygon fill="#FFFFFF" points="513.4,388.7 513.4,388.7 513.4,391.2 	"/>
	<path fill="#FFFFFF" d="M448.9,450.7c-7.4,0-17.4,0-24.8,0c-39.7,2.5-76.9,9.9-114.1,19.8c-24.8,5-54.6,12.4-84.3,12.4l0,0
		c-29.8,0-59.5-7.4-81.9-29.8c-9.9-9.9-22.3-24.8-27.3-42.2c-19.8,5-37.2,12.4-49.6,29.8c-17.4,22.3,17.4,39.7,32.2,47.1
		c2.5,2.5,5,2.5,7.4,2.5l0,0v24.8c0,9.9,7.4,17.4,17.4,17.4s17.4-7.4,17.4-17.4v-14.9c9.9,2.5,19.8,5,29.8,7.4v14.9
		c0,9.9,7.4,17.4,17.4,17.4c9.9,0,17.4-7.4,17.4-17.4v-9.9c7.4,0,14.9,0,24.8,0c5,0,9.9,0,14.9,0v9.9c0,9.9,7.4,17.4,17.4,17.4
		s17.4-7.4,17.4-17.4v-9.9c9.9,0,19.8-2.5,29.8-5v14.9c0,9.9,7.4,17.4,17.4,17.4s17.4-7.4,17.4-17.4v-22.3c22.3-5,44.6-7.4,69.4-5
		v22.3c0,9.9,7.4,17.4,17.4,17.4c9.9,0,17.4-7.4,17.4-17.4v-17.4c9.9,2.5,19.8,2.5,29.8,5v19.8c0,9.9,7.4,17.4,17.4,17.4
		c9.9,0,17.4-7.4,17.4-17.4v-17.4c0,0,0,0,2.5,0c17.4-9.9,27.3-27.3,29.8-47.1C503.5,453.2,476.2,450.7,448.9,450.7z M223.2,468.1
		c27.3,0,54.6-5,81.9-12.4c47.1-9.9,81.9-17.4,116.6-19.8c7.4,0,17.4,0,27.3,0c19.8,0,39.7,2.5,62,5c7.4,0,12.4,0,14.9,0
		c-5-44.6-12.4-99.2-32.2-129c-14.9-22.3-32.2-7.4-47.1,5c-17.4,14.9-42.2,19.8-64.5,19.8c-12.4,0-37.2-9.9-47.1-2.5
		c12.4-9.9,5-22.3-9.9-17.4c-19.8,7.4-39.7,22.3-57,32.2c-39.7,22.3-79.4,57-124,64.5c-5,0-9.9,2.5-14.9,2.5
		c5,12.4,14.9,22.3,19.8,27.3C168.7,460.6,191,468.1,223.2,468.1z M307.6,346.5c9.9,0,17.4,7.4,17.4,17.4s-7.4,17.4-17.4,17.4
		s-17.4-7.4-17.4-17.4C292.7,354,300.1,346.5,307.6,346.5z M262.9,376.3c9.9,0,17.4,7.4,17.4,17.4s-7.4,17.4-17.4,17.4
		c-9.9,0-17.4-7.4-17.4-17.4C248,383.7,255.5,376.3,262.9,376.3z M220.7,401.1c9.9,0,17.4,7.4,17.4,17.4s-7.4,17.4-17.4,17.4
		s-17.4-7.4-17.4-17.4S210.8,401.1,220.7,401.1z"/>
</g>
</svg>
