<?xml version="1.0" encoding="utf-8"?>
<!-- Generator: Adobe Illustrator 18.0.0, SVG Export Plug-In . SVG Version: 6.00 Build 0)  -->
<!DOCTYPE svg PUBLIC "-//W3C//DTD SVG 1.1//EN" "http://www.w3.org/Graphics/SVG/1.1/DTD/svg11.dtd">
<svg version="1.1" id="Capa_1" xmlns="http://www.w3.org/2000/svg" xmlns:xlink="http://www.w3.org/1999/xlink" x="0px" y="0px"
	 viewBox="0 0 595.3 841.9" enable-background="new 0 0 595.3 841.9" xml:space="preserve">
<g id="guia" display="none">
</g>
<g id="guia2">
</g>
<g id="Capa_3">
	<g>
		<path fill="#FFFFFF" d="M267.9,532.6c-7.4-29.8-29.8-49.6-29.8-49.6c-5-5-5-9.9,0-14.9c5-5,9.9-5,14.9,0
			c2.5,0,29.8,27.3,37.2,64.5c7.4,0,14.9,0,22.3,0c-5-37.2-34.7-69.4-34.7-69.4c-5-5-5-9.9,0-14.9c5-5,9.9-5,14.9,0
			c2.5,2.5,37.2,37.2,39.7,84.3c7.4,0,14.9,0,22.3,0c-2.5-52.1-34.7-86.8-34.7-86.8c-5-5-5-9.9,0-14.9c5-5,9.9-5,14.9,0
			c2.5,2.5,39.7,42.2,39.7,101.7c7.4,0,14.9,0,19.8,0c0-59.5-37.2-104.2-39.7-106.7c-2.5-5-2.5-9.9,0-14.9c5-2.5,9.9-2.5,14.9,0
			c2.5,2.5,42.2,52.1,44.6,119.1c52.1,0,96.7,0,114.1,0c-2.5-44.6-2.5-148.8-7.4-181.1c-5-29.8-22.3-32.2-49.6-34.7
			c-19.8,0-19.8,2.5-42.2,2.5c-32.2,0-39.7-74.4-79.4-59.5c0,0-7.4,94.3-24.8,109.1C267.9,418.5,114.1,473,101.7,478
			c-19.8,9.9-29.8,19.8-37.2,29.8c19.8,17.4,49.6,19.8,119.1,22.3C205.9,532.6,235.6,532.6,267.9,532.6z"/>
		<path fill="#FFFFFF" d="M317.5,554.9c-54.6,0-101.7,0-129,0c-69.4,0-104.2-5-126.5-22.3c0,2.5,0,5,0,5c0,14.9,19.8,44.6,74.4,44.6
			h354.7c19.8,0,39.7-9.9,44.6-29.8C498.5,554.9,401.8,554.9,317.5,554.9z M416.7,577.2c-5,0-9.9-5-9.9-9.9s5-9.9,9.9-9.9
			c5,0,9.9,5,9.9,9.9S421.7,577.2,416.7,577.2z M441.5,577.2c-5,0-9.9-5-9.9-9.9s5-9.9,9.9-9.9c5,0,9.9,5,9.9,9.9
			S446.5,577.2,441.5,577.2z M468.8,577.2c-5,0-9.9-5-9.9-9.9s5-9.9,9.9-9.9c5,0,9.9,5,9.9,9.9S473.7,577.2,468.8,577.2z
			 M493.6,577.2c-5,0-9.9-5-9.9-9.9s5-9.9,9.9-9.9s9.9,5,9.9,9.9S498.5,577.2,493.6,577.2z"/>
	</g>
</g>
</svg>
