<?xml version="1.0" encoding="utf-8"?>
<!-- Generator: Adobe Illustrator 18.0.0, SVG Export Plug-In . SVG Version: 6.00 Build 0)  -->
<!DOCTYPE svg PUBLIC "-//W3C//DTD SVG 1.1//EN" "http://www.w3.org/Graphics/SVG/1.1/DTD/svg11.dtd">
<svg version="1.1" id="Capa_1" xmlns="http://www.w3.org/2000/svg" xmlns:xlink="http://www.w3.org/1999/xlink" x="0px" y="0px"
	 viewBox="0 0 595.3 841.9" enable-background="new 0 0 595.3 841.9" xml:space="preserve">
<g id="guia" display="none">
</g>
<g id="guia2">
</g>
<g id="Capa_3">
	<g>
		<g>
			<path fill="#FFFFFF" d="M230.7,448.2c-5,5-7.4,9.9-7.4,17.4s5,12.4,9.9,14.9c0-5,0-9.9,2.5-12.4c2.5-2.5,2.5-5,5-7.4
				c2.5-2.5,5-2.5,7.4-5s7.4,0,12.4,0c0-5-5-9.9-12.4-12.4C243.1,440.8,235.6,443.3,230.7,448.2z"/>
			<path fill="#FFFFFF" d="M277.8,406.1c-5,5-7.4,12.4-7.4,17.4c0,7.4,5,12.4,9.9,14.9c0-5,0-9.9,2.5-12.4c2.5-2.5,2.5-5,5-7.4
				c2.5-2.5,5-2.5,7.4-5c2.5,0,7.4,0,12.4,0c0-5-5-9.9-12.4-12.4C290.2,401.1,282.8,401.1,277.8,406.1z"/>
			<path fill="#FFFFFF" d="M255.5,393.7c0-5-5-9.9-12.4-12.4s-14.9,0-19.8,5s-7.4,12.4-7.4,17.4c0,7.4,5,12.4,9.9,14.9
				c0-5,0-9.9,2.5-12.4c2.5-2.5,2.5-5,5-7.4c2.5-2.5,5-2.5,7.4-5C245.6,393.7,250.5,393.7,255.5,393.7z"/>
			<path fill="#FFFFFF" d="M305.1,351.5c0-5-5-9.9-12.4-12.4s-14.9,0-19.8,5s-7.4,12.4-7.4,17.4c0,7.4,5,12.4,9.9,14.9
				c0-5,0-9.9,2.5-12.4c2.5-2.5,2.5-5,5-7.4c2.5-2.5,5-2.5,7.4-5C295.2,349,300.1,349,305.1,351.5z"/>
			<path fill="#FFFFFF" d="M205.9,316.8c-57,49.6-64.5,138.9-14.9,195.9s138.9,64.5,195.9,14.9s64.5-138.9,14.9-195.9
				C352.2,272.1,265.4,264.7,205.9,316.8z M344.8,522.6c0,7.4-5,12.4-12.4,14.9l0,0h-2.5h-2.5c-2.5,0-2.5,0-5,0
				c-2.5,0-7.4,0-9.9-2.5c-5-2.5-9.9-9.9-9.9-14.9c5,2.5,9.9,5,12.4,5s2.5,0,5,0h2.5l0,0l0,0l0,0c2.5,0,5-2.5,7.4-5
				c2.5-2.5,5-7.4,5-12.4C342.3,507.8,344.8,515.2,344.8,522.6z M414.2,448.2c2.5,5,2.5,14.9-2.5,19.8c-2.5,5-9.9,9.9-17.4,9.9
				s-12.4-2.5-14.9-7.4c5,0,9.9-2.5,12.4-2.5c2.5-2.5,5-5,7.4-7.4s2.5-5,2.5-9.9c0-2.5,0-7.4-2.5-12.4
				C404.3,438.3,409.3,443.3,414.2,448.2z M379.5,378.8c12.4,5,19.8,22.3,7.4,34.7c-7.4,7.4-17.4,7.4-24.8,2.5
				c-5,9.9-12.4,17.4-17.4,24.8c9.9,7.4,14.9,22.3,2.5,32.2c-12.4,9.9-24.8,5-32.2-5c-9.9,7.4-17.4,12.4-27.3,17.4
				c5,7.4,5,17.4-5,24.8c-12.4,12.4-29.8,2.5-34.7-12.4c-9.9,2.5-19.8,5-27.3,5c-2.5-2.5-5-5-7.4-7.4
				c-39.7-47.1-34.7-119.1,12.4-158.7S342.3,301.9,382,349c2.5,2.5,2.5,2.5,5,5C384.5,361.4,382,368.9,379.5,378.8z"/>
			<path fill="#FFFFFF" d="M324.9,363.9c-5,5-7.4,12.4-7.4,17.4c0,7.4,5,12.4,9.9,14.9c0-5,0-9.9,2.5-12.4s2.5-5,5-7.4
				c2.5-2.5,5-2.5,7.4-5c2.5,0,7.4,0,12.4,0c0-5-5-9.9-12.4-12.4C337.3,358.9,329.9,361.4,324.9,363.9z"/>
		</g>
	</g>
</g>
</svg>
