<?xml version="1.0" encoding="utf-8"?>
<!-- Generator: Adobe Illustrator 18.0.0, SVG Export Plug-In . SVG Version: 6.00 Build 0)  -->
<!DOCTYPE svg PUBLIC "-//W3C//DTD SVG 1.1//EN" "http://www.w3.org/Graphics/SVG/1.1/DTD/svg11.dtd">
<svg version="1.1" id="Capa_1" xmlns="http://www.w3.org/2000/svg" xmlns:xlink="http://www.w3.org/1999/xlink" x="0px" y="0px"
	 viewBox="0 0 595.3 841.9" enable-background="new 0 0 595.3 841.9" xml:space="preserve">
<g id="guia" display="none">
</g>
<g id="guia2">
</g>
<g id="Capa_3">
	<polygon fill="#FFFFFF" points="513.4,388.7 513.4,388.7 513.4,391.2 	"/>
	<g>
		<polygon fill="#FFFFFF" points="191,381.3 191,381.3 146.3,433.3 444,433.3 399.3,381.3 399.3,381.3 		"/>
		<path fill="#FFFFFF" d="M530.8,443.3h-47.1h-34.7H141.4h-34.7H59.5c0,2.5,0,5,0,5v14.9h52.1h29.8h307.6h29.8h52.1v-14.9
			C530.8,448.2,530.8,445.7,530.8,443.3z"/>
		<path fill="#FFFFFF" d="M458.9,569.8h2.5c2.5,0,5,0,7.4,0V473h-9.9V569.8z"/>
		<rect x="141.4" y="473" fill="#FFFFFF" width="307.6" height="96.7"/>
		<path fill="#FFFFFF" d="M121.5,569.8c2.5,0,5,0,7.4,0h2.5V473h-9.9V569.8z"/>
		<path fill="#FFFFFF" d="M59.5,500.3c0,34.7-2.5,62,52.1,67v-96.7H59.5V500.3z"/>
		<path fill="#FFFFFF" d="M478.7,569.8c49.6-2.5,52.1-34.7,52.1-69.4V473h-52.1V569.8z"/>
		<path fill="#FFFFFF" d="M528.3,433.3c-7.4-29.8-34.7-52.1-67-52.1h-19.8l34.7,52.1H528.3z"/>
		<path fill="#FFFFFF" d="M148.8,381.3H129c-32.2,0-59.5,22.3-67,52.1h52.1L148.8,381.3z"/>
		<path fill="#FFFFFF" d="M411.7,381.3l42.2,52.1h9.9l-34.7-52.1c0-29.8-49.6-81.9-86.8-101.7v27.3
			C374.5,326.7,411.7,358.9,411.7,381.3z"/>
		<path fill="#FFFFFF" d="M133.9,433.3l42.2-52.1c0-19.8,37.2-54.6,69.4-74.4v-27.3c-39.7,19.8-86.8,71.9-86.8,101.7L124,433.3
			H133.9z"/>
		<rect x="258" y="272.1" fill="#FFFFFF" width="74.4" height="29.8"/>
	</g>
</g>
</svg>
