<?xml version="1.0" encoding="utf-8"?>
<!-- Generator: Adobe Illustrator 18.0.0, SVG Export Plug-In . SVG Version: 6.00 Build 0)  -->
<!DOCTYPE svg PUBLIC "-//W3C//DTD SVG 1.1//EN" "http://www.w3.org/Graphics/SVG/1.1/DTD/svg11.dtd">
<svg version="1.1" id="Capa_1" xmlns="http://www.w3.org/2000/svg" xmlns:xlink="http://www.w3.org/1999/xlink" x="0px" y="0px"
	 viewBox="0 0 595.3 841.9" enable-background="new 0 0 595.3 841.9" xml:space="preserve">
<g id="guia" display="none">
</g>
<g id="guia2">
</g>
<g id="Capa_3">
	<g>
		<circle fill="#FFFFFF" cx="210.8" cy="292" r="39.7"/>
		<path fill="#FFFFFF" d="M210.8,217.6c-42.2,0-74.4,32.2-74.4,74.4c0,32.2,22.3,62,52.1,69.4v2.5v49.6c0,5,5,9.9,9.9,9.9l0,0v203.4
			h27.3V420.9h2.5c5,0,9.9-5,9.9-9.9v-49.6v-2.5c27.3-9.9,49.6-37.2,49.6-69.4C285.2,249.8,253,217.6,210.8,217.6z M210.8,351.5
			c-32.2,0-59.5-27.3-59.5-59.5s27.3-59.5,59.5-59.5s59.5,27.3,59.5,59.5S243.1,351.5,210.8,351.5z"/>
		<circle fill="#FFFFFF" cx="384.5" cy="292" r="39.7"/>
		<path fill="#FFFFFF" d="M458.9,292c0-42.2-32.2-74.4-74.4-74.4S310,249.8,310,292c0,32.2,22.3,62,52.1,69.4v2.5v49.6
			c0,5,5,9.9,9.9,9.9l0,0v203.4h24.8V420.9h2.5c5,0,9.9-5,9.9-9.9v-49.6v-2.5C439,351.5,458.9,324.2,458.9,292z M384.5,351.5
			c-32.2,0-59.5-27.3-59.5-59.5s27.3-59.5,59.5-59.5S444,259.7,444,292S416.7,351.5,384.5,351.5z"/>
	</g>
</g>
</svg>
