<?xml version="1.0" encoding="utf-8"?>
<!-- Generator: Adobe Illustrator 18.0.0, SVG Export Plug-In . SVG Version: 6.00 Build 0)  -->
<!DOCTYPE svg PUBLIC "-//W3C//DTD SVG 1.1//EN" "http://www.w3.org/Graphics/SVG/1.1/DTD/svg11.dtd">
<svg version="1.1" id="Capa_1" xmlns="http://www.w3.org/2000/svg" xmlns:xlink="http://www.w3.org/1999/xlink" x="0px" y="0px"
	 viewBox="0 0 595.3 841.9" enable-background="new 0 0 595.3 841.9" xml:space="preserve">
<g id="guia" display="none">
</g>
<g id="guia2">
</g>
<g id="Capa_3">
	<path fill="#FFFFFF" d="M59.5,274.6h114.1v287.7H59.5V274.6L59.5,274.6z M188.5,562.3h208.3v-74.4H188.5V562.3L188.5,562.3z
		 M188.5,470.6h208.3v-74.4H188.5V470.6L188.5,470.6z M235.6,505.3h109.1v19.8H235.6V505.3L235.6,505.3z M210.8,413.5h74.4v42.2
		h-74.4V413.5L210.8,413.5z M315,411c7.4,0,14.9,7.4,14.9,14.9s-7.4,14.9-14.9,14.9s-14.9-7.4-14.9-14.9
		C300.1,418.5,307.6,411,315,411L315,411z M354.7,411c7.4,0,14.9,7.4,14.9,14.9s-7.4,14.9-14.9,14.9c-7.4,0-14.9-7.4-14.9-14.9
		C342.3,418.5,347.2,411,354.7,411L354.7,411z M349.7,505.3h22.3v9.9h-19.8v-9.9H349.7z M208.3,542.5h19.8v9.9h-19.8V542.5
		L208.3,542.5z M235.6,542.5h19.8v9.9h-19.8V542.5L235.6,542.5z M262.9,542.5h19.8v9.9h-19.8V542.5L262.9,542.5z M290.2,542.5H310
		v9.9h-19.8V542.5L290.2,542.5z M317.5,542.5h19.8v9.9h-19.8V542.5L317.5,542.5z M344.8,542.5h19.8v9.9h-19.8V542.5L344.8,542.5z
		 M416.7,274.6h114.1v287.7H416.7V274.6L416.7,274.6z M473.7,301.9c-5,0-12.4,2.5-14.9,7.4c-5,5-7.4,9.9-7.4,14.9s2.5,12.4,7.4,14.9
		c2.5,5,7.4,7.4,14.9,7.4s12.4-2.5,14.9-7.4c5-2.5,7.4-9.9,7.4-14.9s-2.5-12.4-7.4-14.9C486.1,304.4,478.7,301.9,473.7,301.9
		L473.7,301.9z M473.7,361.4c-12.4,0-22.3,5-32.2,12.4c-7.4,7.4-12.4,19.8-12.4,32.2s5,22.3,12.4,32.2c7.4,7.4,19.8,12.4,32.2,12.4
		s22.3-5,32.2-12.4c7.4-7.4,12.4-19.8,12.4-32.2s-5-22.3-12.4-32.2C498.5,366.4,486.1,361.4,473.7,361.4L473.7,361.4z M488.6,391.2
		c-5-5-9.9-5-14.9-5s-9.9,2.5-14.9,5c-5,5-5,9.9-5,14.9c0,5,2.5,9.9,5,14.9c5,5,9.9,5,14.9,5s9.9-2.5,14.9-5c5-5,5-9.9,5-14.9
		C493.6,401.1,493.6,393.7,488.6,391.2L488.6,391.2z M473.7,460.6c-12.4,0-22.3,5-32.2,12.4c-7.4,7.4-12.4,19.8-12.4,32.2
		s5,22.3,12.4,32.2c7.4,7.4,19.8,12.4,32.2,12.4s22.3-5,32.2-12.4c7.4-7.4,12.4-19.8,12.4-32.2s-5-22.3-12.4-32.2
		C498.5,465.6,486.1,460.6,473.7,460.6L473.7,460.6z M488.6,490.4c-5-5-9.9-5-14.9-5s-9.9,2.5-14.9,5c-5,5-5,9.9-5,14.9
		s2.5,9.9,5,14.9c5,5,9.9,5,14.9,5s9.9-2.5,14.9-5c5-5,5-9.9,5-14.9C493.6,500.3,493.6,492.9,488.6,490.4L488.6,490.4z M481.2,316.8
		c-2.5-2.5-5-2.5-7.4-2.5s-5,0-7.4,2.5c-2.5,2.5-2.5,5-2.5,7.4c0,2.5,0,5,2.5,7.4s5,2.5,7.4,2.5s5,0,7.4-2.5c2.5-2.5,2.5-5,2.5-7.4
		C483.7,321.7,483.7,319.3,481.2,316.8L481.2,316.8z M114.1,301.9c-5,0-9.9,2.5-14.9,7.4c-5,2.5-7.4,9.9-7.4,14.9
		c0,5,2.5,12.4,7.4,14.9c5,2.5,9.9,7.4,14.9,7.4s12.4-2.5,14.9-7.4c5-5,7.4-9.9,7.4-14.9c0-5-2.5-12.4-5-14.9
		C126.5,304.4,121.5,301.9,114.1,301.9L114.1,301.9z M116.6,361.4c-12.4,0-22.3,5-32.2,12.4c-7.4,7.4-12.4,19.8-12.4,32.2
		s5,22.3,12.4,32.2c7.4,7.4,19.8,12.4,32.2,12.4s22.3-5,32.2-12.4c7.4-7.4,12.4-19.8,12.4-32.2s-5-22.3-12.4-32.2
		C138.9,366.4,129,361.4,116.6,361.4L116.6,361.4z M131.5,391.2c-5-5-9.9-5-14.9-5s-9.9,2.5-14.9,5c-5,2.5-5,9.9-5,14.9
		c0,5,2.5,9.9,5,14.9c5,5,9.9,5,14.9,5s9.9-2.5,14.9-5c5-5,5-9.9,5-14.9C136.4,401.1,133.9,393.7,131.5,391.2L131.5,391.2z
		 M116.6,460.6c-12.4,0-22.3,5-32.2,12.4c-7.4,7.4-12.4,19.8-12.4,32.2s5,22.3,12.4,32.2c7.4,7.4,19.8,12.4,32.2,12.4
		s22.3-5,32.2-12.4c7.4-7.4,12.4-19.8,12.4-32.2s-5-22.3-12.4-32.2C138.9,465.6,129,460.6,116.6,460.6L116.6,460.6z M131.5,490.4
		c-5-5-9.9-5-14.9-5s-9.9,2.5-14.9,5c-5,5-5,9.9-5,14.9s2.5,9.9,5,14.9c5,5,9.9,5,14.9,5s9.9-2.5,14.9-5c5-2.5,5-9.9,5-14.9
		C136.4,500.3,133.9,492.9,131.5,490.4L131.5,490.4z M121.5,316.8c0-2.5-2.5-2.5-7.4-2.5c-2.5,0-5,0-7.4,2.5c0,2.5-2.5,5-2.5,7.4
		c0,2.5,0,5,2.5,7.4s5,2.5,7.4,2.5c2.5,0,5,0,7.4-2.5c2.5-2.5,5-5,5-7.4S124,319.3,121.5,316.8z"/>
</g>
</svg>
