<?xml version="1.0" encoding="utf-8"?>
<!-- Generator: Adobe Illustrator 18.0.0, SVG Export Plug-In . SVG Version: 6.00 Build 0)  -->
<!DOCTYPE svg PUBLIC "-//W3C//DTD SVG 1.1//EN" "http://www.w3.org/Graphics/SVG/1.1/DTD/svg11.dtd">
<svg version="1.1" id="Capa_1" xmlns="http://www.w3.org/2000/svg" xmlns:xlink="http://www.w3.org/1999/xlink" x="0px" y="0px"
	 viewBox="0 0 595.3 841.9" enable-background="new 0 0 595.3 841.9" xml:space="preserve">
<g id="guia" display="none">
</g>
<g id="guia2">
</g>
<g id="Capa_3">
	<path fill="#FFFFFF" d="M4353-2366.9h-32.2c-17.4,0-29.8,12.4-29.8,29.8l-12.4,471.3l126.5,200.9l-19.8-672.2
		C4382.7-2354.5,4367.9-2366.9,4353-2366.9z"/>
	<path fill="#FFFFFF" d="M3943.7-2138.8c-5-7.4-12.4-7.4-17.4-5l-71.9,42.2c0,0,0,0-2.5,2.5c-5,5-5,9.9-2.5,14.9l409.3,711.9
		l-17.4,791.2c0,7.4,2.5,17.4,7.4,22.3c5,5,12.4,9.9,22.3,9.9h131.5c7.4,0,14.9-2.5,22.3-9.9c5-5,9.9-14.9,7.4-22.3l-14.9-523.4
		l334.8,582.9c2.5,2.5,5,5,7.4,7.4c2.5,2.5,7.4,0,9.9,0l121.5-71.9c2.5-2.5,5-5,5-7.4c0-2.5,0-7.4-2.5-9.9l-19.8-32.2l-463.8-754
		l-138.9-225.7L3943.7-2138.8z"/>
	<path fill="#FFFFFF" d="M2973.9-1310.3v-111.6c0-198.4,310-270.4,600.2-270.4c5,0,12.4,0,17.4,0c0-126.5,0-250.5,0-262.9
		c0-71.9-186-129-414.2-129s-414.2,57-414.2,129c0,27.3,0,506,0,530.8C2763.1-1374.8,2847.4-1332.7,2973.9-1310.3z M3177.3-1994.9
		c141.4,0,255.5,34.7,255.5,79.4c0,44.6-114.1,79.4-255.5,79.4s-255.5-34.7-255.5-79.4C2921.8-1957.7,3035.9-1994.9,3177.3-1994.9z"
		/>
	<path fill="#FFFFFF" d="M525.8,453.2c-5,0-9.9-5-14.9-9.9v-2.5c0-2.5-2.5-7.4-5-7.4h-2.5l-2.5-2.5v-2.5c0-2.5-2.5-7.4-5-7.4h-2.5
		l-2.5,0v-2.5c0-2.5-2.5-7.4-5-7.4h-2.5l-2.5-2.5v-2.5c0-2.5-2.5-7.4-5-7.4s-2.5,0-2.5,2.5l-2.5-2.5v-2.5l0,0l0,0l0,0
		c2.5,0,2.5-2.5,0-5l0,0l2.5-2.5c2.5-2.5,2.5-5,0-7.4l0,0c0-2.5-2.5-2.5-5-2.5c0-2.5,0-2.5,0-2.5l0,0c0-2.5,0-5-2.5-5h-2.5
		c0,0,0-2.5-2.5-2.5l0,0c0-2.5,0-5-2.5-5c-2.5,0-2.5,0-5,0c0,0-2.5,0-2.5-2.5s0-5-2.5-5s-2.5,0-5,2.5c0,0,0,0-2.5,0
		c0,0-2.5,2.5-5,2.5c-5,5-17.4,12.4-17.4,12.4c-2.5,0-2.5,5,0,7.4c-5,0-9.9-2.5-14.9-2.5l0,0c-2.5,0-7.4,0-9.9,0
		c0-5-2.5-9.9-2.5-14.9c0,0,0,0,0-2.5c2.5-2.5,0-7.4-2.5-9.9c-2.5,0-2.5,0-5,0L382,349l0,0c2.5-2.5,0-7.4-2.5-9.9
		c-2.5-2.5-5,0-7.4,2.5l-2.5-2.5c0-2.5,0-5-2.5-7.4s-5,0-7.4,2.5l0,0c-2.5,0-2.5,0-5,0c0-2.5,0-5-2.5-5c-2.5-2.5-5,0-7.4,2.5
		c0,0,0,0,0,2.5c-2.5,0-2.5,0-5,0c0-2.5,0-5-2.5-5c-2.5-2.5-5,0-7.4,2.5l0,0c-2.5,0-2.5,0-2.5,0c0-2.5,0-5-2.5-5
		c-2.5-2.5-5,0-7.4,2.5c-2.5-2.5-7.4-5-9.9-7.4c-5-5-9.9,0-5,7.4c17.4,22.3,54.6,17.4,64.5,39.7l0,0c-5-2.5-14.9-2.5-24.8,2.5l0,0
		c-5,2.5-9.9,2.5-12.4,5c0-2.5,0-5,0-7.4c-2.5-7.4-2.5-12.4-2.5-12.4c0-5-14.9-7.4-29.8-2.5l0,0c-12.4-2.5-24.8,7.4-24.8,12.4
		c0,0,0,5,2.5,9.9v2.5c-2.5-2.5-7.4-2.5-9.9-5l0,0c-12.4-5-22.3-5-27.3-5c9.9-19.8,47.1-14.9,64.5-37.2c5-7.4,0-12.4-5-7.4
		c-2.5,2.5-5,5-9.9,7.4c-2.5-2.5-5-2.5-7.4-2.5s-2.5,2.5-2.5,5h-2.5l0,0c-2.5-2.5-5-5-7.4-2.5c-2.5,0-2.5,2.5-2.5,5
		c-2.5,0-2.5,0-5,0v-2.5c-2.5-2.5-5-5-7.4-2.5c-5,5-5,7.4-5,9.9c-2.5,0-2.5,0-5,0l0,0c0-2.5-5-2.5-7.4-2.5c0,2.5-2.5,5-2.5,7.4
		l-2.5,2.5c-2.5-2.5-5-2.5-7.4-2.5c-2.5,2.5-2.5,7.4-2.5,9.9l0,0l-2.5,2.5c-2.5,0-2.5,0-5,0c0,2.5,0,7.4,0,9.9c0,0,0,0,0,2.5
		s-2.5,7.4-2.5,9.9c-5-2.5-9.9-2.5-17.4-2.5c0-7.4-2.5-14.9-5-17.4v-2.5l0,0c0-2.5-2.5-2.5-5-2.5l0,0c0,0,0-2.5-2.5-2.5
		c0-2.5-2.5-2.5-5-2.5l0,0c0,2.5-2.5,5-2.5,5h-2.5l0,0c-2.5-2.5-5,0-5,0c0,2.5,0,2.5,0,5l-2.5,2.5l0,0c-2.5-2.5-5,0-5,0
		c0,2.5,0,2.5,0,5c0,0,0,2.5-2.5,2.5s-2.5,0-5,2.5c0,2.5,0,5,0,5v2.5c0,0,0,2.5,2.5,5c0,2.5,2.5,7.4,5,9.9l0,0c0,2.5,0,5,0,7.4
		l-5-7.4h-2.5c-2.5,0-5,0-7.4,0h-2.5c0-2.5-2.5-2.5-5-2.5s-5,2.5-5,7.4l0,0c0,0-2.5,0-2.5,2.5c0,0-2.5-2.5-5-2.5s-5,2.5-5,7.4v2.5
		l-2.5,2.5l-2.5-2.5c-2.5,0-5,2.5-5,7.4c0,2.5,0,2.5,0,2.5l-2.5,2.5h-2.5c-2.5,0-5,2.5-5,7.4c0,2.5,0,2.5,0,2.5l-2.5,2.5h-2.5
		c-2.5,0-5,2.5-5,7.4c0,2.5,0,2.5,0,2.5l-2.5,2.5h-2.5c-2.5,0-5,2.5-5,7.4v2.5c-5,5-9.9,7.4-14.9,9.9c-7.4,2.5-7.4,9.9,0,9.9
		s14.9-5,22.3-9.9c34.7,39.7,84.3,62,136.4,62h138.9c57,0,109.1-27.3,143.9-71.9c5,2.5,9.9,5,17.4,5
		C533.3,463.1,533.3,453.2,525.8,453.2z M448.9,363.9c2.5-2.5,5,2.5,9.9,9.9l0,0c2.5,7.4,5,12.4,2.5,14.9c0,0-2.5,0-5-2.5
		c0,0,0-2.5-2.5-2.5c0-2.5-2.5-2.5-2.5-5c-2.5-2.5-2.5-7.4-5-9.9C448.9,366.4,448.9,363.9,448.9,363.9z M409.3,386.2L409.3,386.2
		c9.9,0,19.8,2.5,19.8,7.4s-7.4,7.4-19.8,7.4c-5,0-9.9,0-12.4-2.5c-2.5-2.5-5-2.5-5-5C389.4,388.7,399.3,386.2,409.3,386.2z
		 M349.7,373.8L349.7,373.8c9.9-2.5,19.8-2.5,19.8,2.5c0,5-7.4,9.9-17.4,12.4c-5,2.5-9.9,2.5-12.4,2.5c-2.5,0-5-2.5-5-2.5
		C332.4,381.3,339.8,376.3,349.7,373.8z M302.6,356.5L302.6,356.5c9.9-2.5,19.8-2.5,19.8,0c0,5-7.4,9.9-17.4,12.4
		c-5,2.5-9.9,2.5-12.4,2.5c-2.5,0-5-2.5-5-2.5C285.2,363.9,292.7,358.9,302.6,356.5z M262.9,381.3L262.9,381.3
		c9.9,5,17.4,9.9,14.9,14.9c0,2.5-9.9,2.5-19.8,0c-5-2.5-9.9-5-12.4-7.4c-2.5-2.5-5-5-5-7.4C245.6,378.8,253,378.8,262.9,381.3z
		 M200.9,388.7C200.9,388.7,200.9,386.2,200.9,388.7c5,0,9.9,0,9.9,5c0,2.5-7.4,5-14.9,7.4C198.4,393.7,200.9,391.2,200.9,388.7z
		 M171.1,368.9L171.1,368.9c7.4-2.5,12.4-5,12.4-2.5c0,2.5-2.5,7.4-9.9,9.9c-2.5,2.5-5,2.5-7.4,2.5c-2.5,0-5,0-5,0
		C161.2,378.8,163.7,373.8,171.1,368.9z M148.8,433.3L148.8,433.3c0-2.5,2.5-5,2.5-5l0,0v7.4h-2.5
		C148.8,435.8,148.8,435.8,148.8,433.3z M146.3,428.4L146.3,428.4L146.3,428.4c-2.5,2.5-2.5,2.5-2.5,5c0-2.5-2.5-2.5-2.5-5
		C143.9,425.9,146.3,425.9,146.3,428.4z M146.3,433.3L146.3,433.3C143.9,433.3,143.9,433.3,146.3,433.3
		C143.9,433.3,143.9,433.3,146.3,433.3z M126.5,430.9c2.5-2.5,7.4-2.5,9.9-5c0,2.5-2.5,2.5-5,5C131.5,430.9,129,433.3,126.5,430.9
		C126.5,433.3,126.5,433.3,126.5,430.9C126.5,433.3,126.5,430.9,126.5,430.9z M491.1,455.7h-17.4h-5h-39.7h-5l0,0h-52.1h-64.5h-5
		h-17.4h-19.8h-5h-24.8h-5h-9.9h-12.4H191h-7.4h-5H99.2c7.4-7.4,14.9-14.9,22.3-19.8c0,0,0,0,0,2.5c2.5,2.5,5,7.4,7.4,7.4h334.8
		c2.5-2.5,7.4-9.9,9.9-9.9c0,0,0,0,2.5,0l0,0v-2.5l0,0c0,0,0,0,0-2.5v-2.5l0,0h-2.5c0,0,0,0,0-2.5l0,0c0,0,0-2.5-2.5-2.5h-2.5
		c0,0,0,0-2.5,0l0,0c0,0,0-2.5-2.5-2.5c0,0-2.5,0-2.5,2.5c0,0,0,0-2.5,0c0,0,0-2.5-2.5-2.5c0,0-2.5,0-2.5,2.5l0,0l0,0h-2.5
		c0,0,0,0-2.5-2.5l0,0c0,0,0-2.5-2.5-2.5c0,0-2.5,0-2.5,2.5c0,0,0,0-2.5,0l0,0c0,0,0-2.5-2.5-2.5c0,0-2.5,0-2.5,2.5c0,0,0,0-2.5,0
		c0,0,0-2.5-2.5-2.5c0-2.5,0-2.5,0-5c2.5-2.5,5-2.5,9.9-2.5c19.8,0,37.2,27.3,59.5,42.2L491.1,455.7L491.1,455.7z M439,425.9
		c0-2.5,2.5,0,7.4,0l0,0c2.5,0,2.5,2.5,2.5,2.5l-2.5,2.5H444C444,428.4,441.5,428.4,439,425.9L439,425.9z M456.4,428.4
		c0,0,5,0,7.4,2.5l0,0c2.5,2.5,5,5,2.5,5s-5,0-7.4-2.5C458.9,430.9,456.4,430.9,456.4,428.4L456.4,428.4z"/>
</g>
</svg>
