<?xml version="1.0" encoding="utf-8"?>
<!-- Generator: Adobe Illustrator 18.0.0, SVG Export Plug-In . SVG Version: 6.00 Build 0)  -->
<!DOCTYPE svg PUBLIC "-//W3C//DTD SVG 1.1//EN" "http://www.w3.org/Graphics/SVG/1.1/DTD/svg11.dtd">
<svg version="1.1" id="Capa_1" xmlns="http://www.w3.org/2000/svg" xmlns:xlink="http://www.w3.org/1999/xlink" x="0px" y="0px"
	 viewBox="0 0 595.3 841.9" enable-background="new 0 0 595.3 841.9" xml:space="preserve">
<g id="guia" display="none">
</g>
<g id="guia2">
</g>
<g id="Capa_3">
	<g>
		<path fill="#FFFFFF" d="M220.7,351.5h151.3c14.9,0,27.3-12.4,27.3-27.3V230c0-14.9-12.4-27.3-27.3-27.3h-32.2l-9.9-19.8h-67
			l-9.9,19.8h-32.2c-14.9,0-27.3,12.4-27.3,27.3v94.3C195.9,341.6,208.3,351.5,220.7,351.5z M265.4,269.6
			c0-17.4,14.9-32.2,32.2-32.2s32.2,14.9,32.2,32.2s-14.9,32.2-32.2,32.2S265.4,287,265.4,269.6z"/>
		<polygon fill="#FFFFFF" points="322.4,356.5 272.8,356.5 133.9,656.6 168.7,656.6 223.2,542.5 235.6,542.5 270.4,468.1 
			270.4,542.5 280.3,542.5 280.3,656.6 315,656.6 315,542.5 324.9,542.5 324.9,468.1 359.6,542.5 372.1,542.5 426.6,656.6 
			461.3,656.6 		"/>
	</g>
</g>
</svg>
