<?xml version="1.0" encoding="utf-8"?>
<!-- Generator: Adobe Illustrator 18.0.0, SVG Export Plug-In . SVG Version: 6.00 Build 0)  -->
<!DOCTYPE svg PUBLIC "-//W3C//DTD SVG 1.1//EN" "http://www.w3.org/Graphics/SVG/1.1/DTD/svg11.dtd">
<svg version="1.1" id="Capa_1" xmlns="http://www.w3.org/2000/svg" xmlns:xlink="http://www.w3.org/1999/xlink" x="0px" y="0px"
	 viewBox="0 0 595.3 841.9" enable-background="new 0 0 595.3 841.9" xml:space="preserve">
<g id="guia" display="none">
</g>
<g id="guia2">
</g>
<g id="Capa_3">
	<path fill="#FFFFFF" d="M414.2,425.9c0,5-5,9.9-12.4,9.9H183.5c-7.4,0-12.4-5-12.4-9.9v-7.4c0-5,5-9.9,12.4-9.9h218.3
		c7.4,0,12.4,5,12.4,9.9V425.9z"/>
	<g>
		<path fill="#FFFFFF" d="M498.5,269.6h-74.4c-17.4,0-32.2,14.9-32.2,32.2V540c0,17.4,14.9,32.2,32.2,32.2h74.4
			c17.4,0,32.2-14.9,32.2-32.2V301.9C530.8,282,518.4,269.6,498.5,269.6z M498.5,301.9V535h-69.4V301.9H498.5z"/>
		<circle fill="#FFFFFF" cx="463.8" cy="478" r="24.8"/>
		<path fill="#FFFFFF" d="M357.2,269.6H91.8c-17.4,0-32.2,12.4-32.2,32.2v193.5c0,17.4,14.9,32.2,32.2,32.2h109.1v9.9h-49.6
			c-9.9,0-17.4,7.4-17.4,17.4s7.4,17.4,17.4,17.4h148.8c9.9,0,17.4-7.4,17.4-17.4c0-9.9-7.4-17.4-17.4-17.4h-49.6v-9.9h109.1
			c17.4,0,32.2-14.9,32.2-32.2V301.9C389.4,282,374.5,269.6,357.2,269.6z M357.2,492.9h-258c-2.5,0-5,0-5,0v-191h262.9V492.9
			L357.2,492.9z"/>
	</g>
</g>
</svg>
