<?xml version="1.0" encoding="utf-8"?>
<!-- Generator: Adobe Illustrator 18.0.0, SVG Export Plug-In . SVG Version: 6.00 Build 0)  -->
<!DOCTYPE svg PUBLIC "-//W3C//DTD SVG 1.1//EN" "http://www.w3.org/Graphics/SVG/1.1/DTD/svg11.dtd">
<svg version="1.1" id="Capa_1" xmlns="http://www.w3.org/2000/svg" xmlns:xlink="http://www.w3.org/1999/xlink" x="0px" y="0px"
	 viewBox="0 0 595.3 841.9" enable-background="new 0 0 595.3 841.9" xml:space="preserve">
<g id="guia" display="none">
</g>
<g id="guia2">
</g>
<g id="Capa_3">
	<g>
		<path fill="#FFFFFF" d="M456.4,497.8V296.9H138.9v200.9h24.8V321.7h62L195.9,349c-2.5,2.5-2.5,7.4-2.5,9.9s2.5,7.4,2.5,7.4
			c5,5,12.4,5,17.4,0l47.1-44.6h32.2l-96.7,96.7c-5,5-5,12.4,0,17.4c5,5,12.4,5,17.4,0l111.6-114.1h106.7v178.6L456.4,497.8
			L456.4,497.8z"/>
		<path fill="#FFFFFF" d="M121.5,299.4c0-12.4,9.9-19.8,19.8-19.8h310c12.4,0,19.8,9.9,19.8,19.8v198.4h24.8V299.4
			c0-24.8-19.8-44.6-44.6-44.6h-310c-24.8,0-44.6,19.8-44.6,44.6v198.4h24.8L121.5,299.4L121.5,299.4z"/>
		<path fill="#FFFFFF" d="M510.9,512.7H352.2c-2.5,0-7.4,0-9.9,2.5l-7.4,5h-71.9l-9.9-5c-2.5-2.5-7.4-2.5-9.9-2.5H84.3
			c-9.9,0-22.3,7.4-22.3,24.8c0,9.9,5,22.3,12.4,32.2c7.4,7.4,19.8,19.8,42.2,19.8h359.6c22.3,0,34.7-9.9,42.2-19.8
			c7.4-9.9,12.4-19.8,12.4-32.2C533.3,520.2,523.4,512.7,510.9,512.7z M503.5,549.9c-5,5-12.4,12.4-24.8,12.4H116.6
			c-14.9,0-22.3-7.4-24.8-12.4c-5-5-5-12.4-5-14.9h153.8l14.9,9.9h86.8l14.9-9.9h153.8C508.5,540,508.5,545,503.5,549.9z"/>
	</g>
</g>
</svg>
