<?xml version="1.0" encoding="utf-8"?>
<!-- Generator: Adobe Illustrator 18.0.0, SVG Export Plug-In . SVG Version: 6.00 Build 0)  -->
<!DOCTYPE svg PUBLIC "-//W3C//DTD SVG 1.1//EN" "http://www.w3.org/Graphics/SVG/1.1/DTD/svg11.dtd">
<svg version="1.1" id="Capa_1" xmlns="http://www.w3.org/2000/svg" xmlns:xlink="http://www.w3.org/1999/xlink" x="0px" y="0px"
	 viewBox="0 0 595.3 841.9" enable-background="new 0 0 595.3 841.9" xml:space="preserve">
<g id="guia" display="none">
</g>
<g id="guia2">
</g>
<g id="Capa_3">
	<g>
		<path fill="#FFFFFF" d="M297.6,296.9c-17.4,0-29.8,12.4-29.8,29.8v64.5c0,17.4,12.4,29.8,29.8,29.8s29.8-12.4,29.8-29.8v-64.5
			C327.4,309.3,315,296.9,297.6,296.9z"/>
		<path fill="#FFFFFF" d="M297.6,205.2c-79.4,0-143.9,64.5-143.9,143.9v146.3c0,79.4,64.5,143.9,143.9,143.9s143.9-64.5,143.9-143.9
			V349C441.5,269.6,377,205.2,297.6,205.2z M297.6,594.6c-54.6,0-99.2-44.6-99.2-99.2V349c0-47.1,34.7-86.8,79.4-96.7V282H320v-32.2
			c44.6,9.9,79.4,49.6,79.4,96.7v146.3C396.9,549.9,352.2,594.6,297.6,594.6z"/>
	</g>
</g>
</svg>
