<?xml version="1.0" encoding="utf-8"?>
<!-- Generator: Adobe Illustrator 18.0.0, SVG Export Plug-In . SVG Version: 6.00 Build 0)  -->
<!DOCTYPE svg PUBLIC "-//W3C//DTD SVG 1.1//EN" "http://www.w3.org/Graphics/SVG/1.1/DTD/svg11.dtd">
<svg version="1.1" id="Capa_1" xmlns="http://www.w3.org/2000/svg" xmlns:xlink="http://www.w3.org/1999/xlink" x="0px" y="0px"
	 viewBox="0 0 595.3 841.9" enable-background="new 0 0 595.3 841.9" xml:space="preserve">
<g id="guia" display="none">
</g>
<g id="guia2">
</g>
<g id="Capa_3">
	<g>
		<path fill="#FFFFFF" d="M426.6,207.6h-258c-24.8,0-42.2,19.8-42.2,44.6v337.3c0,24.8,19.8,44.6,42.2,44.6h258
			c24.8,0,42.2-19.8,42.2-44.6V252.3C468.8,227.5,451.4,207.6,426.6,207.6z M297.6,621.9c-7.4,0-14.9-7.4-14.9-14.9
			c0-7.4,7.4-14.9,14.9-14.9s14.9,7.4,14.9,14.9S305.1,621.9,297.6,621.9z M436.5,252.3L436.5,252.3v324.9H158.7V294.4l0,0v-54.6
			h79.4l0,0h119.1l0,0h79.4l0,0V252.3z"/>
		<rect x="188.5" y="304.4" fill="#FFFFFF" width="220.7" height="17.4"/>
		<rect x="188.5" y="339.1" fill="#FFFFFF" width="220.7" height="17.4"/>
		<rect x="188.5" y="376.3" fill="#FFFFFF" width="220.7" height="17.4"/>
		<rect x="188.5" y="411" fill="#FFFFFF" width="136.4" height="17.4"/>
		<rect x="188.5" y="460.6" fill="#FFFFFF" width="220.7" height="17.4"/>
		<rect x="188.5" y="495.4" fill="#FFFFFF" width="220.7" height="17.4"/>
		<rect x="188.5" y="530.1" fill="#FFFFFF" width="220.7" height="17.4"/>
		<polygon fill="#FFFFFF" points="228.2,287 406.8,287 406.8,269.6 228.2,269.6 		"/>
		<path fill="#FFFFFF" d="M198.4,282h9.9l2.5,7.4h7.4l-9.9-29.8h-9.9l-9.9,29.8h7.4L198.4,282z M203.4,269.6c0-2.5,0-5,2.5-5l0,0
			c0,2.5,0,5,2.5,5l2.5,7.4h-9.9L203.4,269.6z"/>
	</g>
</g>
</svg>
