<?xml version="1.0" encoding="utf-8"?>
<!-- Generator: Adobe Illustrator 18.0.0, SVG Export Plug-In . SVG Version: 6.00 Build 0)  -->
<!DOCTYPE svg PUBLIC "-//W3C//DTD SVG 1.1//EN" "http://www.w3.org/Graphics/SVG/1.1/DTD/svg11.dtd">
<svg version="1.1" id="Capa_1" xmlns="http://www.w3.org/2000/svg" xmlns:xlink="http://www.w3.org/1999/xlink" x="0px" y="0px"
	 viewBox="0 0 595.3 841.9" enable-background="new 0 0 595.3 841.9" xml:space="preserve">
<g id="guia" display="none">
</g>
<g id="guia2">
</g>
<g id="Capa_3">
	<g id="guia_1_">
	</g>
	<g id="Capa_3_1_">
		<path fill="#FFFFFF" d="M523.4,269.6l-14.9-17.4l-2.5-2.5h-2.5L386.9,358.9h-2.5c-7.4,0-12.4,2.5-17.4,7.4c-2.5-2.5-7.4-5-9.9-7.4
			l129-131.5l0,0V225c0,0,0-2.5-2.5-2.5l-17.4-14.9h-2.5h-2.5l-129,143.9c-2.5,0-5,0-9.9,0c-12.4,0-22.3,2.5-32.2,7.4
			c-7.4-7.4-22.3-12.4-37.2-12.4c-17.4,0-34.7,5-42.2,14.9c-7.4-5-19.8-9.9-34.7-9.9c-24.8,0-47.1,12.4-47.1,29.8
			c-2.5,0-7.4,0-9.9,0c-19.8,0-34.7,7.4-39.7,17.4l-2.5,2.5c0,0,0,2.5-2.5,2.5c0,2.5,0,5-2.5,7.4v2.5c0,2.5-2.5,7.4-2.5,9.9
			c0,71.9,34.7,136.4,91.8,173.6c-7.4,2.5-12.4,9.9-12.4,17.4c0,9.9,7.4,19.8,19.8,19.8h86.8h57h86.8c9.9,0,19.8-7.4,19.8-19.8
			c0-7.4-5-14.9-12.4-17.4c54.6-39.7,91.8-101.7,91.8-173.6c0-2.5,0-7.4-2.5-9.9V411c0-2.5-2.5-5-2.5-7.4v-2.5
			c0-12.4-12.4-22.3-29.8-22.3c-7.4,0-12.4,2.5-17.4,5c-2.5-9.9-12.4-17.4-24.8-17.4c-5,0-9.9,2.5-14.9,5l116.6-96.7l0,0
			c0,0,0-2.5,2.5-2.5C523.4,272.1,523.4,269.6,523.4,269.6z M285.2,594.6C210.8,594.6,146.3,545,124,478
			c47.1,17.4,114.1,24.8,161.2,24.8c49.6,0,116.6-7.4,163.7-24.8C426.6,545,362.1,594.6,285.2,594.6z M401.8,378.8l2.5,5l5-5
			c5-5,9.9-7.4,14.9-7.4c9.9,0,17.4,7.4,19.8,17.4v7.4l0,0l5-5c5-5,12.4-7.4,17.4-7.4c12.4,0,22.3,7.4,22.3,17.4
			c0,2.5-2.5,7.4-2.5,12.4c-24.8,24.8-104.2,42.2-198.4,42.2l0,0l0,0c0,0,0,0-2.5,0c-12.4,0-22.3,0-32.2,0c-2.5,0-5,0-7.4,0
			c-9.9,0-19.8-2.5-29.8-2.5c-2.5,0-5,0-7.4,0c-62-7.4-109.1-22.3-124-42.2c0-2.5,0-5,0-5c0-9.9,17.4-19.8,34.7-19.8
			c5,0,7.4,0,12.4,2.5h5v-5c0,0,0,0,0-2.5c0-12.4,19.8-24.8,42.2-24.8c12.4,0,24.8,2.5,32.2,9.9l2.5,5l2.5-2.5
			c7.4-9.9,22.3-14.9,37.2-14.9s29.8,5,37.2,12.4l2.5,2.5l2.5-2.5c7.4-5,19.8-7.4,32.2-7.4c2.5,0,2.5,0,5,0l-57,64.5h22.3l57-59.5
			c5,2.5,9.9,5,12.4,9.9l2.5,5l2.5-5c2.5-2.5,5-5,9.9-7.4l-59.5,54.6h24.8L401.8,378.8C399.3,378.8,401.8,378.8,401.8,378.8z"/>
	</g>
</g>
</svg>
