<?xml version="1.0" encoding="utf-8"?>
<!-- Generator: Adobe Illustrator 18.0.0, SVG Export Plug-In . SVG Version: 6.00 Build 0)  -->
<!DOCTYPE svg PUBLIC "-//W3C//DTD SVG 1.1//EN" "http://www.w3.org/Graphics/SVG/1.1/DTD/svg11.dtd">
<svg version="1.1" id="Capa_1" xmlns="http://www.w3.org/2000/svg" xmlns:xlink="http://www.w3.org/1999/xlink" x="0px" y="0px"
	 viewBox="0 0 595.3 841.9" enable-background="new 0 0 595.3 841.9" xml:space="preserve">
<g id="guia" display="none">
</g>
<g id="guia2">
</g>
<g id="Capa_3">
	<path fill="#FFFFFF" d="M349.7,205.2h-19.8h-84.3c-49.6,0-91.8,24.8-119.1,62c-22.3,29.8-34.7,67-34.7,106.7
		c0,86.8,59.5,156.3,136.4,166.2l-9.9,81.9c0,5,2.5,12.4,9.9,14.9c2.5,0,2.5,0,5,0c5,0,7.4-2.5,9.9-5l57-52.1l39.7-37.2l2.5-2.5h9.9
		c84.3,0,153.8-74.4,153.8-168.7C503.5,279.6,434.1,205.2,349.7,205.2z M349.7,475.5c-5,2.5-9.9,5-12.4,5c-9.9,2.5-19.8,5-27.3,5
		c-5,0-7.4,0-9.9,0c-32.2-5-49.6-34.7-49.6-34.7l-49.6-76.9c-14.9-22.3-17.4-42.2-12.4-59.5c9.9-24.8,37.2-34.7,37.2-34.7h2.5
		l29.8,57v2.5c-19.8,17.4-12.4,29.8-12.4,32.2c0,0,22.3,34.7,32.2,47.1c2.5,2.5,5,5,9.9,5c5,0,7.4-2.5,12.4-2.5c5-2.5,9.9-5,9.9-5
		s0,0,2.5,0c0,0,0,0,2.5,0l27.3,37.2l14.9,19.8C352.2,473,352.2,473,349.7,475.5C352.2,475.5,352.2,475.5,349.7,475.5z M349.7,388.7
		C349.7,388.7,347.2,388.7,349.7,388.7c-5,2.5-9.9,2.5-9.9-2.5c0-5-2.5-9.9-2.5-12.4c-2.5-7.4-5-14.9-9.9-22.3
		c-7.4-9.9-17.4-19.8-27.3-24.8l0,0v-7.4c0,0,0,0,0-2.5c2.5-2.5,7.4-5,9.9-2.5c12.4,7.4,22.3,14.9,27.3,24.8l2.5,2.5
		c7.4,12.4,12.4,24.8,14.9,39.7C354.7,383.7,352.2,386.2,349.7,388.7z M396.9,386.2c0,0-2.5,0-2.5,2.5c-2.5,0-7.4,0-7.4-2.5
		c0-24.8-5-44.6-17.4-62c-7.4-12.4-19.8-22.3-32.2-29.8c-5-2.5-12.4-7.4-19.8-9.9l0,0c-2.5,0-2.5-5,0-7.4c2.5-2.5,7.4-5,9.9-2.5
		c2.5-5,7.4-2.5,9.9-2.5c19.8,9.9,34.7,22.3,44.6,37.2c12.4,19.8,19.8,42.2,19.8,67C401.8,381.3,399.3,383.7,396.9,386.2z"/>
</g>
</svg>
