<?xml version="1.0" encoding="utf-8"?>
<!-- Generator: Adobe Illustrator 18.0.0, SVG Export Plug-In . SVG Version: 6.00 Build 0)  -->
<!DOCTYPE svg PUBLIC "-//W3C//DTD SVG 1.1//EN" "http://www.w3.org/Graphics/SVG/1.1/DTD/svg11.dtd">
<svg version="1.1" id="Capa_1" xmlns="http://www.w3.org/2000/svg" xmlns:xlink="http://www.w3.org/1999/xlink" x="0px" y="0px"
	 viewBox="0 0 595.3 841.9" enable-background="new 0 0 595.3 841.9" xml:space="preserve">
<g id="guia" display="none">
</g>
<g id="guia2">
</g>
<g id="Capa_3">
	<g>
		<path fill="#FFFFFF" d="M406.8,165.5H188.5c-12.4,0-22.3,9.9-22.3,19.8v466.3c0,12.4,9.9,19.8,22.3,19.8h218.3
			c12.4,0,22.3-9.9,22.3-19.8V187.8C426.6,175.4,419.2,165.5,406.8,165.5z M200.9,520.2h195.9v124H200.9V520.2z M394.4,448.2H200.9
			V197.7h195.9C394.4,197.7,394.4,448.2,394.4,448.2z M200.9,487.9v-7.4h195.9v7.4H200.9z"/>
		<path fill="#FFFFFF" d="M225.7,440.8c9.9,0,17.4-7.4,17.4-17.4v-124c0-9.9-7.4-17.4-17.4-17.4s-14.9,7.4-14.9,17.4v126.5
			C210.8,433.3,215.8,440.8,225.7,440.8z"/>
		<path fill="#FFFFFF" d="M225.7,527.6c-9.9,0-17.4,7.4-17.4,17.4v62c0,9.9,7.4,17.4,17.4,17.4s17.4-7.4,17.4-17.4v-62
			C243.1,535,235.6,527.6,225.7,527.6z"/>
	</g>
</g>
</svg>
