<?xml version="1.0" encoding="utf-8"?>
<!-- Generator: Adobe Illustrator 18.0.0, SVG Export Plug-In . SVG Version: 6.00 Build 0)  -->
<!DOCTYPE svg PUBLIC "-//W3C//DTD SVG 1.1//EN" "http://www.w3.org/Graphics/SVG/1.1/DTD/svg11.dtd">
<svg version="1.1" id="Capa_1" xmlns="http://www.w3.org/2000/svg" xmlns:xlink="http://www.w3.org/1999/xlink" x="0px" y="0px"
	 viewBox="0 0 595.3 841.9" enable-background="new 0 0 595.3 841.9" xml:space="preserve">
<g id="guia" display="none">
</g>
<g id="guia2">
</g>
<g id="Capa_3">
	<g>
		<path fill="#FFFFFF" d="M506,354H89.3c-9.9,0-19.8,7.4-19.8,19.8v265.4c0,9.9,7.4,19.8,19.8,19.8H506c9.9,0,19.8-7.4,19.8-19.8
			V373.8C525.8,363.9,515.9,354,506,354z M486.1,619.4h-377V391.2h379.5v228.2H486.1z"/>
		<path fill="#FFFFFF" d="M146.3,599.5h302.6c9.9,0,19.8-7.4,19.8-19.8V428.4c0-9.9-7.4-19.8-19.8-19.8H146.3
			c-9.9,0-19.8,7.4-19.8,19.8v151.3C126.5,592.1,136.4,599.5,146.3,599.5z M166.2,448.2h265.4v19.8H166.2V448.2z M166.2,497.8h265.4
			v19.8H166.2V497.8z M166.2,545h265.4v19.8H166.2V545z"/>
		<path fill="#FFFFFF" d="M136.4,249.8c-5,0-9.9,5-9.9,9.9s5,9.9,9.9,9.9c5,0,9.9-5,9.9-9.9C146.3,254.8,141.4,249.8,136.4,249.8z"
			/>
		<path fill="#FFFFFF" d="M506,185.3H89.3c-9.9,0-19.8,7.4-19.8,19.8v114.1c0,9.9,7.4,19.8,19.8,19.8H506c9.9,0,19.8-7.4,19.8-19.8
			V202.7C525.8,192.8,515.9,185.3,506,185.3z M136.4,289.5c-14.9,0-27.3-12.4-27.3-27.3c0-14.9,12.4-27.3,27.3-27.3
			c14.9,0,27.3,12.4,27.3,27.3C163.7,277.1,151.3,289.5,136.4,289.5z M250.5,279.6c-9.9,0-19.8-7.4-19.8-19.8
			c0-9.9,7.4-19.8,19.8-19.8c9.9,0,19.8,7.4,19.8,19.8C270.4,269.6,260.4,279.6,250.5,279.6z M322.4,279.6
			c-9.9,0-19.8-7.4-19.8-19.8c0-9.9,7.4-19.8,19.8-19.8c9.9,0,19.8,7.4,19.8,19.8C342.3,269.6,332.4,279.6,322.4,279.6z
			 M394.4,279.6c-9.9,0-19.8-7.4-19.8-19.8c0-9.9,7.4-19.8,19.8-19.8s19.8,7.4,19.8,19.8C414.2,269.6,406.8,279.6,394.4,279.6z
			 M468.8,279.6c-9.9,0-19.8-7.4-19.8-19.8c0-9.9,7.4-19.8,19.8-19.8c9.9,0,19.8,7.4,19.8,19.8C486.1,269.6,478.7,279.6,468.8,279.6
			z"/>
	</g>
</g>
</svg>
