<?xml version="1.0" encoding="utf-8"?>
<!-- Generator: Adobe Illustrator 18.0.0, SVG Export Plug-In . SVG Version: 6.00 Build 0)  -->
<!DOCTYPE svg PUBLIC "-//W3C//DTD SVG 1.1//EN" "http://www.w3.org/Graphics/SVG/1.1/DTD/svg11.dtd">
<svg version="1.1" id="Capa_1" xmlns="http://www.w3.org/2000/svg" xmlns:xlink="http://www.w3.org/1999/xlink" x="0px" y="0px"
	 viewBox="0 0 595.3 841.9" enable-background="new 0 0 595.3 841.9" xml:space="preserve">
<g id="guia" display="none">
</g>
<g id="guia2">
</g>
<g id="Capa_3">
	<g id="guia_1_">
	</g>
	<path fill="#FFFFFF" d="M478.7,450.7c-5-9.9-17.4-12.4-24.8-5c-9.9,7.4-32.2,17.4-52.1,27.3c-22.3,9.9-44.6,19.8-52.1,27.3
		c-24.8,17.4-76.9,76.9-84.3,81.9c-12.4,12.4-27.3,17.4-44.6,17.4l0,0c-17.4,0-32.2-7.4-44.6-17.4c-19.8-19.8-22.3-52.1-7.4-76.9
		l5,5c7.4,5,14.9,9.9,22.3,9.9c7.4,0,14.9-2.5,22.3-9.9L377,351.5l0,0l12.4-12.4c32.2-32.2,49.6-89.3,22.3-119.1
		c-9.9-9.9-22.3-14.9-37.2-14.9c-24.8,0-57,14.9-79.4,37.2L124,416c-12.4,12.4-12.4,32.2,0,44.6l17.4,17.4
		c-29.8,37.2-27.3,91.8,7.4,129c19.8,19.8,44.6,29.8,69.4,29.8l0,0c27.3,0,52.1-9.9,71.9-29.8c14.9-17.4,59.5-64.5,76.9-76.9
		c7.4-5,29.8-14.9,47.1-24.8c22.3-9.9,44.6-19.8,57-27.3C481.2,470.6,483.7,458.2,478.7,450.7z M322.4,269.6
		c14.9-14.9,37.2-24.8,54.6-24.8c2.5,0,7.4,0,9.9,2.5c7.4,7.4,2.5,37.2-17.4,59.5L198.4,478l-42.2-42.2L322.4,269.6z"/>
</g>
</svg>
