<?xml version="1.0" encoding="utf-8"?>
<!-- Generator: Adobe Illustrator 18.0.0, SVG Export Plug-In . SVG Version: 6.00 Build 0)  -->
<!DOCTYPE svg PUBLIC "-//W3C//DTD SVG 1.1//EN" "http://www.w3.org/Graphics/SVG/1.1/DTD/svg11.dtd">
<svg version="1.1" id="Capa_1" xmlns="http://www.w3.org/2000/svg" xmlns:xlink="http://www.w3.org/1999/xlink" x="0px" y="0px"
	 viewBox="0 0 595.3 841.9" enable-background="new 0 0 595.3 841.9" xml:space="preserve">
<g id="guia" display="none">
</g>
<g id="guia2">
</g>
<g id="Capa_3">
	<path fill="#FFFFFF" d="M501,217.6c-14.9-14.9-39.7-14.9-54.6,0L94.3,572.2c-14.9,14.9-14.9,39.7,0,54.6s39.7,14.9,54.6,0
		L501,269.6C515.9,254.8,515.9,230,501,217.6z M243.1,438.3c0,0,2.5,0,5,0c0,0,0,2.5,0,5c0,0-2.5,0-5,0
		C240.6,443.3,240.6,440.8,243.1,438.3z M230.7,450.7c0,0,2.5,0,5,0c0,0,0,2.5,0,5c0,0-2.5,0-5,0
		C230.7,453.2,230.7,450.7,230.7,450.7z M96.7,584.6c0,0,2.5,0,5,0c0,0,0,2.5,0,5c0,0-2.5,0-5,0C94.3,589.6,94.3,587.1,96.7,584.6z
		 M101.7,611.9c0,0-2.5,0-5,0c-2.5,0,0-2.5,0-5c0,0,2.5,0,5,0C101.7,607,101.7,609.5,101.7,611.9z M106.7,574.7c0,0,2.5,0,5,0
		c0,0,0,2.5,0,5c0,0-2.5,0-5,0C104.2,577.2,104.2,577.2,106.7,574.7z M106.7,597c0,0,2.5,0,5,0c0,0,0,2.5,0,5c0,0-2.5,0-5,0
		C106.7,599.5,106.7,597,106.7,597z M111.6,621.9c0,0-2.5,0-5,0s0-2.5,0-5c0,0,2.5,0,5,0S111.6,621.9,111.6,621.9z M116.6,564.8
		c0,0,2.5,0,5,0c0,0,0,2.5,0,5c0,0-2.5,0-5,0C116.6,567.3,116.6,567.3,116.6,564.8z M116.6,587.1c0,0,2.5,0,5,0c0,0,0,2.5,0,5
		c0,0-2.5,0-5,0C116.6,589.6,116.6,587.1,116.6,587.1z M121.5,611.9c0,0-2.5,0-5,0s0-2.5,0-5s2.5,0,5,0S124,609.5,121.5,611.9z
		 M126.5,554.9c0,0,2.5,0,5,0s0,2.5,0,5c0,0-2.5,0-5,0C126.5,557.4,126.5,554.9,126.5,554.9z M126.5,574.7c0,0,2.5,0,5,0
		c0,0,0,2.5,0,5c0,0-2.5,0-5,0C126.5,579.7,126.5,577.2,126.5,574.7z M129,597c0,0,2.5,0,5,0c0,0,0,2.5,0,5s-2.5,0-5,0
		S126.5,597,129,597z M131.5,621.9c0,0-2.5,0-5,0c0,0,0-2.5,0-5c0,0,2.5,0,5,0C133.9,619.4,133.9,621.9,131.5,621.9z M136.4,545
		c0,0,2.5,0,5,0s0,2.5,0,5s-2.5,0-5,0C136.4,547.4,136.4,545,136.4,545z M138.9,564.8c0,0,2.5,0,5,0c0,0,0,2.5,0,5c0,0-2.5,0-5,0
		C136.4,567.3,136.4,567.3,138.9,564.8z M138.9,587.1c0,0,2.5,0,5,0c2.5,0,0,2.5,0,5c0,0-2.5,0-5,0
		C136.4,589.6,136.4,587.1,138.9,587.1z M143.9,611.9c0,0-2.5,0-5,0c0,0,0-2.5,0-5c0,0,2.5,0,5,0
		C143.9,609.5,143.9,611.9,143.9,611.9z M148.8,535c0,0,2.5,0,5,0s0,2.5,0,5s-2.5,0-5,0C146.3,537.5,146.3,535,148.8,535z
		 M148.8,554.9c0,0,2.5,0,5,0c0,0,0,2.5,0,5c0,0-2.5,0-5,0C146.3,557.4,146.3,557.4,148.8,554.9z M148.8,577.2c0,0,2.5,0,5,0
		c0,0,0,2.5,0,5s-2.5,0-5,0S146.3,577.2,148.8,577.2z M153.8,602c0,0-2.5,0-5,0c0,0,0-2.5,0-5s2.5,0,5,0S153.8,599.5,153.8,602z
		 M158.7,522.6c0,0,2.5,0,5,0c0,0,0,2.5,0,5s-2.5,0-5,0S156.3,525.1,158.7,522.6z M158.7,545c0,0,2.5,0,5,0s0,2.5,0,5c0,0-2.5,0-5,0
		C156.3,547.4,156.3,545,158.7,545z M158.7,564.8c0,0,2.5,0,5,0c0,0,0,2.5,0,5c0,0-2.5,0-5,0C158.7,569.8,158.7,567.3,158.7,564.8z
		 M163.7,592.1c0,0-2.5,0-5,0s0-2.5,0-5s2.5,0,5,0C163.7,589.6,163.7,589.6,163.7,592.1z M168.7,512.7c0,0,2.5,0,5,0c0,0,0,2.5,0,5
		c0,0-2.5,0-5,0C166.2,515.2,166.2,515.2,168.7,512.7z M168.7,535c0,0,2.5,0,5,0s0,2.5,0,5s-2.5,0-5,0S168.7,535,168.7,535z
		 M168.7,554.9c0,0,2.5,0,5,0c0,0,0,2.5,0,5c0,0-2.5,0-5,0C168.7,559.8,168.7,557.4,168.7,554.9z M173.6,582.2c0,0-2.5,0-5,0
		s0-2.5,0-5s2.5,0,5,0S176.1,579.7,173.6,582.2z M178.6,502.8c0,0,2.5,0,5,0c0,0,0,2.5,0,5c0,0-2.5,0-5,0
		C178.6,505.3,178.6,505.3,178.6,502.8z M178.6,525.1c0,0,2.5,0,5,0s0,2.5,0,5c0,0-2.5,0-5,0C178.6,527.6,178.6,525.1,178.6,525.1z
		 M178.6,545c0,0,2.5,0,5,0c0,0,0,2.5,0,5c0,0-2.5,0-5,0C178.6,547.4,178.6,547.4,178.6,545z M183.5,569.8c0,0-2.5,0-5,0s0-2.5,0-5
		c0,0,2.5,0,5,0C186,567.3,186,569.8,183.5,569.8z M188.5,492.9c0,0,2.5,0,5,0c0,0,0,2.5,0,5c0,0-2.5,0-5,0
		C188.5,495.4,188.5,492.9,188.5,492.9z M188.5,512.7c0,0,2.5,0,5,0s0,2.5,0,5c0,2.5-2.5,0-5,0S188.5,515.2,188.5,512.7z M191,535
		c0,0,2.5,0,5,0c0,0,0,2.5,0,5c0,0-2.5,0-5,0C188.5,537.5,188.5,535,191,535z M193.5,559.8c0,0-2.5,0-5,0c0,0,0-2.5,0-5
		c0,0,2.5,0,5,0C195.9,557.4,195.9,559.8,193.5,559.8z M198.4,483c0,0,2.5,0,5,0c0,0,0,2.5,0,5c0,0-2.5,0-5,0
		C198.4,485.4,198.4,483,198.4,483z M200.9,502.8c0,0,2.5,0,5,0s0,2.5,0,5s-2.5,0-5,0S198.4,505.3,200.9,502.8z M200.9,525.1
		c0,0,2.5,0,5,0c0,0,0,2.5,0,5c0,0-2.5,0-5,0C198.4,527.6,198.4,525.1,200.9,525.1z M205.9,549.9c0,0-2.5,0-5,0s0-2.5,0-5
		c0,0,2.5,0,5,0C205.9,547.4,205.9,549.9,205.9,549.9z M210.8,473c0,0,2.5,0,5,0c0,0,0,2.5,0,5c0,0-2.5,0-5,0
		C208.3,475.5,208.3,473,210.8,473z M210.8,492.9c0,0,2.5,0,5,0c0,0,0,2.5,0,5c0,2.5-2.5,0-5,0C208.3,497.8,208.3,495.4,210.8,492.9
		z M210.8,515.2c0,0,2.5,0,5,0c2.5,0,0,2.5,0,5c0,0-2.5,0-5,0C208.3,517.7,208.3,515.2,210.8,515.2z M215.8,540c0,0-2.5,0-5,0
		c0,0,0-2.5,0-5c0,0,2.5,0,5,0C215.8,537.5,215.8,537.5,215.8,540z M220.7,460.6c0,0,2.5,0,5,0c2.5,0,0,2.5,0,5c0,0-2.5,0-5,0
		C218.3,465.6,218.3,463.1,220.7,460.6z M220.7,483c0,0,2.5,0,5,0c0,0,0,2.5,0,5c0,0-2.5,0-5,0C218.3,485.4,218.3,483,220.7,483z
		 M220.7,502.8c0,0,2.5,0,5,0c2.5,0,0,2.5,0,5s-2.5,0-5,0C218.3,507.8,220.7,505.3,220.7,502.8z M225.7,530.1c0,0-2.5,0-5,0
		c0,0,0-2.5,0-5c0,0,2.5,0,5,0C225.7,525.1,225.7,527.6,225.7,530.1z M230.7,473c0,0,2.5,0,5,0c0,0,0,2.5,0,5c0,0-2.5,0-5,0
		C230.7,475.5,230.7,473,230.7,473z M230.7,492.9c0,0,2.5,0,5,0s0,2.5,0,5c0,2.5-2.5,0-5,0S230.7,495.4,230.7,492.9z M235.6,520.2
		c0,0-2.5,0-5,0c0,0,0-2.5,0-5c0,0,2.5,0,5,0C238.1,515.2,238.1,517.7,235.6,520.2z M240.6,483c0,0,2.5,0,5,0c0,0,0,2.5,0,5
		c0,2.5-2.5,0-5,0S240.6,485.4,240.6,483z M245.6,507.8c0,0-2.5,0-5,0c0,0,0-2.5,0-5s2.5,0,5,0S248,507.8,245.6,507.8z M248,465.6
		c0,0-2.5,0-5,0s0-2.5,0-5c0,0,2.5,0,5,0C248,460.6,248,463.1,248,465.6z M253,428.4c0,0,2.5,0,5,0c0,0,0,2.5,0,5c0,0-2.5,0-5,0
		C250.5,430.9,250.5,430.9,253,428.4z M258,453.2c0,0-2.5,0-5,0c0,0,0-2.5,0-5c0,0,2.5,0,5,0C258,450.7,258,453.2,258,453.2z
		 M258,497.8c0,0-2.5,0-5,0c0,0,0-2.5,0-5c0,0,2.5,0,5,0C258,495.4,258,497.8,258,497.8z M258,475.5c0,0-2.5,0-5,0s0-2.5,0-5
		s2.5,0,5,0C260.4,470.6,258,475.5,258,475.5z M262.9,418.5c0,0,2.5,0,5,0c0,0,0,2.5,0,5c0,0-2.5,0-5,0
		C262.9,420.9,262.9,420.9,262.9,418.5z M262.9,440.8c0,0,2.5,0,5,0c0,0,0,2.5,0,5c0,0-2.5,0-5,0
		C262.9,443.3,262.9,440.8,262.9,440.8z M262.9,460.6c0,0,2.5,0,5,0c2.5,0,0,2.5,0,5s-2.5,0-5,0
		C260.4,465.6,262.9,463.1,262.9,460.6z M267.9,485.4c0,0-2.5,0-5,0c0,0,0-2.5,0-5c0,0,2.5,0,5,0C270.4,483,270.4,485.4,267.9,485.4
		z M272.8,408.5c0,0,2.5,0,5,0c2.5,0,0,2.5,0,5c0,0-2.5,0-5,0C272.8,411,272.8,408.5,272.8,408.5z M272.8,428.4c0,0,2.5,0,5,0
		c0,0,0,2.5,0,5c0,0-2.5,0-5,0C272.8,433.3,272.8,430.9,272.8,428.4z M275.3,450.7c0,0,2.5,0,5,0c0,0,0,2.5,0,5s-2.5,0-5,0
		C272.8,455.7,272.8,450.7,275.3,450.7z M277.8,475.5c0,0-2.5,0-5,0c0,0,0-2.5,0-5c0,0,2.5,0,5,0C280.3,473,280.3,475.5,277.8,475.5
		z M282.8,398.6c0,0,2.5,0,5,0c2.5,0,0,2.5,0,5c0,2.5-2.5,0-5,0C282.8,401.1,282.8,398.6,282.8,398.6z M285.2,418.5c0,0,2.5,0,5,0
		c0,0,0,2.5,0,5c0,0-2.5,0-5,0C282.8,423.4,282.8,420.9,285.2,418.5z M285.2,440.8c0,0,2.5,0,5,0s0,2.5,0,5s-2.5,0-5,0
		C282.8,445.7,282.8,440.8,285.2,440.8z M290.2,465.6c0,0-2.5,0-5,0c0,0,0-2.5,0-5c0,0,2.5,0,5,0
		C290.2,463.1,290.2,465.6,290.2,465.6z M295.2,408.5c0,0,2.5,0,5,0c0,0,0,2.5,0,5c0,0-2.5,0-5,0C292.7,411,292.7,411,295.2,408.5z
		 M295.2,430.9c0,0,2.5,0,5,0c0,0,0,2.5,0,5s-2.5,0-5,0C292.7,433.3,292.7,430.9,295.2,430.9z M300.1,455.7c0,0-2.5,0-5,0
		c0,0,0-2.5,0-5s2.5,0,5,0S300.1,453.2,300.1,455.7z M310,445.7c0,0-2.5,0-5,0s0-2.5,0-5s2.5,0,5,0S310,443.3,310,445.7z
		 M305.1,418.5c0,0,2.5,0,5,0c0,0,0,2.5,0,5c0,0-2.5,0-5,0C305.1,423.4,305.1,420.9,305.1,418.5z M320,435.8c0,0-2.5,0-5,0
		s0-2.5,0-5s2.5,0,5,0C322.4,430.9,322.4,433.3,320,435.8z M493.6,269.6L337.3,425.9l-44.6-44.6L448.9,225
		c14.9-14.9,37.2-17.4,49.6-5C510.9,232.4,508.5,254.8,493.6,269.6z"/>
</g>
</svg>
