<?xml version="1.0" encoding="utf-8"?>
<!-- Generator: Adobe Illustrator 18.0.0, SVG Export Plug-In . SVG Version: 6.00 Build 0)  -->
<!DOCTYPE svg PUBLIC "-//W3C//DTD SVG 1.1//EN" "http://www.w3.org/Graphics/SVG/1.1/DTD/svg11.dtd">
<svg version="1.1" id="Capa_1" xmlns="http://www.w3.org/2000/svg" xmlns:xlink="http://www.w3.org/1999/xlink" x="0px" y="0px"
	 viewBox="0 0 595.3 841.9" enable-background="new 0 0 595.3 841.9" xml:space="preserve">
<g id="guia" display="none">
</g>
<g id="guia2">
</g>
<g id="Capa_3">
	<g id="guia_1_">
	</g>
	<g>
		<path fill="#FFFFFF" d="M367.1,185.3H228.2c-17.4,0-32.2,14.9-32.2,32.2v124v5v307.6h203.4V346.5v-5v-124
			C399.3,200.2,384.5,185.3,367.1,185.3z M228.2,215.1h136.4c2.5,0,5,2.5,5,5v119.1l-29.8-32.2h-17.4v-44.6h-49.6v44.6h-17.4
			l-29.8,29.8V217.6C225.7,215.1,225.7,215.1,228.2,215.1z M287.7,296.9v-19.8H310v19.8H287.7z M369.6,626.8H225.7v-258h146.3v258
			H369.6z"/>
		<path fill="#FFFFFF" d="M297.6,545c14.9,0,29.8-7.4,37.2-19.8s7.4-29.8,0-42.2l-37.2-67l-37.2,62c-7.4,14.9-7.4,29.8,0,42.2
			C267.9,535,282.8,545,297.6,545z M285.2,492.9l12.4-19.8l12.4,19.8c2.5,5,2.5,9.9,0,14.9c-5,7.4-19.8,7.4-24.8,0
			C282.8,505.3,282.8,497.8,285.2,492.9z"/>
	</g>
</g>
</svg>
