<?xml version="1.0" encoding="utf-8"?>
<!-- Generator: Adobe Illustrator 18.0.0, SVG Export Plug-In . SVG Version: 6.00 Build 0)  -->
<!DOCTYPE svg PUBLIC "-//W3C//DTD SVG 1.1//EN" "http://www.w3.org/Graphics/SVG/1.1/DTD/svg11.dtd">
<svg version="1.1" id="Capa_1" xmlns="http://www.w3.org/2000/svg" xmlns:xlink="http://www.w3.org/1999/xlink" x="0px" y="0px"
	 viewBox="0 0 595.3 841.9" enable-background="new 0 0 595.3 841.9" xml:space="preserve">
<g id="guia" display="none">
</g>
<g id="guia2">
</g>
<g id="Capa_3">
	<g id="guia_1_">
	</g>
	<g>
		<path fill="#FFFFFF" d="M228.2,376.3c19.8-7.4,44.6-9.9,69.4-9.9c24.8,0,49.6,5,69.4,9.9h2.5c2.5,0,7.4-2.5,7.4-5
			c2.5-5,0-7.4-5-9.9c-19.8-7.4-47.1-12.4-74.4-12.4s-54.6,5-74.4,12.4c-5,2.5-7.4,7.4-5,9.9C218.3,376.3,223.2,378.8,228.2,376.3z"
			/>
		<path fill="#FFFFFF" d="M461.3,416c0-5,2.5-9.9,2.5-17.4c0-47.1-32.2-89.3-76.9-99.2c-7.4-2.5-19.8-5-27.3-5
			c-37.2-5-71.9-5-119.1,0c-9.9,0-24.8,5-34.7,7.4c-42.2,14.9-71.9,54.6-71.9,99.2c0,5,0,9.9,2.5,17.4
			c-37.2,7.4-71.9,24.8-71.9,52.1c0,47.1,96.7,81.9,235.6,81.9s235.6-34.7,235.6-81.9C533.3,440.8,508.5,423.4,461.3,416z
			 M213.3,329.2c7.4-2.5,19.8-5,27.3-5c22.3-2.5,39.7-2.5,59.5-2.5c19.8,0,37.2,0,54.6,2.5c7.4,0,17.4,2.5,24.8,5
			c32.2,7.4,54.6,37.2,54.6,71.9c0,39.7-32.2,67-74.4,67h-124c-42.2,0-74.4-27.3-74.4-67C161.2,368.9,181.1,339.1,213.3,329.2z
			 M297.6,522.6c-156.3,0-208.3-39.7-208.3-52.1c0-5,17.4-19.8,52.1-24.8c14.9,32.2,49.6,52.1,94.3,52.1h124
			c44.6,0,76.9-19.8,94.3-52.1c37.2,5,52.1,14.9,52.1,24.8C506,483,453.9,522.6,297.6,522.6z"/>
	</g>
</g>
</svg>
