<?xml version="1.0" encoding="utf-8"?>
<!-- Generator: Adobe Illustrator 18.0.0, SVG Export Plug-In . SVG Version: 6.00 Build 0)  -->
<!DOCTYPE svg PUBLIC "-//W3C//DTD SVG 1.1//EN" "http://www.w3.org/Graphics/SVG/1.1/DTD/svg11.dtd">
<svg version="1.1" id="Capa_1" xmlns="http://www.w3.org/2000/svg" xmlns:xlink="http://www.w3.org/1999/xlink" x="0px" y="0px"
	 viewBox="0 0 595.3 841.9" enable-background="new 0 0 595.3 841.9" xml:space="preserve">
<g id="guia" display="none">
</g>
<g id="guia2">
</g>
<g id="Capa_3">
	<path fill="#FFFFFF" d="M374.5,185.3c5,0,9.9,5,9.9,9.9v451.4c0,5-5,9.9-9.9,9.9h-5c-5,0-9.9-5-9.9-9.9V192.8c0-5,5-9.9,9.9-9.9
		L374.5,185.3L374.5,185.3z M426.6,195.2c9.9,0,19.8,7.4,19.8,19.8v62c0,9.9-7.4,19.8-19.8,19.8h-34.7V195.2H426.6L426.6,195.2z
		 M270.4,274.6c0,5,2.5,27.3,5,57L166.2,440.8c5-79.4,9.9-156.3,9.9-166.2L270.4,274.6L270.4,274.6z M277.8,361.4l2.5,34.7
		L161.2,515.2l2.5-39.7L277.8,361.4L277.8,361.4z M280.3,428.4c5,76.9,9.9,158.7,14.9,193.5H151.3c2.5-14.9,2.5-39.7,5-71.9
		L280.3,428.4L280.3,428.4z M148.8,656.6l2.5-22.3h143.9l2.5,22.3H148.8L148.8,656.6z M245.6,234.9l24.8,27.3h-91.8l24.8-27.3H245.6
		L245.6,234.9z M203.4,192.8c0-5,5-9.9,9.9-9.9h22.3c5,0,9.9,5,9.9,9.9V225h-42.2V192.8L203.4,192.8z"/>
</g>
</svg>
