<?xml version="1.0" encoding="utf-8"?>
<!-- Generator: Adobe Illustrator 18.0.0, SVG Export Plug-In . SVG Version: 6.00 Build 0)  -->
<!DOCTYPE svg PUBLIC "-//W3C//DTD SVG 1.1//EN" "http://www.w3.org/Graphics/SVG/1.1/DTD/svg11.dtd">
<svg version="1.1" id="Capa_1" xmlns="http://www.w3.org/2000/svg" xmlns:xlink="http://www.w3.org/1999/xlink" x="0px" y="0px"
	 viewBox="0 0 595.3 841.9" enable-background="new 0 0 595.3 841.9" xml:space="preserve">
<g id="guia" display="none">
</g>
<g id="guia2">
</g>
<g id="Capa_3">
	<g id="guia_1_">
	</g>
	<g>
		<path fill="#FFFFFF" d="M481.2,453.2L262.9,234.9c-19.8-19.8-47.1-29.8-74.4-29.8s-54.6,9.9-74.4,29.8l-2.5,5
			c-19.8,19.8-29.8,47.1-29.8,74.4c0,27.3,9.9,54.6,29.8,74.4L329.9,607c19.8,19.8,47.1,29.8,74.4,29.8l0,0l0,0
			c27.3,0,54.6-9.9,74.4-29.8l5-2.5c19.8-19.8,29.8-47.1,29.8-74.4C513.4,500.3,503.5,473,481.2,453.2z M468.8,587.1l-2.5,5
			c-17.4,17.4-39.7,24.8-59.5,24.8c-22.3,0-44.6-7.4-59.5-24.8L129,373.8c-17.4-17.4-24.8-39.7-24.8-59.5c0-22.3,7.4-44.6,24.8-59.5
			l5-5c17.4-17.4,39.7-24.8,59.5-24.8s44.6,7.4,59.5,24.8l218.3,218.3c17.4,17.4,24.8,39.7,24.8,59.5
			C493.6,549.9,486.1,572.2,468.8,587.1z"/>
		<path fill="#FFFFFF" d="M416.7,443.3c0-2.5,0-5-2.5-7.4L282.8,304.4c-5-5-9.9-5-14.9,0l-86.8,86.8c-5,5-5,9.9,0,14.9l131.5,131.5
			c2.5,2.5,5,2.5,7.4,2.5s5,0,7.4-2.5l86.8-86.8C414.2,448.2,416.7,445.7,416.7,443.3z M320,515.2L203.4,398.6l71.9-71.9
			l116.6,116.6L320,515.2z"/>
		<circle fill="#FFFFFF" cx="158.7" cy="354" r="14.9"/>
		<circle fill="#FFFFFF" cx="193.5" cy="316.8" r="14.9"/>
		<circle fill="#FFFFFF" cx="230.7" cy="282" r="14.9"/>
		<circle fill="#FFFFFF" cx="141.4" cy="301.9" r="14.9"/>
		<circle fill="#FFFFFF" cx="178.6" cy="264.7" r="14.9"/>
		<circle fill="#FFFFFF" cx="436.5" cy="485.4" r="14.9"/>
		<circle fill="#FFFFFF" cx="399.3" cy="522.6" r="14.9"/>
		<circle fill="#FFFFFF" cx="362.1" cy="559.8" r="14.9"/>
		<circle fill="#FFFFFF" cx="451.4" cy="540" r="14.9"/>
		<circle fill="#FFFFFF" cx="416.7" cy="574.7" r="14.9"/>
	</g>
</g>
</svg>
