<?xml version="1.0" encoding="utf-8"?>
<!-- Generator: Adobe Illustrator 18.0.0, SVG Export Plug-In . SVG Version: 6.00 Build 0)  -->
<!DOCTYPE svg PUBLIC "-//W3C//DTD SVG 1.1//EN" "http://www.w3.org/Graphics/SVG/1.1/DTD/svg11.dtd">
<svg version="1.1" id="Capa_1" xmlns="http://www.w3.org/2000/svg" xmlns:xlink="http://www.w3.org/1999/xlink" x="0px" y="0px"
	 viewBox="0 0 595.3 841.9" enable-background="new 0 0 595.3 841.9" xml:space="preserve">
<g id="guia" display="none">
</g>
<g id="guia2">
</g>
<g id="Capa_3">
	<g id="guia_1_" display="none">
	</g>
	<g id="guia2_1_">
	</g>
	<path fill="#FFFFFF" d="M525.8,366.4c0-57-47.1-101.7-101.7-101.7c-12.4,0-24.8,2.5-37.2,7.4c-19.8-27.3-49.6-44.6-84.3-44.6
		c-44.6,0-84.3,29.8-96.7,71.9c-12.4-7.4-22.3-9.9-32.2-9.9c-57,0-101.7,47.1-101.7,101.7c0,44.6,27.3,81.9,69.4,96.7
		c-2.5,7.4-2.5,17.4-2.5,24.8c0,57,47.1,101.7,101.7,101.7c27.3,0,52.1-9.9,71.9-29.8c17.4,12.4,37.2,19.8,59.5,19.8
		c57,0,101.7-47.1,101.7-101.7c0-14.9-2.5-29.8-9.9-44.6C501,443.3,525.8,406.1,525.8,366.4z M441.5,440.8l-17.4,5l9.9,14.9
		c9.9,12.4,14.9,27.3,14.9,44.6c0,42.2-34.7,76.9-76.9,76.9c-19.8,0-37.2-7.4-52.1-19.8l-9.9-9.9l-7.4,9.9
		c-14.9,19.8-37.2,29.8-62,29.8c-42.2,0-76.9-34.7-76.9-76.9c0-9.9,2.5-19.8,5-27.3l5-14.9l-17.4-2.5c-37.2-7.4-62-39.7-62-76.9
		c0-42.2,34.7-76.9,76.9-76.9c12.4,0,22.3,2.5,34.7,7.4l14.9,7.4l2.5-17.4c7.4-37.2,39.7-64.5,76.9-64.5c29.8,0,54.6,14.9,69.4,42.2
		l5,9.9l12.4-5c9.9-7.4,22.3-9.9,34.7-9.9c42.2,0,76.9,34.7,76.9,76.9C501,401.1,476.2,433.3,441.5,440.8z"/>
</g>
</svg>
