<?xml version="1.0" encoding="utf-8"?>
<!-- Generator: Adobe Illustrator 18.0.0, SVG Export Plug-In . SVG Version: 6.00 Build 0)  -->
<!DOCTYPE svg PUBLIC "-//W3C//DTD SVG 1.1//EN" "http://www.w3.org/Graphics/SVG/1.1/DTD/svg11.dtd">
<svg version="1.1" id="Capa_1" xmlns="http://www.w3.org/2000/svg" xmlns:xlink="http://www.w3.org/1999/xlink" x="0px" y="0px"
	 viewBox="0 0 595.3 841.9" enable-background="new 0 0 595.3 841.9" xml:space="preserve">
<g id="guia" display="none">
</g>
<g id="guia2">
</g>
<g id="Capa_3">
	<g id="guia_1_">
	</g>
	<path fill="#FFFFFF" d="M466.3,319.3l24.8-34.7l-99.2-71.9l-64.5,91.8l0,0L106.7,525.1c-5,5-5,14.9,0,19.8l81.9,81.9
		c5,5,14.9,5,19.8,0l223.2-223.2c2.5-2.5,5-7.4,2.5-12.4l52.1-52.1L466.3,319.3z M372.1,324.2L213.3,483l-7.4-7.4l158.7-158.7
		l-12.4-12.4l42.2-42.2l76.9,76.9l-42.2,42.2L372.1,324.2z M396.9,230l79.4,57l-17.4,24.8l-64.5-64.5l-32.2,32.2L396.9,230z"/>
</g>
</svg>
