<?xml version="1.0" encoding="utf-8"?>
<!-- Generator: Adobe Illustrator 18.0.0, SVG Export Plug-In . SVG Version: 6.00 Build 0)  -->
<!DOCTYPE svg PUBLIC "-//W3C//DTD SVG 1.1//EN" "http://www.w3.org/Graphics/SVG/1.1/DTD/svg11.dtd">
<svg version="1.1" id="Capa_1" xmlns="http://www.w3.org/2000/svg" xmlns:xlink="http://www.w3.org/1999/xlink" x="0px" y="0px"
	 viewBox="0 0 595.3 841.9" enable-background="new 0 0 595.3 841.9" xml:space="preserve">
<g id="guia" display="none">
</g>
<g id="guia2">
</g>
<g id="Capa_3">
	<g>
		<rect x="84.3" y="413.5" fill="#FFFFFF" width="419.2" height="5"/>
		<path fill="#FFFFFF" d="M101.7,475.5c0,14.9,22.3,27.3,49.6,27.3h285.2c27.3,0,49.6-12.4,49.6-27.3v-29.8H101.7V475.5z
			 M116.6,460.6h359.6v14.9c0,5-14.9,12.4-37.2,12.4H151.3c-22.3,0-37.2-7.4-37.2-12.4v-14.9H116.6z"/>
		<path fill="#FFFFFF" d="M488.6,366.4c0-12.4-17.4-27.3-49.6-27.3h-52.1l-2.5,2.5c0,5-5,7.4-12.4,7.4s-12.4-2.5-14.9-5l-2.5-2.5
			h-22.3l-2.5,2.5c-2.5,2.5-7.4,5-12.4,5s-9.9-2.5-12.4-5l-2.5-2.5h-17.4l-2.5,2.5c-2.5,2.5-7.4,5-12.4,5s-12.4-2.5-14.9-5l-2.5-2.5
			h-19.8l-2.5,2.5c-2.5,2.5-7.4,5-12.4,5c-7.4,0-12.4-2.5-14.9-5l-2.5-5h-49.6c-32.2,0-49.6,12.4-49.6,27.3v39.7h386.9V366.4z
			 M473.7,393.7H116.6v-27.3c0-5,14.9-12.4,37.2-12.4h42.2c2.5,5,12.4,7.4,22.3,7.4c9.9,0,17.4-2.5,22.3-9.9h7.4
			c5,5,12.4,9.9,22.3,9.9s17.4-2.5,22.3-9.9h5c5,5,12.4,9.9,22.3,9.9s17.4-2.5,22.3-9.9h7.4c5,5,12.4,9.9,22.3,9.9
			s17.4-2.5,22.3-9.9H439c22.3,0,37.2,7.4,37.2,12.4L473.7,393.7L473.7,393.7z"/>
		<path fill="#FFFFFF" d="M523.4,420.9H67c-5,0-7.4,5-7.4,7.4c0,5,2.5,7.4,7.4,7.4h456.4c5,0,7.4-2.5,7.4-7.4
			C530.8,425.9,528.3,420.9,523.4,420.9z M94.3,433.3c-12.4,0-19.8-2.5-19.8-5s9.9-5,19.8-5c12.4,0,19.8,2.5,19.8,5
			S106.7,433.3,94.3,433.3z M141.4,433.3c-7.4,0-12.4,0-12.4-2.5s5-2.5,12.4-2.5c7.4,0,12.4,0,12.4,2.5
			C153.8,430.9,148.8,433.3,141.4,433.3z M186,433.3c-12.4,0-19.8-2.5-19.8-5s9.9-5,19.8-5c12.4,0,19.8,2.5,19.8,5
			C205.9,433.3,195.9,433.3,186,433.3z M233.2,433.3c-7.4,0-12.4,0-12.4-2.5s5-2.5,12.4-2.5c7.4,0,12.4,0,12.4,2.5
			S240.6,433.3,233.2,433.3z M275.3,433.3c-12.4,0-19.8-2.5-19.8-5s9.9-5,19.8-5c9.9,0,19.8,2.5,19.8,5S287.7,433.3,275.3,433.3z
			 M322.4,433.3c-7.4,0-12.4,0-12.4-2.5s5-2.5,12.4-2.5s12.4,0,12.4,2.5C334.8,430.9,329.9,433.3,322.4,433.3z M367.1,433.3
			c-12.4,0-19.8-2.5-19.8-5s9.9-5,19.8-5c12.4,0,19.8,2.5,19.8,5C386.9,433.3,379.5,433.3,367.1,433.3z M414.2,433.3
			c-7.4,0-12.4,0-12.4-2.5s5-2.5,12.4-2.5s12.4,0,12.4,2.5S421.7,433.3,414.2,433.3z M458.9,433.3c-12.4,0-19.8-2.5-19.8-5
			s9.9-5,19.8-5c12.4,0,19.8,2.5,19.8,5C478.7,433.3,468.8,433.3,458.9,433.3z M506,433.3c-7.4,0-12.4,0-12.4-2.5s5-2.5,12.4-2.5
			s12.4,0,12.4,2.5S510.9,433.3,506,433.3z"/>
	</g>
</g>
</svg>
