<?xml version="1.0" encoding="utf-8"?>
<!-- Generator: Adobe Illustrator 18.0.0, SVG Export Plug-In . SVG Version: 6.00 Build 0)  -->
<!DOCTYPE svg PUBLIC "-//W3C//DTD SVG 1.1//EN" "http://www.w3.org/Graphics/SVG/1.1/DTD/svg11.dtd">
<svg version="1.1" id="Capa_1" xmlns="http://www.w3.org/2000/svg" xmlns:xlink="http://www.w3.org/1999/xlink" x="0px" y="0px"
	 viewBox="0 0 595.3 841.9" enable-background="new 0 0 595.3 841.9" xml:space="preserve">
<g id="guia" display="none">
</g>
<g id="guia2">
</g>
<g id="Capa_3">
	<g id="guia_1_">
	</g>
	<path fill="#FFFFFF" d="M486.1,391.2v-12.4c0-44.6-42.2-79.4-104.2-99.2c9.9-27.3,5-54.6,5-57l-2.5-5h-5c0,0-5,0-14.9,0
		c-14.9,0-39.7,2.5-59.5,22.3c-2.5-2.5-5-7.4-7.4-9.9c-19.8-19.8-47.1-22.3-59.5-22.3c-7.4,0-14.9,0-14.9,0h-5l-5,5
		c0,2.5-7.4,34.7,7.4,62c-76.9,14.9-131.5,54.6-131.5,104.2v52.1c0,7.4,2.5,12.4,5,19.8c-7.4,12.4-12.4,24.8-12.4,39.7v52.1
		c0,52.1,86.8,94.3,198.4,94.3c101.7,0,183.5-34.7,195.9-81.9c19.8-12.4,32.2-29.8,34.7-47.1l5-49.6
		C515.9,433.3,506,411,486.1,391.2z M287.7,349c-2.5,5-5,12.4-9.9,14.9c-7.4,7.4-14.9,9.9-24.8,9.9c-19.8,0-34.7-14.9-34.7-34.7
		c-2.5-17.4,12.4-32.2,29.8-34.7h2.5c12.4,0,22.3,5,29.8,14.9c5,5,7.4,12.4,7.4,19.8C287.7,344.1,287.7,346.5,287.7,349z
		 M369.6,242.4c0,12.4,0,32.2-14.9,47.1c-5,5-9.9,9.9-17.4,12.4c-5-5-12.4-9.9-19.8-12.4C327.4,277.1,342.3,257.2,369.6,242.4z
		 M315,252.3c7.4-7.4,17.4-12.4,27.3-14.9c-12.4,9.9-19.8,17.4-27.3,27.3c0-2.5,0-5-2.5-9.9C312.5,254.8,315,252.3,315,252.3z
		 M305.1,304.4c14.9,0,27.3,12.4,27.3,27.3c0,14.9-12.4,27.3-27.3,27.3h-2.5c2.5-5,2.5-12.4,2.5-17.4c0-12.4-5-24.8-12.4-32.2
		C297.6,304.4,302.6,304.4,305.1,304.4z M297.6,287L297.6,287c-7.4,2.5-12.4,5-17.4,7.4c-5-2.5-12.4-5-19.8-7.4l0,0
		c0-9.9,7.4-17.4,17.4-17.4C290.2,269.6,297.6,277.1,297.6,287z M282.8,239.9c2.5,2.5,7.4,7.4,7.4,12.4c-2.5,0-7.4-2.5-9.9-2.5
		c-7.4-7.4-14.9-17.4-27.3-24.8C265.4,227.5,275.3,232.4,282.8,239.9z M230.7,230c12.4,7.4,24.8,17.4,32.2,24.8
		c-9.9,5-14.9,12.4-17.4,22.3l0,0C230.7,262.2,230.7,242.4,230.7,230z M109.1,428.4c29.8,39.7,99.2,64.5,178.6,64.5
		c81.9,0,148.8-27.3,178.6-64.5v5c0,42.2-81.9,76.9-178.6,76.9s-178.6-34.7-178.6-76.9C109.1,430.9,109.1,428.4,109.1,428.4z
		 M280.3,619.4c-99.2,0-181.1-37.2-181.1-76.9v-5C129,574.7,198.4,602,277.8,602c44.6,0,84.3-7.4,116.6-22.3
		c17.4-2.5,32.2-7.4,47.1-12.4c2.5,0,2.5,0,5-2.5C421.7,597,354.7,619.4,280.3,619.4z M491.1,505.3c-2.5,19.8-19.8,34.7-54.6,47.1
		s-81.9,17.4-129,12.4c-79.4-7.4-146.3-37.2-166.2-69.4c12.4,7.4,27.3,12.4,44.6,17.4c34.7,19.8,76.9,32.2,124,37.2
		c9.9,0,19.8,2.5,29.8,2.5c67,0,124-19.8,153.8-49.6L491.1,505.3z"/>
</g>
</svg>
