<?xml version="1.0" encoding="utf-8"?>
<!-- Generator: Adobe Illustrator 18.0.0, SVG Export Plug-In . SVG Version: 6.00 Build 0)  -->
<!DOCTYPE svg PUBLIC "-//W3C//DTD SVG 1.1//EN" "http://www.w3.org/Graphics/SVG/1.1/DTD/svg11.dtd">
<svg version="1.1" id="Capa_1" xmlns="http://www.w3.org/2000/svg" xmlns:xlink="http://www.w3.org/1999/xlink" x="0px" y="0px"
	 viewBox="0 0 595.3 841.9" enable-background="new 0 0 595.3 841.9" xml:space="preserve">
<g id="guia" display="none">
</g>
<g id="guia2">
</g>
<g id="Capa_3">
	<g id="guia_1_">
	</g>
	<path fill="#FFFFFF" d="M463.8,349h-44.6c2.5-7.4,5-14.9,5-19.8c0-24.8-19.8-47.1-44.6-49.6c-9.9-29.8-39.7-49.6-74.4-47.1
		c-14.9-17.4-34.7-27.3-59.5-27.3c-27.3,0-52.1,14.9-64.5,37.2c-12.4-2.5-22.3,0-34.7,2.5c-37.2,9.9-62,42.2-64.5,81.9
		c0,2.5,0,2.5,0,5c0,37.2,22.3,69.4,54.6,81.9v186c0,19.8,17.4,37.2,37.2,37.2h198.4c19.8,0,37.2-17.4,37.2-37.2V545h24.8
		c81.9,0,81.9-111.6,81.9-146.3C513.4,361.4,483.7,349,463.8,349z M369.6,602H171.1v-37.2h198.4V602z M369.6,547.4H171.1v-124l0,0
		c5,0,12.4,0,17.4-2.5v109.1h54.6h17.4h17.4h19.8h54.6V386.2h17.4V547.4L369.6,547.4z M225.7,492.9v-89.3c7.4-5,12.4-9.9,17.4-17.4
		l0,0v106.7H225.7z M260.4,492.9V386.2h17.4v106.7H260.4z M297.6,492.9V386.2H315v106.7H297.6z M372.1,349H223.2l-5,9.9
		c-9.9,17.4-27.3,27.3-47.1,27.3c-29.8,0-54.6-24.8-54.6-54.6v-2.5c2.5-22.3,17.4-42.2,39.7-49.6c5-2.5,9.9-2.5,14.9-2.5
		s9.9,0,14.9,2.5l17.4,5l5-14.9c7.4-17.4,22.3-29.8,39.7-29.8c14.9,0,27.3,7.4,34.7,19.8l7.4,12.4l12.4-5c5,0,7.4-2.5,9.9-2.5
		c17.4,0,32.2,12.4,34.7,29.8l2.5,19.8l19.8-5h2.5c7.4,0,14.9,7.4,14.9,14.9C386.9,336.6,379.5,349,372.1,349z M431.6,510.2h-24.8
		V383.7h57c9.9,0,14.9,5,14.9,14.9C478.7,475.5,463.8,510.2,431.6,510.2z"/>
</g>
</svg>
