<?xml version="1.0" encoding="utf-8"?>
<!-- Generator: Adobe Illustrator 18.0.0, SVG Export Plug-In . SVG Version: 6.00 Build 0)  -->
<!DOCTYPE svg PUBLIC "-//W3C//DTD SVG 1.1//EN" "http://www.w3.org/Graphics/SVG/1.1/DTD/svg11.dtd">
<svg version="1.1" id="Capa_1" xmlns="http://www.w3.org/2000/svg" xmlns:xlink="http://www.w3.org/1999/xlink" x="0px" y="0px"
	 viewBox="0 0 595.3 841.9" enable-background="new 0 0 595.3 841.9" xml:space="preserve">
<g id="guia" display="none">
</g>
<g id="guia2">
</g>
<g id="Capa_3">
	<g id="guia_1_">
	</g>
	<path fill="#FFFFFF" d="M458.9,341.6l-34.7-69.4v-49.6c0-9.9-7.4-17.4-17.4-17.4H188.5c-9.9,0-17.4,7.4-17.4,17.4v49.6l-34.7,69.4
		c0,2.5,0,5,0,7.4v270.4c0,9.9,7.4,17.4,17.4,17.4h143.9h143.9c9.9,0,17.4-7.4,17.4-17.4V349C458.9,346.5,458.9,344.1,458.9,341.6z
		 M208.3,239.9h181.1v17.4H208.3V239.9z M424.1,602H297.6H171.1v-37.2h253V602L424.1,602z M230.7,497.8L230.7,497.8
		c-2.5,2.5-2.5,2.5-5,2.5l0,0h-2.5c0,0-2.5,0-2.5-2.5l-19.8-37.2v2.5v2.5v42.2H191v-64.5h7.4c0,0,0,0,2.5,0l0,0l0,0l0,0l22.3,37.2
		c0,0,0,2.5,2.5,2.5s0,2.5,2.5,2.5c0,0,0-2.5,2.5-2.5c0,0,0-2.5,2.5-2.5l19.8-37.2l0,0l0,0l0,0c0,0,0,0,2.5,0h9.9v64.5h-9.9v-42.2
		v-2.5v-2.5L230.7,497.8z M275.3,507.8v-64.5h12.4v64.5H275.3z M339.8,497.8v9.9h-37.2v-64.5H315v54.6L339.8,497.8L339.8,497.8z
		 M364.6,470.6h2.5c0,0,2.5,0,2.5-2.5l17.4-22.3l2.5-2.5h2.5h9.9L382,470.6l-2.5,2.5c0,0-2.5,0-2.5,2.5c0,0,2.5,0,2.5,2.5l2.5,2.5
		l22.3,29.8h-9.9c-2.5,0-2.5,0-2.5,0s-2.5,0-2.5-2.5L372.1,483l-2.5-2.5h-2.5h-5v29.8h-12.4v-64.5h12.4v24.8H364.6L364.6,470.6z
		 M424.1,383.7h-253V354l29.8-59.5h193.5l29.8,59.5V383.7z"/>
</g>
</svg>
