<?xml version="1.0" encoding="utf-8"?>
<!-- Generator: Adobe Illustrator 18.0.0, SVG Export Plug-In . SVG Version: 6.00 Build 0)  -->
<!DOCTYPE svg PUBLIC "-//W3C//DTD SVG 1.1//EN" "http://www.w3.org/Graphics/SVG/1.1/DTD/svg11.dtd">
<svg version="1.1" id="Capa_1" xmlns="http://www.w3.org/2000/svg" xmlns:xlink="http://www.w3.org/1999/xlink" x="0px" y="0px"
	 viewBox="0 0 595.3 841.9" enable-background="new 0 0 595.3 841.9" xml:space="preserve">
<g id="guia" display="none">
</g>
<g id="guia2">
</g>
<g id="Capa_3">
	<g>
		<path fill="#FFFFFF" d="M320,242.4L320,242.4c5,2.5,7.4,5,9.9,5h24.8h17.4h24.8c2.5,0,5,0,7.4-2.5c0,0,2.5,0,2.5-2.5
			c2.5-2.5,5-7.4,5-9.9v-14.9c0-2.5,2.5-29.8-39.7-29.8h-19.8c-42.2,0-39.7,27.3-39.7,29.8v14.9C315,234.9,317.5,239.9,320,242.4z"
			/>
		<path fill="#FFFFFF" d="M431.6,393.7c-9.9-17.4-19.8-32.2-19.8-67v-42.2c0-9.9-9.9-19.8-19.8-19.8h-59.5
			c-9.9,0-19.8,9.9-19.8,19.8v39.7c0,34.7-9.9,49.6-19.8,67c-9.9,17.4-19.8,34.7-19.8,67v176.1c0,9.9,9.9,19.8,19.8,19.8h136.4
			c9.9,0,19.8-9.9,19.8-19.8V458.2C451.4,428.4,439,408.5,431.6,393.7z M315,614.4V458.1h39.7c5,0,9.9,5,9.9,9.9v136.4
			c0,5-5,9.9-9.9,9.9L315,614.4L315,614.4z M354.7,304.4h17.4v22.3c0,37.2,9.9,59.5,17.4,76.9h-54.6c9.9-17.4,17.4-39.7,17.4-76.9
			v-22.3H354.7z"/>
		<path fill="#FFFFFF" d="M233.2,634.3h-29.8v-59.5c22.3-5,39.7-27.3,39.7-54.6c0-12.4-2.5-24.8-5-39.7c-2.5-17.4-5-39.7-7.4-71.9
			c0-5-5-9.9-9.9-9.9h-54.6c-5,0-9.9,5-9.9,9.9c0,32.2-5,54.6-7.4,71.9c-2.5,14.9-5,27.3-5,39.7c0,27.3,17.4,49.6,39.7,54.6v59.5
			h-29.8c-5,0-9.9,5-9.9,9.9c0,5,5,9.9,9.9,9.9h79.4c5,0,9.9-5,9.9-9.9C243.1,639.2,238.1,634.3,233.2,634.3z M163.7,522.6
			c0-12.4,2.5-22.3,5-37.2c2.5-17.4,5-37.2,5-64.5h37.2c0,27.3,5,47.1,7.4,64.5c2.5,14.9,5,24.8,5,34.7c0,19.8-12.4,34.7-29.8,34.7
			C176.1,557.4,163.7,540,163.7,522.6z"/>
		<path fill="#FFFFFF" d="M213.3,522.6c0-7.4,0-14.9-2.5-22.3h-34.7c-2.5,7.4-2.5,14.9-2.5,22.3c0,14.9,9.9,24.8,19.8,24.8
			C203.4,547.4,213.3,535,213.3,522.6z"/>
	</g>
</g>
</svg>
