<?xml version="1.0" encoding="utf-8"?>
<!-- Generator: Adobe Illustrator 18.0.0, SVG Export Plug-In . SVG Version: 6.00 Build 0)  -->
<!DOCTYPE svg PUBLIC "-//W3C//DTD SVG 1.1//EN" "http://www.w3.org/Graphics/SVG/1.1/DTD/svg11.dtd">
<svg version="1.1" id="Capa_1" xmlns="http://www.w3.org/2000/svg" xmlns:xlink="http://www.w3.org/1999/xlink" x="0px" y="0px"
	 viewBox="0 0 595.3 841.9" enable-background="new 0 0 595.3 841.9" xml:space="preserve">
<g id="guia" display="none">
</g>
<g id="guia2">
</g>
<g id="Capa_3">
	<g id="guia_1_">
	</g>
	<path fill="#FFFFFF" d="M530.8,294.4c0-17.4-14.9-29.8-34.7-29.8H96.7c-17.4,0-34.7,14.9-34.7,29.8v101.7c0,2.5,0,2.5,0,5
		c0,5,0,9.9,2.5,12.4c24.8,32.2,131.5,153.8,136.4,158.7c5,5,9.9,7.4,17.4,7.4h2.5h2.5c2.5,0,5,0,5,0h131.5c2.5,0,2.5,0,5,0
		c0,0,0,0,2.5,0l0,0h2.5h2.5h2.5c0,0,2.5,0,2.5-2.5c0,0,0,0,2.5,0c2.5,0,2.5-2.5,5-2.5l0,0l0,0l0,0c0,0,2.5-2.5,5-5
		c12.4-12.4,37.2-42.2,62-71.9c0-2.5,2.5-2.5,2.5-2.5c34.7-39.7,52.1-59.5,62-71.9c0-2.5,2.5-2.5,2.5-2.5l0,0
		c7.4-9.9,7.4-14.9,7.4-17.4L530.8,294.4L530.8,294.4z M501,299.4h-71.9c-17.4,0-32.2,12.4-32.2,29.8v27.3
		c0,14.9,14.9,29.8,32.2,29.8H501v2.5c-81.9,0-148.8,71.9-148.8,158.7c0,0,0,0,0,2.5H238.1c0,0,0,0,0-2.5
		c0-84.3-64.5-156.3-143.9-158.7v-5h76.9c17.4,0,32.2-12.4,32.2-29.8v-24.8c0-14.9-14.9-29.8-32.2-29.8H94.3v-5c0,0,2.5-2.5,5-2.5
		h399.3c2.5,0,5,0,5,2.5L501,299.4L501,299.4z M478.7,420.9c-27.3,34.7-74.4,84.3-96.7,111.6C389.4,478,426.6,430.9,478.7,420.9z
		 M431.6,356.5C429.1,356.5,429.1,356.5,431.6,356.5l-2.5-27.3c0,0,0,0,2.5,0h71.9v27.3H431.6L431.6,356.5z M171.1,329.2
		L171.1,329.2l2.5,27.3c0,0,0,0-2.5,0H94.3v-27.3H171.1z M119.1,423.4c44.6,12.4,79.4,52.1,89.3,101.7
		C166.2,480.5,136.4,445.7,119.1,423.4z"/>
</g>
</svg>
