<?xml version="1.0" encoding="utf-8"?>
<!-- Generator: Adobe Illustrator 18.0.0, SVG Export Plug-In . SVG Version: 6.00 Build 0)  -->
<!DOCTYPE svg PUBLIC "-//W3C//DTD SVG 1.1//EN" "http://www.w3.org/Graphics/SVG/1.1/DTD/svg11.dtd">
<svg version="1.1" id="Capa_1" xmlns="http://www.w3.org/2000/svg" xmlns:xlink="http://www.w3.org/1999/xlink" x="0px" y="0px"
	 viewBox="0 0 595.3 841.9" enable-background="new 0 0 595.3 841.9" xml:space="preserve">
<g id="guia" display="none">
</g>
<g id="guia2">
</g>
<g id="Capa_3">
	<g id="guia_1_">
	</g>
	<g>
		<path fill="#FFFFFF" d="M347.2,294.4c17.4,0,32.2-2.5,39.7-7.4c12.4-7.4,19.8-17.4,24.8-29.8c2.5-12.4,2.5-27.3-5-39.7
			c-9.9-14.9-24.8-24.8-44.6-24.8c-9.9,0-17.4,2.5-24.8,7.4c-12.4,7.4-27.3,32.2-39.7,49.6c-9.9-19.8-24.8-42.2-39.7-49.6
			c-7.4-5-17.4-7.4-24.8-7.4c-17.4,0-34.7,9.9-44.6,24.8c-7.4,12.4-7.4,24.8-5,39.7c2.5,14.9,12.4,24.8,24.8,29.8
			c9.9,5,22.3,7.4,39.7,7.4C198.4,334.1,124,408.5,124,473c0,96.7,76.9,173.6,173.6,173.6S471.3,569.8,471.3,473
			C471.3,408.5,396.9,336.6,347.2,294.4z M352.2,227.5c7.4-5,19.8-2.5,24.8,7.4c2.5,5,2.5,9.9,2.5,12.4c-2.5,5-5,7.4-7.4,9.9
			c0,0-5,2.5-29.8,2.5c-5,0-7.4,0-12.4,0C339.8,242.4,347.2,230,352.2,227.5z M225.7,259.7c-5-2.5-7.4-7.4-7.4-9.9
			c-2.5-5,0-9.9,2.5-12.4c2.5-5,9.9-9.9,14.9-9.9c2.5,0,5,0,9.9,2.5s12.4,14.9,24.8,34.7c-5,0-7.4,0-12.4,0
			C230.7,262.2,225.7,259.7,225.7,259.7z M270.4,321.7c12.4-9.9,22.3-17.4,27.3-22.3c7.4,5,17.4,12.4,27.3,22.3
			c22.3,22.3,42.2,47.1,42.2,64.5c0,39.7-32.2,71.9-71.9,71.9s-71.9-32.2-71.9-71.9C225.7,368.9,245.6,344.1,270.4,321.7z
			 M297.6,616.9c-2.5,0-5,0-7.4,0c5-5,7.4-9.9,7.4-17.4c0-14.9-12.4-27.3-27.3-27.3c-14.9,0-27.3,12.4-27.3,27.3c0,2.5,0,5,0,7.4
			c-52.1-19.8-89.3-71.9-89.3-131.5V473c5,2.5,9.9,5,14.9,5c14.9,0,27.3-12.4,27.3-27.3c0-14.9-9.9-24.8-22.3-27.3
			c5-9.9,12.4-19.8,19.8-27.3c5,52.1,49.6,94.3,104.2,94.3l0,0c5,5,12.4,7.4,19.8,7.4c12.4,0,22.3-7.4,24.8-19.8
			c32.2-14.9,54.6-47.1,57-84.3c17.4,19.8,29.8,42.2,34.7,62c-2.5,0-5,0-7.4,0c-14.9,0-27.3,12.4-27.3,27.3
			c0,14.9,12.4,27.3,27.3,27.3c2.5,0,5,0,7.4,0C419.2,569.8,364.6,616.9,297.6,616.9z"/>
		<circle fill="#FFFFFF" cx="220.7" cy="522.6" r="27.3"/>
		<circle fill="#FFFFFF" cx="357.2" cy="549.9" r="27.3"/>
	</g>
</g>
</svg>
