<?xml version="1.0" encoding="utf-8"?>
<!-- Generator: Adobe Illustrator 18.0.0, SVG Export Plug-In . SVG Version: 6.00 Build 0)  -->
<!DOCTYPE svg PUBLIC "-//W3C//DTD SVG 1.1//EN" "http://www.w3.org/Graphics/SVG/1.1/DTD/svg11.dtd">
<svg version="1.1" id="Capa_1" xmlns="http://www.w3.org/2000/svg" xmlns:xlink="http://www.w3.org/1999/xlink" x="0px" y="0px"
	 viewBox="0 0 595.3 841.9" enable-background="new 0 0 595.3 841.9" xml:space="preserve">
<g id="guia" display="none">
</g>
<g id="guia2">
</g>
<g id="Capa_3">
	<g id="guia_1_">
	</g>
	<g>
		<path fill="#FFFFFF" d="M513.4,373.8c0-22.3-12.4-44.6-29.8-57c5-22.3-2.5-44.6-19.8-62c-17.4-17.4-39.7-22.3-62-19.8
			c-12.4-19.8-34.7-29.8-57-29.8s-44.6,12.4-57,29.8c-22.3-5-47.1,2.5-62,19.8c-17.4,14.9-24.8,39.7-19.8,62
			c-19.8,12.4-29.8,34.7-29.8,57c0,22.3,12.4,44.6,29.8,57c-2.5,17.4,0,34.7,7.4,49.6l-14.9,14.9c-12.4-7.4-27.3-12.4-42.2-12.4
			c-19.8,0-39.7,7.4-54.6,22.3c-29.8,29.8-29.8,79.4,0,109.1c14.9,14.9,34.7,22.3,54.6,22.3s39.7-7.4,54.6-22.3
			c24.8-24.8,29.8-64.5,9.9-94.3l14.9-14.9c14.9,9.9,32.2,12.4,49.6,7.4c12.4,19.8,34.7,29.8,57,29.8c22.3,0,44.6-12.4,57-29.8
			c22.3,5,47.1-2.5,62-19.8c17.4-17.4,22.3-39.7,19.8-62C501,418.5,513.4,396.1,513.4,373.8z M446.5,416c-2.5,5-2.5,9.9,0,12.4
			c7.4,12.4,2.5,29.8-7.4,39.7c-9.9,9.9-27.3,12.4-39.7,7.4c-5-2.5-9.9-2.5-12.4,0c-5,2.5-7.4,5-9.9,9.9
			c-5,14.9-19.8,22.3-34.7,22.3s-27.3-9.9-34.7-22.3c-2.5-5-5-7.4-9.9-9.9c-2.5,0-5,0-7.4,0s-5,0-7.4,2.5c-12.4,5-29.8,2.5-39.7-7.4
			c-9.9-9.9-12.4-27.3-7.4-39.7c2.5-5,2.5-9.9,0-12.4c-2.5-5-5-7.4-9.9-9.9c-14.9-5-22.3-19.8-22.3-34.7c0-14.9,9.9-27.3,22.3-34.7
			c5-2.5,7.4-5,9.9-9.9s2.5-9.9,0-12.4c-2.5-12.4,2.5-29.8,12.4-39.7s27.3-12.4,39.7-7.4c5,2.5,9.9,2.5,12.4,0c5-2.5,7.4-5,9.9-9.9
			c5-14.9,19.8-22.3,34.7-22.3s27.3,9.9,32.2,22.3c2.5,5,5,7.4,9.9,9.9c5,2.5,9.9,2.5,12.4,0c12.4-5,29.8-2.5,39.7,7.4
			c9.9,9.9,12.4,27.3,7.4,39.7c0,5,0,9.9,0,14.9c2.5,5,5,7.4,9.9,9.9c14.9,5,22.3,19.8,22.3,34.7s-9.9,27.3-22.3,34.7
			C451.4,408.5,448.9,411,446.5,416z M188.5,527.6c7.4,7.4,12.4,19.8,12.4,29.8c0,12.4-5,22.3-12.4,29.8c-17.4,17.4-44.6,17.4-62,0
			s-17.4-44.6,0-62c7.4-7.4,19.8-12.4,29.8-12.4S181.1,520.2,188.5,527.6z"/>
		<path fill="#FFFFFF" d="M347.2,264.7c-59.5,0-109.1,49.6-109.1,109.1S287.7,483,347.2,483s109.1-49.6,109.1-109.1
			S406.8,264.7,347.2,264.7z M414.2,408.5c0,0-2.5,0-2.5,2.5c-7.4,7.4-22.3,12.4-37.2,9.9c-17.4-2.5-34.7-12.4-49.6-27.3
			c-14.9-14.9-24.8-32.2-27.3-49.6c-2.5-14.9,0-27.3,7.4-34.7c14.9-7.4,27.3-12.4,42.2-12.4c42.2,0,76.9,34.7,76.9,76.9
			C421.7,386.2,419.2,396.1,414.2,408.5z M270.4,361.4c5,19.8,17.4,37.2,32.2,52.1c17.4,17.4,37.2,27.3,59.5,34.7
			c-5,0-9.9,2.5-14.9,2.5c-42.2,0-76.9-34.7-76.9-76.9C270.4,368.9,270.4,366.4,270.4,361.4z"/>
	</g>
</g>
</svg>
