<?xml version="1.0" encoding="utf-8"?>
<!-- Generator: Adobe Illustrator 18.0.0, SVG Export Plug-In . SVG Version: 6.00 Build 0)  -->
<!DOCTYPE svg PUBLIC "-//W3C//DTD SVG 1.1//EN" "http://www.w3.org/Graphics/SVG/1.1/DTD/svg11.dtd">
<svg version="1.1" id="Capa_1" xmlns="http://www.w3.org/2000/svg" xmlns:xlink="http://www.w3.org/1999/xlink" x="0px" y="0px"
	 viewBox="0 0 595.3 841.9" enable-background="new 0 0 595.3 841.9" xml:space="preserve">
<g id="guia" display="none">
</g>
<g id="guia2">
</g>
<g id="Capa_3">
	<g id="guia_1_">
	</g>
	<g>
		<path fill="#FFFFFF" d="M493.6,388.7c0-34.7-27.3-62-62-62c-14.9,0-27.3,5-37.2,12.4c5-12.4,7.4-24.8,7.4-37.2c0-5,0-9.9,0-12.4
			l0,0c24.8,0,47.1-19.8,47.1-47.1c0-24.8-19.8-47.1-47.1-47.1c-17.4,0-32.2,9.9-42.2,24.8c-17.4-12.4-39.7-22.3-64.5-22.3
			c-19.8,0-39.7,7.4-57,17.4c-7.4-12.4-22.3-19.8-37.2-19.8c-24.8,0-47.1,19.8-47.1,47.1c0,22.3,17.4,42.2,39.7,47.1
			c0,5,0,9.9,0,12.4c0,12.4,2.5,22.3,5,34.7c-9.9-7.4-22.3-9.9-34.7-9.9c-34.7,0-62,27.3-62,62s27.3,62,62,62c7.4,0,14.9-2.5,22.3-5
			c-2.5,7.4-2.5,14.9-2.5,22.3c0,7.4,0,12.4,2.5,19.8c-14.9,7.4-29.8,17.4-39.7,32.2c-9.9,17.4-14.9,37.2-9.9,57
			c5,39.7,37.2,69.4,71.9,69.4l0,0c2.5,0,7.4,0,9.9,0c27.3-5,47.1-24.8,54.6-52.1c7.4,2.5,17.4,2.5,24.8,2.5c7.4,0,14.9,0,22.3-2.5
			c2.5,7.4,5,14.9,9.9,19.8c9.9,17.4,27.3,27.3,44.6,32.2c2.5,0,7.4,0,9.9,0c34.7,0,64.5-29.8,71.9-69.4c2.5-19.8,0-42.2-9.9-57
			c-9.9-14.9-22.3-24.8-37.2-29.8c0-7.4,2.5-12.4,2.5-19.8s0-17.4-2.5-24.8c7.4,2.5,17.4,5,24.8,5
			C466.3,450.7,493.6,423.4,493.6,388.7z M369.6,376.3L369.6,376.3L369.6,376.3L369.6,376.3z M359.6,344.1c0,24.8-27.3,47.1-62,47.1
			s-62-19.8-62-47.1c0-27.3,24.8-47.1,59.5-47.1C329.9,296.9,359.6,316.8,359.6,344.1z M213.3,621.9c-2.5,0-5,0-5,0l0,0
			c-22.3,0-42.2-19.8-47.1-47.1c-2.5-14.9,0-29.8,7.4-39.7c7.4-9.9,17.4-17.4,27.3-19.8c2.5,0,5,0,5,0c22.3,0,42.2,19.8,47.1,47.1
			C253,589.6,238.1,616.9,213.3,621.9z M317.5,557.4c0,5,0,7.4,0,12.4c-7.4,2.5-12.4,2.5-19.8,2.5s-14.9-2.5-22.3-2.5
			c0-5,0-7.4,0-12.4c-5-34.7-32.2-64.5-62-67c0-5-2.5-12.4-2.5-17.4c0-32.2,12.4-62,34.7-79.4c14.9,9.9,34.7,14.9,52.1,14.9
			c19.8,0,37.2-5,52.1-14.9c19.8,17.4,34.7,47.1,34.7,79.4c0,5,0,12.4-2.5,17.4C349.7,492.9,322.4,520.2,317.5,557.4z M421.7,532.6
			c7.4,12.4,9.9,27.3,7.4,39.7c-5,27.3-24.8,47.1-47.1,47.1c-2.5,0-5,0-5,0c-12.4-2.5-22.3-9.9-27.3-19.8
			c-7.4-12.4-9.9-27.3-7.4-42.2c5-27.3,24.8-47.1,47.1-47.1c2.5,0,2.5,0,5,0C404.3,515.2,414.2,522.6,421.7,532.6z"/>
		<ellipse fill="#FFFFFF" cx="295.2" cy="331.7" rx="29.8" ry="14.9"/>
	</g>
</g>
</svg>
