<?xml version="1.0" encoding="utf-8"?>
<!-- Generator: Adobe Illustrator 18.0.0, SVG Export Plug-In . SVG Version: 6.00 Build 0)  -->
<!DOCTYPE svg PUBLIC "-//W3C//DTD SVG 1.1//EN" "http://www.w3.org/Graphics/SVG/1.1/DTD/svg11.dtd">
<svg version="1.1" id="Capa_1" xmlns="http://www.w3.org/2000/svg" xmlns:xlink="http://www.w3.org/1999/xlink" x="0px" y="0px"
	 viewBox="0 0 595.3 841.9" enable-background="new 0 0 595.3 841.9" xml:space="preserve">
<g id="guia" display="none">
</g>
<g id="guia2">
</g>
<g id="Capa_3">
	<g id="guia_1_">
	</g>
	<path fill="#FFFFFF" d="M515.9,527.6l-74.4-136.4l54.6-74.4c27.3-34.7,29.8-74.4,9.9-94.3c-2.5-2.5-7.4-5-9.9-7.4
		c-7.4-5-14.9-7.4-24.8-7.4c-27.3,0-79.4,14.9-99.2,39.7l-62,81.9c-2.5-2.5-7.4-2.5-9.9-2.5l-153.8,14.9c-12.4,0-24.8,7.4-32.2,17.4
		l-12.4,12.4c-7.4,9.9-7.4,19.8-5,29.8s12.4,17.4,22.3,22.3l101.7,29.8c-9.9,12.4-19.8,29.8-32.2,47.1l-67,9.9
		c-12.4,2.5-22.3,7.4-29.8,17.4L81.9,540c-7.4,7.4-9.9,19.8-5,29.8c2.5,9.9,9.9,17.4,19.8,22.3l44.6,14.9c0,2.5,2.5,5,2.5,7.4
		c7.4,12.4,22.3,19.8,39.7,19.8c5,0,7.4,0,7.4,0c57-7.4,124-76.9,131.5-86.8l22.3-29.8l106.7,76.9c5,5,12.4,7.4,19.8,7.4
		c9.9,0,22.3-5,27.3-14.9l9.9-12.4C520.9,557.4,523.4,540,515.9,527.6z M143.9,381.3l2.5-2.5l126.5-7.4L238.1,416l-99.2-29.8
		L143.9,381.3z M473.7,554.9L362.1,473h-5c-2.5,0-5,0-9.9,0c-12.4,0-22.3,5-29.8,14.9l-24.8,34.7c-9.9,12.4-67,64.5-106.7,71.9
		c0,0-2.5,0-5,0l5-12.4l-67-22.3l5-9.9c0,0,2.5-2.5,5-2.5l84.3-12.4l5-7.4c19.8-29.8,44.6-64.5,47.1-69.4l138.9-183.5
		c9.9-12.4,47.1-24.8,67-24.8c5,0,5,0,5,0l0,0c2.5,2.5,2.5,19.8-14.9,42.2l-69.4,94.3L478.7,545L473.7,554.9z"/>
</g>
</svg>
