<?xml version="1.0" encoding="utf-8"?>
<!-- Generator: Adobe Illustrator 18.0.0, SVG Export Plug-In . SVG Version: 6.00 Build 0)  -->
<!DOCTYPE svg PUBLIC "-//W3C//DTD SVG 1.1//EN" "http://www.w3.org/Graphics/SVG/1.1/DTD/svg11.dtd">
<svg version="1.1" id="Capa_1" xmlns="http://www.w3.org/2000/svg" xmlns:xlink="http://www.w3.org/1999/xlink" x="0px" y="0px"
	 viewBox="0 0 595.3 841.9" enable-background="new 0 0 595.3 841.9" xml:space="preserve">
<g id="guia" display="none">
</g>
<g id="guia2">
</g>
<g id="Capa_3">
	<g id="guia_1_">
	</g>
	<path fill="#FFFFFF" d="M493.6,579.7c-17.4,0-27.3,5-34.7,9.9c-7.4,5-7.4,5-14.9,5c-7.4,0-7.4,0-12.4-5c-2.5-2.5-5-2.5-7.4-5
		c24.8-39.7,62-111.6,69.4-146.3c2.5-7.4,0-14.9-7.4-19.8c-14.9-12.4-29.8-24.8-44.6-34.7v-52.1c0-17.4-12.4-32.2-29.8-34.7v-17.4
		c0-19.8-14.9-34.7-34.7-34.7h-32.2v-5c0-19.8-14.9-34.7-34.7-34.7h-14.9c-19.8,0-34.7,14.9-34.7,34.7v2.5h-37.2
		c-19.8,0-34.7,14.9-34.7,34.7v19.8c-19.8,2.5-32.2,17.4-32.2,34.7v54.6c-14.9,9.9-32.2,22.3-44.6,34.7c-5,5-7.4,12.4-7.4,19.8
		c7.4,34.7,44.6,104.2,69.4,146.3c-2.5,2.5-5,2.5-7.4,5c-7.4,2.5-7.4,2.5-14.9,2.5c-7.4,0-7.4,0-12.4-5c-7.4-5-17.4-9.9-34.7-9.9
		c-12.4,0-19.8,9.9-19.8,19.8c0,12.4,9.9,19.8,19.8,19.8c7.4,0,7.4,0,12.4,5c7.4,5,17.4,9.9,34.7,9.9s27.3-5,34.7-9.9
		c5-2.5,7.4-5,12.4-5c7.4,0,7.4,0,12.4,5c7.4,5,17.4,9.9,34.7,9.9s27.3-5,34.7-9.9c5-2.5,7.4-5,12.4-5c5,0,7.4,0,12.4,5
		c7.4,5,17.4,9.9,34.7,9.9s27.3-5,34.7-9.9c5-2.5,7.4-5,12.4-5c7.4,0,7.4,0,12.4,5c7.4,5,17.4,9.9,34.7,9.9c17.4,0,27.3-5,34.7-9.9
		c5-2.5,7.4-5,12.4-5c12.4,0,19.8-9.9,19.8-19.8C513.4,589.6,503.5,579.7,493.6,579.7z M228.2,296.9V287h138.9v9.9
		C367.1,296.9,228.2,296.9,228.2,296.9z M347.2,594.6c-7.4,0-7.4,0-12.4-5c-2.5-2.5-7.4-5-14.9-7.4V383.7c29.8,5,81.9,19.8,129,57
		C436.5,478,399.3,549.9,377,582.2c-7.4,2.5-12.4,5-14.9,7.4C354.7,594.6,352.2,594.6,347.2,594.6z M295.2,339.1L295.2,339.1
		L295.2,339.1c-5,0-47.1,5-96.7,24.8v-24.8h198.4v27.3c-49.6-19.8-91.8-24.8-96.7-24.8L295.2,339.1L295.2,339.1z M248,594.6
		c-7.4,0-7.4-2.5-12.4-5c-2.5-2.5-7.4-5-14.9-7.4c-22.3-29.8-59.5-101.7-71.9-138.9c47.1-37.2,99.2-52.1,129-57v198.4
		c-7.4,2.5-9.9,5-14.9,7.4C258,594.6,255.5,594.6,248,594.6z M280.3,239.9c0-5,5-9.9,9.9-9.9h14.9c5,0,9.9,5,9.9,9.9v2.5h-34.7
		V239.9L280.3,239.9z"/>
</g>
</svg>
