<?xml version="1.0" encoding="utf-8"?>
<!-- Generator: Adobe Illustrator 18.0.0, SVG Export Plug-In . SVG Version: 6.00 Build 0)  -->
<!DOCTYPE svg PUBLIC "-//W3C//DTD SVG 1.1//EN" "http://www.w3.org/Graphics/SVG/1.1/DTD/svg11.dtd">
<svg version="1.1" id="Capa_1" xmlns="http://www.w3.org/2000/svg" xmlns:xlink="http://www.w3.org/1999/xlink" x="0px" y="0px"
	 viewBox="0 0 595.3 841.9" enable-background="new 0 0 595.3 841.9" xml:space="preserve">
<g id="guia" display="none">
</g>
<g id="guia2">
</g>
<g id="Capa_3">
	<g id="guia_1_">
	</g>
	<g>
		<path fill="#FFFFFF" d="M220.7,535c22.3,0,42.2-17.4,42.2-42.2c0-22.3-17.4-42.2-42.2-42.2c-22.3,0-42.2,17.4-42.2,42.2
			C178.6,517.7,198.4,535,220.7,535z M220.7,480.5c7.4,0,12.4,5,12.4,12.4c0,7.4-5,12.4-12.4,12.4c-7.4,0-12.4-5-12.4-12.4
			C208.3,487.9,213.3,480.5,220.7,480.5z"/>
		<path fill="#FFFFFF" d="M404.3,225c-14.9-2.5-27.3-5-39.7-5h-2.5c-9.9-9.9-24.8-17.4-42.2-17.4h-44.6c-17.4,0-32.2,5-42.2,17.4
			c-14.9,0-27.3,2.5-42.2,5c-32.2,7.4-59.5,42.2-59.5,76.9v203.4c0,34.7,24.8,69.4,59.5,76.9c5,0,7.4,2.5,12.4,2.5l-19.8,19.8
			c-7.4,7.4-7.4,22.3,0,29.8c5,5,9.9,7.4,14.9,7.4c5,0,9.9-2.5,14.9-7.4l22.3-22.3c5-5,7.4-12.4,5-19.8c19.8,2.5,39.7,2.5,57,2.5
			s37.2,0,54.6-2.5c-2.5,7.4,0,14.9,5,19.8l22.3,22.3c5,5,9.9,7.4,14.9,7.4s9.9-2.5,14.9-7.4c7.4-7.4,7.4-22.3,0-29.8l-19.8-19.8
			c5,0,7.4-2.5,12.4-2.5c32.2-7.4,57-42.2,57-76.9V301.9C463.8,267.2,436.5,232.4,404.3,225z M255.5,259.7l5-9.9
			c2.5-2.5,7.4-5,14.9-5H320c5,0,9.9,0,12.4,5l5,9.9l19.8,2.5c12.4,2.5,24.8,2.5,34.7,5c9.9,2.5,17.4,9.9,22.3,19.8
			c-86.8-12.4-151.3-12.4-238.1,0c5-9.9,12.4-17.4,22.3-19.8c14.9-2.5,29.8-5,47.1-7.4H255.5z M369.6,398.6
			C367.1,398.6,367.1,398.6,369.6,398.6l-138.9,2.5h-2.5l-12.4-12.4c-22.3-24.8-37.2-42.2-39.7-59.5c44.6-7.4,84.3-9.9,121.5-9.9
			s76.9,2.5,121.5,9.9c-5,17.4-17.4,32.2-39.7,57L369.6,398.6z M173.6,403.6c2.5,2.5,7.4,7.4,9.9,12.4l9.9,12.4
			c7.4,7.4,19.8,14.9,32.2,14.9h136.4c12.4,0,27.3-7.4,32.2-14.9c5-5,7.4-7.4,12.4-12.4l2.5-2.5c2.5-2.5,7.4-7.4,9.9-9.9v101.7
			c0,14.9-9.9,32.2-24.8,34.7c-64.5,14.9-131.5,14.9-195.9,0c-12.4-2.5-24.8-19.8-24.8-34.7L173.6,403.6L173.6,403.6z"/>
		<path fill="#FFFFFF" d="M374.5,535c22.3,0,42.2-17.4,42.2-42.2c0-22.3-17.4-42.2-42.2-42.2c-22.3,0-42.2,17.4-42.2,42.2
			C332.4,517.7,352.2,535,374.5,535z M374.5,480.5c7.4,0,12.4,5,12.4,12.4c0,7.4-5,12.4-12.4,12.4s-12.4-5-12.4-12.4
			C362.1,487.9,367.1,480.5,374.5,480.5z"/>
	</g>
</g>
</svg>
