<?xml version="1.0" encoding="utf-8"?>
<!-- Generator: Adobe Illustrator 18.0.0, SVG Export Plug-In . SVG Version: 6.00 Build 0)  -->
<!DOCTYPE svg PUBLIC "-//W3C//DTD SVG 1.1//EN" "http://www.w3.org/Graphics/SVG/1.1/DTD/svg11.dtd">
<svg version="1.1" id="Capa_1" xmlns="http://www.w3.org/2000/svg" xmlns:xlink="http://www.w3.org/1999/xlink" x="0px" y="0px"
	 viewBox="0 0 595.3 841.9" enable-background="new 0 0 595.3 841.9" xml:space="preserve">
<g id="guia" display="none">
</g>
<g id="guia2">
</g>
<g id="Capa_3">
	<g id="guia_1_">
	</g>
	<g>
		<path fill="#FFFFFF" d="M486.1,383.7c0-2.5-2.5-5-2.5-7.4l-27.3-64.5c-14.9-32.2-49.6-44.6-79.4-44.6h-12.4c0-2.5,2.5-2.5,2.5-5
			c0-2.5,0-7.4,0-9.9l-12.4-24.8c-5-9.9-14.9-14.9-24.8-14.9h-62c-9.9,0-19.8,7.4-24.8,14.9l-12.4,24.8c-2.5,2.5-2.5,7.4,0,9.9
			c0,2.5,2.5,2.5,2.5,5h-5c-29.8-2.5-67,9.9-79.4,42.2l-27.3,62c0,2.5-2.5,5-2.5,7.4c-24.8,9.9-39.7,32.2-37.2,59.5l7.4,94.3
			c0,12.4,5,22.3,12.4,32.2V602c0,17.4,12.4,29.8,29.8,29.8h39.7c17.4,0,29.8-12.4,29.8-29.8v-24.8h191V602
			c0,17.4,12.4,29.8,29.8,29.8h39.7c17.4,0,29.8-12.4,29.8-29.8v-37.2c7.4-9.9,9.9-19.8,12.4-32.2l7.4-94.3
			C515.9,416,503.5,393.7,486.1,383.7z M468.8,549.9c-2.5,2.5-5,7.4-2.5,12.4V602c0,0,0,2.5-2.5,2.5h-39.7c0,0-2.5,0-2.5-2.5v-39.7
			c0-7.4-7.4-14.9-14.9-14.9H186c-7.4,0-14.9,7.4-14.9,14.9V602c0,0,0,2.5-2.5,2.5h-37.2c0,0-2.5,0-2.5-2.5v-39.7
			c0-5,0-9.9-2.5-12.4c-5-5-7.4-12.4-9.9-19.8l-7.4-94.3c-2.5-14.9,9.9-29.8,24.8-32.2c5,0,9.9-5,12.4-9.9
			c14.9,7.4,29.8,9.9,32.2,9.9h245.6c2.5,0,19.8,0,34.7-7.4c2.5,5,5,7.4,7.4,7.4c12.4,5,19.8,17.4,17.4,29.8l-7.4,94.3
			C476.2,537.5,473.7,545,468.8,549.9z M228.2,294.4H377c19.8,0,44.6,7.4,52.1,27.3l19.8,49.6c-5,2.5-17.4,5-24.8,5H178.6
			c0,0-17.4,0-24.8-9.9l19.8-44.6C183.5,299.4,208.3,294.4,228.2,294.4z M255.5,262.2l12.4-24.8h62l12.4,24.8l2.5,2.5h-89.3
			C253,264.7,255.5,262.2,255.5,262.2z"/>
		<path fill="#FFFFFF" d="M436.5,423.4c-22.3,0-42.2,19.8-42.2,42.2c0,22.3,19.8,42.2,42.2,42.2c22.3,0,42.2-19.8,42.2-42.2
			C478.7,443.3,458.9,423.4,436.5,423.4z M436.5,478c-7.4,0-12.4-5-12.4-12.4s5-12.4,12.4-12.4s12.4,5,12.4,12.4S444,478,436.5,478z
			"/>
		<path fill="#FFFFFF" d="M158.7,423.4c-22.3,0-42.2,19.8-42.2,42.2c0,22.3,19.8,42.2,42.2,42.2c22.3,0,42.2-19.8,42.2-42.2
			C200.9,443.3,183.5,423.4,158.7,423.4z M158.7,478c-7.4,0-12.4-5-12.4-12.4s5-12.4,12.4-12.4s12.4,5,12.4,12.4
			S166.2,478,158.7,478z"/>
		<path fill="#FFFFFF" d="M352.2,430.9H243.1c-9.9,0-19.8,5-27.3,12.4c-5,7.4-7.4,17.4-2.5,29.8l9.9,27.3
			c5,17.4,24.8,32.2,44.6,32.2h62c19.8,0,39.7-14.9,44.6-32.2l9.9-27.3c2.5-9.9,2.5-19.8-2.5-29.8
			C374.5,435.8,364.6,430.9,352.2,430.9z M329.9,500.3h-62c-7.4,0-14.9-5-17.4-12.4l-9.9-27.3c0-2.5,0-2.5,0-2.5s0,0,2.5,0h111.6
			c2.5,0,2.5,0,2.5,0s0,0,0,2.5l-9.9,27.3C344.8,495.4,334.8,500.3,329.9,500.3z"/>
	</g>
</g>
</svg>
