<?xml version="1.0" encoding="utf-8"?>
<!-- Generator: Adobe Illustrator 18.0.0, SVG Export Plug-In . SVG Version: 6.00 Build 0)  -->
<!DOCTYPE svg PUBLIC "-//W3C//DTD SVG 1.1//EN" "http://www.w3.org/Graphics/SVG/1.1/DTD/svg11.dtd">
<svg version="1.1" id="Capa_1" xmlns="http://www.w3.org/2000/svg" xmlns:xlink="http://www.w3.org/1999/xlink" x="0px" y="0px"
	 viewBox="0 0 595.3 841.9" enable-background="new 0 0 595.3 841.9" xml:space="preserve">
<g id="guia" display="none">
</g>
<g id="guia2">
</g>
<g id="Capa_3">
	<g id="guia_1_">
	</g>
	<g>
		<path fill="#FFFFFF" d="M501,445.7c0-32.2-27.3-59.5-59.5-59.5c-9.9,0-17.4,2.5-24.8,5v-22.3c0-9.9-7.4-17.4-17.4-17.4H109.1
			c-9.9,0-17.4,7.4-17.4,17.4v124c0,54.6,34.7,106.7,89.3,131.5c2.5,0,5,2.5,7.4,2.5H320c2.5,0,5,0,7.4-2.5
			c39.7-17.4,67-49.6,79.4-84.3C441.5,532.6,501,495.4,501,445.7z M317.5,592.1h-124c-39.7-19.8-64.5-57-64.5-99.2V386.2h255.5v59.5
			v47.1C382,535,357.2,572.2,317.5,592.1z M416.7,500.3v-7.4v-47.1c0-14.9,12.4-24.8,24.8-24.8c14.9,0,24.8,12.4,24.8,24.8
			C468.8,470.6,439,492.9,416.7,500.3z"/>
		<path fill="#FFFFFF" d="M265.4,279.6c2.5,2.5,5,7.4,5,9.9c0,2.5,2.5,2.5,2.5,2.5s0,0,0,2.5v2.5c0,7.4-2.5,14.9-2.5,22.3v2.5
			c0,2.5,0,5,2.5,7.4h2.5c2.5,0,2.5,0,5-2.5c7.4-7.4,14.9-17.4,17.4-29.8v-5c0-2.5,0-5,0-5c0-2.5-2.5-7.4-2.5-9.9
			c-2.5-5-5-9.9-7.4-12.4l-2.5-2.5c-2.5-2.5-2.5-5-5-7.4c-2.5-2.5-2.5-2.5-2.5-5c0-7.4,2.5-14.9,5-24.8c0-2.5,0-5-2.5-7.4
			s-5-2.5-7.4,0c-9.9,7.4-14.9,17.4-17.4,27.3c-2.5,7.4,0,14.9,2.5,19.8C258,272.1,262.9,277.1,265.4,279.6z"/>
		<path fill="#FFFFFF" d="M218.3,304.4l5,5v2.5c0,0,0,2.5,0,5v5c0,2.5,0,5,2.5,5h2.5h2.5c2.5,0,7.4-2.5,9.9-5
			c2.5-2.5,5-7.4,7.4-12.4c0,0,0,0,0-2.5c0,0,0-2.5,0-5c0-2.5,0-5-2.5-7.4c-2.5-2.5-2.5-2.5-5-5c0,0,0-2.5-2.5-2.5c0,0,0,0-2.5-2.5
			l0,0l0,0c0-2.5,0-5,0-7.4v-5c0-2.5,0-5-2.5-5h-2.5h-2.5c-7.4,2.5-12.4,7.4-14.9,14.9v2.5c0,0,0,0,0,2.5v2.5c0,2.5,0,5,2.5,7.4
			C215.8,299.4,218.3,301.9,218.3,304.4z"/>
	</g>
</g>
</svg>
