<?xml version="1.0" encoding="utf-8"?>
<!-- Generator: Adobe Illustrator 18.0.0, SVG Export Plug-In . SVG Version: 6.00 Build 0)  -->
<!DOCTYPE svg PUBLIC "-//W3C//DTD SVG 1.1//EN" "http://www.w3.org/Graphics/SVG/1.1/DTD/svg11.dtd">
<svg version="1.1" id="Capa_1" xmlns="http://www.w3.org/2000/svg" xmlns:xlink="http://www.w3.org/1999/xlink" x="0px" y="0px"
	 viewBox="0 0 595.3 841.9" enable-background="new 0 0 595.3 841.9" xml:space="preserve">
<g id="guia" display="none">
</g>
<g id="guia2">
</g>
<g id="Capa_3">
	<g id="guia_1_">
	</g>
	<g>
		<circle fill="#FFFFFF" cx="439" cy="520.2" r="17.4"/>
		<circle fill="#FFFFFF" cx="138.9" cy="520.2" r="17.4"/>
		<circle fill="#FFFFFF" cx="344.8" cy="520.2" r="17.4"/>
		<path fill="#FFFFFF" d="M510.9,264.7H267.9c-14.9,0-27.3,14.9-27.3,32.2l0,0H186c-17.4,0-32.2,14.9-32.2,32.2v34.7h-2.5
			c-47.1,0-89.3,37.2-91.8,84.3c0,2.5,0,2.5,0,5V483c0,12.4,12.4,24.8,27.3,24.8c0,5-2.5,7.4-2.5,12.4c0,32.2,24.8,57,57,57
			s57-24.8,57-57c0-5,0-7.4-2.5-12.4h96.7c0,5-2.5,7.4-2.5,12.4c0,32.2,24.8,57,57,57c19.8,0,37.2-9.9,47.1-24.8
			c9.9,14.9,27.3,24.8,47.1,24.8c32.2,0,57-24.8,57-57c0-5,0-7.4-2.5-12.4h14.9c14.9,0,27.3-14.9,27.3-32.2V296.9
			C538.2,279.6,525.8,264.7,510.9,264.7z M138.9,549.9c-17.4,0-29.8-12.4-29.8-29.8c0-17.4,12.4-29.8,29.8-29.8s29.8,12.4,29.8,29.8
			C171.1,537.5,156.3,549.9,138.9,549.9z M138.9,463.1c-14.9,0-29.8,7.4-39.7,17.4H84.3v-27.3v-2.5c2.5-34.7,32.2-62,67-62h14.9
			c7.4,0,12.4-5,12.4-12.4v-47.1c0-5,2.5-7.4,7.4-7.4h57v158.7h-62C171.1,470.6,156.3,463.1,138.9,463.1z M344.8,549.9
			c-17.4,0-29.8-12.4-29.8-29.8c0-17.4,12.4-29.8,29.8-29.8s29.8,12.4,29.8,29.8C377,537.5,362.1,549.9,344.8,549.9z M344.8,463.1
			c-14.9,0-29.8,7.4-42.2,17.4h-34.7V296.9c0-2.5,0-5,2.5-5h238.1c0,0,2.5,2.5,2.5,5v178.6c0,2.5,0,5-2.5,5h-24.8h-2.5
			c-9.9-9.9-24.8-17.4-42.2-17.4c-19.8,0-37.2,9.9-47.1,24.8C382,473,364.6,463.1,344.8,463.1z M439,549.9
			c-17.4,0-29.8-12.4-29.8-29.8c0-17.4,12.4-29.8,29.8-29.8c17.4,0,29.8,12.4,29.8,29.8C471.3,537.5,456.4,549.9,439,549.9z"/>
		<path fill="#FFFFFF" d="M225.7,334.1h-17.4c-7.4-2.5-14.9,5-14.9,12.4v19.8c0,2.5,2.5,5,5,5h27.3c2.5,0,5-2.5,5-5v-29.8
			C230.7,336.6,228.2,334.1,225.7,334.1z M220.7,363.9h-17.4V349c0-2.5,2.5-5,5-5h12.4V363.9z"/>
	</g>
</g>
</svg>
