<?xml version="1.0" encoding="utf-8"?>
<!-- Generator: Adobe Illustrator 18.0.0, SVG Export Plug-In . SVG Version: 6.00 Build 0)  -->
<!DOCTYPE svg PUBLIC "-//W3C//DTD SVG 1.1//EN" "http://www.w3.org/Graphics/SVG/1.1/DTD/svg11.dtd">
<svg version="1.1" id="Capa_1" xmlns="http://www.w3.org/2000/svg" xmlns:xlink="http://www.w3.org/1999/xlink" x="0px" y="0px"
	 viewBox="0 0 595.3 841.9" enable-background="new 0 0 595.3 841.9" xml:space="preserve">
<g id="guia" display="none">
</g>
<g id="guia2">
</g>
<g id="Capa_3">
	<g id="guia_1_">
	</g>
	<path fill="#FFFFFF" d="M525.8,383.7c0-5-5-9.9-7.4-14.9L329.9,232.4v-5c0-12.4-9.9-22.3-22.3-22.3s-22.3,9.9-22.3,22.3v7.4
		l-186,131.5l0,0l0,0l-5,5c-5,2.5-7.4,7.4-7.4,14.9c0,5,0,12.4,5,14.9c7.4,9.9,19.8,9.9,29.8,5l2.5-2.5c5-2.5,32.2-17.4,59.5-17.4
		l0,0c22.3,0,29.8,7.4,29.8,7.4c2.5,5,7.4,9.9,14.9,12.4s14.9,0,19.8-5c0,0,12.4-9.9,37.2-12.4v129v2.5H106.7
		c-19.8,0-37.2,14.9-37.2,34.7c0,14.9,9.9,27.3,24.8,32.2L84.3,602c-2.5,5-5,9.9-2.5,14.9c0,5,5,9.9,9.9,12.4c9.9,5,22.3,2.5,29.8-5
		l24.8-37.2h225.7c2.5,0,2.5,0,5,0l22.3,34.7c5,5,9.9,9.9,17.4,9.9c2.5,0,7.4,0,9.9-2.5c5-2.5,9.9-7.4,9.9-12.4
		c2.5-5,0-12.4-2.5-14.9l-19.8-32.2l0,0l96.7-111.6c7.4-9.9,9.9-22.3,5-32.2c-5-9.9-14.9-14.9-27.3-14.9h-7.4
		c-14.9,0-34.7,7.4-42.2,19.8l-69.4,81.9c-2.5,2.5-7.4,5-9.9,5h-27.3v-2.5v-129c24.8,2.5,34.7,12.4,37.2,12.4c5,5,12.4,5,19.8,5
		c7.4-2.5,12.4-5,14.9-12.4c0,0,7.4-7.4,29.8-7.4l0,0c27.3,0,52.1,12.4,57,14.9l7.4,5c9.9,7.4,22.3,5,29.8-5
		C525.8,396.1,525.8,391.2,525.8,383.7z M406.8,344.1c-14.9,2.5-24.8,7.4-32.2,12.4c-12.4-7.4-37.2-14.9-69.4-14.9
		s-54.6,7.4-69.4,14.9c-5-5-17.4-9.9-32.2-12.4l99.2-71.9c2.5,0,2.5,0,5,0L406.8,344.1z M386.9,532.6l69.4-81.9
		c5-5,14.9-9.9,22.3-9.9h7.4c2.5,0,2.5,0,5,0c0,0,0,0-2.5,2.5l-96.7,111.6c0,0-2.5,2.5-5,5l-5,2.5l-5,2.5c-2.5,0-5,0-7.4,0H143.9
		h-37.2c-7.4,0-12.4-5-12.4-9.9c0-5,5-9.9,12.4-9.9h248C367.1,547.4,379.5,540,386.9,532.6z"/>
</g>
</svg>
