<?xml version="1.0" encoding="utf-8"?>
<!-- Generator: Adobe Illustrator 18.0.0, SVG Export Plug-In . SVG Version: 6.00 Build 0)  -->
<!DOCTYPE svg PUBLIC "-//W3C//DTD SVG 1.1//EN" "http://www.w3.org/Graphics/SVG/1.1/DTD/svg11.dtd">
<svg version="1.1" id="Capa_1" xmlns="http://www.w3.org/2000/svg" xmlns:xlink="http://www.w3.org/1999/xlink" x="0px" y="0px"
	 viewBox="0 0 595.3 841.9" enable-background="new 0 0 595.3 841.9" xml:space="preserve">
<g id="guia" display="none">
</g>
<g id="guia2">
</g>
<g id="Capa_3">
	<g id="guia_1_">
	</g>
	<g>
		<path fill="#FFFFFF" d="M310,326.7h81.9v-81.9H310V326.7z M364.6,269.6v29.8h-29.8v-29.8H364.6z"/>
		<path fill="#FFFFFF" d="M310,438.3h81.9v-81.9H310V438.3z M364.6,381.3V411h-29.8v-29.8H364.6z"/>
		<path fill="#FFFFFF" d="M203.4,438.3h81.9v-81.9h-81.9V438.3z M260.4,381.3V411h-29.8v-29.8H260.4z"/>
		<path fill="#FFFFFF" d="M203.4,549.9h81.9v-81.9h-81.9V549.9z M260.4,492.9v29.8h-29.8v-29.8L260.4,492.9L260.4,492.9z"/>
		<path fill="#FFFFFF" d="M151.3,195.2v448.9h188.5v-49.6h22.3v52.1h84.3V195.2H151.3z M305.1,562.3v52.1H183.5V230h228.2v384.5
			h-17.4v-52.1L305.1,562.3L305.1,562.3z"/>
		<path fill="#FFFFFF" d="M310,549.9h81.9v-81.9H310V549.9z M364.6,492.9v29.8h-29.8v-29.8L364.6,492.9L364.6,492.9z"/>
		<path fill="#FFFFFF" d="M203.4,326.7h81.9v-81.9h-81.9V326.7z M260.4,269.6v29.8h-29.8v-29.8H260.4z"/>
	</g>
</g>
</svg>
