<?xml version="1.0" encoding="utf-8"?>
<!-- Generator: Adobe Illustrator 18.0.0, SVG Export Plug-In . SVG Version: 6.00 Build 0)  -->
<!DOCTYPE svg PUBLIC "-//W3C//DTD SVG 1.1//EN" "http://www.w3.org/Graphics/SVG/1.1/DTD/svg11.dtd">
<svg version="1.1" id="Capa_1" xmlns="http://www.w3.org/2000/svg" xmlns:xlink="http://www.w3.org/1999/xlink" x="0px" y="0px"
	 viewBox="0 0 595.3 841.9" enable-background="new 0 0 595.3 841.9" xml:space="preserve">
<g id="guia" display="none">
</g>
<g id="guia2">
</g>
<g id="Capa_3">
	<g id="guia_1_">
	</g>
	<g>
		<path fill="#FFFFFF" d="M394.4,502.8c69.4-14.9,119.1-76.9,119.1-146.3c0-81.9-67-151.3-151.3-151.3c-69.4,0-129,47.1-146.3,114.1
			c0,5,0,12.4-2.5,19.8C138.9,346.5,79.4,411,79.4,487.9c0,81.9,67,151.3,151.3,151.3c76.9,0,141.4-57,148.8-133.9
			C384.5,502.8,389.4,502.8,394.4,502.8z M391.9,391.2c-2.5,5-5,7.4-9.9,9.9v-29.8c5,2.5,7.4,5,9.9,7.4
			C394.4,381.3,394.4,386.2,391.9,391.2z M352.2,301.9v27.3c-7.4-2.5-12.4-7.4-14.9-9.9c0,0-2.5-2.5,0-7.4
			C342.3,306.8,347.2,304.4,352.2,301.9z M382,430.9c17.4-5,32.2-14.9,37.2-29.8c5-12.4,5-24.8-2.5-34.7c-5-9.9-17.4-19.8-34.7-27.3
			v-37.2c5,2.5,9.9,5,12.4,9.9c5,7.4,12.4,7.4,19.8,5c2.5-2.5,5-5,7.4-9.9c0-5,0-7.4-2.5-9.9c-7.4-9.9-19.8-19.8-37.2-22.3l0,0
			c0-7.4-7.4-14.9-14.9-14.9s-14.9,5-14.9,12.4c-17.4,2.5-29.8,12.4-37.2,24.8c-5,12.4-7.4,22.3-2.5,32.2s14.9,22.3,39.7,29.8v39.7
			c-24.8-34.7-67-57-109.1-62c0-5,2.5-7.4,2.5-12.4c12.4-54.6,62-91.8,119.1-91.8c67,0,121.5,54.6,121.5,121.5
			c0,57-39.7,106.7-96.7,119.1c-2.5,0-5,0-7.4,2.5c0-12.4-2.5-22.3-7.4-34.7C377,438.3,382,435.8,382,430.9z M352.2,487.9
			c0,67-54.6,121.5-121.5,121.5s-121.5-54.6-121.5-121.5s54.6-121.5,121.5-121.5C297.6,366.4,352.2,420.9,352.2,487.9z"/>
		<path fill="#FFFFFF" d="M121.5,361.4h2.5c7.4,0,12.4-5,14.9-12.4c5-29.8,22.3-54.6,47.1-69.4c-2.5,2.5-2.5,5-2.5,9.9
			s2.5,7.4,5,9.9c7.4,5,14.9,2.5,19.8-5l27.3-39.7c2.5-5,2.5-9.9,2.5-12.4c-2.5-7.4-7.4-9.9-9.9-9.9L178.6,220
			c-7.4,0-14.9,5-17.4,12.4c0,5,0,7.4,2.5,9.9s5,5,9.9,7.4h2.5c-32.2,19.8-59.5,54.6-67,94.3c0,5,0,7.4,2.5,9.9
			C114.1,356.5,116.6,358.9,121.5,361.4z"/>
		<path fill="#FFFFFF" d="M476.2,478c-7.4-2.5-14.9,2.5-17.4,12.4c-5,29.8-22.3,54.6-47.1,69.4c2.5-2.5,2.5-7.4,2.5-9.9
			s-2.5-7.4-5-9.9c-7.4-5-14.9-2.5-19.8,5l-27.3,39.7c-2.5,5-2.5,9.9-2.5,12.4s5,7.4,9.9,9.9l47.1,9.9h2.5c7.4,0,12.4-5,14.9-9.9
			c0-2.5,0-7.4-2.5-9.9s-5-5-9.9-7.4h-2.5c34.7-19.8,59.5-54.6,67-94.3C488.6,485.4,483.7,478,476.2,478z"/>
		<path fill="#FFFFFF" d="M240.6,435.8c9.9,0,17.4,2.5,24.8,9.9c5,5,14.9,5,19.8-2.5c2.5-2.5,2.5-7.4,2.5-9.9c0-5-2.5-7.4-5-9.9
			c-12.4-9.9-27.3-17.4-44.6-17.4c-32.2,0-59.5,22.3-69.4,54.6h-9.9c-7.4,0-14.9,7.4-14.9,14.9c0,7.4,7.4,14.9,14.9,14.9h9.9v2.5
			h-9.9c-7.4,0-14.9,7.4-14.9,14.9s5,12.4,14.9,12.4h14.9c12.4,27.3,37.2,47.1,67,47.1c17.4,0,32.2-5,44.6-17.4c2.5-2.5,5-5,5-9.9
			c0-5,0-7.4-2.5-9.9c-5-5-14.9-7.4-19.8-2.5c-7.4,7.4-17.4,9.9-24.8,9.9c-12.4,0-24.8-7.4-32.2-17.4H248c7.4,0,14.9-7.4,14.9-14.9
			s-7.4-14.9-14.9-14.9h-52.1v-2.5h47.1c7.4,0,14.9-7.4,14.9-14.9s-7.4-14.9-14.9-14.9h-42.2C208.3,445.7,223.2,435.8,240.6,435.8z"
			/>
	</g>
</g>
</svg>
