<?xml version="1.0" encoding="utf-8"?>
<!-- Generator: Adobe Illustrator 18.0.0, SVG Export Plug-In . SVG Version: 6.00 Build 0)  -->
<!DOCTYPE svg PUBLIC "-//W3C//DTD SVG 1.1//EN" "http://www.w3.org/Graphics/SVG/1.1/DTD/svg11.dtd">
<svg version="1.1" id="Capa_1" xmlns="http://www.w3.org/2000/svg" xmlns:xlink="http://www.w3.org/1999/xlink" x="0px" y="0px"
	 viewBox="0 0 595.3 841.9" enable-background="new 0 0 595.3 841.9" xml:space="preserve">
<g id="guia" display="none">
</g>
<g id="guia2">
</g>
<g id="Capa_3">
	<g id="guia_1_">
	</g>
	<path fill="#FFFFFF" d="M501,604.5h-9.9l-168.7-315l34.7-62c2.5-5,2.5-9.9,2.5-17.4c-5-5-7.4-9.9-12.4-12.4
		c-9.9-5-22.3-2.5-29.8,7.4l-19.8,39.7l-19.8-39.7c-7.4-9.9-19.8-12.4-29.8-7.4c-5,2.5-7.4,7.4-9.9,12.4c-2.5,5,0,12.4,2.5,17.4
		l32.2,62l-168.7,315h-9.9c-12.4,0-22.3,9.9-22.3,22.3s9.9,22.3,22.3,22.3h409.3c12.4,0,22.3-9.9,22.3-22.3
		C523.4,614.4,513.4,604.5,501,604.5z M297.6,334.1L444,604.5h-19.8c-2.5-2.5-5-5-7.4-7.4C334.8,562.3,320,443.3,320,440.8v-2.5
		v-2.5c0,0,0-2.5-2.5-5l-2.5-2.5l-2.5-2.5c0,0-2.5,0-5-2.5h-2.5h-5l0,0l0,0h-5h-2.5l-2.5,2.5l-2.5,2.5l-2.5,2.5c0,0,0,2.5-2.5,2.5
		v2.5v2.5c0,0-17.4,121.5-96.7,156.3c-2.5,2.5-5,2.5-7.4,7.4h-27.3L297.6,334.1z M349.7,604.5H245.6c24.8-22.3,42.2-52.1,52.1-79.4
		C310,552.4,324.9,582.2,349.7,604.5z"/>
</g>
</svg>
