<?xml version="1.0" encoding="utf-8"?>
<!-- Generator: Adobe Illustrator 18.0.0, SVG Export Plug-In . SVG Version: 6.00 Build 0)  -->
<!DOCTYPE svg PUBLIC "-//W3C//DTD SVG 1.1//EN" "http://www.w3.org/Graphics/SVG/1.1/DTD/svg11.dtd">
<svg version="1.1" id="Capa_1" xmlns="http://www.w3.org/2000/svg" xmlns:xlink="http://www.w3.org/1999/xlink" x="0px" y="0px"
	 viewBox="0 0 595.3 841.9" enable-background="new 0 0 595.3 841.9" xml:space="preserve">
<g id="guia" display="none">
</g>
<g id="guia2">
</g>
<g id="Capa_3">
	<g id="guia_1_">
	</g>
	<path fill="#FFFFFF" d="M463.8,279.6c5-2.5,9.9-9.9,9.9-14.9v-42.2c0-9.9-7.4-17.4-17.4-17.4h-44.6c-7.4,0-12.4,5-17.4,9.9
		c-2.5,5-9.9,5-12.4,0c-2.5-5-9.9-9.9-17.4-9.9H320c-7.4,0-12.4,5-17.4,9.9c-2.5,5-9.9,5-12.4,0c-2.5-5-9.9-9.9-17.4-9.9h-42.2
		c-7.4,0-14.9,2.5-17.4,9.9c-2.5,5-9.9,5-12.4,0c-2.5-7.4-9.9-9.9-17.4-9.9h-42.2c-12.4,0-19.8,7.4-19.8,17.4v39.7
		c0,7.4,5,12.4,9.9,17.4c2.5,0,5,2.5,5,7.4c0,5-2.5,2.5-5,5c-5,2.5-9.9,9.9-9.9,17.4V354c0,7.4,5,12.4,9.9,17.4c2.5,2.5,5,2.5,5,7.4
		c0,2.5-2.5,5-5,7.4c-7.4,2.5-9.9,9.9-9.9,17.4v44.6c0,7.4,5,12.4,9.9,17.4c2.5,2.5,5,2.5,5,7.4c0,2.5-2.5,5-5,7.4
		c-7.4,2.5-9.9,9.9-9.9,17.4v44.6c0,7.4,5,12.4,9.9,17.4c2.5,0,5,2.5,5,7.4c0,2.5-2.5,5-5,7.4c-7.4,2.5-9.9,9.9-9.9,17.4v27.3
		c0,9.9,7.4,17.4,17.4,17.4h44.6c7.4,0,12.4-2.5,14.9-9.9c2.5-5,9.9-5,12.4,0c2.5,5,9.9,9.9,14.9,9.9h47.1c7.4,0,12.4-2.5,14.9-9.9
		c2.5-5,9.9-5,12.4,0s9.9,9.9,14.9,9.9h47.1c7.4,0,12.4-2.5,14.9-9.9c2.5-5,9.9-5,12.4,0s9.9,9.9,14.9,9.9h44.6
		c9.9,0,17.4-7.4,17.4-17.4v-39.7c0-7.4-2.5-12.4-9.9-14.9c-2.5-2.5-2.5-2.5-2.5-5s2.5-5,2.5-5c5-2.5,9.9-9.9,9.9-14.9v-47.1
		c0-7.4-2.5-12.4-9.9-14.9c-2.5-2.5-2.5-2.5-2.5-5c0-2.5,2.5-5,2.5-5c5-2.5,9.9-9.9,9.9-14.9v-47.1c0-7.4-2.5-12.4-9.9-14.9
		c-2.5-2.5-2.5-2.5-2.5-5c0-2.5,2.5-5,2.5-5c5-2.5,9.9-9.9,9.9-14.9v-59.5c0-7.4-2.5-12.4-9.9-14.9c-2.5-2.5-2.5-2.5-2.5-5
		C461.3,282,461.3,279.6,463.8,279.6z M158.7,589.6c9.9-7.4,14.9-19.8,14.9-32.2s-5-24.8-14.9-32.2v-24.8
		c9.9-9.9,14.9-19.8,14.9-34.7s-5-24.8-14.9-32.2v-24.8c9.9-7.4,14.9-19.8,14.9-32.2s-5-24.8-14.9-32.2v-24.8
		c9.9-9.9,14.9-22.3,14.9-34.7s-5-24.8-14.9-32.2v-12.4h14.9c7.4,9.9,19.8,14.9,32.2,14.9c12.4,0,24.8-5,32.2-14.9h27.3
		c7.4,9.9,19.8,14.9,32.2,14.9s24.8-5,32.2-14.9h27.3c7.4,9.9,19.8,14.9,32.2,14.9s24.8-5,32.2-14.9h14.9v12.4
		c-7.4,7.4-12.4,19.8-12.4,29.8s5,22.3,12.4,29.8v29.8c-7.4,7.4-12.4,19.8-12.4,29.8s5,22.3,12.4,29.8v2.5c-5,0-9.9,0-17.4,0v-129
		c0-5-5-9.9-9.9-9.9H186c-5,0-9.9,5-9.9,9.9v295.2c0,5,5,9.9,9.9,9.9h54.6c0,7.4-2.5,14.9-2.5,22.3h0c-17.4-17.4-44.6-17.4-62,0
		h-17.4V589.6z M436.5,433.3v2.5c-7.4,7.4-9.9,14.9-12.4,22.3c-2.5,0-2.5,0-5,0v-24.8C426.6,433.3,431.6,433.3,436.5,433.3z
		 M208.3,296.9h178.6V416c-67,14.9-119.1,64.5-138.9,131.5h-39.7V296.9z M389.4,440.8v27.3c-39.7,12.4-71.9,42.2-86.8,79.4h-29.8
		C292.7,495.4,334.8,455.7,389.4,440.8z M327.4,547.4c12.4-24.8,34.7-44.6,62-57v57H327.4z M315,579.7h94.3c5,0,9.9-5,9.9-9.9V483
		c2.5,0,5,0,5,0c2.5,5,5,12.4,9.9,14.9v29.8c-7.4,7.4-12.4,19.8-12.4,29.8c0,12.4,5,22.3,12.4,29.8v12.4h-17.4
		c-17.4-17.4-44.6-17.4-62,0h-29.8c-5-5-9.9-7.4-14.9-9.9C312.5,587.1,315,582.2,315,579.7z M292.7,579.7c0,2.5,0,7.4-2.5,9.9
		c-9.9,2.5-17.4,5-24.8,12.4h-2.5c0-7.4,0-14.9,2.5-22.3H292.7L292.7,579.7z"/>
</g>
</svg>
