<?xml version="1.0" encoding="utf-8"?>
<!-- Generator: Adobe Illustrator 18.0.0, SVG Export Plug-In . SVG Version: 6.00 Build 0)  -->
<!DOCTYPE svg PUBLIC "-//W3C//DTD SVG 1.1//EN" "http://www.w3.org/Graphics/SVG/1.1/DTD/svg11.dtd">
<svg version="1.1" id="Capa_1" xmlns="http://www.w3.org/2000/svg" xmlns:xlink="http://www.w3.org/1999/xlink" x="0px" y="0px"
	 viewBox="0 0 595.3 841.9" enable-background="new 0 0 595.3 841.9" xml:space="preserve">
<g id="guia" display="none">
</g>
<g id="guia2">
</g>
<g id="Capa_3">
	<g id="guia_1_">
	</g>
	<g>
		<path fill="#FFFFFF" d="M168.7,264.7c7.4,2.5,14.9,2.5,22.3,2.5l0,0c12.4,0,22.3-2.5,32.2-5c0,5-2.5,12.4-2.5,19.8
			c0,19.8,7.4,39.7,22.3,54.6c14.9,14.9,34.7,22.3,54.6,22.3c19.8,0,39.7-7.4,54.6-22.3s22.3-34.7,22.3-54.6c0-7.4,0-12.4-2.5-19.8
			c9.9,2.5,19.8,5,29.8,5l0,0c7.4,0,14.9,0,22.3-2.5c5,0,7.4-5,7.4-5c0-5-5-7.4-5-9.9l0,0c-2.5-2.5-5-2.5-5-5l0,0
			c-2.5-5-7.4-7.4-9.9-12.4l0,0c-2.5-5-14.9-17.4-32.2-17.4l0,0c-2.5,0-2.5,0-5,0c-5,0-9.9,2.5-14.9,7.4c-2.5,2.5-5,5-5,7.4
			l-2.5-2.5c-14.9-14.9-34.7-22.3-54.6-22.3c-19.8,0-39.7,7.4-54.6,22.3l-2.5,2.5c0-2.5-2.5-5-5-9.9c-5-2.5-9.9-5-14.9-5
			c-2.5,0-2.5,0-5,0l0,0c-7.4,0-14.9,2.5-19.8,5c-5,5-9.9,7.4-12.4,12.4l0,0c-2.5,5-7.4,7.4-9.9,12.4l0,0c-2.5,2.5-2.5,2.5-5,5l0,0
			c-2.5,2.5-7.4,5-5,9.9C163.7,264.7,168.7,264.7,168.7,264.7z M364.6,237.4c0-2.5,2.5-5,5-7.4c2.5-2.5,5-2.5,7.4-2.5h2.5l0,0
			c9.9,0,17.4,7.4,22.3,14.9l0,0c2.5,5,7.4,9.9,9.9,12.4l0,0l2.5,2.5c-2.5,0-7.4,0-9.9,0l0,0c-9.9,0-19.8-2.5-29.8-5
			c-2.5,0-5-2.5-5-5c-2.5-2.5-2.5-5-2.5-7.4C364.6,237.4,364.6,237.4,364.6,237.4z M359.6,262.2c-9.9,0-19.8-2.5-27.3-7.4
			s-14.9-9.9-19.8-17.4c-5-7.4-9.9-17.4-9.9-19.8C329.9,220,349.7,237.4,359.6,262.2z M295.2,217.6c0,14.9-5,24.8-12.4,32.2
			c-9.9,7.4-19.8,7.4-29.8,9.9c-5,0-9.9,0-12.4,0C248,234.9,270.4,220,295.2,217.6z M238.1,264.7c7.4,2.5,32.2,5,47.1-9.9
			c7.4-5,12.4-14.9,14.9-24.8c2.5,2.5,5,7.4,7.4,12.4c5,7.4,12.4,14.9,22.3,17.4c9.9,5,19.8,7.4,32.2,7.4c0,5,0,7.4,0,12.4
			c0,34.7-27.3,64.5-64.5,64.5s-62-27.3-62-62C235.6,274.6,235.6,269.6,238.1,264.7z M183.5,252.3L183.5,252.3
			c2.5-5,7.4-9.9,9.9-12.4l0,0c5-7.4,12.4-14.9,22.3-14.9l0,0h2.5c5,0,5,2.5,7.4,5c2.5,2.5,2.5,5,5,7.4v2.5c0,2.5-2.5,5-2.5,7.4
			c-2.5,0-5,2.5-7.4,2.5c-7.4,5-17.4,5-29.8,5l0,0C188.5,254.8,183.5,254.8,183.5,252.3C181.1,254.8,183.5,254.8,183.5,252.3z"/>
		<path fill="#FFFFFF" d="M404.3,354c-14.9-7.4-29.8-12.4-49.6-14.9c-2.5,0-5,0-7.4,2.5s-5,7.4-7.4,9.9
			c-12.4,14.9-27.3,19.8-42.2,19.8c-14.9,0-29.8-5-42.2-17.4c-2.5-2.5-5-7.4-7.4-9.9c-2.5-2.5-5-2.5-9.9-2.5
			c-17.4,2.5-34.7,7.4-49.6,12.4c-14.9,9.9-29.8,19.8-42.2,29.8c-12.4,12.4-17.4,22.3-14.9,32.2c2.5,5,7.4,14.9,24.8,14.9
			c14.9,0,34.7-5,54.6-14.9c2.5-2.5,5-2.5,7.4-5c0,12.4,0,27.3-2.5,39.7c-2.5,19.8-12.4,37.2-19.8,54.6c-2.5,2.5-2.5,7.4-5,9.9l0,0
			c-2.5,2.5-2.5,7.4,0,12.4c2.5,5,7.4,9.9,12.4,12.4c7.4,2.5,17.4,7.4,24.8,9.9c0,5-2.5,12.4-2.5,17.4c0,17.4,2.5,34.7,9.9,47.1
			c7.4,14.9,17.4,22.3,27.3,22.3c9.9,0,19.8-7.4,27.3-22.3c2.5-5,5-9.9,5-14.9c2.5,5,2.5,9.9,5,14.9c7.4,14.9,17.4,22.3,27.3,22.3
			s19.8-7.4,27.3-22.3c5-12.4,9.9-29.8,9.9-47.1c0-5,0-12.4-2.5-17.4c7.4-2.5,17.4-5,24.8-9.9c5-2.5,9.9-7.4,12.4-12.4
			c2.5-5,2.5-7.4,0-12.4c-2.5-7.4-7.4-14.9-9.9-22.3c-12.4-22.3-22.3-44.6-22.3-69.4c0-5,0-12.4,0-17.4c2.5,2.5,5,2.5,9.9,5
			c0,0,2.5,0,2.5,2.5c9.9,5,19.8,7.4,29.8,9.9c9.9,2.5,17.4,5,27.3,5c19.8,0,24.8-7.4,27.3-12.4C468.8,398.6,439,371.3,404.3,354z
			 M156.3,416c-5,0-9.9,0-9.9-2.5c0-2.5,0-7.4,9.9-17.4c2.5-2.5,7.4-7.4,12.4-9.9c5,2.5,9.9,9.9,12.4,24.8
			C171.1,413.5,163.7,416,156.3,416z M277.8,607c-5,7.4-7.4,12.4-12.4,12.4s-9.9-5-12.4-12.4c-5-9.9-7.4-24.8-7.4-39.7
			c0-5,0-9.9,0-14.9l0,0c7.4,0,22.3,2.5,39.7,2.5c0,5,0,7.4,0,12.4C285.2,582.2,282.8,597,277.8,607z M342.3,607
			c-5,7.4-7.4,12.4-12.4,12.4s-9.9-5-12.4-12.4c-5-9.9-7.4-24.8-7.4-39.7c0-5,0-7.4,0-12.4c12.4,0,24.8,0,39.7-2.5c0,5,0,9.9,0,14.9
			C349.7,582.2,347.2,597,342.3,607z M444,413.5c-2.5,0-5,0-7.4,0c-7.4,0-14.9-2.5-24.8-5l0,0c0-14.9,7.4-24.8,9.9-27.3
			c5,5,9.9,7.4,14.9,12.4c9.9,9.9,12.4,14.9,9.9,17.4C446.5,413.5,446.5,413.5,444,413.5z"/>
	</g>
</g>
</svg>
