<?xml version="1.0" encoding="utf-8"?>
<!-- Generator: Adobe Illustrator 18.0.0, SVG Export Plug-In . SVG Version: 6.00 Build 0)  -->
<!DOCTYPE svg PUBLIC "-//W3C//DTD SVG 1.1//EN" "http://www.w3.org/Graphics/SVG/1.1/DTD/svg11.dtd">
<svg version="1.1" id="Capa_1" xmlns="http://www.w3.org/2000/svg" xmlns:xlink="http://www.w3.org/1999/xlink" x="0px" y="0px"
	 viewBox="0 0 595.3 841.9" enable-background="new 0 0 595.3 841.9" xml:space="preserve">
<g id="guia" display="none">
</g>
<g id="guia2">
</g>
<g id="Capa_3">
	<g id="guia_1_">
	</g>
	<path fill="#FFFFFF" d="M431.6,500.3c44.6-29.8,74.4-76.9,74.4-131.5c0-89.3-81.9-163.7-183.5-163.7c-2.5,0-5,0-7.4,0
		c-12.4,0-19.8,9.9-19.8,19.8v124H181.1c0-2.5,0-5,0-7.4l-2.5-7.4c-5-22.3-24.8-37.2-47.1-37.2c-2.5,0-7.4,0-9.9,0
		c-22.3,5-37.2,27.3-32.2,49.6c5,19.8,22.3,34.7,44.6,29.8c2.5,0,7.4-2.5,9.9-2.5v2.5v2.5c2.5,52.1,32.2,96.7,74.4,124
		c-29.8,7.4-54.6,34.7-54.6,67c0,37.2,29.8,69.4,69.4,69.4s69.4-29.8,69.4-69.4c0-14.9-5-27.3-12.4-39.7c12.4,2.5,22.3,2.5,34.7,2.5
		s27.3-2.5,39.7-5c-7.4,12.4-12.4,24.8-12.4,39.7c0,37.2,29.8,69.4,69.4,69.4s69.4-29.8,69.4-69.4
		C488.6,535,463.8,507.8,431.6,500.3z M302.6,391.2c19.8,0,37.2-17.4,37.2-37.2V247.3c69.4,7.4,126.5,59.5,126.5,121.5
		c0,67-62,121.5-141.4,121.5c-67,0-126.5-42.2-138.9-99.2L302.6,391.2L302.6,391.2z"/>
</g>
</svg>
