<?xml version="1.0" encoding="utf-8"?>
<!-- Generator: Adobe Illustrator 18.0.0, SVG Export Plug-In . SVG Version: 6.00 Build 0)  -->
<!DOCTYPE svg PUBLIC "-//W3C//DTD SVG 1.1//EN" "http://www.w3.org/Graphics/SVG/1.1/DTD/svg11.dtd">
<svg version="1.1" id="Capa_1" xmlns="http://www.w3.org/2000/svg" xmlns:xlink="http://www.w3.org/1999/xlink" x="0px" y="0px"
	 viewBox="0 0 595.3 841.9" enable-background="new 0 0 595.3 841.9" xml:space="preserve">
<g id="guia" display="none">
</g>
<g id="guia2">
</g>
<g id="Capa_3">
	<g id="guia_1_">
	</g>
	<g>
		<path fill="#FFFFFF" d="M280.3,274.6h-19.8c-5,0-9.9,5-9.9,9.9s5,9.9,9.9,9.9h19.8c5,0,9.9-5,9.9-9.9S287.7,274.6,280.3,274.6z"/>
		<path fill="#FFFFFF" d="M332.4,274.6h-19.8c-5,0-9.9,5-9.9,9.9s5,9.9,9.9,9.9h19.8c5,0,9.9-5,9.9-9.9S339.8,274.6,332.4,274.6z"/>
		<path fill="#FFFFFF" d="M409.3,344.1h-14.9c-2.5,0-7.4,0-9.9,2.5c-5-5-9.9-9.9-17.4-9.9c2.5-2.5,2.5-7.4,2.5-12.4v-54.6
			c0-14.9-12.4-29.8-29.8-29.8h-42.2c0-2.5,0-7.4,0-9.9c0-5,2.5-9.9,5-17.4c2.5-2.5,2.5-5,5-7.4c2.5,0,2.5,0,5,0
			c2.5,5,9.9-2.5,9.9-7.4c0-7.4-5-12.4-12.4-12.4s-12.4,5-12.4,12.4c0,2.5,0,5,2.5,7.4c-2.5,2.5-2.5,5-5,7.4c-2.5,5-5,12.4-5,17.4
			s0,7.4,0,9.9H253c-14.9,0-29.8,12.4-29.8,29.8v52.1c0,5,0,7.4,2.5,12.4c-5,2.5-9.9,5-14.9,12.4c-2.5-2.5-5-2.5-9.9-2.5h-12.4
			c-12.4,0-19.8,9.9-19.8,19.8v129c0,12.4,9.9,19.8,19.8,19.8h14.9c2.5,0,2.5,0,5,0c2.5,9.9,7.4,14.9,14.9,19.8v2.5v101.7
			c0,12.4,14.9,19.8,27.3,19.8h19.8c7.4,0,12.4-2.5,17.4-5s7.4-9.9,7.4-14.9V535c0,0,0,0,0-2.5h7.4c0,0,0,0,0,2.5v101.7
			c0,12.4,14.9,19.8,27.3,19.8h19.8c7.4,0,12.4-2.5,17.4-5s7.4-9.9,7.4-14.9V535v-2.5c7.4-2.5,14.9-9.9,14.9-19.8c2.5,0,2.5,0,5,0
			h14.9c12.4,0,19.8-9.9,19.8-19.8v-129C429.1,354,419.2,344.1,409.3,344.1z M205.9,492.9c0,2.5-2.5,5-5,5h-12.4c-2.5,0-5-2.5-5-5
			v-129c0-2.5,2.5-5,5-5h14.9c2.5,0,5,2.5,5,5v129H205.9z M243.1,391.2c5,0,7.4,2.5,7.4,7.4s-2.5,7.4-7.4,7.4s-7.4-2.5-7.4-7.4
			S238.1,391.2,243.1,391.2z M277.8,636.7c0,0-2.5,2.5-7.4,2.5H248c-5,0-9.9-2.5-12.4-5V535c0,0,2.5,0,2.5-2.5c2.5,0,5,0,7.4,0h19.8
			c5,0,7.4,0,7.4,2.5v101.7H277.8z M280.3,428.4h-44.6v-5h44.6V428.4z M280.3,416h-44.6v-5h44.6C280.3,408.5,280.3,416,280.3,416z
			 M250.5,398.6c0-5,2.5-7.4,7.4-7.4c5,0,7.4,2.5,7.4,7.4s-2.5,7.4-7.4,7.4C253,406.1,250.5,401.1,250.5,398.6z M265.4,398.6
			c0-5,2.5-7.4,7.4-7.4s7.4,2.5,7.4,7.4s-2.5,7.4-7.4,7.4S265.4,401.1,265.4,398.6z M250.5,336.6c-5-2.5-9.9-7.4-9.9-12.4v-54.6
			c0-7.4,5-12.4,12.4-12.4h86.8c7.4,0,12.4,5,12.4,12.4v52.1c0,5-2.5,9.9-7.4,12.4C344.8,336.6,250.5,336.6,250.5,336.6z
			 M357.2,636.7c0,0-2.5,2.5-7.4,2.5h-19.8c-5,0-9.9-2.5-12.4-5V535c0,0,2.5,0,2.5-2.5c2.5,0,5,0,7.4,0h19.8c5,0,7.4,0,7.4,2.5
			C357.2,537.5,357.2,636.7,357.2,636.7z M359.6,428.4c0,7.4-5,12.4-12.4,12.4h-49.6c-7.4,0-12.4-5-12.4-12.4v-32.2
			c0-7.4,5-9.9,12.4-9.9h49.6c7.4,0,12.4,5,12.4,9.9V428.4z M414.2,492.9c0,2.5-2.5,5-5,5h-14.9c-2.5,0-5-2.5-5-5v-129
			c0-2.5,2.5-5,5-5h14.9c2.5,0,5,2.5,5,5V492.9z"/>
		<path fill="#FFFFFF" d="M349.7,393.7h-49.6c-2.5,0-5,2.5-5,2.5v32.2c0,2.5,2.5,2.5,5,2.5h49.6c2.5,0,5-2.5,5-2.5v-32.2
			C352.2,393.7,352.2,393.7,349.7,393.7z M347.2,425.9h-44.6v-5h44.6V425.9z M347.2,416h-44.6v-7.4h44.6V416z M347.2,403.6h-44.6v-5
			h44.6V403.6z"/>
	</g>
</g>
</svg>
