<?xml version="1.0" encoding="utf-8"?>
<!-- Generator: Adobe Illustrator 18.0.0, SVG Export Plug-In . SVG Version: 6.00 Build 0)  -->
<!DOCTYPE svg PUBLIC "-//W3C//DTD SVG 1.1//EN" "http://www.w3.org/Graphics/SVG/1.1/DTD/svg11.dtd">
<svg version="1.1" id="Capa_1" xmlns="http://www.w3.org/2000/svg" xmlns:xlink="http://www.w3.org/1999/xlink" x="0px" y="0px"
	 viewBox="0 0 595.3 841.9" enable-background="new 0 0 595.3 841.9" xml:space="preserve">
<g id="guia" display="none">
</g>
<g id="guia2">
</g>
<g id="Capa_3">
	<g>
		<circle fill="#FFFFFF" cx="183.5" cy="232.4" r="7.4"/>
		<path fill="#FFFFFF" d="M434.1,254.8c0,0,0-2.5,0-5v-37.2c0-5-2.5-7.4-7.4-7.4H163.7c-5,0-7.4,2.5-7.4,7.4v39.7c0,2.5,0,2.5,2.5,5
			c-9.9,39.7-44.6,260.4-5,349.7c2.5,2.5,2.5,7.4,5,7.4c0,0,42.2,19.8,143.9,19.8h2.5l0,0c22.3,0,42.2,0,57-2.5l14.9-37.2l12.4,34.7
			c32.2-5,42.2-14.9,42.2-14.9c2.5,0,2.5-5,5-7.4C486.1,517.7,441.5,292,434.1,254.8z M255.5,366.4L255.5,366.4c-5,0-7.4-2.5-7.4-5
			l-14.9-67l-14.9,67l-14.9-2.5l22.3-99.2c0,0,0,0,0-2.5h12.4c0,0,0,0,0,2.5l22.3,99.2C262.9,361.4,260.4,366.4,255.5,366.4z
			 M374.5,366.4C372.1,366.4,372.1,366.4,374.5,366.4c-5,0-7.4-2.5-7.4-5l-14.9-67l-14.9,67c0,5-5,7.4-7.4,5c-5,0-7.4-5-5-7.4
			l22.3-99.2c0,0,0,0,0-2.5h12.4c0,0,0,0,0,2.5l22.3,99.2C379.5,361.4,377,366.4,374.5,366.4z M421.7,242.4H171.1V220h250.5V242.4
			L421.7,242.4z"/>
	</g>
</g>
</svg>
