<?xml version="1.0" encoding="utf-8"?>
<!-- Generator: Adobe Illustrator 18.0.0, SVG Export Plug-In . SVG Version: 6.00 Build 0)  -->
<!DOCTYPE svg PUBLIC "-//W3C//DTD SVG 1.1//EN" "http://www.w3.org/Graphics/SVG/1.1/DTD/svg11.dtd">
<svg version="1.1" id="Capa_1" xmlns="http://www.w3.org/2000/svg" xmlns:xlink="http://www.w3.org/1999/xlink" x="0px" y="0px"
	 viewBox="0 0 595.3 841.9" enable-background="new 0 0 595.3 841.9" xml:space="preserve">
<g id="guia" display="none">
</g>
<g id="guia2">
</g>
<g id="Capa_3">
	<g id="Capa_3_1_">
		<g>
			<path fill="#FFFFFF" d="M151.3,334.1c0,2.5,2.5,7.4,7.4,7.4c2.5,0,7.4-2.5,7.4-7.4v-7.4v-24.8V287v-27.3v-12.4V220v-5
				c0-2.5-2.5-7.4-7.4-7.4c-2.5,0-7.4,2.5-7.4,7.4v7.4h-5v24.8h7.4v12.4h-7.4V287h7.4v12.4h-7.4v27.3h7.4v7.4H151.3z"/>
			<path fill="#FFFFFF" d="M119.1,301.9c-7.4,0-12.4,5-12.4,12.4s5,12.4,12.4,12.4h7.4v7.4c0,2.5,2.5,7.4,7.4,7.4
				c2.5,0,7.4-2.5,7.4-7.4v-7.4v-24.8V287v-27.3v-12.4V220v-5c0-2.5-2.5-7.4-7.4-7.4c-2.5,0-7.4,2.5-7.4,7.4v7.4h-7.4
				c-7.4,0-12.4,5-12.4,12.4s5,12.4,12.4,12.4h7.4v12.4h-7.4c-7.4,0-12.4,5-12.4,12.4s5,12.4,12.4,12.4h7.4v12.4h-7.4V301.9z"/>
			<path fill="#FFFFFF" d="M191,381.3c0,5-2.5,7.4-7.4,7.4c-2.5,0-7.4,2.5-7.4,7.4s2.5,7.4,7.4,7.4c7.4,0,19.8-5,19.8-19.8
				c0-7.4-5-12.4-9.9-17.4c-2.5-7.4-7.4-12.4-7.4-24.8v-14.9h27.3c0,0,42.2,0,52.1-39.7l200.9,9.9h2.5c12.4,0,22.3-12.4,22.3-27.3
				c0-12.4-12.4-22.3-27.3-22.3l-200.9,9.9c-7.4-39.7-52.1-39.7-52.1-39.7H186h-14.9v29.8h12.4c2.5,0,14.9,0,14.9,12.4h-27.3V287
				h27.3c0,12.4-12.4,12.4-12.4,12.4h-14.9v27.3v12.4c0,17.4,7.4,27.3,14.9,32.2C191,376.3,191,378.8,191,381.3z"/>
			<path fill="#FFFFFF" d="M533.3,549.9c-2.5-7.4-9.9-12.4-19.8-12.4h-19.8c-5-44.6-47.1-69.4-89.3-71.9c2.5-2.5,5-5,7.4-7.4
				c2.5-9.9-2.5-19.8-9.9-22.3c-12.4-5-24.8-7.4-37.2-7.4c-22.3-14.9-49.6-24.8-76.9-24.8c-34.7,0-64.5,12.4-89.3,34.7
				c-52.1,5-94.3,47.1-96.7,99.2H81.9c-7.4,0-14.9,5-19.8,12.4c-2.5,7.4,0,17.4,7.4,22.3l79.4,57c2.5,2.5,7.4,5,12.4,5h275.3
				c5,0,7.4-2.5,12.4-5l79.4-59.5C533.3,564.8,535.8,557.4,533.3,549.9z M483.7,535h-9.9c-5-27.3-32.2-44.6-59.5-49.6
				c-2.5-5-2.5-7.4-5-12.4C444,480.5,478.7,500.3,483.7,535z M404.3,490.4c0,2.5,2.5,2.5,2.5,5c5,12.4,7.4,24.8,7.4,39.7h-9.9
				c0-14.9-2.5-27.3-7.4-39.7c0-2.5-2.5-5-2.5-5c-2.5-2.5-2.5-7.4-5-9.9c-2.5-2.5-2.5-5-5-7.4c-2.5-5-5-7.4-9.9-9.9
				c5,0,9.9,2.5,14.9,5h2.5l0,0l2.5,2.5c0,2.5,2.5,2.5,2.5,5c2.5,2.5,5,7.4,5,12.4C401.8,487.9,401.8,490.4,404.3,490.4z M245.6,535
				c0-14.9,5-29.8,12.4-42.2c5-2.5,9.9-2.5,17.4-2.5l0,0c-9.9,14.9-17.4,29.8-17.4,47.1h-12.4V535z M235.6,535h-7.4
				c0-12.4,5-24.8,14.9-32.2C238.1,515.2,235.6,525.1,235.6,535z M287.7,490.4c19.8,5,34.7,22.3,37.2,44.6h-57
				C270.4,520.2,277.8,505.3,287.7,490.4z M297.6,483c-2.5,0-5-2.5-5-2.5c-2.5,0-5,0-7.4-2.5c-2.5,0-5,0-9.9,0c-2.5,0-5,0-7.4,0
				c-2.5,0-5,0-7.4,2.5c-2.5,0-5,2.5-7.4,2.5c-19.8,9.9-34.7,29.8-34.7,52.1h-12.4c2.5-32.2,24.8-59.5,57-67c2.5,0,5,0,7.4,0
				c2.5,0,2.5,0,5,0h2.5c5,0,9.9,0,17.4,2.5c2.5,0,5,2.5,7.4,2.5s5,2.5,5,2.5c22.3,9.9,39.7,34.7,39.7,59.5h-9.9
				C334.8,510.2,320,490.4,297.6,483z M193.5,535h-9.9c0-29.8,12.4-54.6,32.2-71.9l0,0c19.8-17.4,42.2-27.3,69.4-27.3
				c5,0,12.4,0,17.4,2.5c-7.4,2.5-12.4,7.4-19.8,12.4c-5,2.5-7.4,5-9.9,9.9C230.7,458.2,195.9,492.9,193.5,535z M317.5,468.1
				c12.4-5,22.3-7.4,37.2-9.9c22.3,17.4,34.7,44.6,37.2,74.4h-32.2C357.2,507.8,342.3,483,317.5,468.1z M359.6,435.8
				c2.5,0,7.4,0,9.9,0c2.5,0,7.4,0,9.9,2.5c5,0,9.9,2.5,17.4,5c2.5,2.5,5,5,2.5,7.4c0,2.5-2.5,2.5-5,5h-2.5c-2.5,0-2.5,0-5-2.5
				c-2.5,0-7.4-2.5-9.9-2.5c-7.4-2.5-12.4-2.5-19.8-2.5c-2.5,0-5,0-7.4,0s-5,0-9.9,0c-12.4,2.5-24.8,5-34.7,12.4
				c-5-2.5-9.9-2.5-17.4-5c0,0,0,0,2.5-2.5c9.9-7.4,19.8-12.4,29.8-14.9c2.5,0,7.4-2.5,9.9-2.5c2.5,0,5-2.5,7.4-2.5
				c5,0,9.9,0,14.9,0C357.2,435.8,359.6,435.8,359.6,435.8z M191,458.2c2.5-5,7.4-7.4,9.9-12.4c2.5-2.5,5-2.5,5-5
				c2.5-2.5,2.5-2.5,5-2.5c19.8-14.9,47.1-24.8,74.4-24.8c19.8,0,39.7,5,57,12.4c-7.4,0-14.9,2.5-19.8,5c-12.4-2.5-22.3-5-34.7-5
				c-24.8,0-47.1,7.4-67,22.3c-2.5,0-2.5,2.5-5,5c-2.5,2.5-5,2.5-7.4,5l0,0c-2.5,2.5-5,5-7.4,7.4s-2.5,5-5,5
				c-14.9,19.8-24.8,42.2-24.8,67h-9.9c0-22.3,7.4-44.6,19.8-62c2.5-2.5,2.5-5,5-7.4C186,463.1,188.5,460.6,191,458.2z M183.5,448.2
				c-5,5-7.4,9.9-12.4,14.9c-29.8,12.4-49.6,39.7-49.6,71.9h-9.9C114.1,492.9,143.9,458.2,183.5,448.2z M133.9,535
				c0-22.3,12.4-42.2,29.8-54.6c-7.4,17.4-12.4,34.7-12.4,54.6H133.9z M424.1,535c0-12.4-2.5-24.8-5-37.2
				c22.3,5,39.7,17.4,44.6,37.2H424.1z"/>
		</g>
	</g>
</g>
</svg>
