<?xml version="1.0" encoding="utf-8"?>
<!-- Generator: Adobe Illustrator 18.0.0, SVG Export Plug-In . SVG Version: 6.00 Build 0)  -->
<!DOCTYPE svg PUBLIC "-//W3C//DTD SVG 1.1//EN" "http://www.w3.org/Graphics/SVG/1.1/DTD/svg11.dtd">
<svg version="1.1" id="Capa_1" xmlns="http://www.w3.org/2000/svg" xmlns:xlink="http://www.w3.org/1999/xlink" x="0px" y="0px"
	 viewBox="0 0 595.3 841.9" enable-background="new 0 0 595.3 841.9" xml:space="preserve">
<g id="guia" display="none">
</g>
<g id="guia2">
</g>
<g id="Capa_3">
	<g>
		<path fill="#FFFFFF" d="M372.1,311.8h-34.7c-7.4,27.3-24.8,27.3-42.2,27.3c-19.8,0-37.2-2.5-44.6-27.3h-32.2h-2.5l-99.2,76.9l0,0
			l32.2,136.4l52.1-2.5l-32.2-114.1l39.7-32.2v148.8h89.3h81.9V376.3l39.7,32.2l-29.8,114.1h52.1l29.8-138.9L372.1,311.8
			L372.1,311.8L372.1,311.8z"/>
		<path fill="#FFFFFF" d="M168.7,537.5v57h191v-2.5h7.4v2.5h47.1v-5l0,0h5v-39.7L391.9,535L168.7,537.5L168.7,537.5z M396.9,562.3
			c-2.5,0-32.2-2.5-34.7-12.4h2.5c0,7.4,19.8,9.9,29.8,9.9L396.9,562.3z"/>
		<path fill="#FFFFFF" d="M359.6,602h-191v52.1h220.7l29.8-12.4V602H359.6L359.6,602z M396.9,629.3v2.5c-12.4,0-29.8,2.5-29.8,9.9
			h-2.5C362.1,631.8,391.9,629.3,396.9,629.3z"/>
		<path fill="#FFFFFF" d="M453.9,187.8c-42.2,0-76.9,34.7-76.9,76.9s34.7,76.9,76.9,76.9s76.9-34.7,76.9-76.9
			S496.1,187.8,453.9,187.8z M451.4,239.9l-29.8,24.8h29.8v9.9h-44.6v-7.4l29.8-24.8h-29.8V230h44.6V239.9z M488.6,262.2l-19.8,17.4
			h19.8v7.4h-29.8v-5l19.8-17.4h-19.8v-7.4h29.8V262.2z M513.4,294.4v5h-19.8v-5L506,282h-12.4v-5h19.8v5L501,294.4H513.4
			L513.4,294.4z"/>
	</g>
</g>
</svg>
