<?xml version="1.0" encoding="utf-8"?>
<!-- Generator: Adobe Illustrator 18.0.0, SVG Export Plug-In . SVG Version: 6.00 Build 0)  -->
<!DOCTYPE svg PUBLIC "-//W3C//DTD SVG 1.1//EN" "http://www.w3.org/Graphics/SVG/1.1/DTD/svg11.dtd">
<svg version="1.1" id="Capa_1" xmlns="http://www.w3.org/2000/svg" xmlns:xlink="http://www.w3.org/1999/xlink" x="0px" y="0px"
	 viewBox="0 0 595.3 841.9" enable-background="new 0 0 595.3 841.9" xml:space="preserve">
<g id="guia" display="none">
</g>
<g id="guia2">
</g>
<g id="Capa_3">
	<path fill="#FFFFFF" d="M277.8,458.2c14.9,14.9,24.8,34.7,29.8,54.6c69.4-14.9,143.9-22.3,218.3-22.3c19.8-57-9.9-129-19.8-151.3
		c-24.8,17.4-52.1,32.2-81.9,39.7c-9.9,2.5-24.8,7.4-39.7,7.4c-7.4,0-17.4-2.5-24.8-5c-7.4-5-12.4-12.4-12.4-22.3v-2.5
		c0-9.9,7.4-19.8,9.9-24.8c5-7.4,7.4-12.4,7.4-17.4c0-2.5,0-5-2.5-7.4c-2.5-7.4-7.4-17.4-9.9-27.3c0-2.5-24.8,7.4-27.3,9.9
		c-5,2.5-7.4,5-9.9,9.9l12.4,5c2.5,0,5-2.5,5-2.5c7.4,0,12.4,5,12.4,12.4s-5,12.4-12.4,12.4c-7.4,0-12.4-5-12.4-12.4l0,0l-12.4-5
		c-5,7.4-7.4,17.4-9.9,27.3l14.9,7.4c2.5,0,2.5-2.5,5-2.5c7.4,0,12.4,5,12.4,12.4c0,7.4-5,12.4-12.4,12.4c-7.4,0-12.4-5-12.4-12.4
		l0,0l-7.4-9.9c-2.5,5-2.5,9.9-5,12.4c-2.5,2.5-2.5,7.4-5,9.9l12.4,7.4c2.5,0,2.5,0,5,0c7.4,0,12.4,5,12.4,12.4s-5,12.4-12.4,12.4
		s-12.4-5-12.4-12.4v-2.5l-9.9-7.4c-5,7.4-9.9,14.9-14.9,22.3l12.4,9.9h2.5c7.4,0,12.4,5,12.4,12.4s-5,12.4-12.4,12.4
		s-12.4-5-12.4-12.4c0-2.5,0-2.5,0-2.5l-12.4-9.9c-5,7.4-12.4,12.4-19.8,19.8C253,435.8,265.4,445.7,277.8,458.2z M377,311.8
		c0,9.9-5,19.8-9.9,24.8c-5,7.4-7.4,12.4-9.9,19.8v2.5c0,7.4,2.5,9.9,5,12.4c5,2.5,9.9,5,17.4,2.5c12.4,0,27.3-2.5,34.7-5
		c29.8-9.9,57-24.8,81.9-42.2v-49.6c0,0-52.1,0-121.5,0c-5,0-7.4,0-12.4,0c2.5,7.4,5,14.9,9.9,22.3C377,304.4,377,309.3,377,311.8z
		 M292.7,517.7c-2.5-17.4-12.4-34.7-24.8-49.6c-12.4-12.4-24.8-22.3-39.7-29.8c-19.8,12.4-44.6,19.8-71.9,17.4
		c-57-2.5-81.9,12.4-91.8,29.8c52.1,22.3,109.1,34.7,166.2,34.7C253,522.6,272.8,520.2,292.7,517.7z M523.4,505.3
		c-74.4,0-146.3,7.4-215.8,22.3c-24.8,5-49.6,7.4-74.4,7.4c-59.5,0-119.1-12.4-171.1-37.2c-5,14.9,0,29.8,0,29.8
		c57,29.8,156.3,37.2,193.5,34.7S533.3,540,533.3,540L523.4,505.3z"/>
</g>
</svg>
