<?xml version="1.0" encoding="utf-8"?>
<!-- Generator: Adobe Illustrator 18.0.0, SVG Export Plug-In . SVG Version: 6.00 Build 0)  -->
<!DOCTYPE svg PUBLIC "-//W3C//DTD SVG 1.1//EN" "http://www.w3.org/Graphics/SVG/1.1/DTD/svg11.dtd">
<svg version="1.1" id="Capa_1" xmlns="http://www.w3.org/2000/svg" xmlns:xlink="http://www.w3.org/1999/xlink" x="0px" y="0px"
	 viewBox="0 0 595.3 841.9" enable-background="new 0 0 595.3 841.9" xml:space="preserve">
<g id="guia" display="none">
</g>
<g id="guia2">
</g>
<g id="Capa_3">
	<path fill="#FFFFFF" d="M260.4,411c-27.3,0-52.1,7.4-69.4,22.3c-5,5-7.4,7.4-9.9,12.4h2.5c24.8,2.5,49.6,7.4,71.9,12.4
		c19.8,5,39.7,9.9,59.5,12.4c12.4,0,24.8,2.5,37.2,2.5c27.3,0,57-2.5,86.8-9.9c27.3-5,52.1-12.4,71.9-19.8c-5-7.4-7.4-9.9-17.4-14.9
		c-9.9-5-24.8-5-42.2-5c-5,0-12.4,0-17.4,0h-2.5c-24.8,0-54.6-12.4-71.9-24.8c0,5,2.5,12.4,2.5,19.8c0,5,0,7.4,0,12.4v5v2.5h-2.5
		l-5-2.5c-12.4-5-29.8-12.4-47.1-17.4C292.7,413.5,275.3,411,260.4,411z M525.8,453.2c-27.3,9.9-52.1,17.4-79.4,22.3
		c-29.8,5-59.5,9.9-89.3,9.9c-12.4,0-24.8,0-37.2-2.5c-44.6-5-86.8-22.3-131.5-24.8c-29.8-2.5-59.5-2.5-89.3-2.5
		c-9.9,0-19.8,0-29.8,0c2.5,14.9,0,29.8,0,44.6l131.5,2.5V483c0,0,67,12.4,133.9,19.8c2.5,0,7.4,0,9.9,0c37.2,2.5,71.9-5,109.1-12.4
		c24.8-5,54.6-9.9,79.4-22.3C528.3,465.6,525.8,458.2,525.8,453.2z M171.1,445.7c2.5-7.4,7.4-14.9,14.9-19.8
		c19.8-17.4,44.6-24.8,76.9-24.8c14.9,0,32.2,2.5,52.1,7.4c12.4,2.5,24.8,7.4,42.2,14.9v-2.5c0-12.4-2.5-22.3-5-29.8
		c-2.5-2.5-7.4-5-9.9-7.4l-2.5,2.5c0,2.5,2.5,5,2.5,7.4c0,7.4-5,12.4-12.4,12.4c-7.4,0-12.4-5-12.4-12.4c0-5,2.5-9.9,9.9-12.4
		l2.5-7.4l-7.4-5l-7.4-5l-5,7.4c0,2.5,0,2.5,0,5c0,7.4-5,12.4-12.4,12.4s-12.4-5-12.4-12.4c0-5,5-12.4,9.9-12.4l5-7.4
		c-2.5-5-5-7.4-7.4-9.9l-9.9,9.9v2.5c0,7.4-5,12.4-12.4,12.4c-7.4,0-12.4-5-12.4-12.4s5-12.4,12.4-12.4l0,0l7.4-7.4c0,0-2.5,0-5,0
		c-9.9,0-29.8,5-67,22.3c-14.9,7.4-32.2,12.4-52.1,12.4c-37.2,0-69.4-17.4-74.4-22.3c-7.4,12.4-12.4,27.3-14.9,42.2
		c-2.5,12.4-5,27.3,0,39.7c0,2.5,2.5,5,2.5,7.4v2.5c9.9,0,19.8,0,29.8,0C119.1,443.3,143.9,443.3,171.1,445.7z"/>
</g>
</svg>
