<?xml version="1.0" encoding="utf-8"?>
<!-- Generator: Adobe Illustrator 18.0.0, SVG Export Plug-In . SVG Version: 6.00 Build 0)  -->
<!DOCTYPE svg PUBLIC "-//W3C//DTD SVG 1.1//EN" "http://www.w3.org/Graphics/SVG/1.1/DTD/svg11.dtd">
<svg version="1.1" id="Capa_1" xmlns="http://www.w3.org/2000/svg" xmlns:xlink="http://www.w3.org/1999/xlink" x="0px" y="0px"
	 viewBox="0 0 595.3 841.9" enable-background="new 0 0 595.3 841.9" xml:space="preserve">
<g id="guia" display="none">
</g>
<g id="guia2">
</g>
<path fill="#FFFFFF" d="M468.8,262.2c0-5-5-7.4-7.4-7.4H133.9c-5,0-7.4,2.5-7.4,7.4c-2.5,7.4-37.2,235.6-44.6,265.4
	c0,2.5,0,5,2.5,7.4c2.5,2.5,5,2.5,7.4,2.5l178.6,47.1c5,0,7.4-2.5,9.9-7.4l19.8-86.8l19.8,86.8c0,5,5,7.4,9.9,7.4l0,0l178.6-47.1
	c2.5,0,5-2.5,7.4-2.5s2.5-5,2.5-7.4C506,497.8,471.3,269.6,468.8,262.2z M126.5,368.9c5-22.3,7.4-42.2,9.9-59.5l0,0H186
	C183.5,341.6,158.7,366.4,126.5,368.9z M389.4,440.8h-2.5c-5,0-7.4,0-9.9-2.5c-9.9-7.4-9.9-22.3-12.4-44.6c-2.5-17.4-5-37.2-9.9-57
	c-7.4-24.8-17.4-37.2-29.8-42.2h-62c-7.4,2.5-19.8,7.4-27.3,32.2c-2.5,12.4-5,27.3-5,39.7c-2.5,17.4-2.5,27.3-9.9,32.2
	c-2.5,2.5-5,2.5-9.9,2.5h-2.5c-2.5,0-5-2.5-5-7.4s2.5-5,7.4-5c2.5,0,2.5,0,2.5,0c2.5-2.5,5-12.4,5-24.8c0-12.4,2.5-27.3,5-42.2
	c5-14.9,9.9-24.8,14.9-29.8h-99.2c2.5-7.4,2.5-14.9,2.5-17.4h312.5c0,5,2.5,9.9,2.5,17.4H347.2c7.4,7.4,14.9,19.8,19.8,39.7
	c5,22.3,7.4,42.2,9.9,59.5c2.5,17.4,2.5,32.2,7.4,34.7c0,0,2.5,0,5,0c2.5,0,7.4,2.5,7.4,5C396.9,435.8,394.4,440.8,389.4,440.8z
	 M466.3,368.9c-34.7,0-62-24.8-64.5-59.5h59.5C461.3,326.7,463.8,346.5,466.3,368.9C468.8,368.9,466.3,368.9,466.3,368.9z"/>
</svg>
