<?xml version="1.0" encoding="utf-8"?>
<!-- Generator: Adobe Illustrator 18.0.0, SVG Export Plug-In . SVG Version: 6.00 Build 0)  -->
<!DOCTYPE svg PUBLIC "-//W3C//DTD SVG 1.1//EN" "http://www.w3.org/Graphics/SVG/1.1/DTD/svg11.dtd">
<svg version="1.1" id="Capa_1" xmlns="http://www.w3.org/2000/svg" xmlns:xlink="http://www.w3.org/1999/xlink" x="0px" y="0px"
	 viewBox="0 0 595.3 841.9" enable-background="new 0 0 595.3 841.9" xml:space="preserve">
<g id="guia" display="none">
</g>
<g id="guia2">
</g>
<g id="Capa_3">
	<g>
		<path fill="#FFFFFF" d="M218.3,554.9L218.3,554.9h275.3c17.4,0,32.2-12.4,37.2-29.8c0-2.5,0-5,0-7.4v-47.1
			c0-39.7-22.3-76.9-54.6-101.7c-27.3-19.8-62-32.2-101.7-32.2c-42.2,0-81.9,14.9-109.1,37.2c-2.5,2.5-2.5,2.5-5,5
			c-2.5,2.5-2.5,2.5-5,5c-2.5,2.5-5,5-7.4,7.4c-7.4-5-14.9-9.9-22.3-14.9c-12.4-7.4-24.8-17.4-39.7-24.8c-2.5-2.5-5-5-7.4-5l0,0
			c-2.5-2.5-2.5-2.5-5-2.5h-2.5c-2.5,0-2.5,0-5,0c-5,0-7.4,2.5-9.9,7.4l-5,9.9c-5,7.4-2.5,17.4,5,22.3c2.5,2.5,5,2.5,7.4,5
			c-7.4,0-17.4-2.5-24.8-2.5c-9.9,0-17.4,5-17.4,14.9v9.9c0,5,0,7.4,2.5,9.9c-14.9,0-29.8,2.5-49.6,5c-5,0-7.4,2.5-9.9,7.4
			c-2.5,2.5-5,7.4-2.5,12.4l2.5,9.9c0,9.9,9.9,14.9,17.4,14.9c12.4-2.5,22.3-2.5,32.2-2.5c0,2.5,0,2.5,0,5l2.5,9.9
			c0,5,2.5,7.4,5,9.9c-7.4,2.5-17.4,5-24.8,7.4c-5,0-7.4,5-9.9,7.4c-2.5,5-2.5,7.4-2.5,12.4l2.5,9.9c2.5,7.4,7.4,12.4,14.9,12.4
			c2.5,0,2.5,0,5,0c19.8-5,34.7-9.9,52.1-12.4C168.7,542.5,191,554.9,218.3,554.9L218.3,554.9L218.3,554.9z M297.6,478
			C297.6,480.5,297.6,480.5,297.6,478C297.6,480.5,297.6,480.5,297.6,478C297.6,480.5,297.6,480.5,297.6,478c-2.5,2.5-2.5,5-5,5l0,0
			h-2.5l0,0c-2.5,0-5,0-5-2.5l0,0c-2.5-2.5-2.5-2.5-2.5-5l0,0l0,0l0,0V473c0,0,0-2.5,2.5-2.5l0,0c0,0,0,0,2.5,0c0,0,0,0,2.5,0l0,0
			c0,0,0,0,2.5,0s5,2.5,7.4,2.5l0,0l0,0l0,0C297.6,475.5,297.6,475.5,297.6,478L297.6,478z M307.6,463.1v-2.5v-2.5l0,0
			c0-2.5,2.5-2.5,5-5l0,0c2.5,0,2.5,0,5,0h2.5c2.5,0,5,2.5,7.4,2.5c2.5,2.5,2.5,5,2.5,7.4s0,5-2.5,7.4l0,0c-2.5,2.5-2.5,2.5-5,2.5
			l0,0l0,0H320c0,0,0,0-2.5,0s-2.5,0-5,0l0,0c-2.5,0-2.5-2.5-2.5-2.5l-2.5-2.5c0,0,0,0,0-2.5l0,0
			C307.6,463.1,307.6,463.1,307.6,463.1L307.6,463.1z M272.8,435.8c0-2.5,0-2.5,0-5v-2.5l0,0c0-2.5,2.5-2.5,2.5-5c0,0,0,0,2.5-2.5
			l0,0c2.5-2.5,2.5-2.5,5-2.5c0,0,0,0,2.5,0s2.5,0,5,0c2.5,0,5,0,7.4,2.5s5,5,7.4,7.4l0,0c0,2.5,2.5,5,2.5,7.4l0,0
			c0,2.5,0,5-2.5,7.4l0,0c0,0,0,0,0,2.5s-2.5,2.5-2.5,5c0,0,0,0-2.5,2.5l0,0c0,0-2.5,2.5-5,2.5h-2.5c-2.5,0-2.5,0-5,0l0,0
			c-2.5,0-2.5,0-2.5,0c-2.5,0-5-2.5-5-2.5c-2.5-2.5-5-5-7.4-7.4v-2.5V435.8L272.8,435.8z M218.3,460.6
			C218.3,463.1,218.3,463.1,218.3,460.6c0,2.5,0,5,0,7.4v2.5l0,0v5v2.5c-7.4,0-17.4,0-24.8,0c-2.5,0-5,0-5,0H186
			c-7.4,0-14.9,0-22.3,0c-2.5,0-2.5,0-5,0c-5,0-12.4,0-19.8,2.5h-2.5c-2.5,0-5,0-7.4,0l0,0c-2.5,0-5-2.5-5-2.5l0-7.4v-2.5v-2.5
			c0,0,0,0,2.5,0l0,0c2.5,0,2.5,0,5,0s5,0,7.4,0c7.4,0,12.4-2.5,19.8-2.5c2.5,0,2.5,0,5,0c9.9,0,17.4,0,27.3,0c2.5,0,2.5,0,5,0
			s2.5,0,5,0C205.9,458.2,210.8,458.2,218.3,460.6L218.3,460.6z M163.7,371.3c-2.5,0-2.5-2.5-2.5-5l5-7.4v-2.5l2.5-2.5l0,0l0,0
			c5,2.5,7.4,5,9.9,5c14.9,7.4,27.3,17.4,39.7,24.8c5,2.5,9.9,7.4,12.4,9.9c2.5,2.5,5,5,7.4,7.4c0,0,0,0,0,2.5l0,0
			c0,2.5-2.5,2.5-2.5,5l0,0c0,2.5-2.5,2.5-2.5,5v2.5l-2.5-2.5c0,0,0,0-2.5,0c0,0,0,0-2.5,0c-5-2.5-9.9-7.4-14.9-9.9l-2.5-2.5
			c-2.5-2.5-5-5-9.9-5c0,0-2.5,0-2.5-2.5c-7.4-5-17.4-9.9-27.3-17.4C168.7,373.8,166.2,373.8,163.7,371.3z M131.5,411v-9.9
			c0-2.5,2.5-2.5,2.5-2.5l0,0l0,0c9.9,0,17.4,2.5,27.3,2.5c9.9,2.5,19.8,2.5,29.8,5c2.5,2.5,7.4,5,9.9,7.4c0,0,2.5,0,2.5,2.5
			c5,2.5,9.9,7.4,14.9,9.9c5,0,5,0,7.4,2.5v2.5c-9.9-2.5-17.4-5-27.3-7.4s-19.8-2.5-29.8-5c-2.5,0-5,0-7.4,0c-2.5,0-2.5,0-5,0
			c-5,0-12.4-2.5-19.8-2.5h-2.5C133.9,413.5,131.5,413.5,131.5,411z M76.9,455.7c-2.5,0-5,0-5-2.5l-2.5-9.9v-2.5l5-5
			c24.8-2.5,44.6-5,62-5c5,0,12.4,0,17.4,0h2.5c2.5,0,2.5,0,5,0s2.5,0,5,0c9.9,2.5,17.4,2.5,27.3,5c9.9,2.5,19.8,5,27.3,7.4v2.5
			c-9.9,0-17.4,0-27.3,0H191c-9.9,0-19.8,0-29.8,0c-2.5,0-2.5,0-5,0c-5,0-12.4,0-19.8,2.5c-5,0-7.4,0-12.4,2.5l0,0
			C109.1,450.7,94.3,453.2,76.9,455.7z M146.3,515.2c-12.4,2.5-29.8,5-47.1,9.9c-2.5,0-5,0-5-2.5l-2.5-9.9v-2.5l2.5-2.5
			c12.4-2.5,22.3-5,32.2-7.4c2.5,0,7.4-2.5,9.9-2.5h2.5c7.4-2.5,14.9-2.5,19.8-5h2.5c7.4-2.5,17.4-2.5,24.8-2.5c0,0,0,0,2.5,0
			s5,0,5,0c7.4,0,17.4,0,24.8,0v5v7.4v5l0,0c-9.9,0-19.8,0-29.8,2.5c-7.4,0-12.4,2.5-19.8,2.5C161.2,510.2,153.8,512.7,146.3,515.2z
			 M186,520.2c12.4,0,22.3-2.5,32.2-2.5v7.4v9.9h-2.5c-14.9,0-29.8-5-39.7-14.9C181.1,520.2,183.5,520.2,186,520.2z"/>
		<path fill="#FFFFFF" d="M369.6,311.8c22.3,0,44.6,5,64.5,9.9c-29.8-22.3-67-34.7-111.6-34.7c-49.6,0-94.3,17.4-124,44.6
			c14.9,9.9,29.8,17.4,42.2,27.3C275.3,329.2,320,311.8,369.6,311.8z"/>
	</g>
</g>
</svg>
