<?xml version="1.0" encoding="utf-8"?>
<!-- Generator: Adobe Illustrator 18.0.0, SVG Export Plug-In . SVG Version: 6.00 Build 0)  -->
<!DOCTYPE svg PUBLIC "-//W3C//DTD SVG 1.1//EN" "http://www.w3.org/Graphics/SVG/1.1/DTD/svg11.dtd">
<svg version="1.1" id="Capa_1" xmlns="http://www.w3.org/2000/svg" xmlns:xlink="http://www.w3.org/1999/xlink" x="0px" y="0px"
	 viewBox="0 0 595.3 841.9" enable-background="new 0 0 595.3 841.9" xml:space="preserve">
<g id="guia" display="none">
</g>
<g id="guia2">
</g>
<g id="Capa_3">
	<g>
		<circle fill="#FFFFFF" cx="305.1" cy="435.8" r="5"/>
		<circle fill="#FFFFFF" cx="305.1" cy="463.1" r="5"/>
		<circle fill="#FFFFFF" cx="305.1" cy="408.5" r="5"/>
		<circle fill="#FFFFFF" cx="305.1" cy="545" r="5"/>
		<circle fill="#FFFFFF" cx="305.1" cy="517.7" r="5"/>
		<circle fill="#FFFFFF" cx="305.1" cy="490.4" r="5"/>
		<circle fill="#FFFFFF" cx="305.1" cy="381.3" r="5"/>
		<circle fill="#FFFFFF" cx="305.1" cy="354" r="5"/>
		<path fill="#FFFFFF" d="M302.6,329.2C302.6,329.2,302.6,326.7,302.6,329.2C302.6,326.7,302.6,329.2,302.6,329.2z"/>
		<path fill="#FFFFFF" d="M530.8,483l-12.4-17.4l-2.5-2.5h-2.5l-2.5,2.5l-94.3-148.8c-7.4-9.9-14.9-19.8-24.8-24.8
			s-19.8-7.4-29.8-7.4l-12.4-24.8l0,0l0,0l0,0l0,0l0,0l0,0H243.1h-2.5l0,0l0,0l-12.4,24.8c-9.9,0-19.8,2.5-29.8,7.4
			c-9.9,5-17.4,14.9-24.8,24.8L79.4,465.6h-2.5h-2.5c0,0-2.5,0-2.5,2.5l-12.4,17.4c-2.5,5-2.5,9.9,2.5,14.9l62,42.2
			c2.5,0,5,2.5,5,2.5h2.5c2.5,0,5-2.5,7.4-5l14.9-19.8c0-2.5,0-2.5,0-5l-2.5-2.5l29.8-42.2c0,0,0,0,2.5,0c0,0,0,0,2.5,0
			c0,0,0,0,2.5,0c0,0,0,0,0,2.5v106.7c0,2.5,2.5,2.5,2.5,2.5h99.2h14.9h99.2c2.5,0,2.5-2.5,2.5-2.5V470.6c0,0,0,0,0-2.5
			c0,0,0,0,2.5,0c0,0,0,0,2.5,0c0,0,0,0,2.5,0l29.8,44.6l-2.5,2.5c-2.5,0-2.5,2.5,0,5l12.4,17.4c2.5,2.5,5,5,7.4,5h2.5
			c2.5,0,5,0,5-2.5l62-42.2C530.8,492.9,533.3,487.9,530.8,483z M136.4,535C136.4,535,133.9,535,136.4,535c-2.5,2.5-5,2.5-5,0
			l-62-42.2c-2.5,0-2.5-2.5,0-5l9.9-14.9l67,47.1L136.4,535z M191,460.6C191,463.1,188.5,463.1,191,460.6c-2.5,0-2.5,0-2.5,0
			s-2.5-2.5,0-2.5c0,0,44.6-76.9,5-151.3v-2.5h2.5C235.6,383.7,191,460.6,191,460.6z M258,339.1c-2.5,2.5-5,2.5-7.4,0
			c-2.5,0-5-2.5-5-5l-17.4-37.2l17.4-29.8l32.2,62L258,339.1z M305.1,525.1c-5,0-7.4-2.5-7.4-7.4c0-5,2.5-7.4,7.4-7.4
			s7.4,2.5,7.4,7.4C312.5,520.2,307.6,525.1,305.1,525.1z M312.5,545c0,5-2.5,7.4-7.4,7.4s-7.4-2.5-7.4-7.4c0-5,2.5-7.4,7.4-7.4
			C307.6,537.5,312.5,540,312.5,545z M305.1,497.8c-5,0-7.4-2.5-7.4-7.4s2.5-7.4,7.4-7.4s7.4,2.5,7.4,7.4
			C312.5,492.9,307.6,497.8,305.1,497.8z M305.1,468.1c-5,0-7.4-2.5-7.4-7.4s2.5-7.4,7.4-7.4s7.4,2.5,7.4,7.4
			S307.6,468.1,305.1,468.1z M305.1,440.8c-5,0-7.4-2.5-7.4-7.4s2.5-7.4,7.4-7.4s7.4,2.5,7.4,7.4S307.6,440.8,305.1,440.8z
			 M305.1,413.5c-5,0-7.4-2.5-7.4-7.4s2.5-7.4,7.4-7.4s7.4,2.5,7.4,7.4S307.6,413.5,305.1,413.5z M305.1,388.7c-5,0-7.4-2.5-7.4-7.4
			s2.5-7.4,7.4-7.4s7.4,2.5,7.4,7.4C312.5,383.7,307.6,388.7,305.1,388.7z M305.1,361.4c-5,0-7.4-2.5-7.4-7.4s2.5-7.4,7.4-7.4
			s7.4,2.5,7.4,7.4C312.5,356.5,307.6,361.4,305.1,361.4z M310,331.7c-12.4,0-19.8,9.9-19.8,19.8v200.9c0,12.4,9.9,19.8,19.8,19.8
			c2.5,0,2.5,0,2.5,2.5s0,2.5-2.5,2.5c-14.9,0-24.8-12.4-24.8-24.8V351.5c0-9.9,5-17.4,9.9-19.8c-5-2.5-12.4-5-14.9-5l-5-9.9
			l-9.9-19.8h59.5L310,326.7l0,0h2.5C312.5,326.7,312.5,326.7,310,331.7C312.5,329.2,312.5,331.7,310,331.7z M347.2,331.7
			c0,2.5-2.5,5-5,5c-2.5,0-5,0-7.4,0l-19.8-9.9l14.9-29.8l17.4-29.8l17.4,29.8L347.2,331.7z M404.3,463.1L404.3,463.1
			c-2.5,0-2.5,0-2.5,0s-44.6-76.9-7.4-153.8c0,0,2.5-2.5,2.5,0c0,0,2.5,2.5,0,2.5c-37.2,76.9,5,151.3,5,151.3
			C406.8,460.6,404.3,460.6,404.3,463.1z M523.4,490.4l-62,42.2h-2.5c0,0-2.5,0-2.5-2.5l-9.9-9.9l69.4-47.1l9.9,14.9
			C525.8,487.9,525.8,490.4,523.4,490.4z"/>
	</g>
</g>
</svg>
