<?xml version="1.0" encoding="utf-8"?>
<!-- Generator: Adobe Illustrator 18.0.0, SVG Export Plug-In . SVG Version: 6.00 Build 0)  -->
<!DOCTYPE svg PUBLIC "-//W3C//DTD SVG 1.1//EN" "http://www.w3.org/Graphics/SVG/1.1/DTD/svg11.dtd">
<svg version="1.1" id="Capa_1" xmlns="http://www.w3.org/2000/svg" xmlns:xlink="http://www.w3.org/1999/xlink" x="0px" y="0px"
	 viewBox="0 0 595.3 841.9" enable-background="new 0 0 595.3 841.9" xml:space="preserve">
<g id="guia" display="none">
</g>
<g id="guia2">
</g>
<g id="Capa_3">
	<g>
		<path fill="#FFFFFF" d="M453.9,187.8c-42.2,0-76.9,34.7-76.9,76.9s34.7,76.9,76.9,76.9s76.9-34.7,76.9-76.9
			S496.1,187.8,453.9,187.8z M451.4,239.9l-29.8,24.8h29.8v9.9h-44.6v-7.4l29.8-24.8h-29.8V230h44.6V239.9z M488.6,262.2l-19.8,17.4
			h19.8v7.4h-29.8v-5l19.8-17.4h-19.8v-7.4h29.8V262.2z M513.4,294.4v5h-19.8v-5L506,282h-12.4v-5h19.8v5L501,294.4H513.4
			L513.4,294.4z"/>
		<path fill="#FFFFFF" d="M300.1,537.5L300.1,537.5l-2.5,7.4l0,0v49.6h-2.5v-2.5l0,0v-49.6h-7.4V535h-2.5h-49.6l-7.4,22.3v94.3h62
			v-47.1h9.9v47.1h62v-91.8l-9.9-24.8h-52.1V537.5z M233.2,594.6L233.2,594.6c9.9-2.5,12.4-32.2,14.9-42.2h2.5
			C248,554.9,248,594.6,233.2,594.6z M354.7,594.6c-14.9,0-14.9-39.7-14.9-42.2h2.5C339.8,562.3,344.8,592.1,354.7,594.6
			L354.7,594.6z"/>
		<ellipse fill="#FFFFFF" cx="308.3" cy="408.4" rx="2.5" ry="2.5"/>
		<path fill="#FFFFFF" d="M362.1,311.8h-24.8c-7.4,27.3-22.3,62-42.2,62l0,0c-19.8,0-34.7-57-42.2-62h-24.8v0l-71.9,47.1l22.3,42.2
			l34.7-24.8l17.4,148.8h64.5l0,0h57l17.4-148.8l37.2,22.3l24.8-42.2L362.1,311.8L362.1,311.8z M322.4,450.7
			c-5,7.4-24.8,7.4-32.2,7.4c-7.4,0-19.8,0-24.8-7.4c-7.4-14.9-5-22.3-2.5-22.3c0,0,2.5-2.5,5,0c2.5,2.5,2.5,5,7.4,5
			c2.5,0,7.4-5,14.9-5c2.5,0,2.5-2.5,2.5-5c-2.5-2.5-5-5-5-9.9c0-2.5,0-12.4,12.4-14.9c5-2.5,9.9,0,12.4,2.5c0,0,2.5,2.5,2.5,5
			c0,2.5,5,2.5,7.4,0c2.5,0,2.5-2.5,2.5,0s0,2.5-2.5,5c0,0,2.5,0,2.5,2.5s-5,2.5-7.4,2.5s-5,2.5-5,7.4c0,2.5,7.4,5,9.9,9.9
			C322.4,438.3,327.4,443.3,322.4,450.7z"/>
	</g>
</g>
</svg>
