<?xml version="1.0" encoding="utf-8"?>
<!-- Generator: Adobe Illustrator 18.0.0, SVG Export Plug-In . SVG Version: 6.00 Build 0)  -->
<!DOCTYPE svg PUBLIC "-//W3C//DTD SVG 1.1//EN" "http://www.w3.org/Graphics/SVG/1.1/DTD/svg11.dtd">
<svg version="1.1" id="Capa_1" xmlns="http://www.w3.org/2000/svg" xmlns:xlink="http://www.w3.org/1999/xlink" x="0px" y="0px"
	 viewBox="0 0 595.3 841.9" enable-background="new 0 0 595.3 841.9" xml:space="preserve">
<g id="guia" display="none">
</g>
<g id="guia2">
</g>
<g id="Capa_3">
	<path fill="#FFFFFF" d="M488.6,383.7c2.5-2.5,2.5-5,2.5-7.4l-7.4-57c0-5-5-7.4-9.9-7.4H119.1c-5,0-9.9,2.5-9.9,7.4l-7.4,57
		c0,2.5,0,5,2.5,7.4c0,0,2.5,0,2.5,2.5c-7.4,49.6,39.7,104.2,111.6,126.5c12.4,5,24.8,5,37.2,7.4v2.5c0,5,5,9.9,9.9,9.9h59.5
		c5,0,9.9-5,9.9-9.9l0,0c12.4-2.5,27.3-2.5,39.7-7.4C451.4,490.4,498.5,435.8,488.6,383.7L488.6,383.7z M133.9,388.7
		c32.2,5,96.7,27.3,119.1,106.7c-9.9-2.5-17.4-2.5-27.3-5C168.7,470.6,126.5,425.9,133.9,388.7z M369.6,490.4
		c-9.9,2.5-19.8,5-27.3,7.4c22.3-81.9,89.3-101.7,121.5-106.7C471.3,425.9,429.1,470.6,369.6,490.4z"/>
</g>
</svg>
