<?xml version="1.0" encoding="utf-8"?>
<!-- Generator: Adobe Illustrator 18.0.0, SVG Export Plug-In . SVG Version: 6.00 Build 0)  -->
<!DOCTYPE svg PUBLIC "-//W3C//DTD SVG 1.1//EN" "http://www.w3.org/Graphics/SVG/1.1/DTD/svg11.dtd">
<svg version="1.1" id="Capa_1" xmlns="http://www.w3.org/2000/svg" xmlns:xlink="http://www.w3.org/1999/xlink" x="0px" y="0px"
	 viewBox="0 0 595.3 841.9" enable-background="new 0 0 595.3 841.9" xml:space="preserve">
<g id="guia" display="none">
</g>
<g id="guia2">
</g>
<g id="Capa_3">
	<g>
		<path fill="#FFFFFF" d="M339.8,423.4c-39.7,2.5-76.9,9.9-114.1,24.8c-34.7,12.4-69.4,27.3-101.7,44.6c12.4,27.3,32.2,54.6,57,76.9
			c19.8,19.8,42.2,27.3,67,24.8c32.2-5,59.5-17.4,81.9-39.7c32.2-29.8,67-52.1,106.7-69.4c12.4-5,24.8-7.4,39.7-7.4
			c7.4,0,17.4,2.5,29.8,5c12.4,2.5,17.4,2.5,22.3-2.5c2.5-2.5,2.5-7.4,0-9.9c-24.8-17.4-52.1-29.8-81.9-39.7
			C411.7,423.4,374.5,420.9,339.8,423.4z"/>
		<path fill="#FFFFFF" d="M183.5,264.7l-12.4,2.5c-44.6,12.4-74.4,39.7-91.8,79.4C64.5,381.3,57,420.9,59.5,473
			c2.5,17.4,9.9,24.8,24.8,17.4c12.4-5,22.3-9.9,34.7-14.9l9.9-5c2.5,0,5-2.5,7.4-2.5c44.6-17.4,89.3-32.2,133.9-42.2
			c27.3-7.4,57-9.9,84.3-9.9c17.4,0,34.7,2.5,52.1,5c-2.5-14.9-7.4-29.8-12.4-44.6c-2.5-5-5-9.9-5-14.9
			c-17.4-44.6-49.6-71.9-91.8-89.3C260.4,257.2,223.2,254.8,183.5,264.7z"/>
		<path fill="#FFFFFF" d="M166.2,252.3c-7.4,7.4-7.4,12.4-5,12.4c12.4-5,27.3-9.9,44.6-9.9c5-2.5,0-5-9.9-7.4
			C183.5,244.8,173.6,247.3,166.2,252.3z"/>
	</g>
</g>
</svg>
