<?xml version="1.0" encoding="utf-8"?>
<!-- Generator: Adobe Illustrator 18.0.0, SVG Export Plug-In . SVG Version: 6.00 Build 0)  -->
<!DOCTYPE svg PUBLIC "-//W3C//DTD SVG 1.1//EN" "http://www.w3.org/Graphics/SVG/1.1/DTD/svg11.dtd">
<svg version="1.1" id="Capa_1" xmlns="http://www.w3.org/2000/svg" xmlns:xlink="http://www.w3.org/1999/xlink" x="0px" y="0px"
	 viewBox="0 0 595.3 841.9" enable-background="new 0 0 595.3 841.9" xml:space="preserve">
<g id="guia" display="none">
</g>
<g id="guia2">
</g>
<g id="Capa_3">
	<g>
		<path fill="#FFFFFF" d="M525.8,527.6c7.4-9.9,7.4-19.8,0-27.3c-151.3,27.3-305.1,27.3-458.9,0c-7.4,9.9-7.4,17.4,0,27.3
			C223.2,549.9,377,549.9,525.8,527.6z"/>
		<path fill="#FFFFFF" d="M322.4,304.4l-24.8,12.4c-2.5,0-2.5,0-2.5,2.5c-17.4-14.9-37.2-19.8-54.6-22.3c-19.8,0-37.2,5-54.6,14.9
			c-17.4,9.9-27.3,24.8-34.7,39.7c-5,14.9-9.9,47.1-9.9,89.3v54.6c99.2,12.4,203.4,12.4,310,2.5v-54.6c0-24.8-2.5-44.6-5-62
			c-2.5-12.4-5-19.8-7.4-27.3c-5-12.4-14.9-24.8-27.3-34.7c-9.9-7.4-17.4-9.9-27.3-12.4C364.6,296.9,344.8,296.9,322.4,304.4z"/>
	</g>
</g>
</svg>
