<?xml version="1.0" encoding="utf-8"?>
<!-- Generator: Adobe Illustrator 18.0.0, SVG Export Plug-In . SVG Version: 6.00 Build 0)  -->
<!DOCTYPE svg PUBLIC "-//W3C//DTD SVG 1.1//EN" "http://www.w3.org/Graphics/SVG/1.1/DTD/svg11.dtd">
<svg version="1.1" id="Capa_1" xmlns="http://www.w3.org/2000/svg" xmlns:xlink="http://www.w3.org/1999/xlink" x="0px" y="0px"
	 viewBox="0 0 595.3 841.9" enable-background="new 0 0 595.3 841.9" xml:space="preserve">
<g id="guia" display="none">
</g>
<g id="guia2">
</g>
<g id="Capa_3">
	<g>
		<path fill="#FFFFFF" d="M262.9,406.1c-14.9,69.4-57,238.1-59.5,262.9c17.4,5,29.8,5,49.6,2.5c24.8-96.7,34.7-205.9,37.2-272.8
			C280.3,401.1,270.4,403.6,262.9,406.1z"/>
		<g>
			<path fill="#FFFFFF" d="M317.5,386.2c-7.4,2.5-12.4,5-17.4,7.4c-2.5,64.5-12.4,171.1-37.2,267.9c2.5,0,14.9,0,32.2,0
				C307.6,599.5,329.9,473,317.5,386.2z"/>
			<path fill="#FFFFFF" d="M352.2,366.4c-7.4,5-12.4,9.9-19.8,14.9c-2.5,0-2.5,2.5-5,2.5c9.9,86.8-9.9,215.8-22.3,282.8
				c17.4,0,34.7,0,34.7,0s74.4-12.4,76.9-34.7C416.7,616.9,382,483,352.2,366.4z"/>
		</g>
		<g>
			<path fill="#FFFFFF" d="M193.5,234.9c0-22.3,7.4-44.6,19.8-64.5c-17.4,12.4-44.6,52.1-24.8,109.1c2.5,5,2.5,9.9,2.5,12.4l0,0
				c7.4-5,14.9-9.9,24.8-12.4C203.4,269.6,195.9,252.3,193.5,234.9z"/>
			<path fill="#FFFFFF" d="M225.7,182.8l2.5-19.8c0,0,0,0-2.5,0c-12.4,19.8-24.8,44.6-24.8,69.4c0,17.4,7.4,32.2,19.8,44.6
				c2.5-2.5,7.4-2.5,9.9-2.5c14.9-5,29.8-9.9,42.2-17.4l0,0C228.2,239.9,225.7,185.3,225.7,182.8z"/>
		</g>
		<g>
			<path fill="#FFFFFF" d="M359.6,267.2c12.4-27.3,9.9-62-9.9-101.7c-7.4,14.9,5,69.4-69.4,101.7c-29.8,12.4-74.4,22.3-99.2,42.2
				c-5,2.5,5,17.4,19.8,37.2C243.1,341.6,332.4,326.7,359.6,267.2z"/>
			<path fill="#FFFFFF" d="M391.9,232.4c-5-22.3-14.9-47.1-32.2-64.5c17.4,39.7,19.8,74.4,7.4,104.2C339.8,334.1,253,349,205.9,354
				c14.9,17.4,29.8,34.7,44.6,44.6C253,401.1,414.2,366.4,391.9,232.4z"/>
		</g>
	</g>
</g>
</svg>
