<?xml version="1.0" encoding="utf-8"?>
<!-- Generator: Adobe Illustrator 18.0.0, SVG Export Plug-In . SVG Version: 6.00 Build 0)  -->
<!DOCTYPE svg PUBLIC "-//W3C//DTD SVG 1.1//EN" "http://www.w3.org/Graphics/SVG/1.1/DTD/svg11.dtd">
<svg version="1.1" id="Capa_1" xmlns="http://www.w3.org/2000/svg" xmlns:xlink="http://www.w3.org/1999/xlink" x="0px" y="0px"
	 viewBox="0 0 595.3 841.9" enable-background="new 0 0 595.3 841.9" xml:space="preserve">
<g id="guia" display="none">
</g>
<g id="guia2">
</g>
<g id="Capa_3">
	<g id="Capa_3_1_">
		<g>
			<path fill="#FFFFFF" d="M163.7,552.4h265.4c44.6,0,81.9-29.8,81.9-76.9v-52.1v-2.5V301.9c0-7.4-5-12.4-12.4-12.4h-9.9
				c-7.4,0-12.4,5-12.4,12.4L468.8,411c-9.9-2.5,0-14.9-32.2-14.9c-62,0-126.5,44.6-143.9,86.8c-17.4-44.6-81.9-86.8-143.9-86.8
				c-29.8,0-19.8,14.9-32.2,14.9V301.9c0-7.4-5-12.4-12.4-12.4h-9.9c-7.4,0-12.4,5-12.4,12.4v119.1v2.5v52.1
				C81.9,520.2,119.1,552.4,163.7,552.4z"/>
		</g>
	</g>
</g>
</svg>
