<?xml version="1.0" encoding="utf-8"?>
<!-- Generator: Adobe Illustrator 18.0.0, SVG Export Plug-In . SVG Version: 6.00 Build 0)  -->
<!DOCTYPE svg PUBLIC "-//W3C//DTD SVG 1.1//EN" "http://www.w3.org/Graphics/SVG/1.1/DTD/svg11.dtd">
<svg version="1.1" id="Capa_1" xmlns="http://www.w3.org/2000/svg" xmlns:xlink="http://www.w3.org/1999/xlink" x="0px" y="0px"
	 viewBox="0 0 595.3 841.9" enable-background="new 0 0 595.3 841.9" xml:space="preserve">
<g id="guia" display="none">
</g>
<g id="guia2">
</g>
<g id="Capa_3">
	<path fill="#FFFFFF" d="M506,316.8c0-5-5-9.9-12.4-9.9H101.7c-5,0-9.9,5-12.4,9.9l-7.4,24.8c0,2.5,0,7.4,2.5,9.9c2.5,2.5,5,5,7.4,5
		c5,0,148.8,2.5,178.6,153.8v14.9c0,7.4,5,12.4,12.4,12.4H310c7.4,0,12.4-5,12.4-12.4v-14.9C349.7,358.9,496.1,356.5,501,356.5
		c2.5,0,7.4-2.5,7.4-5c2.5-2.5,2.5-5,2.5-9.9L506,316.8z"/>
</g>
</svg>
