<?xml version="1.0" encoding="utf-8"?>
<!-- Generator: Adobe Illustrator 18.0.0, SVG Export Plug-In . SVG Version: 6.00 Build 0)  -->
<!DOCTYPE svg PUBLIC "-//W3C//DTD SVG 1.1//EN" "http://www.w3.org/Graphics/SVG/1.1/DTD/svg11.dtd">
<svg version="1.1" id="Capa_1" xmlns="http://www.w3.org/2000/svg" xmlns:xlink="http://www.w3.org/1999/xlink" x="0px" y="0px"
	 viewBox="0 0 595.3 841.9" enable-background="new 0 0 595.3 841.9" xml:space="preserve">
<g id="guia" display="none">
</g>
<g id="guia2">
</g>
<g id="Capa_3">
	<path fill="#FFFFFF" d="M297.6,205.2c-119.1,0-215.8,96.7-215.8,215.8s96.7,215.8,215.8,215.8S513.4,540,513.4,420.9
		S416.7,205.2,297.6,205.2z M401.8,282c14.9,9.9,24.8,22.3,37.2,37.2c-14.9-7.4-29.8-14.9-47.1-22.3
		C394.4,289.5,396.9,284.5,401.8,282z M384.5,269.6c-5,5-9.9,12.4-12.4,19.8c-9.9-2.5-19.8-5-29.8-7.4c0-12.4-2.5-22.3-2.5-29.8
		C352.2,254.8,369.6,259.7,384.5,269.6z M297.6,247.3c5,0,9.9,0,17.4,0c2.5,7.4,2.5,17.4,5,29.8c-9.9,0-19.8-2.5-32.2,0
		c-5-12.4-14.9-22.3-24.8-27.3C275.3,247.3,285.2,247.3,297.6,247.3z M220.7,264.7L220.7,264.7c2.5,0,5,0,9.9,0
		c12.4,0,24.8,2.5,34.7,14.9c-32.2,2.5-64.5,14.9-94.3,32.2c-7.4,5-12.4,9.9-19.8,14.9C168.7,299.4,191,279.6,220.7,264.7z
		 M148.8,515.2c-17.4-27.3-27.3-59.5-27.3-94.3c0-17.4,2.5-32.2,7.4-49.6c7.4-7.4,27.3-24.8,54.6-42.2
		c19.8-12.4,49.6-24.8,86.8-29.8c0,27.3-24.8,57-39.7,74.4c-2.5,2.5-2.5,5-5,5c-2.5,2.5-2.5,5-5,7.4l0,0
		c-19.8,22.3-47.1,52.1-59.5,86.8C153.8,490.4,151.3,502.8,148.8,515.2z M282.8,597c-42.2-5-81.9-22.3-111.6-54.6l0,0
		c0,0-2.5-27.3,9.9-62c9.9-29.8,37.2-59.5,54.6-79.4l0,0c2.5-2.5,5-5,5-7.4c2.5-2.5,2.5-2.5,5-5l0,0c17.4-19.8,47.1-52.1,44.6-89.3
		c9.9,0,19.8,0,29.8,2.5c2.5,32.2,2.5,64.5-2.5,99.2C310,480.5,287.7,572.2,282.8,597z M434.1,502.8c0,12.4-5,24.8-7.4,37.2v2.5
		c-32.2,32.2-74.4,52.1-121.5,54.6c7.4-29.8,29.8-116.6,34.7-198.4c2.5-32.2,2.5-64.5,2.5-96.7c9.9,2.5,17.4,5,27.3,7.4
		c2.5,22.3,12.4,44.6,22.3,62l5,9.9C416.7,420.9,439,458.2,434.1,502.8z M416.7,371.3l-5-9.9c-7.4-14.9-14.9-29.8-19.8-44.6
		c47.1,19.8,67,42.2,74.4,54.6c5,17.4,7.4,32.2,7.4,49.6c0,27.3-5,52.1-17.4,76.9C458.9,450.7,436.5,411,416.7,371.3z"/>
</g>
</svg>
