<?xml version="1.0" encoding="utf-8"?>
<!-- Generator: Adobe Illustrator 18.0.0, SVG Export Plug-In . SVG Version: 6.00 Build 0)  -->
<!DOCTYPE svg PUBLIC "-//W3C//DTD SVG 1.1//EN" "http://www.w3.org/Graphics/SVG/1.1/DTD/svg11.dtd">
<svg version="1.1" id="Capa_1" xmlns="http://www.w3.org/2000/svg" xmlns:xlink="http://www.w3.org/1999/xlink" x="0px" y="0px"
	 viewBox="0 0 595.3 841.9" enable-background="new 0 0 595.3 841.9" xml:space="preserve">
<g id="guia" display="none">
</g>
<g id="guia2">
</g>
<g id="Capa_3">
	<g>
		<path fill="#FFFFFF" d="M297.6,244.8c-96.7,0-176.1,79.4-176.1,176.1S200.9,597,297.6,597s176.1-79.4,176.1-176.1
			S394.4,244.8,297.6,244.8z M255.5,284.5c17.4,14.9,32.2,27.3,47.1,37.2c5,2.5,9.9,7.4,12.4,9.9c22.3,17.4,39.7,29.8,49.6,47.1l0,0
			c5,7.4,17.4,32.2,9.9,59.5c-5,14.9-14.9,29.8-32.2,42.2c-24.8,19.8-52.1,24.8-74.4,14.9c-17.4-7.4-29.8-19.8-29.8-19.8l0,0
			c-24.8-27.3-37.2-52.1-49.6-84.3c-5-5-9.9-19.8-17.4-34.7C188.5,321.7,218.3,294.4,255.5,284.5z M255.5,559.8
			c-76.9-24.8-119.1-104.2-94.3-181.1l0,0c2.5,2.5,2.5,5,2.5,9.9c2.5,5,2.5,7.4,5,12.4c12.4,32.2,24.8,59.5,54.6,89.3l0,0
			c14.9,14.9,29.8,22.3,42.2,27.3c12.4,5,27.3,5,39.7,2.5c17.4-2.5,32.2-9.9,49.6-22.3c27.3-22.3,42.2-47.1,42.2-74.4
			c0-22.3-9.9-39.7-12.4-47.1l-2.5-2.5l0,0c-12.4-19.8-32.2-34.7-54.6-52.1c-5-2.5-7.4-5-12.4-9.9l0,0c-9.9-7.4-22.3-17.4-34.7-29.8
			c19.8-2.5,42.2,0,62,5c76.9,24.8,119.1,104.2,94.3,181.1C411.7,540,329.9,582.2,255.5,559.8z"/>
	</g>
</g>
</svg>
