<?xml version="1.0" encoding="utf-8"?>
<!-- Generator: Adobe Illustrator 18.0.0, SVG Export Plug-In . SVG Version: 6.00 Build 0)  -->
<!DOCTYPE svg PUBLIC "-//W3C//DTD SVG 1.1//EN" "http://www.w3.org/Graphics/SVG/1.1/DTD/svg11.dtd">
<svg version="1.1" id="Capa_1" xmlns="http://www.w3.org/2000/svg" xmlns:xlink="http://www.w3.org/1999/xlink" x="0px" y="0px"
	 viewBox="0 0 595.3 841.9" enable-background="new 0 0 595.3 841.9" xml:space="preserve">
<g id="guia" display="none">
</g>
<g id="guia2">
</g>
<g id="Capa_3">
	<path fill="#FFFFFF" d="M297.6,205.2c-119.1,0-215.8,96.7-215.8,215.8s96.7,215.8,215.8,215.8S513.4,540,513.4,420.9
		S416.7,205.2,297.6,205.2z M389.4,259.7c5,2.5,7.4,5,12.4,7.4c32.2,22.3,54.6,54.6,69.4,89.3l-2.5,5c-9.9-7.4-24.8-14.9-32.2-19.8
		c-12.4-19.8-39.7-44.6-44.6-52.1c0-12.4-2.5-22.3-5-29.8H389.4z M272.8,237.4c29.8-5,57,0,84.3,7.4c2.5,2.5,7.4,7.4,12.4,9.9
		c2.5,5,7.4,17.4,7.4,32.2c-12.4,2.5-32.2,5-52.1,14.9c-24.8-17.4-54.6-22.3-71.9-24.8c-2.5-7.4-2.5-17.4-2.5-22.3
		C258,247.3,267.9,239.9,272.8,237.4z M188.5,331.7c5-7.4,22.3-29.8,57-42.2c14.9,2.5,44.6,5,71.9,24.8c5,27.3,9.9,54.6,9.9,67
		c-9.9,9.9-42.2,42.2-64.5,54.6c-9.9-2.5-44.6-17.4-64.5-24.8C186,383.7,186,346.5,188.5,331.7C188.5,334.1,188.5,334.1,188.5,331.7
		L188.5,331.7L188.5,331.7l-2.5-2.5L188.5,331.7z M114.1,406.1L114.1,406.1c9.9-32.2,22.3-52.1,29.8-64.5c2.5-5,5-7.4,7.4-9.9
		c9.9,2.5,17.4,2.5,22.3,5c0,14.9,0,49.6,12.4,79.4c-5,5-7.4,9.9-12.4,14.9c-9.9,14.9-14.9,29.8-17.4,37.2c-12.4,0-27.3-5-32.2-9.9
		l0,0c-2.5-5-5-12.4-7.4-17.4C114.1,428.4,114.1,418.5,114.1,406.1z M200.9,572.2c-5,0-7.4-2.5-9.9-2.5
		c-34.7-24.8-59.5-59.5-71.9-99.2c9.9,5,22.3,7.4,37.2,9.9c5,12.4,22.3,39.7,44.6,57C200.9,545,198.4,559.8,200.9,572.2z
		 M245.6,592.1L245.6,592.1l-2.5-2.5l0,0c-2.5-2.5-12.4-7.4-19.8-12.4l0,0l-2.5-2.5c0,0,0,0,0-2.5c-2.5-12.4-2.5-24.8,0-32.2
		c27.3-2.5,44.6-12.4,54.6-17.4c12.4,7.4,37.2,24.8,71.9,27.3v27.3C300.1,599.5,262.9,597,245.6,592.1z M324.9,602
		c9.9-2.5,19.8-7.4,29.8-12.4c7.4,0,14.9-2.5,27.3-5C364.6,592.1,344.8,599.5,324.9,602z M406.8,497.8c-7.4,7.4-24.8,27.3-57,39.7
		c-37.2-2.5-62-17.4-71.9-24.8c0-27.3-5-52.1-7.4-64.5c22.3-14.9,52.1-44.6,64.5-54.6l64.5,24.8
		C404.3,428.4,411.7,463.1,406.8,497.8z M441.5,535c2.5-7.4,5-12.4,7.4-19.8c5-5,9.9-9.9,14.9-17.4
		C458.9,510.2,451.4,522.6,441.5,535z M461.3,475.5c-5,7.4-12.4,17.4-19.8,24.8c-9.9-2.5-17.4-7.4-19.8-7.4c5-34.7-5-67-7.4-79.4
		c2.5-2.5,5-5,7.4-9.9c7.4-9.9,14.9-24.8,19.8-42.2c9.9,5,22.3,12.4,29.8,22.3c2.5,7.4,7.4,17.4,12.4,29.8c0,7.4,0,14.9,0,24.8
		C478.7,443.3,473.7,458.2,461.3,475.5z"/>
</g>
</svg>
