<?xml version="1.0" encoding="utf-8"?>
<!-- Generator: Adobe Illustrator 18.0.0, SVG Export Plug-In . SVG Version: 6.00 Build 0)  -->
<!DOCTYPE svg PUBLIC "-//W3C//DTD SVG 1.1//EN" "http://www.w3.org/Graphics/SVG/1.1/DTD/svg11.dtd">
<svg version="1.1" id="Capa_1" xmlns="http://www.w3.org/2000/svg" xmlns:xlink="http://www.w3.org/1999/xlink" x="0px" y="0px"
	 viewBox="0 0 595.3 841.9" enable-background="new 0 0 595.3 841.9" xml:space="preserve">
<g id="guia" display="none">
</g>
<g id="guia2">
</g>
<g id="Capa_3">
	<path fill="#FFFFFF" d="M520.9,574.7l-74.4-64.5c-9.9-7.4-22.3-7.4-32.2-2.5c-7.4,5-52.1-59.5-57-64.5
		c-19.8-29.8-22.3-64.5-29.8-96.7c-5-39.7-24.8-71.9-54.6-99.2c-59.5-52.1-146.3-57-188.5-7.4s-27.3,131.5,32.2,186
		c52.1,44.6,121.5,44.6,121.5,44.6c59.5-7.4,121.5,34.7,153.8,64.5c-5,9.9-2.5,24.8,7.4,32.2l74.4,64.5c9.9,9.9,27.3,7.4,37.2-2.5
		l14.9-14.9C533.3,602,533.3,584.6,520.9,574.7z M300.1,349c2.5,9.9,2.5,19.8,0,27.3L275.3,354l19.8-22.3
		C297.6,336.6,300.1,341.6,300.1,349z M290.2,316.8l-24.8,27.3l-34.7-32.2l32.2-34.7C272.8,289.5,282.8,301.9,290.2,316.8z
		 M220.7,324.2l34.7,32.2l-34.7,39.7l-37.2-32.2L220.7,324.2z M173.6,354l-34.7-27.3l37.2-42.2l34.7,29.8L173.6,354z M250.5,269.6
		l-29.8,34.7L186,272.1l24.8-29.8C225.7,249.8,238.1,257.2,250.5,269.6z M171.1,234.9c7.4,0,17.4,2.5,24.8,5l-22.3,22.3l-29.8-24.8
		C153.8,234.9,161.2,234.9,171.1,234.9z M106.7,259.7c7.4-7.4,14.9-12.4,24.8-17.4l34.7,32.2l-39.7,42.2L91.8,287
		C94.3,277.1,99.2,267.2,106.7,259.7z M91.8,326.7c-2.5-7.4-2.5-14.9-2.5-24.8l29.8,24.8L96.7,349C94.3,341.6,91.8,334.1,91.8,326.7
		z M104.2,363.9l24.8-27.3l34.7,27.3l-32.2,34.7C119.1,388.7,111.6,376.3,104.2,363.9z M141.4,408.5l32.2-34.7l37.2,32.2L186,435.8
		C171.1,428.4,156.3,418.5,141.4,408.5z M220.7,440.8c-7.4,0-12.4,0-19.8-2.5l22.3-24.8l27.3,22.3
		C240.6,438.3,230.7,440.8,220.7,440.8z M265.4,430.9l-32.2-27.3l34.7-39.7l32.2,27.3c-2.5,9.9-7.4,17.4-12.4,24.8
		C277.8,420.9,272.8,425.9,265.4,430.9z M287.7,450.7c7.4-5,14.9-9.9,19.8-17.4s9.9-12.4,14.9-19.8c9.9,27.3,27.3,52.1,47.1,74.4
		C344.8,473,315,458.2,287.7,450.7z"/>
</g>
</svg>
