<?xml version="1.0" encoding="utf-8"?>
<!-- Generator: Adobe Illustrator 18.0.0, SVG Export Plug-In . SVG Version: 6.00 Build 0)  -->
<!DOCTYPE svg PUBLIC "-//W3C//DTD SVG 1.1//EN" "http://www.w3.org/Graphics/SVG/1.1/DTD/svg11.dtd">
<svg version="1.1" id="Capa_1" xmlns="http://www.w3.org/2000/svg" xmlns:xlink="http://www.w3.org/1999/xlink" x="0px" y="0px"
	 viewBox="0 0 595.3 841.9" enable-background="new 0 0 595.3 841.9" xml:space="preserve">
<g id="guia" display="none">
</g>
<g id="guia2">
</g>
<g id="Capa_3">
	<g>
		<path fill="#FFFFFF" d="M510.9,403.6c-29.8-44.6-89.3-86.8-163.7-111.6c-119.1-39.7-233.2-22.3-255.5,37.2
			c-9.9,32.2,5,67,37.2,101.7h7.4c19.8,0,39.7-7.4,62-12.4c5-2.5,7.4-2.5,12.4-5c27.3-7.4,57-12.4,89.3-12.4
			c34.7,0,71.9,5,111.6,14.9c7.4,2.5,14.9,5,24.8,7.4c14.9,5,32.2,9.9,47.1,9.9c5,0,7.4,0,12.4-2.5c12.4-2.5,9.9-19.8,7.4-24.8
			L510.9,403.6z M342.3,316.8C230.7,282,126.5,296.9,106.7,349c0-5,0-9.9,2.5-14.9c17.4-52.1,119.1-64.5,225.7-32.2
			c74.4,24.8,131.5,64.5,153.8,106.7C461.3,373.8,409.3,339.1,342.3,316.8z"/>
		<path fill="#FFFFFF" d="M414.2,438.3h2.5C416.7,440.8,414.2,440.8,414.2,438.3z"/>
		<path fill="#FFFFFF" d="M394.4,438.3c2.5,0,2.5,0,5,0C396.9,438.3,396.9,438.3,394.4,438.3z"/>
		<path fill="#FFFFFF" d="M404.3,438.3c2.5,0,2.5,0,5,0C406.8,438.3,406.8,438.3,404.3,438.3z"/>
		<path fill="#FFFFFF" d="M453.9,443.3L453.9,443.3L453.9,443.3z"/>
		<path fill="#FFFFFF" d="M461.3,445.7h2.5H461.3z"/>
		<path fill="#FFFFFF" d="M424.1,440.8h2.5H424.1z"/>
		<path fill="#FFFFFF" d="M444,443.3L444,443.3L444,443.3z"/>
		<path fill="#FFFFFF" d="M434.1,440.8h2.5C434.1,440.8,434.1,440.8,434.1,440.8z"/>
		<path fill="#FFFFFF" d="M158.7,440.8c5,0,9.9,0,14.9-2.5C168.7,440.8,163.7,440.8,158.7,440.8z"/>
		<path fill="#FFFFFF" d="M233.2,435.8c5,0,12.4,0,17.4,0C245.6,435.8,238.1,435.8,233.2,435.8z"/>
		<path fill="#FFFFFF" d="M176.1,438.3c5,0,9.9,0,17.4-2.5C188.5,438.3,181.1,438.3,176.1,438.3z"/>
		<path fill="#FFFFFF" d="M339.8,435.8c2.5,0,2.5,0,5,0C344.8,435.8,342.3,435.8,339.8,435.8z"/>
		<path fill="#FFFFFF" d="M329.9,433.3c2.5,0,2.5,0,5,0C332.4,433.3,329.9,433.3,329.9,433.3z"/>
		<path fill="#FFFFFF" d="M352.2,435.8c2.5,0,2.5,0,5,0C354.7,435.8,352.2,435.8,352.2,435.8z"/>
		<path fill="#FFFFFF" d="M317.5,433.3c2.5,0,2.5,0,5,0C320,433.3,320,433.3,317.5,433.3z"/>
		<path fill="#FFFFFF" d="M133.9,445.7c2.5,0,5,0,7.4,0C138.9,443.3,136.4,443.3,133.9,445.7z"/>
		<path fill="#FFFFFF" d="M307.6,433.3c2.5,0,2.5,0,5,0C310,433.3,307.6,433.3,307.6,433.3z"/>
		<path fill="#FFFFFF" d="M143.9,443.3c5,0,9.9-2.5,14.9-2.5C153.8,443.3,148.8,443.3,143.9,443.3z"/>
		<path fill="#FFFFFF" d="M528.3,470.6C530.8,470.6,530.8,470.6,528.3,470.6C530.8,470.6,530.8,470.6,528.3,470.6z"/>
		<path fill="#FFFFFF" d="M506,455.7C506,455.7,508.5,455.7,506,455.7C508.5,455.7,506,455.7,506,455.7z"/>
		<path fill="#FFFFFF" d="M510.9,458.2L510.9,458.2L510.9,458.2z"/>
		<path fill="#FFFFFF" d="M59.5,473L59.5,473L59.5,473z"/>
		<path fill="#FFFFFF" d="M501,455.7h2.5C503.5,455.7,501,455.7,501,455.7z"/>
		<path fill="#FFFFFF" d="M520.9,463.1C520.9,463.1,523.4,463.1,520.9,463.1C523.4,463.1,520.9,463.1,520.9,463.1z"/>
		<path fill="#FFFFFF" d="M523.4,465.6C525.8,465.6,525.8,465.6,523.4,465.6C525.8,465.6,525.8,465.6,523.4,465.6z"/>
		<path fill="#FFFFFF" d="M518.4,460.6L518.4,460.6L518.4,460.6z"/>
		<path fill="#FFFFFF" d="M513.4,460.6C515.9,460.6,515.9,460.6,513.4,460.6C515.9,460.6,515.9,460.6,513.4,460.6z"/>
		<path fill="#FFFFFF" d="M528.3,470.6l-2.5-2.5C528.3,468.1,528.3,468.1,528.3,470.6z"/>
		<path fill="#FFFFFF" d="M476.2,448.2h2.5C478.7,448.2,476.2,448.2,476.2,448.2z"/>
		<path fill="#FFFFFF" d="M483.7,450.7h2.5C483.7,450.7,483.7,450.7,483.7,450.7z"/>
		<path fill="#FFFFFF" d="M496.1,453.2h2.5C496.1,453.2,496.1,453.2,496.1,453.2z"/>
		<path fill="#FFFFFF" d="M468.8,445.7h2.5C471.3,448.2,468.8,448.2,468.8,445.7z"/>
		<path fill="#FFFFFF" d="M488.6,450.7h2.5C491.1,450.7,491.1,450.7,488.6,450.7z"/>
		<path fill="#FFFFFF" d="M530.8,470.6C530.8,473,530.8,473,530.8,470.6C530.8,473,530.8,473,530.8,470.6z"/>
		<path fill="#FFFFFF" d="M143.9,443.3C141.4,443.3,141.4,443.3,143.9,443.3C141.4,443.3,141.4,443.3,143.9,443.3L143.9,443.3z"/>
		<path fill="#FFFFFF" d="M158.7,440.8L158.7,440.8L158.7,440.8z"/>
		<path fill="#FFFFFF" d="M176.1,438.3L176.1,438.3L176.1,438.3z"/>
		<path fill="#FFFFFF" d="M193.5,438.3L193.5,438.3L193.5,438.3z"/>
		<path fill="#FFFFFF" d="M59.5,475.5L59.5,475.5L59.5,475.5z"/>
		<path fill="#FFFFFF" d="M478.7,448.2c2.5,0,2.5,0,5,0C481.2,448.2,481.2,448.2,478.7,448.2z"/>
		<path fill="#FFFFFF" d="M503.5,455.7h2.5H503.5z"/>
		<path fill="#FFFFFF" d="M486.1,450.7h2.5H486.1z"/>
		<path fill="#FFFFFF" d="M498.5,453.2h2.5C498.5,453.2,498.5,453.2,498.5,453.2z"/>
		<path fill="#FFFFFF" d="M453.9,445.7c2.5,0,5,0,7.4,0C458.9,445.7,456.4,445.7,453.9,445.7z"/>
		<path fill="#FFFFFF" d="M444,443.3c2.5,0,5,0,7.4,0C451.4,443.3,446.5,443.3,444,443.3z"/>
		<path fill="#FFFFFF" d="M471.3,448.2c2.5,0,2.5,0,5,0C473.7,448.2,473.7,448.2,471.3,448.2z"/>
		<path fill="#FFFFFF" d="M463.8,445.7c2.5,0,2.5,0,5,0C466.3,445.7,466.3,445.7,463.8,445.7z"/>
		<path fill="#FFFFFF" d="M508.5,455.7C508.5,458.2,508.5,458.2,508.5,455.7C508.5,458.2,508.5,458.2,508.5,455.7z"/>
		<path fill="#FFFFFF" d="M525.8,465.6L525.8,465.6L525.8,465.6z"/>
		<path fill="#FFFFFF" d="M530.8,470.6L530.8,470.6L530.8,470.6z"/>
		<path fill="#FFFFFF" d="M523.4,463.1C523.4,463.1,523.4,465.6,523.4,463.1C523.4,465.6,523.4,463.1,523.4,463.1z"/>
		<path fill="#FFFFFF" d="M528.3,470.6L528.3,470.6L528.3,470.6z"/>
		<path fill="#FFFFFF" d="M513.4,458.2L513.4,458.2L513.4,458.2z"/>
		<path fill="#FFFFFF" d="M520.9,463.1L520.9,463.1L520.9,463.1z"/>
		<path fill="#FFFFFF" d="M515.9,460.6C518.4,460.6,518.4,460.6,515.9,460.6C518.4,460.6,518.4,460.6,515.9,460.6z"/>
		<path fill="#FFFFFF" d="M491.1,453.2h2.5C493.6,453.2,493.6,453.2,491.1,453.2z"/>
		<path fill="#FFFFFF" d="M310,433.3c2.5,0,5,0,7.4,0C315,433.3,312.5,433.3,310,433.3z"/>
		<path fill="#FFFFFF" d="M322.4,433.3c2.5,0,5,0,7.4,0C327.4,433.3,324.9,433.3,322.4,433.3z"/>
		<path fill="#FFFFFF" d="M334.8,435.8c2.5,0,5,0,7.4,0C337.3,435.8,337.3,435.8,334.8,435.8z"/>
		<path fill="#FFFFFF" d="M250.5,435.8h2.5C253,435.8,253,435.8,250.5,435.8z"/>
		<path fill="#FFFFFF" d="M230.7,435.8h2.5C233.2,435.8,230.7,435.8,230.7,435.8z"/>
		<path fill="#FFFFFF" d="M344.8,435.8c2.5,0,5,0,7.4,0C349.7,435.8,347.2,435.8,344.8,435.8z"/>
		<path fill="#FFFFFF" d="M436.5,440.8c2.5,0,5,0,7.4,0C441.5,443.3,439,443.3,436.5,440.8z"/>
		<path fill="#FFFFFF" d="M416.7,440.8c2.5,0,5,0,5,0S419.2,440.8,416.7,440.8z"/>
		<path fill="#FFFFFF" d="M399.3,438.3c2.5,0,5,0,5,0C401.8,438.3,399.3,438.3,399.3,438.3z"/>
		<path fill="#FFFFFF" d="M409.3,438.3c2.5,0,5,0,5,0C411.7,438.3,409.3,438.3,409.3,438.3z"/>
		<path fill="#FFFFFF" d="M426.6,440.8c2.5,0,5,0,5,0C431.6,440.8,429.1,440.8,426.6,440.8z"/>
		<path fill="#FFFFFF" d="M389.4,438.3c2.5,0,5,0,5,0C391.9,438.3,389.4,438.3,389.4,438.3z"/>
		<path fill="#FFFFFF" d="M530.8,470.6L530.8,470.6C530.8,470.6,528.3,470.6,530.8,470.6C528.3,470.6,528.3,470.6,530.8,470.6
			c-2.5-2.5-2.5-5-5-5l0,0c0,0,0,0-2.5,0l0,0c0,0,0,0-2.5,0c0,0,0,0-2.5,0c0,0,0,0-2.5,0c0,0,0,0-2.5,0h-2.5h-2.5H506h-2.5H501h-2.5
			h-2.5h-2.5h-2.5h-2.5h-2.5h-2.5h-2.5c-2.5,0-2.5,0-5,0h-2.5c-2.5,0-2.5,0-5,0h-2.5c-2.5,0-2.5,0-5,0h-2.5c-2.5,0-5,0-7.4,0l0,0
			c-2.5,0-5,0-7.4,0c0,0,0,0-2.5,0s-5,0-7.4,0h-2.5c-2.5,0-5,0-5,0h-2.5c-2.5,0-5,0-5,0h-2.5c-2.5,0-5,0-5,0c-2.5,0-2.5,0-5,0
			s-5,0-5,0c-2.5,0-2.5,0-5,0c-2.5,0-5,0-5,0l0,0c12.4,5,19.8,9.9,24.8,14.9c54.6,5,89.3,14.9,101.7,19.8
			c-19.8,12.4-84.3,22.3-171.1,24.8c-14.9,2.5-32.2,2.5-49.6,2.5c-19.8,0-37.2-2.5-54.6-5c-89.3-5-143.9-14.9-161.2-24.8
			c7.4-5,24.8-9.9,69.4-17.4c7.4,0,14.9-2.5,22.3-2.5c5-5,12.4-12.4,22.3-14.9c-5,0-9.9,0-14.9,2.5c0,0,0,0-2.5,0
			c-5,0-9.9,0-14.9,2.5c0,0,0,0-2.5,0c-5,0-9.9,2.5-14.9,2.5c0,0,0,0-2.5,0s-5,0-7.4,0h-2.5c-2.5,0-5,0-7.4,0
			c-2.5-24.8-2.5-24.8-2.5-24.8c-2.5,0-5,0-7.4,0h-2.5c-2.5,0-5,0-5,0s0,0-2.5,0s-5,0-5,2.5l0,0c-2.5,0-5,0-7.4,2.5l0,0
			c-5,0-7.4,2.5-12.4,2.5l0,0c-2.5,0-2.5,0-5,2.5l0,0c0,0-2.5,0-2.5,2.5c0,0,0,0-2.5,0c0,0-2.5,0-2.5,2.5l0,0c0,0-2.5,0-2.5,2.5l0,0
			c0,0,0,0-2.5,2.5l0,0c0,0,0,0,0,2.5l0,0c0,0,0,0,0,2.5l0,0v2.5v2.5c5,19.8,94.3,34.7,208.3,37.2c9.9,0,19.8,0,27.3,0
			c114.1,0,208.3-12.4,230.7-32.2C528.3,480.5,530.8,475.5,530.8,470.6C530.8,473,530.8,473,530.8,470.6z"/>
		<path fill="#FFFFFF" d="M510.9,403.6c2.5,14.9,0,29.8-14.9,34.7c-27.3,5-59.5-9.9-86.8-14.9c-64.5-14.9-136.4-19.8-198.4-2.5
			c-24.8,7.4-49.6,17.4-74.4,17.4c2.5,2.5,5,5,7.4,5c14.9-2.5,29.8-5,47.1-5c22.3-9.9,59.5-14.9,99.2-14.9s74.4,5,96.7,14.9
			c76.9,5,131.5,17.4,141.4,32.2C533.3,448.2,525.8,425.9,510.9,403.6z"/>
		<path fill="#FFFFFF" d="M290.2,428.4c-71.9,0-116.6,19.8-116.6,32.2s44.6,34.7,116.6,34.7s116.6-19.8,116.6-32.2
			C406.8,448.2,362.1,428.4,290.2,428.4z M228.2,448.2c-7.4,0-12.4-2.5-12.4-5c0-2.5,5-5,12.4-5c7.4,0,12.4,2.5,12.4,5
			S235.6,448.2,228.2,448.2z M282.8,450.7c-17.4,0-32.2-2.5-32.2-7.4s14.9-9.9,32.2-9.9c17.4,0,32.2,2.5,32.2,7.4
			S302.6,450.7,282.8,450.7z"/>
		<path fill="#FFFFFF" d="M525.8,487.9c-22.3,17.4-116.6,32.2-230.7,32.2c-9.9,0-19.8,0-27.3,0C153.8,517.7,67,502.8,59.5,483
			c5,24.8,109.1,89.3,235.6,89.3c129,0,235.6-69.4,235.6-91.8C530.8,483,528.3,485.4,525.8,487.9z M136.4,520.2
			c5,9.9,19.8,17.4,32.2,22.3c-32.2-7.4-54.6-19.8-74.4-37.2c64.5,17.4,133.9,19.8,205.9,17.4C248,530.1,195.9,535,136.4,520.2z"/>
	</g>
</g>
</svg>
