<?xml version="1.0" encoding="utf-8"?>
<!-- Generator: Adobe Illustrator 18.0.0, SVG Export Plug-In . SVG Version: 6.00 Build 0)  -->
<!DOCTYPE svg PUBLIC "-//W3C//DTD SVG 1.1//EN" "http://www.w3.org/Graphics/SVG/1.1/DTD/svg11.dtd">
<svg version="1.1" id="Capa_1" xmlns="http://www.w3.org/2000/svg" xmlns:xlink="http://www.w3.org/1999/xlink" x="0px" y="0px"
	 viewBox="0 0 595.3 841.9" enable-background="new 0 0 595.3 841.9" xml:space="preserve">
<g id="guia" display="none">
</g>
<g id="guia2">
</g>
<g id="Capa_3">
	<g>
		<path fill="#FFFFFF" d="M307.6,403.6h-5c-14.9,0-27.3,12.4-27.3,27.3v5c0,14.9,12.4,27.3,27.3,27.3h5c14.9,0,27.3-12.4,27.3-27.3
			v-5C332.4,416,322.4,403.6,307.6,403.6z"/>
		<path fill="#FFFFFF" d="M307.6,480.5h-5c-14.9,0-27.3,12.4-27.3,27.3v5c0,14.9,12.4,27.3,27.3,27.3h5c14.9,0,27.3-12.4,27.3-27.3
			v-5C332.4,492.9,322.4,480.5,307.6,480.5z"/>
		<path fill="#FFFFFF" d="M439,267.2H240.6c-12.4-24.8-39.7-42.2-67-42.2c-37.2,0-69.4,24.8-76.9,62C74.4,304.4,62,326.7,62,354
			v151.3c0,27.3,14.9,54.6,39.7,69.4c14.9,27.3,42.2,42.2,71.9,42.2l0,0c24.8,0,47.1-9.9,59.5-27.3H439c52.1,0,91.8-39.7,91.8-86.8
			V354C533.3,304.4,491.1,267.2,439,267.2z M99.2,542.5c-9.9-12.4-14.9-24.8-14.9-39.7V354c0-14.9,5-29.8,14.9-39.7V542.5z
			 M225.7,552.4c0,5,0,9.9-2.5,14.9l-2.5,2.5c-12.4,14.9-29.8,24.8-47.1,24.8c-27.3,0-52.1-19.8-52.1-42.2V296.9
			c0-22.3,22.3-42.2,52.1-42.2c27.3,0,52.1,19.8,52.1,42.2V552.4z M510.9,502.8c0,34.7-32.2,64.5-71.9,64.5H248h-2.5
			c2.5-5,2.5-9.9,2.5-14.9V296.9c0-2.5,0-5,0-9.9h193.5c39.7,0,71.9,29.8,71.9,64.5L510.9,502.8L510.9,502.8z"/>
		<path fill="#FFFFFF" d="M372.1,480.5h-5c-14.9,0-27.3,12.4-27.3,27.3v5c0,14.9,12.4,27.3,27.3,27.3h5c14.9,0,27.3-12.4,27.3-27.3
			v-5C399.3,492.9,386.9,480.5,372.1,480.5z"/>
		<path fill="#FFFFFF" d="M270.4,386.2h200.9v-74.4H270.4V386.2z M290.2,334.1h156.3v29.8H290.2V334.1z"/>
		<path fill="#FFFFFF" d="M439,480.5h-5c-14.9,0-27.3,12.4-27.3,27.3v5c0,14.9,12.4,27.3,27.3,27.3h5c14.9,0,27.3-12.4,27.3-27.3v-5
			C463.8,492.9,453.9,480.5,439,480.5z"/>
		<path fill="#FFFFFF" d="M439,403.6h-5c-14.9,0-27.3,12.4-27.3,27.3v5c0,14.9,12.4,27.3,27.3,27.3h5c14.9,0,27.3-12.4,27.3-27.3v-5
			C463.8,416,453.9,403.6,439,403.6z"/>
		<path fill="#FFFFFF" d="M372.1,403.6h-5c-14.9,0-27.3,12.4-27.3,27.3v5c0,14.9,12.4,27.3,27.3,27.3h5c14.9,0,27.3-12.4,27.3-27.3
			v-5C399.3,416,386.9,403.6,372.1,403.6z"/>
	</g>
</g>
</svg>
