<?xml version="1.0" encoding="utf-8"?>
<!-- Generator: Adobe Illustrator 18.0.0, SVG Export Plug-In . SVG Version: 6.00 Build 0)  -->
<!DOCTYPE svg PUBLIC "-//W3C//DTD SVG 1.1//EN" "http://www.w3.org/Graphics/SVG/1.1/DTD/svg11.dtd">
<svg version="1.1" id="Capa_1" xmlns="http://www.w3.org/2000/svg" xmlns:xlink="http://www.w3.org/1999/xlink" x="0px" y="0px"
	 viewBox="0 0 595.3 841.9" enable-background="new 0 0 595.3 841.9" xml:space="preserve">
<g id="guia" display="none">
</g>
<g id="guia2">
</g>
<g id="Capa_3">
	<g>
		<path fill="#FFFFFF" d="M111.6,346.5c-2.5,0-7.4,2.5-7.4,7.4v133.9c0,5,2.5,7.4,7.4,7.4h302.6l-89.3-148.8L111.6,346.5
			L111.6,346.5z"/>
		<path fill="#FFFFFF" d="M510.9,376.3h-22.3v-29.8c0-24.8-19.8-44.6-44.6-44.6H104.2c-22.3,0-42.2,19.8-42.2,44.6v148.8
			c0,24.8,19.8,44.6,44.6,44.6h339.8c24.8,0,44.6-19.8,44.6-44.6v-29.8h22.3c12.4,0,22.3-9.9,22.3-22.3v-44.6
			C533.3,386.2,523.4,376.3,510.9,376.3z M461.3,495.4c0,7.4-7.4,14.9-14.9,14.9H104.2c-7.4,0-14.9-7.4-14.9-14.9V346.5
			c0-7.4,7.4-14.9,14.9-14.9h342.3c7.4,0,14.9,7.4,14.9,14.9V495.4z"/>
	</g>
</g>
</svg>
