<?xml version="1.0" encoding="utf-8"?>
<!-- Generator: Adobe Illustrator 18.0.0, SVG Export Plug-In . SVG Version: 6.00 Build 0)  -->
<!DOCTYPE svg PUBLIC "-//W3C//DTD SVG 1.1//EN" "http://www.w3.org/Graphics/SVG/1.1/DTD/svg11.dtd">
<svg version="1.1" id="Capa_1" xmlns="http://www.w3.org/2000/svg" xmlns:xlink="http://www.w3.org/1999/xlink" x="0px" y="0px"
	 viewBox="0 0 595.3 841.9" enable-background="new 0 0 595.3 841.9" xml:space="preserve">
<g id="guia" display="none">
</g>
<g id="guia2">
</g>
<g id="Capa_3">
	<g>
		<path fill="#FFFFFF" d="M367.1,220h-9.9v14.9v32.2l-9.9,7.4l-49.6,34.7L248,274.6l-9.9-5v-34.7V220h-9.9
			c-24.8,0-47.1,9.9-47.1,37.2v342.3c0,27.3,19.8,37.2,47.1,37.2h138.9c24.8,0,47.1-9.9,47.1-37.2V257.2
			C414.2,230,391.9,220,367.1,220z"/>
		<path fill="#FFFFFF" d="M297.6,299.4l42.2-27.3l9.9-7.4v-27.3v-32.2H245.6v29.8v29.8l7.4,7.4L297.6,299.4z M297.6,242.4
			c5,0,9.9,5,9.9,9.9c0,5-5,9.9-9.9,9.9s-9.9-5-9.9-9.9S292.7,242.4,297.6,242.4z"/>
	</g>
</g>
</svg>
