<?xml version="1.0" encoding="utf-8"?>
<!-- Generator: Adobe Illustrator 18.0.0, SVG Export Plug-In . SVG Version: 6.00 Build 0)  -->
<!DOCTYPE svg PUBLIC "-//W3C//DTD SVG 1.1//EN" "http://www.w3.org/Graphics/SVG/1.1/DTD/svg11.dtd">
<svg version="1.1" id="Capa_1" xmlns="http://www.w3.org/2000/svg" xmlns:xlink="http://www.w3.org/1999/xlink" x="0px" y="0px"
	 viewBox="0 0 595.3 841.9" enable-background="new 0 0 595.3 841.9" xml:space="preserve">
<g id="guia" display="none">
</g>
<g id="guia2">
</g>
<g id="Capa_3">
	<path fill="#FFFFFF" d="M352.2,373.8c-47.1,0-86.8,37.2-86.8,86.8c0,47.1,37.2,86.8,86.8,86.8c47.1,0,86.8-39.7,86.8-86.8
		C439,413.5,399.3,373.8,352.2,373.8z M367.1,455.7c-14.9,0-24.8-12.4-24.8-24.8c0-14.9,12.4-24.8,24.8-24.8
		c14.9,0,24.8,12.4,24.8,24.8C394.4,443.3,382,455.7,367.1,455.7z M483.7,296.9h-14.9l-27.3-59.5c-5-12.4-17.4-19.8-29.8-19.8H292.7
		c-12.4,0-24.8,7.4-29.8,19.8l-27.3,59.5h-32.2v-7.4c0-12.4-9.9-22.3-22.3-22.3h-32.2c-12.4,0-22.3,9.9-22.3,22.3v7.4h-17.4
		c-24.8,0-47.1,19.8-47.1,47.1v233.2c0,24.8,19.8,47.1,47.1,47.1h374.5c24.8,0,47.1-19.8,47.1-47.1V344.1
		C530.8,316.8,510.9,296.9,483.7,296.9z M173.6,537.5c0,7.4-7.4,14.9-14.9,14.9s-14.9-7.4-14.9-14.9V381.3c0-7.4,7.4-14.9,14.9-14.9
		s14.9,7.4,14.9,14.9V537.5z M297.6,254.8c0-2.5,2.5-5,5-5h99.2c2.5,0,5,2.5,5,5V292c0,2.5-2.5,5-5,5h-99.2c-2.5,0-5-2.5-5-5V254.8z
		 M352.2,577.2c-64.5,0-116.6-52.1-116.6-116.6s52.1-116.6,116.6-116.6s116.6,52.1,116.6,116.6S416.7,577.2,352.2,577.2z"/>
</g>
</svg>
