<?xml version="1.0" encoding="utf-8"?>
<!-- Generator: Adobe Illustrator 18.0.0, SVG Export Plug-In . SVG Version: 6.00 Build 0)  -->
<!DOCTYPE svg PUBLIC "-//W3C//DTD SVG 1.1//EN" "http://www.w3.org/Graphics/SVG/1.1/DTD/svg11.dtd">
<svg version="1.1" id="Capa_1" xmlns="http://www.w3.org/2000/svg" xmlns:xlink="http://www.w3.org/1999/xlink" x="0px" y="0px"
	 viewBox="0 0 595.3 841.9" enable-background="new 0 0 595.3 841.9" xml:space="preserve">
<g id="guia" display="none">
</g>
<g id="guia2">
</g>
<g id="Capa_3">
	<path fill="#FFFFFF" d="M384.5,210.1h-191c-34.7,0-64.5,29.8-64.5,64.5v292.7c0,34.7,29.8,64.5,64.5,64.5h208.3
		c34.7,0,64.5-29.8,64.5-64.5V292L384.5,210.1z M436.5,567.3c0,19.8-14.9,34.7-34.7,34.7H193.5c-19.8,0-34.7-14.9-34.7-34.7V274.6
		c0-19.8,14.9-34.7,34.7-34.7h178.6l64.5,64.5V567.3z M191,554.9c0,7.4,7.4,14.9,17.4,14.9h181.1c9.9,0,14.9-7.4,14.9-14.9V420.9
		H191V554.9z M354.7,510.2h14.9V545h-14.9V510.2z M332.4,510.2h12.4V545h-12.4V510.2z M280.3,510.2h37.2V545h-37.2V510.2z
		 M248,510.2h14.9V545H248V510.2z M225.7,510.2h12.4V545h-12.4V510.2z M191,299.4v99.2h210.8v-99.2c0-9.9-7.4-14.9-14.9-14.9H208.3
		C198.4,284.5,191,292,191,299.4z M297.6,316.8l32.2,54.6h-62L297.6,316.8z"/>
</g>
</svg>
