<?xml version="1.0" encoding="utf-8"?>
<!-- Generator: Adobe Illustrator 18.0.0, SVG Export Plug-In . SVG Version: 6.00 Build 0)  -->
<!DOCTYPE svg PUBLIC "-//W3C//DTD SVG 1.1//EN" "http://www.w3.org/Graphics/SVG/1.1/DTD/svg11.dtd">
<svg version="1.1" id="Capa_1" xmlns="http://www.w3.org/2000/svg" xmlns:xlink="http://www.w3.org/1999/xlink" x="0px" y="0px"
	 viewBox="0 0 595.3 841.9" enable-background="new 0 0 595.3 841.9" xml:space="preserve">
<g id="guia" display="none">
</g>
<g id="guia2">
</g>
<g id="Capa_3">
	<g>
		<rect x="223.2" y="552.4" fill="#FFFFFF" width="14.9" height="24.8"/>
		<rect x="200.9" y="552.4" fill="#FFFFFF" width="14.9" height="24.8"/>
		<rect x="248" y="552.4" fill="#FFFFFF" width="59.5" height="24.8"/>
		<circle fill="#FFFFFF" cx="456.4" cy="435.8" r="19.8"/>
		<path fill="#FFFFFF" d="M468.8,277.1H444v-59.5H151.3v59.5h-24.8c-37.2,0-64.5,29.8-64.5,64.5v173.6c0,37.2,29.8,64.5,64.5,64.5
			h24.8v42.2h290.2v-42.2h24.8c37.2,0,64.5-29.8,64.5-64.5V341.6C533.3,306.8,506,277.1,468.8,277.1z M181.1,247.3h233.2v27.3H181.1
			V247.3z M151.3,552.4h-24.8c-19.8,0-34.7-14.9-34.7-34.7v-7.4c7.4,5,19.8,7.4,32.2,7.4V540h27.3
			C151.3,542.5,151.3,552.4,151.3,552.4z M414.2,594.6H181.1v-74.4h19.8V535h14.9v-14.9h7.4V535h14.9v-14.9h9.9V535h59.5v-14.9h7.4
			V535h29.8v-14.9h9.9V535h17.4v-14.9h5V535h14.9v-14.9h22.3L414.2,594.6L414.2,594.6z M503.5,515.2c0,19.8-14.9,34.7-34.7,34.7H444
			V540h24.8v-22.3l0,0c12.4,0,24.8-5,34.7-9.9V515.2z M503.5,453.2c0,19.8-14.9,34.7-34.7,34.7H126.5c-19.8,0-34.7-14.9-34.7-34.7
			V344.1c0-19.8,14.9-34.7,34.7-34.7h342.3c19.8,0,34.7,14.9,34.7,34.7V453.2L503.5,453.2z"/>
		<rect x="315" y="552.4" fill="#FFFFFF" width="29.8" height="24.8"/>
		<circle fill="#FFFFFF" cx="456.4" cy="383.7" r="19.8"/>
		<rect x="352.2" y="552.4" fill="#FFFFFF" width="17.4" height="24.8"/>
		<rect x="374.5" y="552.4" fill="#FFFFFF" width="14.9" height="24.8"/>
	</g>
</g>
</svg>
