<?xml version="1.0" encoding="utf-8"?>
<!-- Generator: Adobe Illustrator 18.0.0, SVG Export Plug-In . SVG Version: 6.00 Build 0)  -->
<!DOCTYPE svg PUBLIC "-//W3C//DTD SVG 1.1//EN" "http://www.w3.org/Graphics/SVG/1.1/DTD/svg11.dtd">
<svg version="1.1" id="Capa_1" xmlns="http://www.w3.org/2000/svg" xmlns:xlink="http://www.w3.org/1999/xlink" x="0px" y="0px"
	 viewBox="0 0 595.3 841.9" enable-background="new 0 0 595.3 841.9" xml:space="preserve">
<g id="guia" display="none">
</g>
<g id="guia2">
</g>
<g id="Capa_3">
	<g id="guia_1_">
	</g>
	<g>
		<path fill="#FFFFFF" d="M466.3,413.5l-14.9,7.4c-2.5,0-2.5,2.5-5,5c0,2.5,0,5,0,7.4c27.3,49.6,9.9,111.6-37.2,141.4
			S300.1,589.6,267.9,545c-2.5-2.5-2.5-2.5-5-2.5c-2.5,0-5,0-5,2.5l-12.4,9.9c-2.5,2.5-5,7.4-2.5,12.4c42.2,59.5,124,76.9,186,39.7
			s84.3-119.1,49.6-183.5C476.2,413.5,471.3,411,466.3,413.5z"/>
		<path fill="#FFFFFF" d="M367.1,495.4c0,2.5,0,5,0,5l27.3,44.6c0,2.5,2.5,2.5,5,5c0,0,0,0,2.5,0s2.5,0,5-2.5
			c12.4-9.9,22.3-22.3,27.3-37.2c0-2.5,0-5,0-7.4s-2.5-2.5-5-5L377,485.4c-2.5,0-7.4,0-7.4,2.5C367.1,492.9,367.1,492.9,367.1,495.4
			z M374.5,495.4L374.5,495.4L374.5,495.4l54.6,12.4l0,0c0,0,0,0,0,2.5c-5,12.4-14.9,24.8-24.8,34.7l0,0l0,0l0,0L374.5,495.4
			C372.1,497.8,372.1,497.8,374.5,495.4C372.1,495.4,374.5,495.4,374.5,495.4z"/>
		<path fill="#FFFFFF" d="M342.3,495.4c-2.5,0-5,0-5,0l-44.6,27.3c-2.5,0-2.5,2.5-5,5c0,2.5,0,5,2.5,7.4
			c9.9,12.4,22.3,19.8,37.2,27.3h2.5c2.5,0,2.5,0,2.5,0c2.5,0,5-2.5,5-5l12.4-52.1c0-2.5,0-7.4-2.5-7.4
			C344.8,495.4,342.3,495.4,342.3,495.4z M329.9,554.9C329.9,554.9,327.4,554.9,329.9,554.9C327.4,554.9,327.4,554.9,329.9,554.9
			L329.9,554.9c-14.9-5-27.3-12.4-34.7-22.3c0,0,0,0,0-2.5l0,0l44.6-27.3l0,0l0,0c0,0,0,0,0,2.5L329.9,554.9z"/>
		<path fill="#FFFFFF" d="M359.6,497.8C357.2,497.8,357.2,497.8,359.6,497.8c-2.5,0-2.5,0-5,0c-2.5,0-2.5,2.5-2.5,5l-12.4,52.1
			c0,2.5,0,5,2.5,5c2.5,2.5,2.5,2.5,5,2.5c2.5,0,7.4,0,9.9,0c12.4,0,22.3-2.5,34.7-7.4c2.5,0,2.5-2.5,5-5c0-2.5,0-5,0-7.4
			l-27.3-44.6C364.6,500.3,362.1,497.8,359.6,497.8z M386.9,552.4L386.9,552.4c-14.9,7.4-27.3,9.9-42.2,7.4c0,0,0,0-2.5,0
			c0,0,0,0,0-2.5l12.4-52.1c0,0,0,0,2.5-2.5c0,0,0,0,2.5,0L386.9,552.4L386.9,552.4z"/>
		<path fill="#FFFFFF" d="M429.1,497.8L429.1,497.8c2.5,0,5,0,7.4,0c2.5-2.5,2.5-2.5,2.5-5c2.5-14.9,0-29.8-7.4-44.6
			c0-2.5-2.5-2.5-5-5c-2.5,0-5,0-7.4,0l-44.6,27.3c-2.5,2.5-2.5,5-2.5,7.4v2.5c0,2.5,2.5,2.5,5,2.5L429.1,497.8z M379.5,478
			l44.6-27.3c0,0,0,0,2.5,0l0,0l0,0c5,12.4,7.4,27.3,7.4,42.2l0,0l0,0L382,480.5C379.5,480.5,377,480.5,379.5,478L379.5,478
			L379.5,478C377,478,377,478,379.5,478z"/>
		<path fill="#FFFFFF" d="M510.9,358.9L510.9,358.9c-9.9-7.4-19.8-14.9-29.8-22.3c-7.4-7.4-17.4-12.4-24.8-19.8
			c-2.5-14.9-2.5-29.8-2.5-42.2c0-14.9,0-29.8,2.5-42.2l0,0c0-2.5,0-7.4-5-9.9c-5-2.5-9.9,0-12.4,2.5c-7.4,14.9-14.9,29.8-19.8,44.6
			c-2.5,9.9-5,19.8-9.9,29.8c-14.9-5-37.2-12.4-62-14.9c-17.4-2.5-32.2-5-47.1-5h-2.5c-47.1-2.5-54.6-39.7-54.6-42.2s-2.5-5-5-7.4
			c-2.5-2.5-5-2.5-7.4,0c-59.5,27.3-89.3,106.7-91.8,114.1c-52.1,54.6-57,119.1-57,121.5c0,2.5,0,5,2.5,7.4s34.7,29.8,89.3,37.2
			c39.7,7.4,79.4,0,116.6-14.9c69.4-29.8,111.6-96.7,131.5-138.9c2.5,0,2.5,2.5,2.5,2.5l0,0c12.4,2.5,24.8,7.4,37.2,9.9
			c12.4,2.5,24.8,5,37.2,7.4c2.5,0,7.4,0,9.9-2.5C515.9,366.4,513.4,361.4,510.9,358.9z M136.4,418.5c-7.4,2.5-12.4,0-17.4-7.4
			c-2.5-5,0-12.4,7.4-17.4c7.4-2.5,12.4,0,17.4,7.4C146.3,408.5,143.9,416,136.4,418.5z"/>
	</g>
</g>
</svg>
