<?xml version="1.0" encoding="utf-8"?>
<!-- Generator: Adobe Illustrator 18.0.0, SVG Export Plug-In . SVG Version: 6.00 Build 0)  -->
<!DOCTYPE svg PUBLIC "-//W3C//DTD SVG 1.1//EN" "http://www.w3.org/Graphics/SVG/1.1/DTD/svg11.dtd">
<svg version="1.1" id="Capa_1" xmlns="http://www.w3.org/2000/svg" xmlns:xlink="http://www.w3.org/1999/xlink" x="0px" y="0px"
	 viewBox="0 0 595.3 841.9" enable-background="new 0 0 595.3 841.9" xml:space="preserve">
<g id="guia" display="none">
</g>
<g id="guia2">
</g>
<g id="Capa_3">
	<g>
		<path fill="#FFFFFF" d="M386.9,230H377c-2.5-7.4-9.9-12.4-17.4-12.4H205.9c-9.9,0-19.8,9.9-19.8,19.8V607
			c0,9.9,9.9,19.8,19.8,19.8h156.3c9.9,0,19.8-9.9,19.8-19.8V485.4h7.4c12.4,0,22.3-9.9,22.3-19.8V249.8
			C409.3,237.4,399.3,230,386.9,230z M347.2,582.2c0,12.4-7.4,22.3-17.4,22.3h-96.7c-9.9,0-17.4-9.9-17.4-22.3v-71.9
			c0-12.4,7.4-22.3,17.4-22.3h96.7c9.9,0,17.4,9.9,17.4,22.3C347.2,510.2,347.2,582.2,347.2,582.2z M359.6,453.2
			c0,7.4-7.4,14.9-14.9,14.9h-124c-7.4,0-14.9-7.4-14.9-14.9V252.3c0-7.4,7.4-14.9,14.9-14.9h124c7.4,0,14.9,7.4,14.9,14.9V453.2z"
			/>
		<path fill="#FFFFFF" d="M213.3,440.8c0,12.4,9.9,22.3,19.8,22.3h96.7c9.9,0,19.8-9.9,19.8-22.3v-47.1l-136.4-67V440.8z"/>
		<path fill="#FFFFFF" d="M255.5,557.4c0,14.9,12.4,27.3,27.3,27.3c14.9,0,27.3-12.4,27.3-27.3s-27.3-49.6-27.3-49.6
			S255.5,542.5,255.5,557.4z"/>
	</g>
</g>
</svg>
