<?xml version="1.0" encoding="utf-8"?>
<!-- Generator: Adobe Illustrator 18.0.0, SVG Export Plug-In . SVG Version: 6.00 Build 0)  -->
<!DOCTYPE svg PUBLIC "-//W3C//DTD SVG 1.1//EN" "http://www.w3.org/Graphics/SVG/1.1/DTD/svg11.dtd">
<svg version="1.1" id="Capa_1" xmlns="http://www.w3.org/2000/svg" xmlns:xlink="http://www.w3.org/1999/xlink" x="0px" y="0px"
	 viewBox="0 0 595.3 841.9" enable-background="new 0 0 595.3 841.9" xml:space="preserve">
<g id="guia" display="none">
</g>
<g id="guia2">
</g>
<g id="Capa_3">
	<g>
		<path fill="#FFFFFF" d="M312.5,205.2h-27.3c-49.6,0-89.3,39.7-89.3,89.3v267.9h34.7v74.4h138.9v-74.4h34.7V294.4
			C399.3,244.8,359.6,205.2,312.5,205.2z M265.4,599.5v-37.2h67v37.2H265.4z M364.6,517.7v9.9H230.7v-9.9H364.6z M282.8,242.4H310
			c29.8,0,52.1,24.8,52.1,52.1v193.5H230.7V294.4C230.7,264.7,255.5,242.4,282.8,242.4z"/>
		<rect x="267.9" y="564.8" fill="#FFFFFF" width="22.3" height="24.8"/>
		<rect x="302.6" y="564.8" fill="#FFFFFF" width="22.3" height="24.8"/>
	</g>
</g>
</svg>
