<?xml version="1.0" encoding="utf-8"?>
<!-- Generator: Adobe Illustrator 18.0.0, SVG Export Plug-In . SVG Version: 6.00 Build 0)  -->
<!DOCTYPE svg PUBLIC "-//W3C//DTD SVG 1.1//EN" "http://www.w3.org/Graphics/SVG/1.1/DTD/svg11.dtd">
<svg version="1.1" id="Capa_1" xmlns="http://www.w3.org/2000/svg" xmlns:xlink="http://www.w3.org/1999/xlink" x="0px" y="0px"
	 viewBox="0 0 595.3 841.9" enable-background="new 0 0 595.3 841.9" xml:space="preserve">
<g id="guia" display="none">
</g>
<g id="guia2">
</g>
<g id="Capa_3">
	<g>
		<path fill="#FFFFFF" d="M446.5,165.5H148.8c-32.2,0-59.5,24.8-59.5,57v396.9c0,32.2,27.3,57,57,57h300.1c32.2,0,57-27.3,57-57
			V222.5C506,190.3,478.7,165.5,446.5,165.5z M446.5,641.7H148.8c-12.4,0-22.3-9.9-22.3-22.3V222.5c0-12.4,9.9-22.3,22.3-22.3h297.6
			c12.4,0,22.3,9.9,22.3,22.3v396.9C468.8,631.8,458.9,641.7,446.5,641.7z"/>
		<path fill="#FFFFFF" d="M295.2,351.5c-59.5,0-106.7,47.1-106.7,106.7s47.1,106.7,106.7,106.7s106.7-47.1,106.7-106.7
			S354.7,351.5,295.2,351.5z M295.2,515.2c-32.2,0-57-24.8-57-57s24.8-57,57-57s57,24.8,57,57S327.4,515.2,295.2,515.2z"/>
		<path fill="#FFFFFF" d="M200.9,252.3c-5-12.4-22.3-14.9-32.2-9.9c-12.4,7.4-14.9,22.3-9.9,34.7c5,7.4,12.4,12.4,19.8,12.4
			c5,0,7.4,0,12.4-2.5C203.4,279.6,208.3,264.7,200.9,252.3z"/>
		<path fill="#FFFFFF" d="M297.6,289.5c5,0,7.4,0,12.4-2.5c5-2.5,9.9-7.4,12.4-14.9s0-12.4-2.5-17.4c-7.4-9.9-22.3-14.9-32.2-9.9
			c-12.4,7.4-14.9,22.3-9.9,32.2C280.3,284.5,290.2,289.5,297.6,289.5z"/>
		<path fill="#FFFFFF" d="M354.7,289.5c5,0,7.4,0,12.4-2.5c12.4-7.4,14.9-22.3,9.9-32.2c-7.4-9.9-22.3-14.9-32.2-9.9
			c-12.4,7.4-14.9,22.3-9.9,32.2C339.8,284.5,347.2,289.5,354.7,289.5z"/>
		<path fill="#FFFFFF" d="M401.8,242.4c-12.4,7.4-14.9,22.3-9.9,32.2c5,7.4,12.4,12.4,19.8,12.4c5,0,7.4,0,12.4-2.5
			c5-2.5,9.9-7.4,12.4-14.9c2.5-7.4,0-12.4-2.5-17.4C429.1,242.4,411.7,237.4,401.8,242.4z"/>
	</g>
</g>
</svg>
