<?xml version="1.0" encoding="utf-8"?>
<!-- Generator: Adobe Illustrator 18.0.0, SVG Export Plug-In . SVG Version: 6.00 Build 0)  -->
<!DOCTYPE svg PUBLIC "-//W3C//DTD SVG 1.1//EN" "http://www.w3.org/Graphics/SVG/1.1/DTD/svg11.dtd">
<svg version="1.1" id="Capa_1" xmlns="http://www.w3.org/2000/svg" xmlns:xlink="http://www.w3.org/1999/xlink" x="0px" y="0px"
	 viewBox="0 0 595.3 841.9" enable-background="new 0 0 595.3 841.9" xml:space="preserve">
<g id="guia" display="none">
</g>
<g id="guia2">
</g>
<g id="Capa_3">
	<g>
		<path fill="#FFFFFF" d="M148.8,301.9h235.6c7.4,0,14.9-5,17.4-12.4s2.5-14.9-5-22.3c-2.5-2.5-37.2-37.2-104.2-44.6c5,0,5-5,5-7.4
			c0-17.4-12.4-29.8-29.8-29.8c-17.4,0-29.8,12.4-29.8,29.8c0,5,0,7.4,2.5,12.4c-67,5-101.7,39.7-104.2,42.2c-5,5-7.4,12.4-5,19.8
			C133.9,296.9,141.4,301.9,148.8,301.9z"/>
		<path fill="#FFFFFF" d="M406.8,351.5L406.8,351.5v-7.4c0-5,0-12.4-5-17.4c-5-2.5-9.9-5-14.9-5H148.8c-5,0-9.9,2.5-14.9,7.4
			c-2.5,5-5,9.9-2.5,17.4l37.2,203.4c-14.9,9.9-37.2,27.3-37.2,49.6v39.7c0,9.9,9.9,19.8,19.8,19.8h235.6c9.9,0,19.8-9.9,19.8-19.8
			v-39.7c0-22.3-22.3-39.7-37.2-49.6l2.5-19.8h14.9c47.1,0,57-24.8,59.5-34.7l19.8-79.4v-5C466.3,368.9,429.1,351.5,406.8,351.5z
			 M362.1,361.4L329.9,540h-124l-32.2-178.6H362.1z M406.8,485.4L406.8,485.4c-2.5,2.5-7.4,5-19.8,5h-7.4l17.4-99.2h7.4
			c9.9,0,19.8,2.5,19.8,17.4L406.8,485.4z"/>
		<path fill="#FFFFFF" d="M258,520.2v-27.3l0,0l-2.5,2.5c-5,5-9.9,2.5-14.9,0c-5-5-5-9.9,0-14.9c2.5-2.5,7.4-7.4,17.4-7.4
			c7.4,0,14.9,7.4,17.4,7.4l0,0l2.5,2.5c0,0,2.5,0,2.5-2.5c5-5,9.9-2.5,14.9,0c5,5,5,9.9,0,14.9c-2.5,2.5-7.4,7.4-17.4,7.4v17.4H315
			l14.9-79.4H208.3l14.9,79.4H258z"/>
	</g>
</g>
</svg>
