<?xml version="1.0" encoding="utf-8"?>
<!-- Generator: Adobe Illustrator 18.0.0, SVG Export Plug-In . SVG Version: 6.00 Build 0)  -->
<!DOCTYPE svg PUBLIC "-//W3C//DTD SVG 1.1//EN" "http://www.w3.org/Graphics/SVG/1.1/DTD/svg11.dtd">
<svg version="1.1" id="Capa_1" xmlns="http://www.w3.org/2000/svg" xmlns:xlink="http://www.w3.org/1999/xlink" x="0px" y="0px"
	 viewBox="0 0 595.3 841.9" enable-background="new 0 0 595.3 841.9" xml:space="preserve">
<g id="guia" display="none">
</g>
<g id="guia2">
</g>
<g id="Capa_3">
	<g>
		<path fill="#FFFFFF" d="M473.7,537.5h-44.6c7.4-5,14.9-12.4,17.4-19.8c22.3,0,47.1-14.9,47.1-39.7c0-17.4-12.4-29.8-29.8-29.8
			c-2.5,0-7.4,0-9.9,2.5l0,0c0-5-5-9.9-9.9-9.9h-96.7c-5,0-9.9,5-9.9,9.9v37.2c0,14.9,7.4,37.2,27.3,49.6h-47.1V341.6h19.8v39.7
			c0,9.9,9.9,19.8,19.8,19.8h79.4c9.9,0,19.8-9.9,19.8-19.8v-19.8h59.5c9.9,0,19.8-9.9,19.8-19.8c0-9.9-9.9-19.8-19.8-19.8h-19.8
			v-37.2c0-42.2-34.7-59.5-59.5-59.5H320v-19.8c0-9.9-9.9-19.8-19.8-19.8H121.5c-24.8,0-59.5,14.9-59.5,59.5v391.9
			c0,9.9,9.9,19.8,19.8,19.8h215.8h215.8c9.9,0,19.8-9.9,19.8-19.8V597C533.3,554.9,498.5,537.5,473.7,537.5z M453.9,487.9v-7.4
			c0-5,5-9.9,9.9-9.9c5,0,9.9,5,9.9,9.9c0,9.9-9.9,14.9-19.8,17.4V487.9z M357.2,478v-17.4h79.4V478H357.2z M434.1,264.7
			c9.9,0,19.8,5,19.8,19.8v19.8h-19.8h-79.4H315v-39.7H434.1z M101.7,244.8c0-14.9,9.9-19.8,19.8-19.8h156.3v116.6v215.8v59.5H101.7
			V244.8z M493.6,616.9H317.5v-39.7h156.3c9.9,0,19.8,5,19.8,19.8L493.6,616.9L493.6,616.9z"/>
		<path fill="#FFFFFF" d="M218.3,520.2v-24.8c5-2.5,9.9-9.9,9.9-17.4c0-7.4-5-12.4-9.9-17.4v-62h-17.4v62c-5,2.5-9.9,9.9-9.9,17.4
			c0,7.4,5,12.4,9.9,17.4v24.8c-12.4,5-19.8,14.9-19.8,27.3s7.4,22.3,19.8,27.3v2.5h19.8v-2.5c12.4-5,19.8-14.9,19.8-27.3
			C238.1,535,230.7,525.1,218.3,520.2z"/>
		<path fill="#FFFFFF" d="M238.1,301.9c0-2.5,0-5-2.5-5v-2.5c0-2.5-2.5-5-2.5-7.4c-5-7.4-9.9-9.9-17.4-14.9c-2.5-2.5-2.5-2.5-5-2.5
			h-2.5c-2.5,0-2.5-2.5-5-2.5h-2.5c-2.5,0-5,0-9.9,0c-27.3,0-49.6,22.3-49.6,49.6c0,2.5,0,5,0,9.9v2.5c0,2.5,0,5,2.5,5v2.5
			c0,2.5,2.5,5,2.5,7.4c7.4,2.5,9.9,7.4,17.4,9.9c2.5,2.5,5,2.5,7.4,2.5h2.5c2.5,0,2.5,2.5,5,2.5h2.5c2.5,0,5,0,9.9,0
			c27.3,0,49.6-22.3,49.6-49.6c0-2.5,0-5,0-9.9C238.1,304.4,238.1,301.9,238.1,301.9z M176.1,339.1c-5-2.5-9.9-7.4-12.4-12.4
			l39.7-39.7c5,2.5,9.9,7.4,14.9,14.9L176.1,339.1z"/>
	</g>
</g>
</svg>
