<?xml version="1.0" encoding="utf-8"?>
<!-- Generator: Adobe Illustrator 18.0.0, SVG Export Plug-In . SVG Version: 6.00 Build 0)  -->
<!DOCTYPE svg PUBLIC "-//W3C//DTD SVG 1.1//EN" "http://www.w3.org/Graphics/SVG/1.1/DTD/svg11.dtd">
<svg version="1.1" id="Capa_1" xmlns="http://www.w3.org/2000/svg" xmlns:xlink="http://www.w3.org/1999/xlink" x="0px" y="0px"
	 viewBox="0 0 595.3 841.9" enable-background="new 0 0 595.3 841.9" xml:space="preserve">
<g id="guia" display="none">
</g>
<g id="guia2">
</g>
<g id="Capa_3">
	<g id="guia_1_">
	</g>
	<g>
		<path fill="#FFFFFF" d="M510.9,242.4C510.9,242.4,508.5,242.4,510.9,242.4c-2.5-2.5-2.5-2.5-2.5-5c-2.5-2.5-2.5-2.5-5-5
			c-12.4-9.9-29.8-7.4-37.2,5L377,351.5c-29.8-5-57-5-81.9-5c-54.6,0-138.9,7.4-181.1,34.7c-2.5,0-2.5,2.5-5,2.5s-2.5,2.5-5,2.5
			c-5,5-7.4,7.4-9.9,9.9l-2.5,2.5c-2.5,2.5-2.5,5-5,5v2.5c-2.5,2.5-2.5,5-2.5,7.4v2.5c0,2.5-2.5,7.4-2.5,9.9
			c0,71.9,34.7,133.9,89.3,173.6c-7.4,2.5-12.4,9.9-12.4,17.4c0,9.9,7.4,19.8,19.8,19.8h86.8h57h86.8c9.9,0,19.8-7.4,19.8-19.8
			c0-7.4-5-14.9-12.4-17.4c54.6-37.2,89.3-101.7,89.3-173.6c0-2.5,0-7.4-2.5-9.9v-2.5c0-2.5-2.5-5-2.5-7.4c0,0,0-2.5-2.5-2.5
			c-2.5-2.5-2.5-5-5-5l-2.5-2.5c-2.5-2.5-5-5-7.4-5c0,0-2.5-2.5-5-2.5c-2.5,0-2.5-2.5-5-2.5c-14.9-9.9-32.2-14.9-54.6-19.8
			l84.3-86.8l2.5-2.5C515.9,264.7,515.9,252.3,510.9,242.4z M124,425.9c7.4-9.9,54.6-32.2,146.3-34.7l0,0c7.4,0,14.9,0,22.3,0
			c7.4,0,14.9,0,22.3,0l0,0c9.9,0,19.8,0,27.3,2.5L324.9,416c-5-2.5-7.4-5-12.4-5c-14.9-5-27.3,0-37.2,5
			c-9.9,2.5-19.8,7.4-27.3,14.9c-42.2,2.5-74.4,9.9-89.3,17.4C138.9,438.3,126.5,430.9,124,425.9z M292.7,597
			c-74.4,0-138.9-49.6-161.2-116.6c44.6,17.4,114.1,24.8,161.2,24.8s116.6-7.4,161.2-24.8C434.1,547.4,369.6,597,292.7,597z
			 M461.3,425.9c-2.5,5-12.4,9.9-29.8,17.4c-14.9-7.4-42.2-12.4-76.9-14.9l29.8-29.8C431.6,406.1,456.4,418.5,461.3,425.9z"/>
		<path fill="#FFFFFF" d="M307.6,274.6c2.5,2.5,5,7.4,7.4,9.9c0,2.5,2.5,2.5,2.5,5c0,0,0,0,0,2.5v2.5c0,7.4-2.5,14.9-2.5,22.3v2.5
			c0,2.5,0,5,2.5,7.4h2.5c2.5,0,2.5,0,5-2.5c9.9-7.4,17.4-17.4,19.8-29.8v-5c0-2.5,0-5,0-7.4c0-2.5-2.5-7.4-2.5-9.9
			c-2.5-5-5-9.9-9.9-14.9l-2.5-2.5c-2.5-2.5-5-5-5-7.4c-2.5-5-2.5-5-2.5-7.4c0-7.4,2.5-17.4,5-24.8c0-2.5,0-5-2.5-7.4s-5-2.5-7.4,0
			c-9.9,7.4-17.4,17.4-19.8,29.8c-2.5,7.4,0,17.4,2.5,22.3S305.1,269.6,307.6,274.6z"/>
		<path fill="#FFFFFF" d="M253,292c2.5,2.5,2.5,7.4,5,7.4l2.5,5v2.5c0,0,0,2.5,0,5v7.4c0,2.5,0,5,2.5,5h2.5h2.5c5,0,7.4-2.5,9.9-7.4
			c2.5-2.5,5-5,7.4-12.4c0,0,0,0,0-2.5c0-2.5,0-2.5,0-5c0-2.5,0-5-2.5-7.4c-2.5-2.5-2.5-5-5-7.4l-2.5-2.5c0,0,0-2.5-2.5-2.5l0,0l0,0
			c0-2.5,0-5,0-7.4v-5c0-2.5,0-5-2.5-5h-2.5h-2.5c-7.4,2.5-12.4,9.9-14.9,17.4v2.5c0,0,0,0,0,2.5v2.5C253,287,253,289.5,253,292z"/>
	</g>
</g>
</svg>
