<?xml version="1.0" encoding="utf-8"?>
<!-- Generator: Adobe Illustrator 18.0.0, SVG Export Plug-In . SVG Version: 6.00 Build 0)  -->
<!DOCTYPE svg PUBLIC "-//W3C//DTD SVG 1.1//EN" "http://www.w3.org/Graphics/SVG/1.1/DTD/svg11.dtd">
<svg version="1.1" id="Capa_1" xmlns="http://www.w3.org/2000/svg" xmlns:xlink="http://www.w3.org/1999/xlink" x="0px" y="0px"
	 viewBox="0 0 595.3 841.9" enable-background="new 0 0 595.3 841.9" xml:space="preserve">
<g id="guia" display="none">
</g>
<g id="guia2">
</g>
<g id="Capa_3">
	<g id="guia_1_">
	</g>
	<path fill="#FFFFFF" d="M364.6,418.5V215.1c0-17.4-12.4-29.8-29.8-29.8h-74.4c-17.4,0-29.8,12.4-29.8,29.8v203.4
		c-34.7,34.7-86.8,104.2-86.8,158.7c0,57,52.1,79.4,74.4,79.4H377c19.8,0,74.4-24.8,74.4-79.4C451.4,522.6,399.3,453.2,364.6,418.5z
		 M300.1,599.5L300.1,599.5L300.1,599.5L300.1,599.5z M377,626.8H218.3c-7.4,0-44.6-12.4-44.6-49.6c0-44.6,49.6-109.1,81.9-143.9
		c0-2.5,2.5-2.5,2.5-5h27.3v101.7c-9.9,5-12.4,14.9-17.4,27.3c0,2.5-2.5,5-2.5,7.4c-5,9.9-5,19.8,0,27.3c5,7.4,17.4,12.4,32.2,12.4
		h2.5c17.4,0,27.3-5,32.2-12.4s5-17.4,0-29.8c0-2.5-2.5-5-2.5-7.4c-5-9.9-9.9-19.8-17.4-27.3V425.9h27.3c0,2.5,2.5,2.5,2.5,5
		c32.2,32.2,81.9,99.2,81.9,143.9C421.7,614.4,384.5,626.8,377,626.8z"/>
</g>
</svg>
