<?xml version="1.0" encoding="utf-8"?>
<!-- Generator: Adobe Illustrator 18.0.0, SVG Export Plug-In . SVG Version: 6.00 Build 0)  -->
<!DOCTYPE svg PUBLIC "-//W3C//DTD SVG 1.1//EN" "http://www.w3.org/Graphics/SVG/1.1/DTD/svg11.dtd">
<svg version="1.1" id="Capa_1" xmlns="http://www.w3.org/2000/svg" xmlns:xlink="http://www.w3.org/1999/xlink" x="0px" y="0px"
	 viewBox="0 0 595.3 841.9" enable-background="new 0 0 595.3 841.9" xml:space="preserve">
<g id="guia" display="none">
</g>
<g id="guia2">
</g>
<g id="Capa_3">
	<g id="guia_1_">
	</g>
	<g>
		<path fill="#FFFFFF" d="M126.5,301.9l342.3,7.4l0,0c0,0,2.5,0,2.5-2.5c0-2.5,2.5-2.5,2.5-2.5v-24.8c0,0,0-2.5-2.5-2.5l-2.5-2.5
			l-342.3,9.9c-2.5,0-5,2.5-5,5v9.9C121.5,301.9,124,301.9,126.5,301.9z"/>
		<path fill="#FFFFFF" d="M126.5,264.7l342.3-24.8l0,0c0,0,2.5,0,2.5-2.5v-2.5v-24.8c0,0,0-2.5-2.5-2.5h-2.5l-339.8,39.7
			c-2.5,0-5,2.5-5,5v9.9C124,264.7,124,267.2,126.5,264.7z"/>
		<ellipse fill="#FFFFFF" cx="292.7" cy="401.1" rx="34.7" ry="14.9"/>
		<path fill="#FFFFFF" d="M404.3,406.1c-9.9,0-22.3,0-32.2,2.5v-7.4c0-24.8-34.7-44.6-79.4-44.6s-79.4,19.8-79.4,44.6v29.8
			c-7.4,0-14.9,0-22.3,0c-59.5,0-104.2,24.8-104.2,57l0,0v89.3c0,32.2,44.6,57,104.2,57s104.2-24.8,104.2-57v-62c2.5,0,5,0,7.4,0
			v39.7c0,32.2,44.6,57,104.2,57s104.2-24.8,104.2-57v-89.3C508.5,430.9,463.8,406.1,404.3,406.1z M267.9,490.4
			C267.9,490.4,267.9,492.9,267.9,490.4c0,2.5,0,2.5-2.5,2.5c-7.4,12.4-34.7,24.8-74.4,24.8s-69.4-14.9-74.4-27.3l0,0v-2.5
			c0,0,0,0,0-2.5l0,0c0-12.4,29.8-32.2,76.9-32.2s76.9,17.4,76.9,32.2C267.9,487.9,267.9,490.4,267.9,490.4z M292.7,425.9
			c-32.2,0-54.6-9.9-59.5-19.8l0,0c0-2.5,0-2.5,0-5c0-9.9,22.3-24.8,59.5-24.8s59.5,14.9,59.5,24.8v2.5c0,0,0,0,0,2.5c0,0,0,0,0,2.5
			C344.8,416,324.9,425.9,292.7,425.9z M481.2,468.1v2.5c0,0,0,0,0,2.5c-7.4,12.4-34.7,27.3-74.4,27.3c-42.2,0-69.4-14.9-76.9-27.3
			l0,0c0-2.5-2.5-2.5-2.5-5c0-12.4,29.8-32.2,76.9-32.2C451.4,433.3,481.2,450.7,481.2,468.1C481.2,465.6,481.2,465.6,481.2,468.1z"
			/>
		<ellipse fill="#FFFFFF" cx="404.3" cy="465.6" rx="44.6" ry="17.4"/>
		<path fill="#FFFFFF" d="M191,470.6c-24.8,0-44.6,7.4-44.6,17.4s19.8,17.4,44.6,17.4s44.6-7.4,44.6-17.4S215.8,470.6,191,470.6z"/>
	</g>
</g>
</svg>
