<?xml version="1.0" encoding="utf-8"?>
<!-- Generator: Adobe Illustrator 18.0.0, SVG Export Plug-In . SVG Version: 6.00 Build 0)  -->
<!DOCTYPE svg PUBLIC "-//W3C//DTD SVG 1.1//EN" "http://www.w3.org/Graphics/SVG/1.1/DTD/svg11.dtd">
<svg version="1.1" id="Capa_1" xmlns="http://www.w3.org/2000/svg" xmlns:xlink="http://www.w3.org/1999/xlink" x="0px" y="0px"
	 viewBox="0 0 595.3 841.9" enable-background="new 0 0 595.3 841.9" xml:space="preserve">
<g id="guia" display="none">
</g>
<g id="guia2">
</g>
<g id="Capa_3">
	<g id="guia_1_">
	</g>
	<path fill="#FFFFFF" d="M434.1,381.3c0-39.7-24.8-74.4-59.5-89.3v-32.2c0-17.4-19.8-24.8-32.2-27.3v-9.9h27.3c5,0,9.9,5,9.9,9.9
		c0,9.9,7.4,17.4,17.4,17.4s17.4-7.4,17.4-17.4c0-24.8-19.8-47.1-47.1-47.1H228.2c-9.9,0-17.4,7.4-17.4,17.4
		c0,9.9,7.4,19.8,17.4,19.8H253v9.9c-12.4,2.5-32.2,9.9-32.2,27.3V292c-34.7,12.4-59.5,49.6-59.5,86.8l-7.4,191
		c0,47.1,39.7,86.8,86.8,86.8h114.1c22.3,0,44.6-9.9,62-24.8c17.4-17.4,24.8-37.2,24.8-62L434.1,381.3z M354.7,619.4H240.6
		c-27.3,0-49.6-22.3-49.6-49.6l7.4-188.5c0-24.8,17.4-37.2,32.2-42.2c12.4,12.4,42.2,14.9,67,14.9c24.8,0,54.6-2.5,67-14.9
		c14.9,5,32.2,17.4,32.2,44.6l7.4,186C404.3,597,382,619.4,354.7,619.4z M290.2,237.4v-14.9h14.9v17.4h-14.9V237.4z M337.3,314.3
		c-7.4,2.5-19.8,5-39.7,5c-19.8,0-34.7-2.5-39.7-5v-14.9c17.4,2.5,34.7,2.5,39.7,2.5s22.3,0,39.7-2.5V314.3L337.3,314.3z"/>
</g>
</svg>
