<?xml version="1.0" encoding="utf-8"?>
<!-- Generator: Adobe Illustrator 18.0.0, SVG Export Plug-In . SVG Version: 6.00 Build 0)  -->
<!DOCTYPE svg PUBLIC "-//W3C//DTD SVG 1.1//EN" "http://www.w3.org/Graphics/SVG/1.1/DTD/svg11.dtd">
<svg version="1.1" id="Capa_1" xmlns="http://www.w3.org/2000/svg" xmlns:xlink="http://www.w3.org/1999/xlink" x="0px" y="0px"
	 viewBox="0 0 595.3 841.9" enable-background="new 0 0 595.3 841.9" xml:space="preserve">
<g id="guia" display="none">
</g>
<g id="guia2">
</g>
<g id="Capa_3">
	<g>
		<path fill="#FFFFFF" d="M248,234.9v-42.2c0-5-5-9.9-9.9-9.9h-32.2c-5,0-9.9,5-9.9,9.9v42.2H248z"/>
		<path fill="#FFFFFF" d="M248,247.3h-52.1l-42.2,22.3c-2.5,5-7.4,9.9-7.4,14.9v364.6c0,5,5,9.9,9.9,9.9h131.5c5,0,9.9-5,9.9-9.9
			V284.5c0-5-2.5-12.4-7.4-14.9L248,247.3z M270.4,592.1C270.4,594.6,267.9,594.6,270.4,592.1l-94.3,2.5c-2.5,0-2.5,0-2.5-2.5v-258
			c0,0,0-2.5,2.5-5c24.8-24.8,67-24.8,91.8,0c0,0,2.5,2.5,2.5,5C270.4,334.1,270.4,592.1,270.4,592.1z"/>
		<path fill="#FFFFFF" d="M220.7,418.5c-5,12.4-9.9,17.4-17.4,27.3c-5,5-7.4,12.4-7.4,19.8c0,14.9,12.4,27.3,27.3,27.3
			c14.9,0,27.3-12.4,27.3-27.3c0-7.4-2.5-12.4-7.4-19.8C230.7,435.8,225.7,430.9,220.7,418.5z"/>
		<polygon fill="#FFFFFF" points="332.4,537.5 448.9,420.9 448.9,406.1 332.4,406.1 		"/>
		<polygon fill="#FFFFFF" points="332.4,592.1 448.9,478 448.9,448.2 332.4,562.3 		"/>
		<path fill="#FFFFFF" d="M332.4,634.3c0,12.4,9.9,24.8,24.8,24.8h67c12.4,0,24.8-9.9,24.8-24.8V502.8L332.4,619.4V634.3z"/>
		<path fill="#FFFFFF" d="M424.1,314.3h-67c-12.4,0-24.8,9.9-24.8,24.8v52.1h116.6v-52.1C448.9,326.7,439,314.3,424.1,314.3z"/>
	</g>
</g>
</svg>
