<?xml version="1.0" encoding="utf-8"?>
<!-- Generator: Adobe Illustrator 18.0.0, SVG Export Plug-In . SVG Version: 6.00 Build 0)  -->
<!DOCTYPE svg PUBLIC "-//W3C//DTD SVG 1.1//EN" "http://www.w3.org/Graphics/SVG/1.1/DTD/svg11.dtd">
<svg version="1.1" id="Capa_1" xmlns="http://www.w3.org/2000/svg" xmlns:xlink="http://www.w3.org/1999/xlink" x="0px" y="0px"
	 viewBox="0 0 595.3 841.9" enable-background="new 0 0 595.3 841.9" xml:space="preserve">
<g id="guia" display="none">
</g>
<g id="guia2">
</g>
<g id="Capa_3">
	<g>
		<path fill="#FFFFFF" d="M285.2,483c0-7.4-2.5-12.4-5-17.4c-44.6-12.4-76.9-69.4-76.9-138.9c0-79.4,42.2-141.4,94.3-141.4
			s94.3,64.5,94.3,141.4c0,69.4-32.2,126.5-76.9,138.9c-2.5,5-5,9.9-5,14.9c0,29.8,24.8,67,24.8,106.7c0,37.2-17.4,67-37.2,67
			s-37.2-27.3-37.2-67C260.4,549.9,285.2,507.8,285.2,483L285.2,483z"/>
		<path fill="#FFFFFF" d="M297.6,443.3c29.8,0,69.4-42.2,69.4-116.6s-39.7-116.6-69.4-116.6c-29.8,0-69.4,42.2-69.4,116.6
			S267.9,443.3,297.6,443.3L297.6,443.3z"/>
		<path fill="#FFFFFF" d="M262.9,354c0-5,2.5-7.4,7.4-7.4s7.4,2.5,7.4,7.4s-2.5,7.4-7.4,7.4C267.9,361.4,262.9,358.9,262.9,354
			L262.9,354z"/>
		<path fill="#FFFFFF" d="M262.9,408.5c0-5,2.5-7.4,7.4-7.4s7.4,2.5,7.4,7.4s-2.5,7.4-7.4,7.4C267.9,416,262.9,411,262.9,408.5
			L262.9,408.5z"/>
		<path fill="#FFFFFF" d="M317.5,408.5c0-5,2.5-7.4,7.4-7.4s7.4,2.5,7.4,7.4s-2.5,7.4-7.4,7.4C320,416,317.5,411,317.5,408.5
			L317.5,408.5z"/>
		<path fill="#FFFFFF" d="M317.5,247.3c0-5,2.5-7.4,7.4-7.4s7.4,2.5,7.4,7.4s-2.5,7.4-7.4,7.4C320,254.8,317.5,252.3,317.5,247.3
			L317.5,247.3z"/>
		<path fill="#FFFFFF" d="M262.9,247.3c0-5,2.5-7.4,7.4-7.4s7.4,2.5,7.4,7.4s-2.5,7.4-7.4,7.4C267.9,254.8,262.9,252.3,262.9,247.3
			L262.9,247.3z"/>
		<path fill="#FFFFFF" d="M329.9,274.6c0-5,2.5-7.4,7.4-7.4s7.4,2.5,7.4,7.4c0,5-2.5,7.4-7.4,7.4C334.8,282,329.9,277.1,329.9,274.6
			L329.9,274.6z"/>
		<path fill="#FFFFFF" d="M250.5,274.6c0-5,2.5-7.4,7.4-7.4c5,0,7.4,2.5,7.4,7.4c0,5-2.5,7.4-7.4,7.4
			C253,282,250.5,277.1,250.5,274.6L250.5,274.6z"/>
		<path fill="#FFFFFF" d="M329.9,381.3c0-5,2.5-7.4,7.4-7.4s7.4,2.5,7.4,7.4s-2.5,7.4-7.4,7.4C334.8,388.7,329.9,383.7,329.9,381.3
			L329.9,381.3z"/>
		<path fill="#FFFFFF" d="M250.5,381.3c0-5,2.5-7.4,7.4-7.4c5,0,7.4,2.5,7.4,7.4s-2.5,7.4-7.4,7.4
			C253,388.7,250.5,383.7,250.5,381.3L250.5,381.3z"/>
		<path fill="#FFFFFF" d="M290.2,408.5c0-5,2.5-7.4,7.4-7.4s7.4,2.5,7.4,7.4s-2.5,7.4-7.4,7.4S290.2,411,290.2,408.5L290.2,408.5z"
			/>
		<path fill="#FFFFFF" d="M290.2,247.3c0-5,2.5-7.4,7.4-7.4s7.4,2.5,7.4,7.4s-2.5,7.4-7.4,7.4S290.2,252.3,290.2,247.3L290.2,247.3z
			"/>
		<path fill="#FFFFFF" d="M290.2,354c0-5,2.5-7.4,7.4-7.4s7.4,2.5,7.4,7.4s-2.5,7.4-7.4,7.4S290.2,358.9,290.2,354L290.2,354z"/>
		<path fill="#FFFFFF" d="M317.5,354c0-5,2.5-7.4,7.4-7.4s7.4,2.5,7.4,7.4s-2.5,7.4-7.4,7.4C320,361.4,317.5,358.9,317.5,354
			L317.5,354z"/>
		<path fill="#FFFFFF" d="M302.6,381.3c0-5,2.5-7.4,7.4-7.4s7.4,2.5,7.4,7.4s-2.5,7.4-7.4,7.4C307.6,388.7,302.6,383.7,302.6,381.3
			L302.6,381.3z"/>
		<path fill="#FFFFFF" d="M277.8,381.3c0-5,2.5-7.4,7.4-7.4s7.4,2.5,7.4,7.4s-2.5,7.4-7.4,7.4S277.8,383.7,277.8,381.3L277.8,381.3z
			"/>
		<path fill="#FFFFFF" d="M302.6,274.6c0-5,2.5-7.4,7.4-7.4s7.4,2.5,7.4,7.4c0,5-2.5,7.4-7.4,7.4C307.6,282,302.6,277.1,302.6,274.6
			L302.6,274.6z"/>
		<path fill="#FFFFFF" d="M277.8,274.6c0-5,2.5-7.4,7.4-7.4s7.4,2.5,7.4,7.4c0,5-2.5,7.4-7.4,7.4S277.8,277.1,277.8,274.6
			L277.8,274.6z"/>
		<path fill="#FFFFFF" d="M262.9,299.4c0-5,2.5-7.4,7.4-7.4s7.4,2.5,7.4,7.4c0,5-2.5,7.4-7.4,7.4
			C267.9,306.8,262.9,304.4,262.9,299.4L262.9,299.4z"/>
		<path fill="#FFFFFF" d="M290.2,299.4c0-5,2.5-7.4,7.4-7.4s7.4,2.5,7.4,7.4c0,5-2.5,7.4-7.4,7.4S290.2,304.4,290.2,299.4
			L290.2,299.4z"/>
		<path fill="#FFFFFF" d="M317.5,299.4c0-5,2.5-7.4,7.4-7.4s7.4,2.5,7.4,7.4c0,5-2.5,7.4-7.4,7.4C320,306.8,317.5,304.4,317.5,299.4
			L317.5,299.4z"/>
		<path fill="#FFFFFF" d="M329.9,326.7c0-5,2.5-7.4,7.4-7.4s7.4,2.5,7.4,7.4s-2.5,7.4-7.4,7.4C334.8,334.1,329.9,331.7,329.9,326.7
			L329.9,326.7z"/>
		<path fill="#FFFFFF" d="M302.6,326.7c0-5,2.5-7.4,7.4-7.4s7.4,2.5,7.4,7.4s-2.5,7.4-7.4,7.4C307.6,334.1,302.6,331.7,302.6,326.7
			L302.6,326.7z"/>
		<path fill="#FFFFFF" d="M277.8,326.7c0-5,2.5-7.4,7.4-7.4s7.4,2.5,7.4,7.4s-2.5,7.4-7.4,7.4S277.8,331.7,277.8,326.7L277.8,326.7z
			"/>
		<path fill="#FFFFFF" d="M250.5,326.7c0-5,2.5-7.4,7.4-7.4c5,0,7.4,2.5,7.4,7.4s-2.5,7.4-7.4,7.4
			C253,334.1,250.5,331.7,250.5,326.7L250.5,326.7z"/>
		<path fill="#FFFFFF" d="M287.7,621.9c0,5,5,9.9,9.9,9.9s9.9-5,9.9-9.9c0-5-5-9.9-9.9-9.9S287.7,614.4,287.7,621.9L287.7,621.9z"/>
	</g>
</g>
</svg>
