<?xml version="1.0" encoding="utf-8"?>
<!-- Generator: Adobe Illustrator 18.0.0, SVG Export Plug-In . SVG Version: 6.00 Build 0)  -->
<!DOCTYPE svg PUBLIC "-//W3C//DTD SVG 1.1//EN" "http://www.w3.org/Graphics/SVG/1.1/DTD/svg11.dtd">
<svg version="1.1" id="Capa_1" xmlns="http://www.w3.org/2000/svg" xmlns:xlink="http://www.w3.org/1999/xlink" x="0px" y="0px"
	 viewBox="0 0 595.3 841.9" enable-background="new 0 0 595.3 841.9" xml:space="preserve">
<g id="guia" display="none">
</g>
<g id="guia2">
</g>
<g id="Capa_3">
	<g id="guia_1_">
	</g>
	<g>
		<path fill="#FFFFFF" d="M493.6,239.9c0-2.5,0-2.5,0-5v-2.5l0,0l-2.5-2.5l0,0c-2.5-2.5-2.5-2.5-5-2.5l0,0c-2.5,0-2.5,0-5,0l0,0
			c0,0,0,0-2.5,0h-2.5l-210.8,44.6c7.4,7.4,12.4,19.8,12.4,32.2c0,27.3-22.3,47.1-47.1,47.1c-27.3,0-47.1-22.3-47.1-47.1
			c0-5,0-9.9,2.5-14.9l-71.9,17.4c0,0,0,0-2.5,0c0,0-2.5,0-2.5,2.5c0,0-2.5,0-2.5,2.5l-2.5,2.5l-2.5,2.5v2.5v2.5c0,0,0,0,0,2.5
			v181.1v2.5c0,5,19.8,111.6,195.9,111.6c2.5,0,5,0,7.4-2.5c2.5,0,5-2.5,5-2.5l181.1-181.1c2.5-2.5,5-7.4,5-12.4L493.6,239.9
			L493.6,239.9z M280.3,584.6c-124-5-146.3-74.4-148.8-84.3v-99.2c19.8,27.3,64.5,59.5,148.8,42.2V584.6z M461.3,413.5L312.5,562.3
			v-59.5c2.5,0,2.5-2.5,5-2.5l143.9-131.5V413.5z M461.3,331.7c0,0-2.5,0-2.5,2.5L315,468.1v-54.6l148.8-133.9v52.1H461.3z"/>
		<path fill="#FFFFFF" d="M230.7,341.6c19.8,0,37.2-17.4,37.2-37.2c0-19.8-17.4-37.2-37.2-37.2s-37.2,17.4-37.2,37.2
			C193.5,326.7,210.8,341.6,230.7,341.6z M228.2,279.6c7.4,0,14.9,2.5,14.9,7.4c0,5-7.4,7.4-14.9,7.4c-7.4,0-14.9-2.5-14.9-7.4
			C213.3,284.5,220.7,279.6,228.2,279.6z"/>
	</g>
</g>
</svg>
