<?xml version="1.0" encoding="utf-8"?>
<!-- Generator: Adobe Illustrator 18.0.0, SVG Export Plug-In . SVG Version: 6.00 Build 0)  -->
<!DOCTYPE svg PUBLIC "-//W3C//DTD SVG 1.1//EN" "http://www.w3.org/Graphics/SVG/1.1/DTD/svg11.dtd">
<svg version="1.1" id="Capa_1" xmlns="http://www.w3.org/2000/svg" xmlns:xlink="http://www.w3.org/1999/xlink" x="0px" y="0px"
	 viewBox="0 0 595.3 841.9" enable-background="new 0 0 595.3 841.9" xml:space="preserve">
<g id="guia" display="none">
</g>
<g id="guia2">
</g>
<g id="Capa_3">
	<g id="guia_1_">
	</g>
	<g>
		<path fill="#FFFFFF" d="M379.5,279.6C379.5,279.6,379.5,277.1,379.5,279.6v-67c0-14.9-12.4-27.3-27.3-27.3H243.1
			c-14.9,0-27.3,12.4-27.3,24.8v67l0,0c-32.2,42.2-49.6,91.8-49.6,143.9v195.9c0,22.3,17.4,39.7,39.7,39.7h183.5
			c22.3,0,39.7-17.4,39.7-39.7V420.9C429.1,368.9,411.7,319.3,379.5,279.6z M347.2,217.6v54.6H248v-54.6H347.2z M396.9,616.9
			c0,2.5-2.5,5-5,5h-186c-2.5,0-5-2.5-5-5V420.9c0-42.2,12.4-81.9,37.2-116.6h121.5c24.8,34.7,37.2,74.4,37.2,116.6V616.9z"/>
		<path fill="#FFFFFF" d="M354.7,396.1c2.5-5,0-9.9-2.5-14.9c-2.5-5-7.4-7.4-12.4-7.4h-84.3c-5,0-9.9,2.5-12.4,7.4s-5,9.9-2.5,14.9
			l2.5,12.4l-12.4-2.5c-5-2.5-9.9,0-14.9,2.5c-5,2.5-7.4,7.4-7.4,12.4v84.3c0,5,2.5,9.9,7.4,12.4c5,2.5,9.9,5,14.9,2.5h12.4l-5,12.4
			c-2.5,5,0,9.9,2.5,14.9c2.5,5,7.4,7.4,12.4,7.4h84.3c5,0,9.9-2.5,12.4-7.4c2.5-5,5-9.9,2.5-14.9l-2.5-12.4l12.4,5
			c5,2.5,9.9,0,14.9-2.5c5-2.5,7.4-7.4,7.4-12.4v-84.3c0-5-2.5-9.9-7.4-12.4s-9.9-5-14.9-2.5l-12.4,2.5L354.7,396.1z M359.6,435.8
			v57l-29.8-7.4c-2.5,0-7.4,0-9.9,2.5c-2.5,2.5-2.5,5-2.5,9.9l7.4,29.8h-57l7.4-29.8c0-2.5,0-7.4-2.5-9.9c-2.5-2.5-5-2.5-9.9-2.5
			l-29.8,7.4v-57l29.8,7.4c2.5,0,7.4,0,9.9-2.5c2.5-2.5,2.5-5,2.5-9.9l-7.4-29.8h57l-7.4,29.8c0,2.5,0,7.4,2.5,9.9
			c2.5,2.5,5,2.5,9.9,2.5L359.6,435.8z"/>
	</g>
</g>
</svg>
