<?xml version="1.0" encoding="utf-8"?>
<!-- Generator: Adobe Illustrator 18.0.0, SVG Export Plug-In . SVG Version: 6.00 Build 0)  -->
<!DOCTYPE svg PUBLIC "-//W3C//DTD SVG 1.1//EN" "http://www.w3.org/Graphics/SVG/1.1/DTD/svg11.dtd">
<svg version="1.1" id="Capa_1" xmlns="http://www.w3.org/2000/svg" xmlns:xlink="http://www.w3.org/1999/xlink" x="0px" y="0px"
	 viewBox="0 0 595.3 841.9" enable-background="new 0 0 595.3 841.9" xml:space="preserve">
<g id="guia" display="none">
</g>
<g id="guia2">
</g>
<g id="Capa_3">
	<g id="guia_1_">
	</g>
	<g>
		<path fill="#FFFFFF" d="M357.2,205.2c0-9.9-9.9-19.8-19.8-19.8H258c-9.9,0-19.8,9.9-19.8,19.8V225h119.1V205.2z"/>
		<path fill="#FFFFFF" d="M416.7,378.8v-2.5c0-2.5-14.9-47.1-44.6-96.7c5-2.5,7.4-9.9,7.4-14.9c0-9.9-9.9-19.8-19.8-19.8H238.1
			c-9.9,0-19.8,9.9-19.8,19.8c0,5,2.5,9.9,7.4,14.9c-29.8,49.6-44.6,94.3-44.6,96.7v2.5v22.3c0,7.4,2.5,14.9,5,19.8
			c-2.5,5-5,12.4-5,19.8v19.8c0,7.4,2.5,14.9,5,19.8c-2.5,5-5,12.4-5,19.8v19.8c0,7.4,2.5,14.9,5,19.8c-2.5,5-5,12.4-5,19.8v19.8
			c0,32.2,19.8,79.4,79.4,79.4h37.2h7.4h37.2c57,0,79.4-47.1,79.4-79.4v-19.8c0-7.4-2.5-14.9-5-19.8c2.5-5,5-12.4,5-19.8v-19.8
			c0-7.4-2.5-14.9-5-19.8c2.5-5,5-12.4,5-19.8v-19.8c0-7.4-2.5-14.9-5-19.8c2.5-5,5-12.4,5-19.8v-22.3H416.7z M377,577.2
			c0,7.4-2.5,39.7-39.7,39.7h-37.2h-7.4h-37.2c-34.7,0-39.7-29.8-39.7-39.7v-19.8h156.3C377,557.4,377,577.2,377,577.2z M377,520.2
			H218.3v-19.8h156.3v19.8H377z M377,460.6H218.3v-19.8h156.3v19.8H377z M377,401.1H218.3v-17.4c5-12.4,22.3-57,49.6-101.7h57
			c29.8,44.6,47.1,89.3,49.6,101.7L377,401.1L377,401.1z"/>
	</g>
</g>
</svg>
