<?xml version="1.0" encoding="utf-8"?>
<!-- Generator: Adobe Illustrator 18.0.0, SVG Export Plug-In . SVG Version: 6.00 Build 0)  -->
<!DOCTYPE svg PUBLIC "-//W3C//DTD SVG 1.1//EN" "http://www.w3.org/Graphics/SVG/1.1/DTD/svg11.dtd">
<svg version="1.1" id="Capa_1" xmlns="http://www.w3.org/2000/svg" xmlns:xlink="http://www.w3.org/1999/xlink" x="0px" y="0px"
	 viewBox="0 0 595.3 841.9" enable-background="new 0 0 595.3 841.9" xml:space="preserve">
<g id="guia" display="none">
</g>
<g id="guia2">
</g>
<g id="Capa_3">
	<g>
		<path fill="#FFFFFF" d="M320,292h34.7l-24.8-24.8C324.9,272.1,322.4,282,320,292z"/>
		<path fill="#FFFFFF" d="M362.1,249.8c-9.9,0-17.4,5-24.8,9.9l24.8,24.8V249.8z"/>
		<path fill="#FFFFFF" d="M369.6,284.5l24.8-24.8c-7.4-5-14.9-9.9-24.8-9.9V284.5z"/>
		<path fill="#FFFFFF" d="M399.3,267.2L374.5,292h34.7C409.3,282,404.3,272.1,399.3,267.2z"/>
		<path fill="#FFFFFF" d="M178.6,480.5c0,2.5,0,5,0,7.4v34.7h101.7v-34.7c0-2.5,0-5,0-7.4l19.8-94.3H161.2L178.6,480.5z"/>
		<path fill="#FFFFFF" d="M498.5,247.3C498.5,244.8,498.5,244.8,498.5,247.3C498.5,244.8,498.5,244.8,498.5,247.3c0-2.5,0-5-2.5-5
			l0,0c0-2.5-2.5-2.5-2.5-2.5l0,0c0,0-14.9-5-32.2-5c-14.9,0-29.8,2.5-39.7,9.9c-14.9-14.9-32.2-22.3-54.6-22.3
			c-39.7,0-69.4,29.8-74.4,67H310c5-27.3,27.3-49.6,57-49.6c32.2,0,59.5,27.3,59.5,59.5c0,5,0,9.9-2.5,14.9
			c-7.4-5-14.9-7.4-24.8-7.4c-14.9,0-27.3,7.4-34.7,14.9c0-2.5-2.5-5-2.5-7.4c-2.5-5-7.4-5-12.4-5H114.1c-5-5-9.9-2.5-14.9,0
			c-2.5,5-2.5,9.9-2.5,14.9L129,490.4V607c0,9.9,7.4,17.4,17.4,17.4H315c9.9,0,17.4-7.4,17.4-17.4V490.4l22.3-114.1
			c2.5,5,7.4,12.4,14.9,17.4c14.9,12.4,37.2,19.8,59.5,19.8c17.4,0,29.8-2.5,29.8-2.5l0,0c0,0,2.5,0,2.5-2.5c0,0,0,0,2.5-2.5l0,0
			v-2.5l0,0c0-2.5,2.5-44.6-22.3-74.4c7.4-2.5,12.4-5,19.8-7.4C496.1,294.4,498.5,247.3,498.5,247.3z M163.7,589.6v-32.2h133.9v32.2
			H163.7z M297.6,485.4v2.5V540H163.7v-52.1v-2.5l-29.8-148.8h193.5L297.6,485.4z M456.4,249.8c-7.4,5-14.9,9.9-22.3,14.9
			c-2.5-2.5-2.5-5-5-7.4C439,252.3,446.5,249.8,456.4,249.8z M429.1,396.1c-14.9,0-34.7-2.5-49.6-14.9
			c-17.4-14.9-14.9-29.8-12.4-39.7C379.5,354,406.8,378.8,429.1,396.1L429.1,396.1z M377,326.7c5-2.5,12.4-7.4,19.8-7.4
			c7.4,0,14.9,2.5,22.3,9.9c19.8,17.4,24.8,42.2,27.3,57C421.7,371.3,391.9,341.6,377,326.7z M439,311.8c0-5,2.5-9.9,2.5-14.9
			s0-7.4,0-12.4c12.4-9.9,24.8-19.8,39.7-24.8c-2.5,12.4-9.9,32.2-29.8,44.6C446.5,309.3,444,309.3,439,311.8z"/>
	</g>
</g>
</svg>
