<?xml version="1.0" encoding="utf-8"?>
<!-- Generator: Adobe Illustrator 18.0.0, SVG Export Plug-In . SVG Version: 6.00 Build 0)  -->
<!DOCTYPE svg PUBLIC "-//W3C//DTD SVG 1.1//EN" "http://www.w3.org/Graphics/SVG/1.1/DTD/svg11.dtd">
<svg version="1.1" id="Capa_1" xmlns="http://www.w3.org/2000/svg" xmlns:xlink="http://www.w3.org/1999/xlink" x="0px" y="0px"
	 viewBox="0 0 595.3 841.9" enable-background="new 0 0 595.3 841.9" xml:space="preserve">
<g id="guia" display="none">
</g>
<g id="guia2">
</g>
<g id="Capa_3">
	<g id="guia_1_">
	</g>
	<g>
		<path fill="#FFFFFF" d="M404.3,341.6c2.5-9.9,5-19.8,5-29.8c0-29.8-12.4-57-32.2-79.4c-19.8-19.8-49.6-32.2-79.4-32.2
			c-29.8,0-57,14.9-76.9,34.7c-22.3,22.3-34.7,49.6-34.7,79.4c0,12.4,2.5,24.8,7.4,37.2c-12.4,7.4-19.8,22.3-19.8,37.2
			c0,24.8,19.8,44.6,44.6,44.6c9.9,0,17.4-2.5,24.8-7.4c9.9,12.4,24.8,22.3,42.2,22.3c9.9,0,19.8-2.5,29.8-9.9
			c7.4-5,12.4-12.4,17.4-19.8h2.5c9.9,9.9,22.3,14.9,37.2,14.9c29.8,0,52.1-22.3,52.1-52.1C421.7,366.4,414.2,351.5,404.3,341.6z
			 M369.6,413.5c-9.9,0-19.8-5-24.8-12.4c-2.5-2.5-7.4-5-12.4-2.5c-2.5,2.5-7.4,2.5-9.9,2.5c-2.5,0-5,2.5-7.4,5
			c-5,12.4-17.4,19.8-29.8,19.8c-12.4,0-24.8-7.4-29.8-22.3c0-2.5-5-5-7.4-7.4c0,0,0,0-2.5,0s-5,2.5-7.4,5c-5,5-12.4,9.9-19.8,9.9
			c-12.4,0-24.8-9.9-24.8-24.8c0-9.9,7.4-19.8,17.4-22.3c2.5,0,5-2.5,5-5c0-2.5,0-5,0-7.4c-5-12.4-7.4-24.8-7.4-39.7
			c0-24.8,9.9-47.1,27.3-64.5c14.9-14.9,37.2-24.8,62-24.8c24.8,0,47.1,9.9,64.5,27.3s27.3,39.7,27.3,64.5c0,9.9-2.5,19.8-5,29.8
			c-2.5,5,0,9.9,5,12.4c9.9,5,14.9,14.9,14.9,27.3C401.8,398.6,386.9,413.5,369.6,413.5z"/>
		<path fill="#FFFFFF" d="M354.7,438.3l-5,17.4l0,0l-5,14.9l-2.5,9.9l0,0l-2.5,5l0,0l-7.4,19.8l-2.5,7.4L297.6,602l-57-166.2
			c-5,2.5-9.9,5-14.9,5l67,191c2.5,5,5,7.4,7.4,7.4s5-2.5,7.4-7.4l67-191h-2.5C364.6,438.3,359.6,438.3,354.7,438.3z"/>
		<circle fill="#FFFFFF" cx="349.7" cy="264.7" r="7.4"/>
		<circle fill="#FFFFFF" cx="332.4" cy="287" r="9.9"/>
		<circle fill="#FFFFFF" cx="362.1" cy="296.9" r="14.9"/>
	</g>
	
		<rect x="235.1" y="463.6" transform="matrix(0.959 0.2833 -0.2833 0.959 145.4754 -63.8222)" fill="#FFFFFF" width="116.6" height="14.9"/>
	
		<rect x="306.2" y="433" transform="matrix(0.959 0.2834 -0.2834 0.959 138.4862 -76.4456)" fill="#FFFFFF" width="54.6" height="14.9"/>
	
		<rect x="248.7" y="500.6" transform="matrix(0.9591 0.2832 -0.2832 0.9591 155.8813 -62.2668)" fill="#FFFFFF" width="89.3" height="14.9"/>
	
		<rect x="266.4" y="542.4" transform="matrix(0.9589 0.2836 -0.2836 0.9589 168.0378 -61.0542)" fill="#FFFFFF" width="57" height="14.9"/>
</g>
</svg>
