<?xml version="1.0" encoding="utf-8"?>
<!-- Generator: Adobe Illustrator 18.0.0, SVG Export Plug-In . SVG Version: 6.00 Build 0)  -->
<!DOCTYPE svg PUBLIC "-//W3C//DTD SVG 1.1//EN" "http://www.w3.org/Graphics/SVG/1.1/DTD/svg11.dtd">
<svg version="1.1" id="Capa_1" xmlns="http://www.w3.org/2000/svg" xmlns:xlink="http://www.w3.org/1999/xlink" x="0px" y="0px"
	 viewBox="0 0 595.3 841.9" enable-background="new 0 0 595.3 841.9" xml:space="preserve">
<g id="guia" display="none">
</g>
<g id="guia2">
</g>
<g id="Capa_3">
	<g id="guia_1_">
	</g>
	<path fill="#FFFFFF" d="M458.9,381.3c-12.4-12.4-24.8-19.8-39.7-27.3c9.9-29.8,7.4-57-9.9-71.9c-9.9-9.9-22.3-14.9-39.7-14.9
		c-27.3,0-64.5,14.9-99.2,39.7c-2.5-5-5-9.9-5-14.9c-7.4-24.8-17.4-37.2-24.8-44.6c-5-5-14.9-12.4-17.4-14.9
		c-9.9-5-22.3-9.9-37.2-9.9c-22.3,0-44.6,9.9-59.5,24.8c-27.3,29.8-34.7,69.4-17.4,99.2c2.5,2.5,9.9,12.4,14.9,17.4
		c7.4,7.4,19.8,17.4,47.1,22.3c7.4,2.5,12.4,2.5,14.9,5c-42.2,59.5-52.1,114.1-27.3,141.4c9.9,9.9,22.3,14.9,39.7,14.9
		c9.9,0,19.8-2.5,32.2-5c5,14.9,14.9,29.8,27.3,39.7c22.3,22.3,54.6,37.2,89.3,37.2c37.2,0,76.9-17.4,104.2-44.6
		C506,517.7,510.9,430.9,458.9,381.3z M198.4,517.7c-7.4,0-14.9-2.5-19.8-5c-14.9-14.9-2.5-54.6,24.8-96.7c0,2.5,2.5,5,2.5,5
		c2.5,7.4,5,17.4,12.4,22.3c0,0,7.4,7.4,12.4,7.4c2.5,2.5,7.4,2.5,12.4,2.5c17.4,0,39.7-12.4,59.5-29.8c22.3-22.3,34.7-49.6,29.8-67
		c-2.5-2.5-5-9.9-9.9-12.4c-7.4-7.4-14.9-9.9-24.8-12.4c-2.5,0-5-2.5-7.4-2.5c32.2-19.8,59.5-32.2,79.4-32.2c7.4,0,14.9,2.5,19.8,5
		c17.4,17.4,2.5,76.9-64.5,143.9C270.4,500.3,223.2,517.7,198.4,517.7z M186,252.3c7.4,0,14.9,2.5,22.3,5c2.5,2.5,9.9,7.4,12.4,9.9
		c2.5,5,9.9,12.4,14.9,32.2c12.4,44.6,39.7,54.6,54.6,59.5c2.5,0,9.9,2.5,9.9,5l2.5,2.5c2.5,5-5,22.3-22.3,39.7
		c-14.9,14.9-32.2,22.3-37.2,22.3l0,0c-2.5,0-2.5-2.5-5-2.5c-2.5,0-2.5-7.4-5-9.9c-5-19.8-12.4-47.1-57-57
		c-19.8-5-29.8-12.4-32.2-14.9s-7.4-9.9-9.9-12.4c-9.9-19.8-5-44.6,12.4-62C158.7,259.7,171.1,252.3,186,252.3z M391.9,411
		c7.4,2.5,14.9,7.4,19.8,14.9c12.4,12.4,19.8,32.2,19.8,52.1c0,19.8-9.9,39.7-24.8,54.6s-37.2,24.8-57,24.8
		c-19.8,0-37.2-7.4-49.6-19.8c-5-5-9.9-12.4-14.9-19.8c19.8-12.4,39.7-27.3,57-47.1C364.6,448.2,379.5,430.9,391.9,411z
		 M262.9,530.1c5,9.9,9.9,19.8,19.8,27.3c17.4,17.4,42.2,29.8,69.4,29.8c29.8,0,57-12.4,76.9-32.2c42.2-42.2,44.6-109.1,5-148.8
		c-7.4-7.4-17.4-14.9-27.3-17.4c0-2.5,2.5-2.5,2.5-5c12.4,5,22.3,12.4,29.8,19.8c19.8,19.8,29.8,44.6,27.3,74.4
		c-2.5,29.8-14.9,57-34.7,79.4c-22.3,22.3-54.6,34.7-84.3,34.7c-27.3,0-49.6-9.9-69.4-27.3c-7.4-9.9-14.9-19.8-19.8-29.8
		C260.4,530.1,260.4,530.1,262.9,530.1z"/>
</g>
</svg>
