<?xml version="1.0" encoding="utf-8"?>
<!-- Generator: Adobe Illustrator 18.0.0, SVG Export Plug-In . SVG Version: 6.00 Build 0)  -->
<!DOCTYPE svg PUBLIC "-//W3C//DTD SVG 1.1//EN" "http://www.w3.org/Graphics/SVG/1.1/DTD/svg11.dtd">
<svg version="1.1" id="Capa_1" xmlns="http://www.w3.org/2000/svg" xmlns:xlink="http://www.w3.org/1999/xlink" x="0px" y="0px"
	 viewBox="0 0 595.3 841.9" enable-background="new 0 0 595.3 841.9" xml:space="preserve">
<g id="guia" display="none">
</g>
<g id="guia2">
</g>
<g id="Capa_3">
	<g id="guia_1_">
	</g>
	<g>
		<path fill="#FFFFFF" d="M382,331.7v-34.7h-9.9c-2.5-22.3-17.4-44.6-37.2-54.6v-19.8c0-9.9-5-19.8-9.9-27.3
			c-7.4-7.4-17.4-9.9-27.3-9.9c-19.8,0-37.2,17.4-37.2,37.2v17.4c-19.8,12.4-34.7,34.7-39.7,57h-7.4v34.7
			c-29.8,12.4-49.6,42.2-49.6,74.4v168.7c0,44.6,37.2,81.9,81.9,81.9h104.2c44.6,0,81.9-37.2,81.9-81.9V406.1
			C431.6,373.8,411.7,344.1,382,331.7z M349.7,621.9H245.6c-24.8,0-47.1-19.8-47.1-47.1V406.1c0-24.8,19.8-47.1,47.1-47.1h104.2
			c24.8,0,47.1,19.8,47.1,47.1v168.7C396.9,599.5,374.5,621.9,349.7,621.9z M295.2,264.7v-42.2c0-2.5,2.5-5,5-2.5v2.5v42.2l12.4,5
			c12.4,5,22.3,14.9,24.8,27.3H258c2.5-12.4,12.4-22.3,24.8-27.3L295.2,264.7z"/>
		<path fill="#FFFFFF" d="M315,559.8h-34.7c-7.4,0-14.9,7.4-14.9,14.9s5,14.9,14.9,14.9H315c7.4,0,14.9-7.4,14.9-14.9
			S322.4,559.8,315,559.8z"/>
		<path fill="#FFFFFF" d="M280.3,547.4H315c7.4,0,14.9-5,14.9-14.9c0-7.4-7.4-14.9-14.9-14.9h-34.7c-7.4,0-14.9,7.4-14.9,14.9
			C267.9,540,272.8,547.4,280.3,547.4z"/>
		<path fill="#FFFFFF" d="M280.3,505.3H315c7.4,0,14.9-7.4,14.9-14.9c0-7.4-7.4-14.9-14.9-14.9h-34.7c-7.4,0-14.9,5-14.9,14.9
			C265.4,500.3,272.8,505.3,280.3,505.3z"/>
		<path fill="#FFFFFF" d="M280.3,465.6H315c7.4,0,14.9-7.4,14.9-14.9s-7.4-14.9-14.9-14.9h-34.7c-7.4,0-14.9,5-14.9,14.9
			S272.8,465.6,280.3,465.6z"/>
		<path fill="#FFFFFF" d="M315,396.1h-34.7c-7.4,0-14.9,7.4-14.9,14.9s5,14.9,14.9,14.9H315c7.4,0,14.9-5,14.9-14.9
			C327.4,401.1,322.4,396.1,315,396.1z"/>
	</g>
</g>
</svg>
