<?xml version="1.0" encoding="utf-8"?>
<!-- Generator: Adobe Illustrator 18.0.0, SVG Export Plug-In . SVG Version: 6.00 Build 0)  -->
<!DOCTYPE svg PUBLIC "-//W3C//DTD SVG 1.1//EN" "http://www.w3.org/Graphics/SVG/1.1/DTD/svg11.dtd">
<svg version="1.1" id="Capa_1" xmlns="http://www.w3.org/2000/svg" xmlns:xlink="http://www.w3.org/1999/xlink" x="0px" y="0px"
	 viewBox="0 0 595.3 841.9" enable-background="new 0 0 595.3 841.9" xml:space="preserve">
<g id="guia" display="none">
</g>
<g id="guia2">
</g>
<g id="Capa_3">
	<g id="guia_1_">
	</g>
	<path fill="#FFFFFF" d="M510.9,492.9l-74.4-71.9c-14.9-14.9-37.2-14.9-42.2-14.9c-2.5,0-2.5,0-5,0h-59.5l-44.6-44.6
		c32.2-2.5,59.5-27.3,62-62c0-17.4-5-34.7-17.4-47.1c-12.4-12.4-27.3-19.8-44.6-22.3c-34.7-2.5-67,24.8-67,62l0,0l-79.4-76.9
		c-5-5-19.8-22.3-37.2-22.3c-7.4,0-17.4,5-22.3,9.9c-5,5-7.4,12.4-7.4,22.3c0,17.4,17.4,32.2,22.3,37.2l42.2,42.2
		c-37.2,67-24.8,153.8,29.8,208.3c5,5,12.4,12.4,19.8,17.4c-22.3,9.9-37.2,32.2-37.2,57c0,34.7,27.3,62,62,62s62-27.3,62-62
		c0-7.4-2.5-14.9-5-22.3c7.4,0,14.9,2.5,22.3,2.5c5,0,9.9,0,17.4,0c-2.5,7.4-5,14.9-5,22.3c0,34.7,27.3,62,62,62
		c34.7,0,62-27.3,62-62c0-22.3-12.4-44.6-32.2-54.6c2.5,0,2.5-2.5,5-5s5-7.4,7.4-9.9l39.7,39.7c7.4,7.4,19.8,12.4,29.8,12.4
		c14.9,0,29.8-7.4,37.2-19.8C528.3,525.1,525.8,505.3,510.9,492.9z M280.3,269.6L280.3,269.6c7.4,0,14.9,2.5,19.8,7.4
		s7.4,12.4,7.4,17.4c0,12.4-12.4,24.8-24.8,24.8h-2.5c-7.4,0-12.4-2.5-17.4-7.4c-5-5-7.4-12.4-7.4-17.4
		C255.5,279.6,267.9,269.6,280.3,269.6z M213.3,609.5c-12.4,0-22.3-9.9-22.3-22.3s9.9-22.3,22.3-22.3c12.4,0,22.3,9.9,22.3,22.3
		S225.7,609.5,213.3,609.5z M295.2,525.1c-37.2,0-71.9-14.9-99.2-39.7c-47.1-47.1-54.6-119.1-19.8-173.6v-2.5l193.5,193.5
		C347.2,517.7,322.4,525.1,295.2,525.1z M369.6,609.5c-12.4,0-22.3-9.9-22.3-22.3s9.9-22.3,22.3-22.3c12.4,0,22.3,9.9,22.3,22.3
		C391.9,599.5,382,609.5,369.6,609.5z M483.7,527.6c-2.5,0-5,0-5,0l-69.4-69.4l-14.9-14.9c5,0,9.9,2.5,14.9,5l74.4,71.9
		C483.7,520.2,486.1,522.6,483.7,527.6z"/>
</g>
</svg>
