<?xml version="1.0" encoding="utf-8"?>
<!-- Generator: Adobe Illustrator 18.0.0, SVG Export Plug-In . SVG Version: 6.00 Build 0)  -->
<!DOCTYPE svg PUBLIC "-//W3C//DTD SVG 1.1//EN" "http://www.w3.org/Graphics/SVG/1.1/DTD/svg11.dtd">
<svg version="1.1" id="Capa_1" xmlns="http://www.w3.org/2000/svg" xmlns:xlink="http://www.w3.org/1999/xlink" x="0px" y="0px"
	 viewBox="0 0 595.3 841.9" enable-background="new 0 0 595.3 841.9" xml:space="preserve">
<g id="guia" display="none">
</g>
<g id="guia2">
</g>
<g id="Capa_3">
	<g id="guia_1_">
	</g>
	<path fill="#FFFFFF" d="M540.7,406.1c0-22.3-12.4-42.2-32.2-54.6c-7.4-22.3-27.3-39.7-52.1-39.7c-5,0-7.4,0-12.4,0
		c-12.4-14.9-32.2-22.3-49.6-22.3c-14.9,0-27.3,5-39.7,12.4l-29.8-67l-94.3,210.8l-54.6-121.5L52.1,602h434.1l-59.5-136.4h52.1
		C513.4,468.1,540.7,438.3,540.7,406.1z M176.1,443.3l-12.4-17.4l12.4-29.8l12.4,27.3L176.1,443.3z M151.3,455.7l27.3,37.2
		l27.3-37.2l14.9,29.8l-39.7,86.8H99.2L151.3,455.7z M327.4,351.5c-5,2.5-7.4,7.4-12.4,9.9l-7.4-9.9l17.4-39.7l7.4,17.4
		C332.4,336.6,329.9,344.1,327.4,351.5z M396.9,321.7c12.4,0,24.8,7.4,34.7,17.4l7.4,9.9l7.4-5c2.5-2.5,7.4-2.5,9.9-2.5
		c12.4,0,22.3,9.9,24.8,22.3v7.4l7.4,2.5c12.4,5,19.8,17.4,19.8,29.8c0,17.4-14.9,32.2-32.2,32.2H357.2c-17.4,0-34.7-14.9-34.7-34.7
		c0-12.4,7.4-24.8,19.8-29.8l7.4-5v-9.9C357.2,339.1,374.5,321.7,396.9,321.7z M362.1,468.1h34.7L444,574.7H210.8l84.3-191l5,7.4
		c0,5-2.5,7.4-2.5,12.4C300.1,438.3,327.4,468.1,362.1,468.1z"/>
</g>
</svg>
