<?xml version="1.0" encoding="utf-8"?>
<!-- Generator: Adobe Illustrator 18.0.0, SVG Export Plug-In . SVG Version: 6.00 Build 0)  -->
<!DOCTYPE svg PUBLIC "-//W3C//DTD SVG 1.1//EN" "http://www.w3.org/Graphics/SVG/1.1/DTD/svg11.dtd">
<svg version="1.1" id="Capa_1" xmlns="http://www.w3.org/2000/svg" xmlns:xlink="http://www.w3.org/1999/xlink" x="0px" y="0px"
	 viewBox="0 0 595.3 841.9" enable-background="new 0 0 595.3 841.9" xml:space="preserve">
<g id="guia" display="none">
</g>
<g id="guia2">
</g>
<g id="Capa_3">
	<g id="guia_1_">
	</g>
	<g>
		<path fill="#FFFFFF" d="M481.2,227.5H114.1c-27.3,0-47.1,19.8-47.1,47.1v116.6c0,27.3,22.3,47.1,47.1,47.1h52.1v161.2
			c0,7.4,7.4,14.9,14.9,14.9h233.2c7.4,0,14.9-7.4,14.9-14.9V438.3h52.1c27.3,0,47.1-22.3,47.1-47.1V274.6
			C528.3,247.3,508.5,227.5,481.2,227.5z M195.9,587.1v-17.4c5,2.5,12.4,7.4,14.9,17.4H195.9z M399.3,587.1h-14.9
			c5-9.9,9.9-14.9,14.9-17.4V587.1z M399.3,537.5c-12.4,2.5-37.2,14.9-47.1,47.1H243.1c-9.9-32.2-34.7-44.6-47.1-47.1V306.8h205.9
			v230.7H399.3z M501,391.2c0,9.9-7.4,19.8-19.8,19.8h-52.1V306.8h19.8c0,0,2.5,0,2.5,2.5v49.6c0,2.5,0,2.5-2.5,2.5
			c-7.4,0-14.9,7.4-14.9,14.9c0,7.4,7.4,14.9,14.9,14.9c17.4,0,32.2-14.9,32.2-32.2v-49.6c0-17.4-14.9-32.2-32.2-32.2H146.3
			c-17.4,0-32.2,14.9-32.2,32.2v49.6c0,17.4,14.9,32.2,32.2,32.2c7.4,0,14.9-7.4,14.9-14.9c0-7.4-7.4-14.9-14.9-14.9
			c0,0-2.5,0-2.5-2.5v-49.6c0-2.5,0-2.5,2.5-2.5h19.8V411h-52.1c-9.9,0-19.8-7.4-19.8-19.8V274.6c0-9.9,7.4-19.8,19.8-19.8h367.1
			c9.9,0,19.8,7.4,19.8,19.8L501,391.2L501,391.2z"/>
		<path fill="#FFFFFF" d="M297.6,497.8c54.6,0,99.2-39.7,99.2-89.3s-44.6-89.3-99.2-89.3s-99.2,39.7-99.2,89.3
			S243.1,497.8,297.6,497.8z M297.6,346.5c37.2,0,69.4,27.3,69.4,62s-29.8,59.5-69.4,59.5s-69.4-27.3-69.4-59.5
			C228.2,373.8,260.4,346.5,297.6,346.5z"/>
		<path fill="#FFFFFF" d="M305.1,411c0-7.4,5-9.9,12.4-9.9s12.4,5,12.4,12.4c0,5-2.5,7.4-5,9.9c-7.4,2.5-9.9,12.4-7.4,19.8
			c2.5,5,7.4,7.4,12.4,7.4c2.5,0,5,0,5-2.5c14.9-7.4,22.3-19.8,22.3-34.7c0-22.3-17.4-42.2-42.2-42.2c-22.3,0-42.2,17.4-42.2,39.7
			l0,0h-5v-27.3c0-7.4-7.4-14.9-14.9-14.9s-14.9,7.4-14.9,14.9v57h62L305.1,411z"/>
	</g>
</g>
</svg>
