<?xml version="1.0" encoding="utf-8"?>
<!-- Generator: Adobe Illustrator 18.0.0, SVG Export Plug-In . SVG Version: 6.00 Build 0)  -->
<!DOCTYPE svg PUBLIC "-//W3C//DTD SVG 1.1//EN" "http://www.w3.org/Graphics/SVG/1.1/DTD/svg11.dtd">
<svg version="1.1" id="Capa_1" xmlns="http://www.w3.org/2000/svg" xmlns:xlink="http://www.w3.org/1999/xlink" x="0px" y="0px"
	 viewBox="0 0 595.3 841.9" enable-background="new 0 0 595.3 841.9" xml:space="preserve">
<g id="guia" display="none">
</g>
<g id="guia2">
</g>
<g id="Capa_3">
	<g id="guia_1_">
	</g>
	<g>
		<path fill="#FFFFFF" d="M468.8,264.7h-96.7c0,0-5-2.5-5-5l-9.9-24.8c-5-12.4-19.8-22.3-34.7-22.3h-54.6
			c-14.9,0-29.8,9.9-34.7,22.3l-9.9,24.8c-2.5,2.5-7.4,2.5-7.4,5h-89.3c-24.8,0-44.6,19.8-44.6,44.6v248c0,24.8,19.8,44.6,44.6,44.6
			h339.8c24.8,0,44.6-19.8,44.6-44.6v-248C513.4,284.5,493.6,264.7,468.8,264.7z M468.8,572.2H126.5c-9.9,0-17.4-7.4-17.4-17.4
			V383.7h374.5v171.1C486.1,564.8,476.2,572.2,468.8,572.2z M258,242.4c0-2.5,5-5,7.4-5H320c2.5,0,7.4,2.5,7.4,5l9.9,19.8H248
			L258,242.4z M126.5,292h339.8c9.9,0,17.4,7.4,17.4,17.4v47.1H109.1v-47.1C109.1,299.4,119.1,292,126.5,292z"/>
		<path fill="#FFFFFF" d="M195.9,604.5h-44.6c-7.4,0-14.9,7.4-14.9,14.9c0,7.4,7.4,14.9,14.9,14.9h47.1c7.4,0,14.9-7.4,14.9-14.9
			C210.8,609.5,205.9,604.5,195.9,604.5z"/>
		<path fill="#FFFFFF" d="M444,604.5h-47.1c-7.4,0-14.9,7.4-14.9,14.9c0,7.4,7.4,14.9,14.9,14.9H444c7.4,0,14.9-7.4,14.9-14.9
			C458.9,609.5,451.4,604.5,444,604.5z"/>
		<path fill="#FFFFFF" d="M195.9,386.2c-7.4,0-14.9,7.4-14.9,14.9v153.8c0,7.4,7.4,14.9,14.9,14.9s14.9-7.4,14.9-14.9V401.1
			C210.8,393.7,205.9,386.2,195.9,386.2z"/>
		<path fill="#FFFFFF" d="M399.3,386.2c-7.4,0-14.9,7.4-14.9,14.9v153.8c0,7.4,7.4,14.9,14.9,14.9c7.4,0,14.9-7.4,14.9-14.9V401.1
			C411.7,393.7,406.8,386.2,399.3,386.2z"/>
	</g>
</g>
</svg>
