<?xml version="1.0" encoding="utf-8"?>
<!-- Generator: Adobe Illustrator 18.0.0, SVG Export Plug-In . SVG Version: 6.00 Build 0)  -->
<!DOCTYPE svg PUBLIC "-//W3C//DTD SVG 1.1//EN" "http://www.w3.org/Graphics/SVG/1.1/DTD/svg11.dtd">
<svg version="1.1" id="Capa_1" xmlns="http://www.w3.org/2000/svg" xmlns:xlink="http://www.w3.org/1999/xlink" x="0px" y="0px"
	 viewBox="0 0 595.3 841.9" enable-background="new 0 0 595.3 841.9" xml:space="preserve">
<g id="guia" display="none">
</g>
<g id="guia2">
</g>
<g id="Capa_3">
	<g id="Capa_3_1_">
		<g>
			<path fill="#FFFFFF" d="M411.7,244.8c7.4,0,7.4-2.5,9.9-5c0,0,0-5-5-7.4c-2.5,0-2.5-2.5-5-2.5c-5,0-9.9,2.5-12.4,2.5
				C401.8,239.9,406.8,247.3,411.7,244.8z"/>
			<circle fill="#FFFFFF" cx="424.1" cy="264.7" r="7.4"/>
			<path fill="#FFFFFF" d="M436.5,277.1c-7.4,0-22.3,9.9-22.3,19.8c0,7.4,9.9,14.9,22.3,14.9c12.4,0,22.3-7.4,22.3-14.9
				C458.9,289.5,444,277.1,436.5,277.1z M431.6,301.9c-2.5,0-5-2.5-5-5c0-2.5,2.5-5,5-5s5,2.5,5,5
				C436.5,299.4,434.1,301.9,431.6,301.9z M444,301.9c-2.5,0-5-2.5-5-5c0-2.5,2.5-5,5-5c2.5,0,5,2.5,5,5
				C448.9,299.4,446.5,301.9,444,301.9z"/>
			<circle fill="#FFFFFF" cx="448.9" cy="264.7" r="7.4"/>
			<path fill="#FFFFFF" d="M458.9,234.9c-5,5-5,7.4-5,7.4s2.5,2.5,9.9,5c5,0,9.9-5,14.9-9.9c-2.5-2.5-7.4-2.5-12.4-2.5
				C463.8,232.4,461.3,232.4,458.9,234.9z"/>
			<path fill="#FFFFFF" d="M436.5,195.2c-42.2,0-76.9,34.7-76.9,76.9s34.7,76.9,76.9,76.9s76.9-34.7,76.9-76.9
				S478.7,195.2,436.5,195.2z M488.6,234.9c0,2.5-5,7.4-9.9,14.9c5,7.4,9.9,17.4,9.9,27.3c0,27.3-22.3,49.6-47.1,49.6
				c-27.3,0-49.6-22.3-49.6-49.6c0-9.9,2.5-19.8,9.9-27.3c-5-5-9.9-12.4-9.9-14.9s0-5,2.5-5c0,0,9.9-5,19.8-5c5,0,9.9,2.5,12.4,5
				l2.5,2.5c5-2.5,9.9-2.5,14.9-2.5s9.9,0,14.9,2.5c0,0,0-2.5,2.5-2.5c2.5-2.5,7.4-5,12.4-5c9.9,0,19.8,5,19.8,5
				C488.6,230,488.6,232.4,488.6,234.9z"/>
		</g>
		<g>
			<path fill="#FFFFFF" d="M272.8,490.4c153.8,0,176.1,0,176.1-44.6c0-57-71.9-116.6-176.1-116.6c-106.7,0-176.1,59.5-176.1,116.6
				C96.7,490.4,121.5,490.4,272.8,490.4z M272.8,361.4c94.3,0,143.9,49.6,143.9,84.3c0,5,0,5,0,5l0,0c-7.4,7.4-62,7.4-143.9,7.4
				s-136.4,0-143.9-7.4c0,0,0-2.5,0-5C129,411,181.1,361.4,272.8,361.4z"/>
			<path fill="#FFFFFF" d="M426.6,495.4h-24.8c-14.9,0-74.4,39.7-74.4,39.7c-2.5,0-2.5,2.5-5,2.5c-2.5,0-5-2.5-9.9-5
				c0,0-54.6-37.2-69.4-37.2H121.5c-22.3,0-39.7,17.4-39.7,39.7c0,12.4,7.4,24.8,17.4,32.2c5,62,32.2,86.8,176.1,86.8
				s171.1-24.8,176.1-86.8c9.9-7.4,17.4-19.8,17.4-32.2C466.3,512.7,448.9,495.4,426.6,495.4z M272.8,624.3
				c-114.1,0-138.9-14.9-143.9-47.1h285.2C411.7,609.5,386.9,624.3,272.8,624.3z"/>
		</g>
	</g>
</g>
</svg>
