<?xml version="1.0" encoding="utf-8"?>
<!-- Generator: Adobe Illustrator 18.0.0, SVG Export Plug-In . SVG Version: 6.00 Build 0)  -->
<!DOCTYPE svg PUBLIC "-//W3C//DTD SVG 1.1//EN" "http://www.w3.org/Graphics/SVG/1.1/DTD/svg11.dtd">
<svg version="1.1" id="Capa_1" xmlns="http://www.w3.org/2000/svg" xmlns:xlink="http://www.w3.org/1999/xlink" x="0px" y="0px"
	 viewBox="0 0 595.3 841.9" enable-background="new 0 0 595.3 841.9" xml:space="preserve">
<g id="guia" display="none">
</g>
<g id="guia2">
</g>
<g id="Capa_3">
	<g id="guia_1_">
	</g>
	<path fill="#FFFFFF" d="M461.3,428.4h24.8c9.9,0,17.4-7.4,17.4-17.4s-7.4-17.4-17.4-17.4h-14.9c-7.4,0-14.9,2.5-19.8,7.4l-7.4,7.4
		l-9.9-34.7c-12.4-37.2-44.6-59.5-81.9-59.5h-34.7v-24.8c5,2.5,12.4,5,17.4,5c24.8,0,42.2-19.8,42.2-42.2s-19.8-42.2-42.2-42.2
		c-14.9,0-27.3,7.4-34.7,19.8c-7.4-12.4-19.8-19.8-34.7-19.8c-24.8,0-42.2,19.8-42.2,42.2s19.8,42.2,42.2,42.2
		c7.4,0,12.4-2.5,17.4-5v24.8h-37.2c-37.2,0-69.4,24.8-81.9,59.5l-9.9,34.7l-7.4-7.4c-7.4-5-12.4-9.9-22.3-9.9h-14.9
		c-9.9,0-17.4,7.4-17.4,17.4s7.4,17.4,17.4,17.4h24.8c2.5,0,2.5,0,5,2.5l5,5l0,0c-24.8,12.4-39.7,37.2-39.7,67v47.1
		c0,22.3,17.4,39.7,39.7,42.2v7.4c0,19.8,14.9,34.7,34.7,34.7s34.7-17.4,34.7-34.7v-7.4H377v7.4c0,19.8,17.4,34.7,34.7,34.7
		c19.8,0,34.7-14.9,34.7-34.7v-7.4c22.3-2.5,39.7-19.8,39.7-42.2v-47.1c0-29.8-17.4-54.6-39.7-67l0,0l5-5
		C456.4,428.4,458.9,428.4,461.3,428.4z M332.4,232.4c9.9,0,17.4,7.4,17.4,17.4s-7.4,17.4-17.4,17.4s-17.4-7.4-17.4-17.4
		C315,239.9,322.4,232.4,332.4,232.4z M262.9,267.2c-9.9,0-17.4-7.4-17.4-17.4c0-9.9,7.4-17.4,17.4-17.4c9.9,0,17.4,7.4,17.4,17.4
		C280.3,259.7,272.8,267.2,262.9,267.2z M178.6,527.6c-14.9,0-24.8-12.4-24.8-24.8c0-14.9,12.4-24.8,24.8-24.8
		c14.9,0,24.8,9.9,24.8,24.8C205.9,517.7,193.5,527.6,178.6,527.6z M339.8,549.9c0,5-2.5,7.4-7.4,7.4h-71.9c-5,0-7.4-2.5-7.4-7.4
		v-29.8c0-5,2.5-7.4,7.4-7.4h71.9c5,0,7.4,2.5,7.4,7.4V549.9z M186,428.4l12.4-44.6c7.4-22.3,24.8-34.7,47.1-34.7h101.7
		c22.3,0,42.2,14.9,47.1,34.7l12.4,44.6H186z M416.7,527.6c-14.9,0-24.8-12.4-24.8-24.8c0-14.9,12.4-24.8,24.8-24.8
		c14.9,0,24.8,9.9,24.8,24.8C441.5,517.7,429.1,527.6,416.7,527.6z"/>
</g>
</svg>
