<?xml version="1.0" encoding="utf-8"?>
<!-- Generator: Adobe Illustrator 18.0.0, SVG Export Plug-In . SVG Version: 6.00 Build 0)  -->
<!DOCTYPE svg PUBLIC "-//W3C//DTD SVG 1.1//EN" "http://www.w3.org/Graphics/SVG/1.1/DTD/svg11.dtd">
<svg version="1.1" id="Capa_1" xmlns="http://www.w3.org/2000/svg" xmlns:xlink="http://www.w3.org/1999/xlink" x="0px" y="0px"
	 viewBox="0 0 595.3 841.9" enable-background="new 0 0 595.3 841.9" xml:space="preserve">
<g id="guia" display="none">
</g>
<g id="guia2">
</g>
<g id="Capa_3">
	<g>
		<circle fill="#FFFFFF" cx="158.7" cy="564.8" r="54.6"/>
		<circle fill="#FFFFFF" cx="404.3" cy="564.8" r="54.6"/>
		<path fill="#FFFFFF" d="M456.4,485.4H59.5v79.4h32.2c0-37.2,29.8-67,67-67s64.5,32.2,64.5,67h114.1c0-37.2,29.8-67,67-67
			c37.2,0,67,29.8,67,67h62v-44.6L456.4,485.4z"/>
		<rect x="74.4" y="220" fill="#FFFFFF" width="168.7" height="52.1"/>
		<polygon fill="#FFFFFF" points="238.1,475.5 441.5,475.5 488.6,438.3 488.6,391.2 441.5,354 238.1,354 		"/>
		<path fill="#FFFFFF" d="M225.7,475.5v-191H89.3V473h136.4V475.5z M158.7,309.3c17.4,0,32.2,14.9,32.2,32.2s-14.9,32.2-32.2,32.2
			s-32.2-14.9-32.2-32.2S141.4,309.3,158.7,309.3z"/>
		<polygon fill="#FFFFFF" points="406.8,341.6 421.7,262.2 421.7,249.8 406.8,242.4 364.6,242.4 349.7,249.8 349.7,262.2 
			364.6,341.6 		"/>
	</g>
</g>
</svg>
