<?xml version="1.0" encoding="utf-8"?>
<!-- Generator: Adobe Illustrator 18.0.0, SVG Export Plug-In . SVG Version: 6.00 Build 0)  -->
<!DOCTYPE svg PUBLIC "-//W3C//DTD SVG 1.1//EN" "http://www.w3.org/Graphics/SVG/1.1/DTD/svg11.dtd">
<svg version="1.1" id="Capa_1" xmlns="http://www.w3.org/2000/svg" xmlns:xlink="http://www.w3.org/1999/xlink" x="0px" y="0px"
	 viewBox="0 0 595.3 841.9" enable-background="new 0 0 595.3 841.9" xml:space="preserve">
<g id="guia" display="none">
</g>
<g id="guia2">
</g>
<g id="Capa_3">
	<g id="guia_1_">
	</g>
	<rect x="71.9" y="197.7" fill="#FFFFFF" width="448.9" height="448.9"/>
	<g>
		<path fill="#FFFFFF" d="M483.7,230L483.7,230c-44.6-44.6-114.1-44.6-156.3,0L104.2,453.2c-42.2,42.2-42.2,111.6,0,156.3l0,0
			c42.2,42.2,111.6,42.2,156.3,0l223.2-223.2C528.3,344.1,528.3,272.1,483.7,230z M466.3,368.9L243.1,592.1
			c-32.2,32.2-86.8,32.2-119.1,0l0,0c-32.2-32.2-32.2-86.8,0-119.1l223.2-223.2c32.2-32.2,86.8-32.2,119.1,0l0,0
			C498.5,282,498.5,334.1,466.3,368.9z"/>
		<path fill="#FFFFFF" d="M431.6,344.1c-5-5-9.9-5-14.9,0l-5,5l-17.4-17.4l2.5-5l-9.9-9.9l-5,5l-17.4-17.4l7.4-5c5-5,5-9.9,0-14.9
			l-14.9-12.4c-5-5-9.9-5-14.9,0L310,304.4c-5,5-5,9.9,0,14.9l12.4,12.4c5,5,9.9,5,14.9,0l9.9-7.4l17.4,17.4l-5,5l9.9,9.9l2.5-5
			l17.4,17.4l-5,5c-5,5-5,9.9,0,14.9l12.4,12.4c5,5,9.9,5,14.9,0l32.2-32.2c5-5,5-9.9,0-14.9L431.6,344.1z"/>
		<path fill="#FFFFFF" d="M265.4,510.2c-5-5-9.9-5-14.9,0l-7.4,7.4l-17.4-19.8l5-5l-9.9-9.9l-5,5l-17.4-17.4l7.4-7.4
			c5-5,5-9.9,0-14.9l-12.4-12.4c-5-5-9.9-5-14.9,0l-32.2,32.2c-5,5-5,9.9,0,14.9l12.4,12.4c5,5,9.9,5,14.9,0l5-5l19.8,17.4l-5,5
			l7.4,7.4l5-5l17.4,17.4l-5,5c-5,5-5,9.9,0,14.9l12.4,12.4c5,5,9.9,5,14.9,0l32.2-32.2c5-5,5-9.9,0-14.9L265.4,510.2z"/>
	</g>
</g>
</svg>
