<?xml version="1.0" encoding="utf-8"?>
<!-- Generator: Adobe Illustrator 18.0.0, SVG Export Plug-In . SVG Version: 6.00 Build 0)  -->
<!DOCTYPE svg PUBLIC "-//W3C//DTD SVG 1.1//EN" "http://www.w3.org/Graphics/SVG/1.1/DTD/svg11.dtd">
<svg version="1.1" id="Capa_1" xmlns="http://www.w3.org/2000/svg" xmlns:xlink="http://www.w3.org/1999/xlink" x="0px" y="0px"
	 viewBox="0 0 595.3 841.9" enable-background="new 0 0 595.3 841.9" xml:space="preserve">
<g id="guia" display="none">
</g>
<g id="guia2">
</g>
<g id="Capa_3">
	<g id="guia_1_">
	</g>
	<g>
		<g>
			<g>
				<rect id="SVGID_1_" x="96.7" y="180.4" fill="#FFFFFF" width="401.8" height="431.6"/>
			</g>
			<g>
				<defs>
					<rect id="SVGID_2_" x="96.7" y="180.4" width="401.8" height="431.6"/>
				</defs>
				<clipPath id="SVGID_4_">
					<use xlink:href="#SVGID_2_"  overflow="visible"/>
				</clipPath>
				<path clip-path="url(#SVGID_4_)" fill="#FFFFFF" d="M245.6,393.7c0,14.9-12.4,27.3-27.3,27.3c-14.9,0-27.3-12.4-27.3-27.3
					c0-14.9,12.4-27.3,27.3-27.3C233.2,366.4,245.6,378.8,245.6,393.7L245.6,393.7z"/>
			</g>
		</g>
		<g>
			<g>
				<rect id="SVGID_3_" x="96.7" y="180.4" fill="#FFFFFF" width="401.8" height="431.6"/>
			</g>
			<g>
				<defs>
					<rect id="SVGID_5_" x="96.7" y="180.4" width="401.8" height="431.6"/>
				</defs>
				<clipPath id="SVGID_6_">
					<use xlink:href="#SVGID_5_"  overflow="visible"/>
				</clipPath>
				<path clip-path="url(#SVGID_6_)" fill="#FFFFFF" d="M481.2,450.7c-9.9-32.2-22.3-64.5-37.2-89.3c-19.8-32.2-44.6-54.6-69.4-54.6
					H218.3c-104.2,0-163.7,280.3-86.8,280.3c44.6,0,64.5-59.5,99.2-84.3c17.4-9.9,37.2-19.8,64.5-19.8c22.3,0,42.2,7.4,59.5,17.4
					c39.7,24.8,71.9,84.3,106.7,84.3C498.5,584.6,501,517.7,481.2,450.7L481.2,450.7z M218.3,445.7c-29.8,0-52.1-22.3-52.1-52.1
					c0-29.8,22.3-52.1,52.1-52.1s52.1,22.3,52.1,52.1C270.4,423.4,248,445.7,218.3,445.7L218.3,445.7z M367.1,351.5
					c2.5-7.4,12.4-12.4,19.8-9.9s12.4,12.4,9.9,19.8s-12.4,12.4-19.8,9.9S364.6,358.9,367.1,351.5L367.1,351.5z M349.7,398.6
					c-7.4-2.5-12.4-12.4-9.9-19.8c2.5-7.4,12.4-12.4,19.8-9.9s12.4,12.4,9.9,19.8C367.1,396.1,359.6,401.1,349.7,398.6L349.7,398.6z
					 M389.4,423.4c-2.5,7.4-12.4,12.4-19.8,9.9c-7.4-2.5-12.4-12.4-9.9-19.8c2.5-7.4,12.4-12.4,19.8-9.9
					C386.9,406.1,391.9,416,389.4,423.4L389.4,423.4z M419.2,398.6c-2.5,7.4-12.4,12.4-19.8,9.9c-7.4-2.5-12.4-12.4-9.9-19.8
					s12.4-12.4,19.8-9.9C416.7,381.3,421.7,391.2,419.2,398.6L419.2,398.6z"/>
			</g>
		</g>
	</g>
</g>
</svg>
