<?xml version="1.0" encoding="utf-8"?>
<!-- Generator: Adobe Illustrator 18.0.0, SVG Export Plug-In . SVG Version: 6.00 Build 0)  -->
<!DOCTYPE svg PUBLIC "-//W3C//DTD SVG 1.1//EN" "http://www.w3.org/Graphics/SVG/1.1/DTD/svg11.dtd">
<svg version="1.1" id="Capa_1" xmlns="http://www.w3.org/2000/svg" xmlns:xlink="http://www.w3.org/1999/xlink" x="0px" y="0px"
	 viewBox="0 0 595.3 841.9" enable-background="new 0 0 595.3 841.9" xml:space="preserve">
<g id="guia" display="none">
</g>
<g id="guia2">
</g>
<g>
	<path fill="#FFFFFF" d="M533.3,537.5l-124-258c-2.5-5-5-7.4-9.9-7.4l-52.1-2.5c-7.4,9.9-27.3,17.4-49.6,17.4s-42.2-7.4-49.6-17.4
		l-49.6,2.5c-5,0-7.4,2.5-9.9,7.4l-124,258c-2.5,5,0,12.4,5,14.9l29.8,19.8c5,2.5,12.4,0,14.9-5l76.9-129V597
		c0,7.4,5,12.4,12.4,12.4h188.5c7.4,0,12.4-5,12.4-12.4V438.3l76.9,129c2.5,2.5,5,5,9.9,5c2.5,0,5,0,5-2.5l32.2-17.4
		C533.3,549.9,535.8,545,533.3,537.5z"/>
	<path fill="#FFFFFF" d="M337.3,267.2v-17.4c0-7.4-5-14.9-9.9-14.9h-62c-5,0-9.9,7.4-9.9,14.9v19.8c7.4,7.4,22.3,12.4,39.7,12.4
		C315,279.6,332.4,274.6,337.3,267.2z"/>
</g>
</svg>
