<?xml version="1.0" encoding="utf-8"?>
<!-- Generator: Adobe Illustrator 18.0.0, SVG Export Plug-In . SVG Version: 6.00 Build 0)  -->
<!DOCTYPE svg PUBLIC "-//W3C//DTD SVG 1.1//EN" "http://www.w3.org/Graphics/SVG/1.1/DTD/svg11.dtd">
<svg version="1.1" id="Capa_1" xmlns="http://www.w3.org/2000/svg" xmlns:xlink="http://www.w3.org/1999/xlink" x="0px" y="0px"
	 viewBox="0 0 595.3 841.9" enable-background="new 0 0 595.3 841.9" xml:space="preserve">
<g id="guia" display="none">
</g>
<g id="guia2">
</g>
<g id="Capa_3">
	<g>
		<circle fill="#FFFFFF" cx="171.1" cy="264.7" r="7.4"/>
		<path fill="#FFFFFF" d="M513.4,574.7c-5-27.3-49.6-243.1-59.5-285.2c0,0,2.5-2.5,2.5-5v-42.2c0-5-2.5-7.4-7.4-7.4H148.8
			c-5,0-7.4,2.5-7.4,7.4v42.2c0,2.5,0,5,2.5,5c-12.4,47.1-54.6,258-62,285.2c0,5,2.5,7.4,5,9.9c0,0,104.2,22.3,218.3,24.8h2.5l0,0
			c114.1,0,198.4-22.3,198.4-24.8C510.9,582.2,513.4,579.7,513.4,574.7z M253,416C253,416,250.5,416,253,416c-5,0-9.9-2.5-9.9-5
			l-17.4-76.9L208.3,411c0,5-5,7.4-9.9,5c-5,0-7.4-5-5-9.9l24.8-111.6V292h12.4c0,0,0,0,0,2.5l24.8,111.6C260.4,411,258,416,253,416
			z M384.5,416L384.5,416c-5,0-9.9-2.5-9.9-5l-17.4-76.9L339.8,411c0,5-5,7.4-9.9,5c-5,0-7.4-5-5-9.9l24.8-111.6V292h12.4
			c0,0,0,0,0,2.5l24.8,111.6C391.9,411,389.4,416,384.5,416z M439,277.1H156.3v-27.3H439V277.1z"/>
	</g>
</g>
</svg>
