<?xml version="1.0" encoding="utf-8"?>
<!-- Generator: Adobe Illustrator 18.0.0, SVG Export Plug-In . SVG Version: 6.00 Build 0)  -->
<!DOCTYPE svg PUBLIC "-//W3C//DTD SVG 1.1//EN" "http://www.w3.org/Graphics/SVG/1.1/DTD/svg11.dtd">
<svg version="1.1" id="Capa_1" xmlns="http://www.w3.org/2000/svg" xmlns:xlink="http://www.w3.org/1999/xlink" x="0px" y="0px"
	 viewBox="0 0 595.3 841.9" enable-background="new 0 0 595.3 841.9" xml:space="preserve">
<g id="guia" display="none">
</g>
<g id="guia2">
</g>
<g id="Capa_3">
	<path fill="#FFFFFF" d="M523.4,520.2c-19.8-22.3-94.3-47.1-94.3-47.1s-81.9,54.6-168.7-76.9c-84.3-133.9-133.9-193.5-133.9-193.5
		S44.6,215.1,62,314.3c7.4,2.5,12.4,5,19.8,7.4c14.9,7.4,29.8,17.4,42.2,24.8c49.6,27.3,74.4,64.5,106.7,106.7l0,0
		c9.9,14.9,19.8,34.7,29.8,59.5c7.4,12.4,12.4,22.3,17.4,27.3c32.2,14.9,64.5,22.3,99.2,24.8c7.4,0,14.9,0,24.8,0
		c47.1-5,89.3-9.9,131.5-22.3C530.8,535,530.8,527.6,523.4,520.2z M374.5,584.6L374.5,584.6c-32.2,0-62-7.4-91.8-19.8l14.9,69.4
		l94.3,5c0,0,27.3,2.5,52.1-7.4s67-29.8,67-29.8l9.9-37.2c-39.7,9.9-76.9,14.9-119.1,17.4C391.9,584.6,384.5,584.6,374.5,584.6z
		 M74.4,341.6c-2.5,0-5-2.5-7.4-2.5c9.9,19.8,47.1,106.7,64.5,295.2c7.4,0,22.3,0,22.3,0l-12.4-198.4c0,0,2.5-37.2,24.8-34.7
		c-14.9-14.9-29.8-24.8-49.6-37.2C104.2,358.9,89.3,349,74.4,341.6z"/>
</g>
</svg>
