<?xml version="1.0" encoding="utf-8"?>
<!-- Generator: Adobe Illustrator 18.0.0, SVG Export Plug-In . SVG Version: 6.00 Build 0)  -->
<!DOCTYPE svg PUBLIC "-//W3C//DTD SVG 1.1//EN" "http://www.w3.org/Graphics/SVG/1.1/DTD/svg11.dtd">
<svg version="1.1" id="Capa_1" xmlns="http://www.w3.org/2000/svg" xmlns:xlink="http://www.w3.org/1999/xlink" x="0px" y="0px"
	 viewBox="0 0 595.3 841.9" enable-background="new 0 0 595.3 841.9" xml:space="preserve">
<g id="guia" display="none">
</g>
<g id="guia2">
</g>
<path fill="#FFFFFF" d="M533.3,520.2l-124-258c-2.5-5-5-7.4-9.9-7.4l-54.6-2.5c-2.5,0-5,0-7.4,2.5c-5,5-22.3,9.9-37.2,9.9
	s-29.8-5-37.2-9.9c-2.5-2.5-5-2.5-7.4-2.5l-59.5,5c-5,0-7.4,2.5-9.9,7.4L62,520.2c-2.5,5,0,12.4,5,14.9l32.2,17.4
	c5,2.5,12.4,0,14.9-5l76.9-129v158.7c0,7.4,5,12.4,12.4,12.4h188.5c7.4,0,12.4-5,12.4-12.4V418.5l76.9,129c2.5,2.5,5,5,9.9,5
	c2.5,0,5,0,5-2.5l32.2-17.4C533.3,532.6,535.8,525.1,533.3,520.2z M297.6,287c9.9,0,24.8-2.5,37.2-7.4c-5,22.3-34.7,57-39.7,57
	c-5,0-34.7-34.7-39.7-57C270.4,284.5,285.2,287,297.6,287z"/>
</svg>
