<?xml version="1.0" encoding="utf-8"?>
<!-- Generator: Adobe Illustrator 18.0.0, SVG Export Plug-In . SVG Version: 6.00 Build 0)  -->
<!DOCTYPE svg PUBLIC "-//W3C//DTD SVG 1.1//EN" "http://www.w3.org/Graphics/SVG/1.1/DTD/svg11.dtd">
<svg version="1.1" id="Capa_1" xmlns="http://www.w3.org/2000/svg" xmlns:xlink="http://www.w3.org/1999/xlink" x="0px" y="0px"
	 viewBox="0 0 595.3 841.9" enable-background="new 0 0 595.3 841.9" xml:space="preserve">
<g id="guia" display="none">
</g>
<g id="guia2">
</g>
<path fill="#FFFFFF" stroke="#000000" stroke-miterlimit="10" d="M362.1,217.6"/>
<path fill="#FFFFFF" d="M446.5,554.9c-12.4-91.8-22.3-267.9-24.8-320c0-7.4,0-14.9-2.5-14.9c0-2.5-2.5-5-2.5-7.4c0,0,0,0,0-2.5
	l-2.5-2.5c0,0,0,0-2.5-2.5c0,0-2.5,0-2.5-2.5c0,0,0,0-2.5,0l0,0l-5-9.9c0-5-5-7.4-9.9-7.4c0,0,0,0-2.5,0l0,0h-2.5
	c-29.8,5-62,7.4-91.8,7.4s-62-2.5-91.8-7.4h-2.5l0,0c0,0,0,0-2.5,0c-5,0-9.9,2.5-9.9,7.4l-2.5,12.4l0,0c0,0,0,0-2.5,0
	c0,0-2.5,0-2.5,2.5c0,0,0,0-2.5,2.5l-2.5,2.5c0,0,0,0,0,2.5s-2.5,5-2.5,7.4c0,0,0,7.4-2.5,14.9c-5,52.1-14.9,228.2-24.8,320
	c-5,32.2-7.4,74.4-9.9,89.3c0,2.5,0,5,2.5,5l89.3,7.4l0,0c0,0,0,0,2.5,0l0,0l2.5-2.5l59.5-297.6c0-2.5,0-2.5,2.5-2.5
	c0,0,0,2.5,2.5,2.5l59.5,297.6c0,0,0,2.5,2.5,2.5l0,0c0,0,0,0,2.5,0l0,0l89.3-7.4c2.5,0,2.5-2.5,2.5-5
	C453.9,629.3,451.4,587.1,446.5,554.9z M178.6,252.3c2.5-17.4,2.5-29.8,5-29.8c2.5-7.4,5-9.9,7.4-9.9c7.4,2.5,17.4,2.5,24.8,5
	c0,0,0,0,2.5,0c5,0,9.9,2.5,17.4,2.5c0,0,0,0,2.5,0c-7.4,17.4-22.3,32.2-44.6,32.2H178.6L178.6,252.3z M151.3,614.4l81.9,7.4
	l-5,24.8l-79.4-7.4L151.3,614.4z M295.2,324.2V215.1l0,0c-32.2,0-64.5-2.5-96.7-9.9l5-7.4l2.5-2.5c29.8,5,62,7.4,94.3,7.4
	s64.5-2.5,94.3-7.4c0,0,2.5,0,2.5,2.5l5,7.4c-32.2,7.4-64.5,9.9-96.7,9.9l0,0v109.1c0,2.5-2.5,2.5-2.5,2.5
	C295.2,324.2,295.2,324.2,295.2,324.2z M411.7,222.5c0,2.5,2.5,12.4,2.5,32.2l0,0h-14.9c-19.8,0-37.2-14.9-39.7-34.7c0,0,0,0,2.5,0
	c5,0,9.9,0,17.4-2.5c0,0,0,0,2.5,0c7.4,0,17.4-2.5,24.8-5C406.8,212.6,411.7,215.1,411.7,222.5z M367.1,646.7l-5-24.8l81.9-7.4
	l2.5,24.8L367.1,646.7z"/>
</svg>
