<?xml version="1.0" encoding="utf-8"?>
<!-- Generator: Adobe Illustrator 18.0.0, SVG Export Plug-In . SVG Version: 6.00 Build 0)  -->
<!DOCTYPE svg PUBLIC "-//W3C//DTD SVG 1.1//EN" "http://www.w3.org/Graphics/SVG/1.1/DTD/svg11.dtd">
<svg version="1.1" id="Capa_1" xmlns="http://www.w3.org/2000/svg" xmlns:xlink="http://www.w3.org/1999/xlink" x="0px" y="0px"
	 viewBox="0 0 595.3 841.9" enable-background="new 0 0 595.3 841.9" xml:space="preserve">
<g id="guia" display="none">
</g>
<g id="guia2">
</g>
<g id="Capa_3">
	<path fill="#FFFFFF" d="M533.3,552.4L441.5,282l-12.4-39.7c0-7.4-7.4-9.9-12.4-9.9h-2.5c-74.4,14.9-156.3,14.9-230.7,0h-2.5
		c-7.4,0-14.9,5-14.9,9.9L153.8,282L62,552.4c0,2.5,0,5,0,5c2.5,2.5,49.6,52.1,233.2,52.1c186,0,233.2-49.6,233.2-52.1
		C533.3,554.9,533.3,554.9,533.3,552.4z M461.3,582.2l-9.9-32.2c-12.4-37.2-27.3-158.7-37.2-191c-7.4-19.8-7.4-42.2-14.9-62
		c2.5,0,5,0,7.4,0l19.8,59.5c17.4,39.7,37.2,168.7,59.5,220.7C478.7,574.7,471.3,577.2,461.3,582.2z M374.5,597l-2.5-29.8
		c-5-42.2-9.9-171.1-12.4-205.9c-2.5-19.8-5-39.7-7.4-59.5c2.5,0,5,0,9.9,0l9.9,57c7.4,42.2,17.4,178.6,27.3,233.2
		C391.9,594.6,384.5,597,374.5,597z M109.1,572.2c12.4-32.2,14.9-69.4,24.8-96.7l32.2-124c7.4-19.8,12.4-42.2,19.8-59.5
		c2.5,0,5,0,7.4,0c-5,22.3-7.4,42.2-12.4,64.5c-7.4,27.3-27.3,136.4-37.2,166.2l-12.4,59.5C124,577.2,116.6,574.7,109.1,572.2z
		 M195.9,594.6l27.3-235.6c5-19.8,7.4-42.2,12.4-59.5c2.5,0,5,0,9.9,0c-2.5,19.8-5,39.7-7.4,62c-2.5,24.8-5,141.4-9.9,171.1
		c-2.5,19.8-5,42.2-7.4,67C210.8,597,203.4,594.6,195.9,594.6z M297.6,599.5c-5,0-7.4,0-12.4,0l7.4-297.6c2.5,0,2.5,0,5,0
		c2.5,0,2.5,0,5,0l2.5,59.5c2.5,39.7,2.5,171.1,5,218.3v19.8C305.1,599.5,302.6,599.5,297.6,599.5z"/>
</g>
</svg>
