<?xml version="1.0" encoding="utf-8"?>
<!-- Generator: Adobe Illustrator 18.0.0, SVG Export Plug-In . SVG Version: 6.00 Build 0)  -->
<!DOCTYPE svg PUBLIC "-//W3C//DTD SVG 1.1//EN" "http://www.w3.org/Graphics/SVG/1.1/DTD/svg11.dtd">
<svg version="1.1" id="Capa_1" xmlns="http://www.w3.org/2000/svg" xmlns:xlink="http://www.w3.org/1999/xlink" x="0px" y="0px"
	 viewBox="0 0 595.3 841.9" enable-background="new 0 0 595.3 841.9" xml:space="preserve">
<g id="guia" display="none">
</g>
<g id="guia2">
</g>
<g id="Capa_3">
	<g>
		<path fill="#FFFFFF" d="M225.7,368.9h2.5c2.5,0,5-5,7.4-7.4l27.3-163.7c0-2.5,0-7.4-2.5-9.9c-2.5-2.5-5-2.5-9.9-2.5L89.3,225
			c-2.5,0-5,2.5-7.4,7.4c0,2.5,0,7.4,2.5,9.9l133.9,124C220.7,366.4,223.2,368.9,225.7,368.9z M111.6,239.9l129-32.2l-19.8,131.5
			L111.6,239.9z"/>
		<path fill="#FFFFFF" d="M513.4,455.7c0-2.5,0-7.4-2.5-9.9v-2.5c0-2.5-2.5-5-2.5-7.4c0,0,0-2.5-2.5-2.5c0,0,0-2.5-2.5-2.5
			c-12.4-29.8-47.1-49.6-86.8-49.6c-7.4,0-14.9,0-24.8,2.5c-17.4-22.3-49.6-34.7-84.3-34.7c-34.7,2.5-67,14.9-84.3,39.7
			c-49.6-9.9-91.8,12.4-109.1,44.6l-2.5,2.5c0,0,0,2.5-2.5,2.5c-2.5,2.5-2.5,5-2.5,7.4v2.5c0,2.5-2.5,5-2.5,9.9
			c0,69.4,34.7,129,86.8,166.2c-7.4,2.5-12.4,9.9-12.4,17.4c0,9.9,7.4,17.4,17.4,17.4h84.3h54.6h81.9c9.9,0,17.4-7.4,17.4-17.4
			c0-7.4-5-14.9-12.4-17.4C478.7,584.6,513.4,525.1,513.4,455.7z M203.4,411c7.4,0,14.9,0,22.3,2.5l9.9,2.5l5-7.4
			c9.9-19.8,37.2-32.2,69.4-32.2c29.8,0,57,12.4,67,29.8l5,7.4l9.9-2.5c44.6-12.4,91.8,12.4,91.8,42.2c-7.4,5-19.8,12.4-34.7,17.4
			c-2.5,0-5,2.5-7.4,2.5l0,0c-34.7,9.9-81.9,17.4-133.9,17.4c-76.9,0-143.9-14.9-173.6-32.2C138.9,430.9,166.2,411,203.4,411z
			 M310,619.4c-71.9,0-131.5-47.1-153.8-111.6c44.6,17.4,109.1,22.3,153.8,22.3c47.1,0,111.6-5,156.3-24.8
			C444,572.2,382,619.4,310,619.4z"/>
		<circle fill="#FFFFFF" cx="223.2" cy="232.4" r="7.4"/>
		<circle fill="#FFFFFF" cx="220.7" cy="247.3" r="5"/>
		<circle fill="#FFFFFF" cx="208.3" cy="239.9" r="5"/>
	</g>
</g>
</svg>
