<?xml version="1.0" encoding="utf-8"?>
<!-- Generator: Adobe Illustrator 18.0.0, SVG Export Plug-In . SVG Version: 6.00 Build 0)  -->
<!DOCTYPE svg PUBLIC "-//W3C//DTD SVG 1.1//EN" "http://www.w3.org/Graphics/SVG/1.1/DTD/svg11.dtd">
<svg version="1.1" id="Capa_1" xmlns="http://www.w3.org/2000/svg" xmlns:xlink="http://www.w3.org/1999/xlink" x="0px" y="0px"
	 viewBox="0 0 595.3 841.9" enable-background="new 0 0 595.3 841.9" xml:space="preserve">
<g id="guia" display="none">
</g>
<g id="guia2">
</g>
<g id="Capa_3">
	<path fill="#FFFFFF" d="M297.6,440.8c-5,0-7.4,2.5-12.4,2.5h-2.5l-188.5-5c-5,0-7.4,0-12.4-2.5c-2.5,27.3-12.4,96.7-9.9,96.7
		c76.9,12.4,151.3,27.3,228.2,24.8c0,0,0,0,2.5,0c44.6-2.5,89.3-2.5,129-9.9c29.8-5,59.5-14.9,84.3-32.2
		c-14.9-12.4-44.6-17.4-59.5-17.4C409.3,492.9,327.4,490.4,297.6,440.8z M525.8,527.6c-27.3,17.4-57,27.3-89.3,34.7
		c-44.6,7.4-89.3,7.4-133.9,7.4h-2.5c-79.4,2.5-153.8-9.9-228.2-24.8c-2.5,22.3-5,39.7-5,39.7s29.8,27.3,262.9,22.3
		c0,0,136.4,5,200.9-44.6C530.8,545,528.3,532.6,525.8,527.6z M94.3,418.5l188.5,5c19.8,0,37.2-14.9,37.2-34.7l2.5-111.6
		c0-19.8-14.9-37.2-34.7-37.2l-188.5-5c-19.8,0-37.2,14.9-37.2,34.7l-2.5,111.6C57,401.1,74.4,418.5,94.3,418.5z M302.6,314.3
		c2.5,9.9-9.9,17.4-14.9,9.9C275.3,311.8,297.6,301.9,302.6,314.3z M277.8,336.6c5,2.5,9.9,9.9,12.4,14.9c5,14.9-5,12.4-12.4,5
		C272.8,351.5,265.4,334.1,277.8,336.6z M253,259.7c14.9-5,5,24.8-5,24.8c-2.5,0-5,0-7.4,0C235.6,279.6,245.6,262.2,253,259.7z
		 M223.2,383.7c24.8-14.9,14.9,27.3,0,22.3C213.3,401.1,215.8,386.2,223.2,383.7z M188.5,282c14.9-2.5,17.4,27.3,0,22.3
		C176.1,299.4,176.1,284.5,188.5,282z M161.2,368.9c0,12.4-17.4,12.4-24.8,5C126.5,363.9,158.7,356.5,161.2,368.9z M114.1,331.7
		c-9.9-12.4,12.4-22.3,14.9-9.9C133.9,331.7,121.5,339.1,114.1,331.7z M109.1,262.2c2.5-5,17.4-14.9,19.8-7.4
		c2.5,7.4-12.4,17.4-17.4,14.9C106.7,267.2,106.7,264.7,109.1,262.2z M106.7,388.7c-12.4,2.5-22.3-24.8-9.9-27.3
		C109.1,356.5,114.1,388.7,106.7,388.7z M94.3,292c14.9,2.5,2.5,32.2-9.9,19.8C74.4,304.4,84.3,289.5,94.3,292z"/>
</g>
</svg>
