<?xml version="1.0" encoding="utf-8"?>
<!-- Generator: Adobe Illustrator 18.0.0, SVG Export Plug-In . SVG Version: 6.00 Build 0)  -->
<!DOCTYPE svg PUBLIC "-//W3C//DTD SVG 1.1//EN" "http://www.w3.org/Graphics/SVG/1.1/DTD/svg11.dtd">
<svg version="1.1" id="Capa_1" xmlns="http://www.w3.org/2000/svg" xmlns:xlink="http://www.w3.org/1999/xlink" x="0px" y="0px"
	 viewBox="0 0 595.3 841.9" enable-background="new 0 0 595.3 841.9" xml:space="preserve">
<g id="guia" display="none">
</g>
<g id="guia2">
</g>
<g id="Capa_3">
	<path fill="#FFFFFF" d="M225.7,257.2c0,39.7,32.2,71.9,71.9,71.9s71.9-32.2,71.9-71.9v-42.2c0-5,5-9.9,9.9-9.9h19.8
		c5,0,9.9,5,9.9,9.9v317.5c-44.6,2.5-81.9,39.7-81.9,84.3v19.8h-59.5v-19.8c0-44.6-37.2-84.3-81.9-84.3V215.1c0-5,5-9.9,9.9-9.9
		h19.8c5,0,9.9,5,9.9,9.9L225.7,257.2L225.7,257.2z"/>
</g>
</svg>
