<?xml version="1.0" encoding="utf-8"?>
<!-- Generator: Adobe Illustrator 18.0.0, SVG Export Plug-In . SVG Version: 6.00 Build 0)  -->
<!DOCTYPE svg PUBLIC "-//W3C//DTD SVG 1.1//EN" "http://www.w3.org/Graphics/SVG/1.1/DTD/svg11.dtd">
<svg version="1.1" id="Capa_1" xmlns="http://www.w3.org/2000/svg" xmlns:xlink="http://www.w3.org/1999/xlink" x="0px" y="0px"
	 viewBox="0 0 595.3 841.9" enable-background="new 0 0 595.3 841.9" xml:space="preserve">
<g id="guia" display="none">
</g>
<g id="guia2">
</g>
<path fill="#FFFFFF" d="M444,262.2c0-5-5-7.4-7.4-7.4H158.7c-5,0-7.4,2.5-7.4,7.4c-2.5,7.4-37.2,186-44.6,215.8c0,2.5,0,5,2.5,7.4
	s5,2.5,7.4,2.5L270.4,535c5,0,7.4-2.5,9.9-7.4l19.8-86.8l19.8,86.8c0,5,5,7.4,9.9,7.4l0,0l153.8-47.1c2.5,0,5-2.5,7.4-2.5
	s2.5-5,2.5-7.4C481.2,448.2,446.5,269.6,444,262.2z M166.2,274.6h262.9c0,5,2.5,9.9,2.5,17.4h-84.3l0,0h-19.8l0,0h-62l0,0h-24.8l0,0
	h-76.9C163.7,284.5,166.2,277.1,166.2,274.6z M151.3,368.9c5-22.3,7.4-42.2,9.9-59.5l0,0h49.6C208.3,341.6,183.5,366.4,151.3,368.9z
	 M441.5,368.9c-34.7,0-62-24.8-64.5-59.5h59.5C436.5,326.7,439,346.5,441.5,368.9C444,368.9,441.5,368.9,441.5,368.9z"/>
</svg>
