<?xml version="1.0" standalone="no"?>
<!DOCTYPE svg PUBLIC "-//W3C//DTD SVG 1.1//EN" "http://www.w3.org/Graphics/SVG/1.1/DTD/svg11.dtd" >
<svg xmlns="http://www.w3.org/2000/svg">
<metadata></metadata>
<defs>
<font id="bryantlight_condensed" horiz-adv-x="376" >
<font-face units-per-em="2048" ascent="1536" descent="-512" />
<missing-glyph horiz-adv-x="542" />
<glyph horiz-adv-x="2048" />
<glyph horiz-adv-x="2048" />
<glyph unicode="&#xd;" horiz-adv-x="2048" />
<glyph unicode=" "  horiz-adv-x="542" />
<glyph unicode="&#x09;" horiz-adv-x="542" />
<glyph unicode="&#xa0;" horiz-adv-x="542" />
<glyph unicode="!" horiz-adv-x="442" d="M174 39q0 20 13.5 33.5t33.5 13.5t33.5 -13.5t13.5 -33.5t-13.5 -33.5t-33.5 -13.5t-33.5 13.5t-13.5 33.5zM197 655v701q0 10 6.5 17t17.5 7t18 -7t7 -17v-701l-8 -381q0 -24 -17 -24q-16 0 -16 24z" />
<glyph unicode="&#x22;" horiz-adv-x="659" d="M143 907v451q0 9 7 15.5t16 6.5t15.5 -6.5t6.5 -15.5v-451q0 -9 -6.5 -15.5t-15.5 -6.5t-16 6.5t-7 15.5zM471 907v451q0 9 7 15.5t16 6.5t15.5 -6.5t6.5 -15.5v-451q0 -9 -6.5 -15.5t-15.5 -6.5t-16 6.5t-7 15.5z" />
<glyph unicode="#" horiz-adv-x="1271" d="M113 446q0 21 22 21h205l49 455h-203q-20 0 -20 20q0 8 6.5 14.5t17.5 6.5h205l43 395q4 22 27 22t20 -24l-45 -393h475l43 395q4 22 25 22q24 0 21 -24l-43 -393h202q9 0 15 -6t6 -15q0 -20 -23 -20h-205l-49 -455h205q8 0 13 -6t5 -15q0 -20 -22 -20h-205l-45 -420 q-3 -22 -24 -22q-26 0 -23 24l47 418h-479l-45 -420q-3 -22 -25 -22q-10 0 -16 7.5t-4 16.5l45 418h-203q-18 0 -18 20zM385 467h477l49 455h-475z" />
<glyph unicode="$" horiz-adv-x="1058" d="M143 199q0 8 6 13t15 5q8 0 29 -16q157 -131 350 -131q158 0 248 69.5t90 198.5q0 34 -7 62t-17.5 51t-34.5 46.5t-46 41.5t-66 43.5t-79.5 45t-100.5 52.5q-200 103 -281 184.5t-81 192.5q0 134 93.5 206.5t262.5 77.5v213q0 9 7 16t16 7q10 0 16 -7t6 -16v-215 q185 -6 318 -108q8 -8 8 -19q0 -16 -18 -16q-11 0 -31 14q-139 90 -305 90q-159 0 -241.5 -63.5t-82.5 -177.5q0 -102 72 -170t254 -164q189 -100 248 -142q103 -74 128 -165q11 -40 11 -86q0 -129 -96.5 -213t-272.5 -90v-226q0 -9 -6.5 -15.5t-15.5 -6.5q-10 0 -16.5 6.5 t-6.5 15.5v226q-197 8 -362 149q-11 7 -11 21z" />
<glyph unicode="%" horiz-adv-x="1519" d="M133 1053q0 145 74.5 240.5t202.5 95.5t202 -95.5t74 -240.5t-74 -240.5t-202 -95.5t-202.5 95.5t-74.5 240.5zM176 1053q0 -128 61.5 -212.5t172.5 -84.5t172 84.5t61 212.5t-61 212.5t-172 84.5t-172.5 -84.5t-61.5 -212.5zM369 -6q0 4 6 16l741 1362q10 17 23 17 q8 0 14 -5t6 -14q0 -6 -6 -18l-743 -1362q-8 -15 -21 -15q-9 0 -14.5 5.5t-5.5 13.5zM840 311q0 145 74 240.5t202 95.5t202.5 -95.5t74.5 -240.5t-74.5 -240.5t-202.5 -95.5t-202 95.5t-74 240.5zM883 311q0 -128 61 -212.5t172 -84.5t172.5 84.5t61.5 212.5t-61.5 212.5 t-172.5 84.5t-172 -84.5t-61 -212.5z" />
<glyph unicode="&#x26;" horiz-adv-x="1316" d="M143 332q0 76 24 141t73.5 121.5t108.5 103t145 99.5q-73 104 -110.5 187.5t-37.5 166.5q0 111 64 174.5t178 63.5q112 0 174.5 -64t62.5 -170t-76 -202.5t-196 -168.5q50 -77 158 -243.5t190 -294.5q83 123 152 303q8 20 20 20q10 0 15.5 -5.5t5.5 -12.5q0 -8 -4 -16 q-72 -195 -164 -324q54 -80 82 -115.5t63 -58.5t76 -23q40 0 90 21q12 4 18 4t11.5 -4.5t5.5 -11.5q0 -12 -15 -21q-53 -27 -112 -27q-22 0 -43 5.5t-37.5 13t-34.5 22t-29.5 25.5t-28 32t-25 32.5t-25 35.5t-23.5 33q-75 -93 -167 -146t-218 -53q-168 0 -269.5 102 t-101.5 255zM193 332q0 -142 89.5 -229t231.5 -87q111 0 198.5 48.5t164.5 146.5q-65 101 -363 551q-65 -43 -107.5 -75t-87 -74t-69.5 -81.5t-41 -90.5t-16 -109zM391 1149q0 -76 41.5 -166.5t99.5 -167.5q105 65 176.5 154t71.5 186q0 89 -52.5 142t-139.5 53 q-90 0 -143.5 -50.5t-53.5 -150.5z" />
<glyph unicode="'" horiz-adv-x="331" d="M143 907v451q0 9 7 15.5t16 6.5t15.5 -6.5t6.5 -15.5v-451q0 -9 -6.5 -15.5t-15.5 -6.5t-16 6.5t-7 15.5z" />
<glyph unicode="(" horiz-adv-x="602" d="M174 553q0 236 68.5 451.5t214.5 439.5q7 10 18 10q10 0 17.5 -6t7.5 -14q0 -10 -6 -19q-141 -227 -206 -428t-65 -434t65 -434t206 -428q6 -9 6 -19q0 -8 -7.5 -14t-17.5 -6q-11 0 -18 10q-146 224 -214.5 439.5t-68.5 451.5z" />
<glyph unicode=")" horiz-adv-x="602" d="M102 -328q0 8 7 19q141 226 205.5 427.5t64.5 434.5t-64.5 434.5t-205.5 427.5q-7 11 -7 19t7.5 14t17.5 6q11 0 18 -10q146 -224 214.5 -439.5t68.5 -451.5t-68.5 -451.5t-214.5 -439.5q-7 -10 -18 -10q-10 0 -17.5 6t-7.5 14z" />
<glyph unicode="*" horiz-adv-x="835" d="M123 1124q0 8 5.5 13.5t12.5 5.5h244l-125 207q-4 8 -4 14t5.5 11t12.5 5q11 0 19 -12l125 -211l125 211q8 12 18 12q7 0 13 -5t6 -11q0 -4 -5 -14l-126 -207h245q8 0 13.5 -5.5t5.5 -13.5q0 -18 -19 -18h-245l124 -205q7 -11 7 -14q0 -8 -6 -13.5t-15 -5.5q-11 0 -18 13 l-123 211l-123 -211q-7 -13 -19 -13q-9 0 -14.5 5.5t-5.5 13.5q0 5 6 14l123 205h-244q-18 0 -18 18z" />
<glyph unicode="+" horiz-adv-x="1171" d="M123 662q0 9 6.5 15.5t15.5 6.5h416v414q0 10 7 17t18 7q10 0 17 -7t7 -17v-414h416q9 0 16 -6.5t7 -15.5t-7 -16t-16 -7h-416v-414q0 -11 -7 -17.5t-17 -6.5q-11 0 -18 7t-7 17v414h-416q-9 0 -15.5 7t-6.5 16z" />
<glyph unicode="," horiz-adv-x="372" d="M96 -311q0 2 6 20q62 138 62 297v123q0 25 22 25q10 0 16.5 -7t6.5 -18v-115q0 -93 -14.5 -167t-51.5 -158q-8 -21 -26 -21q-9 0 -15 6.5t-6 14.5z" />
<glyph unicode="-" horiz-adv-x="806" d="M133 512q0 9 7 16t16 7h495q9 0 16 -7t7 -16t-7 -16t-16 -7h-495q-9 0 -16 7t-7 16z" />
<glyph unicode="." d="M164 16v113q0 11 7 18t17 7t17.5 -7t7.5 -18v-113q0 -10 -7 -17t-18 -7q-10 0 -17 7t-7 17z" />
<glyph unicode="/" horiz-adv-x="876" d="M164 -242q0 5 4 17l498 1663q5 16 22 16q25 0 25 -24q0 -7 -4 -19l-496 -1655q-6 -22 -25 -22q-24 0 -24 24z" />
<glyph unicode="0" horiz-adv-x="1179" d="M123 682q0 113 17 215t53.5 192.5t90 156.5t132 104.5t174.5 38.5t174.5 -38.5t132 -104.5t90 -156.5t53.5 -192.5t17 -215t-17 -215t-53.5 -192.5t-90 -156.5t-132 -104.5t-174.5 -38.5t-174.5 38.5t-132 104.5t-90 156.5t-53.5 192.5t-17 215zM172 682 q0 -103 14.5 -198t47.5 -180t80.5 -147.5t118.5 -99.5t157 -37t157 37t118.5 99.5t80.5 147.5t47.5 180t14.5 198t-14.5 197.5t-47.5 180t-80.5 148t-118.5 99t-157 36.5t-157 -36.5t-118.5 -99t-80.5 -148t-47.5 -180t-14.5 -197.5z" />
<glyph unicode="1" horiz-adv-x="602" d="M31 1255q0 17 18 23l313 98q12 4 21 4q25 0 25 -24v-1348q0 -10 -7 -17t-18 -7t-18 7t-7 17v1319l-282 -88q-12 -4 -23 -4q-9 0 -15.5 5.5t-6.5 14.5z" />
<glyph unicode="2" horiz-adv-x="1034" d="M133 25v43q0 95 14 165t39 124t77 106t109.5 94t155.5 105q46 29 62 39.5t55 36.5t53 37.5t44.5 35t42 37.5t32 37t28.5 41.5t18.5 43t14 49t3.5 52.5q0 130 -88.5 202.5t-251.5 72.5q-194 0 -346 -123q-9 -6 -19 -6q-9 0 -15.5 5.5t-6.5 14.5q0 14 12 23 q163 129 379 129q178 0 281.5 -85t103.5 -231q0 -129 -79.5 -219.5t-287.5 -224.5q-85 -55 -134 -89.5t-98 -77t-72.5 -78t-43.5 -85t-26.5 -105t-6.5 -131.5v-20h738q9 0 15.5 -6t6.5 -14q0 -9 -6.5 -16t-15.5 -7h-764q-10 0 -16.5 7.5t-6.5 17.5z" />
<glyph unicode="3" horiz-adv-x="1075" d="M92 156q0 10 7 16t16 6q10 0 22 -12q153 -146 369 -146q169 0 278 95t109 250t-108.5 250.5t-280.5 95.5h-137q-10 0 -17.5 6t-7.5 16t7.5 15.5t17.5 5.5h133q148 0 242 89.5t94 219.5q0 126 -87 203t-233 77q-163 0 -287 -83q-10 -7 -18 -7q-10 0 -16.5 6.5t-6.5 14.5 q0 12 13 22q136 93 315 93q167 0 268 -90.5t101 -233.5q0 -109 -67.5 -200t-194.5 -132q137 -25 228 -121t91 -247q0 -168 -121 -279t-315 -111q-233 0 -402 158q-12 12 -12 23z" />
<glyph unicode="4" horiz-adv-x="1101" d="M55 430q0 10 8 21l703 915q11 14 25 14q22 0 22 -24v-903h227q9 0 15 -6t6 -15q0 -20 -21 -20h-227v-404q0 -24 -22 -24q-11 0 -18 7t-7 17v404h-688q-23 0 -23 18zM123 453h643v837z" />
<glyph unicode="5" horiz-adv-x="1095" d="M133 168q0 8 6.5 14t16.5 6t20 -10q72 -78 169 -120t204 -42q123 0 213.5 56t134 145t43.5 197q0 170 -100 271t-262 101q-97 0 -174.5 -31.5t-157.5 -95.5q-20 -16 -35 -16q-12 0 -17.5 9t-3.5 20l70 669q0 10 7 16.5t18 6.5h598q9 0 15.5 -7t6.5 -16q0 -8 -6.5 -14 t-15.5 -6h-582l-65 -625q64 62 152.5 97.5t186.5 35.5q187 0 300.5 -114.5t113.5 -300.5q0 -86 -28 -164t-81 -140.5t-138.5 -99.5t-192.5 -37q-125 0 -232.5 49.5t-175.5 127.5q-8 8 -8 18z" />
<glyph unicode="6" horiz-adv-x="1103" d="M139 442q0 285 161.5 547.5t418.5 392.5q17 7 24 7q9 0 15 -5.5t6 -13.5q0 -12 -19 -22q-233 -130 -377 -336.5t-182 -470.5q49 122 159 192t245 70q182 0 296.5 -116t114.5 -296q0 -112 -50.5 -206.5t-147.5 -152t-221 -57.5q-210 0 -326.5 125.5t-116.5 341.5zM197 399 q0 -175 103.5 -278t281.5 -103q161 0 265.5 107.5t104.5 263.5q0 163 -97.5 267t-264.5 104q-98 0 -187 -42.5t-147.5 -127t-58.5 -191.5z" />
<glyph unicode="7" horiz-adv-x="923" d="M47 1341q0 10 7 16.5t16 6.5h788q11 0 18 -6t7 -15t-6 -18q-113 -157 -192 -295t-144 -299t-97 -340t-32 -379v-4q0 -10 -7 -17t-18 -7t-18 7t-7 17v8q1 195 32.5 371.5t94 336.5t142 301.5t190.5 295.5h-751q-9 0 -16 6t-7 14z" />
<glyph unicode="8" horiz-adv-x="1163" d="M133 365q0 141 88.5 239t229.5 135q-114 46 -178 128.5t-64 187.5q0 148 106.5 241t266.5 93q159 0 265.5 -93t106.5 -241q0 -105 -63.5 -187.5t-177.5 -128.5q141 -37 229 -135t88 -239q0 -164 -126.5 -277t-321.5 -113t-322 113t-127 277zM182 365q0 -153 115.5 -250 t284.5 -97t284 97t115 250q0 107 -56.5 188.5t-146.5 122.5t-196 41q-164 0 -282 -96.5t-118 -255.5zM256 1055q0 -122 96 -208.5t230 -86.5t229.5 86t95.5 209q0 126 -89.5 209.5t-235.5 83.5t-236 -83.5t-90 -209.5z" />
<glyph unicode="9" horiz-adv-x="1103" d="M102 973q0 83 30 159t83.5 133t133 90.5t173.5 33.5q210 0 326.5 -125.5t116.5 -341.5q0 -285 -161.5 -547.5t-418.5 -392.5q-17 -7 -25 -7q-9 0 -14.5 5.5t-5.5 13.5q0 13 18 22q233 130 377.5 336.5t182.5 470.5q-49 -122 -159 -192t-245 -70q-182 0 -297 116t-115 296 zM152 975q0 -163 97.5 -267t264.5 -104q98 0 187 42.5t147.5 127t58.5 191.5q0 175 -103.5 278t-281.5 103q-161 0 -265.5 -107.5t-104.5 -263.5z" />
<glyph unicode=":" d="M164 16v113q0 11 7 18t17 7t17.5 -7t7.5 -18v-113q0 -10 -7 -17t-18 -7q-10 0 -17 7t-7 17zM164 575v113q0 11 7 18t17 7t17.5 -7.5t7.5 -17.5v-113q0 -10 -7 -17t-18 -7q-10 0 -17 6.5t-7 17.5z" />
<glyph unicode=";" horiz-adv-x="374" d="M96 -311q0 2 6 20q62 138 62 297v123q0 25 22 25q10 0 16.5 -7t6.5 -18v-115q0 -93 -14.5 -167t-51.5 -158q-8 -21 -26 -21q-9 0 -15 6.5t-6 14.5zM162 575v113q0 11 7 18t17 7t17.5 -7.5t7.5 -17.5v-113q0 -10 -7 -17t-18 -7q-10 0 -17 6.5t-7 17.5z" />
<glyph unicode="&#x3c;" horiz-adv-x="1034" d="M92 662q0 10 17 20l741 440q13 8 20 8q10 0 15.5 -6.5t5.5 -13.5q0 -13 -17 -23l-720 -425l720 -426q17 -10 17 -23q0 -7 -5.5 -13.5t-15.5 -6.5q-7 0 -20 8l-741 440q-17 10 -17 21z" />
<glyph unicode="=" horiz-adv-x="1017" d="M154 492q0 9 6.5 15.5t15.5 6.5h666q9 0 15.5 -6.5t6.5 -15.5t-6.5 -16t-15.5 -7h-666q-9 0 -15.5 7t-6.5 16zM154 834q0 9 6.5 15.5t15.5 6.5h666q9 0 15.5 -6.5t6.5 -15.5t-6.5 -16t-15.5 -7h-666q-9 0 -15.5 7t-6.5 16z" />
<glyph unicode="&#x3e;" horiz-adv-x="1034" d="M143 213q0 13 17 23l721 426l-721 425q-17 10 -17 23q0 7 5.5 13.5t15.5 6.5q7 0 20 -8l742 -440q16 -10 16 -20q0 -11 -16 -21l-742 -440q-13 -8 -20 -8q-10 0 -15.5 6.5t-5.5 13.5z" />
<glyph unicode="?" horiz-adv-x="899" d="M92 1253q0 12 14 23q149 113 347 113q157 0 250.5 -73.5t93.5 -207.5q0 -79 -43 -157.5t-150 -174.5q-126 -115 -159 -176.5t-33 -177.5v-133q0 -10 -8 -17.5t-17 -7.5q-11 0 -18 7t-7 18v133q0 37 2.5 67t11.5 59t14.5 47.5t25 45t28 39t38 41.5t41 39.5t50.5 46.5 q90 81 132.5 152.5t42.5 146.5q0 118 -81 177.5t-218 59.5q-172 0 -318 -102q-12 -8 -16 -8q-10 0 -16.5 6t-6.5 14zM342 39q0 20 13.5 33.5t33.5 13.5t33.5 -13.5t13.5 -33.5t-13.5 -33.5t-33.5 -13.5t-33.5 13.5t-13.5 33.5z" />
<glyph unicode="@" horiz-adv-x="1411" d="M123 690q0 203 75 361.5t217 248t328 89.5q202 0 300 -102.5t98 -293.5v-598q0 -9 -7 -15.5t-16 -6.5t-15.5 6.5t-6.5 15.5v144q-39 -87 -107.5 -132t-154.5 -45q-131 0 -217.5 101.5t-86.5 247.5t86.5 246t217.5 100q88 0 158.5 -48.5t103.5 -127.5v104 q0 186 -86.5 273.5t-266.5 87.5q-132 0 -240 -49.5t-180 -137t-111.5 -208t-39.5 -261.5q0 -133 43.5 -252.5t127 -214.5t219 -151t306.5 -56q228 0 445 90q15 5 20 5q6 0 11.5 -6t5.5 -13q0 -12 -21 -22q-208 -95 -461 -95q-142 0 -263.5 37.5t-209 104t-149.5 156.5 t-92.5 195.5t-30.5 221.5zM575 711q0 -132 74.5 -221t186.5 -89t186 86t74 224q0 136 -76 220.5t-184 84.5q-113 0 -187 -86.5t-74 -218.5z" />
<glyph unicode="A" horiz-adv-x="1208" d="M82 6q0 7 4 19l496 1339q6 16 22 16q17 0 23 -16l495 -1339q4 -12 4 -19q0 -9 -7 -15.5t-17 -6.5q-19 0 -27 24l-147 400h-647l-148 -400q-8 -24 -27 -24q-10 0 -17 6.5t-7 15.5zM297 453h614l-307 852z" />
<glyph unicode="B" horiz-adv-x="1142" d="M174 25v1314q0 11 7 18t18 7h385q162 0 265 -92t103 -246q0 -107 -66.5 -191t-185.5 -122q151 -15 245.5 -109t94.5 -242q0 -74 -25.5 -138t-76 -115t-134 -80t-192.5 -29h-413q-11 0 -18 7t-7 18zM223 45h395q181 0 277 87.5t96 232.5q0 147 -102 232t-285 85h-381v-637 zM223 725h328q155 0 253.5 86.5t98.5 216.5q0 133 -90 212t-227 79h-363v-594z" />
<glyph unicode="C" horiz-adv-x="1191" d="M113 682q0 111 22.5 214.5t68.5 193t111 156.5t154.5 105t194.5 38q145 0 258.5 -71t181.5 -194q6 -12 6 -18q0 -10 -7 -16.5t-16 -6.5q-12 0 -22 17q-139 243 -401 243q-122 0 -219.5 -55.5t-158 -149.5t-92.5 -210.5t-32 -245.5t32 -246t92.5 -210.5t158 -149.5 t219.5 -56q262 0 401 244q10 17 22 17q9 0 16 -6.5t7 -16.5q0 -6 -6 -18q-68 -123 -181.5 -194t-258.5 -71q-105 0 -194.5 38t-154.5 105t-111 156.5t-68.5 193t-22.5 214.5z" />
<glyph unicode="D" horiz-adv-x="1204" d="M174 25v1314q0 11 7 18t18 7h303q149 0 266.5 -55t190 -150t110 -216t37.5 -261t-37.5 -261t-110 -216t-190 -150t-266.5 -55h-303q-11 0 -18 7t-7 18zM223 45h275q141 0 251 53.5t176 144.5t99 202.5t33 236.5t-33 236.5t-99 202.5t-176 144.5t-251 53.5h-275v-1274z " />
<glyph unicode="E" horiz-adv-x="1021" d="M174 25v1314q0 11 7 18t18 7h694q10 0 16 -7t6 -16q0 -22 -22 -22h-670v-584h439q9 0 15.5 -6.5t6.5 -15.5t-6.5 -16t-15.5 -7h-439v-645h695q22 0 22 -22q0 -9 -6 -16t-16 -7h-719q-11 0 -18 7t-7 18z" />
<glyph unicode="F" horiz-adv-x="964" d="M174 8v1331q0 11 7 18t18 7h698q10 0 16.5 -7t6.5 -16t-6.5 -15.5t-16.5 -6.5h-674v-584h443q9 0 15.5 -6.5t6.5 -15.5t-6.5 -16t-15.5 -7h-443v-682q0 -10 -6.5 -17t-17.5 -7t-18 7t-7 17z" />
<glyph unicode="G" horiz-adv-x="1267" d="M113 682q0 112 23.5 216t70.5 193t112.5 155.5t155 104.5t193.5 38q256 0 407 -215q6 -9 6 -17q0 -9 -7 -15.5t-17 -6.5q-13 0 -21 12q-138 196 -368 196q-97 0 -180 -36.5t-142 -99t-101 -146.5t-62.5 -180.5t-20.5 -198.5q0 -101 19.5 -196.5t61 -180.5t100.5 -149 t143 -101t184 -37q115 0 228 47t183 132v376h-387q-9 0 -15.5 6.5t-6.5 16.5q0 9 6.5 14.5t15.5 5.5h412q22 0 22 -22v-393q0 -17 -10 -29q-81 -97 -199.5 -147t-248.5 -50q-108 0 -200 38.5t-157 105t-110.5 156t-67.5 193t-22 214.5z" />
<glyph unicode="H" horiz-adv-x="1263" d="M174 8v1348q0 10 7 17t18 7t17.5 -7t6.5 -17v-629h817v629q0 10 7 17t18 7t18 -7t7 -17v-1348q0 -10 -7 -17t-18 -7t-18 7t-7 17v674h-817v-674q0 -10 -6.5 -17t-17.5 -7t-18 7t-7 17z" />
<glyph unicode="I" horiz-adv-x="417" d="M184 8v1348q0 10 7 17t18 7t17.5 -7t6.5 -17v-1348q0 -10 -6.5 -17t-17.5 -7t-18 7t-7 17z" />
<glyph unicode="J" horiz-adv-x="1007" d="M74 287q-1 5 -1 10q0 9 3 15q6 10 20 10q19 0 23 -21q67 -281 344 -281q91 0 157.5 33t103.5 90.5t54 123t17 141.5v948q0 10 6.5 17t17.5 7t18 -7t7 -17v-950q0 -65 -12 -124.5t-40.5 -116.5t-71 -98.5t-108.5 -66.5t-149 -25q-87 0 -157.5 27t-116 73t-74 99t-41.5 113 z" />
<glyph unicode="K" horiz-adv-x="1122" d="M174 8v1348q0 10 7 17t18 7t17.5 -7t6.5 -17v-875l727 885q11 14 23 14q10 0 16 -6t6 -14q0 -11 -12 -27l-399 -483l438 -825q6 -12 6 -19q0 -9 -8 -15.5t-16 -6.5q-17 0 -27 20l-426 807l-328 -403v-400q0 -10 -6.5 -17t-17.5 -7t-18 7t-7 17z" />
<glyph unicode="L" horiz-adv-x="956" d="M174 25v1331q0 10 7 17t18 7t17.5 -7t6.5 -17v-1311h666q22 0 22 -22q0 -9 -6.5 -16t-15.5 -7h-690q-11 0 -18 7t-7 18z" />
<glyph unicode="M" horiz-adv-x="1474" d="M174 8v1346q0 26 25 26q17 0 26 -24l512 -1301l512 1301q9 24 27 24q24 0 24 -26v-1346q0 -24 -22 -24q-25 0 -25 24v1235l-489 -1239q-7 -20 -27 -20q-19 0 -26 20l-490 1239v-1235q0 -24 -24 -24q-23 0 -23 24z" />
<glyph unicode="N" horiz-adv-x="1251" d="M174 8v1348q0 24 23 24q14 0 24 -16l809 -1280v1272q0 24 25 24q22 0 22 -24v-1350q0 -22 -22 -22q-15 0 -25 16l-809 1278v-1270q0 -24 -24 -24q-23 0 -23 24z" />
<glyph unicode="O" horiz-adv-x="1327" d="M113 682q0 139 36 265t103 225t174 158t238 59q106 0 196 -38.5t154.5 -105.5t110 -156.5t67.5 -192.5t22 -214t-22 -214t-67.5 -192.5t-110 -156.5t-154.5 -105.5t-196 -38.5q-131 0 -238 59t-174 158t-103 225t-36 265zM162 682q0 -102 19.5 -198t60.5 -180.5 t99 -147.5t141.5 -99.5t181.5 -36.5t181.5 36.5t141.5 99.5t98.5 147.5t60 180.5t19.5 198t-19.5 197.5t-60 180t-98.5 147.5t-141.5 99.5t-181.5 36.5t-181.5 -36.5t-141.5 -99.5t-99 -147.5t-60.5 -180t-19.5 -197.5z" />
<glyph unicode="P" horiz-adv-x="1093" d="M174 8v1331q0 11 7 18t18 7h467q169 0 270.5 -103t101.5 -264t-101.5 -263.5t-270.5 -102.5h-443v-623q0 -10 -6.5 -17t-17.5 -7t-18 7t-7 17zM223 676h449q144 0 230.5 89.5t86.5 231.5t-86.5 232t-230.5 90h-449v-643z" />
<glyph unicode="Q" horiz-adv-x="1327" d="M113 682q0 139 36 265t103 225t174 158t238 59q106 0 196 -38.5t154.5 -105.5t110 -156.5t67.5 -192.5t22 -214q0 -198 -71 -365.5t-203 -257.5l127 -264q4 -12 4 -16q0 -9 -6 -14t-14 -5q-13 0 -21 15l-127 260q-114 -60 -239 -60q-131 0 -238 59t-174 158t-103 225 t-36 265zM162 682q0 -102 19.5 -198t60.5 -180.5t99 -147.5t141.5 -99.5t181.5 -36.5q121 0 219 56l-129 270q-4 8 -4 16q0 9 6.5 16t15.5 7q14 0 21 -14l129 -271q119 85 181 241t62 341q0 102 -19.5 197.5t-60 180t-98.5 147.5t-141.5 99.5t-181.5 36.5t-181.5 -36.5 t-141.5 -99.5t-99 -147.5t-60.5 -180t-19.5 -197.5z" />
<glyph unicode="R" horiz-adv-x="1165" d="M174 8v1331q0 11 7 18t18 7h479q170 0 271.5 -100t101.5 -263q0 -142 -83.5 -240t-226.5 -118l312 -620q4 -8 4 -17t-7 -15.5t-16 -6.5q-15 0 -24 18l-320 637h-12h-455v-631q0 -10 -6.5 -17t-17.5 -7t-18 7t-7 17zM223 684h461q145 0 231 88t86 229t-86 229.5t-231 88.5 h-461v-635z" />
<glyph unicode="S" horiz-adv-x="1079" d="M123 162q0 8 5.5 14t12.5 6q10 0 19 -6q173 -158 393 -158q175 0 277 79t102 206q0 29 -4 54.5t-14 48.5t-20.5 42t-31 38.5t-37 34t-47 32.5t-53 30t-63 30.5t-68.5 31t-78 33.5q-205 88 -293 178t-88 213q0 102 54.5 175.5t146 109t207.5 35.5q232 0 385 -138 q8 -8 8 -16t-6 -14.5t-15 -6.5q-6 0 -16 7q-158 125 -354 125q-163 0 -262 -73.5t-99 -201.5q0 -53 18 -98.5t46.5 -79.5t78 -67t98.5 -57.5t122 -55.5q100 -43 162.5 -73.5t120 -67.5t87 -74t47 -85t17.5 -108q0 -145 -116.5 -237.5t-313.5 -92.5q-128 0 -237 47t-183 123 q-8 8 -8 17z" />
<glyph unicode="T" horiz-adv-x="978" d="M27 1341q0 23 24 23h877q24 0 24 -23q0 -9 -7 -15.5t-17 -6.5h-414v-1311q0 -10 -7 -17t-18 -7t-17.5 7t-6.5 17v1311h-414q-10 0 -17 6.5t-7 15.5z" />
<glyph unicode="U" horiz-adv-x="1277" d="M164 489v867q0 10 7 17t17 7q11 0 18 -7t7 -17v-873q0 -222 117.5 -342.5t308.5 -120.5t308.5 120.5t117.5 342.5v873q0 10 7 17t18 7q10 0 17 -7t7 -17v-867q0 -244 -132.5 -379t-342.5 -135t-342.5 135t-132.5 379z" />
<glyph unicode="V" horiz-adv-x="1097" d="M45 1356q0 10 7 17t18 7q17 0 24 -20l455 -1294l455 1294q7 20 24 20q11 0 18 -7t7 -17q0 -5 -4 -17l-476 -1337q-7 -18 -24 -18q-18 0 -25 18l-475 1337q-4 12 -4 17z" />
<glyph unicode="W" horiz-adv-x="1716" d="M57 1358q0 22 25 22q16 0 22 -18l375 -1280l355 1278q6 20 24 20q19 0 25 -20l354 -1278l375 1280q6 18 22 18q25 0 25 -22q0 -7 -4 -23l-395 -1333q-4 -18 -23 -18q-21 0 -25 18l-354 1278l-354 -1278q-4 -18 -25 -18q-17 0 -22 18l-396 1333q-4 16 -4 23z" />
<glyph unicode="X" horiz-adv-x="1130" d="M94 6q0 11 8 23l437 655l-435 655q-6 9 -6 19q0 9 7.5 15.5t17.5 6.5q13 0 24 -18l418 -635l418 635q11 18 25 18q10 0 17 -6.5t7 -15.5q0 -10 -6 -19l-434 -655l436 -655q8 -12 8 -23q0 -8 -6 -15t-16 -7q-17 0 -27 16l-422 641l-422 -641q-10 -16 -26 -16 q-10 0 -16.5 7t-6.5 15z" />
<glyph unicode="Y" horiz-adv-x="987" d="M37 1356q0 11 7 17.5t17 6.5q16 0 25 -18l408 -744l407 744q9 18 25 18q10 0 17 -6.5t7 -17.5q0 -7 -8 -23l-424 -764v-561q0 -10 -7 -17t-17 -7q-11 0 -18 7t-7 17v561l-424 764q-8 16 -8 23z" />
<glyph unicode="Z" horiz-adv-x="1101" d="M139 20q0 8 6 17l770 1284h-733q-9 0 -14.5 6t-5.5 14q0 23 20 23h768q10 0 17.5 -7t7.5 -16q0 -6 -6 -18l-768 -1280h766q9 0 15.5 -5.5t6.5 -14.5t-6.5 -16t-15.5 -7h-801q-27 0 -27 20z" />
<glyph unicode="[" horiz-adv-x="569" d="M195 -281v1661q0 11 7 18t17 7h246q9 0 15.5 -7t6.5 -16t-6.5 -15.5t-15.5 -6.5h-221v-1620h221q9 0 15.5 -7t6.5 -16t-6.5 -15.5t-15.5 -6.5h-246q-11 0 -17.5 6.5t-6.5 17.5z" />
<glyph unicode="\" horiz-adv-x="876" d="M164 1430q0 24 24 24q18 0 23 -16l498 -1663q4 -12 4 -17q0 -24 -25 -24q-18 0 -24 22l-496 1655q-4 12 -4 19z" />
<glyph unicode="]" horiz-adv-x="569" d="M82 -283q0 9 6.5 16t15.5 7h222v1620h-222q-9 0 -15.5 6.5t-6.5 15.5t6.5 16t15.5 7h246q10 0 17.5 -7.5t7.5 -17.5v-1661q0 -10 -7 -17t-18 -7h-246q-9 0 -15.5 6.5t-6.5 15.5z" />
<glyph unicode="^" horiz-adv-x="913" d="M123 748q0 8 4 16l307 598q9 18 23 18q13 0 22 -18l307 -598q5 -10 5 -16q0 -8 -6.5 -13.5t-16.5 -5.5q-13 0 -20 14l-291 572l-291 -572q-7 -14 -21 -14q-22 0 -22 19z" />
<glyph unicode="_" horiz-adv-x="796" d="M-2 -25h801v-22h-801v22z" />
<glyph unicode="`" horiz-adv-x="604" d="M164 1294q0 8 6.5 14.5t15.5 6.5q13 0 21 -12l145 -216q6 -9 6 -16q0 -8 -6 -14t-16 -6q-12 0 -19 10l-147 215q-6 12 -6 18z" />
<glyph unicode="a" horiz-adv-x="991" d="M127 242q0 121 97.5 193.5t250.5 72.5q99 0 184 -38t129 -103v180q0 323 -311 323q-142 0 -272 -71q-9 -6 -19 -6t-16 6t-6 14q0 12 14 21q127 79 301 79q176 0 267.5 -95.5t91.5 -268.5v-541q0 -10 -7 -17t-18 -7t-18 7t-7 17v111q-106 -144 -313 -144q-150 0 -249 75.5 t-99 191.5zM176 242q0 -103 88 -164.5t211 -61.5q131 0 222 65.5t91 160.5q0 99 -92.5 162t-220.5 63q-132 0 -215.5 -60.5t-83.5 -164.5z" />
<glyph unicode="b" horiz-adv-x="1058" d="M164 8v1348q0 10 7 17t17 7q11 0 18 -7t7 -17v-686q49 116 142 179.5t208 63.5q173 0 283 -131t110 -338t-110 -338t-283 -131q-114 0 -207.5 63.5t-142.5 180.5v-211q0 -10 -7 -17t-18 -7q-10 0 -17 7t-7 17zM213 444q0 -99 29 -180.5t78 -134t111.5 -81t129.5 -28.5 q148 0 247 114t99 310t-99 310t-247 114q-67 0 -129.5 -28.5t-111.5 -81t-78 -134t-29 -180.5z" />
<glyph unicode="c" horiz-adv-x="925" d="M102 444q0 125 47.5 231t140.5 172t214 66q111 0 194.5 -55t126.5 -133q6 -12 6 -20t-6 -14.5t-16 -6.5q-13 0 -25 18q-44 76 -117 121t-163 45q-107 0 -188.5 -60t-122.5 -155.5t-41 -208.5t41 -208.5t122.5 -155.5t188.5 -60q90 0 163 45t117 121q13 19 25 19 q10 0 16 -6.5t6 -14.5t-6 -20q-44 -78 -127 -133.5t-194 -55.5q-121 0 -214 66t-140.5 172t-47.5 231z" />
<glyph unicode="d" horiz-adv-x="1058" d="M102 444q0 207 110.5 338t283.5 131q115 0 208 -63.5t142 -179.5v686q0 10 7 17t17 7q11 0 18 -7t7 -17v-1348q0 -10 -7 -17t-18 -7q-10 0 -17 7t-7 17v211q-49 -117 -142.5 -180.5t-207.5 -63.5q-173 0 -283.5 131t-110.5 338zM152 444q0 -196 99 -310t247 -114 q67 0 129.5 28.5t111.5 81t78 134t29 180.5t-29 180.5t-78 134t-111.5 81t-129.5 28.5q-148 0 -247 -114t-99 -310z" />
<glyph unicode="e" horiz-adv-x="952" d="M102 444q0 126 46 232t135.5 171.5t205.5 65.5q115 0 200.5 -64t127 -166t41.5 -224v-8q0 -21 -22 -21h-682q2 -175 93.5 -293.5t250.5 -118.5q184 0 290 158q10 17 25 17q9 0 16 -7t7 -16q0 -6 -7 -16q-124 -179 -329 -179q-94 0 -170.5 38.5t-125.5 104t-75.5 149.5 t-26.5 177zM154 475h657q-2 77 -23.5 147.5t-61 126t-101 88.5t-136.5 33q-98 0 -175 -57.5t-117 -146t-43 -191.5z" />
<glyph unicode="f" horiz-adv-x="532" d="M37 866q0 10 6.5 16.5t15.5 6.5h136v184q0 152 66.5 221.5t207.5 69.5h43q9 0 14.5 -7t5.5 -16q0 -8 -5.5 -14t-14.5 -6h-41q-119 0 -173 -57t-54 -191v-184h256q9 0 15.5 -6.5t6.5 -16.5q0 -9 -6.5 -14.5t-15.5 -5.5h-256v-838q0 -10 -7 -17t-18 -7t-17.5 7t-6.5 17v838 h-136q-9 0 -15.5 5.5t-6.5 14.5z" />
<glyph unicode="g" horiz-adv-x="1058" d="M102 457q0 197 111.5 326.5t284.5 129.5q126 0 216 -67t132 -168v203q0 11 7 17.5t17 6.5q11 0 18 -7t7 -17v-832q0 -74 -12 -138t-41.5 -122t-74.5 -99t-114.5 -65t-158.5 -24q-180 0 -316 77q-18 11 -18 23q0 8 5.5 14t12.5 6t23 -8q129 -69 293 -69q78 0 138.5 20.5 t100.5 56t65.5 87.5t36.5 110.5t11 128.5v189q-42 -101 -132.5 -168.5t-215.5 -67.5q-173 0 -284.5 130t-111.5 327zM152 457q0 -184 97.5 -298t248.5 -114q69 0 131.5 28t111 79t77 130.5t28.5 174.5t-28.5 174t-77 130t-111 79t-131.5 28q-151 0 -248.5 -113.5 t-97.5 -297.5z" />
<glyph unicode="h" horiz-adv-x="1044" d="M164 8v1348q0 10 7 17t17 7q11 0 18 -7t7 -17v-662q48 107 137 163t199 56q163 0 252.5 -104t89.5 -287v-514q0 -10 -7 -17t-18 -7q-10 0 -17 7t-7 17v512q0 163 -76 254.5t-219 91.5q-140 0 -237 -104.5t-97 -251.5v-502q0 -10 -7 -17t-18 -7q-10 0 -17 7t-7 17z" />
<glyph unicode="i" d="M164 8v873q0 11 7 17.5t17 6.5q11 0 18 -7t7 -17v-873q0 -10 -7 -17t-18 -7q-10 0 -17 7t-7 17zM164 1092v129q0 11 7 17.5t17 6.5q11 0 18 -7t7 -17v-129q0 -10 -7.5 -17.5t-17.5 -7.5t-17 7t-7 18z" />
<glyph unicode="j" d="M-68 -377q0 9 7 15t16 6h33q101 0 138.5 52t37.5 167v1018q0 11 7 17.5t17 6.5q11 0 18 -7t7 -17v-1016q0 -131 -50.5 -197.5t-172.5 -66.5h-33q-10 0 -17.5 6t-7.5 16zM164 1092v129q0 11 7 17.5t17 6.5q11 0 18 -7t7 -17v-129q0 -10 -7.5 -17.5t-17.5 -7.5t-17 7t-7 18 z" />
<glyph unicode="k" horiz-adv-x="864" d="M164 8v1348q0 10 7 17t17 7q11 0 18 -7t7 -17v-948l510 487q10 10 20 10t17.5 -6.5t7.5 -15.5q0 -11 -10 -21l-336 -319l362 -520q7 -10 7 -17q0 -9 -7.5 -15.5t-17.5 -6.5q-12 0 -21 12l-358 512l-174 -166v-334q0 -10 -7 -17t-18 -7q-10 0 -17 7t-7 17z" />
<glyph unicode="l" d="M164 8v1348q0 10 7 17t17 7q11 0 18 -7t7 -17v-1348q0 -10 -7 -17t-18 -7q-10 0 -17 7t-7 17z" />
<glyph unicode="m" horiz-adv-x="1722" d="M164 8v873q0 11 7 17.5t17 6.5q11 0 18 -7t7 -17v-187q48 107 137 163t199 56q129 0 212 -67t113 -189q45 122 139.5 189t213.5 67q163 0 252.5 -104t89.5 -287v-514q0 -10 -7 -17t-18 -7q-10 0 -17 7t-7 17v512q0 163 -76 254.5t-219 91.5q-139 0 -236.5 -106.5 t-97.5 -249.5v-502q0 -10 -7 -17t-18 -7q-10 0 -17 7t-7 17v512q0 163 -76 254.5t-219 91.5q-140 0 -237 -104.5t-97 -251.5v-502q0 -10 -7 -17t-18 -7q-10 0 -17 7t-7 17z" />
<glyph unicode="n" horiz-adv-x="1044" d="M164 8v873q0 11 7 17.5t17 6.5q11 0 18 -7t7 -17v-187q48 107 137 163t199 56q163 0 252.5 -104t89.5 -287v-514q0 -10 -7 -17t-18 -7q-10 0 -17 7t-7 17v512q0 163 -76 254.5t-219 91.5q-140 0 -237 -104.5t-97 -251.5v-502q0 -10 -7 -17t-18 -7q-10 0 -17 7t-7 17z" />
<glyph unicode="o" horiz-adv-x="1007" d="M102 444q0 91 28.5 175.5t79.5 150t127.5 104.5t166.5 39q119 0 212 -67t141 -173.5t48 -228.5t-48 -228.5t-141 -173.5t-212 -67q-90 0 -166.5 39t-127.5 104.5t-79.5 150t-28.5 175.5zM152 444q0 -111 43 -207.5t124.5 -156.5t184.5 -60t184.5 60t124.5 156.5t43 207.5 t-43 207.5t-124.5 156.5t-184.5 60t-184.5 -60t-124.5 -156.5t-43 -207.5z" />
<glyph unicode="p" horiz-adv-x="1058" d="M164 -375v1256q0 11 7 17.5t17 6.5q11 0 18 -7t7 -17v-211q49 116 142 179.5t208 63.5q173 0 283 -131t110 -338t-110 -338t-283 -131q-114 0 -207.5 63.5t-142.5 180.5v-594q0 -10 -7 -17t-18 -7q-10 0 -17 6.5t-7 17.5zM213 444q0 -99 29 -180.5t78 -134t111.5 -81 t129.5 -28.5q148 0 247 114t99 310t-99 310t-247 114q-67 0 -129.5 -28.5t-111.5 -81t-78 -134t-29 -180.5z" />
<glyph unicode="q" horiz-adv-x="1058" d="M102 444q0 207 110.5 338t283.5 131q115 0 208 -63.5t142 -179.5v211q0 11 7 17.5t17 6.5q11 0 18 -7t7 -17v-1256q0 -10 -7 -17t-18 -7q-10 0 -17 6.5t-7 17.5v594q-49 -117 -142.5 -180.5t-207.5 -63.5q-173 0 -283.5 131t-110.5 338zM152 444q0 -196 99 -310t247 -114 q67 0 129.5 28.5t111.5 81t78 134t29 180.5t-29 180.5t-78 134t-111.5 81t-129.5 28.5q-148 0 -247 -114t-99 -310z" />
<glyph unicode="r" horiz-adv-x="550" d="M164 8v873q0 11 7 17.5t17 6.5q11 0 18 -7t7 -17v-219q29 105 113 172t186 67h4q8 0 14.5 -6t6.5 -16q0 -9 -7 -15t-16 -6h-4q-85 0 -154 -55.5t-106 -143t-37 -184.5v-467q0 -10 -7 -17t-18 -7q-10 0 -17 7t-7 17z" />
<glyph unicode="s" horiz-adv-x="843" d="M113 119q0 20 20 20q11 0 17 -6q58 -53 137.5 -84t154.5 -31q123 0 188.5 52.5t65.5 134.5q0 87 -56.5 131t-201.5 92q-169 56 -238 116t-69 154q0 102 82 158.5t219 56.5q152 0 277 -88q12 -8 12 -18q0 -9 -6 -16t-15 -7q-6 0 -16 7q-52 36 -120 57.5t-132 21.5 q-114 0 -183 -43.5t-69 -128.5q0 -80 56.5 -126t209.5 -101q70 -25 112 -42.5t82.5 -40.5t60.5 -47.5t32 -58t12 -77.5q0 -103 -80 -166.5t-223 -63.5q-90 0 -174.5 34t-146.5 91q-8 8 -8 19z" />
<glyph unicode="t" horiz-adv-x="559" d="M45 866q0 10 7 16.5t16 6.5h192v305q0 10 7 17.5t18 7.5q10 0 17 -7t7 -18v-305h228q9 0 15.5 -6.5t6.5 -16.5q0 -9 -6.5 -14.5t-15.5 -5.5h-228v-838q0 -10 -6.5 -17t-17.5 -7t-18 7t-7 17v838h-192q-9 0 -16 5.5t-7 14.5z" />
<glyph unicode="u" horiz-adv-x="1044" d="M154 367v514q0 11 7 17.5t17 6.5q11 0 18 -7t7 -17v-512q0 -163 76 -254.5t219 -91.5q140 0 236.5 104.5t96.5 251.5v502q0 10 7 17t18 7t18 -7t7 -17v-873q0 -10 -7 -17t-18 -7t-18 7t-7 17v187q-49 -107 -137.5 -163.5t-197.5 -56.5q-163 0 -252.5 104.5t-89.5 287.5z " />
<glyph unicode="v" horiz-adv-x="831" d="M53 883q0 9 7.5 15.5t19.5 6.5q17 0 24 -22l312 -815l311 815q7 22 25 22q12 0 19 -6.5t7 -15.5q0 -7 -6 -25l-332 -854q-7 -20 -24 -20q-18 0 -25 20l-332 854q-6 18 -6 25z" />
<glyph unicode="w" horiz-adv-x="1273" d="M61 885q0 8 7.5 14t19.5 6q18 0 23 -18l243 -809l260 807q7 20 23 20q15 0 22 -20l261 -807l243 809q5 18 23 18q12 0 19 -6t7 -14q0 -9 -4 -21l-262 -860q-6 -20 -24 -20q-23 0 -31 24l-254 793l-254 -793q-8 -24 -31 -24q-18 0 -24 20l-262 860q-5 15 -5 21z" />
<glyph unicode="x" horiz-adv-x="880" d="M106 6q0 8 9 21l299 419l-297 420q-6 9 -6 17q0 10 7 16t15 6q14 0 23 -12l284 -404l285 404q9 12 23 12q8 0 15 -6t7 -16q0 -8 -6 -17l-297 -420l299 -419q8 -12 8 -21t-7 -15.5t-19 -6.5t-21 12l-287 407l-286 -407q-9 -12 -21 -12t-19.5 6.5t-7.5 15.5z" />
<glyph unicode="y" horiz-adv-x="833" d="M61 883q0 9 7.5 15.5t19.5 6.5q18 0 25 -22l313 -817l309 817q7 22 25 22q12 0 19 -6.5t7 -15.5q0 -7 -6 -25l-331 -854q-52 -131 -127 -226.5t-195 -170.5q-12 -6 -21 -6q-10 0 -16 6t-6 14q0 12 20 25q195 122 293 360l-329 852q-7 21 -7 25z" />
<glyph unicode="z" horiz-adv-x="849" d="M109 20q0 8 6 17l561 809h-539q-9 0 -15.5 5.5t-6.5 14.5q0 10 6.5 16.5t15.5 6.5h584q10 0 16 -6.5t6 -14.5q0 -7 -6 -16l-563 -809h551q9 0 16 -5.5t7 -14.5q0 -10 -7 -16.5t-16 -6.5h-594q-22 0 -22 20z" />
<glyph unicode="{" horiz-adv-x="583" d="M102 543q0 9 6.5 15.5t16.5 6.5h8q79 0 105 32t26 110v565q0 66 30.5 99.5t102.5 33.5h72q10 0 16.5 -7t6.5 -16t-6.5 -15.5t-16.5 -6.5h-70q-46 0 -66 -18.5t-20 -65.5v-567q0 -76 -22 -114.5t-88 -51.5q66 -13 88 -51.5t22 -114.5v-567q0 -47 20 -65.5t66 -18.5h70 q10 0 16.5 -7t6.5 -16t-6.5 -15.5t-16.5 -6.5h-72q-72 0 -102.5 33.5t-30.5 99.5v565q0 78 -26 109.5t-105 31.5h-8q-10 0 -16.5 7t-6.5 16z" />
<glyph unicode="|" horiz-adv-x="475" d="M215 -383v1866q0 9 7 15.5t16 6.5t15.5 -6.5t6.5 -15.5v-1866q0 -9 -6.5 -16t-15.5 -7t-16 7t-7 16z" />
<glyph unicode="}" horiz-adv-x="583" d="M92 -297q0 9 6.5 16t16.5 7h69q46 0 66 18.5t20 65.5v567q0 76 22.5 114.5t88.5 51.5q-66 13 -88.5 51.5t-22.5 114.5v567q0 47 -20 65.5t-66 18.5h-69q-10 0 -16.5 6.5t-6.5 15.5t6.5 16t16.5 7h71q72 0 102.5 -33.5t30.5 -99.5v-565q0 -78 26.5 -110t105.5 -32h8 q22 0 22 -22q0 -9 -6 -16t-16 -7h-8q-80 0 -106 -31.5t-26 -109.5v-565q0 -66 -30.5 -99.5t-102.5 -33.5h-71q-10 0 -16.5 6.5t-6.5 15.5z" />
<glyph unicode="~" horiz-adv-x="995" d="M123 483q0 11 8 19q25 26 72 69q58 56 131 56q43 0 74.5 -14t99.5 -58l24 -16q7 -5 25.5 -17t24 -15.5t19 -11.5t20 -10t18 -6t21.5 -5t22 -1q33 0 54 9t50 36q31 29 70 68q10 10 16 10q8 0 14.5 -5.5t6.5 -12.5q0 -11 -8 -19q-41 -41 -72 -70q-57 -55 -131 -55 q-43 0 -76 14.5t-98 57.5l-25 16q-9 6 -29.5 18.5t-27.5 17t-21.5 12.5t-23.5 10.5t-21.5 5t-25.5 2.5q-33 0 -54.5 -9t-50.5 -36q-16 -14 -69 -68q-10 -10 -17 -10q-8 0 -14 5.5t-6 12.5z" />
<glyph unicode="&#xa1;" horiz-adv-x="442" d="M174 866q0 20 13.5 33.5t33.5 13.5t33.5 -13.5t13.5 -33.5t-13.5 -33.5t-33.5 -13.5t-33.5 13.5t-13.5 33.5zM197 250l8 381q0 24 16 24q17 0 17 -24l8 -381v-625q0 -10 -7 -17t-18 -7t-17.5 6.5t-6.5 17.5v625z" />
<glyph unicode="&#xa2;" horiz-adv-x="1026" d="M154 682q0 121 44.5 225t133 171t203.5 73v211q0 22 22 22q9 0 16 -6t7 -16v-213q101 -6 178 -59.5t119 -126.5q6 -12 6 -21q0 -8 -6.5 -14t-16.5 -6q-12 0 -24 18q-44 76 -117.5 121t-163.5 45q-107 0 -188.5 -60t-122.5 -155.5t-41 -208.5t41 -208.5t122.5 -155.5 t188.5 -60q90 0 163.5 45t117.5 121q12 18 24 18q10 0 16.5 -6t6.5 -14q0 -9 -6 -21q-41 -74 -118.5 -127.5t-178.5 -60.5v-211q0 -10 -7 -16t-16 -6q-22 0 -22 22v211q-115 6 -203.5 72.5t-133 170.5t-44.5 226z" />
<glyph unicode="&#xa3;" horiz-adv-x="1198" d="M133 23q0 9 7 15.5t16 6.5h313v645h-281q-9 0 -15.5 7t-6.5 16t6.5 15.5t15.5 6.5h281v297q0 186 86.5 271.5t261.5 85.5q136 0 240 -52q18 -9 18 -20q0 -9 -5.5 -16t-14.5 -7q-7 0 -19 6q-94 43 -215 43q-159 0 -231 -71.5t-72 -239.5v-297h463q9 0 16 -6t7 -16 q0 -9 -7 -16t-16 -7h-463v-645h512q9 0 16 -6t7 -16q0 -9 -7 -16t-16 -7h-874q-9 0 -16 7t-7 16z" />
<glyph unicode="&#xa4;" horiz-adv-x="1265" d="M164 180q0 9 6 15l168 165q-111 130 -111 322q0 193 109 317l-166 168q-6 6 -6 15q0 20 20 20q11 0 19 -8l162 -164q110 107 268 107t268 -107l162 164q8 8 18 8q21 0 21 -20q0 -9 -6 -15l-166 -168q108 -123 108 -317t-110 -322l168 -165q6 -6 6 -15q0 -20 -21 -20 q-10 0 -16 6l-164 166q-111 -105 -268 -105t-268 105l-164 -166q-6 -6 -17 -6q-20 0 -20 20zM272 682q0 -113 43.5 -206.5t127 -149.5t190.5 -56t190.5 56.5t126.5 149.5t43 206t-43 206t-126.5 149.5t-190.5 56.5t-190.5 -56t-127 -149.5t-43.5 -206.5z" />
<glyph unicode="&#xa5;" horiz-adv-x="1056" d="M92 1358q0 10 7.5 16t17.5 6q15 0 24 -18l387 -744l387 744q9 18 25 18q10 0 17.5 -6t7.5 -16q0 -7 -9 -25l-297 -563h244q9 0 16 -6.5t7 -15.5t-7 -16t-16 -7h-268l-82 -156v-112h350q9 0 16 -7t7 -16t-7 -15.5t-16 -6.5h-350v-404q0 -10 -7 -17t-18 -7q-10 0 -17 7 t-7 17v404h-350q-9 0 -16 6.5t-7 15.5t7 16t16 7h350v112l-82 156h-268q-9 0 -16 7t-7 16t7 15.5t16 6.5h243l-297 563q-8 16 -8 25z" />
<glyph unicode="&#xa6;" horiz-adv-x="475" d="M215 -383v776q0 9 7 16t16 7t15.5 -7t6.5 -16v-776q0 -9 -6.5 -16t-15.5 -7t-16 7t-7 16zM215 707v776q0 9 7 15.5t16 6.5t15.5 -6.5t6.5 -15.5v-776q0 -9 -6.5 -16t-15.5 -7t-16 7t-7 16z" />
<glyph unicode="&#xa7;" horiz-adv-x="1075" d="M164 -70q0 9 6.5 15t15.5 6q11 0 23 -12q139 -123 344 -123q127 0 209 59t82 154q0 32 -7 59t-25.5 51t-35 41t-51 38.5t-57 34.5t-69.5 37.5t-73 39.5q-76 42 -116.5 65.5t-86 53.5t-66.5 50.5t-40.5 48t-26 55t-6.5 63.5q0 158 193 258q-74 54 -105.5 105.5 t-31.5 117.5q0 117 94 179.5t256 62.5q164 0 297 -86q12 -9 12 -19q0 -9 -5.5 -15.5t-14.5 -6.5q-7 0 -19 6q-121 80 -268 80q-141 0 -222 -50t-81 -151q0 -49 19 -89t63.5 -77t90.5 -65t126 -70q52 -27 77.5 -41t64.5 -36.5t57.5 -36.5t44.5 -35t37.5 -38.5t24 -40.5 t17 -48t4.5 -54q0 -83 -44.5 -150t-120.5 -112q77 -52 110 -100.5t33 -122.5q0 -110 -95 -183t-247 -73q-220 0 -377 137q-10 10 -10 18zM231 668q0 -86 56.5 -137.5t238.5 -151.5q35 -19 97 -51t90 -49q67 37 111 100t44 133q0 51 -16.5 89t-58.5 73.5t-88 62.5t-132 70 q-91 47 -159 90q-38 -19 -66.5 -39t-57 -48t-44 -64t-15.5 -78z" />
<glyph unicode="&#xa8;" horiz-adv-x="731" d="M154 1165q0 20 13.5 33.5t33.5 13.5t33.5 -13.5t13.5 -33.5t-13.5 -33.5t-33.5 -13.5t-33.5 13.5t-13.5 33.5zM483 1165q0 20 13.5 33.5t33.5 13.5t34 -13.5t14 -33.5t-14 -33.5t-34 -13.5t-33.5 13.5t-13.5 33.5z" />
<glyph unicode="&#xa9;" horiz-adv-x="1660" d="M123 682q0 146 53 276.5t146 225.5t225 150t284 55q202 0 364.5 -94t252.5 -255.5t90 -357.5t-90 -357.5t-252.5 -255.5t-364.5 -94q-152 0 -284 55t-225 150t-146 225.5t-53 276.5zM162 682q0 -139 51 -262.5t139 -213t212.5 -142t266.5 -52.5q189 0 342.5 89t239.5 242 t86 339t-86 339t-239.5 242t-342.5 89q-142 0 -266.5 -52.5t-212.5 -142t-139 -213t-51 -262.5zM514 684q0 136 94.5 234t229.5 98q164 0 258 -139q6 -9 6 -17t-6 -13t-15 -5q-11 0 -24 18q-81 113 -219 113q-119 0 -199 -83.5t-80 -205.5t80 -205.5t199 -83.5 q138 0 219 113q13 18 24 18q9 0 15 -5t6 -13q0 -7 -6 -16q-95 -140 -258 -140q-135 0 -229.5 98t-94.5 234z" />
<glyph unicode="&#xaa;" horiz-adv-x="755" d="M143 938q0 86 67 133t171 47q62 0 120 -24.5t89 -63.5v119q0 111 -51 158t-156 47q-97 0 -180 -41q-8 -4 -15 -4q-18 0 -18 16q0 10 12 16q91 48 203 48q242 0 242 -240v-363q0 -7 -5.5 -12.5t-13.5 -5.5t-13 5t-5 13v66q-29 -41 -85.5 -65.5t-123.5 -24.5 q-102 0 -170 49t-68 127zM180 938q0 -67 59 -106t140 -39q88 0 149.5 41t61.5 104q0 65 -61 106t-148 41q-89 0 -145 -38.5t-56 -108.5z" />
<glyph unicode="&#xab;" horiz-adv-x="1079" d="M113 436q0 9 10 19l346 340q8 8 18 8q9 0 16 -7t7 -16q0 -10 -10 -20l-332 -324l332 -323q10 -10 10 -21q0 -9 -7 -15.5t-16 -6.5q-10 0 -18 8l-346 340q-10 10 -10 18zM539 436q0 9 10 19l346 340q8 8 18 8q9 0 16 -7t7 -16q0 -10 -10 -20l-332 -324l332 -323 q10 -10 10 -21q0 -9 -7 -15.5t-16 -6.5q-10 0 -18 8l-346 340q-10 10 -10 18z" />
<glyph unicode="&#xac;" horiz-adv-x="1253" d="M143 639q0 9 7 16t16 7h881q9 0 15.5 -7t6.5 -16v-436q0 -11 -7.5 -18t-17.5 -7t-17 7t-7 18v413h-854q-9 0 -16 7t-7 16z" />
<glyph unicode="&#xad;" horiz-adv-x="806" d="M133 512q0 9 7 16t16 7h495q9 0 16 -7t7 -16t-7 -16t-16 -7h-495q-9 0 -16 7t-7 16z" />
<glyph unicode="&#xae;" horiz-adv-x="864" d="M92 1047q0 145 94 243.5t248 98.5t246 -98t92 -244q0 -145 -92 -241.5t-246 -96.5q-155 0 -248.5 96.5t-93.5 241.5zM129 1047q0 -134 83 -220t222 -86q138 0 219.5 85.5t81.5 220.5t-81.5 222t-219.5 87q-139 0 -222 -87t-83 -222zM340 887v330q0 14 14 14h97 q46 0 71 -25t25 -69q0 -74 -74 -95l78 -149q7 -14 -6 -19q-11 -5 -19 7l-84 159h-73v-153q0 -6 -4.5 -10.5t-10.5 -4.5q-14 0 -14 15zM369 1067h77q72 0 72 70q0 67 -69 67h-80v-137z" />
<glyph unicode="&#xaf;" horiz-adv-x="800" d="M164 1155q0 21 20 21h432q9 0 15 -6t6 -15q0 -20 -21 -20h-432q-20 0 -20 20z" />
<glyph unicode="&#xb0;" horiz-adv-x="638" d="M123 1180q0 87 54 143.5t142 56.5t142.5 -56.5t54.5 -143.5t-54.5 -144t-142.5 -57t-142 56.5t-54 144.5zM166 1180q0 -75 42 -118.5t111 -43.5q70 0 112 44t42 118t-42 117.5t-112 43.5t-111.5 -43.5t-41.5 -117.5z" />
<glyph unicode="&#xb1;" horiz-adv-x="1253" d="M164 23q0 9 6.5 14.5t15.5 5.5h881q9 0 16 -5.5t7 -14.5t-7 -16t-16 -7h-881q-9 0 -15.5 7t-6.5 16zM164 662q0 9 6.5 15.5t15.5 6.5h416v414q0 10 7 17t18 7t17.5 -7t6.5 -17v-414h416q9 0 16 -6.5t7 -15.5t-7 -16t-16 -7h-416v-414q0 -11 -6.5 -17.5t-17.5 -6.5t-18 7 t-7 17v414h-416q-9 0 -15.5 7t-6.5 16z" />
<glyph unicode="&#xb2;" d="M164 522v113q0 11 7 17.5t17 6.5q11 0 18 -7t7 -17v-113q0 -10 -7 -17t-18 -7q-10 0 -17 7t-7 17z" />
<glyph unicode="&#xb3;" d="M164 522v113q0 11 7 17.5t17 6.5q11 0 18 -7t7 -17v-113q0 -10 -7 -17t-18 -7q-10 0 -17 7t-7 17z" />
<glyph unicode="&#xb4;" horiz-adv-x="604" d="M246 1071q0 7 6 16l145 216q8 12 21 12q9 0 15.5 -6.5t6.5 -14.5q0 -6 -6 -18l-147 -215q-7 -10 -19 -10q-10 0 -16 6t-6 14z" />
<glyph unicode="&#xb5;" horiz-adv-x="1044" d="M154 -375v1256q0 11 7 17.5t17 6.5q11 0 18 -7t7 -17v-512q0 -164 75.5 -255t219.5 -91q140 0 236.5 104.5t96.5 251.5v502q0 10 7 17t18 7t18 -7t7 -17v-873q0 -10 -7 -17t-18 -7t-18 7t-7 17v187q-49 -107 -137.5 -163.5t-197.5 -56.5q-212 0 -293 170v-520 q0 -10 -7 -17t-18 -7q-10 0 -17 6.5t-7 17.5z" />
<glyph unicode="&#xb6;" horiz-adv-x="1034" d="M113 1001q0 165 104.5 264t267.5 99h342q10 0 16.5 -7t6.5 -16v-1335q0 -10 -7 -16t-16 -6q-22 0 -22 22v1319h-246v-1702q0 -22 -22 -22q-9 0 -16 6t-7 16v1018h-29q-162 0 -267 99.5t-105 260.5zM158 1001q0 -148 90 -234.5t239 -86.5h27v645h-29q-143 0 -235 -87.5 t-92 -236.5z" />
<glyph unicode="&#xb7;" d="M164 522v113q0 11 7 17.5t17 6.5q11 0 18 -7t7 -17v-113q0 -10 -7 -17t-18 -7q-10 0 -17 7t-7 17z" />
<glyph unicode="&#xb8;" horiz-adv-x="628" d="M156 -356q4 18 26 12q63 -18 103 -18q145 0 145 98q0 53 -34.5 76.5t-106.5 23.5q-16 0 -36.5 -2t-23.5 -2q-8 0 -13 7t-1 18l43 143h39l-37 -131q14 2 41 2q81 0 127.5 -34.5t46.5 -98.5q0 -59 -44.5 -98t-135.5 -39q-70 0 -125 20q-17 7 -14 23z" />
<glyph unicode="&#xb9;" d="M164 522v113q0 11 7 17.5t17 6.5q11 0 18 -7t7 -17v-113q0 -10 -7 -17t-18 -7q-10 0 -17 7t-7 17z" />
<glyph unicode="&#xba;" horiz-adv-x="802" d="M123 1075q0 131 77 222.5t201 91.5t201.5 -91.5t77.5 -222.5t-77.5 -222t-201.5 -91t-201 91t-77 222zM160 1075q0 -116 67 -198t174 -82t174.5 82t67.5 198t-67.5 198.5t-174.5 82.5t-174 -82.5t-67 -198.5z" />
<glyph unicode="&#xbb;" horiz-adv-x="1079" d="M143 92q0 10 11 21l331 323l-331 324q-11 11 -11 20t7 16t16 7q10 0 18 -8l346 -340q11 -11 11 -19q0 -7 -11 -18l-346 -340q-8 -8 -18 -8q-9 0 -16 6.5t-7 15.5zM569 92q0 10 11 21l331 323l-331 324q-11 11 -11 20t7 16t16 7q10 0 18 -8l346 -340q11 -11 11 -19 q0 -7 -11 -18l-346 -340q-8 -8 -18 -8q-9 0 -16 6.5t-7 15.5z" />
<glyph unicode="&#xbc;" d="M164 522v113q0 11 7 17.5t17 6.5q11 0 18 -7t7 -17v-113q0 -10 -7 -17t-18 -7q-10 0 -17 7t-7 17z" />
<glyph unicode="&#xbd;" d="M164 522v113q0 11 7 17.5t17 6.5q11 0 18 -7t7 -17v-113q0 -10 -7 -17t-18 -7q-10 0 -17 7t-7 17z" />
<glyph unicode="&#xbe;" d="M164 522v113q0 11 7 17.5t17 6.5q11 0 18 -7t7 -17v-113q0 -10 -7 -17t-18 -7q-10 0 -17 7t-7 17z" />
<glyph unicode="&#xbf;" horiz-adv-x="888" d="M102 -119q0 86 42 153t151 159q59 50 92 85.5t51.5 72.5t23.5 69.5t5 85.5v110q0 10 8 17.5t17 7.5q10 0 17 -7t7 -18v-110q0 -44 -3.5 -76.5t-15.5 -63t-22 -49.5t-38 -49t-47 -47.5t-64 -58.5q-107 -97 -140.5 -146.5t-33.5 -132.5q0 -121 80.5 -179t218.5 -58 q171 0 317 102q12 8 16 8q10 0 16.5 -6t6.5 -14q0 -12 -14 -23q-70 -53 -160.5 -82.5t-186.5 -29.5q-158 0 -251 72t-93 208zM442 866q0 20 13.5 33.5t33.5 13.5t34 -13.5t14 -33.5t-14 -33.5t-34 -13.5t-33.5 13.5t-13.5 33.5z" />
<glyph unicode="&#xc0;" horiz-adv-x="1208" d="M82 6q0 7 4 19l496 1339q6 16 22 16q17 0 23 -16l495 -1339q4 -12 4 -19q0 -9 -7 -15.5t-17 -6.5q-19 0 -27 24l-147 400h-647l-148 -400q-8 -24 -27 -24q-10 0 -17 6.5t-7 15.5zM297 453h614l-307 852zM432 1700q0 6 6 12t15 6q10 0 24 -14l146 -160q10 -10 10 -20 q0 -6 -7 -12.5t-14 -6.5q-9 0 -20 11l-148 157q-12 14 -12 27z" />
<glyph unicode="&#xc1;" horiz-adv-x="1208" d="M82 6q0 7 4 19l496 1339q6 16 22 16q17 0 23 -16l495 -1339q4 -12 4 -19q0 -9 -7 -15.5t-17 -6.5q-19 0 -27 24l-147 400h-647l-148 -400q-8 -24 -27 -24q-10 0 -17 6.5t-7 15.5zM297 453h614l-307 852zM551 1524q0 10 10 20l146 160q14 14 24 14q9 0 15 -6t6 -12 q0 -11 -13 -27l-147 -157q-11 -11 -21 -11q-7 0 -13.5 6.5t-6.5 12.5z" />
<glyph unicode="&#xc2;" horiz-adv-x="1208" d="M82 6q0 7 4 19l496 1339q6 16 22 16q17 0 23 -16l495 -1339q4 -12 4 -19q0 -9 -7 -15.5t-17 -6.5q-19 0 -27 24l-147 400h-647l-148 -400q-8 -24 -27 -24q-10 0 -17 6.5t-7 15.5zM297 453h614l-307 852zM397 1511q0 10 9 19l176 170q12 12 22 12q11 0 23 -12l176 -170 q8 -8 8 -19q0 -7 -6 -12.5t-14 -5.5q-9 0 -17 8l-170 164l-170 -164q-8 -8 -16 -8t-14.5 5.5t-6.5 12.5z" />
<glyph unicode="&#xc3;" horiz-adv-x="1208" d="M82 6q0 7 4 19l496 1339q6 16 22 16q17 0 23 -16l495 -1339q4 -12 4 -19q0 -9 -7 -15.5t-17 -6.5q-19 0 -27 24l-147 400h-647l-148 -400q-8 -24 -27 -24q-10 0 -17 6.5t-7 15.5zM297 453h614l-307 852zM375 1509q-5 10 0 19l20 41q25 51 68 51q35 0 145 -39 q105 -37 140 -37q20 0 34 27l19 39q8 16 22 16q13 0 17.5 -11t-0.5 -20l-21 -41q-13 -26 -27.5 -37.5t-41.5 -11.5q-28 0 -142 35q-21 7 -45.5 14.5t-36 11t-24 7t-20.5 5t-15 1.5q-21 0 -35 -27l-16 -34q-10 -19 -25 -19q-11 0 -16 10z" />
<glyph unicode="&#xc4;" horiz-adv-x="1208" d="M82 6q0 7 4 19l496 1339q6 16 22 16q17 0 23 -16l495 -1339q4 -12 4 -19q0 -9 -7 -15.5t-17 -6.5q-19 0 -27 24l-147 400h-647l-148 -400q-8 -24 -27 -24q-10 0 -17 6.5t-7 15.5zM297 453h614l-307 852zM393 1595q0 20 13.5 33.5t33.5 13.5t33.5 -13.5t13.5 -33.5 t-13.5 -33.5t-33.5 -13.5t-33.5 13.5t-13.5 33.5zM723 1595q0 20 13.5 33.5t33.5 13.5t33.5 -13.5t13.5 -33.5t-13.5 -33.5t-33.5 -13.5t-33.5 13.5t-13.5 33.5z" />
<glyph unicode="&#xc5;" horiz-adv-x="1208" d="M82 6q0 7 4 19l489 1325q-40 9 -63 38t-23 74q0 52 31.5 83.5t83.5 31.5t83.5 -31.5t31.5 -83.5q0 -86 -88 -112l491 -1325q4 -12 4 -19q0 -9 -7 -15.5t-17 -6.5q-19 0 -27 24l-147 400h-647l-148 -400q-8 -24 -27 -24q-10 0 -17 6.5t-7 15.5zM297 453h614l-307 852z M528 1462q0 -39 20.5 -60.5t55.5 -21.5t55.5 21.5t20.5 60.5t-20.5 60.5t-55.5 21.5t-55.5 -21.5t-20.5 -60.5z" />
<glyph unicode="&#xc6;" horiz-adv-x="1646" d="M82 6q0 7 4 19l496 1323q6 16 22 16h914q10 0 16 -7t6 -16q0 -22 -22 -22h-881l219 -584h430q9 0 16 -6.5t7 -15.5t-7 -16t-16 -7h-414l242 -645h428q10 0 16.5 -6.5t6.5 -15.5t-6.5 -16t-16.5 -7h-446q-19 0 -27 25l-141 383h-647l-148 -400q-8 -24 -27 -24 q-10 0 -17 6.5t-7 15.5zM297 453h614l-307 835z" />
<glyph unicode="&#xc7;" horiz-adv-x="1191" d="M113 682q0 111 22.5 214.5t68.5 193t111 156.5t154.5 105t194.5 38q145 0 258.5 -71t181.5 -194q6 -12 6 -18q0 -10 -7 -16.5t-16 -6.5q-12 0 -22 17q-139 243 -401 243q-122 0 -219.5 -55.5t-158 -149.5t-92.5 -210.5t-32 -245.5t32 -246t92.5 -210.5t158 -149.5 t219.5 -56q262 0 401 244q10 17 22 17q9 0 16 -6.5t7 -16.5q0 -6 -6 -18q-67 -119 -176 -190t-248 -75l-29 -106q14 2 41 2q81 0 127.5 -34.5t46.5 -98.5q0 -59 -44.5 -98t-135.5 -39q-70 0 -125 20q-17 7 -14 23q4 18 26 12q63 -18 103 -18q145 0 145 98q0 53 -34.5 76.5 t-106.5 23.5q-16 0 -36 -2t-23 -2q-9 0 -14 7t-1 18q5 18 18 61t17 59q-101 4 -187 43.5t-148 106t-106 155t-65.5 190t-21.5 210.5z" />
<glyph unicode="&#xc8;" horiz-adv-x="1021" d="M174 25v1314q0 11 7 18t18 7h694q10 0 16 -7t6 -16q0 -22 -22 -22h-670v-584h439q9 0 15.5 -6.5t6.5 -15.5t-6.5 -16t-15.5 -7h-439v-645h695q22 0 22 -22q0 -9 -6 -16t-16 -7h-719q-11 0 -18 7t-7 18zM387 1700q0 6 6 12t15 6q10 0 24 -14l146 -160q10 -10 10 -20 q0 -6 -7 -12.5t-14 -6.5q-9 0 -20 11l-148 157q-12 14 -12 27z" />
<glyph unicode="&#xc9;" horiz-adv-x="1021" d="M174 25v1314q0 11 7 18t18 7h694q10 0 16 -7t6 -16q0 -22 -22 -22h-670v-584h439q9 0 15.5 -6.5t6.5 -15.5t-6.5 -16t-15.5 -7h-439v-645h695q22 0 22 -22q0 -9 -6 -16t-16 -7h-719q-11 0 -18 7t-7 18zM481 1524q0 9 11 20l145 160q14 14 25 14q8 0 14 -6t6 -12 q0 -13 -12 -27l-148 -157q-11 -11 -20 -11q-7 0 -14 6.5t-7 12.5z" />
<glyph unicode="&#xca;" horiz-adv-x="1021" d="M174 25v1314q0 11 7 18t18 7h694q10 0 16 -7t6 -16q0 -22 -22 -22h-670v-584h439q9 0 15.5 -6.5t6.5 -15.5t-6.5 -16t-15.5 -7h-439v-645h695q22 0 22 -22q0 -9 -6 -16t-16 -7h-719q-11 0 -18 7t-7 18zM360 1511q0 10 9 19l176 170q12 12 22 12q11 0 23 -12l176 -170 q8 -8 8 -19q0 -7 -6 -12.5t-14 -5.5q-9 0 -17 8l-170 164l-170 -164q-8 -8 -16 -8t-14.5 5.5t-6.5 12.5z" />
<glyph unicode="&#xcb;" horiz-adv-x="1021" d="M174 25v1314q0 11 7 18t18 7h694q10 0 16 -7t6 -16q0 -22 -22 -22h-670v-584h439q9 0 15.5 -6.5t6.5 -15.5t-6.5 -16t-15.5 -7h-439v-645h695q22 0 22 -22q0 -9 -6 -16t-16 -7h-719q-11 0 -18 7t-7 18zM346 1595q0 20 13.5 33.5t33.5 13.5t33.5 -13.5t13.5 -33.5 t-13.5 -33.5t-33.5 -13.5t-33.5 13.5t-13.5 33.5zM676 1595q0 20 13.5 33.5t33.5 13.5t33.5 -13.5t13.5 -33.5t-13.5 -33.5t-33.5 -13.5t-33.5 13.5t-13.5 33.5z" />
<glyph unicode="&#xcc;" horiz-adv-x="417" d="M59 1700q0 6 6 12t15 6q10 0 24 -14l146 -160q10 -10 10 -20q0 -6 -6.5 -12.5t-13.5 -6.5q-10 0 -21 11l-147 157q-13 16 -13 27zM184 8v1348q0 10 7 17t18 7t17.5 -7t6.5 -17v-1348q0 -10 -6.5 -17t-17.5 -7t-18 7t-7 17z" />
<glyph unicode="&#xcd;" horiz-adv-x="417" d="M162 1524q0 10 10 20l145 160q14 14 25 14q8 0 14 -6t6 -12q0 -13 -12 -27l-147 -157q-11 -11 -21 -11q-7 0 -13.5 6.5t-6.5 12.5zM184 8v1348q0 10 7 17t18 7t17.5 -7t6.5 -17v-1348q0 -10 -6.5 -17t-17.5 -7t-18 7t-7 17z" />
<glyph unicode="&#xce;" horiz-adv-x="417" d="M0 1511q0 11 8 19l176 170q12 12 23 12q10 0 22 -12l177 -170q8 -8 8 -19q0 -7 -6.5 -12.5t-14.5 -5.5t-16 8l-170 164l-170 -164q-8 -8 -17 -8q-8 0 -14 5.5t-6 12.5zM184 8v1348q0 10 7 17t18 7t17.5 -7t6.5 -17v-1348q0 -10 -6.5 -17t-17.5 -7t-18 7t-7 17z" />
<glyph unicode="&#xcf;" horiz-adv-x="417" d="M-4 1595q0 20 13.5 33.5t33.5 13.5t33.5 -13.5t13.5 -33.5t-13.5 -33.5t-33.5 -13.5t-33.5 13.5t-13.5 33.5zM184 8v1348q0 10 7 17t18 7t17.5 -7t6.5 -17v-1348q0 -10 -6.5 -17t-17.5 -7t-18 7t-7 17zM326 1595q0 20 13.5 33.5t33.5 13.5t33.5 -13.5t13.5 -33.5 t-13.5 -33.5t-33.5 -13.5t-33.5 13.5t-13.5 33.5z" />
<glyph unicode="&#xd0;" horiz-adv-x="1290" d="M82 686q0 9 6.5 16t15.5 7h156v630q0 11 7 18t18 7h303q149 0 266.5 -55t190 -150t110 -216t37.5 -261t-37.5 -261t-110 -216t-190 -150t-266.5 -55h-303q-11 0 -18 7t-7 18v639h-156q-9 0 -15.5 6.5t-6.5 15.5zM309 45h275q141 0 251 53.5t176 144.5t99 202.5t33 236.5 t-33 236.5t-99 202.5t-176 144.5t-251 53.5h-275v-610h293q9 0 16 -7t7 -16t-7 -15.5t-16 -6.5h-293v-619z" />
<glyph unicode="&#xd1;" horiz-adv-x="1251" d="M174 8v1348q0 24 23 24q14 0 24 -16l809 -1280v1272q0 24 25 24q22 0 22 -24v-1350q0 -22 -22 -22q-15 0 -25 16l-809 1278v-1270q0 -24 -24 -24q-23 0 -23 24zM399 1509q-5 10 0 19l21 41q25 51 67 51q36 0 146 -39q105 -37 139 -37q22 0 35 27l18 39q8 16 23 16 q13 0 17 -11t-1 -20l-20 -41q-13 -26 -28 -37.5t-42 -11.5t-141 35q-21 7 -45.5 14.5t-36 11t-24 7t-20.5 5t-15 1.5q-22 0 -35 -27l-17 -34q-10 -19 -24 -19q-12 0 -17 10z" />
<glyph unicode="&#xd2;" horiz-adv-x="1327" d="M113 682q0 139 36 265t103 225t174 158t238 59q106 0 196 -38.5t154.5 -105.5t110 -156.5t67.5 -192.5t22 -214t-22 -214t-67.5 -192.5t-110 -156.5t-154.5 -105.5t-196 -38.5q-131 0 -238 59t-174 158t-103 225t-36 265zM162 682q0 -102 19.5 -198t60.5 -180.5 t99 -147.5t141.5 -99.5t181.5 -36.5t181.5 36.5t141.5 99.5t98.5 147.5t60 180.5t19.5 198t-19.5 197.5t-60 180t-98.5 147.5t-141.5 99.5t-181.5 36.5t-181.5 -36.5t-141.5 -99.5t-99 -147.5t-60.5 -180t-19.5 -197.5zM528 1700q0 6 6 12t15 6q10 0 24 -14l146 -160 q10 -10 10 -20q0 -6 -6.5 -12.5t-13.5 -6.5q-10 0 -21 11l-147 157q-13 16 -13 27z" />
<glyph unicode="&#xd3;" horiz-adv-x="1327" d="M113 682q0 139 36 265t103 225t174 158t238 59q106 0 196 -38.5t154.5 -105.5t110 -156.5t67.5 -192.5t22 -214t-22 -214t-67.5 -192.5t-110 -156.5t-154.5 -105.5t-196 -38.5q-131 0 -238 59t-174 158t-103 225t-36 265zM162 682q0 -102 19.5 -198t60.5 -180.5 t99 -147.5t141.5 -99.5t181.5 -36.5t181.5 36.5t141.5 99.5t98.5 147.5t60 180.5t19.5 198t-19.5 197.5t-60 180t-98.5 147.5t-141.5 99.5t-181.5 36.5t-181.5 -36.5t-141.5 -99.5t-99 -147.5t-60.5 -180t-19.5 -197.5zM584 1524q0 10 10 20l145 160q14 14 25 14q8 0 14 -6 t6 -12q0 -13 -12 -27l-147 -157q-11 -11 -21 -11q-7 0 -13.5 6.5t-6.5 12.5z" />
<glyph unicode="&#xd4;" horiz-adv-x="1327" d="M113 682q0 139 36 265t103 225t174 158t238 59q106 0 196 -38.5t154.5 -105.5t110 -156.5t67.5 -192.5t22 -214t-22 -214t-67.5 -192.5t-110 -156.5t-154.5 -105.5t-196 -38.5q-131 0 -238 59t-174 158t-103 225t-36 265zM162 682q0 -102 19.5 -198t60.5 -180.5 t99 -147.5t141.5 -99.5t181.5 -36.5t181.5 36.5t141.5 99.5t98.5 147.5t60 180.5t19.5 198t-19.5 197.5t-60 180t-98.5 147.5t-141.5 99.5t-181.5 36.5t-181.5 -36.5t-141.5 -99.5t-99 -147.5t-60.5 -180t-19.5 -197.5zM457 1511q0 11 8 19l176 170q12 12 23 12q10 0 22 -12 l176 -170q8 -8 8 -19q0 -7 -6 -12.5t-14 -5.5t-16 8l-170 164l-170 -164q-8 -8 -17 -8q-8 0 -14 5.5t-6 12.5z" />
<glyph unicode="&#xd5;" horiz-adv-x="1327" d="M113 682q0 139 36 265t103 225t174 158t238 59q106 0 196 -38.5t154.5 -105.5t110 -156.5t67.5 -192.5t22 -214t-22 -214t-67.5 -192.5t-110 -156.5t-154.5 -105.5t-196 -38.5q-131 0 -238 59t-174 158t-103 225t-36 265zM162 682q0 -102 19.5 -198t60.5 -180.5 t99 -147.5t141.5 -99.5t181.5 -36.5t181.5 36.5t141.5 99.5t98.5 147.5t60 180.5t19.5 198t-19.5 197.5t-60 180t-98.5 147.5t-141.5 99.5t-181.5 36.5t-181.5 -36.5t-141.5 -99.5t-99 -147.5t-60.5 -180t-19.5 -197.5zM438 1509q-5 10 0 19l21 41q25 51 67 51q36 0 146 -39 q105 -37 139 -37q21 0 35 27l18 39q8 16 23 16q13 0 17 -11t-1 -20l-20 -41q-13 -26 -28 -37.5t-42 -11.5t-141 35q-21 6 -45.5 14t-36 11.5t-24.5 7t-21 5t-15 1.5q-20 0 -34 -27l-17 -34q-9 -19 -24 -19q-12 0 -17 10z" />
<glyph unicode="&#xd6;" horiz-adv-x="1327" d="M113 682q0 139 36 265t103 225t174 158t238 59q106 0 196 -38.5t154.5 -105.5t110 -156.5t67.5 -192.5t22 -214t-22 -214t-67.5 -192.5t-110 -156.5t-154.5 -105.5t-196 -38.5q-131 0 -238 59t-174 158t-103 225t-36 265zM162 682q0 -102 19.5 -198t60.5 -180.5 t99 -147.5t141.5 -99.5t181.5 -36.5t181.5 36.5t141.5 99.5t98.5 147.5t60 180.5t19.5 198t-19.5 197.5t-60 180t-98.5 147.5t-141.5 99.5t-181.5 36.5t-181.5 -36.5t-141.5 -99.5t-99 -147.5t-60.5 -180t-19.5 -197.5zM453 1595q0 20 13.5 33.5t33.5 13.5t33.5 -13.5 t13.5 -33.5t-13.5 -33.5t-33.5 -13.5t-33.5 13.5t-13.5 33.5zM782 1595q0 20 13.5 33.5t33.5 13.5t34 -13.5t14 -33.5t-14 -33.5t-34 -13.5t-33.5 13.5t-13.5 33.5z" />
<glyph unicode="&#xd7;" horiz-adv-x="970" d="M154 351.5q0 9.5 6 15.5l293 295l-293 294q-6 6 -6 15.5t6 15.5t15 6t15 -6l295 -293l295 293q6 6 15.5 6t15.5 -6t6 -15.5t-6 -15.5l-293 -294l293 -295q6 -6 6 -15.5t-6 -15.5t-15.5 -6t-15.5 6l-295 293l-295 -293q-6 -6 -15 -6t-15 6t-6 15.5z" />
<glyph unicode="&#xd8;" horiz-adv-x="1327" d="M113 -109q0 9 8 21l162 240q-83 99 -126.5 237.5t-43.5 292.5q0 139 36 265t103 225t174 158t238 59q206 0 352 -146l160 238q8 10 20 10q8 0 13 -6t5 -15q0 -4 -4 -12l-166 -248q83 -98 126.5 -236t43.5 -292q0 -111 -22 -214t-67.5 -192.5t-110 -156.5t-154.5 -105.5 t-196 -38.5q-210 0 -353 146l-157 -236q-8 -12 -21 -12q-7 0 -13.5 6t-6.5 12zM162 682q0 -142 37 -270t110 -219l680 1009q-134 141 -325 141q-98 0 -181.5 -36.5t-141.5 -99.5t-99 -147.5t-60.5 -180t-19.5 -197.5zM338 160q130 -140 326 -140q98 0 181.5 36.5t141.5 99.5 t98.5 147.5t60 180.5t19.5 198q0 140 -37.5 268t-109.5 221z" />
<glyph unicode="&#xd9;" horiz-adv-x="1277" d="M164 489v867q0 10 7 17t17 7q11 0 18 -7t7 -17v-873q0 -222 117.5 -342.5t308.5 -120.5t308.5 120.5t117.5 342.5v873q0 10 7 17t18 7q10 0 17 -7t7 -17v-867q0 -244 -132.5 -379t-342.5 -135t-342.5 135t-132.5 379zM500 1700q0 6 6 12t14 6q11 0 25 -14l145 -160 q10 -10 10 -20q0 -6 -6.5 -12.5t-13.5 -6.5q-10 0 -21 11l-147 157q-12 14 -12 27z" />
<glyph unicode="&#xda;" horiz-adv-x="1277" d="M164 489v867q0 10 7 17t17 7q11 0 18 -7t7 -17v-873q0 -222 117.5 -342.5t308.5 -120.5t308.5 120.5t117.5 342.5v873q0 10 7 17t18 7q10 0 17 -7t7 -17v-867q0 -244 -132.5 -379t-342.5 -135t-342.5 135t-132.5 379zM573 1524q0 9 11 20l145 160q14 14 25 14q8 0 14 -6 t6 -12q0 -13 -12 -27l-148 -157q-11 -11 -20 -11q-7 0 -14 6.5t-7 12.5z" />
<glyph unicode="&#xdb;" horiz-adv-x="1277" d="M164 489v867q0 10 7 17t17 7q11 0 18 -7t7 -17v-873q0 -222 117.5 -342.5t308.5 -120.5t308.5 120.5t117.5 342.5v873q0 10 7 17t18 7q10 0 17 -7t7 -17v-867q0 -244 -132.5 -379t-342.5 -135t-342.5 135t-132.5 379zM432 1511q0 11 8 19l176 170q12 12 23 12t23 -12 l176 -170q8 -8 8 -19q0 -7 -6.5 -12.5t-14.5 -5.5t-16 8l-170 164l-170 -164q-8 -8 -16 -8t-14.5 5.5t-6.5 12.5z" />
<glyph unicode="&#xdc;" horiz-adv-x="1277" d="M164 489v867q0 10 7 17t17 7q11 0 18 -7t7 -17v-873q0 -222 117.5 -342.5t308.5 -120.5t308.5 120.5t117.5 342.5v873q0 10 7 17t18 7q10 0 17 -7t7 -17v-867q0 -244 -132.5 -379t-342.5 -135t-342.5 135t-132.5 379zM426 1595q0 20 13.5 33.5t33.5 13.5t33.5 -13.5 t13.5 -33.5t-13.5 -33.5t-33.5 -13.5t-33.5 13.5t-13.5 33.5zM756 1595q0 20 13.5 33.5t33.5 13.5t33.5 -13.5t13.5 -33.5t-13.5 -33.5t-33.5 -13.5t-33.5 13.5t-13.5 33.5z" />
<glyph unicode="&#xdd;" horiz-adv-x="987" d="M37 1356q0 11 7 17.5t17 6.5q16 0 25 -18l408 -744l407 744q9 18 25 18q10 0 17 -6.5t7 -17.5q0 -7 -8 -23l-424 -764v-561q0 -10 -7 -17t-17 -7q-11 0 -18 7t-7 17v561l-424 764q-8 16 -8 23zM451 1524q0 10 10 20l145 160q14 14 25 14q9 0 14.5 -6t5.5 -12 q0 -13 -12 -27l-147 -157q-11 -11 -21 -11q-7 0 -13.5 6.5t-6.5 12.5z" />
<glyph unicode="&#xde;" horiz-adv-x="1093" d="M174 8v1348q0 10 7 17t18 7t17.5 -7t6.5 -17v-289h443q169 0 270.5 -103t101.5 -264t-101.5 -263.5t-270.5 -102.5h-443v-326q0 -10 -6.5 -17t-17.5 -7t-18 7t-7 17zM223 379h449q144 0 230.5 89.5t86.5 231.5t-86.5 232t-230.5 90h-449v-643z" />
<glyph unicode="&#xdf;" horiz-adv-x="1148" d="M154 8v1010q0 171 89 266.5t261 95.5q160 0 252 -74t92 -204q0 -65 -24.5 -118.5t-90.5 -127.5q-9 -10 -30.5 -33.5t-30.5 -34t-23.5 -31t-21 -35t-12 -34.5t-5.5 -41q0 -64 40.5 -102.5t150.5 -87.5q153 -69 206.5 -123t53.5 -148q0 -92 -76.5 -151.5t-210.5 -59.5 q-77 0 -155 28t-136 77q-8 8 -8 16q0 9 6.5 15t14.5 6q7 0 16 -6q124 -93 262 -93q114 0 176 46.5t62 121.5q0 82 -46.5 127t-172.5 101q-127 55 -179.5 103.5t-52.5 129.5q0 24 6.5 48.5t13.5 40.5t25.5 41.5t27 35.5t35 40t33.5 38q50 58 73.5 103.5t23.5 107.5 q0 116 -80.5 175.5t-214.5 59.5q-152 0 -226.5 -82.5t-74.5 -236.5v-1010q0 -10 -7 -17t-18 -7q-10 0 -17 7t-7 17z" />
<glyph unicode="&#xe0;" horiz-adv-x="991" d="M127 242q0 121 97.5 193.5t250.5 72.5q99 0 184 -38t129 -103v180q0 323 -311 323q-142 0 -272 -71q-9 -6 -19 -6t-16 6t-6 14q0 12 14 21q127 79 301 79q176 0 267.5 -95.5t91.5 -268.5v-541q0 -10 -7 -17t-18 -7t-18 7t-7 17v111q-106 -144 -313 -144q-150 0 -249 75.5 t-99 191.5zM176 242q0 -103 88 -164.5t211 -61.5q131 0 222 65.5t91 160.5q0 99 -92.5 162t-220.5 63q-132 0 -215.5 -60.5t-83.5 -164.5zM334 1294q0 8 6.5 14.5t15.5 6.5q13 0 21 -12l145 -216q6 -9 6 -16q0 -8 -6 -14t-16 -6q-12 0 -19 10l-147 215q-6 12 -6 18z" />
<glyph unicode="&#xe1;" horiz-adv-x="991" d="M127 242q0 121 97.5 193.5t250.5 72.5q99 0 184 -38t129 -103v180q0 323 -311 323q-142 0 -272 -71q-9 -6 -19 -6t-16 6t-6 14q0 12 14 21q127 79 301 79q176 0 267.5 -95.5t91.5 -268.5v-541q0 -10 -7 -17t-18 -7t-18 7t-7 17v111q-106 -144 -313 -144q-150 0 -249 75.5 t-99 191.5zM176 242q0 -103 88 -164.5t211 -61.5q131 0 222 65.5t91 160.5q0 99 -92.5 162t-220.5 63q-132 0 -215.5 -60.5t-83.5 -164.5zM438 1071q0 7 6 16l146 216q8 12 20 12q9 0 16 -6.5t7 -14.5q0 -6 -6 -18l-148 -215q-7 -10 -18 -10q-10 0 -16.5 6t-6.5 14z" />
<glyph unicode="&#xe2;" horiz-adv-x="991" d="M127 242q0 121 97.5 193.5t250.5 72.5q99 0 184 -38t129 -103v180q0 323 -311 323q-142 0 -272 -71q-9 -6 -19 -6t-16 6t-6 14q0 12 14 21q127 79 301 79q176 0 267.5 -95.5t91.5 -268.5v-541q0 -10 -7 -17t-18 -7t-18 7t-7 17v111q-106 -144 -313 -144q-150 0 -249 75.5 t-99 191.5zM176 242q0 -103 88 -164.5t211 -61.5q131 0 222 65.5t91 160.5q0 99 -92.5 162t-220.5 63q-132 0 -215.5 -60.5t-83.5 -164.5zM293 1063q0 10 8 18l168 197q11 14 23 14q11 0 22 -14l168 -197q8 -8 8 -18q0 -7 -6 -13t-14 -6t-17 9l-161 190l-162 -190 q-9 -9 -17 -9t-14 6t-6 13z" />
<glyph unicode="&#xe3;" horiz-adv-x="991" d="M127 242q0 121 97.5 193.5t250.5 72.5q99 0 184 -38t129 -103v180q0 323 -311 323q-142 0 -272 -71q-9 -6 -19 -6t-16 6t-6 14q0 12 14 21q127 79 301 79q176 0 267.5 -95.5t91.5 -268.5v-541q0 -10 -7 -17t-18 -7t-18 7t-7 17v111q-106 -144 -313 -144q-150 0 -249 75.5 t-99 191.5zM176 242q0 -103 88 -164.5t211 -61.5q131 0 222 65.5t91 160.5q0 99 -92.5 162t-220.5 63q-132 0 -215.5 -60.5t-83.5 -164.5zM281 1079q-5 10 0 19l20 41q25 51 68 51q6 0 12 -1t11.5 -1.5t13.5 -3t13 -4.5t16 -6l16.5 -6t20.5 -8t22 -9q99 -37 118 -37 q22 0 35 27l19 39q8 16 22 16q13 0 17.5 -11t-0.5 -20l-21 -41q-13 -26 -28 -37.5t-42 -11.5t-120 35q-16 6 -37.5 14t-30 11.5t-20 7.5t-19 5t-14.5 1q-21 0 -35 -27l-16 -35q-9 -18 -25 -18q-11 0 -16 10z" />
<glyph unicode="&#xe4;" horiz-adv-x="991" d="M127 242q0 121 97.5 193.5t250.5 72.5q99 0 184 -38t129 -103v180q0 323 -311 323q-142 0 -272 -71q-9 -6 -19 -6t-16 6t-6 14q0 12 14 21q127 79 301 79q176 0 267.5 -95.5t91.5 -268.5v-541q0 -10 -7 -17t-18 -7t-18 7t-7 17v111q-106 -144 -313 -144q-150 0 -249 75.5 t-99 191.5zM176 242q0 -103 88 -164.5t211 -61.5q131 0 222 65.5t91 160.5q0 99 -92.5 162t-220.5 63q-132 0 -215.5 -60.5t-83.5 -164.5zM299 1165q0 20 13.5 33.5t33.5 13.5t33.5 -13.5t13.5 -33.5t-13.5 -33.5t-33.5 -13.5t-33.5 13.5t-13.5 33.5zM629 1165 q0 20 13.5 33.5t33.5 13.5t33.5 -13.5t13.5 -33.5t-13.5 -33.5t-33.5 -13.5t-33.5 13.5t-13.5 33.5z" />
<glyph unicode="&#xe5;" horiz-adv-x="991" d="M127 242q0 121 97.5 193.5t250.5 72.5q99 0 184 -38t129 -103v180q0 323 -311 323q-142 0 -272 -71q-9 -6 -19 -6t-16 6t-6 14q0 12 14 21q127 79 301 79q176 0 267.5 -95.5t91.5 -268.5v-541q0 -10 -7 -17t-18 -7t-18 7t-7 17v111q-106 -144 -313 -144q-150 0 -249 75.5 t-99 191.5zM176 242q0 -103 88 -164.5t211 -61.5q131 0 222 65.5t91 160.5q0 99 -92.5 162t-220.5 63q-132 0 -215.5 -60.5t-83.5 -164.5zM381 1161q0 55 35.5 91t91.5 36t91.5 -36t35.5 -91t-35.5 -91t-91.5 -36t-91.5 36t-35.5 91zM422 1161q0 -40 23.5 -66t62.5 -26 t62.5 26t23.5 66t-23.5 66t-62.5 26t-62.5 -26t-23.5 -66z" />
<glyph unicode="&#xe6;" horiz-adv-x="1638" d="M127 242q0 121 97.5 193.5t250.5 72.5q99 0 184 -38t129 -103v180q0 323 -311 323q-142 0 -272 -71q-9 -6 -19 -6t-16 6t-6 14q0 12 14 21q127 79 301 79q289 0 346 -266q52 124 141 195t210 71q115 0 200 -64t126.5 -165.5t41.5 -224.5v-8q0 -21 -22 -21h-682 q1 -114 39.5 -206t117.5 -149t187 -57q98 0 171.5 44.5t119.5 113.5q10 17 24 17q9 0 16 -7t7 -16q0 -7 -6 -16q-124 -179 -330 -179q-124 0 -215 65t-135 175q-33 -111 -128.5 -175.5t-232.5 -64.5q-150 0 -249 75.5t-99 191.5zM176 242q0 -103 88 -164.5t211 -61.5 q131 0 222 65.5t91 160.5q0 99 -92.5 162t-220.5 63q-132 0 -215.5 -60.5t-83.5 -164.5zM840 475h657q-2 105 -38 193t-110 145t-173 57t-176 -57.5t-117 -146t-43 -191.5z" />
<glyph unicode="&#xe7;" horiz-adv-x="925" d="M102 444q0 125 47.5 231t140.5 172t214 66q111 0 194.5 -55t126.5 -133q6 -12 6 -20t-6 -14.5t-16 -6.5q-13 0 -25 18q-44 76 -117 121t-163 45q-107 0 -188.5 -60t-122.5 -155.5t-41 -208.5t41 -208.5t122.5 -155.5t188.5 -60q90 0 163 45t117 121q13 19 25 19 q10 0 16 -6.5t6 -14.5t-6 -20q-43 -76 -122.5 -130.5t-186.5 -58.5l-29 -106q14 2 41 2q81 0 127.5 -34.5t46.5 -98.5q0 -59 -44.5 -98t-135.5 -39q-70 0 -125 20q-17 7 -14 23q4 19 27 12q63 -18 102 -18q145 0 145 98q0 53 -34.5 76.5t-106.5 23.5q-16 0 -36 -2t-23 -2 q-9 0 -14 7t-1 18q5 18 18 61t17 59q-113 7 -199.5 73.5t-131 169.5t-44.5 224z" />
<glyph unicode="&#xe8;" horiz-adv-x="952" d="M102 444q0 126 46 232t135.5 171.5t205.5 65.5q115 0 200.5 -64t127 -166t41.5 -224v-8q0 -21 -22 -21h-682q2 -175 93.5 -293.5t250.5 -118.5q184 0 290 158q10 17 25 17q9 0 16 -7t7 -16q0 -6 -7 -16q-124 -179 -329 -179q-94 0 -170.5 38.5t-125.5 104t-75.5 149.5 t-26.5 177zM154 475h657q-2 77 -23.5 147.5t-61 126t-101 88.5t-136.5 33q-98 0 -175 -57.5t-117 -146t-43 -191.5zM352 1294q0 8 7 14.5t16 6.5q12 0 20 -12l146 -216q6 -9 6 -16q0 -8 -6.5 -14t-16.5 -6t-18 10l-148 215q-6 12 -6 18z" />
<glyph unicode="&#xe9;" horiz-adv-x="952" d="M102 444q0 126 46 232t135.5 171.5t205.5 65.5q115 0 200.5 -64t127 -166t41.5 -224v-8q0 -21 -22 -21h-682q2 -175 93.5 -293.5t250.5 -118.5q184 0 290 158q10 17 25 17q9 0 16 -7t7 -16q0 -6 -7 -16q-124 -179 -329 -179q-94 0 -170.5 38.5t-125.5 104t-75.5 149.5 t-26.5 177zM154 475h657q-2 77 -23.5 147.5t-61 126t-101 88.5t-136.5 33q-98 0 -175 -57.5t-117 -146t-43 -191.5zM424 1071q0 7 6 16l145 216q8 12 21 12q9 0 15.5 -6.5t6.5 -14.5q0 -6 -6 -18l-147 -215q-7 -10 -19 -10q-10 0 -16 6t-6 14z" />
<glyph unicode="&#xea;" horiz-adv-x="952" d="M102 444q0 126 46 232t135.5 171.5t205.5 65.5q115 0 200.5 -64t127 -166t41.5 -224v-8q0 -21 -22 -21h-682q2 -175 93.5 -293.5t250.5 -118.5q184 0 290 158q10 17 25 17q9 0 16 -7t7 -16q0 -6 -7 -16q-124 -179 -329 -179q-94 0 -170.5 38.5t-125.5 104t-75.5 149.5 t-26.5 177zM154 475h657q-2 77 -23.5 147.5t-61 126t-101 88.5t-136.5 33q-98 0 -175 -57.5t-117 -146t-43 -191.5zM303 1063q0 10 8 18l168 197q11 14 23 14q11 0 22 -14l168 -197q8 -8 8 -18q0 -7 -6 -13t-14 -6q-7 0 -16 9l-162 190l-162 -190q-9 -9 -16 -9q-8 0 -14.5 6 t-6.5 13z" />
<glyph unicode="&#xeb;" horiz-adv-x="952" d="M102 444q0 126 46 232t135.5 171.5t205.5 65.5q115 0 200.5 -64t127 -166t41.5 -224v-8q0 -21 -22 -21h-682q2 -175 93.5 -293.5t250.5 -118.5q184 0 290 158q10 17 25 17q9 0 16 -7t7 -16q0 -6 -7 -16q-124 -179 -329 -179q-94 0 -170.5 38.5t-125.5 104t-75.5 149.5 t-26.5 177zM154 475h657q-2 77 -23.5 147.5t-61 126t-101 88.5t-136.5 33q-98 0 -175 -57.5t-117 -146t-43 -191.5zM283 1165q0 20 13.5 33.5t33.5 13.5t33.5 -13.5t13.5 -33.5t-13.5 -33.5t-33.5 -13.5t-33.5 13.5t-13.5 33.5zM612 1165q0 20 13.5 33.5t33.5 13.5t34 -13.5 t14 -33.5t-14 -33.5t-34 -13.5t-33.5 13.5t-13.5 33.5z" />
<glyph unicode="&#xec;" d="M31 1294q0 8 6.5 14.5t15.5 6.5q13 0 21 -12l145 -216q6 -9 6 -16q0 -8 -6 -14t-16 -6q-11 0 -19 10l-147 215q-6 12 -6 18zM164 8v873q0 11 7 17.5t17 6.5q11 0 18 -7t7 -17v-873q0 -10 -7 -17t-18 -7q-10 0 -17 7t-7 17z" />
<glyph unicode="&#xed;" d="M137 1071q0 7 6 16l146 216q8 12 20 12q9 0 16 -6.5t7 -14.5q0 -6 -6 -18l-148 -215q-8 -10 -18 -10t-16.5 6t-6.5 14zM164 8v873q0 11 7 17.5t17 6.5q11 0 18 -7t7 -17v-873q0 -10 -7 -17t-18 -7q-10 0 -17 7t-7 17z" />
<glyph unicode="&#xee;" d="M-10 1063q0 10 8 18l168 197q11 14 22 14q12 0 23 -14l168 -197q8 -8 8 -18q0 -7 -6 -13t-14 -6t-17 9l-162 190l-161 -190q-9 -9 -17 -9t-14 6t-6 13zM164 8v873q0 11 7 17.5t17 6.5q11 0 18 -7t7 -17v-873q0 -10 -7 -17t-18 -7q-10 0 -17 7t-7 17z" />
<glyph unicode="&#xef;" d="M-23 1165q0 20 14 33.5t34 13.5t33.5 -13.5t13.5 -33.5t-13.5 -33.5t-33.5 -13.5t-34 13.5t-14 33.5zM164 8v873q0 11 7 17.5t17 6.5q11 0 18 -7t7 -17v-873q0 -10 -7 -17t-18 -7q-10 0 -17 7t-7 17zM307 1165q0 20 13.5 33.5t33.5 13.5t33.5 -13.5t13.5 -33.5 t-13.5 -33.5t-33.5 -13.5t-33.5 13.5t-13.5 33.5z" />
<glyph unicode="&#xf0;" horiz-adv-x="1005" d="M102 416q0 197 110 317.5t277 120.5q108 0 202.5 -60.5t142.5 -168.5q-29 157 -93 291.5t-147 216.5l-131 -107q-10 -10 -23 -10q-8 0 -14 5.5t-6 12.5q0 9 10 19l137 108q-117 123 -252 189q-16 6 -16 20q0 19 18 19q7 0 21 -7q148 -77 262 -194l145 115q12 8 19 8 q18 0 18 -17q0 -12 -14 -22l-141 -115q111 -111 185.5 -304t74.5 -404q0 -131 -46 -238t-137 -171.5t-212 -64.5q-166 0 -278 126t-112 315zM152 416q0 -178 97.5 -288t244.5 -110q152 0 247 112.5t95 285.5q0 91 -28.5 166.5t-76.5 124.5t-110 75.5t-129 26.5 q-148 0 -244 -107t-96 -286z" />
<glyph unicode="&#xf1;" horiz-adv-x="1044" d="M164 8v873q0 11 7 17.5t17 6.5q11 0 18 -7t7 -17v-187q48 107 137 163t199 56q163 0 252.5 -104t89.5 -287v-514q0 -10 -7 -17t-18 -7q-10 0 -17 7t-7 17v512q0 163 -76 254.5t-219 91.5q-140 0 -237 -104.5t-97 -251.5v-502q0 -10 -7 -17t-18 -7q-10 0 -17 7t-7 17z M311 1079q-5 10 0 19l21 41q25 51 67 51q6 0 12 -1t11.5 -1.5t13.5 -3t13 -4.5t16 -6l16.5 -6t20.5 -8t22 -9q99 -37 119 -37q21 0 35 27l18 39q8 16 23 16q13 0 17 -11t-1 -20l-20 -41q-13 -26 -28 -37.5t-42 -11.5q-28 0 -121 35q-16 6 -37.5 14t-30 11.5t-20 7.5t-19 5 t-14.5 1q-21 0 -34 -27l-17 -35q-9 -18 -24 -18q-12 0 -17 10z" />
<glyph unicode="&#xf2;" horiz-adv-x="1007" d="M102 444q0 91 28.5 175.5t79.5 150t127.5 104.5t166.5 39q119 0 212 -67t141 -173.5t48 -228.5t-48 -228.5t-141 -173.5t-212 -67q-90 0 -166.5 39t-127.5 104.5t-79.5 150t-28.5 175.5zM152 444q0 -111 43 -207.5t124.5 -156.5t184.5 -60t184.5 60t124.5 156.5t43 207.5 t-43 207.5t-124.5 156.5t-184.5 60t-184.5 -60t-124.5 -156.5t-43 -207.5zM346 1294q0 8 7 14.5t16 6.5q12 0 20 -12l146 -216q6 -9 6 -16q0 -8 -6.5 -14t-16.5 -6t-18 10l-148 215q-6 12 -6 18z" />
<glyph unicode="&#xf3;" horiz-adv-x="1007" d="M102 444q0 91 28.5 175.5t79.5 150t127.5 104.5t166.5 39q119 0 212 -67t141 -173.5t48 -228.5t-48 -228.5t-141 -173.5t-212 -67q-90 0 -166.5 39t-127.5 104.5t-79.5 150t-28.5 175.5zM152 444q0 -111 43 -207.5t124.5 -156.5t184.5 -60t184.5 60t124.5 156.5t43 207.5 t-43 207.5t-124.5 156.5t-184.5 60t-184.5 -60t-124.5 -156.5t-43 -207.5zM438 1071q0 7 6 16l146 216q8 12 20 12q9 0 16 -6.5t7 -14.5q0 -6 -6 -18l-148 -215q-7 -10 -18 -10q-10 0 -16.5 6t-6.5 14z" />
<glyph unicode="&#xf4;" horiz-adv-x="1007" d="M102 444q0 91 28.5 175.5t79.5 150t127.5 104.5t166.5 39q119 0 212 -67t141 -173.5t48 -228.5t-48 -228.5t-141 -173.5t-212 -67q-90 0 -166.5 39t-127.5 104.5t-79.5 150t-28.5 175.5zM152 444q0 -111 43 -207.5t124.5 -156.5t184.5 -60t184.5 60t124.5 156.5t43 207.5 t-43 207.5t-124.5 156.5t-184.5 60t-184.5 -60t-124.5 -156.5t-43 -207.5zM305 1063q0 10 8 18l168 197q11 14 23 14q11 0 22 -14l168 -197q8 -8 8 -18q0 -7 -6 -13t-14 -6q-7 0 -16 9l-162 190l-162 -190q-9 -9 -16 -9q-8 0 -14.5 6t-6.5 13z" />
<glyph unicode="&#xf5;" horiz-adv-x="1007" d="M102 444q0 91 28.5 175.5t79.5 150t127.5 104.5t166.5 39q119 0 212 -67t141 -173.5t48 -228.5t-48 -228.5t-141 -173.5t-212 -67q-90 0 -166.5 39t-127.5 104.5t-79.5 150t-28.5 175.5zM152 444q0 -111 43 -207.5t124.5 -156.5t184.5 -60t184.5 60t124.5 156.5t43 207.5 t-43 207.5t-124.5 156.5t-184.5 60t-184.5 -60t-124.5 -156.5t-43 -207.5zM291 1079q-5 10 0 19l20 41q25 51 68 51q6 0 12 -1t11.5 -1.5t13.5 -3t13 -4.5t16 -6l16.5 -6t20.5 -8t22 -9q99 -37 119 -37q21 0 34 27l19 39q8 16 22 16q13 0 17.5 -11t-0.5 -20l-21 -41 q-13 -26 -27.5 -37.5t-41.5 -11.5q-28 0 -121 35q-16 6 -37.5 14t-30 11.5t-20 7.5t-19 5t-14.5 1q-21 0 -35 -27l-16 -35q-9 -18 -25 -18q-11 0 -16 10z" />
<glyph unicode="&#xf6;" horiz-adv-x="1007" d="M102 444q0 91 28.5 175.5t79.5 150t127.5 104.5t166.5 39q119 0 212 -67t141 -173.5t48 -228.5t-48 -228.5t-141 -173.5t-212 -67q-90 0 -166.5 39t-127.5 104.5t-79.5 150t-28.5 175.5zM152 444q0 -111 43 -207.5t124.5 -156.5t184.5 -60t184.5 60t124.5 156.5t43 207.5 t-43 207.5t-124.5 156.5t-184.5 60t-184.5 -60t-124.5 -156.5t-43 -207.5zM293 1165q0 20 13.5 33.5t33.5 13.5t33.5 -13.5t13.5 -33.5t-13.5 -33.5t-33.5 -13.5t-33.5 13.5t-13.5 33.5zM623 1165q0 20 13.5 33.5t33.5 13.5t33.5 -13.5t13.5 -33.5t-13.5 -33.5t-33.5 -13.5 t-33.5 13.5t-13.5 33.5z" />
<glyph unicode="&#xf7;" horiz-adv-x="1134" d="M133 662q0 10 7 17t16 7h823q9 0 15.5 -7t6.5 -17q0 -9 -6.5 -16t-15.5 -7h-823q-9 0 -16 7t-7 16zM512 324q0 23 16 39t39 16t39.5 -16t16.5 -39t-16.5 -39.5t-39.5 -16.5t-39 16.5t-16 39.5zM512 1001q0 23 16 39.5t39 16.5t39.5 -16.5t16.5 -39.5t-16.5 -39t-39.5 -16 t-39 16t-16 39z" />
<glyph unicode="&#xf8;" horiz-adv-x="1007" d="M102 -109q0 8 9 21l122 180q-63 66 -97 158t-34 194q0 91 28.5 175.5t79.5 150t127.5 104.5t166.5 39q136 0 237 -88l125 181q7 10 21 10q8 0 13 -6t5 -15q0 -4 -4 -12l-129 -186q64 -67 98.5 -159.5t34.5 -193.5q0 -122 -48 -228.5t-141 -173.5t-212 -67q-136 0 -238 86 l-123 -176q-8 -12 -20 -12q-7 0 -14 6t-7 12zM152 444q0 -191 110 -313l453 655q-92 82 -211 82q-103 0 -184.5 -60t-124.5 -156.5t-43 -207.5zM293 100q90 -80 211 -80q103 0 184.5 60t124.5 156.5t43 207.5q0 185 -111 312z" />
<glyph unicode="&#xf9;" horiz-adv-x="1044" d="M154 367v514q0 11 7 17.5t17 6.5q11 0 18 -7t7 -17v-512q0 -163 76 -254.5t219 -91.5q140 0 236.5 104.5t96.5 251.5v502q0 10 7 17t18 7t18 -7t7 -17v-873q0 -10 -7 -17t-18 -7t-18 7t-7 17v187q-49 -107 -137.5 -163.5t-197.5 -56.5q-163 0 -252.5 104.5t-89.5 287.5z M395 1294q0 8 7 14.5t16 6.5q12 0 20 -12l146 -216q6 -9 6 -16q0 -8 -6.5 -14t-16.5 -6q-11 0 -18 10l-148 215q-6 12 -6 18z" />
<glyph unicode="&#xfa;" horiz-adv-x="1044" d="M154 367v514q0 11 7 17.5t17 6.5q11 0 18 -7t7 -17v-512q0 -163 76 -254.5t219 -91.5q140 0 236.5 104.5t96.5 251.5v502q0 10 7 17t18 7t18 -7t7 -17v-873q0 -10 -7 -17t-18 -7t-18 7t-7 17v187q-49 -107 -137.5 -163.5t-197.5 -56.5q-163 0 -252.5 104.5t-89.5 287.5z M473 1071q0 7 6 16l146 216q8 12 20 12q9 0 16 -6.5t7 -14.5q0 -6 -6 -18l-148 -215q-8 -10 -18 -10t-16.5 6t-6.5 14z" />
<glyph unicode="&#xfb;" horiz-adv-x="1044" d="M154 367v514q0 11 7 17.5t17 6.5q11 0 18 -7t7 -17v-512q0 -163 76 -254.5t219 -91.5q140 0 236.5 104.5t96.5 251.5v502q0 10 7 17t18 7t18 -7t7 -17v-873q0 -10 -7 -17t-18 -7t-18 7t-7 17v187q-49 -107 -137.5 -163.5t-197.5 -56.5q-163 0 -252.5 104.5t-89.5 287.5z M326 1063q0 10 8 18l168 197q11 14 22 14q12 0 23 -14l168 -197q8 -8 8 -18q0 -7 -6.5 -13t-14.5 -6q-7 0 -16 9l-162 190l-162 -190q-9 -9 -16 -9q-8 0 -14 6t-6 13z" />
<glyph unicode="&#xfc;" horiz-adv-x="1044" d="M154 367v514q0 11 7 17.5t17 6.5q11 0 18 -7t7 -17v-512q0 -163 76 -254.5t219 -91.5q140 0 236.5 104.5t96.5 251.5v502q0 10 7 17t18 7t18 -7t7 -17v-873q0 -10 -7 -17t-18 -7t-18 7t-7 17v187q-49 -107 -137.5 -163.5t-197.5 -56.5q-163 0 -252.5 104.5t-89.5 287.5z M313 1165q0 20 13.5 33.5t33.5 13.5t34 -13.5t14 -33.5t-14 -33.5t-34 -13.5t-33.5 13.5t-13.5 33.5zM643 1165q0 20 13.5 33.5t33.5 13.5t33.5 -13.5t13.5 -33.5t-13.5 -33.5t-33.5 -13.5t-33.5 13.5t-13.5 33.5z" />
<glyph unicode="&#xfd;" horiz-adv-x="833" d="M61 883q0 9 7.5 15.5t19.5 6.5q18 0 25 -22l313 -817l309 817q7 22 25 22q12 0 19 -6.5t7 -15.5q0 -7 -6 -25l-331 -854q-52 -131 -127 -226.5t-195 -170.5q-12 -6 -21 -6q-10 0 -16 6t-6 14q0 12 20 25q195 122 293 360l-329 852q-7 21 -7 25zM391 1071q0 7 6 16 l146 216q8 12 20 12q9 0 16 -6.5t7 -14.5q0 -6 -6 -18l-148 -215q-8 -10 -18 -10t-16.5 6t-6.5 14z" />
<glyph unicode="&#xfe;" horiz-adv-x="1058" d="M164 -375v1731q0 10 7 17t17 7q11 0 18 -7t7 -17v-686q49 116 142 179.5t208 63.5q173 0 283 -131t110 -338t-110 -338t-283 -131q-114 0 -207.5 63.5t-142.5 180.5v-594q0 -10 -7 -17t-18 -7q-10 0 -17 6.5t-7 17.5zM213 444q0 -99 29 -180.5t78 -134t111.5 -81 t129.5 -28.5q148 0 247 114t99 310t-99 310t-247 114q-67 0 -129.5 -28.5t-111.5 -81t-78 -134t-29 -180.5z" />
<glyph unicode="&#xff;" horiz-adv-x="833" d="M61 883q0 9 7.5 15.5t19.5 6.5q18 0 25 -22l313 -817l309 817q7 22 25 22q12 0 19 -6.5t7 -15.5q0 -7 -6 -25l-331 -854q-52 -131 -127 -226.5t-195 -170.5q-12 -6 -21 -6q-10 0 -16 6t-6 14q0 12 20 25q195 122 293 360l-329 852q-7 21 -7 25zM221 1165q0 20 13.5 33.5 t33.5 13.5t33.5 -13.5t13.5 -33.5t-13.5 -33.5t-33.5 -13.5t-33.5 13.5t-13.5 33.5zM551 1165q0 20 13.5 33.5t33.5 13.5t33.5 -13.5t13.5 -33.5t-13.5 -33.5t-33.5 -13.5t-33.5 13.5t-13.5 33.5z" />
<glyph unicode="&#x152;" horiz-adv-x="2013" d="M113 682q0 139 36 265t103 225t174 158t238 59q182 0 313 -113t188 -291v354q0 11 7.5 18t17.5 7h694q10 0 16.5 -7t6.5 -16t-6.5 -15.5t-16.5 -6.5h-670v-584h439q9 0 15.5 -6.5t6.5 -15.5t-6.5 -16t-15.5 -7h-439v-645h695q22 0 22 -22q0 -9 -6 -16t-16 -7h-719 q-10 0 -17.5 7t-7.5 18v352q-62 -181 -190.5 -291.5t-310.5 -110.5q-131 0 -238 59t-174 158t-103 225t-36 265zM162 682q0 -102 19.5 -198t60.5 -180.5t99 -147.5t141.5 -99.5t181.5 -36.5t181.5 36.5t141.5 99.5t98.5 147.5t60 180.5t19.5 198t-19.5 197.5t-60 180 t-98.5 147.5t-141.5 99.5t-181.5 36.5t-181.5 -36.5t-141.5 -99.5t-99 -147.5t-60.5 -180t-19.5 -197.5z" />
<glyph unicode="&#x153;" horiz-adv-x="1705" d="M102 444q0 91 28.5 175.5t79.5 150t127.5 104.5t166.5 39q135 0 236.5 -88t138.5 -219q38 137 134 222t230 85q115 0 200.5 -64t127 -166t41.5 -224v-8q0 -21 -23 -21h-682q2 -175 93.5 -293.5t250.5 -118.5q98 0 171.5 44.5t119.5 113.5q10 17 25 17q9 0 15.5 -7 t6.5 -16q0 -7 -6 -16q-124 -179 -330 -179q-141 0 -239.5 89t-134.5 225q-43 -140 -141.5 -227t-233.5 -87q-90 0 -166.5 39t-127.5 104.5t-79.5 150t-28.5 175.5zM152 444q0 -111 43 -207.5t124.5 -156.5t184.5 -60t184.5 60t124.5 156.5t43 207.5t-43 207.5t-124.5 156.5 t-184.5 60t-184.5 -60t-124.5 -156.5t-43 -207.5zM907 475h658q-2 77 -23.5 147.5t-61 126t-101 88.5t-136.5 33q-99 0 -176 -57.5t-117 -146t-43 -191.5z" />
<glyph unicode="&#x178;" horiz-adv-x="987" d="M37 1356q0 11 7 17.5t17 6.5q16 0 25 -18l408 -744l407 744q9 18 25 18q10 0 17 -6.5t7 -17.5q0 -7 -8 -23l-424 -764v-561q0 -10 -7 -17t-17 -7q-11 0 -18 7t-7 17v561l-424 764q-8 16 -8 23zM283 1595q0 20 13.5 33.5t33.5 13.5t33.5 -13.5t13.5 -33.5t-13.5 -33.5 t-33.5 -13.5t-33.5 13.5t-13.5 33.5zM612 1595q0 20 13.5 33.5t33.5 13.5t34 -13.5t14 -33.5t-14 -33.5t-34 -13.5t-33.5 13.5t-13.5 33.5z" />
<glyph unicode="&#x2c6;" horiz-adv-x="704" d="M154 1063q0 10 8 18l168 197q11 14 22 14q12 0 23 -14l168 -197q8 -8 8 -18q0 -7 -6.5 -13t-14.5 -6q-7 0 -16 9l-162 190l-162 -190q-9 -9 -16 -9q-8 0 -14 6t-6 13z" />
<glyph unicode="&#x2dc;" horiz-adv-x="759" d="M168 1079q-5 10 0 19l20 41q25 51 68 51q6 0 12 -1t11.5 -1.5t13.5 -3t13 -4.5t16 -6l16.5 -6t20.5 -8t22 -9q99 -37 119 -37q22 0 35 27l18 39q8 16 22 16q13 0 17.5 -11t-0.5 -20l-21 -41q-13 -26 -27.5 -37.5t-41.5 -11.5q-28 0 -121 35q-16 6 -37.5 14t-30 11.5 t-20 7.5t-19 5t-14.5 1q-22 0 -35 -27l-16 -35q-9 -18 -25 -18q-11 0 -16 10z" />
<glyph unicode="&#x2000;" horiz-adv-x="859" />
<glyph unicode="&#x2001;" horiz-adv-x="1718" />
<glyph unicode="&#x2002;" horiz-adv-x="859" />
<glyph unicode="&#x2003;" horiz-adv-x="1718" />
<glyph unicode="&#x2004;" horiz-adv-x="572" />
<glyph unicode="&#x2005;" horiz-adv-x="429" />
<glyph unicode="&#x2006;" horiz-adv-x="286" />
<glyph unicode="&#x2007;" horiz-adv-x="286" />
<glyph unicode="&#x2008;" horiz-adv-x="214" />
<glyph unicode="&#x2009;" horiz-adv-x="343" />
<glyph unicode="&#x200a;" horiz-adv-x="95" />
<glyph unicode="&#x2010;" horiz-adv-x="806" d="M133 512q0 9 7 16t16 7h495q9 0 16 -7t7 -16t-7 -16t-16 -7h-495q-9 0 -16 7t-7 16z" />
<glyph unicode="&#x2011;" horiz-adv-x="806" d="M133 512q0 9 7 16t16 7h495q9 0 16 -7t7 -16t-7 -16t-16 -7h-495q-9 0 -16 7t-7 16z" />
<glyph unicode="&#x2012;" horiz-adv-x="806" d="M133 512q0 9 7 16t16 7h495q9 0 16 -7t7 -16t-7 -16t-16 -7h-495q-9 0 -16 7t-7 16z" />
<glyph unicode="&#x2013;" horiz-adv-x="1054" d="M133 512q0 9 7 16t16 7h743q9 0 16 -7t7 -16t-7 -16t-16 -7h-743q-9 0 -16 7t-7 16z" />
<glyph unicode="&#x2014;" horiz-adv-x="1413" d="M133 512q0 9 7 16t16 7h1101q9 0 16 -7t7 -16t-7 -16t-16 -7h-1101q-9 0 -16 7t-7 16z" />
<glyph unicode="&#x2018;" horiz-adv-x="337" d="M133 920v114q0 93 14.5 168t51.5 158q8 20 26 20q9 0 15 -6t6 -14q0 -3 -6 -21q-62 -138 -62 -297v-122q0 -25 -22 -25q-10 0 -16.5 7t-6.5 18z" />
<glyph unicode="&#x2019;" horiz-adv-x="337" d="M113 915q0 3 6 21q61 136 61 297v123q0 24 23 24q22 0 22 -24v-115q0 -94 -14 -168.5t-51 -157.5q-8 -20 -27 -20q-9 0 -14.5 6t-5.5 14z" />
<glyph unicode="&#x201a;" horiz-adv-x="372" d="M96 -311q0 2 6 20q62 138 62 297v123q0 25 22 25q10 0 16.5 -7t6.5 -18v-115q0 -93 -14.5 -167t-51.5 -158q-8 -21 -26 -21q-9 0 -15 6.5t-6 14.5z" />
<glyph unicode="&#x201c;" horiz-adv-x="645" d="M133 920v114q0 93 14.5 168t51.5 158q8 20 26 20q9 0 15 -6t6 -14q0 -3 -6 -21q-62 -138 -62 -297v-122q0 -25 -22 -25q-10 0 -16.5 7t-6.5 18zM440 920v114q0 93 14.5 168t51.5 158q8 20 26 20q9 0 15 -6t6 -14q0 -3 -6 -21q-62 -138 -62 -297v-122q0 -25 -22 -25 q-10 0 -16.5 7t-6.5 18z" />
<glyph unicode="&#x201d;" horiz-adv-x="645" d="M113 915q0 3 6 21q61 136 61 297v123q0 24 23 24q22 0 22 -24v-115q0 -94 -14 -168.5t-51 -157.5q-8 -20 -27 -20q-9 0 -14.5 6t-5.5 14zM420 915q0 3 6 21q61 136 61 297v123q0 24 23 24q22 0 22 -24v-115q0 -94 -14 -168.5t-51 -157.5q-8 -20 -27 -20q-9 0 -14.5 6 t-5.5 14z" />
<glyph unicode="&#x201e;" horiz-adv-x="679" d="M96 -311q0 2 6 20q62 138 62 297v123q0 25 22 25q10 0 16.5 -7t6.5 -18v-115q0 -93 -14.5 -167t-51.5 -158q-8 -21 -26 -21q-9 0 -15 6.5t-6 14.5zM403 -311q0 4 1 7.5t3 7t3 5.5q61 136 61 297v123q0 11 6.5 18t16.5 7q22 0 22 -25v-115q0 -94 -14 -168t-51 -157 q-8 -21 -27 -21q-9 0 -15 6.5t-6 14.5z" />
<glyph unicode="&#x2022;" horiz-adv-x="700" d="M143 664q0 86 60.5 146t146.5 60t146.5 -60t60.5 -146t-60.5 -146.5t-146.5 -60.5t-146.5 60.5t-60.5 146.5z" />
<glyph unicode="&#x2026;" horiz-adv-x="1130" d="M164 16v113q0 11 7 18t17 7t17.5 -7t7.5 -18v-113q0 -10 -7 -17t-18 -7q-10 0 -17 7t-7 17zM541 16v113q0 11 7 18t17 7q11 0 18 -7t7 -18v-113q0 -10 -7 -17t-18 -7t-17.5 7t-6.5 17zM918 16v113q0 11 7 18t17 7t17.5 -7t7.5 -18v-113q0 -10 -7 -17t-18 -7q-10 0 -17 7 t-7 17z" />
<glyph unicode="&#x202f;" horiz-adv-x="343" />
<glyph unicode="&#x2039;" horiz-adv-x="653" d="M113 436q0 9 10 19l346 340q8 8 18 8q9 0 16 -7t7 -16q0 -10 -10 -20l-332 -324l332 -323q10 -10 10 -21q0 -9 -7 -15.5t-16 -6.5q-10 0 -18 8l-346 340q-10 10 -10 18z" />
<glyph unicode="&#x203a;" horiz-adv-x="653" d="M143 92q0 10 11 21l331 323l-331 324q-11 11 -11 20t7 16t16 7q10 0 18 -8l346 -340q11 -11 11 -19q0 -7 -11 -18l-346 -340q-8 -8 -18 -8q-9 0 -16 6.5t-7 15.5z" />
<glyph unicode="&#x205f;" horiz-adv-x="429" />
<glyph unicode="&#x20ac;" horiz-adv-x="1294" d="M92 518q0 9 7 15t16 6h190q-6 70 -6 143q0 80 8 145h-192q-9 0 -16 6t-7 15t7 15.5t16 6.5h196q13 86 36.5 161.5t62.5 141.5t89.5 113.5t119 75t149.5 27.5q263 0 389 -289q4 -8 4 -19q0 -20 -20 -20q-17 0 -23 16q-29 62 -59 106.5t-71.5 82.5t-96.5 57.5t-123 19.5 q-90 0 -162.5 -37.5t-120.5 -104.5t-79 -149.5t-46 -181.5h402q9 0 15.5 -6.5t6.5 -15.5t-6.5 -15t-15.5 -6h-406q-8 -65 -8 -145t8 -143h406q9 0 15.5 -6t6.5 -15t-6.5 -15.5t-15.5 -6.5h-402q12 -79 33.5 -148t56 -130t79 -104.5t106 -68.5t133.5 -25q130 0 209.5 68.5 t140.5 198.5q6 16 23 16q20 0 20 -20q0 -11 -4 -19q-126 -289 -389 -289q-81 0 -150.5 27.5t-119.5 75t-88.5 114t-62 142t-36.5 162.5h-196q-9 0 -16 6.5t-7 15.5z" />
<glyph unicode="&#x2122;" horiz-adv-x="1310" d="M104 1348q0 7 5.5 11.5t11.5 4.5h414q16 0 16 -16q0 -6 -5 -11.5t-11 -5.5h-189v-563q0 -8 -5 -13t-13 -5t-13.5 5.5t-5.5 12.5v563h-188q-6 0 -11.5 5.5t-5.5 11.5zM647 766v590q0 7 5.5 11.5t11.5 4.5q12 0 18 -14l225 -561l226 561q6 14 18 14q16 0 16 -16v-590 q0 -16 -16 -16q-18 0 -18 16v508l-205 -508q-6 -16 -21 -16q-14 0 -20 16l-205 508v-508q0 -16 -18 -16q-6 0 -11.5 4.5t-5.5 11.5z" />
<glyph unicode="&#x25fc;" horiz-adv-x="901" d="M0 0v901h901v-901h-901z" />
<glyph unicode="&#xfb01;" horiz-adv-x="888" d="M37 866q0 10 6.5 16.5t15.5 6.5h136v184q0 152 66.5 221.5t207.5 69.5h43q9 0 14.5 -7t5.5 -16q0 -8 -5.5 -14t-14.5 -6h-41q-119 0 -173 -57t-54 -191v-184h256q9 0 15.5 -6.5t6.5 -16.5q0 -9 -6.5 -14.5t-15.5 -5.5h-256v-838q0 -10 -7 -17t-18 -7t-17.5 7t-6.5 17v838 h-136q-9 0 -15.5 5.5t-6.5 14.5zM676 8v873q0 11 7 17.5t17 6.5q11 0 18 -7t7 -17v-873q0 -10 -7 -17t-18 -7q-10 0 -17 7t-7 17zM676 1092v129q0 11 7 17.5t17 6.5q11 0 18 -7t7 -17v-129q0 -10 -7.5 -17.5t-17.5 -7.5t-17 7t-7 18z" />
<glyph unicode="&#xfb02;" horiz-adv-x="903" d="M37 866q0 10 6.5 16.5t15.5 6.5h136v184q0 152 66.5 221.5t207.5 69.5h43q9 0 14.5 -7t5.5 -16q0 -8 -5.5 -14t-14.5 -6h-41q-119 0 -173 -57t-54 -191v-184h256q9 0 15.5 -6.5t6.5 -16.5q0 -9 -6.5 -14.5t-15.5 -5.5h-256v-838q0 -10 -7 -17t-18 -7t-17.5 7t-6.5 17v838 h-136q-9 0 -15.5 5.5t-6.5 14.5zM690 8v1348q0 10 7 17t18 7t17.5 -7t6.5 -17v-1348q0 -10 -6.5 -17t-17.5 -7t-18 7t-7 17z" />
</font>
</defs>
</svg>
