<?xml version="1.0" encoding="utf-8"?>
<!-- Generator: Adobe Illustrator 18.0.0, SVG Export Plug-In . SVG Version: 6.00 Build 0)  -->
<!DOCTYPE svg PUBLIC "-//W3C//DTD SVG 1.1//EN" "http://www.w3.org/Graphics/SVG/1.1/DTD/svg11.dtd">
<svg version="1.1" id="Capa_1" xmlns="http://www.w3.org/2000/svg" xmlns:xlink="http://www.w3.org/1999/xlink" x="0px" y="0px"
	 viewBox="0 0 595.3 841.9" enable-background="new 0 0 595.3 841.9" xml:space="preserve">
<g id="guia" display="none">
</g>
<g id="guia2">
</g>
<g id="Capa_3">
	<g>
		<path fill="#FFFFFF" d="M320,207.6c-14.9-14.9-39.7-32.2-62-37.2c-2.5,2.5-5,7.4-5,9.9c27.3,9.9,47.1,22.3,62,34.7
			c0,2.5-2.5,2.5-2.5,5c-27.3-24.8-54.6-32.2-62-34.7c-7.4,9.9-12.4,19.8-17.4,27.3c27.3,7.4,49.6,22.3,62,34.7c0,0,0,0,0,2.5
			c-29.8-27.3-59.5-34.7-62-34.7c-17.4,29.8-24.8,44.6-44.6,86.8c-9.9,17.4-9.9,39.7-9.9,54.6c2.5,27.3,12.4,188.5,9.9,215.8
			c-2.5,29.8,0,57-2.5,69.4c0,5-5,12.4-9.9,17.4c-2.5,2.5-7.4,2.5-7.4,9.9s9.9,5,22.3,2.5c12.4-2.5,22.3-9.9,32.2-39.7
			c5-17.4,14.9-24.8,19.8-29.8c12.4-9.9,27.3-27.3,7.4-39.7c-12.4-7.4-19.8-5-17.4-19.8c5-29.8,32.2-136.4,7.4-193.5
			c7.4-12.4,14.9-22.3,24.8-34.7c-2.5,12.4-2.5,24.8,0,32.2c2.5,27.3,12.4,188.5,9.9,215.8c-2.5,29.8,0,57-2.5,69.4
			c0,5-5,12.4-9.9,17.4s-9.9,5-9.9,12.4s9.9,5,22.3,2.5c12.4-2.5,22.3-9.9,32.2-39.7c5-17.4,14.9-24.8,19.8-29.8
			c12.4-9.9,27.3-27.3,7.4-39.7c-12.4-7.4-19.8-5-17.4-19.8c5-29.8,32.2-136.4,7.4-193.5c19.8-27.3,47.1-54.6,71.9-84.3
			C364.6,220,324.9,210.1,320,207.6z"/>
		<path fill="#FFFFFF" d="M344.8,165.5c-2.5,2.5-5,7.4-5,9.9c47.1,14.9,74.4,47.1,81.9,57c0-5,2.5-7.4,5-9.9
			C426.6,222.5,384.5,172.9,344.8,165.5z"/>
		<path fill="#FFFFFF" d="M334.8,177.9c-5,9.9-12.4,19.8-14.9,27.3c44.6,12.4,74.4,44.6,79.4,52.1c7.4-7.4,12.4-14.9,17.4-22.3
			C384.5,195.2,344.8,182.8,334.8,177.9z"/>
	</g>
</g>
</svg>
