<?xml version="1.0" encoding="utf-8"?>
<!-- Generator: Adobe Illustrator 18.0.0, SVG Export Plug-In . SVG Version: 6.00 Build 0)  -->
<!DOCTYPE svg PUBLIC "-//W3C//DTD SVG 1.1//EN" "http://www.w3.org/Graphics/SVG/1.1/DTD/svg11.dtd">
<svg version="1.1" id="Capa_1" xmlns="http://www.w3.org/2000/svg" xmlns:xlink="http://www.w3.org/1999/xlink" x="0px" y="0px"
	 viewBox="0 0 595.3 841.9" enable-background="new 0 0 595.3 841.9" xml:space="preserve">
<g id="guia" display="none">
</g>
<g id="guia2">
</g>
<g id="Capa_3">
	<g>
		<g>
			<path fill="#FFFFFF" d="M525.8,304.4c-2.5-22.3-9.9-39.7-17.4-54.6c2.5-17.4-2.5-29.8-9.9-39.7c-136.4,27.3-272.8,29.8-414.2,7.4
				c-2.5,7.4-2.5,19.8-2.5,32.2C74.4,272.1,69.4,292,67,309.3c-2.5,17.4-5,39.7-7.4,67c69.4,19.8,114.1,59.5,133.9,109.1
				c17.4,52.1,29.8,84.3,37.2,99.2c2.5,5,5,7.4,5,12.4c7.4,12.4,9.9,22.3,14.9,24.8c29.8,12.4,59.5,12.4,94.3,0
				c7.4-7.4,17.4-34.7,34.7-76.9c2.5-7.4,5-12.4,7.4-19.8c24.8-64.5,74.4-116.6,143.9-153.8C533.3,349,530.8,324.2,525.8,304.4z
				 M374.5,262.2l49.6,178.6l-2.5,2.5c-5,2.5-7.4,7.4-12.4,9.9c0-5-5-12.4-7.4-27.3c-2.5-12.4-12.4-44.6-27.3-91.8
				s-22.3-71.9-22.3-74.4C352.2,262.2,374.5,262.2,374.5,262.2z M250.5,259.7c0,2.5-7.4,27.3-22.3,74.4c-2.5,7.4-5,12.4-7.4,19.8
				v2.5c14.9,32.2,24.8,67,24.8,101.7c2.5,29.8,0,57-5,86.8c-7.4-5-9.9-9.9-14.9-14.9c5-22.3,7.4-44.6,5-67
				c0-27.3-7.4-52.1-19.8-76.9c-5,17.4-9.9,32.2-9.9,39.7c-5,14.9-7.4,22.3-7.4,27.3c-5-5-9.9-9.9-9.9-12.4v-2.5c0,0,0,0,0-2.5
				c0,0,0-2.5-2.5-5l49.6-171.1C228.2,259.7,250.5,259.7,250.5,259.7z"/>
		</g>
	</g>
</g>
</svg>
