<?xml version="1.0" encoding="utf-8"?>
<!-- Generator: Adobe Illustrator 18.0.0, SVG Export Plug-In . SVG Version: 6.00 Build 0)  -->
<!DOCTYPE svg PUBLIC "-//W3C//DTD SVG 1.1//EN" "http://www.w3.org/Graphics/SVG/1.1/DTD/svg11.dtd">
<svg version="1.1" id="Capa_1" xmlns="http://www.w3.org/2000/svg" xmlns:xlink="http://www.w3.org/1999/xlink" x="0px" y="0px"
	 viewBox="0 0 595.3 841.9" enable-background="new 0 0 595.3 841.9" xml:space="preserve">
<g id="guia" display="none">
</g>
<g id="guia2">
</g>
<g id="Capa_3">
	<g>
		<path fill="#FFFFFF" d="M208.3,475.5l-5-2.5l-24.8,22.3c-7.4-5-17.4-9.9-29.8-9.9c-9.9,0-19.8,5-27.3,12.4
			c-9.9,12.4-17.4,27.3-14.9,39.7c2.5,14.9,12.4,27.3,24.8,32.2c5,2.5,12.4,5,17.4,5c0,2.5,0,2.5,0,5c2.5,19.8,17.4,34.7,39.7,34.7
			h2.5c14.9,0,29.8-7.4,37.2-19.8c9.9-14.9,9.9-34.7,2.5-52.1c0,0,0,0,0-2.5l17.4-17.4v-5c0-2.5,0-7.4-5-17.4
			C238.1,495.4,228.2,485.4,208.3,475.5z M203.4,542.5l7.4,7.4c0,0,2.5,2.5,2.5,5c5,9.9,5,22.3-2.5,32.2c-5,7.4-12.4,12.4-19.8,12.4
			h-2.5c-12.4,0-19.8-7.4-22.3-17.4c0-5,0-9.9,0-9.9l5-27.3l-19.8,12.4c-2.5,0-5,0-14.9-5c-7.4-2.5-12.4-9.9-12.4-17.4
			s2.5-17.4,9.9-24.8c5-5,7.4-5,12.4-5c9.9,0,19.8,7.4,24.8,9.9l7.4,5l29.8-24.8c12.4,5,17.4,12.4,19.8,17.4c0,2.5,2.5,2.5,2.5,5
			L203.4,542.5z"/>
		<path fill="#FFFFFF" d="M483.7,299.4c-22.3-57-94.3-79.4-121.5-71.9c-19.8,5-79.4,19.8-94.3,99.2
			c-14.9,79.4-54.6,126.5-59.5,126.5l0,0c-5,0-2.5,22.3,37.2,12.4c2.5,0,2.5,0,5,0c5,0-5,14.9-2.5,29.8c0,9.9,5,19.8,19.8,22.3
			c0,0,24.8-47.1,89.3-54.6s131.5-32.2,133.9-126.5C491.1,321.7,488.6,309.3,483.7,299.4z M446.5,366.4c0,5-5,7.4-7.4,7.4
			c-2.5,0-5-5-2.5-9.9c0-5,5-9.9,7.4-7.4C446.5,358.9,446.5,361.4,446.5,366.4z M448.9,329.2c2.5-9.9,9.9-17.4,14.9-14.9
			c5,2.5,7.4,9.9,5,19.8c-2.5,9.9-9.9,17.4-14.9,14.9C448.9,349,446.5,339.1,448.9,329.2z M468.8,368.9c-2.5,7.4-5,9.9-9.9,9.9
			c-2.5,0-5-7.4-2.5-12.4c2.5-7.4,5-9.9,9.9-9.9C468.8,356.5,471.3,363.9,468.8,368.9z"/>
	</g>
</g>
</svg>
