<?xml version="1.0" encoding="utf-8"?>
<!-- Generator: Adobe Illustrator 18.0.0, SVG Export Plug-In . SVG Version: 6.00 Build 0)  -->
<!DOCTYPE svg PUBLIC "-//W3C//DTD SVG 1.1//EN" "http://www.w3.org/Graphics/SVG/1.1/DTD/svg11.dtd">
<svg version="1.1" id="Capa_1" xmlns="http://www.w3.org/2000/svg" xmlns:xlink="http://www.w3.org/1999/xlink" x="0px" y="0px"
	 viewBox="0 0 595.3 841.9" enable-background="new 0 0 595.3 841.9" xml:space="preserve">
<g id="guia" display="none">
</g>
<g id="guia2">
</g>
<g id="Capa_3">
	<path fill="#FFFFFF" d="M414.2,425.9c0,5-5,9.9-12.4,9.9H183.5c-7.4,0-12.4-5-12.4-9.9v-7.4c0-5,5-9.9,12.4-9.9h218.3
		c7.4,0,12.4,5,12.4,9.9V425.9z"/>
	<path fill="#FFFFFF" d="M414.2,269.6c-7.4-54.6-17.4-79.4-17.4-79.4c-2.5-2.5-5-2.5-7.4-2.5h-186c-2.5,0-5,0-5,2.5
		c0,0-9.9,24.8-17.4,79.4c-7.4,52.1-32.2,357.2-32.2,369.6c0,5,2.5,7.4,7.4,9.9L198.4,230c0-2.5,0-2.5,2.5-2.5h2.5
		c2.5,0,2.5,2.5,2.5,2.5l-42.2,421.7l62,5c5,0,9.9-2.5,9.9-7.4l62-305.1l59.5,302.6c0,5,5,7.4,9.9,7.4c0,0,0,0,2.5,0l59.5-5
		L384.5,230c0-2.5,2.5-2.5,2.5-2.5h2.5c2.5,0,5,0,5,2.5l42.2,421.7h2.5c5,0,7.4-5,7.4-9.9C446.5,626.8,421.7,321.7,414.2,269.6z
		 M389.4,215.1h-186c0-7.4,2.5-9.9,5-12.4h178.6C389.4,202.7,389.4,207.6,389.4,215.1C391.9,215.1,389.4,215.1,389.4,215.1z"/>
</g>
</svg>
