<?xml version="1.0" encoding="utf-8"?>
<!-- Generator: Adobe Illustrator 18.0.0, SVG Export Plug-In . SVG Version: 6.00 Build 0)  -->
<!DOCTYPE svg PUBLIC "-//W3C//DTD SVG 1.1//EN" "http://www.w3.org/Graphics/SVG/1.1/DTD/svg11.dtd">
<svg version="1.1" id="Capa_1" xmlns="http://www.w3.org/2000/svg" xmlns:xlink="http://www.w3.org/1999/xlink" x="0px" y="0px"
	 viewBox="0 0 595.3 841.9" enable-background="new 0 0 595.3 841.9" xml:space="preserve">
<g id="guia" display="none">
</g>
<g id="guia2">
</g>
<g id="Capa_3">
	<g>
		<g>
			<path fill="#FFFFFF" d="M89.3,336.6H74.4c-7.4,0-14.9,5-14.9,12.4v141.4c0,7.4,7.4,12.4,14.9,12.4h14.9c7.4,0,14.9-5,14.9-12.4
				V351.5C104.2,344.1,99.2,336.6,89.3,336.6z"/>
			<path fill="#FFFFFF" d="M451.4,304.4h-22.3c-7.4,0-14.9,5-14.9,12.4v79.4h-248v-79.4c0-7.4-7.4-12.4-14.9-12.4h-12.4
				c-7.4,0-14.9,7.4-14.9,12.4v205.9c0,7.4,7.4,12.4,14.9,12.4h14.9c7.4,0,14.9-5,14.9-12.4v-76.9h248v79.4
				c0,7.4,7.4,12.4,14.9,12.4h22.3c7.4,0,14.9-5,14.9-12.4V316.8C466.3,311.8,458.9,304.4,451.4,304.4z"/>
			<path fill="#FFFFFF" d="M520.9,336.6h-22.3c-7.4,0-14.9,5-14.9,12.4v141.4c0,7.4,7.4,12.4,14.9,12.4h22.3c7.4,0,14.9-5,14.9-12.4
				V351.5C535.8,344.1,528.3,336.6,520.9,336.6z"/>
		</g>
	</g>
	<path fill="#FFFFFF" d="M414.2,425.9c0,5-5,9.9-12.4,9.9H183.5c-7.4,0-12.4-5-12.4-9.9v-7.4c0-5,5-9.9,12.4-9.9h218.3
		c7.4,0,12.4,5,12.4,9.9V425.9z"/>
</g>
</svg>
