<?xml version="1.0" encoding="utf-8"?>
<!-- Generator: Adobe Illustrator 18.0.0, SVG Export Plug-In . SVG Version: 6.00 Build 0)  -->
<!DOCTYPE svg PUBLIC "-//W3C//DTD SVG 1.1//EN" "http://www.w3.org/Graphics/SVG/1.1/DTD/svg11.dtd">
<svg version="1.1" id="Capa_1" xmlns="http://www.w3.org/2000/svg" xmlns:xlink="http://www.w3.org/1999/xlink" x="0px" y="0px"
	 viewBox="0 0 595.3 841.9" enable-background="new 0 0 595.3 841.9" xml:space="preserve">
<g id="guia" display="none">
</g>
<g id="guia2">
</g>
<g id="Capa_3">
	<path fill="#FFFFFF" d="M394.4,210.1H200.9c-24.8,0-44.6,22.3-44.6,47.1v324.9c0,27.3,19.8,47.1,44.6,47.1h195.9
		c24.8,0,44.6-22.3,44.6-47.1V257.2C439,232.4,419.2,210.1,394.4,210.1z M307.6,592.1c0,5-2.5,12.4-9.9,12.4c-7.4,0-9.9-5-9.9-12.4
		c0-5,2.5-12.4,9.9-12.4C305.1,579.7,307.6,587.1,307.6,592.1z M401.8,252.3v297.6H193.5V252.3L401.8,252.3L401.8,252.3z"/>
</g>
</svg>
