<?xml version="1.0" encoding="utf-8"?>
<!-- Generator: Adobe Illustrator 18.0.0, SVG Export Plug-In . SVG Version: 6.00 Build 0)  -->
<!DOCTYPE svg PUBLIC "-//W3C//DTD SVG 1.1//EN" "http://www.w3.org/Graphics/SVG/1.1/DTD/svg11.dtd">
<svg version="1.1" id="Capa_1" xmlns="http://www.w3.org/2000/svg" xmlns:xlink="http://www.w3.org/1999/xlink" x="0px" y="0px"
	 viewBox="0 0 595.3 841.9" enable-background="new 0 0 595.3 841.9" xml:space="preserve">
<g id="guia" display="none">
</g>
<g id="guia2">
</g>
<g id="Capa_3">
	<path fill="#FFFFFF" d="M491.1,465.6v-34.7c0-106.7-86.8-191-191-191c-106.7,0-191,86.8-191,191v34.7c-27.3,5-47.1,27.3-47.1,54.6
		c0,29.8,22.3,52.1,49.6,57c7.4,14.9,22.3,27.3,39.7,27.3c24.8,0,42.2-19.8,42.2-42.2v-81.9c0-24.8-19.8-42.2-42.2-42.2h-7.4v-5
		c0-84.3,69.4-153.8,153.8-153.8S451.4,349,451.4,433.3v5h-5c-24.8,0-42.2,19.8-42.2,42.2v81.9c0,24.8,19.8,42.2,42.2,42.2
		c17.4,0,32.2-9.9,39.7-27.3c27.3-5,47.1-29.8,47.1-57C533.3,492.9,515.9,470.6,491.1,465.6z M148.8,475.5h9.9c2.5,0,5,2.5,5,5v84.3
		c0,2.5-2.5,5-5,5h-9.9c-2.5,0-5-2.5-5-5v-84.3C143.9,478,146.3,475.5,148.8,475.5z M451.4,564.8c0,2.5-2.5,5-5,5h-9.9
		c-2.5,0-5-2.5-5-5v-84.3c0-2.5,2.5-5,5-5h9.9c2.5,0,5,2.5,5,5V564.8z"/>
</g>
</svg>
