<?xml version="1.0" encoding="utf-8"?>
<!-- Generator: Adobe Illustrator 18.0.0, SVG Export Plug-In . SVG Version: 6.00 Build 0)  -->
<!DOCTYPE svg PUBLIC "-//W3C//DTD SVG 1.1//EN" "http://www.w3.org/Graphics/SVG/1.1/DTD/svg11.dtd">
<svg version="1.1" id="Capa_1" xmlns="http://www.w3.org/2000/svg" xmlns:xlink="http://www.w3.org/1999/xlink" x="0px" y="0px"
	 viewBox="0 0 595.3 841.9" enable-background="new 0 0 595.3 841.9" xml:space="preserve">
<g id="guia" display="none">
</g>
<g id="guia2">
</g>
<g id="Capa_3">
	<g>
		<path fill="#FFFFFF" d="M451.4,321.7v-32.2c0-14.9-12.4-27.3-27.3-27.3h-2.5c-14.9,0-27.3,12.4-27.3,27.3v32.2H158.7
			c-39.7,0-71.9,32.2-71.9,71.9v178.6c0,39.7,32.2,71.9,71.9,71.9h275.3c39.7,0,71.9-32.2,71.9-71.9V393.7
			C508.5,358.9,483.7,329.2,451.4,321.7z M411.7,289.5c0-5,5-9.9,9.9-9.9l0,0c5,0,9.9,5,9.9,9.9v17.4h-19.8
			C411.7,306.8,411.7,289.5,411.7,289.5z M476.2,572.2c0,22.3-17.4,42.2-42.2,42.2H158.7c-22.3,0-42.2-17.4-42.2-42.2V393.7
			c0-22.3,17.4-42.2,42.2-42.2h275.3c22.3,0,42.2,17.4,42.2,42.2V572.2z"/>
		<path fill="#FFFFFF" d="M434.1,363.9H161.2c-17.4,0-32.2,14.9-32.2,32.2v37.2c0,17.4,14.9,32.2,32.2,32.2h203.4
			c17.4,0,32.2-14.9,32.2-32.2v-7.4c0-7.4,2.5-9.9,5-9.9s5,5,5,9.9v7.4c0,17.4,12.4,32.2,29.8,32.2s29.8-14.9,29.8-32.2v-37.2
			C466.3,378.8,451.4,363.9,434.1,363.9z M446.5,433.3c0,5-5,9.9-9.9,9.9s-9.9-5-9.9-9.9v-7.4c0-17.4-12.4-32.2-27.3-32.2
			s-27.3,14.9-27.3,32.2v7.4c0,5-5,9.9-9.9,9.9H161.2c-7.4,2.5-12.4-2.5-12.4-9.9v-37.2c0-5,5-9.9,9.9-9.9h272.8c5,0,9.9,5,9.9,9.9
			v37.2H446.5z"/>
		<path fill="#FFFFFF" d="M153.8,237.4l233.2,71.9v-29.8c0-2.5,0-2.5,2.5-5c0-2.5,0-2.5,0-2.5c2.5-2.5,5-5,5-9.9v-7.4l-5-2.5
			l-220.7-54.6h-2.5c-5,0-12.4,5-17.4,14.9c-2.5,12.4,2.5,19.8,2.5,22.3L153.8,237.4z"/>
		<path fill="#FFFFFF" d="M352.2,478c-19.8,0-34.7,14.9-34.7,34.7s14.9,34.7,34.7,34.7s34.7-14.9,34.7-34.7
			C386.9,492.9,372.1,478,352.2,478z M352.2,525.1c-7.4,0-12.4-5-12.4-12.4c0-7.4,5-12.4,12.4-12.4c7.4,0,12.4,5,12.4,12.4
			S359.6,525.1,352.2,525.1z"/>
		<path fill="#FFFFFF" d="M205.9,475.5c-32.2,0-57,24.8-57,57s24.8,57,57,57s57-24.8,57-57S238.1,475.5,205.9,475.5z M205.9,567.3
			c-19.8,0-37.2-17.4-37.2-37.2s17.4-37.2,37.2-37.2s37.2,17.4,37.2,37.2C243.1,549.9,225.7,567.3,205.9,567.3z"/>
	</g>
</g>
</svg>
