<?xml version="1.0" encoding="utf-8"?>
<!-- Generator: Adobe Illustrator 18.0.0, SVG Export Plug-In . SVG Version: 6.00 Build 0)  -->
<!DOCTYPE svg PUBLIC "-//W3C//DTD SVG 1.1//EN" "http://www.w3.org/Graphics/SVG/1.1/DTD/svg11.dtd">
<svg version="1.1" id="Capa_1" xmlns="http://www.w3.org/2000/svg" xmlns:xlink="http://www.w3.org/1999/xlink" x="0px" y="0px"
	 viewBox="0 0 595.3 841.9" enable-background="new 0 0 595.3 841.9" xml:space="preserve">
<g id="guia" display="none">
</g>
<g id="guia2">
</g>
<g id="Capa_3">
	<g>
		<path fill="#FFFFFF" d="M448.9,205.2H146.3c-37.2,0-67,29.8-67,67v300.1c0,37.2,29.8,67,67,67h300.1c37.2,0,67-29.8,67-67V269.6
			C513.4,234.9,483.7,205.2,448.9,205.2z M367.1,569.8c0-2.5,2.5-7.4,7.4-7.4c2.5,0,7.4,2.5,7.4,7.4s-2.5,7.4-7.4,7.4
			C369.6,577.2,367.1,574.7,367.1,569.8z M456.4,282l-14.9,39.7l-39.7-14.9l14.9-39.7L456.4,282z M369.6,497.8c0-2.5,0-2.5-2.5-5
			l-5-7.4l19.8-9.9C379.5,483,374.5,490.4,369.6,497.8z M367.1,450.7L307.6,483c-2.5,2.5-5,5-7.4,9.9c0,5,0,7.4,0,12.4
			c5,7.4,12.4,9.9,19.8,5l22.3-12.4l5,7.4c2.5,2.5,5,5,9.9,5c-19.8,19.8-49.6,32.2-81.9,32.2c-64.5,0-116.6-52.1-116.6-116.6
			s52.1-116.6,116.6-116.6c42.2,0,81.9,22.3,101.7,59.5c2.5,5,9.9,7.4,14.9,7.4L367.1,450.7z M406.8,339.1l-5,12.4
			c-5-7.4-9.9-14.9-14.9-19.8L406.8,339.1z M468.8,254.8l-44.6-17.4c-12.4-5-29.8,2.5-34.7,14.9l-17.4,47.1c-2.5,5-2.5,12.4,0,17.4
			c-27.3-22.3-59.5-34.7-94.3-34.7c-79.4,0-146.3,64.5-146.3,146.3c0,79.4,64.5,146.3,146.3,146.3c29.8,0,57-7.4,79.4-22.3
			c-7.4,2.5-9.9,9.9-9.9,17.4c0,14.9,12.4,27.3,27.3,27.3s27.3-12.4,27.3-27.3s-12.4-27.3-27.3-27.3c-5,0-9.9,0-12.4,2.5
			c37.2-27.3,62-69.4,62-119.1c0-9.9,0-22.3-2.5-32.2L439,349c12.4,2.5,27.3-5,32.2-17.4l17.4-44.6c0,0,0,0,0-2.5v285.2
			c0,19.8-17.4,37.2-37.2,37.2H146.3c-19.8,0-37.2-17.4-37.2-37.2V269.6c0-19.8,17.4-37.2,37.2-37.2h300.1
			c19.8,0,37.2,17.4,37.2,37.2l0,0C481.2,264.7,476.2,257.2,468.8,254.8z"/>
		<path fill="#FFFFFF" d="M277.8,381.3c-24.8,0-44.6,19.8-44.6,44.6c0,24.8,19.8,44.6,44.6,44.6c24.8,0,44.6-19.8,44.6-44.6
			C322.4,401.1,302.6,381.3,277.8,381.3z M277.8,450.7c-12.4,0-22.3-9.9-22.3-22.3s9.9-22.3,22.3-22.3c12.4,0,22.3,9.9,22.3,22.3
			C300.1,438.3,290.2,450.7,277.8,450.7z"/>
		<path fill="#FFFFFF" d="M441.5,597c14.9,0,27.3-12.4,27.3-27.3s-12.4-27.3-27.3-27.3c-14.9,0-27.3,12.4-27.3,27.3
			C414.2,584.6,426.6,597,441.5,597z M441.5,577.2c-2.5,0-7.4-2.5-7.4-7.4s2.5-7.4,7.4-7.4c5,0,5,5,5,7.4S444,577.2,441.5,577.2z"/>
		<path fill="#FFFFFF" d="M431.6,497.8v24.8c0,5,5,9.9,9.9,9.9s9.9-5,9.9-9.9v-24.8c7.4-2.5,9.9-9.9,9.9-17.4c0-7.4-5-14.9-9.9-17.4
			v-24.8c0-5-5-9.9-9.9-9.9c-5,0-9.9,5-9.9,9.9v24.8c-7.4,2.5-9.9,9.9-9.9,17.4C421.7,487.9,424.1,495.4,431.6,497.8z"/>
	</g>
</g>
</svg>
