<?xml version="1.0" encoding="utf-8"?>
<!-- Generator: Adobe Illustrator 18.0.0, SVG Export Plug-In . SVG Version: 6.00 Build 0)  -->
<!DOCTYPE svg PUBLIC "-//W3C//DTD SVG 1.1//EN" "http://www.w3.org/Graphics/SVG/1.1/DTD/svg11.dtd">
<svg version="1.1" id="Capa_1" xmlns="http://www.w3.org/2000/svg" xmlns:xlink="http://www.w3.org/1999/xlink" x="0px" y="0px"
	 viewBox="0 0 595.3 841.9" enable-background="new 0 0 595.3 841.9" xml:space="preserve">
<g id="guia" display="none">
</g>
<g id="guia2">
</g>
<g id="Capa_3">
	<g>
		<circle fill="#FFFFFF" cx="414.2" cy="244.8" r="17.4"/>
		<circle fill="#FFFFFF" cx="414.2" cy="564.8" r="17.4"/>
		<circle fill="#FFFFFF" cx="188.5" cy="557.4" r="17.4"/>
		<circle fill="#FFFFFF" cx="181.1" cy="244.8" r="17.4"/>
		<path fill="#FFFFFF" d="M404.3,185.3H191c-37.2,0-67,29.8-67,67v300.1c0,32.2,22.3,59.5,54.6,67v37.2h84.3v-34.7h71.9v34.7h84.3
			v-37.2c32.2-5,54.6-34.7,54.6-67V252.3C471.3,215.1,441.5,185.3,404.3,185.3z M191,217.6h213.3c19.8,0,34.7,14.9,34.7,34.7v300.1
			c0,19.8-14.9,34.7-34.7,34.7H191c-19.8,0-34.7-14.9-34.7-34.7V252.3C153.8,232.4,171.1,217.6,191,217.6z"/>
		<path fill="#FFFFFF" d="M297.6,574.7c57,0,104.2-47.1,104.2-104.2s-47.1-104.2-104.2-104.2s-104.2,47.1-104.2,104.2
			S240.6,574.7,297.6,574.7z M297.6,398.6c39.7,0,71.9,32.2,71.9,71.9s-32.2,71.9-71.9,71.9s-71.9-32.2-71.9-71.9
			S258,398.6,297.6,398.6z"/>
		<path fill="#FFFFFF" d="M297.6,346.5c27.3,0,52.1-22.3,52.1-52.1s-24.8-52.1-52.1-52.1c-27.3,0-52.1,22.3-52.1,52.1
			C245.6,324.2,270.4,346.5,297.6,346.5z M297.6,274.6c9.9,0,19.8,7.4,19.8,19.8c0,9.9-7.4,19.8-19.8,19.8
			c-9.9,0-19.8-7.4-19.8-19.8S287.7,274.6,297.6,274.6z"/>
		<path fill="#FFFFFF" d="M297.6,515.2c24.8,0,47.1-19.8,47.1-47.1c0-27.3-22.3-44.6-47.1-44.6c-24.8,0-47.1,19.8-47.1,47.1
			C250.5,497.8,272.8,515.2,297.6,515.2z M297.6,448.2c12.4,0,22.3,9.9,22.3,22.3c0,12.4-9.9,22.3-22.3,22.3s-22.3-9.9-22.3-22.3
			C275.3,458.2,285.2,448.2,297.6,448.2z"/>
	</g>
</g>
</svg>
