<?xml version="1.0" encoding="utf-8"?>
<!-- Generator: Adobe Illustrator 18.0.0, SVG Export Plug-In . SVG Version: 6.00 Build 0)  -->
<!DOCTYPE svg PUBLIC "-//W3C//DTD SVG 1.1//EN" "http://www.w3.org/Graphics/SVG/1.1/DTD/svg11.dtd">
<svg version="1.1" id="Capa_1" xmlns="http://www.w3.org/2000/svg" xmlns:xlink="http://www.w3.org/1999/xlink" x="0px" y="0px"
	 viewBox="0 0 595.3 841.9" enable-background="new 0 0 595.3 841.9" xml:space="preserve">
<g id="guia" display="none">
</g>
<g id="guia2">
</g>
<g id="Capa_3">
	<path fill="#FFFFFF" d="M344.8,361.4c-42.2,0-74.4,32.2-74.4,74.4s32.2,74.4,74.4,74.4c39.7,0,74.4-32.2,74.4-74.4
		S386.9,361.4,344.8,361.4z M357.2,430.9c-12.4,0-22.3-9.9-22.3-22.3c0-12.4,9.9-22.3,22.3-22.3c12.4,0,22.3,9.9,22.3,22.3
		C379.5,420.9,369.6,430.9,357.2,430.9z M258,279.6h-42.2v-7.4c0-9.9-9.9-19.8-19.8-19.8h-39.7c-12.4,0-19.8,9.9-19.8,19.8v7.4
		h-14.9c-22.3,0-39.7,17.4-39.7,39.7v228.2c0,22.3,17.4,39.7,39.7,39.7h349.7c22.3,0,39.7-32.2,39.7-54.6V319.3
		c0-22.3-17.4-39.7-39.7-39.7h-12.4H258z M176.1,515.2c0,7.4-5,12.4-12.4,12.4s-14.9-5-14.9-12.4V354c0-7.4,7.4-14.9,14.9-14.9
		s12.4,7.4,12.4,14.9V515.2z M344.8,535c-57,0-101.7-44.6-101.7-101.7s44.6-101.7,101.7-101.7s101.7,44.6,101.7,101.7
		S401.8,535,344.8,535z"/>
</g>
</svg>
