<?xml version="1.0" encoding="utf-8"?>
<!-- Generator: Adobe Illustrator 18.0.0, SVG Export Plug-In . SVG Version: 6.00 Build 0)  -->
<!DOCTYPE svg PUBLIC "-//W3C//DTD SVG 1.1//EN" "http://www.w3.org/Graphics/SVG/1.1/DTD/svg11.dtd">
<svg version="1.1" id="Capa_1" xmlns="http://www.w3.org/2000/svg" xmlns:xlink="http://www.w3.org/1999/xlink" x="0px" y="0px"
	 viewBox="0 0 595.3 841.9" enable-background="new 0 0 595.3 841.9" xml:space="preserve">
<g id="guia" display="none">
</g>
<g id="guia2">
</g>
<g id="Capa_3">
	<g>
		<rect x="320" y="344.1" fill="#FFFFFF" width="42.2" height="24.8"/>
		<rect x="320" y="386.2" fill="#FFFFFF" width="42.2" height="24.8"/>
		<rect x="320" y="428.4" fill="#FFFFFF" width="42.2" height="24.8"/>
		<rect x="389.4" y="473" fill="#FFFFFF" width="42.2" height="24.8"/>
		<rect x="320" y="473" fill="#FFFFFF" width="42.2" height="24.8"/>
		<rect x="267.9" y="344.1" fill="#FFFFFF" width="42.2" height="24.8"/>
		<rect x="389.4" y="344.1" fill="#FFFFFF" width="42.2" height="24.8"/>
		<rect x="441.5" y="473" fill="#FFFFFF" width="42.2" height="24.8"/>
		<rect x="441.5" y="428.4" fill="#FFFFFF" width="42.2" height="24.8"/>
		<rect x="441.5" y="344.1" fill="#FFFFFF" width="42.2" height="24.8"/>
		<rect x="389.4" y="386.2" fill="#FFFFFF" width="42.2" height="24.8"/>
		<rect x="267.9" y="386.2" fill="#FFFFFF" width="42.2" height="24.8"/>
		<rect x="389.4" y="428.4" fill="#FFFFFF" width="42.2" height="24.8"/>
		<rect x="441.5" y="386.2" fill="#FFFFFF" width="42.2" height="24.8"/>
		<rect x="111.6" y="386.2" fill="#FFFFFF" width="42.2" height="24.8"/>
		<rect x="111.6" y="428.4" fill="#FFFFFF" width="42.2" height="24.8"/>
		<rect x="111.6" y="344.1" fill="#FFFFFF" width="42.2" height="24.8"/>
		<path fill="#FFFFFF" d="M506,292H89.3c-17.4,0-29.8,12.4-29.8,29.8v198.4c0,17.4,12.4,29.8,29.8,29.8H506
			c17.4,0,29.8-12.4,29.8-29.8V321.7C535.8,304.4,523.4,292,506,292z M84.3,321.7c0-2.5,2.5-5,5-5H506c2.5,0,5,2.5,5,5v198.4
			c0,2.5-2.5,5-5,5H89.3c-2.5,0-5-2.5-5-5C84.3,520.2,84.3,321.7,84.3,321.7z"/>
		<rect x="163.7" y="473" fill="#FFFFFF" width="146.3" height="24.8"/>
		<rect x="111.6" y="473" fill="#FFFFFF" width="42.2" height="24.8"/>
		<rect x="215.8" y="386.2" fill="#FFFFFF" width="42.2" height="24.8"/>
		<rect x="267.9" y="428.4" fill="#FFFFFF" width="42.2" height="24.8"/>
		<rect x="163.7" y="428.4" fill="#FFFFFF" width="42.2" height="24.8"/>
		<rect x="215.8" y="428.4" fill="#FFFFFF" width="42.2" height="24.8"/>
		<rect x="215.8" y="344.1" fill="#FFFFFF" width="42.2" height="24.8"/>
		<rect x="163.7" y="386.2" fill="#FFFFFF" width="42.2" height="24.8"/>
		<rect x="163.7" y="344.1" fill="#FFFFFF" width="42.2" height="24.8"/>
	</g>
</g>
</svg>
