<?xml version="1.0" encoding="utf-8"?>
<!-- Generator: Adobe Illustrator 18.0.0, SVG Export Plug-In . SVG Version: 6.00 Build 0)  -->
<!DOCTYPE svg PUBLIC "-//W3C//DTD SVG 1.1//EN" "http://www.w3.org/Graphics/SVG/1.1/DTD/svg11.dtd">
<svg version="1.1" id="Capa_1" xmlns="http://www.w3.org/2000/svg" xmlns:xlink="http://www.w3.org/1999/xlink" x="0px" y="0px"
	 viewBox="0 0 595.3 841.9" enable-background="new 0 0 595.3 841.9" xml:space="preserve">
<g id="guia" display="none">
</g>
<g id="guia2">
</g>
<g id="Capa_3">
	<g>
		<rect x="91.8" y="552.4" fill="#FFFFFF" width="9.9" height="9.9"/>
		<rect x="106.7" y="552.4" fill="#FFFFFF" width="9.9" height="9.9"/>
		<path fill="#FFFFFF" d="M496.1,478H215.8c-5,0-7.4,5-7.4,12.4s2.5,12.4,7.4,12.4h280.3c5,0,7.4-5,7.4-12.4S498.5,478,496.1,478z"
			/>
		<circle fill="#FFFFFF" cx="483.7" cy="306.8" r="12.4"/>
		<path fill="#FFFFFF" d="M498.5,257.2H213.3c-19.8,0-34.7,14.9-34.7,34.7v32.2h-52.1c-19.8,0-34.7,14.9-34.7,34.7v101.7
			c-17.4,2.5-32.2,19.8-32.2,37.2v49.6h14.9v32.2h59.5v-32.2h14.9v-49.6c0-19.8-14.9-34.7-34.7-39.7v-96.7c0-5,5-9.9,9.9-9.9h52.1
			v153.8c0,19.8,14.9,34.7,34.7,34.7h285.2c19.8,0,34.7-14.9,34.7-34.7V292C533.3,274.6,518.4,257.2,498.5,257.2z M119.1,567.3H89.3
			v-17.4h29.8V567.3z M133.9,500.3v9.9v9.9v12.4v5H74.4v-5l0,0v-12.4l0,0v-17.4c0-12.4,9.9-22.3,22.3-22.3h12.4
			C124,478,133.9,487.9,133.9,500.3z M508.5,502.8c0,5-5,9.9-9.9,9.9H213.3c-5,0-9.9-5-9.9-9.9V292c0-5,5-9.9,9.9-9.9h285.2
			c5,0,9.9,5,9.9,9.9V502.8L508.5,502.8z"/>
	</g>
</g>
</svg>
