<?xml version="1.0" encoding="utf-8"?>
<!-- Generator: Adobe Illustrator 18.0.0, SVG Export Plug-In . SVG Version: 6.00 Build 0)  -->
<!DOCTYPE svg PUBLIC "-//W3C//DTD SVG 1.1//EN" "http://www.w3.org/Graphics/SVG/1.1/DTD/svg11.dtd">
<svg version="1.1" id="Capa_1" xmlns="http://www.w3.org/2000/svg" xmlns:xlink="http://www.w3.org/1999/xlink" x="0px" y="0px"
	 viewBox="0 0 595.3 841.9" enable-background="new 0 0 595.3 841.9" xml:space="preserve">
<g id="guia" display="none">
</g>
<g id="guia2">
</g>
<g id="Capa_3">
	<g>
		<path fill="#FFFFFF" d="M481.2,282H114.1c-17.4,0-32.2,14.9-32.2,34.7v245.6c0,19.8,14.9,34.7,32.2,34.7h364.6
			c17.4,0,32.2-14.9,32.2-34.7V316.8C513.4,296.9,498.5,282,481.2,282z M431.6,572.2H163.7c-5,0-9.9-5-9.9-9.9c0-5,5-9.9,9.9-9.9
			h270.4c5,0,9.9,5,9.9,9.9C441.5,567.3,436.5,572.2,431.6,572.2z M486.1,408.5v111.6c0,5-2.5,7.4-7.4,7.4H114.1c-5,0-7.4-5-7.4-7.4
			V316.8c0-5,2.5-7.4,7.4-7.4h364.6c5,0,7.4,5,7.4,7.4L486.1,408.5L486.1,408.5z"/>
		<path fill="#FFFFFF" d="M282.8,433.3c9.9-2.5,22.3-2.5,32.2-5c5,0,9.9-2.5,12.4-7.4c2.5-2.5,2.5-7.4,0-9.9l-2.5-2.5
			c-5-2.5-9.9-5-14.9-5c-12.4-2.5-27.3-5-39.7-5s-27.3,0-39.7,0c-2.5,0-7.4,0-12.4,2.5c7.4-9.9,12.4-17.4,19.8-27.3h-2.5
			c-12.4,0-27.3,0-39.7,0c0,0-2.5,0-2.5,2.5c-7.4,9.9-12.4,19.8-19.8,29.8c-2.5,5-5,7.4-7.4,12.4v2.5c5,0,7.4,2.5,9.9,5
			c2.5,2.5,5,2.5,7.4,2.5c14.9,5,27.3,5,42.2,5C245.6,435.8,265.4,435.8,282.8,433.3z M213.3,418.5
			C210.8,418.5,210.8,418.5,213.3,418.5c0-2.5,0-2.5,0-2.5c2.5,0,5-2.5,9.9-2.5c14.9-2.5,29.8-2.5,44.6-2.5c5,0,12.4,2.5,17.4,2.5
			c2.5,0,2.5,2.5,5,2.5c0,0,0,0,0,2.5c-2.5,0-5,2.5-7.4,2.5c-12.4,2.5-24.8,2.5-34.7,2.5s-19.8-2.5-29.8-2.5
			C215.8,420.9,213.3,418.5,213.3,418.5z"/>
		<path fill="#FFFFFF" d="M416.7,391.2c-7.4-7.4-17.4-12.4-27.3-14.9c-14.9-5-29.8-7.4-44.6-9.9c-17.4-2.5-34.7-2.5-52.1-2.5h-2.5
			l0,0h2.5c17.4,0,34.7,2.5,52.1,7.4c12.4,5,24.8,9.9,34.7,17.4c12.4,9.9,12.4,24.8,5,37.2c-2.5,5-7.4,7.4-12.4,12.4
			c-9.9,7.4-19.8,12.4-32.2,17.4c-24.8,7.4-47.1,12.4-71.9,14.9c-12.4,0-27.3,0-39.7,2.5h-2.5l0,0h2.5c22.3,0,47.1,0,71.9-2.5
			c19.8-2.5,39.7-5,59.5-9.9c17.4-5,32.2-9.9,47.1-17.4c7.4-5,14.9-12.4,19.8-22.3c0-2.5,2.5-5,2.5-7.4s0-5,0-7.4l0,0
			C426.6,403.6,421.7,396.1,416.7,391.2z"/>
	</g>
</g>
</svg>
