<?xml version="1.0" encoding="utf-8"?>
<!-- Generator: Adobe Illustrator 18.0.0, SVG Export Plug-In . SVG Version: 6.00 Build 0)  -->
<!DOCTYPE svg PUBLIC "-//W3C//DTD SVG 1.1//EN" "http://www.w3.org/Graphics/SVG/1.1/DTD/svg11.dtd">
<svg version="1.1" id="Capa_1" xmlns="http://www.w3.org/2000/svg" xmlns:xlink="http://www.w3.org/1999/xlink" x="0px" y="0px"
	 viewBox="0 0 595.3 841.9" enable-background="new 0 0 595.3 841.9" xml:space="preserve">
<g id="guia" display="none">
</g>
<g id="guia2">
</g>
<g id="Capa_3">
	<g>
		<path fill="#FFFFFF" d="M305.1,589.6h-32.2v-71.9c27.3-5,49.6-24.8,62-54.6c2.5-5,2.5-9.9,0-14.9c0,0,0-2.5-2.5-2.5
			c27.3-2.5,49.6-24.8,49.6-52.1c0-22.3-29.8-69.4-37.2-81.9c-7.4-9.9-22.3-9.9-29.8,0c-7.4,12.4-24.8,42.2-34.7,64.5
			c-2.5-2.5-7.4-5-9.9-5h-81.9c-7.4,0-14.9,5-17.4,12.4c-2.5,9.9-5,22.3-5,32.2c0,49.6,29.8,89.3,69.4,99.2v71.9h-27.3
			c-9.9,0-17.4,7.4-17.4,17.4c0,9.9,7.4,17.4,17.4,17.4h96.7c9.9,0,17.4-7.4,17.4-17.4C322.4,597,315,589.6,305.1,589.6z M332.4,411
			c-9.9,0-17.4-7.4-17.4-17.4c0-5,5-17.4,17.4-37.2c9.9,19.8,17.4,34.7,17.4,37.2C347.2,403.6,339.8,411,332.4,411z M307.6,443.3
			c-2.5,2.5-5,5-5,7.4c-9.9,22.3-27.3,34.7-47.1,34.7c-29.8,0-52.1-29.8-52.1-64.5c0-2.5,0-5,0-9.9h69.4c2.5,0,5,0,7.4-2.5
			C282.8,423.4,295.2,435.8,307.6,443.3z"/>
		<path fill="#FFFFFF" d="M367.1,438.3c-9.9,14.9-37.2,59.5-37.2,81.9c0,29.8,22.3,52.1,52.1,52.1c29.8,0,52.1-24.8,52.1-52.1
			c0-22.3-27.3-64.5-37.2-81.9C391.9,428.4,374.5,428.4,367.1,438.3z M382,537.5c-9.9,0-17.4-7.4-17.4-17.4c0-5,5-17.4,17.4-37.2
			c9.9,19.8,17.4,34.7,17.4,37.2C399.3,530.1,391.9,537.5,382,537.5z"/>
		<path fill="#FFFFFF" d="M166.2,254.8c5,0,7.4,0,12.4-2.5c5-5,7.4-9.9,9.9-14.9c2.5-5,0-12.4-2.5-17.4c-7.4-9.9-19.8-14.9-32.2-7.4
			c-5,2.5-7.4,7.4-9.9,12.4c-2.5,5,0,12.4,2.5,17.4C151.3,249.8,158.7,254.8,166.2,254.8z"/>
		<path fill="#FFFFFF" d="M220.7,254.8c5,0,7.4,0,12.4-2.5c9.9-5,14.9-19.8,7.4-29.8c-7.4-12.4-19.8-17.4-32.2-9.9
			c-5,2.5-7.4,7.4-9.9,12.4c-2.5,7.4,0,12.4,2.5,17.4C205.9,249.8,213.3,254.8,220.7,254.8z"/>
		<path fill="#FFFFFF" d="M362.1,254.8c5,0,7.4,0,12.4-2.5c9.9-5,14.9-19.8,7.4-29.8c-5-9.9-19.8-14.9-29.8-7.4
			c-5,2.5-9.9,7.4-9.9,14.9c-2.5,5,0,12.4,2.5,17.4C344.8,249.8,352.2,254.8,362.1,254.8z"/>
		<path fill="#FFFFFF" d="M416.7,254.8c5,0,7.4,0,12.4-2.5c9.9-5,14.9-19.8,7.4-29.8c-5-9.9-19.8-14.9-29.8-7.4
			c-9.9,5-14.9,19.8-7.4,29.8C399.3,249.8,406.8,254.8,416.7,254.8z"/>
		<path fill="#FFFFFF" d="M446.5,165.5H148.8c-32.2,0-57,24.8-57,57v394.4c0,32.2,24.8,57,57,57h297.6c32.2,0,57-24.8,57-57V225
			C503.5,192.8,478.7,165.5,446.5,165.5z M446.5,639.2H148.8c-12.4,0-22.3-9.9-22.3-22.3V294.4h342.3v322.4
			C468.8,629.3,458.9,639.2,446.5,639.2z M148.8,202.7h297.6c12.4,0,22.3,9.9,22.3,22.3v34.7H126.5V225
			C126.5,212.6,136.4,202.7,148.8,202.7z"/>
	</g>
</g>
</svg>
