<?xml version="1.0" encoding="utf-8"?>
<!-- Generator: Adobe Illustrator 18.0.0, SVG Export Plug-In . SVG Version: 6.00 Build 0)  -->
<!DOCTYPE svg PUBLIC "-//W3C//DTD SVG 1.1//EN" "http://www.w3.org/Graphics/SVG/1.1/DTD/svg11.dtd">
<svg version="1.1" id="Capa_1" xmlns="http://www.w3.org/2000/svg" xmlns:xlink="http://www.w3.org/1999/xlink" x="0px" y="0px"
	 viewBox="0 0 595.3 841.9" enable-background="new 0 0 595.3 841.9" xml:space="preserve">
<g id="guia" display="none">
</g>
<g id="guia2">
</g>
<g id="Capa_3">
	<g>
		<path fill="#FFFFFF" d="M384.5,185.3H382l-191,49.6l-69.4-19.8c-5,0-7.4,0-12.4,2.5c0,0-2.5,5-2.5,9.9V354c0,5,2.5,7.4,5,9.9
			c2.5,2.5,7.4,2.5,12.4,2.5l67-19.8l138.9,34.7v106.7c0,19.8,14.9,34.7,34.7,34.7h7.4c0,12.4,2.5,22.3,7.4,32.2
			c2.5,7.4,5,17.4,5,24.8s-2.5,17.4-5,24.8c-5,12.4-7.4,24.8-7.4,37.2c0,7.4,5,12.4,12.4,12.4c7.4,0,12.4-5,12.4-12.4
			c0-9.9,2.5-17.4,5-24.8c5-12.4,7.4-24.8,7.4-37.2s-2.5-24.8-7.4-37.2c-2.5-7.4-5-14.9-5-22.3h7.4c19.8,0,34.7-14.9,34.7-34.7
			V376.3c29.8-19.8,49.6-52.1,49.6-89.3C488.6,232.4,441.5,185.3,384.5,185.3z M463.8,289.5c0,39.7-29.8,71.9-67,79.4V212.6
			C434.1,217.6,463.8,252.3,463.8,289.5z M414.2,487.9c0,5-5,9.9-9.9,9.9h-42.2c-5,0-9.9-5-9.9-9.9v-99.2l27.3,7.4h2.5
			c9.9,0,19.8-2.5,29.8-5L414.2,487.9L414.2,487.9z M372.1,215.1v151.3l-171.1-44.6v-64.5L372.1,215.1z M176.1,257.2v64.5
			l-44.6,14.9v-91.8L176.1,257.2z"/>
		<circle fill="#FFFFFF" cx="384.5" cy="445.7" r="19.8"/>
	</g>
</g>
</svg>
