<?xml version="1.0" encoding="utf-8"?>
<!-- Generator: Adobe Illustrator 18.0.0, SVG Export Plug-In . SVG Version: 6.00 Build 0)  -->
<!DOCTYPE svg PUBLIC "-//W3C//DTD SVG 1.1//EN" "http://www.w3.org/Graphics/SVG/1.1/DTD/svg11.dtd">
<svg version="1.1" id="Capa_1" xmlns="http://www.w3.org/2000/svg" xmlns:xlink="http://www.w3.org/1999/xlink" x="0px" y="0px"
	 viewBox="0 0 595.3 841.9" enable-background="new 0 0 595.3 841.9" xml:space="preserve">
<g id="guia" display="none">
</g>
<g id="guia2">
</g>
<g id="Capa_3">
	<g id="guia_1_">
	</g>
	<g>
		<path fill="#FFFFFF" d="M153.8,324.2c-5-2.5-12.4-5-19.8-2.5c-5,2.5-12.4,5-14.9,12.4c-5,5-5,12.4-2.5,19.8s5,12.4,12.4,14.9
			c2.5,2.5,7.4,2.5,12.4,2.5c7.4,0,17.4-2.5,22.3-12.4c2.5-5,5-12.4,2.5-19.8C163.7,334.1,158.7,326.7,153.8,324.2z"/>
		<path fill="#FFFFFF" d="M525.8,398.6c-5-7.4-12.4-12.4-19.8-12.4l0,0c-2.5,0-5-2.5-12.4-2.5l-317.5-86.8
			c-9.9-5-22.3-12.4-34.7-19.8c-2.5-2.5-7.4-2.5-12.4-2.5c-9.9-2.5-17.4,0-22.3,5l-5,2.5v2.5c-5,9.9-9.9,24.8-14.9,32.2l-2.5,2.5
			c-5,9.9-14.9,22.3-22.3,29.8l-2.5,5v5c0,7.4,2.5,14.9,7.4,22.3c2.5,5,5,7.4,9.9,9.9c12.4,7.4,27.3,17.4,39.7,24.8l0,0
			c47.1,27.3,96.7,54.6,146.3,79.4c49.6,24.8,101.7,52.1,148.8,81.9c5,2.5,12.4,5,19.8,5c2.5,0,5,0,7.4,0
			c7.4-2.5,14.9-7.4,17.4-12.4l24.8-39.7c2.5-7.4,5-14.9,2.5-22.3c-2.5-5-17.4-17.4-37.2-32.2l22.3,5h2.5c5,0,7.4,2.5,9.9,2.5h2.5
			c14.9,2.5,27.3-2.5,37.2-17.4c2.5-5,7.4-12.4,7.4-22.3C530.8,430.9,533.3,411,525.8,398.6z M456.4,512.7l-22.3,39.7c0,0,0,0-2.5,0
			s-5,0-7.4-2.5c-49.6-29.8-101.7-57-151.3-81.9c-27.3-14.9-54.6-27.3-81.9-42.2c34.7,5,76.9,12.4,109.1,19.8l71.9,14.9h2.5
			C389.4,468.1,444,502.8,456.4,512.7z M503.5,433.3c-2.5,5-2.5,9.9-5,14.9c-2.5,5-5,5-7.4,7.4h-5c-2.5,0-5,0-9.9-2.5l-91.8-14.9
			l0,0L310,423.4c-34.7-7.4-76.9-14.9-114.1-19.8c-24.8-5-49.6-7.4-67-9.9c-12.4-7.4-24.8-14.9-37.2-22.3v-2.5l-5-5c0,0,0,0,0-2.5
			c7.4-9.9,14.9-19.8,19.8-27.3l2.5-2.5c2.5-9.9,9.9-19.8,14.9-32.2c0,0,0,0,2.5,0h2.5h2.5c12.4,7.4,24.8,14.9,34.7,19.8h2.5
			l320,84.3c5,2.5,9.9,2.5,12.4,2.5h2.5c2.5,0,2.5,0,2.5,2.5C506,416,506,423.4,503.5,433.3z"/>
	</g>
</g>
</svg>
