<?xml version="1.0" encoding="utf-8"?>
<!-- Generator: Adobe Illustrator 18.0.0, SVG Export Plug-In . SVG Version: 6.00 Build 0)  -->
<!DOCTYPE svg PUBLIC "-//W3C//DTD SVG 1.1//EN" "http://www.w3.org/Graphics/SVG/1.1/DTD/svg11.dtd">
<svg version="1.1" id="Capa_1" xmlns="http://www.w3.org/2000/svg" xmlns:xlink="http://www.w3.org/1999/xlink" x="0px" y="0px"
	 viewBox="0 0 595.3 841.9" enable-background="new 0 0 595.3 841.9" xml:space="preserve">
<g id="guia" display="none">
</g>
<g id="guia2">
</g>
<g id="Capa_3">
	<g id="guia_1_">
	</g>
	<path fill="#FFFFFF" d="M367.1,242.4c5,0,9.9-5,9.9-9.9s-5-9.9-9.9-9.9h-67v-17.4h67c5,0,9.9-5,9.9-9.9c0-5-5-9.9-9.9-9.9H248
		c-14.9,0-29.8,12.4-29.8,29.8v414.2c0,14.9,12.4,27.3,27.3,27.3h119.1c5,0,9.9-5,9.9-9.9c0-5-5-9.9-9.9-9.9h-67v-17.4h67
		c5,0,9.9-5,9.9-9.9c0-5-5-9.9-9.9-9.9h-67v-19.8h67c5,0,9.9-5,9.9-9.9s-5-9.9-9.9-9.9h-67V540h67c5,0,9.9-5,9.9-9.9
		c0-5-5-9.9-9.9-9.9h-67v-19.8h67c5,0,9.9-5,9.9-9.9s-5-9.9-9.9-9.9h-67v-19.8h67c5,0,9.9-5,9.9-9.9s-5-9.9-9.9-9.9h-67v-19.8h67
		c5,0,9.9-5,9.9-9.9s-5-9.9-9.9-9.9h-67v-19.8h67c5,0,9.9-5,9.9-9.9s-5-9.9-9.9-9.9h-67V354h67c5,0,9.9-5,9.9-9.9s-2.5-7.4-7.4-7.4
		h-67v-19.8h67c5,0,9.9-5,9.9-9.9c0-5-5-9.9-9.9-9.9h-67v-17.4h67c5,0,9.9-5,9.9-9.9c0-5-5-7.4-9.9-7.4h-67v-19.8H367.1z"/>
</g>
</svg>
