<?xml version="1.0" encoding="utf-8"?>
<!-- Generator: Adobe Illustrator 18.0.0, SVG Export Plug-In . SVG Version: 6.00 Build 0)  -->
<!DOCTYPE svg PUBLIC "-//W3C//DTD SVG 1.1//EN" "http://www.w3.org/Graphics/SVG/1.1/DTD/svg11.dtd">
<svg version="1.1" id="Capa_1" xmlns="http://www.w3.org/2000/svg" xmlns:xlink="http://www.w3.org/1999/xlink" x="0px" y="0px"
	 viewBox="0 0 595.3 841.9" enable-background="new 0 0 595.3 841.9" xml:space="preserve">
<g id="guia" display="none">
</g>
<g id="guia2">
</g>
<g id="Capa_3">
	<g id="guia_1_">
	</g>
	<g>
		<path fill="#FFFFFF" d="M533.3,339.1c0-64.5-67-116.6-151.3-116.6c-19.8,0-39.7,7.4-54.6,14.9c-12.4,5-22.3,9.9-29.8,9.9
			s-17.4-5-29.8-9.9c-17.4-7.4-34.7-14.9-54.6-14.9C129,222.5,62,274.6,62,339.1c0,2.5,0,5,0,9.9c0,2.5,0,2.5,0,5
			c0,2.5,0,153.8,0,156.3c2.5,59.5,69.4,109.1,151.3,109.1c19.8,0,34.7-7.4,49.6-12.4c12.4-5,22.3-9.9,37.2-9.9
			c12.4,0,24.8,5,37.2,9.9c14.9,5,29.8,12.4,47.1,12.4c79.4,0,143.9-47.1,151.3-106.7c0-5,0-158.7,0-161.2c0-2.5,0-2.5,0-5
			C533.3,344.1,533.3,341.6,533.3,339.1z M382,584.6c-12.4,0-22.3-5-34.7-9.9c-14.9-5-29.8-12.4-49.6-12.4
			c-19.8,0-37.2,7.4-49.6,12.4s-22.3,9.9-34.7,9.9c-62,0-114.1-34.7-116.6-76.9c0-2.5,0-52.1,0-94.3c27.3,24.8,69.4,42.2,116.6,42.2
			c19.8,0,34.7-7.4,47.1-12.4s22.3-9.9,37.2-9.9c14.9,0,24.8,5,37.2,9.9c14.9,5,29.8,12.4,47.1,12.4c47.1,0,89.3-17.4,116.6-42.2
			c0,9.9,0,22.3,0,32.2c-5-2.5-9.9-5-14.9-5c-12.4,0-24.8,9.9-24.8,24.8c0,12.4,9.9,24.8,24.8,24.8c5,0,9.9-2.5,14.9-5
			c0,14.9,0,24.8,0,24.8C493.6,549.9,444,584.6,382,584.6z M382,257.2c64.5,0,116.6,37.2,116.6,79.4S446.5,416,382,416
			c-12.4,0-22.3-5-34.7-9.9c-14.9-5-29.8-12.4-49.6-12.4c-19.8,0-37.2,7.4-49.6,12.4c-12.4,5-22.3,9.9-34.7,9.9
			c-64.5,0-116.6-37.2-116.6-79.4s52.1-79.4,116.6-79.4c14.9,0,27.3,5,42.2,12.4c14.9,5,27.3,12.4,42.2,12.4
			c14.9,0,27.3-5,42.2-12.4C354.7,264.7,369.6,257.2,382,257.2z"/>
		<circle fill="#FFFFFF" cx="133.9" cy="507.8" r="24.8"/>
		<circle fill="#FFFFFF" cx="225.7" cy="478" r="24.8"/>
		<circle fill="#FFFFFF" cx="287.7" cy="532.6" r="24.8"/>
		<circle fill="#FFFFFF" cx="364.6" cy="485.4" r="24.8"/>
		<circle fill="#FFFFFF" cx="434.1" cy="542.5" r="24.8"/>
	</g>
</g>
</svg>
