<?xml version="1.0" encoding="utf-8"?>
<!-- Generator: Adobe Illustrator 18.0.0, SVG Export Plug-In . SVG Version: 6.00 Build 0)  -->
<!DOCTYPE svg PUBLIC "-//W3C//DTD SVG 1.1//EN" "http://www.w3.org/Graphics/SVG/1.1/DTD/svg11.dtd">
<svg version="1.1" id="Capa_1" xmlns="http://www.w3.org/2000/svg" xmlns:xlink="http://www.w3.org/1999/xlink" x="0px" y="0px"
	 viewBox="0 0 595.3 841.9" enable-background="new 0 0 595.3 841.9" xml:space="preserve">
<g id="guia" display="none">
</g>
<g id="guia2">
</g>
<g id="Capa_3">
	<g id="guia_1_">
	</g>
	<g>
		<path fill="#FFFFFF" d="M200.9,373.8c-34.7,0-62,39.7-62,89.3c0,49.6,27.3,89.3,62,89.3s62-39.7,62-89.3
			C262.9,411,235.6,373.8,200.9,373.8z M200.9,522.6c-19.8,0-37.2-27.3-37.2-62s17.4-62,37.2-62s37.2,27.3,37.2,62
			C235.6,495.4,220.7,522.6,200.9,522.6z"/>
		<path fill="#FFFFFF" d="M394.4,435.8c-29.8,0-57,12.4-76.9,29.8v-2.5V351.5c0-14.9-9.9-24.8-24.8-27.3c5-2.5,5-7.4,5-12.4
			c0-9.9-7.4-17.4-17.4-19.8l-2.5-12.4c-7.4-39.7-42.2-69.4-79.4-69.4s-69.4,29.8-76.9,69.4l-2.5,12.4c-9.9,2.5-17.4,9.9-17.4,19.8
			c0,5,2.5,7.4,2.5,12.4c-12.4,2.5-24.8,12.4-24.8,27.3v253c0,14.9,12.4,27.3,27.3,27.3h158.7c5,0,7.4-2.5,9.9-5v5h235.6v-76.9
			C513.4,487.9,461.3,435.8,394.4,435.8z M200.9,237.4c19.8,0,39.7,12.4,49.6,32.2h-99.2C161.2,249.8,178.6,237.4,200.9,237.4z
			 M253,552.4V602H106.7V349h19.8c7.4,0,12.4-5,12.4-12.4v-17.4c0-2.5,0-5-2.5-5H258c0,2.5-2.5,5-2.5,5v17.4c0,7.4,5,12.4,12.4,12.4
			h19.8v106.7C267.9,483,253,517.7,253,552.4z M488.6,604.5H305.1v-49.6c0-52.1,42.2-91.8,91.8-91.8c52.1,0,91.8,42.2,91.8,91.8
			L488.6,604.5L488.6,604.5z"/>
	</g>
</g>
</svg>
