<?xml version="1.0" encoding="utf-8"?>
<!-- Generator: Adobe Illustrator 18.0.0, SVG Export Plug-In . SVG Version: 6.00 Build 0)  -->
<!DOCTYPE svg PUBLIC "-//W3C//DTD SVG 1.1//EN" "http://www.w3.org/Graphics/SVG/1.1/DTD/svg11.dtd">
<svg version="1.1" id="Capa_1" xmlns="http://www.w3.org/2000/svg" xmlns:xlink="http://www.w3.org/1999/xlink" x="0px" y="0px"
	 viewBox="0 0 595.3 841.9" enable-background="new 0 0 595.3 841.9" xml:space="preserve">
<g id="guia" display="none">
</g>
<g id="guia2">
</g>
<g id="Capa_3">
	<g>
		<rect x="191" y="579.7" fill="#FFFFFF" width="22.3" height="9.9"/>
		<rect x="223.2" y="579.7" fill="#FFFFFF" width="22.3" height="9.9"/>
		<rect x="255.5" y="579.7" fill="#FFFFFF" width="22.3" height="9.9"/>
		<rect x="290.2" y="579.7" fill="#FFFFFF" width="22.3" height="9.9"/>
		<rect x="322.4" y="579.7" fill="#FFFFFF" width="22.3" height="9.9"/>
		<rect x="354.7" y="579.7" fill="#FFFFFF" width="22.3" height="9.9"/>
		<rect x="386.9" y="579.7" fill="#FFFFFF" width="22.3" height="9.9"/>
		<ellipse fill="#FFFFFF" cx="297.6" cy="378.8" rx="89.3" ry="64.5"/>
		<rect x="191" y="279.6" fill="#FFFFFF" width="22.3" height="9.9"/>
		<rect x="223.2" y="279.6" fill="#FFFFFF" width="22.3" height="9.9"/>
		<rect x="255.5" y="279.6" fill="#FFFFFF" width="22.3" height="9.9"/>
		<rect x="290.2" y="279.6" fill="#FFFFFF" width="22.3" height="9.9"/>
		<rect x="322.4" y="279.6" fill="#FFFFFF" width="22.3" height="9.9"/>
		<rect x="354.7" y="279.6" fill="#FFFFFF" width="22.3" height="9.9"/>
		<rect x="386.9" y="279.6" fill="#FFFFFF" width="22.3" height="9.9"/>
		<path fill="#FFFFFF" d="M451.4,582.2V287l22.3-49.6c2.5-5,0-7.4,0-12.4c-2.5-2.5-5-5-9.9-5H133.9c-5,0-7.4,2.5-9.9,5
			c-2.5,2.5-2.5,7.4,0,12.4l22.3,49.6v295.2L126.5,607c-2.5,2.5-2.5,9.9-2.5,12.4s7.4,7.4,12.4,7.4h327.4c5,0,9.9-2.5,12.4-7.4
			c2.5-5,2.5-9.9-2.5-12.4L451.4,582.2z M429.1,279.6h-7.4v9.9h7.4v292.7h-7.4v9.9h7.4c0,2.5,0,5,2.5,7.4l5,7.4H161.2l5-12.4
			c2.5-2.5,2.5-5,2.5-7.4h12.4v-9.9h-12.4V287h12.4v-7.4h-14.9l-12.4-34.7H444L429.1,279.6z"/>
		<path fill="#FFFFFF" d="M240.6,490.4c2.5,0,7.4,0,9.9,2.5l2.5-5c-2.5,0-5-2.5-9.9-2.5c-14.9,0-22.3,9.9-22.3,22.3
			c0,14.9,9.9,22.3,22.3,22.3c5,0,9.9,0,12.4-2.5v-5c-2.5,0-5,2.5-9.9,2.5c-9.9,0-17.4-7.4-17.4-17.4
			C223.2,495.4,230.7,490.4,240.6,490.4z"/>
		<polygon fill="#FFFFFF" points="292.7,530.1 292.7,485.4 285.2,485.4 285.2,505.3 265.4,505.3 265.4,485.4 258,485.4 258,530.1 
			265.4,530.1 265.4,510.2 285.2,510.2 285.2,530.1 		"/>
		<rect x="302.6" y="485.4" fill="#FFFFFF" width="5" height="44.6"/>
		<path fill="#FFFFFF" d="M329.9,485.4c-5,0-7.4,0-9.9,0v44.6h2.5v-17.4c2.5,0,2.5,0,5,0c5,0,9.9-2.5,14.9-5c2.5-2.5,2.5-5,2.5-9.9
			s-2.5-7.4-5-9.9C339.8,485.4,334.8,485.4,329.9,485.4z M327.4,507.8c-2.5,0-2.5,0-5,0v-17.4c0,0,2.5,0,5,0c7.4,0,9.9,2.5,9.9,9.9
			C339.8,505.3,334.8,507.8,327.4,507.8z"/>
		<path fill="#FFFFFF" d="M367.1,505.3c-5-2.5-9.9-5-9.9-7.4c0-2.5,2.5-7.4,7.4-7.4s7.4,2.5,7.4,2.5l2.5-5c-2.5,0-5-2.5-9.9-2.5
			c-9.9,0-14.9,5-14.9,12.4c0,7.4,5,9.9,12.4,12.4c5,2.5,7.4,5,7.4,9.9c0,5-2.5,7.4-9.9,7.4c-5,0-7.4-2.5-9.9-2.5l-2.5,5
			c2.5,2.5,7.4,2.5,12.4,2.5c9.9,0,14.9-5,14.9-12.4C377,510.2,374.5,507.8,367.1,505.3z"/>
	</g>
</g>
</svg>
