<?xml version="1.0" encoding="utf-8"?>
<!-- Generator: Adobe Illustrator 18.0.0, SVG Export Plug-In . SVG Version: 6.00 Build 0)  -->
<!DOCTYPE svg PUBLIC "-//W3C//DTD SVG 1.1//EN" "http://www.w3.org/Graphics/SVG/1.1/DTD/svg11.dtd">
<svg version="1.1" id="Capa_1" xmlns="http://www.w3.org/2000/svg" xmlns:xlink="http://www.w3.org/1999/xlink" x="0px" y="0px"
	 viewBox="0 0 595.3 841.9" enable-background="new 0 0 595.3 841.9" xml:space="preserve">
<g id="guia" display="none">
</g>
<g id="guia2">
</g>
<g id="Capa_3">
	<g>
		<g>
			<path fill="#FFFFFF" d="M210.8,205.2c-5,0-9.9,5-9.9,9.9l0,0c0,5,5,9.9,9.9,9.9h176.1c5,0,9.9-5,9.9-9.9l0,0c0-5-5-9.9-9.9-9.9
				C386.9,205.2,210.8,205.2,210.8,205.2z"/>
		</g>
		<g>
			<path fill="#FFFFFF" d="M295.2,621.9c-2.5,0-5,0-7.4,0c-42.2,0-74.4-9.9-94.3-19.8c14.9,24.8,32.2,34.7,104.2,34.7
				c76.9,0,94.3-12.4,106.7-39.7c-19.8,12.4-52.1,24.8-101.7,24.8C300.1,621.9,297.6,621.9,295.2,621.9z"/>
		</g>
		<path fill="#FFFFFF" d="M240.6,406.1c32.2-67,109.1-109.1,173.6-133.9L386.9,225l0,0l0,0H213.3l-29.8,49.6c0,0-2.5,5-2.5,12.4
			v203.4C200.9,473,220.7,448.2,240.6,406.1z"/>
		<g>
			<path fill="#FFFFFF" d="M307.6,430.9L307.6,430.9c17.4-39.7,71.9-67,109.1-79.4v-24.8c-52.1,22.3-106.7,54.6-129,101.7
				c-32.2,69.4-71.9,104.2-106.7,124v12.4l0,0c0,2.5,2.5,5,2.5,5C277.8,535,307.6,430.9,307.6,430.9z"/>
			<path fill="#FFFFFF" d="M322.4,435.8c-2.5,7.4-32.2,106.7-121.5,146.3c17.4,9.9,44.6,19.8,84.3,19.8l0,0c2.5,0,7.4,0,9.9,0
				c5,0,7.4,0,12.4,0l0,0c84.3,0,109.1-39.7,109.1-39.7l2.5-7.4v-186C382,381.3,334.8,406.1,322.4,435.8z"/>
		</g>
	</g>
</g>
</svg>
