<?xml version="1.0" encoding="utf-8"?>
<!-- Generator: Adobe Illustrator 18.0.0, SVG Export Plug-In . SVG Version: 6.00 Build 0)  -->
<!DOCTYPE svg PUBLIC "-//W3C//DTD SVG 1.1//EN" "http://www.w3.org/Graphics/SVG/1.1/DTD/svg11.dtd">
<svg version="1.1" id="Capa_1" xmlns="http://www.w3.org/2000/svg" xmlns:xlink="http://www.w3.org/1999/xlink" x="0px" y="0px"
	 viewBox="0 0 595.3 841.9" enable-background="new 0 0 595.3 841.9" xml:space="preserve">
<g id="guia" display="none">
</g>
<g id="guia2">
</g>
<g id="Capa_3">
	<g id="guia_1_">
	</g>
	<g id="Capa_3_1_">
		<path fill="#FFFFFF" d="M466.3,304.4c0-2.5,0-2.5,0-5c0-2.5,0-7.4-2.5-9.9c-49.6-74.4-124-81.9-186-67l-2.5-5
			c-5-7.4-12.4-12.4-22.3-9.9c-37.2,14.9-74.4,37.2-104.2,67s-52.1,64.5-67,104.2c-2.5,9.9,0,17.4,9.9,22.3l7.4,2.5
			c-5,17.4-7.4,34.7-7.4,52.1c0,39.7,12.4,94.3,74.4,133.9c5,2.5,9.9,2.5,14.9,2.5c37.2,37.2,76.9,44.6,104.2,44.6
			c32.2,0,64.5-9.9,84.3-29.8c7.4-7.4,12.4-19.8,12.4-32.2l0,0c0-12.4-5-22.3-12.4-29.8c-17.4-17.4-37.2-14.9-49.6-14.9
			c-9.9,0-17.4,0-24.8-7.4c0-2.5,0-7.4,0-9.9c0-7.4-2.5-19.8-5-29.8c7.4-5,27.3-14.9,37.2-24.8c12.4-12.4,22.3-29.8,24.8-37.2
			c19.8,5,32.2,7.4,39.7,5c9.9,7.4,9.9,12.4,7.4,24.8c0,12.4-2.5,32.2,14.9,49.6c7.4,7.4,19.8,12.4,29.8,12.4
			c12.4,0,24.8-5,32.2-12.4c19.8-19.8,29.8-49.6,29.8-81.9C510.9,383.7,503.5,344.1,466.3,304.4z M429.1,299.4l-44.6,84.3
			c-5,0-14.9,0-32.2-9.9l-57-119.1C327.4,247.3,386.9,244.8,429.1,299.4z M126.5,455.7c0-12.4,2.5-24.8,5-37.2l119.1,57
			c7.4,17.4,9.9,27.3,9.9,32.2l0,0l-84.3,44.6C136.4,522.6,126.5,483,126.5,455.7z M322.4,562.3c12.4,0,14.9,0,22.3,5
			c2.5,2.5,2.5,5,2.5,5c0,2.5,0,5-2.5,7.4c-12.4,12.4-34.7,19.8-59.5,19.8c-17.4,0-44.6-5-69.4-27.3l57-29.8
			C287.7,564.8,307.6,562.3,322.4,562.3z M302.6,425.9c-5,5-17.4,12.4-24.8,17.4l-146.3-67H129l0,0l-5-2.5
			c12.4-27.3,29.8-52.1,52.1-74.4c22.3-22.3,47.1-39.7,74.4-52.1l2.5,5l0,0l0,0l67,148.8C315,408.5,310,420.9,302.6,425.9z
			 M456.4,468.1c-2.5,2.5-5,2.5-7.4,2.5c-2.5,0-5,0-5-2.5c-5-7.4-5-9.9-5-22.3c0-14.9,2.5-32.2-19.8-52.1l29.8-57
			c22.3,27.3,27.3,54.6,27.3,71.9l0,0C476.2,433.3,468.8,453.2,456.4,468.1z"/>
	</g>
</g>
</svg>
