<?xml version="1.0" encoding="utf-8"?>
<!-- Generator: Adobe Illustrator 18.0.0, SVG Export Plug-In . SVG Version: 6.00 Build 0)  -->
<!DOCTYPE svg PUBLIC "-//W3C//DTD SVG 1.1//EN" "http://www.w3.org/Graphics/SVG/1.1/DTD/svg11.dtd">
<svg version="1.1" id="Capa_1" xmlns="http://www.w3.org/2000/svg" xmlns:xlink="http://www.w3.org/1999/xlink" x="0px" y="0px"
	 viewBox="0 0 595.3 841.9" enable-background="new 0 0 595.3 841.9" xml:space="preserve">
<g id="guia" display="none">
</g>
<g id="guia2">
</g>
<g id="Capa_3">
	<g id="guia_1_">
	</g>
	<path fill="#FFFFFF" d="M372.1,386.2c9.9-7.4,17.4-17.4,17.4-32.2c0-9.9-5-19.8-12.4-27.3l37.2-121.5c2.5-7.4-2.5-17.4-9.9-17.4
		c-7.4-2.5-17.4,2.5-17.4,9.9l-19.8,67H195.9c-9.9,0-14.9,7.4-14.9,14.9s7.4,14.9,14.9,14.9h22.3l9.9,24.8
		c-12.4,7.4-22.3,19.8-22.3,34.7s7.4,27.3,19.8,32.2l-42.2,253c0,5,0,7.4,2.5,9.9s5,5,9.9,5h2.5c7.4,0,12.4-5,14.9-12.4l9.9-57
		h151.3l9.9,59.5c2.5,7.4,7.4,12.4,14.9,12.4h2.5c7.4-2.5,12.4-9.9,12.4-17.4L372.1,386.2z M243.1,346.5h106.7c5,0,7.4,2.5,7.4,7.4
		s-2.5,7.4-7.4,7.4H243.1c-5,0-7.4-2.5-7.4-7.4S240.6,346.5,243.1,346.5z M347.2,316.8H258l-9.9-22.3h104.2L347.2,316.8z
		 M255.5,391.2h86.8l27.3,163.7H228.2L255.5,391.2z"/>
</g>
</svg>
