<?xml version="1.0" encoding="utf-8"?>
<!-- Generator: Adobe Illustrator 18.0.0, SVG Export Plug-In . SVG Version: 6.00 Build 0)  -->
<!DOCTYPE svg PUBLIC "-//W3C//DTD SVG 1.1//EN" "http://www.w3.org/Graphics/SVG/1.1/DTD/svg11.dtd">
<svg version="1.1" id="Capa_1" xmlns="http://www.w3.org/2000/svg" xmlns:xlink="http://www.w3.org/1999/xlink" x="0px" y="0px"
	 viewBox="0 0 595.3 841.9" enable-background="new 0 0 595.3 841.9" xml:space="preserve">
<g id="guia" display="none">
</g>
<g id="guia2">
</g>
<g id="Capa_3">
	<g id="guia_1_">
	</g>
	<path fill="#FFFFFF" d="M478.7,339.1c-7.4-5-19.8-2.5-24.8,5c-2.5,5-2.5,9.9-2.5,14.9c0,5,5,9.9,7.4,12.4
		c7.4,5,22.3,14.9,22.3,27.3c0,5-2.5,12.4-9.9,17.4c-9.9-7.4-19.8-14.9-34.7-22.3c-9.9-5-19.8,0-24.8,9.9c-2.5,5-2.5,9.9,0,14.9
		c2.5,5,5,7.4,9.9,9.9c7.4,2.5,12.4,5,17.4,9.9c-9.9,5-19.8,7.4-29.8,9.9c0-2.5,0-5,2.5-7.4c2.5-17.4,0-34.7-9.9-49.6
		C439,354,520.9,272.1,496.1,217.6c-2.5-5-5-7.4-9.9-9.9c-2.5-2.5-7.4-5-12.4-2.5c-59.5,2.5-94.3,109.1-106.7,161.2
		c-17.4-5-39.7,0-54.6,12.4c-2.5,2.5-5,2.5-7.4,5l0,0c0-9.9-7.4-17.4-19.8-17.4l0,0c-71.9,2.5-133.9,19.8-163.7,49.6
		c-7.4-5-9.9-12.4-9.9-17.4c0-24.8,71.9-62,183.5-62c19.8,0,37.2,0,57,2.5h2.5c9.9,0,17.4-7.4,17.4-14.9c0-5,0-9.9-2.5-12.4
		c-2.5-5-7.4-7.4-12.4-7.4c-17.4-5-39.7-7.4-59.5-7.4c-129,0-220.7,42.2-220.7,99.2v57c2.5,76.9,42.2,131.5,114.1,161.2
		c52.1,22.3,104.2,22.3,106.7,22.3l0,0c9.9,0,213.3-2.5,220.7-183.5v-57C518.4,381.3,510.9,358.9,478.7,339.1z M334.8,408.5
		c7.4-5,14.9-7.4,19.8-7.4c2.5,0,7.4,0,9.9,2.5c5,2.5,12.4,14.9,9.9,29.8c0,7.4-2.5,14.9-7.4,19.8c-17.4,2.5-37.2,5-54.6,5
		C307.6,440.8,320,418.5,334.8,408.5z M287.7,401.1h2.5c-12.4,17.4-17.4,37.2-17.4,54.6c-44.6-2.5-86.8-9.9-119.1-22.3
		C178.6,418.5,223.2,403.6,287.7,401.1z M481.2,450.7c-7.4,143.9-163.7,148.8-183.5,148.8h-2.5c0,0-47.1,0-91.8-19.8
		c-59.5-24.8-89.3-69.4-91.8-129l0,0c39.7,27.3,106.7,42.2,183.5,42.2c74.4,0,138.9-14.9,178.6-39.7c0,0,0,0,2.5,0l0,0
		C481.2,453.2,481.2,453.2,481.2,450.7L481.2,450.7z"/>
</g>
</svg>
