<?xml version="1.0" encoding="utf-8"?>
<!-- Generator: Adobe Illustrator 18.0.0, SVG Export Plug-In . SVG Version: 6.00 Build 0)  -->
<!DOCTYPE svg PUBLIC "-//W3C//DTD SVG 1.1//EN" "http://www.w3.org/Graphics/SVG/1.1/DTD/svg11.dtd">
<svg version="1.1" id="Capa_1" xmlns="http://www.w3.org/2000/svg" xmlns:xlink="http://www.w3.org/1999/xlink" x="0px" y="0px"
	 viewBox="0 0 595.3 841.9" enable-background="new 0 0 595.3 841.9" xml:space="preserve">
<g id="guia" display="none">
</g>
<g id="guia2">
</g>
<g id="Capa_3">
	<g id="guia_1_">
	</g>
	<path fill="#FFFFFF" d="M439,505.3c47.1-32.2,79.4-81.9,79.4-138.9c0-94.3-86.8-171.1-191-171.1c-2.5,0-5,0-7.4,0
		c-12.4,0-22.3,9.9-22.3,22.3v129h-124c0-2.5,0-5,0-9.9v-5c-5-22.3-24.8-39.7-49.6-39.7c-2.5,0-7.4,0-9.9,0
		c-24.8,5-39.7,27.3-34.7,52.1c5,22.3,24.8,34.7,47.1,32.2c2.5,0,7.4-2.5,9.9-5v2.5v2.5c2.5,54.6,34.7,101.7,79.4,131.5
		c-32.2,7.4-57,34.7-57,69.4c0,39.7,32.2,71.9,71.9,71.9s71.9-32.2,71.9-71.9c0-14.9-5-29.8-12.4-39.7c12.4,2.5,24.8,2.5,37.2,2.5
		c14.9,0,27.3-2.5,39.7-5c-7.4,12.4-12.4,27.3-12.4,42.2c0,39.7,32.2,71.9,71.9,71.9s71.9-32.2,71.9-71.9
		C496.1,540,471.3,510.2,439,505.3z M302.6,391.2c22.3,0,39.7-17.4,39.7-39.7V239.9c74.4,7.4,131.5,62,131.5,126.5
		c0,69.4-67,129-146.3,129c-71.9,0-131.5-44.6-143.9-104.2C181.1,391.2,302.6,391.2,302.6,391.2z"/>
</g>
</svg>
