<?xml version="1.0" encoding="utf-8"?>
<!-- Generator: Adobe Illustrator 18.0.0, SVG Export Plug-In . SVG Version: 6.00 Build 0)  -->
<!DOCTYPE svg PUBLIC "-//W3C//DTD SVG 1.1//EN" "http://www.w3.org/Graphics/SVG/1.1/DTD/svg11.dtd">
<svg version="1.1" id="Capa_1" xmlns="http://www.w3.org/2000/svg" xmlns:xlink="http://www.w3.org/1999/xlink" x="0px" y="0px"
	 viewBox="0 0 595.3 841.9" enable-background="new 0 0 595.3 841.9" xml:space="preserve">
<g id="guia" display="none">
</g>
<g id="guia2">
</g>
<g id="Capa_3">
	<g id="guia_1_">
	</g>
	<g>
		<path fill="#FFFFFF" d="M297.6,217.6c-114.1,0-215.8,62-215.8,116.6c0,42.2,22.3,62,49.6,76.9v188.5c0,9.9,7.4,17.4,17.4,17.4H444
			c9.9,0,17.4-7.4,17.4-17.4V411c27.3-14.9,49.6-34.7,49.6-76.9C510.9,277.1,411.7,217.6,297.6,217.6z M436.5,383.7
			c-5,2.5-9.9,9.9-9.9,14.9v181.1H166.2V398.6c0-7.4-5-12.4-9.9-14.9c-29.8-14.9-39.7-27.3-39.7-49.6c0-39.7,89.3-81.9,181.1-81.9
			s181.1,42.2,181.1,81.9C476.2,356.5,466.3,368.9,436.5,383.7z"/>
		<circle fill="#FFFFFF" cx="188.5" cy="341.6" r="17.4"/>
		<circle fill="#FFFFFF" cx="267.9" cy="321.7" r="27.3"/>
		<circle fill="#FFFFFF" cx="238.1" cy="378.8" r="12.4"/>
	</g>
</g>
</svg>
