<?xml version="1.0" encoding="utf-8"?>
<!-- Generator: Adobe Illustrator 18.0.0, SVG Export Plug-In . SVG Version: 6.00 Build 0)  -->
<!DOCTYPE svg PUBLIC "-//W3C//DTD SVG 1.1//EN" "http://www.w3.org/Graphics/SVG/1.1/DTD/svg11.dtd">
<svg version="1.1" id="Capa_1" xmlns="http://www.w3.org/2000/svg" xmlns:xlink="http://www.w3.org/1999/xlink" x="0px" y="0px"
	 viewBox="0 0 595.3 841.9" enable-background="new 0 0 595.3 841.9" xml:space="preserve">
<g id="guia" display="none">
</g>
<g id="guia2">
</g>
<g id="Capa_3">
	<g id="guia_1_">
	</g>
	<g>
		<path fill="#FFFFFF" d="M297.6,475.5c49.6,0,89.3-24.8,89.3-57c0-2.5,0-7.4-24.8-116.6c-2.5-17.4-5-29.8-7.4-32.2
			c0-5-5-7.4-7.4-7.4H248c-5,0-7.4,2.5-7.4,7.4c0,2.5-32.2,143.9-32.2,148.8C208.3,450.7,248,475.5,297.6,475.5z M262.9,289.5h71.9
			c0,5,2.5,9.9,2.5,17.4c14.9,71.9,22.3,104.2,24.8,111.6c-2.5,12.4-24.8,27.3-62,27.3s-62-17.4-62-27.3
			C238.1,403.6,255.5,324.2,262.9,289.5z"/>
		<path fill="#FFFFFF" d="M230.7,463.1L230.7,463.1c-22.3,0-37.2,17.4-37.2,39.7c0,19.8,17.4,34.7,37.2,34.7h2.5
			c9.9,0,19.8-5,24.8-12.4c7.4-7.4,9.9-17.4,9.9-27.3C267.9,480.5,250.5,463.1,230.7,463.1z M238.1,507.8c-2.5,2.5-5,2.5-7.4,2.5
			v14.9v-14.9c-5,0-9.9-5-9.9-9.9s5-9.9,9.9-9.9s9.9,5,9.9,9.9C240.6,502.8,240.6,505.3,238.1,507.8z"/>
		<path fill="#FFFFFF" d="M362.1,465.6c-19.8,0-37.2,17.4-34.7,39.7c0,19.8,17.4,34.7,37.2,34.7h2.5c9.9,0,19.8-5,24.8-12.4
			c7.4-7.4,9.9-17.4,9.9-27.3C401.8,480.5,384.5,463.1,362.1,465.6L362.1,465.6z M374.5,500.3c0,2.5,0,5-2.5,7.4s-5,2.5-7.4,2.5
			v14.9v-14.9c-5,0-9.9-5-9.9-9.9s5-9.9,9.9-9.9C369.6,492.9,374.5,495.4,374.5,500.3z"/>
		<path fill="#FFFFFF" d="M478.7,619.4l-62-49.6c29.8-19.8,49.6-44.6,49.6-69.4c0-22.3-17.4-101.7-47.1-215.8
			c-2.5-14.9-7.4-27.3-7.4-29.8c-9.9-39.7-64.5-59.5-114.1-59.5c-57,0-101.7,24.8-111.6,57c0,2.5-54.6,213.3-54.6,248
			c0,24.8,19.8,49.6,49.6,69.4l-62,49.6c-2.5,2.5-5,7.4-5,9.9c0,5,0,7.4,2.5,12.4s7.4,5,12.4,5c2.5,0,7.4,0,9.9-2.5l71.9-57
			c27.3,12.4,57,19.8,86.8,19.8c29.8,0,59.5-7.4,89.3-22.3l71.9,57c2.5,2.5,5,2.5,9.9,2.5c5,0,9.9-2.5,12.4-5s2.5-7.4,2.5-12.4
			C483.7,626.8,481.2,621.9,478.7,619.4z M176.1,500.3c0-24.8,44.6-205.9,52.1-235.6c2.5-9.9,29.8-24.8,69.4-24.8s67,14.9,69.4,24.8
			c0,2.5,2.5,12.4,7.4,27.3v2.5c9.9,44.6,44.6,186,44.6,205.9c0,17.4-57,62-121.5,62S176.1,517.7,176.1,500.3z"/>
		<path fill="#FFFFFF" d="M404.3,611.9H191c-9.9,0-17.4,7.4-17.4,14.9c0,9.9,7.4,17.4,17.4,17.4h215.8c7.4,0,14.9-7.4,14.9-14.9
			C421.7,619.4,414.2,611.9,404.3,611.9z"/>
	</g>
</g>
</svg>
