<?xml version="1.0" encoding="utf-8"?>
<!-- Generator: Adobe Illustrator 18.0.0, SVG Export Plug-In . SVG Version: 6.00 Build 0)  -->
<!DOCTYPE svg PUBLIC "-//W3C//DTD SVG 1.1//EN" "http://www.w3.org/Graphics/SVG/1.1/DTD/svg11.dtd">
<svg version="1.1" id="Capa_1" xmlns="http://www.w3.org/2000/svg" xmlns:xlink="http://www.w3.org/1999/xlink" x="0px" y="0px"
	 viewBox="0 0 595.3 841.9" enable-background="new 0 0 595.3 841.9" xml:space="preserve">
<g id="guia" display="none">
</g>
<g id="guia2">
</g>
<g id="Capa_3">
	<g>
		<polygon fill="#FFFFFF" points="235.6,376.3 295.2,316.8 352.2,373.8 352.2,358.9 295.2,301.9 233.2,361.4 		"/>
		<circle fill="#FFFFFF" cx="188.5" cy="321.7" r="47.1"/>
		<path fill="#FFFFFF" d="M59.5,401.1c173.6,34.7,310,126.5,362.1,166.2h29.8c-32.2-24.8-186-143.9-391.9-186
			C59.5,381.3,59.5,401.1,59.5,401.1z"/>
		<path fill="#FFFFFF" d="M59.5,403.6v17.4c121.5,32.2,225.7,109.1,270.4,143.9h27.3c-14.9-12.4-59.5-49.6-121.5-86.8
			C188.5,453.2,126.5,423.4,59.5,403.6z"/>
		<path fill="#FFFFFF" d="M59.5,428.4v19.8c89.3,32.2,148.8,91.8,176.1,119.1H258C238.1,545,168.7,465.6,59.5,428.4z"/>
		<path fill="#FFFFFF" d="M59.5,458.2V478c47.1,27.3,74.4,69.4,86.8,89.3h19.8C156.3,547.4,121.5,490.4,59.5,458.2z"/>
		<path fill="#FFFFFF" d="M530.8,354v-17.4c-101.7,17.4-158.7,42.2-191,64.5v-7.4l0,0v-24.8l-44.6-42.2l-44.6,44.6V411
			c-59.5-22.3-124-42.2-191-49.6v17.4c233.2,32.2,399.3,146.3,456.4,191h17.4v-9.9c0,0-9.9-7.4-29.8-19.8c5-7.4,12.4-22.3,29.8-37.2
			V478c-24.8,19.8-37.2,39.7-44.6,52.1c-7.4-5-17.4-9.9-24.8-14.9c7.4-12.4,29.8-42.2,69.4-67v-19.8c-47.1,27.3-74.4,64.5-84.3,79.4
			c-9.9-5-19.8-9.9-29.8-17.4c9.9-14.9,44.6-54.6,114.1-79.4v-19.8c-79.4,24.8-119.1,74.4-129,89.3c-9.9-5-19.8-9.9-32.2-17.4
			c5-7.4,19.8-22.3,44.6-39.7c24.8-14.9,62-32.2,116.6-44.6v-19.8c-121.5,24.8-168.7,79.4-178.6,94.3c-9.9-5-19.8-9.9-29.8-14.9
			C334.8,423.4,386.9,376.3,530.8,354z M280.3,368.9h27.3v29.8h-27.3V368.9z"/>
	</g>
</g>
</svg>
