<?xml version="1.0" encoding="utf-8"?>
<!-- Generator: Adobe Illustrator 18.0.0, SVG Export Plug-In . SVG Version: 6.00 Build 0)  -->
<!DOCTYPE svg PUBLIC "-//W3C//DTD SVG 1.1//EN" "http://www.w3.org/Graphics/SVG/1.1/DTD/svg11.dtd">
<svg version="1.1" id="Capa_1" xmlns="http://www.w3.org/2000/svg" xmlns:xlink="http://www.w3.org/1999/xlink" x="0px" y="0px"
	 viewBox="0 0 595.3 841.9" enable-background="new 0 0 595.3 841.9" xml:space="preserve">
<g id="guia" display="none">
</g>
<g id="guia2">
</g>
<g id="Capa_3">
	<g id="guia_1_">
	</g>
	<g>
		<path fill="#FFFFFF" d="M444,192.8H151.3c-27.3,0-49.6,22.3-49.6,47.1v359.6c0,27.3,22.3,47.1,47.1,47.1H444
			c27.3,0,47.1-22.3,47.1-47.1V239.9C493.6,215.1,471.3,192.8,444,192.8z M461.3,602c0,9.9-7.4,17.4-17.4,17.4H151.3
			c-9.9,0-17.4-7.4-17.4-17.4V239.9c0-7.4,7.4-17.4,17.4-17.4h295.2c9.9,0,17.4,7.4,17.4,17.4C461.3,239.9,461.3,602,461.3,602z"/>
		<path fill="#FFFFFF" d="M297.6,468.1c57,0,104.2-47.1,104.2-104.2s-47.1-104.2-104.2-104.2s-104.2,47.1-104.2,104.2
			C193.5,420.9,240.6,468.1,297.6,468.1z M275.3,363.9c0-5,0-7.4,0-9.9c14.9,2.5,29.8,2.5,42.2,0c0,2.5,0,7.4,0,9.9
			c0,2.5,0,7.4,0,9.9c-14.9,0-27.3,0-42.2,0C277.8,371.3,275.3,366.4,275.3,363.9z M253,406.1c2.5,7.4,5,17.4,7.4,24.8
			c-9.9-5-17.4-12.4-24.8-19.8C240.6,408.5,248,408.5,253,406.1z M317.5,401.1c-5,27.3-14.9,39.7-17.4,39.7
			c-2.5,0-12.4-12.4-17.4-39.7C292.7,401.1,305.1,401.1,317.5,401.1z M334.8,430.9c2.5-9.9,5-17.4,7.4-27.3c5,2.5,12.4,2.5,17.4,5
			C354.7,418.5,344.8,425.9,334.8,430.9z M344.8,349c9.9-2.5,19.8-5,27.3-9.9c2.5,7.4,2.5,14.9,2.5,22.3c0,7.4,0,14.9-2.5,22.3
			c-9.9-2.5-17.4-5-27.3-7.4c0-5,0-9.9,0-14.9C347.2,358.9,347.2,354,344.8,349z M342.3,321.7c-2.5-7.4-5-17.4-7.4-24.8
			c9.9,5,17.4,12.4,24.8,19.8C354.7,319.3,347.2,319.3,342.3,321.7z M280.3,326.7c5-27.3,14.9-39.7,17.4-39.7
			c2.5,0,12.4,12.4,17.4,39.7C305.1,326.7,292.7,326.7,280.3,326.7z M260.4,296.9c-2.5,9.9-5,17.4-7.4,27.3
			c-7.4-2.5-12.4-5-17.4-7.4C243.1,309.3,250.5,301.9,260.4,296.9z M250.5,378.8c-9.9,2.5-19.8,5-27.3,7.4
			c-2.5-7.4-2.5-14.9-2.5-22.3s0-14.9,2.5-22.3c7.4,2.5,14.9,5,27.3,7.4c0,5,0,9.9,0,14.9C250.5,368.9,250.5,373.8,250.5,378.8z"/>
		<path fill="#FFFFFF" d="M203.4,510.2H186c-5,0-5,7.4-5,12.4v54.6c0,5,0,7.4,5,7.4s2.5-2.5,2.5-7.4v-17.4h14.9
			c12.4,0,24.8-9.9,24.8-24.8C230.7,522.6,218.3,510.2,203.4,510.2z M205.9,552.4H191v-24.8h14.9c5,0,9.9,7.4,9.9,12.4
			C215.8,545,213.3,552.4,205.9,552.4z"/>
		<path fill="#FFFFFF" d="M277.8,522.6c-2.5-5-5-7.4-9.9-7.4s-9.9,2.5-9.9,7.4l-19.8,52.1v2.5c0,5,2.5,7.4,5,7.4c5,0,5-2.5,7.4-5
			l2.5-9.9h27.3l5,12.4c0,2.5,2.5,5,7.4,5c2.5,0,5-2.5,5-7.4v-2.5L277.8,522.6z M258,559.8l9.9-32.2l0,0l9.9,32.2H258z"/>
		<path fill="#FFFFFF" d="M322.4,535c0-5,2.5-9.9,9.9-9.9c5,0,9.9,5,14.9,5c5,0,5-2.5,5-7.4c0-7.4-14.9-9.9-19.8-9.9
			c-12.4,0-24.8,7.4-24.8,22.3c0,19.8,34.7,17.4,34.7,27.3c0,5-2.5,9.9-9.9,9.9c-7.4,0-14.9-5-17.4-5c-5,0-5,2.5-5,5
			c0,9.9,17.4,9.9,24.8,9.9c12.4,0,24.8-9.9,24.8-22.3C357.2,542.5,322.4,545,322.4,535z"/>
		<path fill="#FFFFFF" d="M384.5,535c0-5,2.5-9.9,9.9-9.9c5,0,9.9,5,14.9,5s5-2.5,5-7.4c0-7.4-14.9-9.9-19.8-9.9
			c-12.4,0-24.8,7.4-24.8,22.3c0,19.8,34.7,17.4,34.7,27.3c0,5-2.5,9.9-9.9,9.9c-7.4,0-14.9-5-17.4-5c-5,0-5,2.5-5,5
			c0,9.9,17.4,9.9,24.8,9.9c12.4,0,24.8-9.9,24.8-22.3C419.2,542.5,384.5,545,384.5,535z"/>
	</g>
</g>
</svg>
