<?xml version="1.0" encoding="utf-8"?>
<!-- Generator: Adobe Illustrator 18.0.0, SVG Export Plug-In . SVG Version: 6.00 Build 0)  -->
<!DOCTYPE svg PUBLIC "-//W3C//DTD SVG 1.1//EN" "http://www.w3.org/Graphics/SVG/1.1/DTD/svg11.dtd">
<svg version="1.1" id="Capa_1" xmlns="http://www.w3.org/2000/svg" xmlns:xlink="http://www.w3.org/1999/xlink" x="0px" y="0px"
	 viewBox="0 0 595.3 841.9" enable-background="new 0 0 595.3 841.9" xml:space="preserve">
<g id="guia" display="none">
</g>
<g id="guia2">
</g>
<g id="Capa_3">
	<g id="guia_1_">
	</g>
	<g>
		<path fill="#FFFFFF" d="M424.1,480.5h-24.8l-27.3-34.7c-5-5-14.9-7.4-19.8-2.5c-2.5,2.5-5,7.4-5,9.9s0,7.4,2.5,9.9l12.4,17.4
			h-22.3l-2.5-9.9c-2.5-7.4-9.9-9.9-17.4-7.4c-7.4,2.5-9.9,9.9-7.4,17.4l2.5,5c-2.5,2.5-5,5-5,9.9c0,7.4,7.4,14.9,14.9,14.9h44.6
			L352.2,535c-5,7.4-2.5,14.9,5,19.8c2.5,2.5,5,2.5,7.4,2.5c5,0,9.9-2.5,12.4-5l27.3-39.7h24.8c7.4,0,14.9-7.4,14.9-14.9
			C436.5,485.4,431.6,480.5,424.1,480.5z"/>
		<path fill="#FFFFFF" d="M141.4,463.1h22.3c7.4,0,14.9-7.4,14.9-14.9s-7.4-14.9-14.9-14.9h-22.3c-7.4,0-14.9,7.4-14.9,14.9
			S133.9,463.1,141.4,463.1z"/>
		<path fill="#FFFFFF" d="M195.9,463.1h39.7c7.4,0,14.9-7.4,14.9-14.9s-7.4-14.9-14.9-14.9h-39.7c-7.4,0-14.9,7.4-14.9,14.9
			C181.1,458.2,188.5,463.1,195.9,463.1z"/>
		<path fill="#FFFFFF" d="M141.4,510.2h69.4c7.4,0,14.9-7.4,14.9-14.9s-7.4-14.9-14.9-14.9h-69.4c-7.4,0-14.9,7.4-14.9,14.9
			C126.5,505.3,133.9,510.2,141.4,510.2z"/>
		<path fill="#FFFFFF" d="M290.2,530.1H141.4c-7.4,0-14.9,7.4-14.9,14.9c0,7.4,7.4,14.9,14.9,14.9h148.8c7.4,0,14.9-7.4,14.9-14.9
			C305.1,535,297.6,530.1,290.2,530.1z"/>
		<path fill="#FFFFFF" d="M510.9,391.2l-49.6-131.5c-5-12.4-12.4-19.8-22.3-24.8s-22.3-5-34.7-2.5l-29.8,9.9c-2.5,2.5-5,5-7.4,7.4
			c-2.5,2.5-2.5,7.4,0,9.9c0,2.5,0,5,0,7.4s-2.5,5-5,5c-2.5,0-5,0-7.4,0c-2.5,0-5-2.5-5-5c-2.5-2.5-5-7.4-7.4-7.4
			c-2.5-2.5-7.4-2.5-9.9,0l-220.7,81.9c-12.4,2.5-19.8,12.4-24.8,22.3c-5,9.9-5,22.3-2.5,34.7c0,2.5,2.5,2.5,2.5,5
			c-5,7.4-7.4,14.9-7.4,22.3v141.4c0,24.8,19.8,44.6,44.6,44.6h235.6c7.4,0,14.9-7.4,14.9-14.9c0-5,5-9.9,9.9-9.9s9.9,5,9.9,9.9
			c0,7.4,7.4,14.9,14.9,14.9h32.2c24.8,0,44.6-19.8,44.6-44.6V450.7l0,0c12.4-5,19.8-12.4,24.8-22.3
			C515.9,416,515.9,403.6,510.9,391.2z M439,584.6h-19.8c-5-14.9-19.8-22.3-34.7-22.3c-14.9,0-29.8,9.9-34.7,22.3H126.5
			c-9.9,0-17.4-7.4-17.4-17.4V425.9c0-9.9,7.4-17.4,17.4-17.4h223.2c5,14.9,19.8,22.3,34.7,22.3s29.8-9.9,34.7-22.3H439
			c9.9,0,17.4,7.4,17.4,17.4v141.4C456.4,577.2,448.9,584.6,439,584.6z M406.8,381.3c-7.4,0-14.9,7.4-14.9,14.9c0,5-5,9.9-9.9,9.9
			s-9.9-5-9.9-9.9c0-7.4-7.4-14.9-14.9-14.9H126.5c-5,0-9.9,0-17.4,2.5c0-2.5,0-5,2.5-7.4c2.5-5,5-7.4,9.9-9.9l210.8-76.9
			c2.5,2.5,5,7.4,9.9,7.4c9.9,5,19.8,5,29.8,0c9.9-2.5,17.4-9.9,22.3-19.8c0-2.5,2.5-7.4,2.5-12.4l19.8-7.4c5-2.5,9.9-2.5,12.4,0
			c5,2.5,7.4,5,9.9,9.9l49.6,131.5c2.5,5,2.5,9.9,0,12.4c0,0,0,2.5-2.5,2.5c-5-19.8-22.3-37.2-44.6-37.2L406.8,381.3L406.8,381.3z"
			/>
	</g>
</g>
</svg>
