<?xml version="1.0" encoding="utf-8"?>
<!-- Generator: Adobe Illustrator 18.0.0, SVG Export Plug-In . SVG Version: 6.00 Build 0)  -->
<!DOCTYPE svg PUBLIC "-//W3C//DTD SVG 1.1//EN" "http://www.w3.org/Graphics/SVG/1.1/DTD/svg11.dtd">
<svg version="1.1" id="Capa_1" xmlns="http://www.w3.org/2000/svg" xmlns:xlink="http://www.w3.org/1999/xlink" x="0px" y="0px"
	 viewBox="0 0 595.3 841.9" enable-background="new 0 0 595.3 841.9" xml:space="preserve">
<g id="guia" display="none">
</g>
<g id="guia2">
</g>
<g id="Capa_3">
	<g id="guia_1_">
	</g>
	<path fill="#FFFFFF" d="M394.4,334.1c0-67-57-99.2-86.8-106.7c-5-2.5-9.9,0-14.9,2.5c-5,2.5-7.4,9.9-7.4,14.9
		c0,7.4-9.9,14.9-19.8,24.8V220c0-2.5-2.5-7.4-5-7.4l-49.6-24.8c-5-2.5-9.9,0-12.4,5c0,2.5,2.5,7.4,7.4,9.9l44.6,22.3v59.5
		c-17.4,12.4-34.7,27.3-34.7,49.6v17.4c0,71.9,19.8,188.5,57,233.2l-32.2,19.8c-5,2.5-7.4,9.9-7.4,17.4c0,7.4,7.4,34.7,71.9,34.7
		s71.9-27.3,71.9-34.7s-2.5-12.4-7.4-17.4l-32.2-19.8c37.2-44.6,57-161.2,57-233.2L394.4,334.1L394.4,334.1z M255.5,423.4
		c-2.5-17.4-5-34.7-5-54.6h106.7c0,17.4-2.5,37.2-5,54.6H255.5z M280.3,304.4c12.4-9.9,27.3-22.3,37.2-34.7
		c17.4,9.9,42.2,27.3,42.2,67H253C253,324.2,267.9,314.3,280.3,304.4z M285.2,619.4l19.8-12.4l19.8,12.4
		C315,621.9,295.2,621.9,285.2,619.4z"/>
</g>
</svg>
