<?xml version="1.0" encoding="utf-8"?>
<!-- Generator: Adobe Illustrator 18.0.0, SVG Export Plug-In . SVG Version: 6.00 Build 0)  -->
<!DOCTYPE svg PUBLIC "-//W3C//DTD SVG 1.1//EN" "http://www.w3.org/Graphics/SVG/1.1/DTD/svg11.dtd">
<svg version="1.1" id="Capa_1" xmlns="http://www.w3.org/2000/svg" xmlns:xlink="http://www.w3.org/1999/xlink" x="0px" y="0px"
	 viewBox="0 0 595.3 841.9" enable-background="new 0 0 595.3 841.9" xml:space="preserve">
<g id="guia" display="none">
</g>
<g id="guia2">
</g>
<g id="Capa_3">
	<g id="guia_1_">
	</g>
	<g>
		<polygon fill="#FFFFFF" points="287.7,433.3 347.2,373.8 228.2,373.8 		"/>
		<path fill="#FFFFFF" d="M471.3,212.6c-7.4-7.4-17.4-9.9-27.3-2.5l-12.4,9.9c-5-2.5-9.9-5-14.9-5c-19.8-5-42.2,9.9-44.6,32.2
			c0,7.4,0,12.4,2.5,19.8L315,316.8H138.9c-7.4,0-14.9,5-17.4,12.4c-5,7.4-2.5,14.9,2.5,19.8l143.9,143.9v64.5L193.5,602
			c-5,2.5-7.4,7.4-9.9,14.9c0,5,2.5,12.4,5,14.9c5,5,27.3,22.3,96.7,22.3s91.8-17.4,96.7-22.3c5-5,5-9.9,5-14.9s-5-9.9-9.9-14.9
			l-74.4-44.6v-62l143.9-143.9c5-5,7.4-12.4,5-19.8c0-9.9-5-14.9-12.4-14.9h-84.3l39.7-27.3c2.5,5,7.4,7.4,12.4,7.4c2.5,0,5,0,7.4,0
			c19.8,0,37.2-14.9,42.2-34.7c0-5,0-9.9,0-14.9l12.4-9.9c0,0,0,0,2.5,0C476.2,232.4,478.7,220,471.3,212.6z M287.7,616.9
			c-17.4,0-29.8,0-39.7-2.5l39.7-24.8l39.7,24.8C317.5,616.9,305.1,616.9,287.7,616.9z M287.7,460.6L183.5,356.5h208.3L287.7,460.6z
			 M409.3,279.6c-12.4-2.5-22.3-14.9-19.8-27.3c2.5-12.4,12.4-19.8,22.3-19.8c2.5,0,2.5,0,5,0c12.4,2.5,22.3,14.9,19.8,27.3
			C434.1,272.1,424.1,279.6,409.3,279.6z"/>
	</g>
</g>
</svg>
