<?xml version="1.0" encoding="utf-8"?>
<!-- Generator: Adobe Illustrator 18.0.0, SVG Export Plug-In . SVG Version: 6.00 Build 0)  -->
<!DOCTYPE svg PUBLIC "-//W3C//DTD SVG 1.1//EN" "http://www.w3.org/Graphics/SVG/1.1/DTD/svg11.dtd">
<svg version="1.1" id="Capa_1" xmlns="http://www.w3.org/2000/svg" xmlns:xlink="http://www.w3.org/1999/xlink" x="0px" y="0px"
	 viewBox="0 0 595.3 841.9" enable-background="new 0 0 595.3 841.9" xml:space="preserve">
<g id="guia" display="none">
</g>
<g id="guia2">
</g>
<g id="Capa_3">
	<g id="guia_1_">
	</g>
	<g>
		<path fill="#FFFFFF" d="M426.6,212.6c-5-7.4-14.9-9.9-22.3-5l-76.9,47.1c-2.5,0-5,2.5-5,5l-22.3,52.1H181.1
			c-2.5,2.5-7.4,2.5-9.9,7.4c-2.5,2.5-5,5-5,9.9l14.9,292.7c0,7.4,7.4,14.9,14.9,14.9h153.8c7.4,0,14.9-7.4,14.9-14.9l14.9-292.7
			c0-5,0-7.4-5-12.4c-2.5-2.5-7.4-5-12.4-5h-34.7l14.9-34.7l79.4-42.2C429.1,230,431.6,220,426.6,212.6z M349.7,344.1L337.3,607
			H210.8l-12.4-262.9h89.3H320H349.7z"/>
		<path fill="#FFFFFF" d="M280.3,358.9l-19.8,47.1h-42.2l7.4,183.5h96.7l7.4-183.5h-37.2l19.8-47.1H280.3z M255.5,483
			c-7.4,0-12.4-5-12.4-12.4c0-7.4,5-12.4,12.4-12.4c7.4,0,12.4,5,12.4,12.4C267.9,478,260.4,483,255.5,483z M297.6,515.2
			c-5,0-7.4-2.5-7.4-7.4s2.5-7.4,7.4-7.4s7.4,2.5,7.4,7.4C305.1,510.2,302.6,515.2,297.6,515.2z M305.1,435.8
			c0,7.4-7.4,14.9-14.9,14.9c-7.4,0-14.9-7.4-14.9-14.9s7.4-14.9,14.9-14.9C297.6,420.9,305.1,428.4,305.1,435.8z"/>
	</g>
</g>
</svg>
