<?xml version="1.0" encoding="utf-8"?>
<!-- Generator: Adobe Illustrator 18.0.0, SVG Export Plug-In . SVG Version: 6.00 Build 0)  -->
<!DOCTYPE svg PUBLIC "-//W3C//DTD SVG 1.1//EN" "http://www.w3.org/Graphics/SVG/1.1/DTD/svg11.dtd">
<svg version="1.1" id="Capa_1" xmlns="http://www.w3.org/2000/svg" xmlns:xlink="http://www.w3.org/1999/xlink" x="0px" y="0px"
	 viewBox="0 0 595.3 841.9" enable-background="new 0 0 595.3 841.9" xml:space="preserve">
<g id="guia" display="none">
</g>
<g id="guia2">
</g>
<g id="Capa_3">
	<path fill="#FFFFFF" d="M436.5,282c0-2.5-2.5-2.5-5-5c0,0-59.5-22.3-84.3-27.3v-2.5l-7.4-19.8c0-2.5-2.5-5-5-5c-2.5,0-5,0-7.4,2.5
		l-32.2,27.3l-34.7-29.8c-2.5,0-5-2.5-7.4,0c-2.5,0-5,2.5-5,5l-5,19.8c0,2.5,0,2.5,0,5c-24.8,7.4-79.4,27.3-79.4,27.3
		c-2.5,0-5,2.5-5,5c-5,9.9-62,104.2-74.4,138.9c0,2.5,0,7.4,2.5,9.9l54.6,37.2c2.5,0,5,2.5,5,0c2.5,0,2.5-2.5,5-5l34.7-52.1
		l7.4,181.1c0,2.5,2.5,5,5,7.4c0,0,24.8,14.9,47.1,14.9c7.4,0,17.4-2.5,27.3-5c7.4-2.5,12.4-7.4,17.4-12.4V282c0-5,2.5-7.4,7.4-7.4
		s7.4,2.5,7.4,7.4v320c7.4,7.4,14.9,12.4,22.3,14.9c7.4,2.5,14.9,5,24.8,5c24.8,0,49.6-17.4,49.6-17.4c2.5-2.5,5-5,5-7.4l7.4-183.5
		l34.7,49.6c0,2.5,2.5,2.5,5,5c2.5,0,5,0,5,0l54.6-39.7c2.5-2.5,5-5,2.5-9.9C501,383.7,439,289.5,436.5,282z M270.4,274.6L258,249.8
		l2.5-7.4l22.3,19.8L270.4,274.6z M317.5,274.6l-12.4-14.9l22.3-19.8l2.5,7.4L317.5,274.6z"/>
</g>
</svg>
