<?xml version="1.0" encoding="utf-8"?>
<!-- Generator: Adobe Illustrator 18.0.0, SVG Export Plug-In . SVG Version: 6.00 Build 0)  -->
<!DOCTYPE svg PUBLIC "-//W3C//DTD SVG 1.1//EN" "http://www.w3.org/Graphics/SVG/1.1/DTD/svg11.dtd">
<svg version="1.1" id="Capa_1" xmlns="http://www.w3.org/2000/svg" xmlns:xlink="http://www.w3.org/1999/xlink" x="0px" y="0px"
	 viewBox="0 0 595.3 841.9" enable-background="new 0 0 595.3 841.9" xml:space="preserve">
<g id="guia" display="none">
</g>
<g id="guia2">
</g>
<g id="Capa_3">
	<g id="Capa_3_1_">
		<g id="Capa_3_2_">
			<g>
				<path fill="#FFFFFF" d="M496.1,418.5c-24.8-76.9-79.4-141.4-151.3-178.6S188.5,195.2,111.6,220c-9.9,2.5-14.9,12.4-14.9,19.8
					l5,32.2c2.5,12.4,7.4,22.3,14.9,29.8l19.8,324.9c0,7.4,7.4,9.9,14.9,7.4l275.3-173.6c9.9,2.5,22.3,0,32.2-5l29.8-14.9
					C496.1,435.8,498.5,425.9,496.1,418.5z M136.4,316.8c27.3,9.9,67,2.5,99.2-7.4c14.9,7.4,42.2,17.4,64.5,17.4
					c14.9,19.8,39.7,34.7,52.1,42.2c9.9,32.2,27.3,69.4,52.1,84.3L153.8,611.9L136.4,316.8z M441.5,423.4c-7.4,5-12.4,2.5-14.9,0
					c-12.4-7.4-27.3-32.2-39.7-74.4c-2.5-5-5-7.4-9.9-9.9c-17.4-9.9-44.6-27.3-47.1-39.7c-2.5-9.9-14.9-14.9-22.3-12.4
					c-14.9,5-44.6-7.4-62-14.9c-5-2.5-9.9-2.5-14.9,0c-42.2,12.4-69.4,14.9-84.3,7.4c-2.5,0-5-2.5-7.4-12.4l-2.5-14.9
					c64.5-17.4,131.5-9.9,191,19.8s104.2,81.9,129,141.4L441.5,423.4z"/>
				<path fill="#FFFFFF" d="M260.4,478c2.5-2.5,2.5-5,5-7.4c9.9-19.8-2.5-29.8-14.9-34.7s-27.3-9.9-37.2,9.9c0,2.5-2.5,2.5-2.5,7.4
					c-5-2.5-12.4-5-17.4-2.5c-9.9,2.5-17.4,9.9-22.3,19.8c-12.4,22.3,0,52.1,29.8,67c27.3,14.9,59.5,7.4,69.4-14.9
					c5-9.9,5-19.8,2.5-29.8C270.4,485.4,265.4,478,260.4,478z M253,510.2c-7.4,12.4-27.3,17.4-44.6,7.4s-27.3-27.3-19.8-39.7
					c2.5-5,7.4-7.4,12.4-9.9l0,0c-2.5,0-2.5,2.5-2.5,2.5c-2.5,2.5-5,5-2.5,9.9c0,2.5,2.5,5,7.4,7.4c2.5,0,5,2.5,7.4,2.5
					c2.5,0,7.4-2.5,7.4-5c7.4-22.3,12.4-29.8,12.4-32.2c2.5-2.5,2.5-5,2.5-5s2.5,0,9.9,2.5c7.4,2.5,7.4,5,7.4,5s0,0-2.5,5
					c0,2.5-5,9.9-19.8,29.8c-2.5,2.5-2.5,7.4,0,9.9c0,2.5,2.5,5,5,5c5,2.5,9.9,0,9.9,0c5-2.5,7.4-5,7.4-7.4c0-2.5,0-2.5,2.5-2.5l0,0
					C255.5,500.3,255.5,505.3,253,510.2z"/>
				<path fill="#FFFFFF" d="M324.9,378.8c-2.5-2.5-2.5-5-5-5c-2.5,0-2.5-2.5-5-2.5c-9.9-5-22.3-2.5-29.8,2.5c-2.5-2.5-5-5-7.4-5
					c-9.9-5-19.8-2.5-19.8-2.5c-5,2.5-7.4,7.4-5,12.4c2.5,5,7.4,7.4,12.4,5c0,0,5,0,12.4,5c0,2.5,0,7.4,0,12.4
					c0,7.4,5,14.9,12.4,19.8c9.9,7.4,14.9,12.4,19.8,19.8c2.5,2.5,2.5,5,5,9.9c0,0,0,2.5,0,5l-2.5,5c-2.5,5,0,12.4,5,17.4
					c7.4,7.4,17.4,7.4,24.8,0c9.9-9.9,12.4-19.8,12.4-29.8c0-7.4,0-17.4-2.5-27.3C342.3,401.1,332.4,388.7,324.9,378.8z
					 M332.4,440.8c0,7.4-2.5,12.4-7.4,17.4l2.5-5c0-2.5,2.5-9.9,0-14.9c-2.5-5-2.5-9.9-7.4-14.9c-5-7.4-12.4-14.9-24.8-22.3
					c-2.5-2.5-2.5-5-5-7.4c0-2.5,0-5,2.5-7.4c2.5-5,7.4-5,12.4-2.5h2.5l2.5,2.5c7.4,9.9,14.9,19.8,19.8,34.7
					C332.4,430.9,332.4,435.8,332.4,440.8z"/>
				<path fill="#FFFFFF" d="M176.1,423.4c17.4,9.9,39.7,2.5,49.6-17.4c9.9-17.4,2.5-39.7-17.4-49.6c-17.4-9.9-39.7-2.5-49.6,14.9
					C151.3,393.7,158.7,416,176.1,423.4z M178.6,383.7c5-9.9,14.9-12.4,24.8-7.4c9.9,5,12.4,14.9,7.4,24.8s-14.9,12.4-24.8,7.4
					C176.1,403.6,173.6,391.2,178.6,383.7z"/>
			</g>
		</g>
	</g>
</g>
</svg>
