<?xml version="1.0" encoding="utf-8"?>
<!-- Generator: Adobe Illustrator 18.0.0, SVG Export Plug-In . SVG Version: 6.00 Build 0)  -->
<!DOCTYPE svg PUBLIC "-//W3C//DTD SVG 1.1//EN" "http://www.w3.org/Graphics/SVG/1.1/DTD/svg11.dtd">
<svg version="1.1" id="Capa_1" xmlns="http://www.w3.org/2000/svg" xmlns:xlink="http://www.w3.org/1999/xlink" x="0px" y="0px"
	 viewBox="0 0 595.3 841.9" enable-background="new 0 0 595.3 841.9" xml:space="preserve">
<g id="guia" display="none">
</g>
<g id="guia2">
</g>
<g id="Capa_3">
	<g>
		<path fill="#FFFFFF" d="M478.7,314.3l-69.4-111.6l0,0c0-2.5-2.5-5-5-5l-49.6-9.9l0,0l-7.4-2.5c-2.5,9.9-22.3,22.3-49.6,22.3
			c-27.3,0-44.6-9.9-49.6-22.3l-9.9,2.5l0,0h-5h-2.5l0,0l-37.2,9.9c-2.5,0-2.5,0-5,2.5l-71.9,111.6c0,5,0,7.4,2.5,9.9l24.8,19.8
			c2.5,2.5,7.4,2.5,9.9,0l59.5-44.6l24.8,67h119.1l27.3-67l59.5,44.6c2.5,2.5,7.4,2.5,9.9,0l24.8-19.8
			C478.7,321.7,481.2,316.8,478.7,314.3z M295.2,244.8c-14.9,0-34.7-17.4-44.6-34.7c12.4,7.4,27.3,12.4,44.6,12.4
			c17.4,0,32.2-2.5,42.2-9.9C329.9,230,312.5,244.8,295.2,244.8z"/>
		<path fill="#FFFFFF" d="M391.9,453.2c-7.4-39.7-24.8-67-32.2-79.4h-124c-9.9,12.4-24.8,37.2-32.2,79.4
			c-12.4,57-34.7,193.5-34.7,193.5c0,2.5,0,5,2.5,5c2.5,2.5,2.5,2.5,5,2.5h191l7.4-47.1l7.4,47.1h44.6l0,0c5,0,7.4-2.5,7.4-7.4v-2.5
			C424.1,634.3,401.8,510.2,391.9,453.2z"/>
	</g>
</g>
</svg>
