<?xml version="1.0" encoding="utf-8"?>
<!-- Generator: Adobe Illustrator 18.0.0, SVG Export Plug-In . SVG Version: 6.00 Build 0)  -->
<!DOCTYPE svg PUBLIC "-//W3C//DTD SVG 1.1//EN" "http://www.w3.org/Graphics/SVG/1.1/DTD/svg11.dtd">
<svg version="1.1" id="Capa_1" xmlns="http://www.w3.org/2000/svg" xmlns:xlink="http://www.w3.org/1999/xlink" x="0px" y="0px"
	 viewBox="0 0 595.3 841.9" enable-background="new 0 0 595.3 841.9" xml:space="preserve">
<g id="guia" display="none">
</g>
<g id="guia2">
</g>
<g id="Capa_3">
	<path fill="#FFFFFF" d="M530.8,217.6c-17.4-7.4-44.6-12.4-74.4-14.9c-5,27.3-9.9,54.6-14.9,81.9c-9.9,44.6-14.9,111.6-52.1,148.8
		c-9.9,9.9-22.3,14.9-37.2,14.9l0,0c-19.8,0-39.7-7.4-57-19.8c-2.5,9.9-7.4,17.4-9.9,27.3c27.3,14.9,49.6,34.7,62,67
		c7.4,19.8,5,39.7,7.4,57c9.9-2.5,17.4-2.5,27.3-2.5l0,0h2.5c42.2,0,84.3-5,126.5-7.4c7.4-27.3,2.5-57-7.4-104.2
		C498.5,416,510.9,324.2,530.8,217.6z M384.5,589.6L384.5,589.6L384.5,589.6c-32.2,0-67,9.9-99.2,19.8c-22.3,5-42.2,7.4-64.5,7.4
		c-44.6,0-86.8-9.9-126.5-32.2c-9.9-5-22.3-9.9-32.2-17.4c0,2.5,0,5-2.5,5c-5,17.4,9.9,24.8,44.6,39.7
		c101.7,39.7,168.7,22.3,168.7,22.3C310,604.5,384.5,602,384.5,602v34.7l126.5-7.4c0,0,2.5-27.3,2.5-47.1
		c-42.2,2.5-84.3,7.4-126.5,7.4H384.5z M302.6,418.5c17.4,9.9,37.2,19.8,52.1,19.8c9.9,0,19.8-2.5,29.8-12.4
		c32.2-32.2,39.7-96.7,49.6-141.4c5-27.3,9.9-54.6,14.9-81.9c-69.4-5-148.8,2.5-148.8,2.5s0,29.8,2.5,69.4
		C302.6,304.4,315,361.4,302.6,418.5z M220.7,607c19.8,0,42.2-2.5,62-7.4c19.8-5,42.2-12.4,62-14.9c0-19.8,0-39.7-5-57
		c-9.9-29.8-32.2-47.1-57-62c0,0,0,2.5-2.5,2.5c-42.2,71.9-99.2,74.4-131.5,71.9c-67-14.9-81.9,0-86.8,17.4
		c12.4,7.4,24.8,12.4,34.7,19.8C136.4,597,178.6,607,220.7,607z"/>
</g>
</svg>
