<?xml version="1.0" encoding="utf-8"?>
<!-- Generator: Adobe Illustrator 18.0.0, SVG Export Plug-In . SVG Version: 6.00 Build 0)  -->
<!DOCTYPE svg PUBLIC "-//W3C//DTD SVG 1.1//EN" "http://www.w3.org/Graphics/SVG/1.1/DTD/svg11.dtd">
<svg version="1.1" id="Capa_1" xmlns="http://www.w3.org/2000/svg" xmlns:xlink="http://www.w3.org/1999/xlink" x="0px" y="0px"
	 viewBox="0 0 595.3 841.9" enable-background="new 0 0 595.3 841.9" xml:space="preserve">
<g id="guia" display="none">
</g>
<g id="guia2">
</g>
<g id="Capa_3">
	<g id="Capa_3_3_">
		<g>
			<path fill="#FFFFFF" d="M503.5,500.3c0-12.4-2.5-22.3-5-34.7c17.4-19.8,27.3-44.6,24.8-71.9c-5-42.2-37.2-71.9-76.9-79.4v-2.5
				c-5-32.2-34.7-54.6-64.5-49.6c-7.4,0-14.9,2.5-19.8,7.4c-19.8-27.3-54.6-39.7-89.3-34.7c-49.6,5-84.3,39.7-86.8,81.9
				c-7.4-2.5-14.9-2.5-22.3,0c-44.6,5-76.9,47.1-71.9,91.8c0,5,2.5,12.4,5,17.4c-14.9,22.3-24.8,49.6-24.8,76.9c0,5,0,12.4,2.5,17.4
				c0,5-2.5,12.4-2.5,17.4c0,24.8,7.4,49.6,22.3,67l2.5,5h275.3l0,0h106.7l2.5-5c12.4-17.4,19.8-42.2,19.8-69.4
				c0-7.4,0-12.4-2.5-19.8C503.5,510.2,503.5,505.3,503.5,500.3z M106.7,587.1c-9.9-12.4-14.9-29.8-14.9-49.6c0-5,0-9.9,2.5-14.9
				v-2.5v-2.5c0-5-2.5-9.9-2.5-14.9c0-19.8,5-37.2,14.9-54.6c2.5,2.5,5,5,7.4,9.9c-5,12.4-7.4,27.3-5,42.2
				c5,29.8,22.3,52.1,47.1,64.5c2.5,7.4,5,14.9,7.4,22.3L106.7,587.1L106.7,587.1z M468.8,587.1H191c-7.4-12.4-12.4-32.2-12.4-49.6
				c0-5,0-9.9,2.5-14.9v-2.5v-2.5c0-5,0-9.9,0-17.4c0-74.4,67-133.9,151.3-133.9s151.3,59.5,151.3,133.9c0,5,0,9.9,0,14.9v2.5v2.5
				c0,5,2.5,12.4,2.5,17.4C481.2,554.9,476.2,572.2,468.8,587.1z M329.9,341.6c-96.7,0-173.6,71.9-173.6,158.7c0,5,0,12.4,0,17.4
				c0,5,0,12.4,0,17.4c-12.4-9.9-19.8-22.3-22.3-37.2c-2.5-12.4,0-24.8,7.4-37.2l5-7.4l-9.9-7.4c-12.4-9.9-19.8-24.8-22.3-39.7
				c-5-32.2,19.8-62,52.1-67c9.9,0,17.4,0,27.3,2.5l17.4,7.4l-2.5-17.4c-5-37.2,24.8-71.9,64.5-76.9c29.8-5,59.5,9.9,74.4,34.7
				l7.4,12.4l9.9-9.9c5-5,12.4-7.4,17.4-7.4c19.8-2.5,39.7,12.4,42.2,32.2c0,2.5,0,5,0,7.4l-2.5,12.4h12.4c34.7,0,62,24.8,67,59.5
				c2.5,14.9-2.5,32.2-9.9,44.6C463.8,381.3,401.8,341.6,329.9,341.6z"/>
			<ellipse fill="#FFFFFF" cx="448.9" cy="487.9" rx="14.9" ry="32.2"/>
			<ellipse fill="#FFFFFF" cx="416.7" cy="525.1" rx="9.9" ry="22.3"/>
			<ellipse fill="#FFFFFF" cx="446.5" cy="549.9" rx="7.4" ry="14.9"/>
		</g>
	</g>
</g>
</svg>
