<?xml version="1.0" encoding="utf-8"?>
<!-- Generator: Adobe Illustrator 18.0.0, SVG Export Plug-In . SVG Version: 6.00 Build 0)  -->
<!DOCTYPE svg PUBLIC "-//W3C//DTD SVG 1.1//EN" "http://www.w3.org/Graphics/SVG/1.1/DTD/svg11.dtd">
<svg version="1.1" id="Capa_1" xmlns="http://www.w3.org/2000/svg" xmlns:xlink="http://www.w3.org/1999/xlink" x="0px" y="0px"
	 viewBox="0 0 595.3 841.9" enable-background="new 0 0 595.3 841.9" xml:space="preserve">
<g id="guia" display="none">
</g>
<g id="guia2">
</g>
<g id="Capa_3">
	<g>
		<path fill="#FFFFFF" d="M453.9,187.8c-42.2,0-76.9,34.7-76.9,76.9s34.7,76.9,76.9,76.9s76.9-34.7,76.9-76.9
			S496.1,187.8,453.9,187.8z M451.4,239.9l-29.8,24.8h29.8v9.9h-44.6v-7.4l29.8-24.8h-29.8V230h44.6V239.9z M488.6,262.2l-19.8,17.4
			h19.8v7.4h-29.8v-5l19.8-17.4h-19.8v-7.4h29.8V262.2z M513.4,294.4v5h-19.8v-5L506,282h-12.4v-5h19.8v5L501,294.4H513.4
			L513.4,294.4z"/>
		<path fill="#FFFFFF" d="M372.1,311.8h-34.7c-7.4,27.3-22.3,27.3-42.2,27.3s-34.7-2.5-42.2-27.3h-37.2l-2.5,2.5l-67,49.6l32.2,42.2
			l34.7-22.3v143.9h79.4l0,0H377V383.7l32.2,22.3l32.2-44.6L372.1,311.8L372.1,311.8z"/>
		<path fill="#FFFFFF" d="M307.6,537.5L307.6,537.5l-2.5,7.4h-2.5v62h-5v-2.5l0,0V545h-7.4v-7.4h-5h-54.6l-7.4,27.3v89.3h71.9v-32.2
			h12.4v32.2H382v-86.8l-12.4-29.8H307.6L307.6,537.5z M225.7,607v-2.5c12.4,0,14.9-34.7,17.4-47.1h2.5
			C245.6,557.4,243.1,604.5,225.7,607z M369.6,607c-17.4-2.5-19.8-47.1-19.8-49.6h2.5c0,12.4,5,47.1,17.4,47.1V607z"/>
	</g>
</g>
</svg>
