<?xml version="1.0" encoding="utf-8"?>
<!-- Generator: Adobe Illustrator 18.0.0, SVG Export Plug-In . SVG Version: 6.00 Build 0)  -->
<!DOCTYPE svg PUBLIC "-//W3C//DTD SVG 1.1//EN" "http://www.w3.org/Graphics/SVG/1.1/DTD/svg11.dtd">
<svg version="1.1" id="Capa_1" xmlns="http://www.w3.org/2000/svg" xmlns:xlink="http://www.w3.org/1999/xlink" x="0px" y="0px"
	 viewBox="0 0 595.3 841.9" enable-background="new 0 0 595.3 841.9" xml:space="preserve">
<g id="guia" display="none">
</g>
<g id="guia2">
</g>
<g id="Capa_3">
	<path fill="#FFFFFF" d="M436.5,292l9.9-27.3c0,0-71.9,7.4-111.6,62c-39.7,52.1-29.8,59.5-29.8,67
		C307.6,391.2,305.1,341.6,436.5,292z M478.7,262.2c2.5,2.5,29.8,27.3,47.1,64.5c9.9-44.6,2.5-89.3-32.2-121.5
		c-59.5-52.1-96.7,7.4-116.6,67c34.7-19.8,67-22.3,69.4-22.3C458.9,249.8,468.8,254.8,478.7,262.2z M307.6,406.1L307.6,406.1
		c0,2.5,7.4,64.5,29.8,76.9c22.3,12.4,7.4-42.2,7.4-42.2l-22.3-62c-5,7.4-5,9.9-5,12.4c0,2.5,0,5,0,5
		C317.5,403.6,312.5,406.1,307.6,406.1z M501,453.2c0,0,2.5-5,2.5-12.4l-54.6,34.7c0,0-42.2,34.7-17.4,39.7
		c24.8,5,69.4-42.2,69.4-42.2v-2.5c-5-2.5-5-7.4-5-12.4C498.5,455.7,498.5,453.2,501,453.2z M426.6,527.6c-2.5,0-2.5,0-2.5,0
		c-7.4-2.5-12.4-7.4-14.9-14.9c-2.5-14.9,14.9-34.7,29.8-47.1l0,0l0,0l42.2-27.3c5-12.4,9.9-22.3,12.4-29.8
		c-7.4-22.3-19.8-54.6-49.6-96.7l2.5-7.4H444c-37.2,12.4-62,27.3-81.9,37.2c-2.5,19.8-7.4,42.2-12.4,62l12.4,32.2l0,0l0,0
		c5,19.8,7.4,44.6-2.5,54.6c-5,5-12.4,7.4-19.8,5c-2.5,0-2.5,0-5-2.5c-5-2.5-7.4-5-12.4-9.9c-12.4,32.2-42.2,79.4-24.8,109.1
		c22.3,37.2,79.4,52.1,109.1,17.4c22.3-24.8,29.8-57,39.7-86.8C441.5,527.6,434.1,530.1,426.6,527.6z M468.8,274.6l-9.9,27.3
		c79.4,119.1,52.1,158.7,49.6,161.2c5-5,14.9-5,17.4-69.4C528.3,324.2,468.8,274.6,468.8,274.6z M156.3,279.6l5,29.8
		c126.5,64.5,119.1,111.6,116.6,116.6c2.5-7.4,12.4-12.4-19.8-69.4C228.2,296.9,156.3,279.6,156.3,279.6z M126.5,274.6
		c9.9-7.4,19.8-9.9,34.7-7.4c2.5,0,34.7,7.4,67,32.2c-14.9-62-47.1-129-111.6-81.9C79.4,244.8,67,289.5,69.4,334.1
		C91.8,296.9,124,274.6,126.5,274.6z M240.6,522.6c-2.5,0-2.5,0-5,0c-7.4,2.5-14.9,0-19.8-7.4c-9.9-12.4-2.5-37.2,5-54.6l0,0l0,0
		l14.9-29.8c-2.5-19.8-5-42.2-5-62c-14.9-14.9-39.7-29.8-74.4-49.6h-2.5l-5,2.5c-32.2,39.7-49.6,69.4-59.5,91.8
		c2.5,9.9,5,19.8,9.9,32.2l37.2,32.2l0,0l0,0c14.9,14.9,29.8,34.7,24.8,49.6c-2.5,7.4-7.4,12.4-17.4,12.4c0,0-2.5,0-5,0
		c-7.4,0-12.4-2.5-19.8-5c7.4,32.2,9.9,64.5,29.8,91.8c24.8,37.2,84.3,29.8,111.6-5c22.3-27.3,0-79.4-9.9-111.6
		C250.5,517.7,245.6,520.2,240.6,522.6z M138.9,314.3l-5-29.8c0,0-64.5,44.6-71.9,109.1s5,67,7.4,71.9
		C67,465.6,47.1,420.9,138.9,314.3z M265.4,425.9c0-2.5,0-5,0-5s0-5-2.5-12.4l-29.8,57c0,0-19.8,52.1,2.5,42.2
		c24.8-7.4,39.7-71.9,39.7-71.9v-2.5C272.8,435.8,267.9,433.3,265.4,425.9z M129,487.9l-49.6-42.2c0,7.4,2.5,12.4,2.5,12.4
		c0,2.5,2.5,2.5,2.5,5c0,5-2.5,9.9-5,14.9v2.5c0,0,39.7,52.1,64.5,49.6C166.2,527.6,129,487.9,129,487.9z"/>
</g>
</svg>
