<?xml version="1.0" encoding="utf-8"?>
<!-- Generator: Adobe Illustrator 18.0.0, SVG Export Plug-In . SVG Version: 6.00 Build 0)  -->
<!DOCTYPE svg PUBLIC "-//W3C//DTD SVG 1.1//EN" "http://www.w3.org/Graphics/SVG/1.1/DTD/svg11.dtd">
<svg version="1.1" id="Capa_1" xmlns="http://www.w3.org/2000/svg" xmlns:xlink="http://www.w3.org/1999/xlink" x="0px" y="0px"
	 viewBox="0 0 595.3 841.9" enable-background="new 0 0 595.3 841.9" xml:space="preserve">
<g id="guia" display="none">
</g>
<g id="guia2">
</g>
<g id="Capa_3">
	<path fill="#FFFFFF" d="M530.8,525.1L439,346.5l-12.4-79.4c0-7.4-7.4-9.9-12.4-9.9h-2.5c-76.9,14.9-156.3,14.9-233.2,0h-2.5
		c-7.4,0-12.4,5-12.4,9.9l-12.4,79.4L59.5,525.1c0,2.5,0,5,0,5c2.5,2.5,49.6,52.1,235.6,52.1s233.2-49.6,235.6-52.1
		C533.3,530.1,533.3,527.6,530.8,525.1z M461.3,554.9l-9.9-34.7C439,483,429.1,448.2,419.2,416c-7.4-19.8-12.4-39.7-19.8-59.5
		c2.5,0,5,0,7.4,0l24.8,59.5c17.4,39.7,34.7,84.3,54.6,131.5C478.7,549.9,468.8,552.4,461.3,554.9z M372.1,569.8l-2.5-29.8
		c-5-42.2-9.9-81.9-12.4-116.6c-2.5-19.8-5-39.7-7.4-59.5c2.5,0,5,0,9.9,0l12.4,59.5c7.4,42.2,17.4,91.8,27.3,143.9
		C389.4,567.3,382,569.8,372.1,569.8z M106.7,547.4c12.4-32.2,24.8-62,37.2-89.3l17.4-42.2c7.4-19.8,17.4-39.7,24.8-59.5
		c2.5,0,5,0,7.4,0c-7.4,19.8-14.9,39.7-19.8,59.5c-7.4,27.3-17.4,54.6-27.3,84.3L129,552.4C121.5,552.4,114.1,549.9,106.7,547.4z
		 M193.5,567.3l27.3-143.9c5-22.3,7.4-42.2,12.4-59.5c2.5,0,7.4,0,9.9,0c-2.5,19.8-5,39.7-7.4,59.5c-2.5,24.8-5,52.1-9.9,79.4
		c-2.5,22.3-5,44.6-7.4,67C208.3,569.8,200.9,567.3,193.5,567.3z M295.2,574.7c-5,0-7.4,0-12.4,0l7.4-208.3c2.5,0,2.5,0,5,0
		c2.5,0,2.5,0,5,0l2.5,59.5c2.5,39.7,2.5,81.9,5,129v19.8C305.1,574.7,300.1,574.7,295.2,574.7z"/>
</g>
</svg>
