<?xml version="1.0" encoding="utf-8"?>
<!-- Generator: Adobe Illustrator 18.0.0, SVG Export Plug-In . SVG Version: 6.00 Build 0)  -->
<!DOCTYPE svg PUBLIC "-//W3C//DTD SVG 1.1//EN" "http://www.w3.org/Graphics/SVG/1.1/DTD/svg11.dtd">
<svg version="1.1" id="Capa_1" xmlns="http://www.w3.org/2000/svg" xmlns:xlink="http://www.w3.org/1999/xlink" x="0px" y="0px"
	 viewBox="0 0 595.3 841.9" enable-background="new 0 0 595.3 841.9" xml:space="preserve">
<g id="guia" display="none">
</g>
<g id="guia2">
</g>
<g id="Capa_3">
	<path fill="#FFFFFF" d="M416.7,334.1c2.5,0,7.4-2.5,7.4-7.4l47.1-91.8c2.5-2.5,2.5-7.4,0-9.9c-2.5-2.5-5-5-7.4-7.4l-89.3-32.2
		c-2.5,0-2.5,0-5,0c-17.4,22.3-44.6,37.2-71.9,37.2c-27.3,0-54.6-12.4-74.4-37.2c0-2.5-2.5-2.5-5,0l-86.8,32.2c-5,0-7.4,2.5-7.4,7.4
		c-2.5,2.5-2.5,5,0,9.9l44.6,94.3c0,2.5,5,5,7.4,5l12.4,2.5l9.9,99.2c-14.9,19.8-27.3,59.5-42.2,104.2
		c-9.9,32.2-19.8,64.5-29.8,86.8v2.5l2.5,2.5c2.5,0,54.6,22.3,168.7,22.3l0,0c111.6,0,166.2-22.3,168.7-22.3l2.5-2.5v-2.5
		c-9.9-22.3-22.3-54.6-29.8-86.8c-12.4-42.2-24.8-84.3-42.2-104.2l9.9-99.2L416.7,334.1z M297.6,230c22.3,0,47.1-7.4,64.5-24.8
		c-7.4,9.9-14.9,19.8-22.3,27.3c-12.4,9.9-27.3,14.9-42.2,14.9c-14.9,0-29.8-5-42.2-14.9c-9.9-7.4-17.4-14.9-22.3-27.3
		C250.5,222.5,272.8,230,297.6,230z M191,329.2l-12.4-2.5c-2.5,0-2.5,0-2.5-2.5L131.5,230v-2.5l2.5-2.5l71.9-24.8L191,329.2z
		 M389.4,197.7l71.9,24.8c0,0,2.5,0,2.5,2.5v2.5l-44.6,94.3l-2.5,2.5l-12.4,2.5L389.4,197.7z"/>
</g>
</svg>
