<?xml version="1.0" encoding="utf-8"?>
<!-- Generator: Adobe Illustrator 18.0.0, SVG Export Plug-In . SVG Version: 6.00 Build 0)  -->
<!DOCTYPE svg PUBLIC "-//W3C//DTD SVG 1.1//EN" "http://www.w3.org/Graphics/SVG/1.1/DTD/svg11.dtd">
<svg version="1.1" id="Capa_1" xmlns="http://www.w3.org/2000/svg" xmlns:xlink="http://www.w3.org/1999/xlink" x="0px" y="0px"
	 viewBox="0 0 595.3 841.9" enable-background="new 0 0 595.3 841.9" xml:space="preserve">
<g id="guia" display="none">
</g>
<g id="guia2">
</g>
<g id="Capa_3">
	<g>
		<path fill="#FFFFFF" d="M458.9,192.8c-69.4-9.9-91.8,49.6-96.7,106.7c-7.4,79.4,0,163.7-19.8,240.6c-7.4,32.2-17.4,79.4,9.9,104.2
			c17.4,14.9,54.6,22.3,74.4,7.4c32.2-22.3,52.1-76.9,59.5-114.1c17.4-71.9,34.7-146.3,42.2-218.3
			C535.8,264.7,523.4,200.2,458.9,192.8z M478.7,495.4c-7.4,39.7-32.2,138.9-86.8,141.4c-27.3,0-39.7-22.3-39.7-44.6
			c0-34.7,12.4-69.4,19.8-104.2c2.5-19.8,2.5-39.7,2.5-59.5c0-5-2.5-47.1,0-49.6c12.4-5,34.7-2.5,49.6,0
			c9.9,2.5,64.5,17.4,64.5,24.8C488.6,433.3,486.1,465.6,478.7,495.4z M439,311.8c0-2.5,2.5-9.9,14.9-12.4c5,0,9.9,2.5,9.9,5
			c0,0,2.5,2.5,2.5,5c0,2.5,5,2.5,7.4,2.5c2.5,0,5,0,2.5,0c0,2.5-2.5,2.5-2.5,5c0,0,2.5,0,2.5,2.5c0,2.5-5,0-7.4,2.5
			c-2.5,0-5,2.5-7.4,5c0,2.5,7.4,7.4,7.4,12.4c2.5,2.5,2.5,9.9-2.5,17.4c-7.4,7.4-27.3,2.5-32.2,0c-7.4-2.5-19.8-5-22.3-12.4
			c-2.5-14.9,0-22.3,5-22.3c0,0,2.5,0,5,2.5s2.5,5,5,5c2.5,0,7.4-2.5,14.9,0c2.5,0,2.5-2.5,2.5-2.5
			C441.5,319.3,436.5,316.8,439,311.8z M506,294.4c-12.4-9.9-42.2-12.4-59.5-14.9l0,0c-19.8-2.5-39.7-5-59.5,2.5
			c-2.5-14.9,7.4-32.2,14.9-44.6c17.4-24.8,47.1-29.8,71.9-14.9C498.5,234.9,513.4,264.7,506,294.4z"/>
		<ellipse fill="#FFFFFF" cx="461.2" cy="309.4" rx="2.5" ry="2.5"/>
		<ellipse fill="#FFFFFF" cx="158.1" cy="294.7" rx="2.5" ry="2.5"/>
		<path fill="#FFFFFF" d="M230.7,277.1c-14.9-57-47.1-111.6-114.1-91.8c-62,17.4-64.5,81.9-52.1,136.4
			c17.4,71.9,44.6,143.9,74.4,210.8c14.9,34.7,39.7,86.8,76.9,104.2c22.3,9.9,57,0,71.9-17.4c24.8-27.3,7.4-74.4-5-104.2
			C253,438.3,248,356.5,230.7,277.1z M106.7,215.1c22.3-17.4,52.1-17.4,71.9,5c9.9,9.9,24.8,27.3,22.3,42.2c-19.8-2.5-39.7,0-59.5,5
			l0,0c-14.9,7.4-44.6,12.4-54.6,24.8C74.4,264.7,84.3,232.4,106.7,215.1z M146.3,316.8c-2.5-2.5-5-5-7.4-9.9
			c0-2.5-2.5-9.9,7.4-17.4c5-2.5,9.9-2.5,12.4,0c0,0,2.5,2.5,5,2.5s5,0,7.4,0c2.5-2.5,2.5-2.5,2.5,0c0,2.5,0,5,0,5c-2.5,0,0,0,0,2.5
			c0,2.5-5,2.5-5,5c-2.5,0-5,2.5-2.5,7.4c0,2.5,7.4,2.5,12.4,5c2.5,2.5,7.4,7.4,5,17.4c-5,9.9-24.8,14.9-32.2,14.9
			c-5,2.5-17.4,5-24.8-2.5c-9.9-9.9-7.4-19.8-5-22.3c0,0,2.5-2.5,5,0c2.5,2.5,5,5,7.4,2.5c2.5,0,5-5,12.4-7.4
			C148.8,319.3,148.8,316.8,146.3,316.8z M245.6,614.4c-54.6,7.4-91.8-86.8-106.7-126.5c-9.9-29.8-19.8-62-24.8-89.3
			c-2.5-7.4,52.1-32.2,59.5-34.7c12.4-5,34.7-9.9,49.6-7.4c2.5,0,7.4,42.2,7.4,47.1c2.5,19.8,5,39.7,12.4,57
			c12.4,32.2,29.8,64.5,34.7,99.2C282.8,587.1,272.8,611.9,245.6,614.4z"/>
	</g>
</g>
</svg>
