<?xml version="1.0" encoding="utf-8"?>
<!-- Generator: Adobe Illustrator 18.0.0, SVG Export Plug-In . SVG Version: 6.00 Build 0)  -->
<!DOCTYPE svg PUBLIC "-//W3C//DTD SVG 1.1//EN" "http://www.w3.org/Graphics/SVG/1.1/DTD/svg11.dtd">
<svg version="1.1" id="Capa_1" xmlns="http://www.w3.org/2000/svg" xmlns:xlink="http://www.w3.org/1999/xlink" x="0px" y="0px"
	 viewBox="0 0 595.3 841.9" enable-background="new 0 0 595.3 841.9" xml:space="preserve">
<g id="guia" display="none">
</g>
<g id="guia2">
</g>
<g id="Capa_3">
	<path fill="#FFFFFF" d="M523.4,428.4c-29.8,17.4-59.5,27.3-91.8,32.2c-44.6,7.4-89.3,5-133.9,7.4l0,0
		c-79.4,0-156.3-14.9-233.2-29.8c-5,22.3-5,39.7-5,39.7s29.8,27.3,265.4,29.8c0,0,138.9,9.9,205.9-39.7
		C528.3,445.7,525.8,433.3,523.4,428.4z M302.6,420.9c7.4,7.4,22.3,5,29.8-5l42.2-54.6l-29.8-24.8l-42.2,54.6
		C295.2,401.1,295.2,413.5,302.6,420.9z M379.5,401.1c17.4,0,34.7-2.5,49.6-9.9c-17.4-2.5-34.7-5-49.6-9.9l-14.9,17.4
		C369.6,401.1,374.5,401.1,379.5,401.1z M310,351.5c-2.5-2.5-7.4-5-9.9-7.4c-12.4,12.4-29.8,17.4-49.6,19.8
		c12.4,7.4,24.8,12.4,34.7,17.4L310,351.5z M64.5,420.9c76.9,14.9,153.8,29.8,233.2,29.8c0,0,0,0,2.5,0c44.6,0,89.3,0,131.5-5
		c29.8-5,59.5-14.9,86.8-29.8c-14.9-14.9-47.1-19.8-62-19.8c-2.5,0-5,0-7.4,0C429.1,411,404.3,416,379.5,416c-7.4,0-17.4,0-24.8-2.5
		l-9.9,12.4c-7.4,9.9-19.8,14.9-32.2,14.9c-7.4,0-14.9-2.5-22.3-7.4c-12.4-9.9-17.4-27.3-9.9-42.2c-17.4-7.4-34.7-17.4-52.1-27.3
		c-12.4,0-24.8,0-34.7,0c-19.8,0-42.2-2.5-62-7.4c-19.8-2.5-37.2-9.9-57-14.9C71.9,346.5,59.5,418.5,64.5,420.9z"/>
</g>
</svg>
