<?xml version="1.0" standalone="no"?>
<!DOCTYPE svg PUBLIC "-//W3C//DTD SVG 1.1//EN" "http://www.w3.org/Graphics/SVG/1.1/DTD/svg11.dtd" >
<svg xmlns="http://www.w3.org/2000/svg">
<metadata></metadata>
<defs>
<font id="bryantbold_condensed" horiz-adv-x="1077" >
<font-face units-per-em="2048" ascent="1536" descent="-512" />
<missing-glyph horiz-adv-x="512" />
<glyph horiz-adv-x="2048" />
<glyph horiz-adv-x="2048" />
<glyph unicode="&#xd;" horiz-adv-x="2048" />
<glyph unicode=" "  horiz-adv-x="512" />
<glyph unicode="&#x09;" horiz-adv-x="512" />
<glyph unicode="&#xa0;" horiz-adv-x="512" />
<glyph unicode="!" horiz-adv-x="565" d="M143 123q0 58 40.5 98.5t99.5 40.5t99 -40t40 -99t-40 -99t-99 -40t-99.5 40.5t-40.5 98.5zM162 780v480q0 52 35.5 86t85.5 34t85 -34t35 -86v-480l-63 -350q-10 -55 -57 -55q-48 0 -58 55z" />
<glyph unicode="&#x22;" horiz-adv-x="802" d="M113 918v362q0 41 29.5 70.5t70.5 29.5t70.5 -29.5t29.5 -70.5v-362q0 -41 -29.5 -71t-70.5 -30t-70.5 30t-29.5 71zM489 918v362q0 41 30 70.5t71 29.5t70.5 -29.5t29.5 -70.5v-362q0 -41 -29.5 -71t-70.5 -30t-71 30t-30 71z" />
<glyph unicode="#" horiz-adv-x="1394" d="M82 438q0 42 27 68t67 26h160l35 320h-158q-32 0 -55 22t-23 54q0 42 25 69t71 27h158l29 264q5 42 31.5 67t70.5 25q36 0 60 -24t24 -60v-8l-26 -264h325l27 264q5 42 31.5 67t70.5 25q39 0 62.5 -23.5t23.5 -58.5v-10l-31 -264h160q34 0 57 -21t23 -57q0 -39 -26 -66.5 t-68 -27.5h-164l-35 -320h164q32 0 53 -21t21 -54q0 -40 -25 -68.5t-67 -28.5h-164l-31 -282q-5 -42 -31 -68t-71 -26q-38 0 -61 24t-23 60l30 292h-325l-31 -282q-5 -41 -32.5 -67.5t-71.5 -26.5q-34 0 -58 24.5t-24 59.5l30 292h-159q-32 0 -54 22t-22 56zM522 532h326 l35 320h-326z" />
<glyph unicode="$" horiz-adv-x="1099" d="M113 266q0 43 25.5 68.5t66.5 25.5q32 0 63 -22q43 -30 64.5 -43.5t60.5 -32.5t80 -27t92 -8q97 0 148 38t51 100q0 60 -50 106.5t-198 116.5q-230 109 -311.5 198.5t-81.5 225.5q0 138 99.5 220.5t262.5 100.5v160q0 36 25 62t61 26t62 -26t26 -62v-162q56 -5 136 -31 q176 -63 176 -153q0 -40 -24 -68t-70 -28q-32 0 -54 12q-52 26 -81.5 38.5t-75.5 24t-93 11.5q-102 0 -157.5 -32.5t-55.5 -94.5q0 -57 51 -102t197 -113q80 -37 135.5 -67t107.5 -68.5t82.5 -78t49 -90t18.5 -110.5q0 -137 -91 -228t-265 -120v-168q0 -36 -25 -62t-61 -26 t-62 26t-26 62v168q-77 8 -174 47q-79 33 -131.5 81t-52.5 105z" />
<glyph unicode="%" horiz-adv-x="1675" d="M102 1051q0 140 91 239t231 99t230.5 -99t90.5 -239t-90.5 -239t-230.5 -99t-231 99t-91 239zM291 1051q0 -75 35 -126t98 -51t98 51t35 126t-35 125.5t-98 50.5t-98 -50.5t-35 -125.5zM352 61q0 27 15 48l792 1234q27 46 76 46q38 0 64 -25t26 -64q0 -29 -16 -51 l-791 -1231q-25 -43 -78 -43q-38 0 -63 25t-25 61zM934 313q0 140 90.5 239t230.5 99t231 -99t91 -239t-91 -239t-231 -99t-230.5 99t-90.5 239zM1122 313q0 -75 35 -125.5t98 -50.5t98.5 50.5t35.5 125.5t-35.5 125.5t-98.5 50.5t-98 -50.5t-35 -125.5z" />
<glyph unicode="&#x26;" horiz-adv-x="1462" d="M113 330q0 74 25.5 137.5t74 113.5t107 88.5t135.5 73.5q-129 187 -129 330q0 140 88.5 228t240.5 88q140 0 218.5 -83t78.5 -221q0 -214 -217 -383q126 -169 221 -299q56 100 95 185q25 57 86 57q38 0 64 -22.5t26 -67.5q0 -50 -50 -142.5t-106 -158.5q65 -96 135 -96 q42 0 84.5 22.5t61.5 22.5q40 0 63 -22.5t23 -57.5q0 -64 -76 -106t-168 -42q-183 0 -268 131q-155 -131 -391 -131q-205 0 -313.5 101.5t-108.5 253.5zM344 330q0 -70 51 -122t148 -52q152 0 270 100q-151 195 -258 340q-40 -23 -63.5 -38t-55.5 -41t-49 -50.5t-30 -60 t-13 -76.5zM543 1073q0 -106 90 -229q54 41 86.5 101.5t32.5 125.5q0 63 -24.5 103t-74.5 40q-48 0 -79 -38t-31 -103z" />
<glyph unicode="'" horiz-adv-x="425" d="M113 918v362q0 41 29.5 70.5t70.5 29.5t70.5 -29.5t29.5 -70.5v-362q0 -41 -29.5 -71t-70.5 -30t-70.5 30t-29.5 71z" />
<glyph unicode="(" horiz-adv-x="694" d="M143 553q0 213 72.5 442t200.5 408q33 51 90 51q42 0 74 -28.5t32 -69.5q0 -31 -16 -60q-110 -199 -160.5 -371.5t-50.5 -371.5t50.5 -371.5t160.5 -371.5q16 -29 16 -60q0 -38 -32.5 -68t-73.5 -30q-57 0 -90 51q-128 179 -200.5 408t-72.5 442z" />
<glyph unicode=")" horiz-adv-x="694" d="M82 -250q0 31 16 60q110 199 160.5 371.5t50.5 371.5t-50.5 371.5t-160.5 371.5q-16 29 -16 60q0 41 32 69.5t74 28.5q58 0 91 -51q128 -178 200 -407.5t72 -442.5t-72 -442.5t-200 -407.5q-33 -51 -91 -51q-41 0 -73.5 30t-32.5 68z" />
<glyph unicode="*" horiz-adv-x="757" d="M72 1112q0 25 16 41t41 16h147l-79 121q-11 18 -11 35q0 24 17 39.5t41 15.5q32 0 49 -28l86 -138l86 138q17 28 49 28q24 0 40.5 -15.5t16.5 -39.5q0 -18 -10 -35l-80 -121h148q25 0 41 -16t16 -41q0 -23 -16 -39t-41 -16h-148l82 -123q10 -17 10 -33q0 -24 -17.5 -39.5 t-39.5 -15.5q-33 0 -53 33l-84 135l-84 -135q-20 -33 -53 -33q-22 0 -40 15.5t-18 39.5q0 15 11 33l81 123h-147q-25 0 -41 16t-16 39z" />
<glyph unicode="+" horiz-adv-x="1167" d="M123 662q0 41 28.5 69.5t69.5 28.5h254v254q0 44 32.5 76t76.5 32t76 -32t32 -76v-254h254q40 0 69 -29t29 -69t-29 -69.5t-69 -29.5h-254v-254q0 -44 -32 -76t-76 -32t-76.5 32t-32.5 76v254h-254q-41 0 -69.5 29.5t-28.5 69.5z" />
<glyph unicode="," horiz-adv-x="475" d="M86 -268q0 17 5 32.5t14 36t14 35.5q31 95 31 203v123q0 46 27.5 75t72.5 29q47 0 74.5 -29t27.5 -75v-115q0 -197 -65 -319q-39 -76 -105 -76q-40 0 -68 24t-28 56z" />
<glyph unicode="-" horiz-adv-x="819" d="M102 518q0 44 32 75.5t75 31.5h401q43 0 75 -31.5t32 -75.5t-32 -75t-75 -31h-401q-43 0 -75 31t-32 75z" />
<glyph unicode="." horiz-adv-x="532" d="M127 123q0 59 40.5 99t98.5 40q59 0 99.5 -40.5t40.5 -98.5t-40.5 -98.5t-99.5 -40.5q-58 0 -98.5 40t-40.5 99z" />
<glyph unicode="/" horiz-adv-x="894" d="M123 -162q0 19 8 39l438 1495q24 82 109 82q47 0 75.5 -29.5t28.5 -74.5q0 -17 -6 -35l-442 -1495q-24 -86 -107 -86q-47 0 -75.5 31.5t-28.5 72.5z" />
<glyph unicode="0" horiz-adv-x="1236" d="M92 682q0 149 34.5 277t99.5 224t166 151t226 55q166 0 287 -95t180.5 -253.5t59.5 -358.5t-59.5 -358.5t-180.5 -253.5t-287 -95q-125 0 -226 55t-166 151t-99.5 224t-34.5 277zM334 682q0 -224 73 -358t211 -134q93 0 158 63.5t96 172.5t31 256t-31 256t-96 172.5 t-158 63.5q-138 0 -211 -134t-73 -358z" />
<glyph unicode="1" horiz-adv-x="731" d="M6 1169q0 80 78 105l322 98q24 8 43 8q54 0 86 -30t32 -90v-1156q0 -50 -34 -85t-87 -35t-86.5 34.5t-33.5 85.5v1012l-176 -53q-12 -4 -31 -4q-45 0 -79 31t-34 79z" />
<glyph unicode="2" horiz-adv-x="1071" d="M92 111v79q0 55 10.5 104.5t26.5 88t45 76.5t56 65.5t71 60t78 54.5t88 55q85 52 130 83t87.5 70t59 77.5t16.5 85.5q0 161 -213 161q-75 0 -132 -17.5t-132 -63.5q-38 -23 -70 -23q-51 0 -80 26t-29 68q0 53 38 91t114 73q139 64 303 64q205 0 322.5 -102t117.5 -273 q0 -100 -37 -176.5t-108.5 -140.5t-200.5 -144q-45 -28 -64.5 -39.5t-54 -34t-48 -32.5t-38 -28.5t-33.5 -29.5t-24.5 -28.5t-20.5 -31.5t-11.5 -32.5t-8.5 -37.5t-2 -42h543q45 0 76.5 -31.5t31.5 -76.5q0 -44 -32 -76.5t-76 -32.5h-690q-45 0 -77 33t-32 78z" />
<glyph unicode="3" horiz-adv-x="1093" d="M57 231q0 49 29.5 75t73.5 26q39 0 76 -37q67 -62 125.5 -88.5t152.5 -26.5q114 0 182 55.5t68 155.5q0 217 -301 217h-76q-45 0 -74.5 31.5t-29.5 75.5q0 46 28.5 76t75.5 30h59q122 0 189 54.5t67 140.5q0 166 -192 166q-82 0 -182 -49q-5 -2 -19 -9.5t-20.5 -10.5 t-18.5 -7t-22.5 -6t-22.5 -2q-42 0 -68 26t-26 66q0 26 11.5 48.5t34.5 40t42.5 28.5t50.5 26q119 56 256 56q201 0 308.5 -97.5t107.5 -255.5q0 -199 -221 -309q118 -22 201.5 -113.5t83.5 -228.5q0 -180 -137 -295t-365 -115q-203 0 -361 113q-39 27 -62.5 65t-23.5 78z " />
<glyph unicode="4" horiz-adv-x="1177" d="M25 442q0 38 26 70l647 817q41 51 101 51q52 0 82 -31t30 -85v-729h146q49 0 76.5 -26t27.5 -69q0 -46 -29 -70t-75 -24h-146v-246q0 -50 -31 -83t-83 -33t-83.5 33t-31.5 83v246h-555q-42 0 -72 27t-30 69zM315 535h367v473z" />
<glyph unicode="5" horiz-adv-x="1105" d="M92 227q0 43 30.5 71t76.5 28q38 0 71 -29q74 -63 135.5 -90t141.5 -27q117 0 181.5 67t64.5 163q0 117 -61 183t-173 66q-63 0 -109 -18.5t-120 -62.5q-32 -19 -64 -19q-59 0 -89 33t-25 78l69 592q6 47 38 74.5t79 27.5h502q44 0 77 -33t33 -78q0 -44 -32.5 -75 t-77.5 -31h-410l-39 -350q37 28 94 46.5t115 18.5q143 0 242.5 -60t145.5 -158t46 -224q0 -190 -133 -317.5t-344 -127.5q-240 0 -393 127q-72 59 -72 125z" />
<glyph unicode="6" horiz-adv-x="1144" d="M106 485q0 284 126.5 494t347.5 336q133 74 227 74q45 0 70.5 -24.5t25.5 -66.5q0 -39 -27 -62.5t-96 -57.5q-330 -161 -418 -443q50 55 127.5 82t163.5 27q197 0 310.5 -119.5t113.5 -308.5q0 -90 -31.5 -169.5t-90.5 -140t-152 -96t-209 -35.5q-233 0 -360.5 139.5 t-127.5 370.5zM369 412q0 -103 61 -167.5t172 -64.5q108 0 172 65.5t64 166.5q0 100 -60.5 164.5t-171.5 64.5q-107 0 -172 -64t-65 -165z" />
<glyph unicode="7" horiz-adv-x="995" d="M20 1255q0 44 32.5 76.5t76.5 32.5h745q52 0 81.5 -28.5t29.5 -80.5q0 -35 -22 -63q-76 -98 -134.5 -182t-118.5 -192.5t-98.5 -212t-63 -229t-24.5 -253.5v-21q0 -51 -32.5 -84.5t-85.5 -33.5q-57 0 -88 33t-31 85v19q1 152 32 302.5t85.5 280t119.5 238.5t142 205h-537 q-45 0 -77 31.5t-32 76.5z" />
<glyph unicode="8" horiz-adv-x="1191" d="M102 391q0 126 71.5 219t178.5 127q-172 97 -172 295q0 158 112 257.5t304 99.5t304 -99.5t112 -257.5q0 -198 -172 -295q107 -34 178.5 -127t71.5 -219q0 -84 -33 -158.5t-94 -132t-156 -91.5t-211 -34t-211 34t-156 91.5t-94 132t-33 158.5zM342 393q0 -97 68 -159 t186 -62t186 62t68 159q0 101 -67 165.5t-187 64.5t-187 -64.5t-67 -165.5zM416 1010q0 -84 50 -140.5t130 -56.5t130 56.5t50 140.5q0 82 -46.5 133t-133.5 51t-133.5 -51t-46.5 -133z" />
<glyph unicode="9" horiz-adv-x="1144" d="M72 948q0 193 130 317t353 124q239 0 363 -138t124 -372q0 -191 -60.5 -353.5t-164.5 -278.5t-248 -198q-133 -74 -227 -74q-45 0 -70.5 24.5t-25.5 66.5q0 39 27 62.5t96 57.5q328 161 417 443q-99 -107 -290 -107q-187 0 -305.5 123t-118.5 303zM311 952 q0 -100 60.5 -164.5t171.5 -64.5q107 0 172 64t65 165q0 103 -61 167.5t-172 64.5q-108 0 -172 -65.5t-64 -166.5z" />
<glyph unicode=":" horiz-adv-x="524" d="M123 123q0 59 40.5 99t98.5 40t98.5 -40t40.5 -99t-40.5 -99t-98.5 -40t-98.5 40t-40.5 99zM123 643q0 59 40.5 99t98.5 40t98.5 -40t40.5 -99t-40.5 -99t-98.5 -40t-98.5 40t-40.5 99z" />
<glyph unicode=";" horiz-adv-x="524" d="M98 -268q0 17 5 32.5t14 36t14 35.5q27 82 27 203v123q0 46 29 75t75 29q47 0 77 -29t30 -75v-115q0 -188 -70 -319q-39 -76 -104 -76q-40 0 -68.5 24t-28.5 56zM123 643q0 59 40.5 99t98.5 40t98.5 -40t40.5 -99t-40.5 -99t-98.5 -40t-98.5 40t-40.5 99z" />
<glyph unicode="&#x3c;" horiz-adv-x="1085" d="M92 662q0 59 58 90l665 360q36 18 62 18q40 0 68 -25.5t28 -64.5q0 -59 -68 -94l-543 -284l543 -285q68 -35 68 -94q0 -39 -28 -64.5t-68 -25.5q-26 0 -62 18l-665 360q-58 31 -58 91z" />
<glyph unicode="=" horiz-adv-x="1062" d="M143 489q0 38 27.5 64.5t65.5 26.5h591q38 0 65.5 -26.5t27.5 -64.5t-27 -64t-66 -26h-591q-39 0 -66 26t-27 64zM143 834q0 38 27 64t66 26h591q39 0 66 -26t27 -64t-27.5 -64.5t-65.5 -26.5h-591q-38 0 -65.5 26.5t-27.5 64.5z" />
<glyph unicode="&#x3e;" horiz-adv-x="1085" d="M113 283q0 60 67 94l543 285l-543 284q-67 34 -67 94q0 39 28 64.5t68 25.5q25 0 61 -18l666 -360q57 -31 57 -90q0 -60 -57 -91l-666 -360q-36 -18 -61 -18q-40 0 -68 25.5t-28 64.5z" />
<glyph unicode="?" horiz-adv-x="915" d="M51 1184q0 45 27 76t82 61q128 68 289 68q183 0 289 -83t106 -233q0 -82 -37.5 -156t-128.5 -157q-85 -74 -112 -119t-27 -115v-32q0 -48 -33 -81.5t-86 -33.5q-52 0 -85.5 32.5t-33.5 82.5v32q0 109 33.5 173t126.5 151q79 73 110 116t31 93q0 53 -44.5 84t-121.5 31 q-96 0 -207 -60q-4 -2 -18.5 -10t-20 -10.5t-16 -5.5t-20.5 -3q-42 0 -72.5 28t-30.5 71zM283 123q0 59 40.5 99t98.5 40t98.5 -40t40.5 -99t-40.5 -99t-98.5 -40t-98.5 40t-40.5 99z" />
<glyph unicode="@" horiz-adv-x="1421" d="M92 692q0 201 71 357.5t213 248t337 91.5q222 0 338 -111.5t116 -319.5v-524q0 -38 -24.5 -64t-63.5 -26t-64.5 26t-25.5 62v10q-58 -104 -182 -104q-133 0 -213 100.5t-80 249.5q0 151 79.5 250.5t213.5 99.5q56 0 105.5 -28t80.5 -76v47q0 123 -71 191.5t-215 68.5 q-139 0 -241.5 -74.5t-153 -197.5t-50.5 -277q0 -122 40 -227t113.5 -182t185.5 -120.5t249 -43.5q218 0 424 98q16 8 37 8q31 0 47 -19.5t16 -47.5q0 -41 -45 -66q-200 -117 -479 -117q-146 0 -269.5 38t-212.5 104.5t-152 157t-93.5 196t-30.5 221.5zM694 688 q0 -81 39 -134.5t107 -53.5t107.5 55t39.5 133t-39 133.5t-108 55.5q-68 0 -107 -54t-39 -135z" />
<glyph unicode="A" horiz-adv-x="1269" d="M51 96q0 22 10 45l463 1164q30 75 111 75q80 0 110 -75l463 -1164q11 -26 11 -45q0 -46 -32 -79t-85 -33q-77 0 -105 71l-92 232h-540l-93 -232q-14 -36 -38 -53.5t-66 -17.5q-53 0 -85 33t-32 79zM442 500h385l-192 512z" />
<glyph unicode="B" horiz-adv-x="1202" d="M143 123v1118q0 51 35.5 87t87.5 36h375q197 0 309.5 -95.5t112.5 -250.5q0 -101 -56 -180t-161 -123q129 -26 210 -110.5t81 -217.5q0 -167 -121.5 -277t-347.5 -110h-402q-51 0 -87 36t-36 87zM389 217h285q102 0 159.5 52.5t57.5 138.5q0 79 -61.5 132.5t-159.5 53.5 h-281v-377zM389 811h248q87 0 132.5 50t45.5 118q0 79 -48 123.5t-130 44.5h-248v-336z" />
<glyph unicode="C" horiz-adv-x="1214" d="M82 682q0 166 48 301t131.5 223t194 135.5t236.5 47.5q134 0 241.5 -51t178.5 -138q33 -39 33 -82q0 -47 -30 -78.5t-79 -31.5q-50 0 -94 47q-105 112 -248 112q-160 0 -263 -133t-103 -352t103 -352t263 -133q143 0 248 112q44 47 94 47q49 0 79 -31.5t30 -78.5 q0 -43 -33 -82q-71 -87 -178.5 -138t-241.5 -51q-126 0 -236.5 47.5t-194 135.5t-131.5 223t-48 301z" />
<glyph unicode="D" horiz-adv-x="1255" d="M143 123v1118q0 51 36 87t87 36h312q278 0 441 -186t163 -496t-163 -496t-441 -186h-310q-52 0 -88.5 36t-36.5 87zM389 225h186q121 0 204 62.5t120 163t37 231.5t-37 231.5t-120 163t-204 62.5h-186v-914z" />
<glyph unicode="E" horiz-adv-x="1097" d="M143 121v1122q0 54 35.5 87.5t87.5 33.5h639q48 0 82.5 -32t34.5 -79t-33.5 -78.5t-81.5 -31.5h-518v-342h297q47 0 81 -31.5t34 -79.5q0 -49 -33.5 -79.5t-81.5 -30.5h-297v-359h533q48 0 81 -31.5t33 -78.5t-33 -79t-81 -32h-654q-53 0 -89 34.5t-36 86.5z" />
<glyph unicode="F" horiz-adv-x="1042" d="M143 106v1135q0 54 35.5 88.5t87.5 34.5h643q48 0 82.5 -33t34.5 -80t-33.5 -79.5t-81.5 -32.5h-522v-336h301q47 0 81 -32.5t34 -80.5q0 -49 -33.5 -80.5t-81.5 -31.5h-301v-472q0 -51 -35.5 -86.5t-87.5 -35.5q-51 0 -87 35t-36 87z" />
<glyph unicode="G" horiz-adv-x="1290" d="M82 682q0 168 47.5 304t130 223t191.5 133.5t235 46.5q131 0 235 -48.5t173 -132.5q34 -37 34 -82q0 -47 -28 -78.5t-80 -31.5q-26 0 -45.5 11t-48.5 36q-52 48 -106 74t-132 26q-74 0 -138 -30t-114 -88t-79 -151.5t-29 -211.5q0 -236 95.5 -367t281.5 -131 q129 0 239 74v231h-196q-46 0 -79.5 32t-33.5 77q0 47 33.5 80t79.5 33h311q54 0 88.5 -35.5t34.5 -87.5v-359q0 -47 -35 -79q-78 -76 -191.5 -125.5t-255.5 -49.5q-198 0 -339 91t-210 249t-69 367z" />
<glyph unicode="H" horiz-adv-x="1316" d="M143 106v1151q0 52 36 87.5t87 35.5q52 0 87.5 -36t35.5 -87v-446h539v446q0 51 35.5 87t87.5 36q51 0 87 -35.5t36 -87.5v-1151q0 -52 -35 -87t-88 -35q-54 0 -88.5 34.5t-34.5 87.5v480h-539v-480q0 -53 -34.5 -87.5t-88.5 -34.5q-53 0 -88 35t-35 87z" />
<glyph unicode="I" horiz-adv-x="552" d="M154 106v1151q0 52 35.5 87.5t86.5 35.5q52 0 87.5 -36t35.5 -87v-1151q0 -53 -34.5 -87.5t-88.5 -34.5q-53 0 -87.5 35t-34.5 87z" />
<glyph unicode="J" horiz-adv-x="1079" d="M47 354q0 52 30 82.5t81 30.5q85 0 108 -82q25 -95 77 -146t146 -51q211 0 211 275v792q0 57 33 91t90 34q55 0 89 -36t34 -89v-780q0 -107 -27 -196t-81.5 -158t-144.5 -107.5t-208 -38.5q-186 0 -298.5 98t-137.5 251q-2 10 -2 30z" />
<glyph unicode="K" horiz-adv-x="1206" d="M143 106v1149q0 57 34.5 91t88.5 34t88.5 -35.5t34.5 -87.5v-503l506 583q38 43 86 43q49 0 82 -32t33 -78q0 -39 -27 -78l-309 -367l368 -671q17 -31 17 -58q0 -47 -29.5 -79.5t-81.5 -32.5q-72 0 -104 59l-326 600l-215 -240v-294q0 -53 -34 -89t-89 -36 q-57 0 -90 34.5t-33 87.5z" />
<glyph unicode="L" horiz-adv-x="1024" d="M143 123v1132q0 53 34 89t89 36q54 0 88.5 -36.5t34.5 -88.5v-1030h502q47 0 80 -32.5t33 -79.5t-33.5 -80t-79.5 -33h-623q-52 0 -88.5 36t-36.5 87z" />
<glyph unicode="M" horiz-adv-x="1536" d="M143 98v1168q0 52 30.5 83t80.5 31q78 0 108 -75l406 -983l406 983q30 75 108 75q50 0 80.5 -31t30.5 -83v-1168q0 -49 -31 -81.5t-82 -32.5q-50 0 -81.5 33.5t-31.5 80.5v697l-299 -736q-31 -75 -100 -75t-100 75l-299 736v-697q0 -47 -31.5 -80.5t-81.5 -33.5 q-51 0 -82 32.5t-31 81.5z" />
<glyph unicode="N" horiz-adv-x="1310" d="M143 96v1170q0 51 30.5 82.5t86.5 31.5q60 0 92 -51l586 -876v813q0 47 32 80.5t81 33.5t82.5 -33t33.5 -81v-1168q0 -49 -31 -81.5t-83 -32.5q-65 0 -95 47l-585 880v-813q0 -47 -34 -80.5t-81 -33.5t-81 33t-34 79z" />
<glyph unicode="O" horiz-adv-x="1363" d="M82 682q0 199 74.5 360t212 254t313.5 93t313.5 -93t212 -254t74.5 -360t-74.5 -360t-212 -254t-313.5 -93t-313.5 93t-212 254t-74.5 360zM328 682q0 -96 21.5 -181.5t63.5 -154.5t111.5 -109t157.5 -40t157.5 40t111.5 109t63.5 154.5t21.5 181.5t-21.5 181.5 t-63.5 154.5t-111.5 109t-157.5 40t-157.5 -40t-111.5 -109t-63.5 -154.5t-21.5 -181.5z" />
<glyph unicode="P" horiz-adv-x="1173" d="M143 106v1135q0 51 35.5 87t87.5 36h387q126 0 223.5 -34t155.5 -93.5t87.5 -134t29.5 -160.5q0 -187 -124 -300.5t-372 -113.5h-264v-422q0 -52 -34 -87t-89 -35t-89 34.5t-34 87.5zM389 748h303q99 0 154 55.5t55 138.5q0 84 -54.5 140.5t-152.5 56.5h-305v-391z" />
<glyph unicode="Q" horiz-adv-x="1363" d="M82 682q0 199 74.5 360t212 254t313.5 93t313.5 -93t212 -254t74.5 -360q0 -188 -65 -341t-185 -247l88 -184q10 -20 10 -43q0 -38 -28.5 -66t-71.5 -28q-58 0 -84 53l-84 176q-80 -27 -180 -27q-176 0 -313.5 93t-212 254t-74.5 360zM328 682q0 -96 21.5 -181.5 t63.5 -154.5t111.5 -109t157.5 -40q46 0 84 10l-80 168q-10 23 -10 41q0 46 28.5 72t71.5 26q59 0 84 -55l70 -148q106 128 106 371q0 96 -21.5 181.5t-63.5 154.5t-111.5 109t-157.5 40t-157.5 -40t-111.5 -109t-63.5 -154.5t-21.5 -181.5z" />
<glyph unicode="R" horiz-adv-x="1257" d="M143 106v1135q0 51 35.5 87t87.5 36h418q126 0 223.5 -34t155.5 -93.5t87.5 -134t29.5 -160.5q0 -130 -61 -226.5t-185 -144.5l215 -411q16 -32 16 -58q0 -47 -36 -82.5t-87 -35.5q-47 0 -70 14.5t-42 48.5l-252 485h-289v-426q0 -52 -34 -87t-89 -35t-89 34.5t-34 87.5z M389 745h334q99 0 154 56.5t55 140.5t-54.5 140.5t-152.5 56.5h-336v-394z" />
<glyph unicode="S" horiz-adv-x="1101" d="M82 256q0 47 27.5 76.5t70.5 29.5q39 0 82 -40q76 -69 143 -102.5t164 -33.5q112 0 165.5 47.5t53.5 120.5q0 76 -61 129t-201 103q-124 45 -210 93.5t-134.5 103t-69 111t-20.5 124.5q0 174 124 272.5t341 98.5q143 0 262 -52q185 -80 185 -168q0 -44 -26 -77t-75 -33 q-13 0 -26.5 4t-21.5 8.5t-23.5 13.5t-22.5 13q-148 80 -256 80q-116 0 -165.5 -41.5t-49.5 -118.5q0 -67 50.5 -112.5t197.5 -102.5q68 -27 116.5 -48t98.5 -47t83.5 -51t64 -56t48 -65.5t27.5 -77.5t10 -93q0 -175 -127.5 -282.5t-341.5 -107.5q-255 0 -418 156 q-65 65 -65 125z" />
<glyph unicode="T" horiz-adv-x="1081" d="M6 1251q0 47 34.5 80t82.5 33h835q48 0 82.5 -33t34.5 -80t-33.5 -79.5t-80.5 -32.5h-297v-1033q0 -53 -34.5 -87.5t-88.5 -34.5q-53 0 -88 35t-35 87v1033h-297q-48 0 -81.5 32.5t-33.5 79.5z" />
<glyph unicode="U" horiz-adv-x="1339" d="M143 520v735q0 56 35.5 90.5t87.5 34.5q53 0 88 -35.5t35 -89.5v-768q0 -137 72 -213.5t209 -76.5t208.5 76.5t71.5 213.5v768q0 56 35.5 90.5t87.5 34.5q53 0 88 -35.5t35 -89.5v-735q0 -248 -137 -396.5t-389 -148.5t-389.5 148.5t-137.5 396.5z" />
<glyph unicode="V" horiz-adv-x="1122" d="M25 1264q0 54 31.5 85t82.5 31q44 0 71 -20t44 -66l307 -907l307 907q31 86 115 86q52 0 83.5 -31.5t31.5 -84.5q0 -13 -8 -41l-420 -1166q-25 -73 -109 -73q-83 0 -108 73l-420 1166q-8 28 -8 41z" />
<glyph unicode="W" horiz-adv-x="1732" d="M31 1266q0 51 30.5 82.5t83.5 31.5q84 0 109 -82l252 -874l250 870q26 86 110 86q85 0 111 -86l250 -870l252 874q25 82 108 82q53 0 84 -32t31 -82q0 -12 -6 -33l-361 -1170q-23 -79 -112 -79q-86 0 -109 79l-248 895l-248 -895q-23 -79 -108 -79q-90 0 -113 79 l-360 1170q-6 21 -6 33z" />
<glyph unicode="X" horiz-adv-x="1208" d="M90 96q0 39 21 66l356 522l-354 518q-21 35 -21 66q0 47 30.5 79.5t84.5 32.5q59 0 96 -55l301 -459l301 459q37 55 96 55q54 0 84.5 -32.5t30.5 -79.5q0 -33 -20 -66l-355 -518l357 -522q20 -26 20 -66q0 -45 -33 -78.5t-81 -33.5q-59 0 -97 53l-303 463l-303 -463 q-38 -53 -96 -53q-49 0 -82 33.5t-33 78.5z" />
<glyph unicode="Y" horiz-adv-x="1060" d="M12 1266q0 50 33 82t84 32q67 0 98 -57l303 -549l304 549q31 57 98 57q51 0 84 -32t33 -82q0 -32 -19 -64l-377 -639v-457q0 -52 -35 -87t-88 -35t-87.5 35t-34.5 87v457l-377 639q-19 32 -19 64z" />
<glyph unicode="Z" horiz-adv-x="1138" d="M113 109q0 29 20 67l594 971h-500q-46 0 -79 31.5t-33 76.5t33 77t79 32h701q48 0 80 -29t32 -78q0 -32 -20 -65l-596 -975h510q48 0 80.5 -29.5t32.5 -78.5q0 -50 -32 -79.5t-81 -29.5h-707q-48 0 -81 31t-33 78z" />
<glyph unicode="[" horiz-adv-x="714" d="M164 -186v1472q0 49 34.5 84t80.5 35h262q42 0 72 -30t30 -72t-30 -72.5t-72 -30.5h-140v-1300h140q42 0 72 -30.5t30 -72.5t-30 -72t-72 -30h-262q-46 0 -80.5 35t-34.5 84z" />
<glyph unicode="\" horiz-adv-x="894" d="M113 1350q0 41 31 72.5t77 31.5q81 0 105 -82l438 -1495q8 -20 8 -39q0 -41 -28.5 -72.5t-75.5 -31.5q-83 0 -107 86l-442 1495q-6 18 -6 35z" />
<glyph unicode="]" horiz-adv-x="714" d="M72 -203q0 42 30 72.5t72 30.5h139v1300h-139q-42 0 -72 30.5t-30 72.5t30 72t72 30h262q46 0 80.5 -35t34.5 -84v-1472q0 -49 -34.5 -84t-80.5 -35h-262q-42 0 -72 30t-30 72z" />
<glyph unicode="^" horiz-adv-x="954" d="M109 780q0 25 16 54l268 497q27 49 84 49t84 -49l268 -497q17 -31 17 -54q0 -39 -24.5 -64.5t-67.5 -25.5q-60 0 -90 58l-187 370l-186 -370q-30 -58 -90 -58q-43 0 -67.5 25.5t-24.5 64.5z" />
<glyph unicode="_" horiz-adv-x="839" d="M-2 -25h844v-88h-844v88z" />
<glyph unicode="`" horiz-adv-x="641" d="M133 1262q0 40 27 67t67 27q50 0 78 -39l107 -141q24 -31 24 -62q0 -38 -29 -67t-69 -29q-48 0 -78 41l-104 145q-23 30 -23 58z" />
<glyph unicode="a" horiz-adv-x="999" d="M92 250q0 129 88.5 199.5t229.5 70.5q71 0 132 -24.5t93 -61.5v80q0 95 -46 145t-149 50q-66 0 -127 -21q-66 -24 -104 -24q-42 0 -70 26t-28 66q0 80 129 125q95 32 221 32q199 0 307.5 -100t108.5 -289v-418q0 -54 -30.5 -88t-86.5 -34q-54 0 -86.5 32.5t-32.5 83.5v2 q-34 -63 -99 -95t-145 -32q-139 0 -222 76.5t-83 198.5zM326 250q0 -51 41 -79t108 -28q68 0 114 30t46 77q0 49 -48 77.5t-112 28.5q-66 0 -107.5 -28.5t-41.5 -77.5z" />
<glyph unicode="b" horiz-adv-x="1079" d="M133 104v1156q0 50 34.5 85t86.5 35t86.5 -35t34.5 -85v-488q34 60 101.5 100.5t146.5 40.5q119 0 208 -66t133 -171.5t44 -231.5t-44 -231.5t-133 -171.5t-208 -66q-87 0 -155 42t-101 110v-27q0 -48 -33 -82t-84 -34q-53 0 -85 34.5t-32 85.5zM375 444 q0 -112 51.5 -188t142.5 -76q93 0 146 73.5t53 190.5t-53 191t-146 74q-91 0 -142.5 -76.5t-51.5 -188.5z" />
<glyph unicode="c" horiz-adv-x="911" d="M72 444q0 127 51 232.5t153 171t238 65.5q93 0 175 -38.5t132 -110.5q33 -50 33 -90q0 -42 -29.5 -68t-70.5 -26q-55 0 -82 43q-61 92 -156 92q-66 0 -114.5 -40t-70.5 -100t-22 -131t22 -131t70.5 -99.5t114.5 -39.5q95 0 156 92q27 43 82 43q41 0 70.5 -26t29.5 -68 q0 -41 -33 -90q-50 -72 -132 -111t-175 -39q-136 0 -238 65.5t-153 171t-51 232.5z" />
<glyph unicode="d" horiz-adv-x="1079" d="M72 444q0 126 44 231.5t133 171.5t208 66q79 0 146.5 -40.5t101.5 -100.5v488q0 50 34 85t86 35t86.5 -35t34.5 -85v-1156q0 -51 -32 -85.5t-85 -34.5q-51 0 -83.5 33.5t-32.5 82.5v27q-33 -68 -101 -110t-155 -42q-119 0 -208 66t-133 171.5t-44 231.5zM311 444 q0 -117 53 -190.5t146 -73.5q91 0 143 76.5t52 187.5q0 112 -52 188.5t-143 76.5q-93 0 -146 -74t-53 -191z" />
<glyph unicode="e" horiz-adv-x="954" d="M72 444q0 201 120 335t312 134q181 0 287 -132.5t106 -336.5q0 -35 -22 -58.5t-68 -23.5h-485q3 -81 54 -139.5t144 -58.5q99 0 170 61q18 15 28.5 22.5t27 14t34.5 6.5q42 0 67 -25t25 -61q0 -54 -67 -110q-121 -97 -293 -97q-107 0 -192 37.5t-138.5 102t-81.5 148.5 t-28 181zM324 537h346q-9 84 -53.5 136t-114.5 52q-71 0 -116.5 -52.5t-61.5 -135.5z" />
<glyph unicode="f" horiz-adv-x="651" d="M6 788q0 42 31 71.5t74 29.5h67v127q0 75 18.5 136t58 109.5t106.5 75.5t157 27h23q51 0 80.5 -28.5t29.5 -73.5q0 -46 -29 -75.5t-79 -29.5h-11q-60 0 -86 -31t-26 -96v-141h129q43 0 72.5 -29t29.5 -72t-29.5 -71.5t-72.5 -28.5h-129v-584q0 -50 -34 -85t-87 -35 t-87 35t-34 85v584h-67q-43 0 -74 29t-31 71z" />
<glyph unicode="g" horiz-adv-x="1079" d="M72 459q0 194 103.5 324t281.5 130q87 0 155 -41.5t101 -109.5v26q0 49 32.5 83t83.5 34q56 0 86.5 -34.5t30.5 -86.5v-747q0 -208 -110.5 -322t-341.5 -114q-167 0 -299 71q-66 35 -66 99q0 40 26.5 64t65.5 24q31 0 98 -29q83 -39 173 -39q118 0 165.5 54.5t47.5 166.5 v127q-33 -59 -100.5 -97t-147.5 -38q-119 0 -208 62.5t-133 164.5t-44 228zM311 459q0 -113 53 -181.5t146 -68.5q88 0 141.5 73.5t53.5 176.5t-53.5 176.5t-141.5 73.5q-93 0 -146 -68.5t-53 -181.5z" />
<glyph unicode="h" d="M133 104v1156q0 50 34.5 85t86.5 35t86.5 -35t34.5 -85v-488q32 64 96.5 102.5t149.5 38.5q162 0 247.5 -112.5t85.5 -300.5v-396q0 -50 -34 -85t-86 -35t-86.5 35t-34.5 85v396q0 89 -41.5 142.5t-120.5 53.5q-89 0 -132.5 -62.5t-43.5 -162.5v-367q0 -50 -34.5 -85 t-86.5 -35t-86.5 35t-34.5 85z" />
<glyph unicode="i" horiz-adv-x="507" d="M119 1161q0 57 39 96t96 39t96 -39t39 -96t-39 -96t-96 -39t-96 39t-39 96zM133 104v680q0 50 34.5 85.5t86.5 35.5t86.5 -35.5t34.5 -85.5v-680q0 -50 -34.5 -85t-86.5 -35t-86.5 35t-34.5 85z" />
<glyph unicode="j" horiz-adv-x="507" d="M-55 -295q0 45 29 72.5t73 27.5h4q43 0 62.5 19.5t19.5 60.5v899q0 51 34 86t87 35t87 -35t34 -86v-884q0 -299 -297 -299h-31q-43 0 -72.5 29.5t-29.5 74.5zM119 1161q0 57 39 96t96 39t96 -39t39 -96t-39 -96t-96 -39t-96 39t-39 96z" />
<glyph unicode="k" horiz-adv-x="958" d="M133 104v1156q0 50 34 85t87 35t87 -35t34 -85v-676l323 293q36 28 76 28q53 0 83 -32.5t30 -79.5q0 -44 -43 -78l-215 -195l254 -360q20 -30 20 -66q0 -50 -31.5 -80t-83.5 -30t-88 49l-235 342l-90 -82v-189q0 -50 -34.5 -85t-86.5 -35t-86.5 35t-34.5 85z" />
<glyph unicode="l" horiz-adv-x="507" d="M133 104v1156q0 50 34.5 85t86.5 35t86.5 -35t34.5 -85v-1156q0 -50 -34.5 -85t-86.5 -35t-86.5 35t-34.5 85z" />
<glyph unicode="m" horiz-adv-x="1656" d="M133 104v680q0 54 34.5 87.5t86.5 33.5q54 0 87.5 -33.5t33.5 -87.5v-12q32 64 96.5 102.5t149.5 38.5q95 0 165 -41.5t109 -117.5q44 74 123.5 116.5t181.5 42.5q162 0 248 -112.5t86 -300.5v-396q0 -50 -34.5 -85t-86.5 -35t-86.5 35t-34.5 85v396q0 89 -41.5 142.5 t-120.5 53.5q-89 0 -132.5 -62.5t-43.5 -162.5v-367q0 -50 -34 -85t-86 -35t-86.5 35t-34.5 85v396q0 89 -41.5 142.5t-120.5 53.5q-89 0 -132.5 -62.5t-43.5 -162.5v-367q0 -50 -34.5 -85t-86.5 -35t-86.5 35t-34.5 85z" />
<glyph unicode="n" d="M133 104v680q0 54 34.5 87.5t86.5 33.5q54 0 87.5 -33.5t33.5 -87.5v-12q32 64 96.5 102.5t149.5 38.5q162 0 247.5 -112.5t85.5 -300.5v-396q0 -50 -34 -85t-86 -35t-86.5 35t-34.5 85v396q0 89 -41.5 142.5t-120.5 53.5q-89 0 -132.5 -62.5t-43.5 -162.5v-367 q0 -50 -34.5 -85t-86.5 -35t-86.5 35t-34.5 85z" />
<glyph unicode="o" horiz-adv-x="1021" d="M72 444q0 94 31 179.5t86.5 149.5t138.5 102t182 38q131 0 232.5 -65t154.5 -171t53 -233t-53 -233t-154.5 -171t-232.5 -65q-99 0 -182 38t-138.5 102t-86.5 149.5t-31 179.5zM309 444q0 -112 53 -188t148 -76t148 76t53 188t-53 188.5t-148 76.5t-148 -76.5t-53 -188.5 z" />
<glyph unicode="p" horiz-adv-x="1079" d="M133 -279v1063q0 51 32 86t85 35q52 0 84.5 -34t32.5 -83v-26q33 68 101 109.5t155 41.5q119 0 208 -66t133 -171.5t44 -231.5t-44 -231.5t-133 -171.5t-208 -66q-78 0 -146 41t-102 101v-396q0 -50 -34.5 -85t-86.5 -35t-86.5 35t-34.5 85zM375 444q0 -112 51.5 -188 t142.5 -76q93 0 146 73.5t53 190.5t-53 191t-146 74q-91 0 -142.5 -76.5t-51.5 -188.5z" />
<glyph unicode="q" horiz-adv-x="1079" d="M72 444q0 126 44 231.5t133 171.5t208 66q87 0 155 -41.5t101 -109.5v26q0 49 32.5 83t83.5 34q56 0 86.5 -34.5t30.5 -86.5v-1063q0 -50 -34.5 -85t-86.5 -35t-86 35t-34 85v396q-34 -60 -102 -101t-146 -41q-119 0 -208 66t-133 171.5t-44 231.5zM311 444 q0 -117 53 -190.5t146 -73.5q91 0 143 76.5t52 187.5q0 112 -52 188.5t-143 76.5q-93 0 -146 -74t-53 -191z" />
<glyph unicode="r" horiz-adv-x="669" d="M133 104v680q0 53 33 87t88 34q56 0 88.5 -34.5t32.5 -86.5v-30q42 155 182 155q52 0 80.5 -30t28.5 -80q0 -51 -29 -82t-80 -31q-182 0 -182 -244v-338q0 -50 -34.5 -85t-86.5 -35q-51 0 -86 35t-35 85z" />
<glyph unicode="s" horiz-adv-x="849" d="M80 176q0 37 26 60.5t64 23.5q34 0 86 -35q28 -19 47 -30.5t56 -23t77 -11.5q53 0 85 20t32 53q0 38 -34 61t-113 46q-178 51 -252 122t-74 191q0 86 50 146.5t126.5 87t171.5 26.5q119 0 223 -49q113 -56 113 -127q0 -42 -24 -66t-68 -24q-28 0 -84 27q-92 45 -166 45 q-52 0 -82.5 -17.5t-30.5 -50.5q0 -35 33.5 -57t122.5 -49q170 -50 243.5 -112.5t73.5 -178.5q0 -126 -93.5 -202.5t-266.5 -76.5q-176 0 -295 101q-47 38 -47 100z" />
<glyph unicode="t" horiz-adv-x="671" d="M4 788q0 42 31 71.5t74 29.5h100v244q0 50 34 85t87 35t87 -35t34 -85v-244h129q43 0 72.5 -29t29.5 -72t-29.5 -71.5t-72.5 -28.5h-129v-584q0 -50 -34 -85t-87 -35t-87 35t-34 85v584h-100q-43 0 -74 29t-31 71z" />
<glyph unicode="u" d="M123 389v395q0 50 34.5 85.5t86.5 35.5t86.5 -35.5t34.5 -85.5v-395q0 -90 41 -143t120 -53q89 0 132.5 62.5t43.5 162.5v366q0 50 34.5 85.5t86.5 35.5t86.5 -35.5t34.5 -85.5v-680q0 -54 -34.5 -87t-86.5 -33q-54 0 -87.5 33t-33.5 87v13q-32 -64 -96 -103t-149 -39 q-162 0 -248 113t-86 301z" />
<glyph unicode="v" horiz-adv-x="856" d="M27 797q0 49 31 78.5t79 29.5q77 0 103 -67l188 -519l188 519q26 67 103 67q48 0 79 -29.5t31 -78.5q0 -22 -10 -45l-291 -701q-28 -67 -100 -67t-100 67l-291 701q-10 23 -10 45z" />
<glyph unicode="w" horiz-adv-x="1269" d="M37 801q0 50 31.5 77t78.5 27q38 0 63.5 -20.5t39.5 -71.5l125 -448l164 471q25 69 96 69t96 -69l164 -471l125 448q14 51 39 71.5t63 20.5q47 0 79 -27t32 -77q0 -16 -6 -37l-221 -709q-23 -71 -103 -71q-75 0 -100 73l-168 484l-168 -484q-25 -73 -100 -73 q-80 0 -103 71l-221 709q-6 21 -6 37z" />
<glyph unicode="x" horiz-adv-x="905" d="M68 90q0 38 22 66l232 290l-226 287q-24 35 -24 66q0 46 30.5 76t79.5 30q50 0 80 -41l191 -262l190 262q30 41 80 41q49 0 80 -30t31 -76q0 -30 -25 -66l-225 -287l231 -290q23 -29 23 -66q0 -44 -31.5 -75t-77.5 -31q-54 0 -84 41l-192 264l-193 -264q-30 -41 -84 -41 q-46 0 -77 31t-31 75z" />
<glyph unicode="y" horiz-adv-x="860" d="M20 799q0 47 31.5 76.5t79.5 29.5q79 0 107 -80l202 -585l176 583q23 82 107 82q51 0 81 -33t30 -79q0 -14 -9 -41q-173 -513 -235 -676q-144 -368 -346 -465q-20 -10 -51 -10q-46 0 -77.5 27.5t-31.5 68.5q0 20 10 38.5t20 29t33 30.5q60 53 97.5 102.5t64.5 116.5 l-280 744q-9 32 -9 41z" />
<glyph unicode="z" horiz-adv-x="884" d="M76 96q0 37 22 68l404 530h-326q-41 0 -70.5 28t-29.5 71q0 44 29 70t71 26h533q44 0 73 -27.5t29 -70.5q0 -33 -23 -66l-401 -530h332q42 0 71 -27.5t29 -69.5q0 -43 -29.5 -70.5t-70.5 -27.5h-543q-40 0 -70 28.5t-30 67.5z" />
<glyph unicode="{" horiz-adv-x="770" d="M72 543q0 48 31 78t77 30h4q99 0 99 88v437q0 110 55 169.5t156 59.5h120q39 0 67 -27t28 -67t-28 -67t-67 -27h-43q-51 0 -51 -52v-385q0 -106 -58 -170t-169 -67q111 -4 169 -68.5t58 -169.5v-385q0 -51 51 -51h43q39 0 67 -27t28 -67t-28 -67t-67 -27h-120 q-101 0 -156 59.5t-55 169.5v436q0 88 -99 88h-4q-45 0 -76.5 30.5t-31.5 78.5z" />
<glyph unicode="|" horiz-adv-x="536" d="M184 -322v1743q0 35 24.5 59.5t59.5 24.5t59.5 -24.5t24.5 -59.5v-1743q0 -35 -24.5 -59.5t-59.5 -24.5t-59.5 24.5t-24.5 59.5z" />
<glyph unicode="}" horiz-adv-x="770" d="M61 -225q0 40 28 67t67 27h43q51 0 51 51v385q0 105 58 169.5t169 68.5q-111 3 -169 67t-58 170v385q0 52 -51 52h-43q-39 0 -67 27t-28 67t28 67t67 27h120q101 0 156 -59.5t55 -169.5v-437q0 -88 99 -88h4q46 0 77 -30t31 -78t-31.5 -78.5t-76.5 -30.5h-4 q-99 0 -99 -88v-436q0 -110 -55 -169.5t-156 -59.5h-120q-39 0 -67 27t-28 67z" />
<glyph unicode="~" horiz-adv-x="993" d="M92 479q0 21 6 39q67 182 234 182q36 0 77 -11.5t63 -22t69 -33.5q11 -5 32.5 -16t32 -16t25.5 -11.5t26 -9t21 -2.5q8 0 14.5 1.5t11 3t9.5 6.5t7.5 6.5t7 9.5t5.5 9.5t6 11.5t6 11q16 30 33.5 42.5t52.5 12.5q40 0 65.5 -25t25.5 -65q0 -14 -9 -41q-73 -174 -227 -174 q-13 0 -25 1.5t-21 2.5t-22 5.5t-19.5 6.5t-22 9t-20.5 9.5t-23.5 12t-24.5 12.5t-27.5 13.5t-28 13.5t-23.5 11t-25.5 10.5t-21 6.5t-22.5 5.5t-20 1.5q-24 0 -39.5 -10.5t-34.5 -46.5q-15 -30 -33 -46t-53 -16q-38 0 -63 25t-25 65z" />
<glyph unicode="&#xa1;" horiz-adv-x="565" d="M143 774q0 58 40.5 98.5t99.5 40.5t99 -40.5t40 -98.5t-40 -98.5t-99 -40.5t-99.5 40.5t-40.5 98.5zM162 117l63 350q10 55 58 55q47 0 57 -55l63 -350v-396q0 -52 -35 -86t-85 -34t-85.5 34t-35.5 86v396z" />
<glyph unicode="&#xa2;" horiz-adv-x="1001" d="M113 682q0 170 92.5 299t253.5 160v157q0 35 25.5 60.5t62.5 25.5t62.5 -25.5t25.5 -60.5v-155q146 -26 227 -142q33 -50 33 -90q0 -42 -29.5 -68t-70.5 -26q-55 0 -82 43q-61 92 -156 92q-66 0 -114.5 -39.5t-70.5 -99.5t-22 -131t22 -131t70.5 -99.5t114.5 -39.5 q95 0 156 92q27 43 82 43q41 0 70.5 -26t29.5 -68q0 -41 -33 -91q-77 -113 -227 -143v-153q0 -35 -25.5 -60.5t-62.5 -25.5t-62.5 25.5t-25.5 60.5v155q-161 33 -253.5 161.5t-92.5 299.5z" />
<glyph unicode="&#xa3;" horiz-adv-x="1273" d="M113 98q0 45 30 72t74 27h189v399h-187q-44 0 -74 27.5t-30 70.5t30 71t74 28h187v165q0 431 434 431q122 0 239 -52q103 -47 103 -125q0 -42 -26.5 -70t-76.5 -28q-30 0 -55 14q-86 48 -180 48q-100 0 -148.5 -47.5t-48.5 -151.5v-184h344q44 0 74.5 -28t30.5 -71 t-30.5 -70.5t-74.5 -27.5h-344v-399h395q44 0 74.5 -27t30.5 -72q0 -43 -30.5 -70.5t-74.5 -27.5h-825q-44 0 -74 27.5t-30 70.5z" />
<glyph unicode="&#xa4;" horiz-adv-x="1251" d="M133 236q0 37 27 61l123 121q-68 117 -68 264q0 145 68 262l-123 123q-27 27 -27 61q0 35 25.5 62t62.5 27q35 0 62 -27l116 -119q101 66 226 66q124 0 225 -66l119 119q27 27 61 27q37 0 62.5 -27t25.5 -62t-26 -61l-123 -123q65 -112 65 -262q0 -152 -65 -264l118 -117 q31 -28 31 -65q0 -35 -25.5 -62t-62.5 -27q-34 0 -61 27l-119 119q-97 -66 -225 -66q-129 0 -226 66l-116 -119q-27 -27 -62 -27q-37 0 -62.5 27t-25.5 62zM416 682q0 -117 56 -195.5t153 -78.5t153 78.5t56 195.5q0 115 -56.5 194.5t-152.5 79.5t-152.5 -79.5t-56.5 -194.5 z" />
<glyph unicode="&#xa5;" horiz-adv-x="1146" d="M76 1266q0 50 33 82t84 32q67 0 98 -57l282 -549l283 549q31 57 98 57q51 0 84 -32t33 -82q0 -34 -18 -64l-250 -444h143q31 0 52.5 -21.5t21.5 -52.5t-21.5 -52.5t-52.5 -21.5h-225l-27 -47v-88h252q31 0 52.5 -21.5t21.5 -52.5t-21.5 -52t-52.5 -21h-252v-222 q0 -52 -34 -87t-87 -35t-86.5 35t-33.5 87v222h-252q-31 0 -52.5 21t-21.5 52t21.5 52.5t52.5 21.5h252v88l-27 47h-225q-31 0 -52.5 21.5t-21.5 52.5t21.5 52.5t52.5 21.5h141l-248 444q-18 30 -18 64z" />
<glyph unicode="&#xa6;" horiz-adv-x="536" d="M184 -322v662q0 35 24.5 59.5t59.5 24.5t59.5 -24.5t24.5 -59.5v-662q0 -35 -24.5 -59.5t-59.5 -24.5t-59.5 24.5t-24.5 59.5zM184 760v661q0 35 24.5 59.5t59.5 24.5t59.5 -24.5t24.5 -59.5v-661q0 -35 -24.5 -59.5t-59.5 -24.5t-59.5 24.5t-24.5 59.5z" />
<glyph unicode="&#xa7;" horiz-adv-x="1187" d="M133 633q0 73 40 135.5t114 103.5q-90 90 -90 218q0 136 114.5 217.5t298.5 81.5q84 0 170 -20t144 -56q90 -58 90 -127q0 -38 -24.5 -65t-69.5 -27q-16 0 -31 4t-23.5 8t-26 14.5t-24.5 14.5q-99 55 -219 55q-67 0 -114.5 -25.5t-47.5 -72.5q0 -55 52.5 -94.5 t209.5 -106.5q75 -32 121.5 -53.5t93 -48t72 -50t46 -54t28.5 -65t8 -79.5q0 -72 -36.5 -138t-110.5 -114q83 -80 83 -205q0 -131 -112 -220t-305 -89q-109 0 -209 32.5t-162 83.5q-59 45 -59 113q0 39 25.5 64.5t64.5 25.5q49 0 106 -47q96 -76 238 -76q76 0 125 29.5 t49 75.5q0 53 -54 89.5t-223 106.5q-207 86 -279.5 160.5t-72.5 200.5zM369 645q0 -50 49.5 -87.5t165.5 -84.5q140 -56 170 -70q30 20 53.5 52.5t23.5 66.5q0 13 -2.5 23.5t-9.5 21t-13 18t-20 17t-23 15t-29.5 15.5t-31.5 15.5t-37.5 17t-39.5 17.5q-50 23 -104 46.5 t-72 31.5q-35 -20 -57.5 -50.5t-22.5 -64.5z" />
<glyph unicode="&#xa8;" horiz-adv-x="827" d="M123 1145q0 47 35 82t82 35t81.5 -35t34.5 -82t-34.5 -82t-81.5 -35t-82 35t-35 82zM471 1145q0 47 35 82t82 35t82 -35t35 -82t-35 -82t-82 -35t-82 35t-35 82z" />
<glyph unicode="&#xa9;" horiz-adv-x="1599" d="M92 682q0 195 91.5 357t254.5 256t363 94q150 0 282 -55t224.5 -150t146 -225.5t53.5 -276.5t-53.5 -276.5t-146 -225.5t-224.5 -150t-282 -55q-200 0 -363 94t-254.5 256t-91.5 357zM225 682q0 -254 163 -419t413 -165t411.5 165t161.5 419t-161.5 419t-411.5 165 t-413 -165t-163 -419zM467 682q0 157 99.5 256.5t252.5 99.5q75 0 146.5 -31.5t117.5 -88.5q17 -23 17 -48q0 -24 -16 -39.5t-42 -15.5q-32 0 -59 27q-22 22 -38 34.5t-50 24.5t-76 12q-96 0 -154.5 -64t-58.5 -167t58.5 -167t154.5 -64q42 0 76 12t50 24.5t38 34.5 q27 27 59 27q26 0 42 -15.5t16 -39.5q0 -25 -17 -48q-46 -57 -117.5 -88.5t-146.5 -31.5q-153 0 -252.5 99.5t-99.5 256.5z" />
<glyph unicode="&#xaa;" horiz-adv-x="733" d="M113 952q0 90 55.5 138.5t148.5 48.5q95 0 158 -56v50q0 62 -29.5 90t-103.5 28q-42 0 -89 -13t-60 -13q-29 0 -48.5 18.5t-19.5 46.5q0 29 25.5 50.5t65 31t74 13.5t66.5 4q279 0 279 -252v-287q0 -35 -21 -58.5t-57 -23.5q-34 0 -57 22t-23 56v2q-54 -86 -168 -86 q-90 0 -143 53t-53 137zM266 952q0 -36 27.5 -55.5t73.5 -19.5q44 0 76 20t32 55q0 36 -31.5 56t-76.5 20t-73 -19.5t-28 -56.5z" />
<glyph unicode="&#xab;" horiz-adv-x="1144" d="M82 436q0 41 29 70l284 270q29 29 66 29q39 0 67.5 -28.5t28.5 -67.5q0 -37 -31 -68l-213 -205l213 -205q31 -31 31 -67q0 -39 -28.5 -67.5t-67.5 -28.5q-38 0 -66 28l-284 271q-29 29 -29 69zM557 436q0 41 29 70l284 270q29 29 66 29q39 0 67.5 -28.5t28.5 -67.5 q0 -37 -31 -68l-213 -205l213 -205q31 -31 31 -67q0 -39 -28.5 -67.5t-67.5 -28.5q-38 0 -66 28l-284 271q-29 29 -29 69z" />
<glyph unicode="&#xac;" horiz-adv-x="1198" d="M113 612q0 41 28.5 70t69.5 29h725q42 0 70 -29t28 -70v-352q0 -44 -32 -76t-76 -32t-76.5 32t-32.5 76v254h-606q-41 0 -69.5 29t-28.5 69z" />
<glyph unicode="&#xad;" horiz-adv-x="819" d="M102 518q0 44 32 75.5t75 31.5h401q43 0 75 -31.5t32 -75.5t-32 -75t-75 -31h-401q-43 0 -75 31t-32 75z" />
<glyph unicode="&#xae;" horiz-adv-x="802" d="M61 1047q0 141 94 241.5t248 100.5t246 -100.5t92 -241.5t-92 -239.5t-246 -98.5t-248 98.5t-94 239.5zM137 1047q0 -111 72 -190t194 -79t192.5 78.5t70.5 190.5t-70.5 192t-192.5 80t-194 -80t-72 -192zM291 922v266q0 12 8 20.5t20 8.5h95q59 0 90 -28t31 -73 q0 -66 -54 -88l54 -92q4 -8 4 -18q0 -11 -11 -20t-24 -9q-18 0 -27 18l-61 109h-60v-94q0 -14 -9.5 -23.5t-22.5 -9.5q-14 0 -23.5 9.5t-9.5 23.5zM356 1069h62q51 0 51 47q0 20 -13 33.5t-38 13.5h-62v-94z" />
<glyph unicode="&#xaf;" horiz-adv-x="829" d="M133 1139q0 35 25 58.5t57 23.5h397q32 0 58 -23.5t26 -58.5t-26 -58.5t-58 -23.5h-397q-32 0 -57 23.5t-25 58.5z" />
<glyph unicode="&#xb0;" horiz-adv-x="651" d="M82 1147q0 102 69.5 172t174.5 70q106 0 174.5 -69.5t68.5 -172.5t-68.5 -173.5t-174.5 -70.5q-105 0 -174.5 71t-69.5 173zM209 1147q0 -58 31 -95.5t86 -37.5t85.5 37.5t30.5 95.5q0 55 -30.5 93t-85.5 38t-86 -38t-31 -93z" />
<glyph unicode="&#xb1;" horiz-adv-x="1208" d="M143 94q0 41 28.5 67.5t70.5 26.5h725q40 0 69 -27.5t29 -66.5t-29 -66.5t-69 -27.5h-725q-41 0 -70 27t-29 67zM143 702q0 41 29 70t70 29h254v213q0 44 32 76t76 32t76.5 -32t32.5 -76v-213h254q40 0 69 -29.5t29 -69.5t-29 -69t-69 -29h-254v-213q0 -44 -32.5 -76 t-76.5 -32t-76 32t-32 76v213h-254q-41 0 -70 29t-29 69z" />
<glyph unicode="&#xb2;" horiz-adv-x="532" d="M127 608q0 59 40.5 99.5t98.5 40.5t99 -41t41 -99t-40.5 -98.5t-99.5 -40.5q-58 0 -98.5 40.5t-40.5 98.5z" />
<glyph unicode="&#xb3;" horiz-adv-x="532" d="M127 608q0 59 40.5 99.5t98.5 40.5t99 -41t41 -99t-40.5 -98.5t-99.5 -40.5q-58 0 -98.5 40.5t-40.5 98.5z" />
<glyph unicode="&#xb4;" horiz-adv-x="641" d="M205 1114q0 31 24 62l107 141q28 39 78 39q40 0 67 -27t27 -67q0 -28 -23 -58l-104 -145q-30 -41 -78 -41q-40 0 -69 29t-29 67z" />
<glyph unicode="&#xb5;" d="M123 -279v1063q0 50 34.5 85.5t86.5 35.5t86.5 -35.5t34.5 -85.5v-395q0 -90 41 -143t120 -53q89 0 132.5 62.5t43.5 162.5v366q0 50 34.5 85.5t86.5 35.5t86.5 -35.5t34.5 -85.5v-680q0 -54 -34.5 -87t-86.5 -33q-54 0 -87.5 33t-33.5 87v13q-32 -64 -96 -103t-149 -39 q-41 0 -92 15v-269q0 -50 -34.5 -85t-86.5 -35t-86.5 35t-34.5 85z" />
<glyph unicode="&#xb6;" horiz-adv-x="1071" d="M82 987q0 157 110 267t265 110h381q35 0 57.5 -21.5t22.5 -58.5v-1221q0 -33 -23.5 -56t-56.5 -23t-56.5 23t-23.5 56v1156h-142v-1538q0 -34 -22 -57t-57 -23q-36 0 -58 23t-22 57v931q-155 0 -265 110t-110 265z" />
<glyph unicode="&#xb7;" horiz-adv-x="532" d="M127 608q0 59 40.5 99.5t98.5 40.5t99 -41t41 -99t-40.5 -98.5t-99.5 -40.5q-58 0 -98.5 40.5t-40.5 98.5z" />
<glyph unicode="&#xb8;" horiz-adv-x="645" d="M123 -317q0 47 51 47q15 0 33 -6q61 -21 98 -21q42 0 65 16t23 43q0 54 -69 54q-21 0 -53.5 -8.5t-49.5 -8.5q-23 0 -36 11.5t-13 27.5q0 7 6 25l49 137h95l-37 -111q36 15 86 15q67 0 109 -36.5t42 -100.5q0 -74 -57.5 -120t-163.5 -46q-65 0 -121.5 20.5t-56.5 61.5z " />
<glyph unicode="&#xb9;" horiz-adv-x="532" d="M127 608q0 59 40.5 99.5t98.5 40.5t99 -41t41 -99t-40.5 -98.5t-99.5 -40.5q-58 0 -98.5 40.5t-40.5 98.5z" />
<glyph unicode="&#xba;" horiz-adv-x="749" d="M82 1075q0 131 82 222.5t211 91.5t211 -91t82 -223q0 -131 -82 -222t-211 -91t-211 91t-82 222zM242 1075q0 -71 35.5 -121.5t97.5 -50.5t97.5 50.5t35.5 121.5t-35.5 121.5t-97.5 50.5t-97.5 -50.5t-35.5 -121.5z" />
<glyph unicode="&#xbb;" horiz-adv-x="1144" d="M113 164q0 37 30 67l213 205l-213 205q-30 30 -30 68q0 39 28.5 67.5t67.5 28.5q36 0 65 -29l285 -270q29 -29 29 -70q0 -40 -29 -69l-285 -271q-28 -28 -65 -28q-39 0 -67.5 28.5t-28.5 67.5zM588 164q0 37 30 67l213 205l-213 205q-30 30 -30 68q0 39 28.5 67.5 t67.5 28.5q37 0 66 -29l284 -270q29 -29 29 -70q0 -40 -29 -69l-284 -271q-28 -28 -66 -28q-39 0 -67.5 28.5t-28.5 67.5z" />
<glyph unicode="&#xbc;" horiz-adv-x="532" d="M127 608q0 59 40.5 99.5t98.5 40.5t99 -41t41 -99t-40.5 -98.5t-99.5 -40.5q-58 0 -98.5 40.5t-40.5 98.5z" />
<glyph unicode="&#xbd;" horiz-adv-x="532" d="M127 608q0 59 40.5 99.5t98.5 40.5t99 -41t41 -99t-40.5 -98.5t-99.5 -40.5q-58 0 -98.5 40.5t-40.5 98.5z" />
<glyph unicode="&#xbe;" horiz-adv-x="532" d="M127 608q0 59 40.5 99.5t98.5 40.5t99 -41t41 -99t-40.5 -98.5t-99.5 -40.5q-58 0 -98.5 40.5t-40.5 98.5z" />
<glyph unicode="&#xbf;" horiz-adv-x="921" d="M72 -84q0 67 38.5 131t131.5 146q94 83 119.5 121t25.5 108v12q0 48 33 81.5t86 33.5q52 0 85.5 -32.5t33.5 -82.5v-12q0 -102 -35.5 -166t-130.5 -150q-14 -12 -37.5 -32.5t-33.5 -29.5t-25.5 -24.5t-22 -24.5t-14.5 -22t-10.5 -25t-2.5 -26q0 -53 44.5 -84t121.5 -31 q96 0 207 60q5 3 18 10t19 10t17 6t22 3q45 0 73.5 -25.5t28.5 -65.5q0 -45 -26.5 -76t-81.5 -61q-126 -67 -289 -67q-176 0 -285.5 83t-109.5 232zM365 774q0 58 40.5 98.5t98.5 40.5t98.5 -40.5t40.5 -98.5t-40.5 -98.5t-98.5 -40.5t-98.5 40.5t-40.5 98.5z" />
<glyph unicode="&#xc0;" horiz-adv-x="1269" d="M51 96q0 22 10 45l463 1164q30 75 111 75q80 0 110 -75l463 -1164q11 -26 11 -45q0 -46 -32 -79t-85 -33q-77 0 -105 71l-92 232h-540l-93 -232q-14 -36 -38 -53.5t-66 -17.5q-53 0 -85 33t-32 79zM440 1683q0 40 27.5 67.5t67.5 27.5q49 0 77 -39l84 -109q25 -32 25 -61 q0 -38 -29 -67t-69 -29q-49 0 -78 40l-82 113q-23 30 -23 57zM442 500h385l-192 512z" />
<glyph unicode="&#xc1;" horiz-adv-x="1269" d="M51 96q0 22 10 45l463 1164q30 75 111 75q80 0 110 -75l463 -1164q11 -26 11 -45q0 -46 -32 -79t-85 -33q-77 0 -105 71l-92 232h-540l-93 -232q-14 -36 -38 -53.5t-66 -17.5q-53 0 -85 33t-32 79zM442 500h385l-192 512zM537 1569q0 30 24 61l84 109q28 39 78 39 q40 0 67 -27.5t27 -67.5q0 -29 -22 -57l-82 -113q-29 -40 -78 -40q-40 0 -69 29t-29 67z" />
<glyph unicode="&#xc2;" horiz-adv-x="1269" d="M51 96q0 22 10 45l463 1164q30 75 111 75q80 0 110 -75l463 -1164q11 -26 11 -45q0 -46 -32 -79t-85 -33q-77 0 -105 71l-92 232h-540l-93 -232q-14 -36 -38 -53.5t-66 -17.5q-53 0 -85 33t-32 79zM393 1548q0 35 27 62l155 133q31 24 60 24q28 0 59 -24l156 -133 q27 -27 27 -62q0 -31 -24 -53t-56 -22q-33 0 -58 22l-104 94l-105 -94q-25 -22 -57 -22t-56 22t-24 53zM442 500h385l-192 512z" />
<glyph unicode="&#xc3;" horiz-adv-x="1269" d="M51 96q0 22 10 45l463 1164q30 75 111 75q80 0 110 -75l463 -1164q11 -26 11 -45q0 -46 -32 -79t-85 -33q-77 0 -105 71l-92 232h-540l-93 -232q-14 -36 -38 -53.5t-66 -17.5q-53 0 -85 33t-32 79zM338 1538q0 22 31 86q29 58 53 80t70 22q8 0 14.5 -0.5t14 -2l12.5 -2.5 t15 -4.5t14 -5t17 -7t18.5 -8t22.5 -10.5t25 -11q10 -5 29 -13.5t26.5 -12t19 -8t18.5 -6t14 -1.5q14 0 21 9.5t15 35.5q18 52 66 52q32 0 50 -20.5t18 -49.5q0 -19 -9 -37q-4 -8 -16.5 -35.5t-16.5 -34.5t-15 -26t-18 -24.5t-19 -15.5t-25.5 -12.5t-30.5 -2.5q-8 0 -16.5 1 t-15 2t-16.5 4.5t-16 5.5t-19.5 7t-19.5 8t-23 10.5t-25 10.5q-86 37 -107 37q-26 0 -41 -29q-15 -30 -30.5 -43.5t-41.5 -13.5q-30 0 -46.5 18.5t-16.5 46.5zM442 500h385l-192 512z" />
<glyph unicode="&#xc4;" horiz-adv-x="1269" d="M51 96q0 22 10 45l463 1164q30 75 111 75q80 0 110 -75l463 -1164q11 -26 11 -45q0 -46 -32 -79t-85 -33q-77 0 -105 71l-92 232h-540l-93 -232q-14 -36 -38 -53.5t-66 -17.5q-53 0 -85 33t-32 79zM332 1593q0 47 35 82t82 35t81.5 -35t34.5 -82t-34.5 -81.5t-81.5 -34.5 t-82 34.5t-35 81.5zM442 500h385l-192 512zM705 1593q0 47 34.5 82t81.5 35t82 -35t35 -82t-35 -81.5t-82 -34.5t-81.5 34.5t-34.5 81.5z" />
<glyph unicode="&#xc5;" horiz-adv-x="1269" d="M51 96q0 22 10 45l463 1164q3 8 8 16q-63 47 -63 129q0 71 48 116.5t118 45.5t119 -45.5t49 -116.5q0 -80 -66 -129l8 -16l463 -1164q11 -26 11 -45q0 -46 -32 -79t-85 -33q-77 0 -105 71l-92 232h-540l-93 -232q-14 -36 -38 -53.5t-66 -17.5q-53 0 -85 33t-32 79z M442 500h385l-192 512zM573 1450q0 -30 17.5 -50t44.5 -20t45 20t18 50q0 31 -17.5 50.5t-45.5 19.5t-45 -19.5t-17 -50.5z" />
<glyph unicode="&#xc6;" horiz-adv-x="1708" d="M51 96q0 22 10 45l463 1147q30 76 111 76h881q48 0 82 -33t34 -80t-33.5 -79.5t-80.5 -32.5h-713l135 -336h356q47 0 81 -32.5t34 -80.5q0 -49 -33.5 -80.5t-81.5 -31.5h-264l142 -353h358q48 0 81.5 -32.5t33.5 -79.5t-34 -80t-81 -33h-436q-42 0 -66.5 18t-38.5 54 l-86 215h-540l-93 -232q-14 -36 -38 -53.5t-66 -17.5q-53 0 -85 33t-32 79zM442 500h385l-192 508z" />
<glyph unicode="&#xc7;" horiz-adv-x="1214" d="M82 682q0 166 48 301t131.5 223t194 135.5t236.5 47.5q134 0 241.5 -51t178.5 -138q33 -39 33 -82q0 -47 -30 -78.5t-79 -31.5q-50 0 -94 47q-105 112 -248 112q-160 0 -263 -133t-103 -352t103 -352t263 -133q143 0 248 112q44 47 94 47q49 0 79 -31.5t30 -78.5 q0 -43 -33 -82q-69 -85 -171.5 -135.5t-231.5 -53.5l-29 -86q36 15 86 15q67 0 109.5 -36.5t42.5 -100.5q0 -74 -58 -120t-164 -46q-65 0 -121.5 20.5t-56.5 61.5q0 47 51 47q15 0 33 -6q61 -21 98 -21q42 0 65 16t23 43q0 54 -69 54q-21 0 -53.5 -8.5t-49.5 -8.5 q-23 0 -36 11.5t-13 27.5q0 7 6 25l41 117q-112 13 -208.5 66t-169 140.5t-113.5 215t-41 280.5z" />
<glyph unicode="&#xc8;" horiz-adv-x="1097" d="M143 121v1122q0 54 35.5 87.5t87.5 33.5h639q48 0 82.5 -32t34.5 -79t-33.5 -78.5t-81.5 -31.5h-518v-342h297q47 0 81 -31.5t34 -79.5q0 -49 -33.5 -79.5t-81.5 -30.5h-297v-359h533q48 0 81 -31.5t33 -78.5t-33 -79t-81 -32h-654q-53 0 -89 34.5t-36 86.5zM406 1683 q0 40 27 67.5t67 27.5q50 0 78 -39l84 -109q24 -31 24 -61q0 -38 -29 -67t-69 -29q-49 0 -78 40l-82 113q-22 28 -22 57z" />
<glyph unicode="&#xc9;" horiz-adv-x="1097" d="M143 121v1122q0 54 35.5 87.5t87.5 33.5h639q48 0 82.5 -32t34.5 -79t-33.5 -78.5t-81.5 -31.5h-518v-342h297q47 0 81 -31.5t34 -79.5q0 -49 -33.5 -79.5t-81.5 -30.5h-297v-359h533q48 0 81 -31.5t33 -78.5t-33 -79t-81 -32h-654q-53 0 -89 34.5t-36 86.5zM483 1569 q0 29 25 61l84 109q28 39 78 39q40 0 67 -27.5t27 -67.5q0 -27 -23 -57l-82 -113q-15 -21 -31.5 -30.5t-45.5 -9.5q-40 0 -69.5 29t-29.5 67z" />
<glyph unicode="&#xca;" horiz-adv-x="1097" d="M143 121v1122q0 54 35.5 87.5t87.5 33.5h639q48 0 82.5 -32t34.5 -79t-33.5 -78.5t-81.5 -31.5h-518v-342h297q47 0 81 -31.5t34 -79.5q0 -49 -33.5 -79.5t-81.5 -30.5h-297v-359h533q48 0 81 -31.5t33 -78.5t-33 -79t-81 -32h-654q-53 0 -89 34.5t-36 86.5zM344 1548 q0 35 27 62l155 133q31 24 60 24q28 0 59 -24l156 -133q26 -26 26 -62q0 -32 -23.5 -53.5t-55.5 -21.5q-33 0 -58 22l-104 94l-105 -94q-25 -22 -57 -22t-56 22t-24 53z" />
<glyph unicode="&#xcb;" horiz-adv-x="1097" d="M143 121v1122q0 54 35.5 87.5t87.5 33.5h639q48 0 82.5 -32t34.5 -79t-33.5 -78.5t-81.5 -31.5h-518v-342h297q47 0 81 -31.5t34 -79.5q0 -49 -33.5 -79.5t-81.5 -30.5h-297v-359h533q48 0 81 -31.5t33 -78.5t-33 -79t-81 -32h-654q-53 0 -89 34.5t-36 86.5zM281 1593 q0 47 34.5 82t81.5 35t82 -35t35 -82t-35 -81.5t-82 -34.5t-81.5 34.5t-34.5 81.5zM653 1593q0 47 35 82t82 35t82 -35t35 -82t-35 -81.5t-82 -34.5t-82 34.5t-35 81.5z" />
<glyph unicode="&#xcc;" horiz-adv-x="552" d="M104 1683q0 40 27.5 67.5t67.5 27.5q49 0 77 -39l84 -109q25 -32 25 -61q0 -38 -29 -67t-69 -29q-49 0 -78 40l-82 113q-23 30 -23 57zM154 106v1151q0 52 35.5 87.5t86.5 35.5q52 0 87.5 -36t35.5 -87v-1151q0 -53 -34.5 -87.5t-88.5 -34.5q-53 0 -87.5 35t-34.5 87z " />
<glyph unicode="&#xcd;" horiz-adv-x="552" d="M154 106v1151q0 52 35.5 87.5t86.5 35.5q52 0 87.5 -36t35.5 -87v-1151q0 -53 -34.5 -87.5t-88.5 -34.5q-53 0 -87.5 35t-34.5 87zM178 1569q0 29 25 61l84 109q28 39 78 39q40 0 67 -27.5t27 -67.5q0 -27 -23 -57l-82 -113q-29 -40 -78 -40q-40 0 -69 29t-29 67z" />
<glyph unicode="&#xce;" horiz-adv-x="552" d="M37 1548q0 36 26 62l156 133q31 24 60 24q28 0 59 -24l156 -133q26 -26 26 -62q0 -31 -24 -53t-56 -22t-57 22l-104 94l-105 -94q-25 -22 -57 -22t-56 22t-24 53zM154 106v1151q0 52 35.5 87.5t86.5 35.5q52 0 87.5 -36t35.5 -87v-1151q0 -53 -34.5 -87.5t-88.5 -34.5 q-53 0 -87.5 35t-34.5 87z" />
<glyph unicode="&#xcf;" horiz-adv-x="552" d="M-25 1593q0 47 35 82t82 35t82 -35t35 -82t-35 -81.5t-82 -34.5t-82 34.5t-35 81.5zM154 106v1151q0 52 35.5 87.5t86.5 35.5q52 0 87.5 -36t35.5 -87v-1151q0 -53 -34.5 -87.5t-88.5 -34.5q-53 0 -87.5 35t-34.5 87zM348 1593q0 47 35 82t82 35t82 -35t35 -82t-35 -81.5 t-82 -34.5t-82 34.5t-35 81.5z" />
<glyph unicode="&#xd0;" horiz-adv-x="1345" d="M25 682q0 42 30 70t72 28h106v461q0 51 36 87t87 36h312q278 0 441 -186t163 -496t-163 -496t-441 -186h-310q-52 0 -88.5 36t-36.5 87v463h-106q-42 0 -72 27.5t-30 68.5zM479 225h187q91 0 161 35.5t113 98.5t64.5 144.5t21.5 178.5t-21.5 178.5t-64.5 144.5t-113 98.5 t-161 35.5h-187v-359h176q43 0 73 -28t30 -70q0 -41 -30 -68.5t-73 -27.5h-176v-361z" />
<glyph unicode="&#xd1;" horiz-adv-x="1310" d="M143 96v1170q0 51 30.5 82.5t86.5 31.5q60 0 92 -51l586 -876v813q0 47 32 80.5t81 33.5t82.5 -33t33.5 -81v-1168q0 -49 -31 -81.5t-83 -32.5q-65 0 -95 47l-585 880v-813q0 -47 -34 -80.5t-81 -33.5t-81 33t-34 79zM362 1538q0 22 31 86q29 58 53 80t70 22 q41 0 135 -43q4 -1 6.5 -2t6 -3t6.5 -3q12 -5 29.5 -13.5t25.5 -12t19 -8t18 -6t14 -1.5q14 0 21.5 10t15.5 35q18 52 66 52q32 0 49.5 -20t17.5 -50q0 -21 -8 -37q-4 -8 -16.5 -35.5t-16.5 -34.5t-15 -26t-18 -24.5t-19 -15.5t-25.5 -12.5t-30.5 -2.5q-7 0 -14 0.5t-15 2.5 t-13.5 3t-15.5 4.5t-15 5t-17.5 7t-18 7.5t-21.5 9t-22 10q-86 37 -106 37q-27 0 -41 -29q-15 -30 -30.5 -43.5t-41.5 -13.5q-30 0 -47 19t-17 46z" />
<glyph unicode="&#xd2;" horiz-adv-x="1363" d="M82 682q0 199 74.5 360t212 254t313.5 93t313.5 -93t212 -254t74.5 -360t-74.5 -360t-212 -254t-313.5 -93t-313.5 93t-212 254t-74.5 360zM328 682q0 -96 21.5 -181.5t63.5 -154.5t111.5 -109t157.5 -40t157.5 40t111.5 109t63.5 154.5t21.5 181.5t-21.5 181.5 t-63.5 154.5t-111.5 109t-157.5 40t-157.5 -40t-111.5 -109t-63.5 -154.5t-21.5 -181.5zM500 1683q0 40 27 67.5t67 27.5q50 0 78 -39l84 -109q24 -31 24 -61q0 -38 -29 -67t-69 -29q-49 0 -78 40l-82 113q-22 28 -22 57z" />
<glyph unicode="&#xd3;" horiz-adv-x="1363" d="M82 682q0 199 74.5 360t212 254t313.5 93t313.5 -93t212 -254t74.5 -360t-74.5 -360t-212 -254t-313.5 -93t-313.5 93t-212 254t-74.5 360zM328 682q0 -96 21.5 -181.5t63.5 -154.5t111.5 -109t157.5 -40t157.5 40t111.5 109t63.5 154.5t21.5 181.5t-21.5 181.5 t-63.5 154.5t-111.5 109t-157.5 40t-157.5 -40t-111.5 -109t-63.5 -154.5t-21.5 -181.5zM565 1569q0 29 25 61l84 109q28 39 78 39q40 0 67 -27.5t27 -67.5q0 -27 -23 -57l-82 -113q-15 -21 -31.5 -30.5t-45.5 -9.5q-40 0 -69.5 29t-29.5 67z" />
<glyph unicode="&#xd4;" horiz-adv-x="1363" d="M82 682q0 199 74.5 360t212 254t313.5 93t313.5 -93t212 -254t74.5 -360t-74.5 -360t-212 -254t-313.5 -93t-313.5 93t-212 254t-74.5 360zM328 682q0 -96 21.5 -181.5t63.5 -154.5t111.5 -109t157.5 -40t157.5 40t111.5 109t63.5 154.5t21.5 181.5t-21.5 181.5 t-63.5 154.5t-111.5 109t-157.5 40t-157.5 -40t-111.5 -109t-63.5 -154.5t-21.5 -181.5zM440 1548q0 35 27 62l156 133q31 24 59 24t59 -24l156 -133q27 -27 27 -62q0 -31 -24 -53t-56 -22q-33 0 -58 22l-104 94l-104 -94q-25 -22 -58 -22q-32 0 -56 22t-24 53z" />
<glyph unicode="&#xd5;" horiz-adv-x="1363" d="M82 682q0 199 74.5 360t212 254t313.5 93t313.5 -93t212 -254t74.5 -360t-74.5 -360t-212 -254t-313.5 -93t-313.5 93t-212 254t-74.5 360zM328 682q0 -96 21.5 -181.5t63.5 -154.5t111.5 -109t157.5 -40t157.5 40t111.5 109t63.5 154.5t21.5 181.5t-21.5 181.5 t-63.5 154.5t-111.5 109t-157.5 40t-157.5 -40t-111.5 -109t-63.5 -154.5t-21.5 -181.5zM393 1538q0 22 31 86q29 58 53 80t70 22q8 0 14.5 -0.5t14 -2l12.5 -2.5t15 -4.5t14 -5t17 -7t18.5 -8t22.5 -10.5t25 -11q10 -5 29 -13.5t26.5 -12t19 -8t18.5 -6t14 -1.5 q14 0 21.5 10t15.5 35q18 52 65 52q32 0 50 -20.5t18 -49.5q0 -21 -8 -37q-4 -9 -15 -32t-14.5 -30t-13 -24.5t-15 -23.5t-15.5 -16.5t-19.5 -14t-22 -7t-27.5 -3.5q-8 0 -16.5 1t-15 2t-16.5 4.5t-16 5.5t-19.5 7t-19.5 8t-23 10.5t-25 10.5q-86 37 -107 37q-27 0 -41 -29 q-15 -30 -30 -43.5t-41 -13.5q-30 0 -47 19t-17 46z" />
<glyph unicode="&#xd6;" horiz-adv-x="1363" d="M82 682q0 199 74.5 360t212 254t313.5 93t313.5 -93t212 -254t74.5 -360t-74.5 -360t-212 -254t-313.5 -93t-313.5 93t-212 254t-74.5 360zM328 682q0 -96 21.5 -181.5t63.5 -154.5t111.5 -109t157.5 -40t157.5 40t111.5 109t63.5 154.5t21.5 181.5t-21.5 181.5 t-63.5 154.5t-111.5 109t-157.5 40t-157.5 -40t-111.5 -109t-63.5 -154.5t-21.5 -181.5zM379 1593q0 47 35 82t82 35t81.5 -35t34.5 -82t-34.5 -81.5t-81.5 -34.5t-82 34.5t-35 81.5zM752 1593q0 47 34.5 82t81.5 35t82 -35t35 -82t-35 -81.5t-82 -34.5t-81.5 34.5 t-34.5 81.5z" />
<glyph unicode="&#xd7;" horiz-adv-x="983" d="M133 401q0 41 29 70l190 191l-190 190q-29 29 -29 70t29 70.5t69 29.5q41 0 70 -29l191 -190l190 190q29 29 70 29t69.5 -28.5t28.5 -69.5q0 -43 -29 -72l-190 -190l190 -191q29 -29 29 -70q0 -40 -29 -69t-69 -29q-41 0 -70 29l-190 190l-191 -190q-29 -29 -70 -29 q-40 0 -69 29t-29 69z" />
<glyph unicode="&#xd8;" horiz-adv-x="1363" d="M82 -63q0 18 12 36l150 209q-77 95 -119.5 223.5t-42.5 276.5q0 199 74.5 360t212 254t313.5 93q196 0 346 -119l139 194q19 27 52 27q25 0 44 -18t19 -43q0 -19 -12 -37l-152 -211q78 -95 121 -224t43 -276q0 -199 -74.5 -360t-212 -254t-313.5 -93q-197 0 -346 117 l-139 -192q-20 -27 -52 -27q-26 0 -44.5 19t-18.5 45zM328 682q0 -174 63 -297l504 700q-88 82 -213 82q-88 0 -157.5 -40t-111.5 -109t-63.5 -154.5t-21.5 -181.5zM469 279q85 -82 213 -82q88 0 157.5 40t111.5 109t63.5 154.5t21.5 181.5q0 174 -63 297z" />
<glyph unicode="&#xd9;" horiz-adv-x="1339" d="M143 520v735q0 56 35.5 90.5t87.5 34.5q53 0 88 -35.5t35 -89.5v-768q0 -137 72 -213.5t209 -76.5t208.5 76.5t71.5 213.5v768q0 56 35.5 90.5t87.5 34.5q53 0 88 -35.5t35 -89.5v-735q0 -248 -137 -396.5t-389 -148.5t-389.5 148.5t-137.5 396.5zM494 1683q0 40 27 67.5 t67 27.5q50 0 78 -39l84 -109q24 -31 24 -61q0 -38 -29 -67t-69 -29q-49 0 -78 40l-82 113q-22 28 -22 57z" />
<glyph unicode="&#xda;" horiz-adv-x="1339" d="M143 520v735q0 56 35.5 90.5t87.5 34.5q53 0 88 -35.5t35 -89.5v-768q0 -137 72 -213.5t209 -76.5t208.5 76.5t71.5 213.5v768q0 56 35.5 90.5t87.5 34.5q53 0 88 -35.5t35 -89.5v-735q0 -248 -137 -396.5t-389 -148.5t-389.5 148.5t-137.5 396.5zM565 1569q0 29 25 61 l84 109q28 39 78 39q40 0 67 -27.5t27 -67.5q0 -27 -23 -57l-82 -113q-15 -21 -31.5 -30.5t-45.5 -9.5q-40 0 -69.5 29t-29.5 67z" />
<glyph unicode="&#xdb;" horiz-adv-x="1339" d="M143 520v735q0 56 35.5 90.5t87.5 34.5q53 0 88 -35.5t35 -89.5v-768q0 -137 72 -213.5t209 -76.5t208.5 76.5t71.5 213.5v768q0 56 35.5 90.5t87.5 34.5q53 0 88 -35.5t35 -89.5v-735q0 -248 -137 -396.5t-389 -148.5t-389.5 148.5t-137.5 396.5zM428 1548q0 35 27 62 l155 133q31 24 60 24q28 0 59 -24l156 -133q26 -26 26 -62q0 -31 -24 -53t-56 -22t-57 22l-104 94l-105 -94q-25 -22 -57 -22t-56 22t-24 53z" />
<glyph unicode="&#xdc;" horiz-adv-x="1339" d="M143 520v735q0 56 35.5 90.5t87.5 34.5q53 0 88 -35.5t35 -89.5v-768q0 -137 72 -213.5t209 -76.5t208.5 76.5t71.5 213.5v768q0 56 35.5 90.5t87.5 34.5q53 0 88 -35.5t35 -89.5v-735q0 -248 -137 -396.5t-389 -148.5t-389.5 148.5t-137.5 396.5zM367 1593q0 47 34.5 82 t81.5 35t82 -35t35 -82t-35 -81.5t-82 -34.5t-81.5 34.5t-34.5 81.5zM739 1593q0 47 35 82t82 35t82 -35t35 -82t-35 -81.5t-82 -34.5t-82 34.5t-35 81.5z" />
<glyph unicode="&#xdd;" horiz-adv-x="1060" d="M12 1266q0 50 33 82t84 32q67 0 98 -57l303 -549l304 549q31 57 98 57q51 0 84 -32t33 -82q0 -32 -19 -64l-377 -639v-457q0 -52 -35 -87t-88 -35t-87.5 35t-34.5 87v457l-377 639q-19 32 -19 64zM430 1569q0 29 25 61l84 109q28 39 77 39q40 0 67.5 -27.5t27.5 -67.5 q0 -27 -23 -57l-82 -113q-29 -40 -78 -40q-40 0 -69 29t-29 67z" />
<glyph unicode="&#xde;" horiz-adv-x="1165" d="M143 106v1151q0 52 36 87.5t87 35.5q52 0 87.5 -36t35.5 -87v-139h264q126 0 223.5 -34t155.5 -93.5t87.5 -134t29.5 -160.5q0 -90 -29.5 -164t-88.5 -130.5t-155 -87.5t-223 -31h-264v-177q0 -52 -34 -87t-89 -35t-89 34.5t-34 87.5zM389 502h303q99 0 154 55.5 t55 138.5q0 84 -54.5 140.5t-152.5 56.5h-305v-391z" />
<glyph unicode="&#xdf;" horiz-adv-x="1202" d="M123 104v863q0 195 108 304t318 109q194 0 301.5 -90.5t107.5 -238.5q0 -69 -22.5 -119.5t-79.5 -118.5q-11 -13 -30.5 -35.5t-27 -32t-17.5 -24t-13.5 -27t-3.5 -26.5q0 -34 27 -59.5t112 -65.5q132 -63 187 -123t55 -156q0 -125 -87 -207t-267 -82q-158 0 -256 68 q-56 40 -56 98q0 36 24.5 59t65.5 23q15 0 27.5 -4.5t30 -15t24.5 -13.5q66 -34 142 -34q61 0 90.5 26t29.5 66q0 39 -28 65.5t-107 61.5q-150 66 -203 124.5t-53 157.5q0 47 18 90.5t39 70t62 71.5q43 46 62.5 79t19.5 74q0 64 -45 101t-127 37q-186 0 -186 -203v-873 q0 -50 -34 -85t-87 -35t-87 35t-34 85z" />
<glyph unicode="&#xe0;" horiz-adv-x="999" d="M92 250q0 129 88.5 199.5t229.5 70.5q71 0 132 -24.5t93 -61.5v80q0 95 -46 145t-149 50q-66 0 -127 -21q-66 -24 -104 -24q-42 0 -70 26t-28 66q0 80 129 125q95 32 221 32q199 0 307.5 -100t108.5 -289v-418q0 -54 -30.5 -88t-86.5 -34q-54 0 -86.5 32.5t-32.5 83.5v2 q-34 -63 -99 -95t-145 -32q-139 0 -222 76.5t-83 198.5zM293 1262q0 40 27 67t67 27q50 0 78 -39l106 -141q25 -32 25 -62q0 -38 -29 -67t-69 -29q-48 0 -78 41l-105 145q-22 28 -22 58zM326 250q0 -51 41 -79t108 -28q68 0 114 30t46 77q0 49 -48 77.5t-112 28.5 q-66 0 -107.5 -28.5t-41.5 -77.5z" />
<glyph unicode="&#xe1;" horiz-adv-x="999" d="M92 250q0 129 88.5 199.5t229.5 70.5q71 0 132 -24.5t93 -61.5v80q0 95 -46 145t-149 50q-66 0 -127 -21q-66 -24 -104 -24q-42 0 -70 26t-28 66q0 80 129 125q95 32 221 32q199 0 307.5 -100t108.5 -289v-418q0 -54 -30.5 -88t-86.5 -34q-54 0 -86.5 32.5t-32.5 83.5v2 q-34 -63 -99 -95t-145 -32q-139 0 -222 76.5t-83 198.5zM326 250q0 -51 41 -79t108 -28q68 0 114 30t46 77q0 49 -48 77.5t-112 28.5q-66 0 -107.5 -28.5t-41.5 -77.5zM362 1114q0 30 25 62l107 141q28 39 77 39q40 0 67.5 -27t27.5 -67q0 -28 -23 -58l-104 -145 q-30 -41 -78 -41q-40 0 -69.5 29t-29.5 67z" />
<glyph unicode="&#xe2;" horiz-adv-x="999" d="M92 250q0 129 88.5 199.5t229.5 70.5q71 0 132 -24.5t93 -61.5v80q0 95 -46 145t-149 50q-66 0 -127 -21q-66 -24 -104 -24q-42 0 -70 26t-28 66q0 80 129 125q95 32 221 32q199 0 307.5 -100t108.5 -289v-418q0 -54 -30.5 -88t-86.5 -34q-54 0 -86.5 32.5t-32.5 83.5v2 q-34 -63 -99 -95t-145 -32q-139 0 -222 76.5t-83 198.5zM233 1081q0 35 27 62l182 168q31 24 60 24q28 0 59 -24l182 -168q27 -27 27 -62q0 -31 -24 -53t-56 -22t-57 22l-131 123l-131 -123q-25 -22 -58 -22q-32 0 -56 22t-24 53zM326 250q0 -51 41 -79t108 -28q68 0 114 30 t46 77q0 49 -48 77.5t-112 28.5q-66 0 -107.5 -28.5t-41.5 -77.5z" />
<glyph unicode="&#xe3;" horiz-adv-x="999" d="M92 250q0 129 88.5 199.5t229.5 70.5q71 0 132 -24.5t93 -61.5v80q0 95 -46 145t-149 50q-66 0 -127 -21q-66 -24 -104 -24q-42 0 -70 26t-28 66q0 80 129 125q95 32 221 32q199 0 307.5 -100t108.5 -289v-418q0 -54 -30.5 -88t-86.5 -34q-54 0 -86.5 32.5t-32.5 83.5v2 q-34 -63 -99 -95t-145 -32q-139 0 -222 76.5t-83 198.5zM219 1067q0 22 31 86q29 58 53 80t70 22q31 0 58.5 -12t72.5 -39q6 -3 16 -9l15 -9l12.5 -7.5t12 -6.5t10.5 -4.5t10 -3.5t8 -1q14 0 21.5 10t15.5 35q18 52 65 52q32 0 50 -20.5t18 -49.5q0 -21 -8 -37 q-19 -43 -30 -63.5t-29.5 -45t-40 -34t-50.5 -9.5q-12 0 -24 2.5t-20.5 5t-21 9t-18 10t-19.5 12.5t-18 11q-59 36 -84 36q-27 0 -41 -28q-15 -31 -30 -44.5t-41 -13.5q-30 0 -47 19t-17 47zM326 250q0 -51 41 -79t108 -28q68 0 114 30t46 77q0 49 -48 77.5t-112 28.5 q-66 0 -107.5 -28.5t-41.5 -77.5z" />
<glyph unicode="&#xe4;" horiz-adv-x="999" d="M92 250q0 129 88.5 199.5t229.5 70.5q71 0 132 -24.5t93 -61.5v80q0 95 -46 145t-149 50q-66 0 -127 -21q-66 -24 -104 -24q-42 0 -70 26t-28 66q0 80 129 125q95 32 221 32q199 0 307.5 -100t108.5 -289v-418q0 -54 -30.5 -88t-86.5 -34q-54 0 -86.5 32.5t-32.5 83.5v2 q-34 -63 -99 -95t-145 -32q-139 0 -222 76.5t-83 198.5zM213 1145q0 47 35 82t82 35t81.5 -35t34.5 -82t-34.5 -82t-81.5 -35t-82 35t-35 82zM326 250q0 -51 41 -79t108 -28q68 0 114 30t46 77q0 49 -48 77.5t-112 28.5q-66 0 -107.5 -28.5t-41.5 -77.5zM561 1145 q0 47 35 82t82 35t82 -35t35 -82t-35 -82t-82 -35t-82 35t-35 82z" />
<glyph unicode="&#xe5;" horiz-adv-x="999" d="M92 250q0 129 88.5 199.5t229.5 70.5q71 0 132 -24.5t93 -61.5v80q0 95 -46 145t-149 50q-66 0 -127 -21q-66 -24 -104 -24q-42 0 -70 26t-28 66q0 80 129 125q95 32 221 32q199 0 307.5 -100t108.5 -289v-418q0 -54 -30.5 -88t-86.5 -34q-54 0 -86.5 32.5t-32.5 83.5v2 q-34 -63 -99 -95t-145 -32q-139 0 -222 76.5t-83 198.5zM326 250q0 -51 41 -79t108 -28q68 0 114 30t46 77q0 49 -48 77.5t-112 28.5q-66 0 -107.5 -28.5t-41.5 -77.5zM338 1149q0 71 48 116.5t118 45.5t119 -45.5t49 -116.5q0 -70 -49 -116t-119 -46t-118 46t-48 116z M442 1149q0 -30 17.5 -50t44.5 -20t45 20t18 50q0 31 -17.5 50.5t-45.5 19.5t-45 -19.5t-17 -50.5z" />
<glyph unicode="&#xe6;" horiz-adv-x="1511" d="M86 250q0 129 88.5 199.5t228.5 70.5q71 0 132.5 -24.5t93.5 -61.5v80q0 95 -46 145t-149 50q-66 0 -127 -21q-66 -24 -104 -24q-42 0 -70.5 26.5t-28.5 65.5q0 80 129 125q95 32 222 32q188 0 303 -127q114 127 303 127q181 0 287 -132.5t106 -336.5q0 -35 -22 -58.5 t-68 -23.5h-485q3 -81 54 -139.5t144 -58.5q99 0 170 61q18 15 28.5 22.5t27 14t34.5 6.5q42 0 67.5 -25t25.5 -61q0 -53 -68 -110q-121 -97 -293 -97q-225 0 -317 125q-113 -125 -314 -125q-166 0 -259 76t-93 199zM319 250q0 -51 41.5 -79t108.5 -28q68 0 114 30t46 77 q0 49 -48 77.5t-112 28.5q-66 0 -108 -28.5t-42 -77.5zM881 537h346q-9 84 -53.5 136t-114.5 52q-71 0 -118 -55.5t-60 -132.5z" />
<glyph unicode="&#xe7;" horiz-adv-x="911" d="M72 444q0 127 51 232.5t153 171t238 65.5q93 0 175 -38.5t132 -110.5q33 -50 33 -90q0 -42 -29.5 -68t-70.5 -26q-55 0 -82 43q-61 92 -156 92q-66 0 -114.5 -40t-70.5 -100t-22 -131t22 -131t70.5 -99.5t114.5 -39.5q95 0 156 92q27 43 82 43q41 0 70.5 -26t29.5 -68 q0 -41 -33 -90q-48 -70 -126 -108.5t-169 -41.5l-28 -86q36 15 86 15q67 0 109 -36.5t42 -100.5q0 -74 -57.5 -120t-163.5 -46q-65 0 -121.5 20.5t-56.5 61.5q0 47 51 47q15 0 33 -6q61 -21 98 -21q42 0 65 16t23 43q0 54 -69 54q-21 0 -53.5 -8.5t-49.5 -8.5 q-23 0 -36 11.5t-13 27.5q0 7 6 25l43 119q-168 27 -265 157t-97 305z" />
<glyph unicode="&#xe8;" horiz-adv-x="954" d="M72 444q0 201 120 335t312 134q181 0 287 -132.5t106 -336.5q0 -35 -22 -58.5t-68 -23.5h-485q3 -81 54 -139.5t144 -58.5q99 0 170 61q18 15 28.5 22.5t27 14t34.5 6.5q42 0 67 -25t25 -61q0 -54 -67 -110q-121 -97 -293 -97q-107 0 -192 37.5t-138.5 102t-81.5 148.5 t-28 181zM297 1262q0 40 27 67t67 27q50 0 78 -39l106 -141q25 -32 25 -62q0 -38 -29 -67t-69 -29q-48 0 -78 41l-105 145q-22 28 -22 58zM324 537h346q-9 84 -53.5 136t-114.5 52q-71 0 -116.5 -52.5t-61.5 -135.5z" />
<glyph unicode="&#xe9;" horiz-adv-x="954" d="M72 444q0 201 120 335t312 134q181 0 287 -132.5t106 -336.5q0 -35 -22 -58.5t-68 -23.5h-485q3 -81 54 -139.5t144 -58.5q99 0 170 61q18 15 28.5 22.5t27 14t34.5 6.5q42 0 67 -25t25 -61q0 -54 -67 -110q-121 -97 -293 -97q-107 0 -192 37.5t-138.5 102t-81.5 148.5 t-28 181zM324 537h346q-9 84 -53.5 136t-114.5 52q-71 0 -116.5 -52.5t-61.5 -135.5zM358 1114q0 30 25 62l106 141q28 39 78 39q40 0 67.5 -27t27.5 -67q0 -28 -23 -58l-104 -145q-30 -41 -78 -41q-40 0 -69.5 29t-29.5 67z" />
<glyph unicode="&#xea;" horiz-adv-x="954" d="M72 444q0 201 120 335t312 134q181 0 287 -132.5t106 -336.5q0 -35 -22 -58.5t-68 -23.5h-485q3 -81 54 -139.5t144 -58.5q99 0 170 61q18 15 28.5 22.5t27 14t34.5 6.5q42 0 67 -25t25 -61q0 -54 -67 -110q-121 -97 -293 -97q-107 0 -192 37.5t-138.5 102t-81.5 148.5 t-28 181zM250 1081q0 36 26 62l183 168q31 24 59 24q29 0 60 -24l182 -168q26 -26 26 -62q0 -32 -23.5 -53.5t-55.5 -21.5q-33 0 -58 22l-131 123l-131 -123q-25 -22 -57 -22t-56 22t-24 53zM324 537h346q-9 84 -53.5 136t-114.5 52q-71 0 -116.5 -52.5t-61.5 -135.5z" />
<glyph unicode="&#xeb;" horiz-adv-x="954" d="M72 444q0 201 120 335t312 134q181 0 287 -132.5t106 -336.5q0 -35 -22 -58.5t-68 -23.5h-485q3 -81 54 -139.5t144 -58.5q99 0 170 61q18 15 28.5 22.5t27 14t34.5 6.5q42 0 67 -25t25 -61q0 -54 -67 -110q-121 -97 -293 -97q-107 0 -192 37.5t-138.5 102t-81.5 148.5 t-28 181zM223 1145q0 47 35 82t82 35t82 -35t35 -82t-35 -82t-82 -35t-82 35t-35 82zM324 537h346q-9 84 -53.5 136t-114.5 52q-71 0 -116.5 -52.5t-61.5 -135.5zM571 1145q0 47 35 82t82 35t82 -35t35 -82t-35 -82t-82 -35t-82 35t-35 82z" />
<glyph unicode="&#xec;" horiz-adv-x="507" d="M63 1262q0 40 27.5 67t67.5 27q50 0 78 -39l106 -141q25 -32 25 -62q0 -38 -29.5 -67t-69.5 -29q-48 0 -78 41l-104 145q-23 30 -23 58zM133 104v680q0 50 34.5 85.5t86.5 35.5t86.5 -35.5t34.5 -85.5v-680q0 -50 -34.5 -85t-86.5 -35t-86.5 35t-34.5 85z" />
<glyph unicode="&#xed;" horiz-adv-x="507" d="M133 104v680q0 50 34.5 85.5t86.5 35.5t86.5 -35.5t34.5 -85.5v-680q0 -50 -34.5 -85t-86.5 -35t-86.5 35t-34.5 85zM139 1114q0 30 25 62l106 141q28 39 78 39q40 0 67 -27t27 -67q0 -30 -22 -58l-105 -145q-15 -21 -31.5 -31t-45.5 -10q-40 0 -69.5 29t-29.5 67z" />
<glyph unicode="&#xee;" horiz-adv-x="507" d="M-14 1081q0 36 26 62l183 168q31 24 59 24t59 -24l183 -168q26 -26 26 -62q0 -31 -24 -53t-56 -22t-57 22l-131 123l-131 -123q-25 -22 -57 -22t-56 22t-24 53zM133 104v680q0 50 34.5 85.5t86.5 35.5t86.5 -35.5t34.5 -85.5v-680q0 -50 -34.5 -85t-86.5 -35t-86.5 35 t-34.5 85z" />
<glyph unicode="&#xef;" horiz-adv-x="507" d="M-37 1145q0 47 35 82t82 35t82 -35t35 -82t-35 -82t-82 -35t-82 35t-35 82zM133 104v680q0 50 34.5 85.5t86.5 35.5t86.5 -35.5t34.5 -85.5v-680q0 -50 -34.5 -85t-86.5 -35t-86.5 35t-34.5 85zM311 1145q0 47 35 82t82 35t82 -35t35 -82t-35 -82t-82 -35t-82 35t-35 82z " />
<glyph unicode="&#xf0;" horiz-adv-x="1028" d="M72 410q0 187 111.5 302t297.5 115q114 0 199 -59q-27 142 -139 246l-90 -80q-26 -23 -56 -23q-34 0 -59 24t-25 58q0 35 27 62l74 65q-29 21 -74 50.5t-59 39.5q-43 29 -43 76q0 44 28.5 73.5t71.5 29.5q17 0 63 -23q92 -48 168 -100l72 67q24 21 57 21q35 0 58.5 -23.5 t23.5 -56.5q0 -35 -26 -64l-62 -55q256 -276 256 -674q0 -105 -27.5 -195t-80 -160.5t-138 -110.5t-194.5 -40q-106 0 -190.5 36t-137 97.5t-79.5 138.5t-27 163zM309 403q0 -94 54 -157.5t145 -63.5q96 0 146.5 64t50.5 157q0 98 -53 159t-144 61q-92 0 -145.5 -58.5 t-53.5 -161.5z" />
<glyph unicode="&#xf1;" d="M133 104v680q0 54 34.5 87.5t86.5 33.5q54 0 87.5 -33.5t33.5 -87.5v-12q32 64 96.5 102.5t149.5 38.5q162 0 247.5 -112.5t85.5 -300.5v-396q0 -50 -34 -85t-86 -35t-86.5 35t-34.5 85v396q0 89 -41.5 142.5t-120.5 53.5q-89 0 -132.5 -62.5t-43.5 -162.5v-367 q0 -50 -34.5 -85t-86.5 -35t-86.5 35t-34.5 85zM268 1067q0 22 31 86q29 58 53 80t70 22q31 0 58.5 -12t72.5 -39q6 -3 16 -9l15 -9l12.5 -7.5t12 -6.5t10.5 -4.5t10 -3.5t8 -1q14 0 21.5 10t15.5 35q18 52 65 52q32 0 50 -20.5t18 -49.5q0 -21 -8 -37q-19 -43 -30 -63.5 t-29.5 -45t-40 -34t-50.5 -9.5q-12 0 -24 2.5t-20.5 5t-21 9t-18 10t-19.5 12.5t-18 11q-59 36 -84 36q-27 0 -41 -28q-15 -31 -30 -44.5t-41 -13.5q-30 0 -47 19t-17 47z" />
<glyph unicode="&#xf2;" horiz-adv-x="1021" d="M72 444q0 94 31 179.5t86.5 149.5t138.5 102t182 38q131 0 232.5 -65t154.5 -171t53 -233t-53 -233t-154.5 -171t-232.5 -65q-99 0 -182 38t-138.5 102t-86.5 149.5t-31 179.5zM309 444q0 -112 53 -188t148 -76t148 76t53 188t-53 188.5t-148 76.5t-148 -76.5t-53 -188.5 zM319 1262q0 40 27.5 67t67.5 27q50 0 78 -39l106 -141q25 -32 25 -62q0 -38 -29.5 -67t-69.5 -29q-48 0 -78 41l-104 145q-23 30 -23 58z" />
<glyph unicode="&#xf3;" horiz-adv-x="1021" d="M72 444q0 94 31 179.5t86.5 149.5t138.5 102t182 38q131 0 232.5 -65t154.5 -171t53 -233t-53 -233t-154.5 -171t-232.5 -65q-99 0 -182 38t-138.5 102t-86.5 149.5t-31 179.5zM309 444q0 -112 53 -188t148 -76t148 76t53 188t-53 188.5t-148 76.5t-148 -76.5t-53 -188.5 zM406 1114q0 31 24 62l107 141q28 39 77 39q40 0 67.5 -27t27.5 -67q0 -28 -23 -58l-104 -145q-30 -41 -78 -41q-40 0 -69 29t-29 67z" />
<glyph unicode="&#xf4;" horiz-adv-x="1021" d="M72 444q0 94 31 179.5t86.5 149.5t138.5 102t182 38q131 0 232.5 -65t154.5 -171t53 -233t-53 -233t-154.5 -171t-232.5 -65q-99 0 -182 38t-138.5 102t-86.5 149.5t-31 179.5zM242 1081q0 36 26 62l183 168q31 24 59 24t59 -24l183 -168q26 -26 26 -62q0 -31 -24 -53 t-56 -22t-57 22l-131 123l-131 -123q-25 -22 -57 -22t-56 22t-24 53zM309 444q0 -112 53 -188t148 -76t148 76t53 188t-53 188.5t-148 76.5t-148 -76.5t-53 -188.5z" />
<glyph unicode="&#xf5;" horiz-adv-x="1021" d="M72 444q0 94 31 179.5t86.5 149.5t138.5 102t182 38q131 0 232.5 -65t154.5 -171t53 -233t-53 -233t-154.5 -171t-232.5 -65q-99 0 -182 38t-138.5 102t-86.5 149.5t-31 179.5zM266 1067q0 22 31 86q29 58 53 80t70 22q31 0 58.5 -12t72.5 -39q6 -3 16 -9l15 -9 l12.5 -7.5t12 -6.5t10.5 -4.5t10 -3.5t8 -1q14 0 21.5 10t15.5 35q18 52 65 52q32 0 50 -20.5t18 -49.5q0 -21 -8 -37q-19 -43 -30 -63.5t-29.5 -45t-40 -34t-50.5 -9.5q-12 0 -24 2.5t-20.5 5t-21 9t-18 10t-19.5 12.5t-18 11q-59 36 -84 36q-27 0 -41 -28 q-15 -31 -30 -44.5t-41 -13.5q-30 0 -47 19t-17 47zM309 444q0 -112 53 -188t148 -76t148 76t53 188t-53 188.5t-148 76.5t-148 -76.5t-53 -188.5z" />
<glyph unicode="&#xf6;" horiz-adv-x="1021" d="M72 444q0 94 31 179.5t86.5 149.5t138.5 102t182 38q131 0 232.5 -65t154.5 -171t53 -233t-53 -233t-154.5 -171t-232.5 -65q-99 0 -182 38t-138.5 102t-86.5 149.5t-31 179.5zM219 1145q0 47 35 82t82 35t82 -35t35 -82t-35 -82t-82 -35t-82 35t-35 82zM309 444 q0 -112 53 -188t148 -76t148 76t53 188t-53 188.5t-148 76.5t-148 -76.5t-53 -188.5zM567 1145q0 47 35 82t82 35t82 -35t35 -82t-35 -82t-82 -35t-82 35t-35 82z" />
<glyph unicode="&#xf7;" horiz-adv-x="1101" d="M102 662q0 38 26.5 65t64.5 27h716q37 0 63.5 -27t26.5 -65q0 -37 -27 -65t-63 -28h-716q-38 0 -64.5 28t-26.5 65zM428 307q0 51 36 86t87 35q50 0 85.5 -35t35.5 -86q0 -49 -36 -85t-85 -36q-51 0 -87 35.5t-36 85.5zM428 1016q0 51 36 86t87 35q50 0 85.5 -35 t35.5 -86q0 -50 -36 -85.5t-85 -35.5q-51 0 -87 35.5t-36 85.5z" />
<glyph unicode="&#xf8;" horiz-adv-x="1021" d="M72 444q0 94 31 179.5t86.5 149.5t138.5 102t182 38q132 0 238 -69l112 151q15 21 39 21q19 0 35 -14.5t16 -32.5q0 -14 -10 -29l-117 -158q61 -64 94 -152.5t33 -185.5q0 -127 -53 -233t-154.5 -171t-232.5 -65q-130 0 -236 66l-110 -147q-18 -21 -41 -21 q-20 0 -34.5 14.5t-14.5 34.5q0 16 10 29l115 153q-61 64 -94 152.5t-33 187.5zM309 444q0 -82 31 -149l278 377q-47 37 -108 37q-95 0 -148 -76.5t-53 -188.5zM401 215q44 -35 109 -35q95 0 148 76t53 188q0 79 -31 146z" />
<glyph unicode="&#xf9;" d="M123 389v395q0 50 34.5 85.5t86.5 35.5t86.5 -35.5t34.5 -85.5v-395q0 -90 41 -143t120 -53q89 0 132.5 62.5t43.5 162.5v366q0 50 34.5 85.5t86.5 35.5t86.5 -35.5t34.5 -85.5v-680q0 -54 -34.5 -87t-86.5 -33q-54 0 -87.5 33t-33.5 87v13q-32 -64 -96 -103t-149 -39 q-162 0 -248 113t-86 301zM340 1262q0 40 27 67t67 27q50 0 78 -39l106 -141q25 -32 25 -62q0 -38 -29 -67t-69 -29q-48 0 -78 41l-105 145q-22 28 -22 58z" />
<glyph unicode="&#xfa;" d="M123 389v395q0 50 34.5 85.5t86.5 35.5t86.5 -35.5t34.5 -85.5v-395q0 -90 41 -143t120 -53q89 0 132.5 62.5t43.5 162.5v366q0 50 34.5 85.5t86.5 35.5t86.5 -35.5t34.5 -85.5v-680q0 -54 -34.5 -87t-86.5 -33q-54 0 -87.5 33t-33.5 87v13q-32 -64 -96 -103t-149 -39 q-162 0 -248 113t-86 301zM426 1114q0 30 25 62l106 141q28 39 78 39q40 0 67 -27t27 -67q0 -30 -22 -58l-105 -145q-30 -41 -78 -41q-40 0 -69 29t-29 67z" />
<glyph unicode="&#xfb;" d="M123 389v395q0 50 34.5 85.5t86.5 35.5t86.5 -35.5t34.5 -85.5v-395q0 -90 41 -143t120 -53q89 0 132.5 62.5t43.5 162.5v366q0 50 34.5 85.5t86.5 35.5t86.5 -35.5t34.5 -85.5v-680q0 -54 -34.5 -87t-86.5 -33q-54 0 -87.5 33t-33.5 87v13q-32 -64 -96 -103t-149 -39 q-162 0 -248 113t-86 301zM274 1081q0 35 27 62l182 168q31 24 60 24q28 0 59 -24l182 -168q27 -27 27 -62q0 -31 -24 -53t-56 -22t-57 22l-131 123l-131 -123q-25 -22 -58 -22q-32 0 -56 22t-24 53z" />
<glyph unicode="&#xfc;" d="M123 389v395q0 50 34.5 85.5t86.5 35.5t86.5 -35.5t34.5 -85.5v-395q0 -90 41 -143t120 -53q89 0 132.5 62.5t43.5 162.5v366q0 50 34.5 85.5t86.5 35.5t86.5 -35.5t34.5 -85.5v-680q0 -54 -34.5 -87t-86.5 -33q-54 0 -87.5 33t-33.5 87v13q-32 -64 -96 -103t-149 -39 q-162 0 -248 113t-86 301zM258 1145q0 47 35 82t82 35t82 -35t35 -82t-35 -82t-82 -35t-82 35t-35 82zM606 1145q0 47 35 82t82 35t82 -35t35 -82t-35 -82t-82 -35t-82 35t-35 82z" />
<glyph unicode="&#xfd;" horiz-adv-x="860" d="M20 799q0 47 31.5 76.5t79.5 29.5q79 0 107 -80l202 -585l176 583q23 82 107 82q51 0 81 -33t30 -79q0 -14 -9 -41q-173 -513 -235 -676q-144 -368 -346 -465q-20 -10 -51 -10q-46 0 -77.5 27.5t-31.5 68.5q0 20 10 38.5t20 29t33 30.5q60 53 97.5 102.5t64.5 116.5 l-280 744q-9 32 -9 41zM330 1114q0 31 24 62l107 141q28 39 78 39q40 0 67 -27t27 -67q0 -28 -23 -58l-104 -145q-30 -41 -78 -41q-40 0 -69 29t-29 67z" />
<glyph unicode="&#xfe;" horiz-adv-x="1079" d="M133 -279v1539q0 51 32 85.5t85 34.5t85 -33.5t32 -82.5v-502q33 68 101 109.5t155 41.5q119 0 208 -66t133 -171.5t44 -231.5t-44 -231.5t-133 -171.5t-208 -66q-78 0 -146 41t-102 101v-396q0 -50 -34.5 -85t-86.5 -35t-86.5 35t-34.5 85zM375 444q0 -112 51.5 -188 t142.5 -76q93 0 146 73.5t53 190.5t-53 191t-146 74q-91 0 -142.5 -76.5t-51.5 -188.5z" />
<glyph unicode="&#xff;" horiz-adv-x="860" d="M20 799q0 47 31.5 76.5t79.5 29.5q79 0 107 -80l202 -585l176 583q23 82 107 82q51 0 81 -33t30 -79q0 -14 -9 -41q-173 -513 -235 -676q-144 -368 -346 -465q-20 -10 -51 -10q-46 0 -77.5 27.5t-31.5 68.5q0 20 10 38.5t20 29t33 30.5q60 53 97.5 102.5t64.5 116.5 l-280 744q-9 32 -9 41zM135 1145q0 47 35 82t82 35t82 -35t35 -82t-35 -82t-82 -35t-82 35t-35 82zM483 1145q0 47 35 82t82 35t82 -35t35 -82t-35 -82t-82 -35t-82 35t-35 82z" />
<glyph unicode="&#x152;" horiz-adv-x="1990" d="M82 682q0 199 74.5 360t212 254t313.5 93q196 0 354 -158v10q0 54 35.5 88.5t87.5 34.5h639q48 0 82.5 -33t34.5 -80t-33.5 -79.5t-81.5 -32.5h-518v-336h297q47 0 81 -32.5t34 -80.5q0 -49 -33.5 -80.5t-81.5 -31.5h-297v-353h533q47 0 80.5 -32.5t33.5 -79.5t-33.5 -80 t-80.5 -33h-654q-53 0 -89 35.5t-36 87.5v8q-147 -156 -354 -156q-176 0 -313.5 93t-212 254t-74.5 360zM328 682q0 -96 21.5 -181.5t63.5 -154.5t111.5 -109t157.5 -40q114 0 195 67t118.5 170t40.5 230v18q0 96 -21.5 181.5t-63.5 154.5t-111.5 109t-157.5 40t-157.5 -40 t-111.5 -109t-63.5 -154.5t-21.5 -181.5z" />
<glyph unicode="&#x153;" horiz-adv-x="1587" d="M72 444q0 94 31 179.5t86.5 149.5t138.5 102t182 38q192 0 315 -133q123 133 312 133q181 0 287 -132.5t106 -336.5q0 -35 -22 -58.5t-68 -23.5h-486q3 -81 54.5 -139.5t144.5 -58.5q99 0 170 61q18 15 28.5 22.5t27 14t34.5 6.5q42 0 67 -25t25 -61q0 -54 -67 -110 q-121 -97 -293 -97q-203 0 -322 129q-123 -129 -313 -129q-99 0 -182 38t-138.5 102t-86.5 149.5t-31 179.5zM309 444q0 -112 53 -188t148 -76t148 76t53 188t-53 188.5t-148 76.5t-148 -76.5t-53 -188.5zM956 537h347q-9 84 -53.5 136t-114.5 52q-71 0 -117 -53t-62 -135z " />
<glyph unicode="&#x178;" horiz-adv-x="1060" d="M12 1266q0 50 33 82t84 32q67 0 98 -57l303 -549l304 549q31 57 98 57q51 0 84 -32t33 -82q0 -32 -19 -64l-377 -639v-457q0 -52 -35 -87t-88 -35t-87.5 35t-34.5 87v457l-377 639q-19 32 -19 64zM227 1593q0 47 35 82t82 35t82 -35t35 -82t-35 -81.5t-82 -34.5t-82 34.5 t-35 81.5zM600 1593q0 47 35 82t82 35t82 -35t35 -82t-35 -81.5t-82 -34.5t-82 34.5t-35 81.5z" />
<glyph unicode="&#x2c6;" horiz-adv-x="782" d="M123 1081q0 35 27 62l182 168q31 24 59 24q29 0 60 -24l182 -168q26 -26 26 -62q0 -32 -23.5 -53.5t-55.5 -21.5q-33 0 -58 22l-131 123l-131 -123q-25 -22 -57 -22t-56 22t-24 53z" />
<glyph unicode="&#x2dc;" horiz-adv-x="804" d="M133 1067q0 22 31 86q29 58 53 80t70 22q31 0 58.5 -12t72.5 -39q6 -3 16 -9l15 -9l12.5 -7.5t12 -6.5t10.5 -4.5t10 -3.5t8 -1q14 0 21.5 10t15.5 35q18 52 65 52q32 0 50 -20.5t18 -49.5q0 -21 -8 -37q-19 -43 -30 -63.5t-29.5 -45t-40 -34t-50.5 -9.5q-12 0 -24 2.5 t-20.5 5t-21 9t-18 10t-19.5 12.5t-18 11q-59 36 -84 36q-27 0 -41 -28q-15 -31 -30 -44.5t-41 -13.5q-30 0 -47 19t-17 47z" />
<glyph unicode="&#x2000;" horiz-adv-x="889" />
<glyph unicode="&#x2001;" horiz-adv-x="1778" />
<glyph unicode="&#x2002;" horiz-adv-x="889" />
<glyph unicode="&#x2003;" horiz-adv-x="1778" />
<glyph unicode="&#x2004;" horiz-adv-x="592" />
<glyph unicode="&#x2005;" horiz-adv-x="444" />
<glyph unicode="&#x2006;" horiz-adv-x="296" />
<glyph unicode="&#x2007;" horiz-adv-x="296" />
<glyph unicode="&#x2008;" horiz-adv-x="222" />
<glyph unicode="&#x2009;" horiz-adv-x="355" />
<glyph unicode="&#x200a;" horiz-adv-x="98" />
<glyph unicode="&#x2010;" horiz-adv-x="819" d="M102 518q0 44 32 75.5t75 31.5h401q43 0 75 -31.5t32 -75.5t-32 -75t-75 -31h-401q-43 0 -75 31t-32 75z" />
<glyph unicode="&#x2011;" horiz-adv-x="819" d="M102 518q0 44 32 75.5t75 31.5h401q43 0 75 -31.5t32 -75.5t-32 -75t-75 -31h-401q-43 0 -75 31t-32 75z" />
<glyph unicode="&#x2012;" horiz-adv-x="819" d="M102 518q0 44 32 75.5t75 31.5h401q43 0 75 -31.5t32 -75.5t-32 -75t-75 -31h-401q-43 0 -75 31t-32 75z" />
<glyph unicode="&#x2013;" horiz-adv-x="1177" d="M102 518q0 44 32 75.5t75 31.5h760q43 0 74.5 -31.5t31.5 -75.5t-31.5 -75t-74.5 -31h-760q-43 0 -75 31t-32 75z" />
<glyph unicode="&#x2014;" horiz-adv-x="1628" d="M102 518q0 44 32 75.5t75 31.5h1210q43 0 75 -31.5t32 -75.5t-32 -75t-75 -31h-1210q-43 0 -75 31t-32 75z" />
<glyph unicode="&#x2018;" horiz-adv-x="430" d="M102 872v115q0 196 66 320q17 34 40.5 54.5t63.5 20.5t68.5 -24t28.5 -55q0 -17 -5 -33t-14 -36.5t-14 -35.5q-31 -95 -31 -203v-123q0 -46 -27.5 -75t-72.5 -29q-47 0 -75 29t-28 75z" />
<glyph unicode="&#x2019;" horiz-adv-x="430" d="M82 848q0 17 5 32.5t14 36t14 35.5q30 92 30 203v123q0 46 28 75t73 29q47 0 74.5 -29t27.5 -75v-115q0 -197 -65 -319q-39 -76 -105 -76q-40 0 -68 24t-28 56z" />
<glyph unicode="&#x201a;" horiz-adv-x="475" d="M86 -268q0 17 5 32.5t14 36t14 35.5q31 95 31 203v123q0 46 27.5 75t72.5 29q47 0 74.5 -29t27.5 -75v-115q0 -197 -65 -319q-39 -76 -105 -76q-40 0 -68 24t-28 56z" />
<glyph unicode="&#x201c;" horiz-adv-x="839" d="M102 872v115q0 196 66 320q17 34 40.5 54.5t63.5 20.5t68.5 -24t28.5 -55q0 -17 -5 -33t-14 -36.5t-14 -35.5q-31 -95 -31 -203v-123q0 -46 -27.5 -75t-72.5 -29q-47 0 -75 29t-28 75zM512 872v115q0 196 66 320q17 34 40.5 54.5t63.5 20.5t68 -24t28 -55q0 -17 -5 -33 t-14 -36.5t-14 -35.5q-30 -92 -30 -203v-123q0 -46 -28 -75t-73 -29q-47 0 -74.5 29t-27.5 75z" />
<glyph unicode="&#x201d;" horiz-adv-x="839" d="M82 848q0 17 5 32.5t14 36t14 35.5q30 92 30 203v123q0 46 28 75t73 29q47 0 74.5 -29t27.5 -75v-115q0 -197 -65 -319q-39 -76 -105 -76q-40 0 -68 24t-28 56zM492 848q0 17 4.5 32.5t13.5 36t14 35.5q31 95 31 203v123q0 46 27.5 75t72.5 29q47 0 75 -29t28 -75v-115 q0 -195 -66 -319q-39 -76 -104 -76q-40 0 -68 24t-28 56z" />
<glyph unicode="&#x201e;" horiz-adv-x="888" d="M86 -268q0 17 5 32.5t14 36t14 35.5q31 95 31 203v123q0 46 27.5 75t72.5 29q47 0 74.5 -29t27.5 -75v-115q0 -197 -65 -319q-39 -76 -105 -76q-40 0 -68 24t-28 56zM500 -268q0 17 4.5 32.5t13.5 36t14 35.5q31 95 31 203v123q0 46 28 75t73 29q47 0 74.5 -29t27.5 -75 v-115q0 -195 -66 -319q-39 -76 -104 -76q-40 0 -68 24t-28 56z" />
<glyph unicode="&#x2022;" horiz-adv-x="724" d="M102 649q0 107 76.5 183.5t183.5 76.5t184 -76.5t77 -183.5t-77 -183.5t-184 -76.5t-183.5 76.5t-76.5 183.5z" />
<glyph unicode="&#x2026;" horiz-adv-x="1597" d="M127 123q0 59 40.5 99t98.5 40q59 0 99.5 -40.5t40.5 -98.5t-40.5 -98.5t-99.5 -40.5q-58 0 -98.5 40t-40.5 99zM659 123q0 58 40.5 98.5t99.5 40.5t99 -40t40 -99t-40 -99t-99 -40t-99.5 40.5t-40.5 98.5zM1192 123q0 59 40 99t99 40t99 -40t40 -99t-40 -99t-99 -40 t-99 40t-40 99z" />
<glyph unicode="&#x202f;" horiz-adv-x="355" />
<glyph unicode="&#x2039;" horiz-adv-x="669" d="M82 436q0 41 29 70l284 270q29 29 66 29q39 0 67.5 -28.5t28.5 -67.5q0 -37 -31 -68l-213 -205l213 -205q31 -31 31 -67q0 -39 -28.5 -67.5t-67.5 -28.5q-38 0 -66 28l-284 271q-29 29 -29 69z" />
<glyph unicode="&#x203a;" horiz-adv-x="669" d="M113 164q0 37 30 67l213 205l-213 205q-30 30 -30 68q0 39 28.5 67.5t67.5 28.5q36 0 65 -29l285 -270q29 -29 29 -70q0 -40 -29 -69l-285 -271q-28 -28 -65 -28q-39 0 -67.5 28.5t-28.5 67.5z" />
<glyph unicode="&#x205f;" horiz-adv-x="444" />
<glyph unicode="&#x20ac;" horiz-adv-x="1284" d="M72 537q0 30 20.5 50.5t50.5 20.5h123q-2 23 -2 74t2 74h-123q-30 0 -50.5 20.5t-20.5 50.5q0 31 20 51.5t51 20.5h142q41 233 176.5 361.5t331.5 128.5q234 0 387 -193q32 -43 32 -82q0 -43 -27.5 -71.5t-72.5 -28.5q-55 0 -92 49q-51 61 -97.5 91t-121.5 30 q-107 0 -184.5 -80.5t-92.5 -204.5h281q31 0 51.5 -20.5t20.5 -51.5q0 -29 -20.5 -50t-51.5 -21h-305q-2 -23 -2 -74t2 -74h305q31 0 51.5 -21t20.5 -50q0 -31 -20.5 -51.5t-51.5 -20.5h-281q15 -124 92.5 -204.5t184.5 -80.5q75 0 121.5 30t97.5 91q37 49 92 49 q45 0 72.5 -28.5t27.5 -71.5q0 -39 -32 -82q-153 -193 -387 -193q-196 0 -331.5 128.5t-176.5 361.5h-142q-31 0 -51 20.5t-20 51.5z" />
<glyph unicode="&#x2122;" horiz-adv-x="1355" d="M68 1305q0 25 18 42t43 17h399q25 0 43.5 -17.5t18.5 -41.5q0 -26 -18.5 -44t-43.5 -18h-137v-426q0 -26 -18.5 -44.5t-44.5 -18.5q-27 0 -46.5 18.5t-19.5 44.5v426h-133q-25 0 -43 18t-18 44zM664 815v498q0 26 18 42.5t45 16.5q41 0 59 -37l172 -405l172 405 q18 37 60 37q27 0 45 -16.5t18 -42.5v-498q0 -27 -17 -44t-46 -17q-26 0 -44 17.5t-18 43.5v246l-106 -258q-19 -49 -64 -49q-44 0 -63 49l-107 258v-246q0 -26 -17.5 -43.5t-43.5 -17.5q-29 0 -46 17t-17 44z" />
<glyph unicode="&#x25fc;" horiz-adv-x="901" d="M0 0v901h901v-901h-901z" />
<glyph unicode="&#xfb01;" horiz-adv-x="1163" d="M6 788q0 42 31 71.5t74 29.5h67v127q0 75 18.5 136t58 109.5t106.5 75.5t157 27h23q51 0 80.5 -28.5t29.5 -73.5q0 -46 -29 -75.5t-79 -29.5h-11q-60 0 -86 -31t-26 -96v-141h129q43 0 72.5 -29t29.5 -72t-29.5 -71.5t-72.5 -28.5h-129v-584q0 -50 -34 -85t-87 -35 t-87 35t-34 85v584h-67q-43 0 -74 29t-31 71zM774 1161q0 57 39 96t96 39t96 -39t39 -96t-39 -96t-96 -39t-96 39t-39 96zM788 104v680q0 50 34.5 85.5t86.5 35.5t86.5 -35.5t34.5 -85.5v-680q0 -50 -34.5 -85t-86.5 -35t-86.5 35t-34.5 85z" />
<glyph unicode="&#xfb02;" horiz-adv-x="1165" d="M6 788q0 42 31 71.5t74 29.5h67v127q0 75 18.5 136t58 109.5t106.5 75.5t157 27h23q51 0 80.5 -28.5t29.5 -73.5q0 -46 -29 -75.5t-79 -29.5h-11q-60 0 -86 -31t-26 -96v-141h129q43 0 72.5 -29t29.5 -72t-29.5 -71.5t-72.5 -28.5h-129v-584q0 -50 -34 -85t-87 -35 t-87 35t-34 85v584h-67q-43 0 -74 29t-31 71zM791 104v1156q0 50 34 85t86 35t86.5 -35t34.5 -85v-1156q0 -50 -34.5 -85t-86.5 -35t-86 35t-34 85z" />
</font>
</defs>
</svg>
