<?xml version="1.0" encoding="utf-8"?>
<!-- Generator: Adobe Illustrator 16.0.0, SVG Export Plug-In . SVG Version: 6.00 Build 0)  -->
<!DOCTYPE svg PUBLIC "-//W3C//DTD SVG 1.1//EN" "http://www.w3.org/Graphics/SVG/1.1/DTD/svg11.dtd">
<svg version="1.1" id="Layer_1" xmlns="http://www.w3.org/2000/svg" xmlns:xlink="http://www.w3.org/1999/xlink" x="0px" y="0px"
	 width="44px" height="44px" viewBox="0 0 44 44" enable-background="new 0 0 44 44" xml:space="preserve">
<g>
	<path fill="#FFFFFF" d="M34.88,14.904c0,1.175-0.953,2.129-2.129,2.129H11.249c-1.176,0-2.129-0.954-2.129-2.129l0,0
		c0-1.175,0.953-2.129,2.129-2.129h21.502C33.927,12.775,34.88,13.729,34.88,14.904L34.88,14.904z"/>
	<path fill="#FFFFFF" d="M34.88,22c0,1.175-0.953,2.129-2.129,2.129H11.249c-1.176,0-2.129-0.954-2.129-2.129l0,0
		c0-1.175,0.953-2.129,2.129-2.129h21.502C33.927,19.871,34.88,20.825,34.88,22L34.88,22z"/>
	<path fill="#FFFFFF" d="M34.88,29.096c0,1.175-0.953,2.129-2.129,2.129H11.249c-1.176,0-2.129-0.954-2.129-2.129l0,0
		c0-1.175,0.953-2.129,2.129-2.129h21.502C33.927,26.967,34.88,27.921,34.88,29.096L34.88,29.096z"/>
</g>
</svg>
